<svg width="32" height="32" viewBox="0 0 32 32" fill="none" xmlns="http://www.w3.org/2000/svg">
<rect width="32" height="32" rx="16" fill="#1D252C"/>
<path d="M11.5842 24H8.2663V13.3071H11.5842V24ZM9.92524 11.8502C8.86003 11.8502 8 10.9882 8 9.92508C8 8.86191 8.86003 8 9.92524 8C10.9861 8 11.8461 8.86191 11.8461 9.92508C11.8461 10.9839 10.9861 11.8502 9.92524 11.8502ZM24 24H20.6865V18.8023C20.6865 17.5641 20.6647 15.9672 18.9621 15.9672C17.2377 15.9672 16.9757 17.3191 16.9757 18.7148V24H13.6666V13.3071H16.8447V14.7684H16.8884C17.3293 13.9284 18.412 13.0402 20.0229 13.0402C23.3801 13.0402 24 15.254 24 18.1329V24Z" fill="#F1F3F8"/>
</svg>
