<svg width="56" height="56" viewBox="0 0 56 56" fill="none" xmlns="http://www.w3.org/2000/svg">
<rect width="56" height="56" rx="10" fill="#4A5156"/>
<path d="M40.2392 20.125V27.125C40.2397 27.2977 40.1891 27.4668 40.0937 27.6108C39.9984 27.7549 39.8625 27.8674 39.7032 27.9344C39.5953 27.9772 39.4803 27.9995 39.3642 28C39.1318 27.999 38.9087 27.909 38.7407 27.7484L35.8642 24.8609L29.4877 31.2484C29.3218 31.4127 29.0977 31.5049 28.8642 31.5049C28.6307 31.5049 28.4067 31.4127 28.2408 31.2484L24.4893 27.4859L17.2377 34.7484C17.0698 34.909 16.8466 34.999 16.6143 35C16.3824 34.9968 16.16 34.9071 15.9909 34.7484C15.8266 34.5825 15.7344 34.3585 15.7344 34.125C15.7344 33.8915 15.8266 33.6675 15.9909 33.5016L23.8658 25.6266C24.0317 25.4623 24.2558 25.3701 24.4893 25.3701C24.7227 25.3701 24.9468 25.4623 25.1127 25.6266L28.8642 29.3891L34.6283 23.625L31.7408 20.7484C31.6221 20.6219 31.5416 20.4644 31.5087 20.2941C31.4758 20.1237 31.4918 19.9476 31.5548 19.7859C31.623 19.6275 31.7358 19.4924 31.8796 19.3972C32.0234 19.3021 32.1918 19.2509 32.3642 19.25H39.3642C39.5962 19.25 39.8188 19.3422 39.9829 19.5063C40.147 19.6704 40.2392 19.8929 40.2392 20.125Z" fill="white"/>
</svg>
