<svg width="36" height="36" viewBox="0 0 36 36" fill="none" xmlns="http://www.w3.org/2000/svg">
<path d="M19.4995 16.5001L5.24946 30.7501M21.0271 5.30781C22.8541 6.52012 24.6102 7.94936 26.2512 9.59034C27.9063 11.2455 29.3461 13.0177 30.565 14.8617M13.8819 11.8443L9.5696 10.4069C9.07297 10.2413 8.52597 10.3467 8.12635 10.6848L3.84061 14.3112C2.96322 15.0536 3.21249 16.4665 4.29096 16.8638L8.35176 18.3599M17.521 27.5289L19.0171 31.5897C19.4144 32.6682 20.8273 32.9174 21.5697 32.04L25.1961 27.7543C25.5342 27.3547 25.6396 26.8077 25.474 26.3111L24.0366 21.9987M29.0223 3.4062L21.6626 4.63281C20.8679 4.76526 20.139 5.15587 19.5886 5.74423L9.669 16.3479C7.09777 19.0965 7.16929 23.3889 9.83066 26.0502C12.492 28.7116 16.7844 28.7831 19.533 26.2119L30.1367 16.2923C30.725 15.7419 31.1156 15.013 31.2481 14.2183L32.4747 6.85857C32.8131 4.82811 31.0528 3.06779 29.0223 3.4062Z" stroke="#1D252C" stroke-width="3.99998" stroke-linejoin="round"/>
</svg>
