<svg width="56" height="56" viewBox="0 0 56 56" fill="none" xmlns="http://www.w3.org/2000/svg">
<rect width="56" height="56" rx="10" fill="#4A5156"/>
<path d="M17.6165 28.3162C17.4006 27.6687 17.8826 27 18.5652 27H23.0185C23.7011 27 24.183 27.6687 23.9672 28.3162L23.4161 29.9694C23.1439 30.7861 22.3796 31.3369 21.5188 31.3369H20.0649C19.204 31.3369 18.4398 30.7861 18.1675 29.9694L17.6165 28.3162Z" stroke="white" stroke-width="2" stroke-linejoin="round"/>
<path d="M18.791 27L20.791 21L22.791 27" stroke="white" stroke-width="2" stroke-linejoin="round"/>
<path d="M32.0325 28.3162C31.8166 27.6687 32.2986 27 32.9812 27H37.4345C38.1171 27 38.599 27.6687 38.3832 28.3162L37.8322 29.9694C37.5599 30.7861 36.7956 31.3369 35.9348 31.3369H34.4809C33.62 31.3369 32.8558 30.7861 32.5835 29.9694L32.0325 28.3162Z" stroke="white" stroke-width="2" stroke-linejoin="round"/>
<path d="M33.207 27L35.207 21L37.207 27" stroke="white" stroke-width="2" stroke-linejoin="round"/>
<path d="M28 37L28 17" stroke="white" stroke-width="2" stroke-linejoin="round"/>
<path d="M24 37H32" stroke="white" stroke-width="2" stroke-linejoin="round"/>
<path d="M19 20H37" stroke="white" stroke-width="2" stroke-linejoin="round"/>
</svg>
