<svg width="56" height="56" viewBox="0 0 56 56" fill="none" xmlns="http://www.w3.org/2000/svg">
<rect width="56" height="56" rx="10" fill="#1D252C"/>
<g clip-path="url(#clip0_2471_9806)">
<path d="M38 28C38 33.5228 33.5228 38 28 38C22.4772 38 18 33.5228 18 28M38 28C38 22.4772 33.5228 18 28 18M38 28H35.5M18 28C18 22.4772 22.4772 18 28 18M18 28H20.5M28 18V20.5M35.0784 21L29.4999 26.5M35.0784 35.0784L34.8745 34.8745C34.1827 34.1827 33.8368 33.8368 33.4331 33.5894C33.0753 33.3701 32.6851 33.2085 32.2769 33.1105C31.8166 33 31.3274 33 30.349 33L25.651 33C24.6726 33 24.1834 33 23.7231 33.1106C23.3149 33.2086 22.9248 33.3702 22.5669 33.5895C22.1632 33.8369 21.8173 34.1828 21.1255 34.8746L20.9216 35.0784M20.9216 21L22.6581 22.7365M30 28C30 29.1046 29.1046 30 28 30C26.8954 30 26 29.1046 26 28C26 26.8954 26.8954 26 28 26C29.1046 26 30 26.8954 30 28Z" stroke="white" stroke-width="2.5" stroke-linejoin="round"/>
</g>
<defs>
<clipPath id="clip0_2471_9806">
<rect width="24" height="24" fill="white" transform="translate(16 16)"/>
</clipPath>
</defs>
</svg>
