<svg width="56" height="56" viewBox="0 0 56 56" fill="none" xmlns="http://www.w3.org/2000/svg">
<rect width="56" height="56" rx="10" fill="white"/>
<path fill-rule="evenodd" clip-rule="evenodd" d="M22.5288 15.3316C21.1444 15.1751 19.7459 15.4582 18.5314 16.1409C18.2132 16.3198 17.9971 16.6374 17.9473 16.999C17.8976 17.3607 18.02 17.7247 18.2782 17.9829L21.1846 20.8893L20.7174 21.3563L17.8095 18.45C17.5513 18.192 17.1872 18.0696 16.8255 18.1195C16.4639 18.1693 16.1464 18.3855 15.9676 18.7038C15.2854 19.9183 15.0026 21.3166 15.1593 22.7007C15.3161 24.0848 15.9044 25.3845 16.8409 26.4156C17.7774 27.4468 19.0146 28.1571 20.3773 28.4459C21.4026 28.6633 22.4597 28.6337 23.4631 28.3661L25.2429 26.5864L24.7893 26.1327C24.5705 25.9139 24.2737 25.791 23.9643 25.791H23.9622C23.7999 25.791 23.6394 25.8248 23.491 25.8904C22.6647 26.2551 21.7447 26.3506 20.8611 26.1634C19.9776 25.976 19.1754 25.5155 18.5682 24.8469C17.9609 24.1783 17.5795 23.3356 17.4779 22.4381C17.4394 22.0988 17.4417 21.7581 17.4834 21.423L19.8927 23.8309C20.3483 24.2862 21.0866 24.2862 21.5422 23.8309L23.6595 21.7147C23.8784 21.4959 24.0013 21.1991 24.0014 20.8897C24.0014 20.5802 23.8785 20.2834 23.6597 20.0646L21.2511 17.6559C21.5863 17.6141 21.9271 17.6117 22.2667 17.6501C23.1643 17.7516 24.0073 18.133 24.676 18.7403C25.3448 19.3476 25.8054 20.15 25.9927 21.0337C26.18 21.9174 26.0843 22.8377 25.7194 23.664C25.5248 24.1047 25.621 24.6196 25.9617 24.9603L26.4153 25.4139L28.1961 23.6332C28.463 22.6305 28.4924 21.5743 28.2753 20.55C27.9865 19.187 27.2761 17.9495 26.2446 17.0129C25.2132 16.0763 23.9132 15.4881 22.5288 15.3316ZM32.8986 27.5291L30.7145 29.7131L30.9056 29.9042C31.2461 30.2447 31.761 30.3411 32.2016 30.1466C33.0279 29.782 33.948 29.6866 34.8315 29.8739C35.715 30.0614 36.5172 30.522 37.1244 31.1908C37.7315 31.8595 38.1128 32.7022 38.2143 33.5997C38.2527 33.9388 38.2503 34.2794 38.2087 34.6142L35.8015 32.2063C35.5826 31.9875 35.2858 31.8645 34.9763 31.8645C34.6668 31.8645 34.37 31.9875 34.1512 32.2065L32.035 34.3237C31.5796 34.7793 31.5797 35.5179 32.0351 35.9734L34.4422 38.3805C34.1074 38.422 33.7668 38.4243 33.4277 38.3858C32.5303 38.2842 31.6876 37.9028 31.019 37.2956C30.3504 36.6883 29.8899 35.8861 29.7026 35.0026C29.5153 34.1191 29.6108 33.1989 29.9755 32.3727C30.17 31.9321 30.0737 31.4172 29.7332 31.0767L29.5421 30.8856L27.3579 33.0698C27.2312 33.8677 27.2504 34.6868 27.4199 35.4864C27.7088 36.8491 28.4191 38.0863 29.4503 39.0228C30.4814 39.9593 31.781 40.5477 33.1652 40.7043C34.5493 40.8611 35.9476 40.5783 37.1621 39.8961C37.4804 39.7173 37.6966 39.3998 37.7464 39.0381C37.7963 38.6763 37.6738 38.3122 37.4156 38.054L34.5099 35.1482L34.9764 34.6814L37.8818 37.5876C38.14 37.8458 38.5041 37.9683 38.8657 37.9186C39.2275 37.8688 39.5451 37.6526 39.7239 37.3343C40.4063 36.1199 40.6894 34.7217 40.5329 33.3375C40.3763 31.9534 39.7882 30.6535 38.8519 29.6223C37.9155 28.591 36.6784 27.8805 35.3157 27.5915C34.5158 27.4218 33.6966 27.4024 32.8986 27.5291Z" fill="#1D252C"/>
<path d="M25.7674 33.4638L22.666 30.3623L16.0938 36.9346L19.1952 40.0361L25.7674 33.4638Z" stroke="#1D252C" stroke-width="2.5" stroke-linejoin="round"/>
<path d="M36.8853 19.2441L23.6797 32.4498" stroke="#1D252C" stroke-width="2.5" stroke-linejoin="round"/>
<path d="M38.0181 21.903L34.2188 18.1037L38.9681 15.2534L40.8684 17.1536L38.0181 21.903Z" fill="#1D252C"/>
</svg>
