<svg width="36" height="36" viewBox="0 0 36 36" fill="none" xmlns="http://www.w3.org/2000/svg">
<g clip-path="url(#clip0_101_17)">
<path d="M4.96145 23.1032L7.63292 21.561C7.77762 21.4774 7.94743 21.4484 8.11167 21.4791L13.368 22.4629C13.7999 22.5437 14.1987 22.2112 14.1967 21.7717L14.1763 17.1662C14.1757 17.0411 14.2087 16.9181 14.2718 16.8101L16.9244 12.2687C17.0625 12.0323 17.0501 11.7372 16.8928 11.5132L12.4265 5.15596M27.8003 8.00267C20.1003 11.7001 24.3001 16.6001 25.7003 17.3001C28.3282 18.6138 31.9827 18.7 31.9827 18.7C31.9941 18.4681 32 18.2347 32 18C32 10.268 25.732 4 18 4C10.268 4 4 10.268 4 18C4 25.732 10.268 32 18 32C18.2347 32 18.4681 31.9942 18.7 31.9828M24 32L19.5665 20.3117L31.2548 24.7452L26.0718 26.817L24 32Z" stroke="#1D252C" stroke-width="3.99998" stroke-linejoin="round"/>
</g>
<defs>
<clipPath id="clip0_101_17">
<rect width="32" height="32" fill="white" transform="translate(2 2)"/>
</clipPath>
</defs>
</svg>
