<svg width="44" height="44" viewBox="0 0 44 44" fill="none" xmlns="http://www.w3.org/2000/svg">
<path d="M38 44H34V39.8095C34 36.3379 31.3138 33.5238 28 33.5238H16C12.6863 33.5238 10 36.3379 10 39.8095V44H6V39.8095C6 34.0237 10.4772 29.3333 16 29.3333H28C33.5228 29.3333 38 34.0237 38 39.8095V44ZM22 25.1429C15.3726 25.1429 10 19.5144 10 12.5714C10 5.62842 15.3726 0 22 0C28.6274 0 34 5.62842 34 12.5714C34 19.5144 28.6274 25.1429 22 25.1429ZM22 20.9524C26.4182 20.9524 30 17.2001 30 12.5714C30 7.94275 26.4182 4.19048 22 4.19048C17.5817 4.19048 14 7.94275 14 12.5714C14 17.2001 17.5817 20.9524 22 20.9524Z" fill="black"/>
</svg>
