<svg width="80" height="80" viewBox="0 0 80 80" fill="none" xmlns="http://www.w3.org/2000/svg">
<path d="M53.75 35V72.1807C53.75 76.5178 49.9941 80 45.6019 80H7.9491C3.55691 80 4.98542e-07 76.4877 4.46462e-07 72.1506L0 34.9699C-5.20798e-08 30.6327 3.58001 26.25 7.9722 26.25H45.625C50.0172 26.25 53.75 23.6382 53.75 19.3011V5.54736C53.75 2.50028 56.2202 0.030122 59.2672 0.030122L74.4828 0C77.5299 -3.6085e-08 80 2.47016 80 5.51725V21.6032C80 24.6502 77.5529 26.25 74.5059 26.25H61.5232C57.1311 26.25 53.75 30.6629 53.75 35Z" fill="#FCDA01"/>
<path fill-rule="evenodd" clip-rule="evenodd" d="M26.9928 45.7132C24.8689 43.2302 21.3271 42.5622 18.6659 44.836C16.0048 47.1097 15.6301 50.9113 17.7199 53.6005C19.4575 55.8364 24.7159 60.552 26.4393 62.0782C26.6321 62.249 26.7285 62.3343 26.841 62.3679C26.9391 62.3972 27.0465 62.3972 27.1447 62.3679C27.2571 62.3343 27.3535 62.249 27.5463 62.0782C29.2698 60.552 34.5282 55.8364 36.2657 53.6005C38.3555 50.9113 38.0266 47.0858 35.3197 44.836C32.6128 42.5862 29.1168 43.2302 26.9928 45.7132Z" stroke="#1D252C" stroke-width="2.5" stroke-linejoin="round"/>
</svg>
