<svg width="80" height="80" viewBox="0 0 80 80" fill="none" xmlns="http://www.w3.org/2000/svg">
<path d="M53.75 35V72.1807C53.75 76.5178 49.9941 80 45.6019 80H7.9491C3.55691 80 4.98542e-07 76.4877 4.46462e-07 72.1506L0 34.9699C-5.20798e-08 30.6327 3.58001 26.25 7.9722 26.25H45.625C50.0172 26.25 53.75 23.6382 53.75 19.3011V5.54736C53.75 2.50028 56.2202 0.030122 59.2672 0.030122L74.4828 0C77.5299 -3.6085e-08 80 2.47016 80 5.51725V21.6032C80 24.6502 77.5529 26.25 74.5059 26.25H61.5232C57.1311 26.25 53.75 30.6629 53.75 35Z" fill="#FCDA01"/>
<g clip-path="url(#clip0_112_521)">
<path d="M28.086 51.921L17.8445 62.1624M29.1868 43.8556C30.5034 44.7292 31.7688 45.7592 32.9514 46.9417C34.1441 48.1344 35.1816 49.4115 36.06 50.7403M24.0379 48.5659L20.9304 47.5301C20.5725 47.4108 20.1783 47.4867 19.8903 47.7304L16.802 50.3436C16.1697 50.8786 16.3493 51.8967 17.1265 52.1831L20.0528 53.2612M26.6603 59.8685L27.7384 62.7947C28.0247 63.5719 29.0428 63.7515 29.5778 63.1193L32.1911 60.0309C32.4347 59.7429 32.5106 59.3488 32.3913 58.9909L31.3555 55.8834M34.9483 42.4853L29.6448 43.3692C29.0721 43.4647 28.5468 43.7461 28.1502 44.1701L21.002 51.8113C19.1491 53.792 19.2007 56.8851 21.1185 58.8029C23.0363 60.7208 26.1295 60.7723 28.1101 58.9194L35.7513 51.7712C36.1753 51.3746 36.4568 50.8493 36.5522 50.2767L37.4361 44.9731C37.68 43.51 36.4115 42.2414 34.9483 42.4853Z" stroke="#1D252C" stroke-width="2.5" stroke-linejoin="round"/>
</g>
<defs>
<clipPath id="clip0_112_521">
<rect width="24" height="24" fill="white" transform="translate(15 41)"/>
</clipPath>
</defs>
</svg>
