<svg width="80" height="80" viewBox="0 0 80 80" fill="none" xmlns="http://www.w3.org/2000/svg">
<path d="M53.75 35V72.1807C53.75 76.5178 49.9941 80 45.6019 80H7.9491C3.55691 80 4.98542e-07 76.4877 4.46462e-07 72.1506L0 34.9699C-5.20798e-08 30.6327 3.58001 26.25 7.9722 26.25H45.625C50.0172 26.25 53.75 23.6382 53.75 19.3011V5.54736C53.75 2.50028 56.2202 0.030122 59.2672 0.030122L74.4828 0C77.5299 -3.6085e-08 80 2.47016 80 5.51725V21.6032C80 24.6502 77.5529 26.25 74.5059 26.25H61.5232C57.1311 26.25 53.75 30.6629 53.75 35Z" fill="#FCDA01"/>
<path d="M20.9423 63.4922L27 53M32.2675 43.8763C27.7235 41.2529 22.0375 42.3992 18.831 46.3449C18.5181 46.73 18.3616 46.9226 18.3161 47.1985C18.2798 47.418 18.3335 47.7089 18.4456 47.901C18.5866 48.1425 18.8364 48.2868 19.3361 48.5753L34.6638 57.4248C35.1635 57.7132 35.4133 57.8575 35.6929 57.8588C35.9154 57.8598 36.1942 57.7608 36.3662 57.6197C36.5823 57.4424 36.6709 57.2106 36.8479 56.747C38.6618 51.9972 36.8115 46.4998 32.2675 43.8763ZM32.2675 43.8763C30.252 42.7127 26.2597 45.8541 23.3505 50.893M32.2675 43.8763C34.2831 45.04 33.5586 50.0682 30.6494 55.107M37.5351 63.5351H16.4648" stroke="#1D252C" stroke-width="2.5" stroke-linejoin="round"/>
</svg>
