<svg width="56" height="56" viewBox="0 0 56 56" fill="none" xmlns="http://www.w3.org/2000/svg">
<rect width="56" height="56" rx="10" fill="#1D252C"/>
<path d="M20.5949 30.5435L21.0949 31.4096L21.0949 31.4096L20.5949 30.5435ZM20.9369 30.4851L21.1209 29.5022H21.1209L20.9369 30.4851ZM24.6914 31.1878L24.5074 32.1707H24.5074L24.6914 31.1878ZM25.2834 30.6941L24.2834 30.6985V30.6985L25.2834 30.6941ZM25.2688 27.4045L24.2688 27.4089L25.2688 27.4045ZM25.337 27.15L24.4735 26.6457L24.4735 26.6457L25.337 27.15ZM27.2317 23.9062L26.3682 23.4018L26.3682 23.4018L27.2317 23.9062ZM27.2091 23.3666L26.3909 23.9415V23.9415L27.2091 23.3666ZM37.9876 28.5L37.9641 29.4997C38.5062 29.5125 38.9598 29.0908 38.9864 28.5492L37.9876 28.5ZM33.5002 27.5L33.9474 26.6056L33.5002 27.5ZM35.4331 21.7605C35.9309 21.5214 36.1407 20.9241 35.9017 20.4262C35.6626 19.9283 35.0652 19.7185 34.5674 19.9576L35.4331 21.7605ZM32.7578 37.9398L31.8228 38.2944C31.969 38.6799 32.3367 38.9361 32.7489 38.9398C33.1611 38.9434 33.5333 38.6937 33.6863 38.311L32.7578 37.9398ZM29.591 29.591L29.9457 28.656C29.5777 28.5164 29.1622 28.6056 28.8839 28.8839C28.6056 29.1622 28.5164 29.5777 28.656 29.9457L29.591 29.591ZM37.9398 32.7578L38.311 33.6863C38.6937 33.5333 38.9434 33.1611 38.9398 32.7489C38.9361 32.3367 38.6799 31.969 38.2944 31.8228L37.9398 32.7578ZM34.2376 34.2376L33.8665 33.3091C33.6122 33.4107 33.4107 33.6122 33.3091 33.8665L34.2376 34.2376ZM28.5492 38.9865C29.1008 38.9593 29.526 38.4902 29.4988 37.9385C29.4716 37.3869 29.0024 36.9618 28.4508 36.9889L28.5492 38.9865ZM20.095 29.6775L18.1868 30.7791L19.1867 32.5112L21.0949 31.4096L20.095 29.6775ZM21.1209 29.5022C20.7689 29.4363 20.4051 29.4985 20.095 29.6775L21.0949 31.4096C20.9915 31.4693 20.8703 31.49 20.7529 31.468L21.1209 29.5022ZM24.8754 30.2048L21.1209 29.5022L20.7529 31.468L24.5074 32.1707L24.8754 30.2048ZM24.2834 30.6985C24.282 30.3846 24.5668 30.1471 24.8754 30.2048L24.5074 32.1707C25.4331 32.3439 26.2876 31.6314 26.2834 30.6896L24.2834 30.6985ZM24.2688 27.4089L24.2834 30.6985L26.2834 30.6896L26.2688 27.4L24.2688 27.4089ZM24.4735 26.6457C24.3383 26.8772 24.2676 27.1408 24.2688 27.4089L26.2688 27.4C26.2691 27.4894 26.2456 27.5772 26.2005 27.6544L24.4735 26.6457ZM26.3682 23.4018L24.4735 26.6457L26.2005 27.6544L28.0952 24.4106L26.3682 23.4018ZM26.3909 23.9415C26.2785 23.7815 26.2696 23.5707 26.3682 23.4018L28.0952 24.4106C28.3911 23.9041 28.3645 23.2717 28.0274 22.7917L26.3909 23.9415ZM23.2007 19.4005L26.3909 23.9415L28.0274 22.7917L24.8372 18.2508L23.2007 19.4005ZM37.9876 28.5C38.0112 27.5003 38.0114 27.5003 38.0115 27.5003C38.0116 27.5003 38.0117 27.5003 38.0118 27.5003C38.0119 27.5003 38.012 27.5003 38.0121 27.5003C38.0122 27.5003 38.0122 27.5003 38.012 27.5003C38.0117 27.5003 38.0107 27.5003 38.0091 27.5002C38.006 27.5001 38.0004 27.4999 37.9926 27.4997C37.9769 27.4991 37.9519 27.4982 37.9186 27.4966C37.8519 27.4935 37.7519 27.4879 37.6248 27.4785C37.3701 27.4595 37.0102 27.4249 36.5957 27.3629C35.7498 27.2364 34.7481 27.0059 33.9474 26.6056L33.0531 28.3945C34.1294 28.9326 35.3714 29.202 36.2999 29.3409C36.7726 29.4116 37.1827 29.4511 37.4761 29.4729C37.6231 29.4839 37.7416 29.4905 37.825 29.4944C37.8667 29.4964 37.8997 29.4977 37.9232 29.4985C37.9349 29.4989 37.9442 29.4992 37.9511 29.4994C37.9545 29.4995 37.9573 29.4995 37.9595 29.4996C37.9605 29.4996 37.9615 29.4996 37.9622 29.4997C37.9626 29.4997 37.963 29.4997 37.9633 29.4997C37.9634 29.4997 37.9636 29.4997 37.9637 29.4997C37.9639 29.4997 37.9641 29.4997 37.9876 28.5ZM33.9474 26.6056C33.8747 26.5693 33.6101 26.3773 33.3338 26.0157C33.07 25.6704 32.8644 25.2584 32.8019 24.8361C32.7431 24.4389 32.8026 23.9915 33.1342 23.4993C33.4801 22.986 34.1588 22.3724 35.4331 21.7605L34.5674 19.9576C33.0917 20.6662 32.0828 21.4805 31.4756 22.3818C30.854 23.3043 30.6947 24.2583 30.8234 25.1287C30.9484 25.974 31.3366 26.6959 31.7446 27.2299C32.1402 27.7478 32.6256 28.1808 33.0531 28.3945L33.9474 26.6056ZM33.6928 37.5851L30.526 29.2363L28.656 29.9457L31.8228 38.2944L33.6928 37.5851ZM29.2363 30.526L37.5851 33.6928L38.2944 31.8228L29.9457 28.656L29.2363 30.526ZM37.5686 31.8292L33.8665 33.3091L34.6088 35.1662L38.311 33.6863L37.5686 31.8292ZM33.3091 33.8665L31.8292 37.5686L33.6863 38.311L35.1662 34.6088L33.3091 33.8665ZM28 37C23.0294 37 19 32.9706 19 28H17C17 34.0751 21.9249 39 28 39V37ZM19 28C19 23.0294 23.0294 19 28 19V17C21.9249 17 17 21.9249 17 28H19ZM28 19C32.9706 19 37 23.0294 37 28H39C39 21.9249 34.0751 17 28 17V19ZM28.4508 36.9889C28.3015 36.9963 28.1512 37 28 37V39C28.1841 39 28.3672 38.9955 28.5492 38.9865L28.4508 36.9889ZM37 28C37 28.151 36.9962 28.3012 36.9889 28.4508L38.9864 28.5492C38.9954 28.3675 39 28.1844 39 28H37Z" fill="white"/>
</svg>
