<svg width="56" height="56" viewBox="0 0 56 56" fill="none" xmlns="http://www.w3.org/2000/svg">
<rect width="56" height="56" rx="10" fill="#4A5156"/>
<path d="M19.8359 16.3325C19.1437 16.3325 18.467 16.5378 17.8914 16.9224C17.3159 17.307 16.8673 17.8536 16.6024 18.4931C16.3375 19.1327 16.2681 19.8364 16.4032 20.5153C16.5382 21.1943 16.8716 21.8179 17.3611 22.3074C17.8505 22.7969 18.4742 23.1302 19.1531 23.2653C19.8321 23.4003 20.5358 23.331 21.1753 23.0661C21.8149 22.8012 22.3615 22.3526 22.7461 21.777C23.1307 21.2014 23.3359 20.5247 23.3359 19.8325C23.3359 18.9043 22.9672 18.014 22.3108 17.3576C21.6544 16.7013 20.7642 16.3325 19.8359 16.3325ZM19.8359 20.9992C19.6052 20.9992 19.3796 20.9308 19.1878 20.8026C18.9959 20.6744 18.8464 20.4922 18.7581 20.279C18.6698 20.0658 18.6467 19.8312 18.6917 19.6049C18.7367 19.3786 18.8478 19.1707 19.011 19.0076C19.1741 18.8444 19.382 18.7333 19.6083 18.6883C19.8346 18.6433 20.0692 18.6664 20.2824 18.7547C20.4956 18.843 20.6778 18.9925 20.806 19.1844C20.9342 19.3762 21.0026 19.6018 21.0026 19.8325C21.0026 20.1419 20.8797 20.4387 20.6609 20.6575C20.4421 20.8763 20.1454 20.9992 19.8359 20.9992Z" fill="white"/>
<path d="M19.8359 24.4995C19.1437 24.4995 18.467 24.7048 17.8914 25.0894C17.3159 25.474 16.8673 26.0206 16.6024 26.6601C16.3375 27.2996 16.2681 28.0034 16.4032 28.6824C16.5382 29.3612 16.8716 29.9849 17.3611 30.4744C17.8505 30.9639 18.4742 31.2972 19.1531 31.4323C19.8321 31.5673 20.5358 31.498 21.1753 31.233C21.8149 30.9682 22.3615 30.5196 22.7461 29.944C23.1307 29.3685 23.3359 28.6917 23.3359 27.9995C23.3359 27.0713 22.9672 26.181 22.3108 25.5246C21.6544 24.8683 20.7642 24.4995 19.8359 24.4995ZM19.8359 29.1662C19.6052 29.1662 19.3796 29.0978 19.1878 28.9696C18.9959 28.8414 18.8464 28.6591 18.7581 28.446C18.6698 28.2328 18.6467 27.9982 18.6917 27.7719C18.7367 27.5456 18.8478 27.3377 19.011 27.1746C19.1741 27.0113 19.382 26.9003 19.6083 26.8552C19.8346 26.8102 20.0692 26.8333 20.2824 26.9216C20.4956 27.0099 20.6778 27.1595 20.806 27.3513C20.9342 27.5432 21.0026 27.7687 21.0026 27.9995C21.0026 28.3089 20.8797 28.6057 20.6609 28.8245C20.4421 29.0432 20.1454 29.1662 19.8359 29.1662Z" fill="white"/>
<path d="M19.8359 32.6665C19.1437 32.6665 18.467 32.8717 17.8914 33.2564C17.3159 33.6409 16.8673 34.1876 16.6024 34.8271C16.3375 35.4666 16.2681 36.1704 16.4032 36.8494C16.5382 37.5282 16.8716 38.1519 17.3611 38.6414C17.8505 39.1309 18.4742 39.4642 19.1531 39.5993C19.8321 39.7343 20.5358 39.665 21.1753 39.4C21.8149 39.1352 22.3615 38.6866 22.7461 38.111C23.1307 37.5355 23.3359 36.8587 23.3359 36.1665C23.3359 35.2383 22.9672 34.348 22.3108 33.6917C21.6544 33.0353 20.7642 32.6665 19.8359 32.6665ZM19.8359 37.3332C19.6052 37.3332 19.3796 37.2648 19.1878 37.1366C18.9959 37.0084 18.8464 36.8261 18.7581 36.613C18.6698 36.3998 18.6467 36.1652 18.6917 35.9389C18.7367 35.7126 18.8478 35.5047 19.011 35.3416C19.1741 35.1783 19.382 35.0673 19.6083 35.0222C19.8346 34.9772 20.0692 35.0003 20.2824 35.0886C20.4956 35.1769 20.6778 35.3265 20.806 35.5183C20.9342 35.7102 21.0026 35.9357 21.0026 36.1665C21.0026 36.4759 20.8797 36.7727 20.6609 36.9915C20.4421 37.2102 20.1454 37.3332 19.8359 37.3332Z" fill="white"/>
<path d="M39.6719 18.665H25.6719V20.9984H39.6719V18.665Z" fill="white"/>
<path d="M39.6719 26.832H25.6719V29.1654H39.6719V26.832Z" fill="white"/>
<path d="M39.6719 34.999H25.6719V37.3324H39.6719V34.999Z" fill="white"/>
</svg>
