<svg width="56" height="56" viewBox="0 0 56 56" fill="none" xmlns="http://www.w3.org/2000/svg">
<rect width="56" height="56" rx="10" fill="white"/>
<path d="M28 38.3829L33.7747 32.6081C36.964 29.4189 36.964 24.2481 33.7747 21.0588C30.5855 17.8695 25.4146 17.8695 22.2253 21.0588C19.036 24.2481 19.036 29.4189 22.2253 32.6081L28 38.3829ZM28 41.6827L20.5754 34.2582C16.4749 30.1576 16.4749 23.5094 20.5754 19.4089C24.6759 15.3084 31.3241 15.3084 35.4247 19.4089C39.5252 23.5094 39.5252 30.1576 35.4247 34.2582L28 41.6827ZM28 29.1668C29.2887 29.1668 30.3333 28.1222 30.3333 26.8335C30.3333 25.5448 29.2887 24.5002 28 24.5002C26.7113 24.5002 25.6667 25.5448 25.6667 26.8335C25.6667 28.1222 26.7113 29.1668 28 29.1668ZM28 31.5002C25.4227 31.5002 23.3333 29.4108 23.3333 26.8335C23.3333 24.2562 25.4227 22.1668 28 22.1668C30.5773 22.1668 32.6667 24.2562 32.6667 26.8335C32.6667 29.4108 30.5773 31.5002 28 31.5002Z" fill="#1D252C"/>
</svg>
