<svg width="44" height="44" viewBox="0 0 44 44" fill="none" xmlns="http://www.w3.org/2000/svg">
<path d="M42.1615 3.6665H1.82812V40.3332H42.1615V3.6665Z" stroke="#1D252C" stroke-width="3.42857" stroke-miterlimit="10" stroke-linejoin="round"/>
<path d="M9.16146 11.0002C10.174 11.0002 10.9948 10.1793 10.9948 9.16683C10.9948 8.15432 10.174 7.3335 9.16146 7.3335C8.14894 7.3335 7.32812 8.15432 7.32812 9.16683C7.32812 10.1793 8.14894 11.0002 9.16146 11.0002Z" fill="#1D252C"/>
<path d="M16.5052 11.0002C17.5177 11.0002 18.3385 10.1793 18.3385 9.16683C18.3385 8.15432 17.5177 7.3335 16.5052 7.3335C15.4927 7.3335 14.6719 8.15432 14.6719 9.16683C14.6719 10.1793 15.4927 11.0002 16.5052 11.0002Z" fill="#1D252C"/>
<path d="M1.82812 14.6665H42.1615" stroke="#1D252C" stroke-width="3.42857" stroke-miterlimit="10" stroke-linejoin="round"/>
<path d="M13.1953 28.4168L18.6953 33.9168L31.5286 21.0835" stroke="#1D252C" stroke-width="3.42857" stroke-miterlimit="10" stroke-linejoin="round"/>
</svg>
