<svg width="193" height="193" viewBox="0 0 193 193" fill="none" xmlns="http://www.w3.org/2000/svg">
<path fill-rule="evenodd" clip-rule="evenodd" d="M63.8082 108.281L63.8082 42.1493C62.4172 31.8997 53.6311 23.9999 43 23.9999L63.8082 23.9999V18.875C63.8082 8.4458 72.3893 4.04274e-05 82.9854 4.03028e-05L173.823 3.92342e-05C184.419 3.91095e-05 193 8.4458 193 18.875V108.281C193 118.71 184.419 127.156 173.823 127.156H169V148C169 137.272 160.956 128.423 150.571 127.156H82.9854C72.3893 127.156 63.8082 135.601 63.8082 146.031V179.103C63.8082 186.43 57.8489 192.37 50.4978 192.37H13.3103C5.95924 192.37 0 186.43 0 179.103V140.423C0 133.095 5.95925 127.156 13.3103 127.156H44.6309C55.2271 127.156 63.8082 118.71 63.8082 108.281Z" fill="#FCDA01"/>
</svg>
