<svg width="158" height="176" viewBox="0 0 158 176" fill="none" xmlns="http://www.w3.org/2000/svg">
<path fill-rule="evenodd" clip-rule="evenodd" d="M31.1424 3.8147e-06C31.1424 10.4145 39.7279 18.8571 50.1424 18.8571L31.1424 18.8571V3.8147e-06ZM31.4288 124.047H15.4185C6.89916 124.047 2.46138e-06 117.06 2.46138e-06 108.433V34.4717C2.46138e-06 25.8442 6.89916 18.8574 15.4185 18.8574H88.452C96.9714 18.8574 103.871 25.8442 103.871 34.4717V108.433C103.871 117.06 110.77 124.047 119.289 124.047H147.799C152.959 124.047 157.143 128.23 157.143 133.391V166.656C157.143 171.817 152.959 176 147.799 176H113.215C108.054 176 103.871 171.817 103.871 166.656V139.661C103.871 131.034 96.9714 124.047 88.452 124.047H45.2147C37.2632 126.262 31.4288 133.557 31.4288 142.214V124.047Z" fill="white"/>
</svg>
