<svg width="164" height="164" viewBox="0 0 164 164" fill="none" xmlns="http://www.w3.org/2000/svg">
<path fill-rule="evenodd" clip-rule="evenodd" d="M54 71.5V116L54 116.018C53.9902 129.265 43.2488 140 30 140H54L54 147.72C54 156.612 61.5121 164 70.5161 164H147.704C156.708 164 164 156.8 164 147.909V71.6883C164 62.7971 156.898 55 147.894 55L140 55V31C140 44.2548 129.255 55 116 55L140 55L70.7058 55C61.7018 55 54 48.2083 54 39.3172L54 11.1221C54 4.87558 49.1566 6.44611e-06 42.9101 5.62697e-06L11.3103 0C5.06381 0 0 5.06382 0 11.3104L-5.80747e-06 44.2865C-6.6266e-06 50.533 5.25347 55 11.5 55L38.1144 55C47.1184 55 54 62.6089 54 71.5Z" fill="white"/>
</svg>
