<svg width="108" height="92" viewBox="0 0 108 92" fill="none" xmlns="http://www.w3.org/2000/svg">
<path d="M105.34 73.6H92.7429C91.2734 73.6 90 72.4577 90 70.9485V21.2111C90 19.702 88.8933 18.4 87.4238 18.4H74.8262C73.3567 18.4 72 17.098 72 15.5889V2.65149C72 1.14234 70.9766 0 69.5071 0H20.5762C19.1067 0 18 1.30196 18 2.81111V15.7485C18 17.2577 16.7266 18.4 15.2571 18.4H2.65955C1.19005 18.4 0 19.6222 0 21.1313V70.8687C0 72.3779 1.19005 73.6 2.65955 73.6H15.2571C16.7266 73.6 18 74.902 18 76.4111V89.3485C18 90.8577 19.1067 92 20.5762 92H69.5071C70.9766 92 72 90.698 72 89.1889V76.2515C72 74.7423 73.3567 73.6 74.8262 73.6H87.4238C88.8933 73.6 90 74.902 90 76.4111V89.3485C90 90.8577 91.2734 92 92.7429 92H105.34C106.81 92 108 90.7779 108 89.2687V76.3313C108 74.8222 106.81 73.6 105.34 73.6ZM69.5071 73.6H20.5762C19.1067 73.6 18 72.4577 18 70.9485V21.2111C18 19.702 19.1067 18.4 20.5762 18.4H69.5071C70.9766 18.4 72 19.5423 72 21.0515V70.7889C72 72.298 70.9766 73.6 69.5071 73.6Z" fill="#1D252C"/>
</svg>
