<svg width="200" height="224" viewBox="0 0 200 224" fill="none" xmlns="http://www.w3.org/2000/svg">
<path fill-rule="evenodd" clip-rule="evenodd" d="M136 24C149.255 24 160 13.2548 160 0H164.073V24H180.376C191.219 24 200 32.8923 200 43.8727V138.005C200 148.985 191.219 157.878 180.376 157.878H87.4247C76.5818 157.878 67.801 166.77 67.801 177.75V212.107C67.801 218.676 62.4765 224 55.9084 224H11.8926C5.32448 224 0 218.676 0 212.107V169.77C0 163.202 5.32449 157.878 11.8926 157.878H48.1774C59.0202 157.878 67.801 148.985 67.801 138.005V43.8727C67.801 32.8923 76.5818 24 87.4247 24H136Z" fill="white"/>
</svg>
