<svg width="101" height="24" viewBox="0 0 101 24" fill="none" xmlns="http://www.w3.org/2000/svg">
<path d="M0.594727 8.56449L9.65327 8.5663L15.1615 8.56724V3.0918L0.594727 8.56449Z" fill="#1D252C"/>
<path d="M15.1611 3.09185V22.4229L22.0408 0.506348L15.1611 3.09185Z" fill="#1D252C"/>
<path d="M15.1586 8.56784L9.65039 8.56689L15.1586 22.4235V8.56784Z" fill="#1D252C"/>
<path d="M0.594727 8.56494L11.0658 12.1222L9.65327 8.56676L0.594727 8.56494Z" fill="#1D252C"/>
<path d="M33.9633 17.3353C33.8835 17.4155 33.7504 17.5155 33.5643 17.6355C33.3779 17.7558 33.1353 17.8758 32.836 17.9961C32.5368 18.116 32.1707 18.2193 31.7387 18.3064C31.3062 18.3929 30.8109 18.4364 30.2522 18.4364C29.1747 18.4364 28.2435 18.2628 27.4588 17.916C26.6738 17.5692 26.0254 17.085 25.5135 16.4645C25.0013 15.8439 24.6256 15.11 24.3862 14.2622C24.1468 13.4148 24.0271 12.4839 24.0271 11.4694C24.0271 10.4553 24.1568 9.51751 24.4162 8.65667C24.6755 7.79575 25.0646 7.05197 25.5833 6.42437C26.1021 5.79724 26.7505 5.30668 27.5287 4.95287C28.3069 4.59947 29.2212 4.42236 30.2721 4.42236C30.7909 4.42236 31.2598 4.46923 31.6788 4.56249C32.0978 4.65595 32.4635 4.76615 32.7763 4.89283C33.0886 5.01984 33.3481 5.15304 33.5544 5.29323C33.7604 5.43335 33.9167 5.55041 34.0233 5.64354C34.143 5.75058 34.2459 5.87726 34.3326 6.0239C34.4189 6.17095 34.4622 6.33111 34.4622 6.50445C34.4622 6.77159 34.3625 7.03839 34.163 7.30525C33.9635 7.57239 33.744 7.81929 33.5045 8.04601C33.3448 7.88585 33.1653 7.7226 32.9658 7.55558C32.7663 7.38876 32.5434 7.24212 32.2974 7.1151C32.0511 6.98843 31.7718 6.88172 31.4594 6.79478C31.1467 6.70811 30.7976 6.66461 30.4119 6.66461C29.7335 6.66461 29.1649 6.80164 28.706 7.07503C28.2471 7.34876 27.8779 7.70565 27.5986 8.14613C27.3193 8.5866 27.1198 9.09048 27 9.65764C26.8803 10.2251 26.8205 10.8022 26.8205 11.3894C26.8205 12.0169 26.8803 12.6174 27 13.1911C27.1197 13.7651 27.3258 14.2724 27.6186 14.7126C27.911 15.1531 28.2935 15.5069 28.7658 15.7737C29.2378 16.0409 29.8264 16.1741 30.5316 16.1741C30.9038 16.1741 31.2465 16.1275 31.5591 16.0341C31.8715 15.9407 32.1477 15.8272 32.3871 15.6935C32.6266 15.5604 32.8361 15.4203 33.0156 15.2733C33.1952 15.1265 33.3448 14.9999 33.4646 14.8928C33.5444 14.9864 33.6373 15.1 33.7439 15.2333C33.8511 15.3679 33.951 15.5083 34.0432 15.6537C34.1361 15.8007 34.2159 15.9474 34.2826 16.094C34.349 16.2411 34.3823 16.3744 34.3823 16.4943C34.3823 16.6681 34.349 16.8148 34.2826 16.9349C34.2158 17.055 34.1095 17.1886 33.9633 17.3353ZM44.2456 15.7999C44.2456 16.8607 44.3993 17.6328 44.7073 18.1162C44.4664 18.21 44.2422 18.2772 44.0348 18.3175C43.8272 18.3578 43.6099 18.3778 43.3825 18.3778C42.9008 18.3778 42.536 18.2838 42.2886 18.0959C42.0408 17.9081 41.8836 17.6396 41.8169 17.2903C41.5223 17.5994 41.1343 17.8611 40.6527 18.076C40.1709 18.2904 39.5819 18.3982 38.8863 18.3982C38.5249 18.3982 38.1637 18.3479 37.8024 18.2478C37.441 18.147 37.113 17.9833 36.8187 17.756C36.5242 17.5283 36.2834 17.2238 36.0961 16.8423C35.9086 16.4608 35.8151 15.9957 35.8151 15.4471C35.8151 14.7645 35.9789 14.2088 36.3069 13.7807C36.6347 13.3522 37.0462 13.0144 37.5414 12.7666C38.0364 12.5192 38.5717 12.3489 39.1473 12.255C39.7225 12.1612 40.2513 12.1011 40.7329 12.074C40.8936 12.0608 41.0507 12.0539 41.2047 12.0539H41.6362V11.6873C41.6362 11.1712 41.4989 10.8045 41.2247 10.5874C40.9503 10.3702 40.5052 10.2614 39.8899 10.2614C39.3144 10.2614 38.8025 10.3554 38.3543 10.5433C37.9058 10.7315 37.4677 10.9461 37.0396 11.1878C36.852 10.9596 36.7014 10.708 36.5879 10.4326C36.4742 10.1575 36.4173 9.95268 36.4173 9.81827C36.4173 9.6304 36.5208 9.44913 36.7285 9.27445C36.9358 9.10017 37.2203 8.94216 37.5816 8.80116C37.943 8.66016 38.3576 8.54626 38.8262 8.45879C39.2944 8.37158 39.7896 8.32787 40.3115 8.32787C41.0341 8.32787 41.6463 8.40183 42.1481 8.54942C42.6499 8.69735 43.058 8.92548 43.3725 9.23417C43.6868 9.54327 43.911 9.92908 44.0449 10.3923C44.1785 10.8555 44.2457 11.3962 44.2457 12.0136L44.2456 15.7999ZM41.6762 13.4636H41.3953C41.3015 13.4636 41.2077 13.4706 41.1143 13.4839C40.7796 13.5109 40.4483 13.5511 40.1207 13.6046C39.7926 13.6584 39.5016 13.7524 39.2476 13.8866C38.9932 14.021 38.7859 14.1957 38.6253 14.4102C38.4647 14.6252 38.3844 14.9006 38.3844 15.2361C38.3844 15.6121 38.4914 15.9308 38.7055 16.1927C38.9194 16.4546 39.2808 16.5855 39.7895 16.5855C40.0435 16.5855 40.2845 16.5521 40.5121 16.4846C40.7395 16.4178 40.9402 16.3305 41.1143 16.223C41.2881 16.1156 41.4254 15.9982 41.5258 15.8704C41.6261 15.743 41.6763 15.6256 41.6763 15.5181L41.6762 13.4636ZM49.2434 9.49593C49.4567 9.24103 49.7904 8.98237 50.2439 8.72048C50.6974 8.45865 51.271 8.32774 51.9648 8.32774C52.4585 8.32774 52.9286 8.41172 53.3757 8.57948C53.8222 8.7475 54.2193 9.01948 54.5661 9.39521C54.913 9.77127 55.1898 10.2682 55.3967 10.8856C55.6034 11.5034 55.7069 12.2622 55.7069 13.1615C55.7069 14.2088 55.5867 15.0717 55.3466 15.7496C55.1063 16.4279 54.7964 16.965 54.4164 17.3609C54.0362 17.757 53.6124 18.0357 53.1458 18.1967C52.6788 18.3578 52.2118 18.4385 51.745 18.4385C51.3581 18.4385 51.0211 18.3948 50.7346 18.3076C50.4476 18.2201 50.2042 18.1231 50.0041 18.0155C49.804 17.9082 49.6507 17.8009 49.5441 17.6932C49.4374 17.5859 49.3706 17.5119 49.344 17.4715V22.4226H46.614V8.60967C46.6812 8.59649 46.7621 8.58297 46.8568 8.56946C46.9378 8.55628 47.0321 8.54613 47.14 8.5392C47.2478 8.53261 47.376 8.52918 47.5242 8.52918C47.9689 8.52918 48.3465 8.60315 48.6567 8.75073C48.9667 8.89866 49.1625 9.1469 49.2434 9.49593ZM52.8565 13.2218C52.8565 12.8191 52.8232 12.4434 52.7568 12.0941C52.6903 11.7451 52.5805 11.4429 52.4275 11.1878C52.2744 10.9328 52.068 10.7346 51.8086 10.5935C51.5489 10.4526 51.2331 10.3822 50.8608 10.3822C50.302 10.3822 49.9128 10.4898 49.6931 10.7043C49.4736 10.9193 49.3639 11.1544 49.3639 11.4093V15.6792C49.4702 15.7868 49.6595 15.9141 49.9324 16.0618C50.2053 16.2097 50.5211 16.2833 50.8805 16.2833C51.5592 16.2833 52.0582 16.015 52.3775 15.4777C52.6969 14.9408 52.8565 14.1887 52.8565 13.2218ZM57.8138 16.6862C57.72 16.4178 57.6598 16.1357 57.6332 15.8402C57.6062 15.545 57.593 15.2497 57.593 14.9539V5.60871C57.6865 5.59553 57.7869 5.58201 57.8941 5.56843C57.9875 5.55525 58.0879 5.54524 58.1951 5.53824C58.3021 5.53165 58.4091 5.52822 58.5162 5.52822C58.7302 5.52822 58.9445 5.5484 59.1587 5.5886C59.3725 5.62895 59.5666 5.7095 59.7409 5.83026C59.9146 5.95108 60.0551 6.11575 60.1623 6.32372C60.2693 6.53202 60.3228 6.80399 60.3228 7.13938V8.56932H63.1331V10.6037H60.3228V14.8986C60.3228 15.8352 60.7042 16.3034 61.467 16.3034C61.6543 16.3034 61.8315 16.2734 61.999 16.2128C62.1662 16.1524 62.3167 16.0854 62.4506 16.0115C62.5843 15.9377 62.7015 15.8605 62.8019 15.7798C62.9023 15.6992 62.9725 15.6389 63.0126 15.5986C63.2133 15.8942 63.367 16.1501 63.4743 16.366C63.5812 16.5821 63.6348 16.785 63.6348 16.9745C63.6348 17.1509 63.5647 17.3238 63.4241 17.4931C63.2834 17.6624 63.0859 17.8186 62.8318 17.9608C62.5776 18.103 62.27 18.2182 61.9086 18.3063C61.5473 18.3945 61.1524 18.4386 60.7243 18.4386C59.8944 18.4386 59.2489 18.2773 58.7872 17.9552C58.3256 17.6328 58.0009 17.2098 57.8138 16.6862ZM70.047 16.4243C70.3826 16.4243 70.678 16.3875 70.9334 16.3135C71.1884 16.24 71.4166 16.1492 71.6181 16.0418C71.8194 15.9345 71.9942 15.817 72.1419 15.6893C72.2896 15.5619 72.4238 15.4444 72.545 15.3367C72.7058 15.5381 72.8736 15.7968 73.0483 16.1121C73.2228 16.4279 73.3102 16.6862 73.3102 16.8875C73.3102 17.183 73.1427 17.4516 72.8085 17.6932C72.5275 17.9082 72.129 18.0928 71.6142 18.247C71.0988 18.4013 70.4932 18.4786 69.7976 18.4786C69.1683 18.4786 68.5495 18.3982 67.9409 18.237C67.3319 18.0759 66.7898 17.7939 66.315 17.391C65.8397 16.9884 65.455 16.448 65.1607 15.7698C64.8663 15.0918 64.7191 14.236 64.7191 13.2018C64.7191 12.3558 64.8497 11.6277 65.1104 11.0166C65.3715 10.4057 65.7193 9.89882 66.1545 9.496C66.5891 9.09317 67.0808 8.798 67.6297 8.60973C68.1782 8.42194 68.7404 8.32781 69.3159 8.32781C70.0652 8.32781 70.7008 8.44554 71.2226 8.68027C71.7446 8.91533 72.1692 9.23094 72.4973 9.62691C72.825 10.023 73.0625 10.4762 73.2098 10.9864C73.3568 11.4968 73.4306 12.0337 73.4306 12.5976V12.8795C73.4306 12.9873 73.4272 13.1011 73.4206 13.2219C73.4137 13.3429 73.4072 13.4605 73.4006 13.5744C73.3936 13.6887 73.3836 13.7792 73.3706 13.8464H67.449C67.5027 14.5849 67.7309 15.1991 68.1337 15.6893C68.5362 16.1796 69.1741 16.4243 70.047 16.4243ZM70.9617 12.3357C70.9617 11.6912 70.8371 11.1676 70.5881 10.7648C70.3391 10.362 69.8914 10.1605 69.2458 10.1605C68.6937 10.1605 68.253 10.3519 67.9234 10.7346C67.5934 11.1173 67.4289 11.651 67.4289 12.3357L70.9617 12.3357ZM78.1813 9.54683C78.2614 9.42701 78.3684 9.29388 78.5024 9.14717C78.636 9.00059 78.8 8.86739 78.9942 8.74757C79.188 8.62769 79.4022 8.52757 79.6365 8.44769C79.8704 8.36775 80.1214 8.32781 80.3893 8.32781C80.5498 8.32781 80.7205 8.34132 80.9011 8.36775C81.0817 8.39451 81.2489 8.44453 81.4028 8.51755C81.5566 8.59091 81.6806 8.69062 81.7742 8.81716C81.8677 8.9437 81.9147 9.1001 81.9147 9.28642C81.9147 9.57937 81.841 9.91583 81.694 10.2957C81.5465 10.6758 81.3996 11 81.2524 11.2684C81.0247 11.0805 80.7972 10.9361 80.5699 10.8354C80.3422 10.7347 80.0746 10.6843 79.7669 10.6843C79.3521 10.6843 79.0042 10.8055 78.7233 11.0478C78.4421 11.2901 78.3016 11.5796 78.3016 11.9163V18.4363H75.5719V8.60967C75.6386 8.59649 75.7189 8.58297 75.8126 8.56946C75.8929 8.55628 75.9865 8.54613 76.0937 8.5392C76.2007 8.53261 76.3277 8.52918 76.475 8.52918C76.9032 8.52918 77.2745 8.61249 77.5891 8.77877C77.9033 8.94485 78.101 9.20102 78.1813 9.54683ZM85.9426 9.54683C86.0229 9.42701 86.1298 9.29388 86.2638 9.14717C86.3974 9.00059 86.5615 8.86739 86.7556 8.74757C86.9494 8.62769 87.1636 8.52757 87.3979 8.44769C87.6319 8.36775 87.8828 8.32781 88.1506 8.32781C88.3111 8.32781 88.4817 8.34132 88.6624 8.36775C88.843 8.39451 89.0102 8.44453 89.1642 8.51755C89.318 8.59091 89.4417 8.69062 89.5357 8.81716C89.6291 8.9437 89.6762 9.1001 89.6762 9.28642C89.6762 9.57937 89.6023 9.91583 89.4554 10.2957C89.3078 10.6758 89.1608 11 89.0137 11.2684C88.7861 11.0805 88.5585 10.9361 88.3312 10.8354C88.1036 10.7347 87.836 10.6843 87.5284 10.6843C87.1135 10.6843 86.7656 10.8055 86.4846 11.0478C86.2036 11.2901 86.0631 11.5796 86.0631 11.9163V18.4363H83.3332V8.60967C83.4 8.59649 83.4803 8.58297 83.5741 8.56946C83.6544 8.55628 83.748 8.54613 83.8551 8.5392C83.9621 8.53261 84.089 8.52918 84.2364 8.52918C84.6647 8.52918 85.036 8.61249 85.3504 8.77877C85.6647 8.94485 85.8622 9.20102 85.9426 9.54683ZM98.9698 15.7999C98.9698 16.8607 99.1236 17.6328 99.4316 18.1162C99.1907 18.21 98.9664 18.2772 98.7592 18.3175C98.5516 18.3578 98.3342 18.3778 98.1068 18.3778C97.6249 18.3778 97.2603 18.2838 97.0129 18.0959C96.765 17.9081 96.6079 17.6396 96.5411 17.2903C96.2467 17.5994 95.8586 17.8611 95.3769 18.076C94.8952 18.2904 94.3061 18.3982 93.6105 18.3982C93.2492 18.3982 92.888 18.3479 92.5265 18.2478C92.1653 18.147 91.8371 17.9833 91.543 17.756C91.2485 17.5283 91.0077 17.2238 90.8204 16.8423C90.6329 16.4608 90.5395 15.9957 90.5395 15.4471C90.5395 14.7645 90.703 14.2088 91.0313 13.7807C91.3589 13.3522 91.7705 13.0144 92.2657 12.7666C92.7606 12.5192 93.2959 12.3489 93.8716 12.255C94.4466 12.1612 94.9755 12.1011 95.4572 12.074C95.6179 12.0608 95.7749 12.0539 95.929 12.0539H96.3605V11.6873C96.3605 11.1712 96.2231 10.8045 95.949 10.5874C95.6744 10.3702 95.2295 10.2614 94.6141 10.2614C94.0387 10.2614 93.5269 10.3554 93.0786 10.5433C92.6301 10.7315 92.192 10.9461 91.7638 11.1878C91.5764 10.9596 91.4256 10.708 91.3122 10.4326C91.1984 10.1575 91.1416 9.95268 91.1416 9.81827C91.1416 9.6304 91.2451 9.44913 91.4528 9.27445C91.6601 9.10017 91.9445 8.94216 92.3058 8.80116C92.6672 8.66016 93.0818 8.54626 93.5502 8.45879C94.0186 8.37158 94.5138 8.32787 95.0357 8.32787C95.7582 8.32787 96.3705 8.40183 96.8724 8.54942C97.3741 8.69735 97.7822 8.92548 98.0967 9.23417C98.411 9.54327 98.6351 9.92908 98.7692 10.3923C98.9027 10.8555 98.9698 11.3962 98.9698 12.0136V15.7999ZM96.4005 13.4636H96.1196C96.0257 13.4636 95.932 13.4706 95.8386 13.4839C95.504 13.5109 95.1726 13.5511 94.845 13.6046C94.5169 13.6584 94.2259 13.7524 93.9718 13.8866C93.7175 14.021 93.5101 14.1957 93.3496 14.4102C93.189 14.6252 93.1086 14.9006 93.1086 15.2361C93.1086 15.6121 93.2157 15.9308 93.4298 16.1927C93.6437 16.4546 94.0052 16.5855 94.5138 16.5855C94.7679 16.5855 95.0088 16.5521 95.2364 16.4846C95.4639 16.4178 95.6645 16.3305 95.8386 16.223C96.0122 16.1156 96.1498 15.9982 96.25 15.8704C96.3504 15.743 96.4006 15.6256 96.4006 15.5181L96.4005 13.4636Z" fill="#1D252C"/>
</svg>
