<svg width="82" height="24" viewBox="0 0 82 24" fill="none" xmlns="http://www.w3.org/2000/svg">
<g clip-path="url(#clip0_2411_12003)">
<path d="M69.6903 23.1959C76.0395 23.1959 81.1865 18.0033 81.1865 11.598C81.1865 5.19258 76.0395 0 69.6903 0C63.3411 0 58.1941 5.19258 58.1941 11.598C58.1941 18.0033 63.3411 23.1959 69.6903 23.1959Z" fill="#1D252C"/>
<path d="M74.6647 8.8844H72.7012C72.754 8.57358 72.9449 8.39961 73.3312 8.20244L73.6921 8.01688C74.3382 7.68286 74.6831 7.30476 74.6831 6.68775C74.6831 6.30038 74.5337 5.99419 74.2371 5.77383C73.9404 5.55347 73.591 5.44445 73.1817 5.44445C72.8651 5.44069 72.5543 5.53017 72.2873 5.70192C72.0183 5.86893 71.8183 6.08466 71.6941 6.35373L72.262 6.92899C72.4827 6.47899 72.8023 6.25863 73.2231 6.25863C73.5795 6.25863 73.7979 6.44419 73.7979 6.70167C73.7979 6.91739 73.6921 7.096 73.2829 7.30476L73.0506 7.41842C72.5471 7.6759 72.1976 7.97048 71.9953 8.30451C71.793 8.63853 71.6941 9.05837 71.6941 9.56636V9.70554H74.6647V8.8844Z" fill="white"/>
<path d="M74.3996 10.6504H71.1485L69.5229 13.4896H72.7741L74.3996 16.3311L76.0252 13.4896L74.3996 10.6504Z" fill="white"/>
<path d="M69.8057 15.3857C67.7364 15.3857 66.0511 13.6854 66.0511 11.5978C66.0511 9.51014 67.7364 7.80988 69.8057 7.80988L71.091 5.09828C70.6678 5.01337 70.2373 4.97064 69.8057 4.9707C66.1775 4.9707 63.2368 7.93746 63.2368 11.5978C63.2368 15.2581 66.1775 18.2248 69.8057 18.2248C71.1961 18.2275 72.5511 17.7821 73.6731 16.9537L72.2521 14.4671C71.5723 15.0595 70.704 15.3855 69.8057 15.3857Z" fill="white"/>
</g>
<path d="M7.11368 9.76957C7.04224 9.51902 6.94188 9.29765 6.8126 9.10545C6.68332 8.90982 6.52513 8.74507 6.33802 8.61122C6.15431 8.47393 5.94338 8.36925 5.70523 8.29717C5.47049 8.2251 5.21024 8.18906 4.92446 8.18906C4.39034 8.18906 3.92086 8.32292 3.51602 8.59062C3.11457 8.85833 2.80159 9.24788 2.57705 9.75928C2.35252 10.2672 2.24025 10.8885 2.24025 11.6229C2.24025 12.3574 2.35082 12.9821 2.57195 13.4969C2.79308 14.0117 3.10607 14.4047 3.51091 14.6758C3.91576 14.9436 4.39375 15.0774 4.94488 15.0774C5.44498 15.0774 5.87193 14.9882 6.22575 14.8097C6.58296 14.6278 6.85513 14.3721 7.04224 14.0426C7.23275 13.7131 7.32801 13.3236 7.32801 12.874L7.77708 12.9409H5.08266V11.2626H9.45599V12.5908C9.45599 13.5175 9.26208 14.3138 8.87424 14.9796C8.48641 15.642 7.95229 16.1534 7.27188 16.5138C6.59147 16.8707 5.8124 17.0492 4.93467 17.0492C3.95488 17.0492 3.09416 16.8312 2.35252 16.3954C1.61087 15.956 1.03252 15.3331 0.617472 14.5265C0.205824 13.7166 0 12.7556 0 11.6435C0 10.7889 0.122474 10.027 0.367421 9.35771C0.615771 8.68501 0.96278 8.11527 1.40845 7.6485C1.85412 7.18172 2.37293 6.82649 2.96488 6.58281C3.55684 6.33913 4.19813 6.21729 4.88874 6.21729C5.4807 6.21729 6.03183 6.30481 6.54214 6.47985C7.05245 6.65145 7.50492 6.89514 7.89956 7.2109C8.2976 7.52665 8.62249 7.90248 8.87424 8.33836C9.12599 8.77081 9.28759 9.24788 9.35903 9.76957H7.11368Z" fill="#1D252C"/>
<path d="M11.0545 16.905V15.2988L14.7747 11.8237C15.0911 11.5148 15.3564 11.2368 15.5707 10.9897C15.7885 10.7426 15.9535 10.5006 16.0657 10.2638C16.178 10.0236 16.2341 9.76442 16.2341 9.48642C16.2341 9.17752 16.1644 8.91153 16.0249 8.68844C15.8854 8.46192 15.6949 8.28859 15.4534 8.16847C15.2118 8.04491 14.938 7.98313 14.6318 7.98313C14.312 7.98313 14.033 8.04834 13.7949 8.17877C13.5567 8.30919 13.373 8.49624 13.2437 8.73992C13.1145 8.98361 13.0498 9.27362 13.0498 9.60998H10.9525C10.9525 8.92011 11.1073 8.3212 11.4168 7.81324C11.7264 7.30528 12.1602 6.9123 12.7181 6.63429C13.2761 6.35629 13.9191 6.21729 14.6471 6.21729C15.3955 6.21729 16.047 6.35114 16.6016 6.61885C17.1595 6.88312 17.5933 7.25037 17.9029 7.72057C18.2124 8.19078 18.3672 8.72963 18.3672 9.33712C18.3672 9.73525 18.289 10.1282 18.1325 10.5161C17.9794 10.9039 17.7055 11.3346 17.3109 11.8083C16.9163 12.2785 16.36 12.8431 15.6422 13.502L14.1164 15.0105V15.0826H18.505V16.905H11.0545Z" fill="#1D252C"/>
<path d="M29.1628 9.39375C29.122 8.97846 28.9468 8.65584 28.6372 8.42588C28.3276 8.19593 27.9074 8.08095 27.3767 8.08095C27.0161 8.08095 26.7116 8.13243 26.4633 8.2354C26.2149 8.33493 26.0244 8.47393 25.8917 8.6524C25.7624 8.83088 25.6978 9.03337 25.6978 9.2599C25.691 9.44866 25.7301 9.61341 25.8152 9.75413C25.9036 9.89485 26.0244 10.0167 26.1775 10.1197C26.3306 10.2192 26.5075 10.3067 26.7082 10.3822C26.9089 10.4543 27.1233 10.5161 27.3512 10.5675L28.2902 10.7941C28.746 10.897 29.1645 11.0343 29.5455 11.2059C29.9265 11.3775 30.2565 11.5886 30.5355 11.8392C30.8145 12.0897 31.0305 12.3849 31.1836 12.7247C31.3401 13.0644 31.42 13.454 31.4234 13.8933C31.42 14.5386 31.2567 15.098 30.9335 15.5716C30.6138 16.0418 30.1511 16.4074 29.5455 16.6682C28.9433 16.9256 28.217 17.0543 27.3665 17.0543C26.5228 17.0543 25.788 16.9239 25.162 16.6631C24.5394 16.4022 24.0529 16.0161 23.7025 15.5047C23.3555 14.9899 23.1735 14.3532 23.1565 13.5947H25.2947C25.3185 13.9482 25.4188 14.2434 25.5957 14.4802C25.776 14.7136 26.0159 14.8904 26.3153 15.0105C26.618 15.1272 26.96 15.1855 27.341 15.1855C27.7152 15.1855 28.0401 15.1306 28.3157 15.0208C28.5946 14.9109 28.8107 14.7582 28.9638 14.5626C29.1169 14.367 29.1934 14.1421 29.1934 13.8882C29.1934 13.6513 29.1237 13.4523 28.9842 13.291C28.8481 13.1297 28.6474 12.9924 28.382 12.8791C28.1201 12.7658 27.7986 12.6629 27.4175 12.5702L26.2795 12.2819C25.3984 12.0657 24.7027 11.7276 24.1924 11.2677C23.6821 10.8078 23.4286 10.1883 23.432 9.40919C23.4286 8.77081 23.597 8.21309 23.9372 7.73602C24.2808 7.25895 24.752 6.88656 25.3508 6.61885C25.9495 6.35114 26.63 6.21729 27.392 6.21729C28.1677 6.21729 28.8447 6.35114 29.423 6.61885C30.0048 6.88656 30.4573 7.25895 30.7805 7.73602C31.1037 8.21309 31.2703 8.76566 31.2806 9.39375H29.1628Z" fill="#1D252C"/>
<path d="M37.0381 8.99734V10.6448H32.3178V8.99734H37.0381ZM33.3894 7.10278H35.5633V14.4751C35.5633 14.6776 35.5939 14.8354 35.6552 14.9487C35.7164 15.0585 35.8015 15.1358 35.9103 15.1804C36.0226 15.225 36.1519 15.2473 36.2981 15.2473C36.4002 15.2473 36.5023 15.2387 36.6043 15.2216C36.7064 15.201 36.7846 15.1855 36.8391 15.1752L37.181 16.8072C37.0721 16.8415 36.919 16.881 36.7217 16.9256C36.5244 16.9737 36.2845 17.0029 36.0022 17.0131C35.4783 17.0337 35.019 16.9634 34.6243 16.8021C34.2331 16.6408 33.9286 16.3902 33.7109 16.0504C33.4932 15.7106 33.386 15.2816 33.3894 14.7634V7.10278Z" fill="#1D252C"/>
<path d="M40.6893 17.0543C40.1892 17.0543 39.7436 16.9668 39.3523 16.7918C38.9611 16.6133 38.6515 16.3507 38.4236 16.0041C38.199 15.654 38.0868 15.2181 38.0868 14.6964C38.0868 14.2571 38.1667 13.8882 38.3266 13.5896C38.4865 13.291 38.7043 13.0507 38.9798 12.8688C39.2554 12.6869 39.5684 12.5496 39.9188 12.457C40.2726 12.3643 40.6434 12.2991 41.0313 12.2613C41.4871 12.2133 41.8545 12.1687 42.1335 12.1275C42.4125 12.0828 42.6149 12.0176 42.7408 11.9318C42.8667 11.846 42.9296 11.719 42.9296 11.5509V11.52C42.9296 11.1939 42.8275 10.9417 42.6234 10.7632C42.4227 10.5847 42.1369 10.4955 41.7661 10.4955C41.3749 10.4955 41.0636 10.583 40.8322 10.758C40.6009 10.9296 40.4478 11.1459 40.373 11.4067L38.3623 11.242C38.4644 10.7615 38.6651 10.3462 38.9645 9.99609C39.2639 9.64258 39.65 9.37144 40.1229 9.18267C40.5992 8.99047 41.1503 8.89437 41.7763 8.89437C42.2118 8.89437 42.6285 8.94585 43.0266 9.04882C43.428 9.15178 43.7835 9.31138 44.0931 9.5276C44.4061 9.74383 44.6527 10.0218 44.833 10.3616C45.0134 10.698 45.1035 11.1013 45.1035 11.5715V16.905H43.0419V15.8085H42.9806C42.8547 16.0556 42.6863 16.2735 42.4754 16.4623C42.2645 16.6476 42.011 16.7935 41.7151 16.8999C41.4191 17.0029 41.0772 17.0543 40.6893 17.0543ZM41.3119 15.5407C41.6317 15.5407 41.9141 15.4773 42.159 15.3503C42.404 15.2198 42.5962 15.0448 42.7357 14.8251C42.8752 14.6055 42.9449 14.3567 42.9449 14.0786V13.2395C42.8769 13.2841 42.7833 13.3253 42.6642 13.363C42.5486 13.3974 42.4176 13.43 42.2713 13.4609C42.125 13.4883 41.9787 13.5141 41.8324 13.5381C41.6861 13.5587 41.5535 13.5776 41.4344 13.5947C41.1792 13.6325 40.9564 13.6925 40.7659 13.7749C40.5754 13.8573 40.4274 13.9688 40.3219 14.1095C40.2165 14.2468 40.1637 14.4184 40.1637 14.6244C40.1637 14.923 40.2709 15.1512 40.4852 15.3091C40.703 15.4635 40.9785 15.5407 41.3119 15.5407Z" fill="#1D252C"/>
<path d="M46.7901 16.905V8.99734H48.8976V10.3771H48.9793C49.1222 9.88627 49.362 9.51559 49.6988 9.26504C50.0356 9.01106 50.4235 8.88407 50.8623 8.88407C50.9712 8.88407 51.0886 8.89094 51.2144 8.90467C51.3403 8.9184 51.4509 8.93727 51.5461 8.9613V10.9073C51.4441 10.8764 51.3029 10.849 51.1226 10.825C50.9423 10.8009 50.7773 10.7889 50.6276 10.7889C50.3078 10.7889 50.022 10.8593 49.7703 11C49.5219 11.1373 49.3246 11.3295 49.1783 11.5766C49.0354 11.8237 48.964 12.1086 48.964 12.4312V16.905H46.7901Z" fill="#1D252C"/>
<defs>
<clipPath id="clip0_2411_12003">
<rect width="22.9924" height="23.1959" fill="white" transform="translate(58.1938)"/>
</clipPath>
</defs>
</svg>
