<svg width="76" height="24" viewBox="0 0 76 24" fill="none" xmlns="http://www.w3.org/2000/svg">
<g clip-path="url(#clip0_2411_12019)">
<path d="M9.43496 8.27672V10.7545H15.5241C15.3624 12.1251 14.8775 13.1795 14.1231 13.8648C13.2609 14.7083 11.8598 15.6572 9.43496 15.6572C5.71682 15.6572 2.80696 12.705 2.80696 9.0675C2.80696 5.42995 5.66293 2.47775 9.43496 2.47775C11.4288 2.47775 12.9376 3.26852 14.0153 4.27016L15.7935 2.53046C14.2847 1.10708 12.237 0 9.43496 0C4.31578 0 0.00488281 4.05929 0.00488281 9.0675C0.00488281 14.0757 4.31578 18.135 9.43496 18.135C12.1832 18.135 14.2847 17.2388 15.9013 15.6045C17.5718 13.9703 18.1106 11.6507 18.1106 9.80555C18.1106 9.22565 18.0568 8.69847 18.0029 8.27672H9.43496Z" fill="#1D252C"/>
<path d="M25.6583 6.22168C22.3712 6.22168 19.623 8.69942 19.623 12.0734C19.623 15.4473 22.3174 17.9251 25.6583 17.9251C28.9992 17.9251 31.6935 15.5 31.6935 12.1261C31.6935 8.69943 28.9992 6.22168 25.6583 6.22168ZM25.6583 15.6582C23.8262 15.6582 22.2635 14.1821 22.2635 12.1261C22.2635 10.0174 23.8262 8.59399 25.6583 8.59399C27.4904 8.59399 29.0531 10.0174 29.0531 12.1261C29.0531 14.1821 27.4904 15.6582 25.6583 15.6582Z" fill="#1D252C"/>
<path d="M55.1312 7.53963H55.0234C54.4307 6.8543 53.2991 6.22168 51.8441 6.22168C48.8265 6.22168 46.24 8.75214 46.24 12.0734C46.24 15.3419 48.8265 17.9251 51.8441 17.9251C53.2991 17.9251 54.4307 17.2925 55.0234 16.6071H55.1312V17.4506C55.1312 19.6648 53.8918 20.8773 51.9519 20.8773C50.3353 20.8773 49.3654 19.7702 48.9343 18.7686L46.6711 19.7175C47.3177 21.2463 49.096 23.1969 52.0058 23.1969C55.0773 23.1969 57.7177 21.4045 57.7177 17.0816V6.53799H55.239V7.53963H55.1312ZM52.1136 15.6582C50.2815 15.6582 48.9343 14.1294 48.9343 12.1261C48.9343 10.0701 50.3353 8.59399 52.1136 8.59399C53.8918 8.59399 55.2929 10.1228 55.2929 12.1788C55.3468 14.1821 53.9457 15.6582 52.1136 15.6582Z" fill="#1D252C"/>
<path d="M39.0704 6.22168C35.7834 6.22168 33.0352 8.69942 33.0352 12.0734C33.0352 15.4473 35.7295 17.9251 39.0704 17.9251C42.4114 17.9251 45.1057 15.5 45.1057 12.1261C45.1057 8.69943 42.4114 6.22168 39.0704 6.22168ZM39.0704 15.6582C37.2383 15.6582 35.6756 14.1821 35.6756 12.1261C35.6756 10.0174 37.2383 8.59399 39.0704 8.59399C40.9025 8.59399 42.4652 10.0174 42.4652 12.1261C42.4652 14.1821 40.9025 15.6582 39.0704 15.6582Z" fill="#1D252C"/>
<path d="M59.709 0.26416H62.2955V17.9774H59.709V0.26416Z" fill="#1D252C"/>
<path d="M70.2751 15.6582C68.928 15.6582 68.0119 15.0783 67.3653 13.8658L75.3943 10.65L75.1249 9.96466C74.6399 8.64671 73.0772 6.22168 70.0057 6.22168C66.9342 6.22168 64.3477 8.59399 64.3477 12.0734C64.3477 15.3419 66.8803 17.9251 70.2751 17.9251C73.0233 17.9251 74.586 16.2908 75.2865 15.3419L73.2389 14.0239C72.5384 15.0256 71.6223 15.6582 70.2751 15.6582ZM70.1135 8.43584C71.1912 8.43584 72.1073 8.96301 72.3767 9.70107L66.9881 11.9152C66.9342 9.4902 68.7663 8.43584 70.1135 8.43584Z" fill="#1D252C"/>
</g>
<defs>
<clipPath id="clip0_2411_12019">
<rect width="75.3868" height="23.1959" fill="white"/>
</clipPath>
</defs>
</svg>
