<svg width="620" height="519" viewBox="0 0 620 519" fill="none" xmlns="http://www.w3.org/2000/svg">
<path d="M604.661 415.2H532.005C523.53 415.2 516.667 408.305 516.667 399.792V119.208C516.667 110.695 509.803 103.8 501.328 103.8H428.672C420.197 103.8 413.333 96.9055 413.333 88.3919V15.4081C413.333 6.89453 406.47 0 397.995 0H118.672C110.197 0 103.333 6.89453 103.333 15.4081V88.3919C103.333 96.9055 96.4698 103.8 87.9945 103.8H15.3388C6.86354 103.8 0 110.695 0 119.208V399.792C0 408.305 6.86354 415.2 15.3388 415.2H87.9945C96.4698 415.2 103.333 422.095 103.333 430.608V503.592C103.333 512.105 110.197 519 118.672 519H397.995C406.47 519 413.333 512.105 413.333 503.592V430.608C413.333 422.095 420.197 415.2 428.672 415.2H501.328C509.803 415.2 516.667 422.095 516.667 430.608V503.592C516.667 512.105 523.53 519 532.005 519H604.661C613.137 519 620 512.105 620 503.592V430.608C620 422.095 613.137 415.2 604.661 415.2ZM397.995 415.2H118.672C110.197 415.2 103.333 408.305 103.333 399.792V119.208C103.333 110.695 110.197 103.8 118.672 103.8H397.995C406.47 103.8 413.333 110.695 413.333 119.208V399.792C413.333 408.305 406.47 415.2 397.995 415.2Z" fill="#FCDA01" fill-opacity="0.04"/>
</svg>
