<svg width="24" height="24" viewBox="0 0 24 24" fill="none" xmlns="http://www.w3.org/2000/svg">
<path d="M0 11.8923C0 15.4738 2.88 18.3538 6.46154 18.3538H7.38462V15.9538H6.46154C4.20923 15.9538 2.4 14.1446 2.4 11.8923C2.4 9.64 4.20923 7.83077 6.46154 7.83077H8.67692V20.3846C8.67692 21.7138 9.74769 22.7846 11.0769 22.7846V5.43077H6.46154C2.88 5.43077 0 8.31077 0 11.8923ZM17.5385 5.43077H16.6154V7.83077H17.5385C19.7908 7.83077 21.6 9.64 21.6 11.8923C21.6 14.1446 19.7908 15.9538 17.5385 15.9538H15.3231V3.4C15.3231 2.07077 14.2523 1 12.9231 1V18.3538H17.5385C21.12 18.3538 24 15.4738 24 11.8923C24 8.31077 21.12 5.43077 17.5385 5.43077Z" fill="#1D252C"/>
</svg>
