<svg width="24" height="24" viewBox="0 0 24 24" fill="none" xmlns="http://www.w3.org/2000/svg">
<g clip-path="url(#clip0_3106_21725)">
<path d="M1 6V1.00003C2.66667 0.999974 4.33333 1 6 1" stroke="#1D252C" stroke-width="2" stroke-linecap="square" stroke-linejoin="round"/>
<path d="M18 1L23 1C23 2.66667 23 4.33333 23 6" stroke="#1D252C" stroke-width="2" stroke-linecap="square" stroke-linejoin="round"/>
<path d="M23 18L23 23C21.3333 23 19.6667 23 18 23" stroke="#1D252C" stroke-width="2" stroke-linecap="square" stroke-linejoin="round"/>
<path d="M6 23L1.00003 23C0.999974 21.3333 1 19.6667 1 18" stroke="#1D252C" stroke-width="2" stroke-linecap="square" stroke-linejoin="round"/>
<path d="M12 10C13.1046 10 14 9.10457 14 8C14 6.89543 13.1046 6 12 6C10.8954 6 10 6.89543 10 8C10 9.10457 10.8954 10 12 10Z" stroke="#1D252C" stroke-width="2" stroke-linecap="round" stroke-linejoin="round"/>
<path d="M12 13C9.23875 13 7 14.9901 7 17.4446C10.3331 18.1851 13.6669 18.1851 17 17.4446C17 14.9901 14.7613 13 12 13Z" stroke="#1D252C" stroke-width="2" stroke-linecap="round" stroke-linejoin="round"/>
</g>
<defs>
<clipPath id="clip0_3106_21725">
<rect width="24" height="24" fill="white"/>
</clipPath>
</defs>
</svg>
