<svg xmlns="http://www.w3.org/2000/svg" width="1105" height="612" fill="none"><g clip-path="url(#a)"><rect width="151" height="58" x="659" y="527.281" fill="#F4F5F7" rx="29"/><path stroke="#1D252C" stroke-linecap="round" stroke-linejoin="round" stroke-width="1.5" d="M693 551.281h2.337c.245 0 .367 0 .482.027.102.025.2.065.289.12.101.062.188.148.361.321l4.062 4.063c.173.173.26.26.322.36.054.09.095.187.119.29.028.115.028.237.028.482v2.837c0 .466 0 .699-.076.882-.102.245-.296.44-.541.542-.184.076-.417.076-.883.076m-5 0H693m0 0v-9.8c0-1.12 0-1.68-.218-2.108a1.996 1.996 0 0 0-.874-.874c-.428-.218-.988-.218-2.108-.218h-5.6c-1.12 0-1.68 0-2.108.218a1.996 1.996 0 0 0-.874.874c-.218.428-.218.988-.218 2.108v7.8a2 2 0 0 0 2 2m10 0h-4m0 0a3 3 0 1 1-6 0m6 0a3 3 0 1 0-6 0m16.5.5a2.5 2.5 0 1 1-5 0 2.5 2.5 0 0 1 5 0Z"/><path fill="#1D252C" d="M718.676 563.281h-4.238V550.19h4.372c1.283 0 2.385.262 3.305.786.921.52 1.626 1.268 2.116 2.244.494.971.741 2.137.741 3.496 0 1.364-.249 2.536-.748 3.516a5.252 5.252 0 0 1-2.147 2.263c-.938.524-2.071.786-3.401.786Zm-2.263-1.726h2.154c.998 0 1.826-.188 2.487-.563a3.544 3.544 0 0 0 1.483-1.642c.328-.721.492-1.598.492-2.634 0-1.027-.164-1.898-.492-2.614-.324-.716-.808-1.259-1.451-1.63-.644-.371-1.443-.556-2.397-.556h-2.276v9.639Zm10.862 1.726v-9.818h1.911v9.818h-1.911Zm.965-11.333c-.332 0-.618-.111-.856-.333a1.078 1.078 0 0 1-.352-.805c0-.315.117-.584.352-.806.238-.225.524-.338.856-.338.333 0 .616.113.85.338.239.222.358.491.358.806 0 .311-.119.579-.358.805a1.19 1.19 0 0 1-.85.333Zm10.875 3.912-1.733.306a2.035 2.035 0 0 0-.345-.632 1.7 1.7 0 0 0-.626-.493c-.264-.127-.595-.191-.991-.191-.541 0-.993.121-1.355.364-.362.239-.543.548-.543.927 0 .328.121.592.364.792.243.201.635.365 1.176.493l1.56.358c.903.208 1.577.53 2.02.965.443.434.664.999.664 1.694 0 .588-.17 1.112-.511 1.572-.337.456-.807.814-1.413 1.074-.6.26-1.297.39-2.09.39-1.099 0-1.996-.234-2.691-.703-.694-.473-1.121-1.144-1.278-2.014l1.847-.281c.115.482.352.846.71 1.093.358.243.824.364 1.399.364.627 0 1.128-.13 1.503-.389.375-.265.562-.586.562-.966 0-.306-.115-.564-.345-.773-.226-.209-.573-.367-1.042-.473l-1.662-.364c-.916-.209-1.594-.542-2.033-.998-.434-.456-.652-1.033-.652-1.732 0-.579.162-1.087.486-1.521.324-.435.772-.774 1.343-1.017.571-.247 1.225-.37 1.962-.37 1.061 0 1.896.23 2.506.69.609.456 1.012 1.068 1.208 1.835Zm2.293 11.103v-13.5h1.866v1.591h.16c.111-.204.271-.441.48-.709.208-.269.498-.503.869-.703.371-.205.861-.307 1.47-.307.793 0 1.5.2 2.122.601.622.4 1.11.978 1.464 1.732.358.754.537 1.662.537 2.723s-.177 1.971-.531 2.729c-.353.755-.839 1.336-1.457 1.745-.618.405-1.323.608-2.116.608-.596 0-1.084-.101-1.464-.301a2.771 2.771 0 0 1-.882-.703 5.279 5.279 0 0 1-.492-.716h-.115v5.21h-1.911Zm1.873-8.591c0 .69.1 1.295.3 1.815.2.52.49.927.869 1.221.38.29.844.435 1.394.435.571 0 1.048-.152 1.432-.454.383-.307.673-.723.869-1.247.2-.524.3-1.114.3-1.77 0-.648-.098-1.23-.294-1.745-.191-.516-.481-.923-.869-1.221-.383-.299-.863-.448-1.438-.448-.554 0-1.023.143-1.406.429-.38.285-.667.684-.863 1.195-.196.511-.294 1.108-.294 1.79Zm12.093 5.126a4.01 4.01 0 0 1-1.687-.345 2.839 2.839 0 0 1-1.195-1.016c-.29-.444-.435-.987-.435-1.63 0-.554.107-1.01.32-1.368.213-.358.5-.642.863-.85a4.483 4.483 0 0 1 1.214-.473 11.85 11.85 0 0 1 1.368-.243l1.432-.167c.366-.046.633-.121.799-.223.166-.103.249-.269.249-.499v-.045c0-.558-.158-.99-.473-1.297-.311-.307-.776-.46-1.393-.46-.644 0-1.151.142-1.522.428-.366.281-.62.594-.76.94l-1.797-.41c.213-.596.525-1.078.934-1.444a3.789 3.789 0 0 1 1.425-.806 5.581 5.581 0 0 1 1.694-.255c.392 0 .808.047 1.246.14.444.09.857.256 1.24.499.388.243.706.59.953 1.042.247.447.371 1.029.371 1.745v6.52h-1.867v-1.343h-.077c-.123.248-.308.49-.556.729a2.949 2.949 0 0 1-.952.595c-.388.157-.852.236-1.394.236Zm.416-1.534c.528 0 .98-.104 1.355-.313a2.2 2.2 0 0 0 .863-.818c.2-.341.3-.706.3-1.093v-1.266c-.068.068-.2.132-.396.192a6.376 6.376 0 0 1-.658.147c-.247.038-.488.074-.723.108l-.588.077c-.37.047-.709.126-1.016.237-.303.11-.545.27-.729.479-.179.205-.268.477-.268.818 0 .473.175.831.524 1.074.349.239.795.358 1.336.358Zm11.558-8.501v1.534h-5.363v-1.534h5.363Zm-3.924-2.353h1.911v9.288c0 .371.055.65.166.837a.866.866 0 0 0 .428.377c.179.064.373.096.582.096.153 0 .288-.01.403-.032l.268-.051.345 1.579c-.11.043-.268.085-.473.128-.204.047-.46.072-.767.077a3.365 3.365 0 0 1-1.406-.269 2.41 2.41 0 0 1-1.055-.869c-.268-.392-.402-.884-.402-1.477v-9.684Zm10.069 12.369c-.951 0-1.769-.215-2.455-.646a4.263 4.263 0 0 1-1.572-1.796c-.367-.763-.55-1.636-.55-2.621 0-.997.188-1.877.563-2.64.375-.767.903-1.365 1.585-1.796.682-.43 1.485-.645 2.41-.645.745 0 1.41.138 1.994.415a3.575 3.575 0 0 1 1.413 1.151c.362.494.577 1.072.645 1.732h-1.86a2.233 2.233 0 0 0-.703-1.189c-.362-.332-.848-.498-1.457-.498-.533 0-1 .14-1.4.421-.397.277-.706.674-.927 1.189-.222.512-.333 1.117-.333 1.816 0 .716.109 1.333.326 1.853.218.52.525.923.921 1.208.4.286.871.429 1.413.429.362 0 .69-.066.984-.198a2.03 2.03 0 0 0 .748-.582c.204-.252.347-.554.428-.908h1.86a3.618 3.618 0 0 1-.62 1.701c-.345.498-.807.89-1.387 1.176-.575.285-1.251.428-2.026.428Zm7.988-6.028v5.83h-1.911V550.19h1.886v4.871h.121a2.82 2.82 0 0 1 1.055-1.26c.473-.311 1.091-.466 1.853-.466.674 0 1.262.138 1.765.415.507.277.899.691 1.176 1.24.281.546.422 1.228.422 2.046v6.245h-1.912v-6.015c0-.72-.185-1.279-.556-1.675-.37-.4-.886-.601-1.547-.601-.451 0-.856.096-1.214.288a2.068 2.068 0 0 0-.837.844c-.201.366-.301.809-.301 1.329Z"/><rect width="212" height="58" x="610" y="24" fill="#F4F5F7" rx="29"/><path stroke="#1D252C" stroke-linecap="round" stroke-linejoin="round" stroke-width="1.5" d="M650.25 50.25v-5a2 2 0 0 0-2-2h-6.922a2 2 0 0 0-1.414.586l-5.078 5.078a2 2 0 0 0-.586 1.414V61.25a2 2 0 0 0 2 2h6"/><path stroke="#1D252C" stroke-linecap="round" stroke-linejoin="round" stroke-width="1.5" d="M634.25 50.25h7v-7M648.25 63.25v1M648.25 54.25v1M650.25 55.25h-3a2 2 0 1 0 0 4h2a2 2 0 1 1 0 4h-3"/><path fill="#1D252C" d="M664.793 48.61v-1.7h10.131v1.7h-4.085V60h-1.968V48.61h-4.078Zm13.738 11.607a4.013 4.013 0 0 1-1.688-.345 2.84 2.84 0 0 1-1.195-1.016c-.29-.443-.435-.987-.435-1.63 0-.554.107-1.01.32-1.368a2.36 2.36 0 0 1 .863-.85 4.506 4.506 0 0 1 1.214-.473c.448-.107.904-.188 1.368-.243l1.432-.166c.366-.047.633-.122.799-.224.166-.102.249-.269.249-.499v-.044c0-.559-.157-.991-.473-1.298-.311-.307-.775-.46-1.393-.46-.644 0-1.151.143-1.522.428-.366.281-.62.595-.76.94l-1.796-.41c.213-.596.524-1.078.933-1.444a3.78 3.78 0 0 1 1.425-.805 5.566 5.566 0 0 1 1.694-.256c.392 0 .808.047 1.247.14.443.09.856.256 1.24.5.388.242.705.59.952 1.041.247.447.371 1.03.371 1.745V60h-1.867v-1.342h-.076c-.124.247-.309.49-.556.728a2.964 2.964 0 0 1-.953.595c-.388.157-.852.236-1.393.236Zm.415-1.534c.529 0 .98-.104 1.355-.313.38-.209.667-.481.863-.818.201-.341.301-.705.301-1.093v-1.266c-.069.068-.201.132-.397.192a6.141 6.141 0 0 1-.658.147 80.04 80.04 0 0 1-.722.109l-.588.076c-.371.047-.71.126-1.017.237-.302.11-.545.27-.728.48-.179.204-.269.477-.269.817 0 .473.175.831.524 1.074.35.239.795.358 1.336.358Zm8.484-8.501 2.167 3.822 2.186-3.822h2.09l-3.062 4.909L693.899 60h-2.09l-2.212-3.669L687.392 60h-2.097l3.055-4.91-3.017-4.908h2.097Zm24.196.984h-1.995a3.034 3.034 0 0 0-1.195-1.95 3.308 3.308 0 0 0-1.016-.51 3.97 3.97 0 0 0-1.183-.173c-.754 0-1.43.19-2.026.569-.593.379-1.061.935-1.406 1.668-.341.733-.512 1.628-.512 2.684 0 1.066.171 1.965.512 2.698.345.733.816 1.287 1.412 1.662a3.707 3.707 0 0 0 2.014.562c.413 0 .805-.055 1.176-.166a3.38 3.38 0 0 0 1.016-.505 3.062 3.062 0 0 0 1.208-1.924l1.995.007a5.369 5.369 0 0 1-.62 1.777 4.915 4.915 0 0 1-1.17 1.393 5.285 5.285 0 0 1-1.624.901 6.003 6.003 0 0 1-1.994.32c-1.134 0-2.144-.269-3.03-.805-.886-.542-1.585-1.315-2.097-2.32-.507-1.006-.76-2.206-.76-3.6 0-1.397.255-2.597.767-3.598.511-1.006 1.21-1.777 2.096-2.314.887-.541 1.895-.812 3.024-.812.694 0 1.342.1 1.943.3a5.135 5.135 0 0 1 1.63.87c.482.38.88.844 1.195 1.393.316.546.529 1.17.64 1.873Zm6.345 9.032c-.92 0-1.723-.21-2.41-.633a4.272 4.272 0 0 1-1.598-1.77c-.379-.759-.568-1.645-.568-2.66 0-1.018.189-1.908.568-2.671.38-.763.912-1.355 1.598-1.777.687-.422 1.49-.633 2.41-.633.921 0 1.724.21 2.41.633.686.422 1.219 1.014 1.598 1.777.379.763.569 1.653.569 2.672 0 1.014-.19 1.9-.569 2.659a4.265 4.265 0 0 1-1.598 1.77c-.686.422-1.489.633-2.41.633Zm.007-1.604c.596 0 1.091-.158 1.483-.473.392-.316.681-.735.869-1.26a5.002 5.002 0 0 0 .288-1.732c0-.626-.096-1.201-.288-1.726-.188-.528-.477-.952-.869-1.272-.392-.32-.887-.479-1.483-.479-.601 0-1.1.16-1.496.48-.392.319-.684.743-.876 1.271a5.104 5.104 0 0 0-.281 1.726c0 .63.094 1.208.281 1.733.192.524.484.943.876 1.259.396.315.895.473 1.496.473ZM724.681 60v-9.818h1.835v1.598h.121a2.537 2.537 0 0 1 1.004-1.266c.464-.307 1.02-.46 1.668-.46.656 0 1.206.153 1.649.46.448.307.778.729.991 1.266h.102a2.77 2.77 0 0 1 1.119-1.253c.511-.315 1.121-.473 1.828-.473.891 0 1.617.28 2.18.837.566.559.85 1.4.85 2.525V60h-1.911v-6.405c0-.665-.181-1.146-.544-1.444a1.974 1.974 0 0 0-1.297-.448c-.622 0-1.106.192-1.451.575-.345.38-.518.868-.518 1.464V60h-1.905v-6.526c0-.533-.166-.961-.498-1.285-.333-.324-.765-.486-1.298-.486a1.86 1.86 0 0 0-1.004.288c-.302.187-.547.45-.735.786a2.41 2.41 0 0 0-.274 1.17V60h-1.912Zm15.908 3.682v-13.5h1.867v1.591h.16a5.34 5.34 0 0 1 .479-.71c.209-.268.499-.502.869-.702.371-.205.861-.307 1.471-.307.792 0 1.5.2 2.122.6.622.401 1.11.979 1.464 1.733.358.754.537 1.662.537 2.723s-.177 1.971-.531 2.73c-.354.754-.839 1.335-1.457 1.744-.618.405-1.324.608-2.116.608-.597 0-1.085-.1-1.464-.3-.375-.2-.669-.435-.882-.704a5.322 5.322 0 0 1-.492-.716h-.115v5.21h-1.912Zm1.873-8.591c0 .69.101 1.295.301 1.815.2.52.49.927.869 1.221.379.29.844.435 1.394.435.571 0 1.048-.151 1.431-.454.384-.307.674-.722.87-1.246.2-.525.3-1.115.3-1.771 0-.648-.098-1.23-.294-1.745-.192-.516-.481-.923-.869-1.221-.384-.298-.863-.447-1.438-.447-.554 0-1.023.142-1.407.428-.379.285-.667.684-.863 1.195-.196.511-.294 1.108-.294 1.79Zm11.148-8.182V60h-1.911V46.91h1.911ZM756.181 60v-9.818h1.912V60h-1.912Zm.965-11.333c-.332 0-.617-.11-.856-.333a1.082 1.082 0 0 1-.352-.805c0-.315.118-.584.352-.805.239-.226.524-.34.856-.34.333 0 .616.114.851.34.238.221.358.49.358.805 0 .311-.12.58-.358.805a1.195 1.195 0 0 1-.851.333Zm6.375 11.55a4.013 4.013 0 0 1-1.688-.345 2.847 2.847 0 0 1-1.195-1.016c-.29-.443-.435-.987-.435-1.63 0-.554.107-1.01.32-1.368a2.36 2.36 0 0 1 .863-.85 4.506 4.506 0 0 1 1.214-.473c.448-.107.904-.188 1.368-.243l1.432-.166c.367-.047.633-.122.799-.224.166-.102.25-.269.25-.499v-.044c0-.559-.158-.991-.474-1.298-.311-.307-.775-.46-1.393-.46-.643 0-1.151.143-1.521.428-.367.281-.62.595-.761.94l-1.796-.41c.213-.596.524-1.078.933-1.444.413-.37.889-.64 1.426-.805a5.56 5.56 0 0 1 1.693-.256c.393 0 .808.047 1.247.14.443.09.856.256 1.24.5.388.242.705.59.952 1.041.248.447.371 1.03.371 1.745V60H766.5v-1.342h-.077c-.124.247-.309.49-.556.728a2.953 2.953 0 0 1-.953.595c-.387.157-.852.236-1.393.236Zm.415-1.534c.529 0 .981-.104 1.356-.313.379-.209.666-.481.862-.818.201-.341.301-.705.301-1.093v-1.266c-.068.068-.2.132-.396.192a6.219 6.219 0 0 1-.659.147 80.04 80.04 0 0 1-.722.109l-.588.076c-.371.047-.71.126-1.016.237-.303.11-.546.27-.729.48-.179.204-.269.477-.269.817 0 .473.175.831.524 1.074.35.239.795.358 1.336.358Zm8.887-4.513V60h-1.911v-9.818h1.834v1.598h.122c.226-.52.579-.938 1.061-1.253.486-.315 1.097-.473 1.834-.473.669 0 1.255.14 1.758.422.503.277.893.69 1.17 1.24.277.55.415 1.23.415 2.039V60h-1.911v-6.015c0-.712-.185-1.268-.556-1.668-.371-.405-.88-.608-1.528-.608-.443 0-.837.096-1.182.288a2.066 2.066 0 0 0-.812.844c-.196.366-.294.81-.294 1.33Zm12.982 6.028c-.95 0-1.768-.215-2.454-.645a4.278 4.278 0 0 1-1.573-1.797c-.366-.762-.549-1.636-.549-2.62 0-.998.187-1.878.562-2.64.375-.767.903-1.366 1.585-1.796.682-.43 1.485-.646 2.41-.646.746 0 1.411.139 1.994.415a3.577 3.577 0 0 1 1.413 1.151c.362.494.577 1.072.646 1.732h-1.86a2.231 2.231 0 0 0-.704-1.189c-.362-.332-.848-.498-1.457-.498-.533 0-.999.14-1.4.422-.396.277-.705.673-.927 1.189-.221.51-.332 1.116-.332 1.815 0 .716.109 1.334.326 1.854.217.52.524.922.92 1.208.401.285.872.428 1.413.428.362 0 .69-.066.984-.198.299-.137.548-.33.748-.582.205-.251.348-.554.429-.907h1.86a3.625 3.625 0 0 1-.62 1.7c-.346.498-.808.89-1.388 1.176-.575.285-1.25.428-2.026.428Zm10.309 0c-.967 0-1.8-.206-2.499-.62a4.202 4.202 0 0 1-1.611-1.758c-.375-.758-.563-1.647-.563-2.665 0-1.006.188-1.892.563-2.66.379-.766.908-1.365 1.585-1.795.682-.43 1.479-.646 2.391-.646.554 0 1.091.092 1.611.275.519.183.986.47 1.399.863.414.392.74.901.978 1.527.239.623.358 1.379.358 2.27v.677h-7.804v-1.432h5.931c0-.503-.102-.948-.306-1.336a2.328 2.328 0 0 0-.863-.926c-.367-.226-.797-.34-1.291-.34-.537 0-1.006.133-1.407.397-.396.26-.703.601-.92 1.023-.213.417-.32.871-.32 1.361v1.119c0 .656.115 1.214.345 1.675.235.46.561.812.978 1.054.418.239.906.358 1.464.358.362 0 .693-.05.991-.153a2.047 2.047 0 0 0 1.272-1.246l1.809.325c-.145.533-.405 1-.78 1.4a3.778 3.778 0 0 1-1.4.927c-.558.218-1.195.326-1.911.326Z"/><rect width="215" height="58" x="256" y="24.281" fill="#F4F5F7" rx="29"/><path stroke="#1D2939" stroke-width="1.5" d="M279 45.28a1 1 0 0 1 1-1h5a1 1 0 0 1 1 1v5a1 1 0 0 1-1 1h-5a1 1 0 0 1-1-1v-5ZM290 45.28a1 1 0 0 1 1-1h5a1 1 0 0 1 1 1v5a1 1 0 0 1-1 1h-5a1 1 0 0 1-1-1v-5ZM279 56.28a1 1 0 0 1 1-1h5a1 1 0 0 1 1 1v5a1 1 0 0 1-1 1h-5a1 1 0 0 1-1-1v-5ZM290 56.28a1 1 0 0 1 1-1h5a1 1 0 0 1 1 1v5a1 1 0 0 1-1 1h-5a1 1 0 0 1-1-1v-5Z"/><path fill="#1D252C" d="M322.311 51.447h-1.994a3.05 3.05 0 0 0-1.196-1.95 3.297 3.297 0 0 0-1.016-.511 3.97 3.97 0 0 0-1.182-.173c-.755 0-1.43.19-2.027.57-.592.379-1.061.935-1.406 1.668-.341.733-.511 1.627-.511 2.684 0 1.066.17 1.965.511 2.698.345.733.816 1.287 1.413 1.662a3.701 3.701 0 0 0 2.013.562c.414 0 .806-.055 1.176-.166a3.397 3.397 0 0 0 1.017-.505 3.062 3.062 0 0 0 1.208-1.924l1.994.006a5.324 5.324 0 0 1-.62 1.777 4.901 4.901 0 0 1-1.17 1.394 5.291 5.291 0 0 1-1.623.901c-.61.213-1.274.32-1.995.32-1.133 0-2.143-.269-3.029-.806-.887-.54-1.586-1.314-2.097-2.32-.507-1.006-.761-2.205-.761-3.599 0-1.397.256-2.597.767-3.598.512-1.006 1.211-1.777 2.097-2.314.886-.541 1.894-.812 3.023-.812.695 0 1.343.1 1.944.3a5.135 5.135 0 0 1 1.63.87c.481.379.88.843 1.195 1.393a5.39 5.39 0 0 1 .639 1.873Zm8.43 4.762v-5.746h1.917v9.818h-1.879v-1.7h-.102c-.226.524-.588.96-1.087 1.31-.494.345-1.11.518-1.847.518-.631 0-1.189-.139-1.675-.416-.482-.281-.861-.697-1.138-1.246-.273-.55-.409-1.23-.409-2.04v-6.244h1.911v6.014c0 .67.186 1.202.556 1.599.371.396.853.594 1.445.594.358 0 .714-.09 1.068-.269.357-.179.654-.45.888-.811.239-.363.356-.823.352-1.381Zm11.842-3.35-1.732.307a2.035 2.035 0 0 0-.345-.632 1.705 1.705 0 0 0-.626-.493c-.265-.127-.595-.191-.991-.191-.541 0-.993.121-1.355.364-.362.239-.544.548-.544.927 0 .328.122.592.365.793.243.2.635.364 1.176.492l1.56.358c.903.208 1.576.53 2.019.965.444.434.665 1 .665 1.694 0 .588-.17 1.112-.511 1.572-.337.456-.808.814-1.413 1.074-.601.26-1.297.39-2.09.39-1.099 0-1.996-.234-2.691-.703-.695-.473-1.121-1.144-1.278-2.014l1.847-.281c.115.482.351.846.709 1.093.358.243.825.364 1.4.364.627 0 1.127-.13 1.502-.39.375-.264.563-.585.563-.965 0-.306-.115-.564-.345-.773-.226-.209-.573-.367-1.042-.473l-1.662-.365c-.916-.208-1.594-.54-2.033-.997-.434-.456-.652-1.033-.652-1.732 0-.58.162-1.087.486-1.521.324-.435.771-.774 1.342-1.017.571-.247 1.225-.37 1.963-.37 1.061 0 1.896.23 2.505.69.61.456 1.012 1.068 1.208 1.835Zm6.877-2.396v1.534h-5.363v-1.534h5.363Zm-3.925-2.353h1.911v9.288c0 .37.056.65.166.837a.868.868 0 0 0 .429.377c.179.064.373.096.581.096.154 0 .288-.01.403-.032.115-.02.205-.038.269-.05l.345 1.578a3.241 3.241 0 0 1-.473.128 3.754 3.754 0 0 1-.767.077 3.37 3.37 0 0 1-1.407-.269 2.411 2.411 0 0 1-1.054-.87c-.269-.391-.403-.883-.403-1.476V48.11Zm10.069 12.369c-.92 0-1.724-.211-2.41-.633a4.266 4.266 0 0 1-1.598-1.77c-.379-.759-.569-1.645-.569-2.66 0-1.018.19-1.909.569-2.671.379-.763.912-1.356 1.598-1.777.686-.422 1.49-.633 2.41-.633.921 0 1.724.21 2.41.633.686.421 1.219 1.014 1.598 1.776.379.763.569 1.654.569 2.672 0 1.015-.19 1.901-.569 2.66a4.266 4.266 0 0 1-1.598 1.77c-.686.422-1.489.633-2.41.633Zm.006-1.605c.597 0 1.091-.157 1.483-.473.392-.315.682-.735.87-1.259a5.027 5.027 0 0 0 .287-1.732c0-.626-.096-1.202-.287-1.726-.188-.528-.478-.952-.87-1.272-.392-.32-.886-.48-1.483-.48-.6 0-1.099.16-1.495.48-.392.32-.684.744-.876 1.272a5.079 5.079 0 0 0-.281 1.726 5.1 5.1 0 0 0 .281 1.732c.192.524.484.944.876 1.26.396.315.895.472 1.495.472Zm6.704 1.407v-9.818h1.835v1.598h.121a2.537 2.537 0 0 1 1.004-1.266c.464-.307 1.02-.46 1.668-.46.656 0 1.206.153 1.649.46.448.307.778.729.991 1.266h.102a2.764 2.764 0 0 1 1.119-1.253c.511-.316 1.12-.473 1.828-.473.89 0 1.617.279 2.18.837.566.558.85 1.4.85 2.525v6.584h-1.912v-6.405c0-.665-.181-1.146-.543-1.445a1.976 1.976 0 0 0-1.297-.447c-.623 0-1.106.192-1.451.575-.346.38-.518.867-.518 1.464v6.258h-1.905v-6.526c0-.533-.166-.962-.499-1.285-.332-.324-.765-.486-1.297-.486a1.86 1.86 0 0 0-1.004.288 2.12 2.12 0 0 0-.735.786 2.41 2.41 0 0 0-.275 1.17v6.053h-1.911Zm20.14.198c-.967 0-1.801-.207-2.499-.62a4.202 4.202 0 0 1-1.611-1.758c-.375-.758-.563-1.647-.563-2.665 0-1.006.188-1.892.563-2.66.379-.767.907-1.365 1.585-1.796.682-.43 1.479-.645 2.391-.645.554 0 1.091.091 1.61.275.52.183.987.47 1.4.862.414.393.74.902.978 1.528.239.622.358 1.379.358 2.27v.677h-7.804v-1.432h5.931c0-.503-.102-.948-.306-1.336a2.328 2.328 0 0 0-.863-.927c-.367-.226-.797-.338-1.292-.338-.537 0-1.005.132-1.406.396-.396.26-.703.6-.92 1.023-.213.417-.32.871-.32 1.361v1.119c0 .656.115 1.214.345 1.674.235.46.561.812.978 1.055.418.239.906.358 1.464.358.362 0 .692-.051.991-.153a2.047 2.047 0 0 0 1.272-1.246l1.809.325c-.145.533-.405 1-.78 1.4a3.778 3.778 0 0 1-1.4.927c-.558.217-1.195.326-1.911.326Zm6.333-.198v-9.818h1.847v1.56h.102c.179-.53.495-.945.946-1.247.456-.307.972-.46 1.547-.46a8.17 8.17 0 0 1 .812.044v1.828a3.445 3.445 0 0 0-.409-.07 3.906 3.906 0 0 0-.588-.045c-.452 0-.855.096-1.208.288a2.13 2.13 0 0 0-.831.786 2.123 2.123 0 0 0-.307 1.138v5.996h-1.911Zm11.672 3.682v-13.5h1.866v1.591h.16c.111-.204.271-.44.479-.71.209-.268.499-.502.87-.702.37-.205.86-.307 1.47-.307.792 0 1.5.2 2.122.6.622.401 1.11.979 1.464 1.733.358.754.537 1.662.537 2.723 0 1.06-.177 1.97-.531 2.73-.354.753-.839 1.335-1.457 1.744-.618.405-1.323.607-2.116.607-.597 0-1.085-.1-1.464-.3-.375-.2-.669-.435-.882-.703a5.322 5.322 0 0 1-.492-.716h-.115v5.21h-1.911Zm1.872-8.591c0 .69.101 1.295.301 1.815.2.52.49.927.869 1.22.38.29.844.436 1.394.436.571 0 1.048-.152 1.432-.454.383-.307.673-.723.869-1.247.2-.524.3-1.114.3-1.77 0-.648-.098-1.23-.294-1.745-.192-.516-.481-.923-.869-1.221-.384-.298-.863-.448-1.438-.448-.554 0-1.023.143-1.407.429-.379.285-.666.684-.862 1.195-.196.511-.295 1.108-.295 1.79Zm13.373 5.107c-.921 0-1.724-.211-2.41-.633a4.266 4.266 0 0 1-1.598-1.77c-.379-.759-.569-1.645-.569-2.66 0-1.018.19-1.909.569-2.671.379-.763.912-1.356 1.598-1.777.686-.422 1.489-.633 2.41-.633.92 0 1.723.21 2.409.633.687.421 1.219 1.014 1.598 1.776.38.763.569 1.654.569 2.672 0 1.015-.189 1.901-.569 2.66a4.26 4.26 0 0 1-1.598 1.77c-.686.422-1.489.633-2.409.633Zm.006-1.605c.597 0 1.091-.157 1.483-.473.392-.315.682-.735.869-1.259a5.003 5.003 0 0 0 .288-1.732c0-.626-.096-1.202-.288-1.726-.187-.528-.477-.952-.869-1.272-.392-.32-.886-.48-1.483-.48-.601 0-1.099.16-1.496.48-.392.32-.684.744-.875 1.272a5.078 5.078 0 0 0-.282 1.726 5.1 5.1 0 0 0 .282 1.732c.191.524.483.944.875 1.26.397.315.895.472 1.496.472Zm6.704 1.407v-9.818h1.847v1.56h.102c.179-.53.495-.945.946-1.247.456-.307.972-.46 1.547-.46a8.202 8.202 0 0 1 .812.044v1.828a3.445 3.445 0 0 0-.409-.07 3.906 3.906 0 0 0-.588-.045c-.452 0-.855.096-1.208.288a2.13 2.13 0 0 0-.831.786 2.123 2.123 0 0 0-.307 1.138v5.996h-1.911Zm12.071-9.818v1.534h-5.363v-1.534h5.363Zm-3.925-2.353h1.912v9.288c0 .37.055.65.166.837a.866.866 0 0 0 .428.377c.179.064.373.096.582.096.153 0 .287-.01.402-.032.115-.02.205-.038.269-.05l.345 1.578a3.205 3.205 0 0 1-.473.128c-.204.047-.46.072-.767.077a3.362 3.362 0 0 1-1.406-.269 2.414 2.414 0 0 1-1.055-.87c-.268-.391-.403-.883-.403-1.476V48.11Zm8.896 12.388a4.008 4.008 0 0 1-1.687-.345 2.84 2.84 0 0 1-1.195-1.016c-.29-.444-.435-.987-.435-1.63 0-.554.107-1.01.32-1.368.213-.358.5-.642.863-.85a4.506 4.506 0 0 1 1.214-.473c.447-.107.903-.188 1.368-.243l1.432-.166c.366-.047.633-.122.799-.224.166-.102.249-.269.249-.499v-.045c0-.558-.158-.99-.473-1.297-.311-.307-.776-.46-1.393-.46-.644 0-1.151.142-1.522.428-.366.281-.62.594-.76.94l-1.797-.41c.214-.596.525-1.078.934-1.444a3.78 3.78 0 0 1 1.425-.806 5.569 5.569 0 0 1 1.694-.255c.392 0 .808.047 1.246.14.444.09.857.256 1.241.499.387.243.705.59.952 1.042.247.447.371 1.029.371 1.745v6.52h-1.867v-1.343h-.077c-.123.248-.308.49-.556.73a2.948 2.948 0 0 1-.952.594c-.388.157-.852.236-1.394.236Zm.416-1.534c.528 0 .98-.104 1.355-.313.379-.209.667-.482.863-.818.2-.341.3-.706.3-1.093v-1.266c-.068.068-.2.132-.396.192a6.174 6.174 0 0 1-.658.147c-.247.038-.488.074-.723.108l-.588.077a4.75 4.75 0 0 0-1.016.237c-.303.11-.545.27-.729.479-.179.205-.268.477-.268.818 0 .473.175.831.524 1.074.349.239.795.358 1.336.358Zm8.887-11.774v13.09h-1.912V47.19h1.912Z"/><rect width="159" height="58" x="168" y="150.281" fill="#F4F5F7" rx="29"/><path stroke="#1D252C" stroke-linecap="round" stroke-linejoin="round" stroke-width="1.5" d="m197 178.781 2 2 4.5-4.5m4.5 3c0 4.908-5.354 8.478-7.302 9.615-.221.129-.332.193-.488.227a1.14 1.14 0 0 1-.42 0c-.156-.034-.267-.098-.488-.227-1.948-1.137-7.302-4.707-7.302-9.615v-4.783c0-.799 0-1.199.131-1.543.115-.303.303-.574.547-.789.275-.243.65-.383 1.398-.664l5.362-2.011c.208-.078.312-.117.419-.132a.979.979 0 0 1 .286 0c.107.015.211.054.419.132l5.362 2.011c.748.281 1.123.421 1.398.664.244.215.432.486.547.789.131.344.131.744.131 1.543v4.783Z"/><path fill="#1D252C" d="M225.413 173.19v13.091h-1.975V173.19h1.975Zm4.635 7.261v5.83h-1.912v-9.818h1.835v1.598h.121c.226-.52.58-.938 1.061-1.253.486-.316 1.098-.473 1.835-.473.669 0 1.255.14 1.758.422.503.277.892.69 1.169 1.24.277.549.416 1.229.416 2.039v6.245h-1.911v-6.015c0-.712-.186-1.268-.556-1.668-.371-.405-.88-.608-1.528-.608-.443 0-.837.096-1.183.288-.34.192-.611.473-.811.844-.196.366-.294.809-.294 1.329Zm16.203-1.591-1.732.306a2.035 2.035 0 0 0-.345-.632 1.7 1.7 0 0 0-.626-.493c-.265-.127-.595-.191-.991-.191-.541 0-.993.121-1.355.364-.363.239-.544.548-.544.927 0 .328.122.592.365.792.243.201.635.365 1.176.493l1.56.358c.903.208 1.576.53 2.019.965.444.434.665.999.665 1.694 0 .588-.17 1.112-.511 1.572-.337.456-.808.814-1.413 1.074-.601.26-1.297.39-2.09.39-1.099 0-1.996-.234-2.691-.703-.695-.473-1.121-1.144-1.278-2.014l1.847-.281c.115.482.351.846.709 1.093.358.243.825.364 1.4.364.627 0 1.127-.13 1.502-.389.375-.265.563-.586.563-.966 0-.306-.115-.564-.345-.773-.226-.209-.574-.367-1.042-.473l-1.662-.364c-.916-.209-1.594-.542-2.033-.998-.435-.456-.652-1.033-.652-1.732 0-.579.162-1.087.486-1.521.324-.435.771-.774 1.342-1.017.571-.247 1.225-.37 1.963-.37 1.061 0 1.896.23 2.505.69.61.456 1.012 1.068 1.208 1.835Zm8.513 3.349v-5.746h1.918v9.818h-1.88v-1.701h-.102a3.063 3.063 0 0 1-1.087 1.311c-.494.345-1.11.518-1.847.518-.631 0-1.189-.139-1.675-.416-.481-.281-.86-.697-1.137-1.246-.273-.55-.409-1.23-.409-2.039v-6.245h1.911v6.014c0 .67.185 1.202.556 1.599.371.396.852.594 1.444.594.358 0 .714-.09 1.068-.268.358-.179.654-.45.888-.812.239-.363.356-.823.352-1.381Zm4.486 4.072v-9.818h1.847v1.559h.102c.179-.528.495-.944.946-1.246.456-.307.972-.46 1.547-.46.119 0 .26.004.422.012.166.009.296.02.39.032v1.828a3.62 3.62 0 0 0-.409-.07 3.881 3.881 0 0 0-.588-.045c-.452 0-.855.096-1.208.288a2.137 2.137 0 0 0-1.138 1.924v5.996h-1.911Zm9.677.217a4.01 4.01 0 0 1-1.687-.345 2.841 2.841 0 0 1-1.196-1.016c-.289-.444-.434-.987-.434-1.63 0-.554.106-1.01.319-1.368.213-.358.501-.642.863-.85a4.477 4.477 0 0 1 1.215-.473 11.85 11.85 0 0 1 1.368-.243l1.431-.167c.367-.046.633-.121.799-.223.167-.103.25-.269.25-.499v-.045c0-.558-.158-.99-.473-1.297-.311-.307-.776-.46-1.394-.46-.643 0-1.15.142-1.521.428-.367.281-.62.594-.761.94l-1.796-.41c.213-.596.524-1.078.933-1.444a3.8 3.8 0 0 1 1.426-.806 5.576 5.576 0 0 1 1.694-.255c.392 0 .807.047 1.246.14.443.09.857.256 1.24.499.388.243.705.59.953 1.042.247.447.37 1.029.37 1.745v6.52h-1.866v-1.343h-.077c-.123.248-.309.49-.556.729a2.96 2.96 0 0 1-.952.595c-.388.157-.853.236-1.394.236Zm.416-1.534c.528 0 .98-.104 1.355-.313a2.2 2.2 0 0 0 .863-.818c.2-.341.3-.706.3-1.093v-1.266c-.068.068-.2.132-.396.192a6.34 6.34 0 0 1-.659.147 81.45 81.45 0 0 1-.722.108l-.588.077a4.729 4.729 0 0 0-1.016.237c-.303.11-.546.27-.729.479-.179.205-.268.477-.268.818 0 .473.174.831.524 1.074.349.239.794.358 1.336.358Zm8.886-4.513v5.83h-1.911v-9.818h1.835v1.598h.121c.226-.52.58-.938 1.061-1.253.486-.316 1.097-.473 1.835-.473.669 0 1.255.14 1.757.422.503.277.893.69 1.17 1.24.277.549.416 1.229.416 2.039v6.245h-1.912v-6.015c0-.712-.185-1.268-.556-1.668-.37-.405-.88-.608-1.527-.608a2.39 2.39 0 0 0-1.183.288 2.074 2.074 0 0 0-.812.844c-.196.366-.294.809-.294 1.329Zm12.982 6.028c-.95 0-1.768-.215-2.454-.646a4.272 4.272 0 0 1-1.573-1.796c-.366-.763-.549-1.636-.549-2.621 0-.997.187-1.877.562-2.64a4.317 4.317 0 0 1 1.585-1.796c.682-.43 1.486-.645 2.41-.645.746 0 1.411.138 1.995.415a3.578 3.578 0 0 1 1.412 1.151c.362.494.578 1.072.646 1.732h-1.86a2.24 2.24 0 0 0-.703-1.189c-.363-.332-.848-.498-1.458-.498-.532 0-.999.14-1.4.421-.396.277-.705.674-.926 1.189-.222.512-.333 1.117-.333 1.816 0 .716.109 1.333.326 1.853.217.52.524.923.921 1.208.4.286.871.429 1.412.429.362 0 .691-.066.985-.198.298-.137.547-.331.747-.582.205-.252.348-.554.429-.908h1.86a3.618 3.618 0 0 1-.62 1.701c-.345.498-.808.89-1.387 1.176-.576.285-1.251.428-2.027.428Zm10.309 0c-.967 0-1.8-.207-2.499-.62a4.206 4.206 0 0 1-1.611-1.758c-.375-.758-.562-1.647-.562-2.665 0-1.006.187-1.892.562-2.66.379-.767.908-1.365 1.585-1.796.682-.43 1.479-.645 2.391-.645.554 0 1.091.091 1.611.275.52.183.986.47 1.4.863.413.392.739.901.978 1.527.238.622.358 1.379.358 2.269v.678h-7.805v-1.432h5.932c0-.503-.103-.948-.307-1.336a2.323 2.323 0 0 0-.863-.927c-.366-.225-.797-.338-1.291-.338-.537 0-1.006.132-1.406.396-.397.26-.704.601-.921 1.023a2.95 2.95 0 0 0-.32 1.361v1.119c0 .656.116 1.214.346 1.674.234.461.56.812.978 1.055.417.239.905.358 1.463.358.363 0 .693-.051.991-.153.298-.107.556-.265.774-.473a2.06 2.06 0 0 0 .498-.774l1.809.326c-.145.533-.405 1-.78 1.4-.37.396-.837.705-1.4.927-.558.217-1.195.326-1.911.326Z"/><rect width="154" height="58" x="266" y="527.281" fill="#F4F5F7" rx="29"/><path stroke="#212121" stroke-linecap="round" stroke-linejoin="round" stroke-width="1.5" d="M296.25 565.531v-10M301.25 565.531v-14M306.25 565.531v-5M291.25 565.531v-18"/><path fill="#1D252C" d="M322.544 563.281h-2.097l4.711-13.091h2.282l4.711 13.091h-2.096l-3.701-10.713h-.103l-3.707 10.713Zm.352-5.127h6.801v1.662h-6.801v-1.662Zm12.904-.703v5.83h-1.912v-9.818h1.835v1.598h.121c.226-.52.58-.938 1.061-1.253.486-.316 1.098-.473 1.835-.473.669 0 1.255.14 1.758.422.503.277.892.69 1.169 1.24.277.549.416 1.229.416 2.039v6.245h-1.911v-6.015c0-.712-.186-1.268-.556-1.668-.371-.405-.88-.608-1.528-.608-.443 0-.837.096-1.183.288a2.065 2.065 0 0 0-.811.844c-.196.366-.294.809-.294 1.329Zm11.703 6.047a4.01 4.01 0 0 1-1.687-.345 2.839 2.839 0 0 1-1.195-1.016c-.29-.444-.435-.987-.435-1.63 0-.554.106-1.01.32-1.368.213-.358.5-.642.862-.85a4.49 4.49 0 0 1 1.215-.473 11.85 11.85 0 0 1 1.368-.243l1.432-.167c.366-.046.632-.121.799-.223.166-.103.249-.269.249-.499v-.045c0-.558-.158-.99-.473-1.297-.311-.307-.776-.46-1.394-.46-.643 0-1.15.142-1.521.428-.366.281-.62.594-.761.94l-1.796-.41c.213-.596.524-1.078.934-1.444a3.789 3.789 0 0 1 1.425-.806 5.581 5.581 0 0 1 1.694-.255c.392 0 .807.047 1.246.14.444.09.857.256 1.24.499.388.243.706.59.953 1.042.247.447.371 1.029.371 1.745v6.52h-1.867v-1.343h-.077c-.123.248-.309.49-.556.729a2.949 2.949 0 0 1-.952.595c-.388.157-.852.236-1.394.236Zm.416-1.534c.528 0 .98-.104 1.355-.313a2.2 2.2 0 0 0 .863-.818c.2-.341.3-.706.3-1.093v-1.266c-.068.068-.2.132-.396.192a6.376 6.376 0 0 1-.658.147c-.248.038-.488.074-.723.108l-.588.077c-.37.047-.709.126-1.016.237-.303.11-.546.27-.729.479-.179.205-.268.477-.268.818 0 .473.174.831.524 1.074.349.239.795.358 1.336.358Zm8.886-11.774v13.091h-1.911V550.19h1.911Zm3.78 16.773a3.97 3.97 0 0 1-.78-.071 2.419 2.419 0 0 1-.524-.14l.46-1.566c.349.093.66.134.933.121.273-.013.514-.115.722-.307.214-.192.401-.505.563-.939l.236-.652-3.592-9.946h2.046l2.486 7.619h.102l2.487-7.619h2.052l-4.046 11.128a4.481 4.481 0 0 1-.716 1.298c-.29.358-.635.626-1.036.805-.4.179-.865.269-1.393.269Zm13.57-13.5v1.534h-5.363v-1.534h5.363Zm-3.925-2.353h1.912v9.288c0 .371.055.65.166.837a.861.861 0 0 0 .428.377c.179.064.373.096.582.096.153 0 .287-.01.402-.032l.269-.051.345 1.579a3.202 3.202 0 0 1-.473.128c-.205.047-.46.072-.767.077a3.362 3.362 0 0 1-1.406-.269 2.405 2.405 0 0 1-1.055-.869c-.268-.392-.403-.884-.403-1.477v-9.684Zm6.039 12.171v-9.818h1.911v9.818h-1.911Zm.965-11.333c-.332 0-.618-.111-.856-.333a1.078 1.078 0 0 1-.352-.805c0-.315.117-.584.352-.806.238-.225.524-.338.856-.338.333 0 .616.113.851.338.238.222.357.491.357.806 0 .311-.119.579-.357.805a1.194 1.194 0 0 1-.851.333Zm7.653 11.531c-.95 0-1.768-.215-2.454-.646a4.272 4.272 0 0 1-1.573-1.796c-.366-.763-.549-1.636-.549-2.621 0-.997.187-1.877.562-2.64.375-.767.903-1.365 1.585-1.796.682-.43 1.485-.645 2.41-.645.746 0 1.411.138 1.994.415a3.575 3.575 0 0 1 1.413 1.151c.362.494.577 1.072.646 1.732h-1.86a2.235 2.235 0 0 0-.704-1.189c-.362-.332-.848-.498-1.457-.498-.533 0-.999.14-1.4.421-.396.277-.705.674-.927 1.189-.221.512-.332 1.117-.332 1.816 0 .716.109 1.333.326 1.853.217.52.524.923.92 1.208.401.286.872.429 1.413.429.362 0 .69-.066.984-.198.299-.137.548-.331.748-.582.205-.252.348-.554.429-.908h1.86a3.629 3.629 0 0 1-.62 1.701c-.346.498-.808.89-1.387 1.176-.576.285-1.251.428-2.027.428Zm13.435-7.619-1.733.306a2.035 2.035 0 0 0-.345-.632 1.7 1.7 0 0 0-.626-.493c-.264-.127-.595-.191-.991-.191-.541 0-.993.121-1.355.364-.362.239-.543.548-.543.927 0 .328.121.592.364.792.243.201.635.365 1.176.493l1.56.358c.903.208 1.577.53 2.02.965.443.434.664.999.664 1.694 0 .588-.17 1.112-.511 1.572-.337.456-.807.814-1.413 1.074-.6.26-1.297.39-2.09.39-1.099 0-1.996-.234-2.691-.703-.694-.473-1.12-1.144-1.278-2.014l1.847-.281c.115.482.352.846.71 1.093.358.243.824.364 1.4.364.626 0 1.127-.13 1.502-.389.375-.265.562-.586.562-.966 0-.306-.115-.564-.345-.773-.226-.209-.573-.367-1.042-.473l-1.662-.364c-.916-.209-1.594-.542-2.033-.998-.434-.456-.652-1.033-.652-1.732 0-.579.162-1.087.486-1.521.324-.435.772-.774 1.343-1.017.571-.247 1.225-.37 1.962-.37 1.061 0 1.896.23 2.506.69.609.456 1.012 1.068 1.208 1.835Z"/><rect width="231" height="58" x="827" y="276" fill="#F4F5F7" rx="29"/><path stroke="#212121" stroke-linecap="round" stroke-linejoin="round" stroke-width="1.5" d="M867.25 295.25h-16v19.5l4-1.5 4 2 4-2 4 1.5v-19.5Z"/><path stroke="#212121" stroke-linecap="round" stroke-linejoin="round" stroke-width="1.5" d="M859.25 305.25a3 3 0 1 0 0-6 3 3 0 0 0 0 6ZM859.75 309.25h3.5M855.75 309.25h-.5"/><path fill="#1D252C" d="M883.544 312h-2.097l4.711-13.091h2.282L893.151 312h-2.096l-3.701-10.714h-.103L883.544 312Zm.352-5.127h6.801v1.662h-6.801v-1.662Zm14.97 5.325c-.951 0-1.769-.216-2.455-.646a4.269 4.269 0 0 1-1.572-1.796c-.367-.763-.55-1.636-.55-2.621 0-.997.188-1.877.563-2.64.375-.767.903-1.366 1.585-1.796.682-.43 1.485-.646 2.41-.646.745 0 1.41.139 1.994.416a3.575 3.575 0 0 1 1.413 1.151c.362.494.577 1.071.645 1.732h-1.86a2.23 2.23 0 0 0-.703-1.189c-.362-.333-.848-.499-1.457-.499-.533 0-1 .141-1.4.422-.397.277-.706.673-.927 1.189-.222.511-.333 1.117-.333 1.815 0 .716.109 1.334.326 1.854.218.52.525.923.921 1.208.4.286.871.428 1.413.428.362 0 .69-.066.984-.198a2.01 2.01 0 0 0 .748-.581c.204-.252.347-.554.428-.908h1.86a3.61 3.61 0 0 1-.62 1.7 3.555 3.555 0 0 1-1.387 1.176c-.575.286-1.251.429-2.026.429Zm10.213 0c-.951 0-1.769-.216-2.455-.646a4.269 4.269 0 0 1-1.572-1.796c-.367-.763-.55-1.636-.55-2.621 0-.997.187-1.877.562-2.64.375-.767.904-1.366 1.586-1.796.681-.43 1.485-.646 2.409-.646.746 0 1.411.139 1.995.416a3.572 3.572 0 0 1 1.412 1.151c.363.494.578 1.071.646 1.732h-1.86a2.23 2.23 0 0 0-.703-1.189c-.362-.333-.848-.499-1.458-.499-.532 0-.999.141-1.399.422-.397.277-.706.673-.927 1.189-.222.511-.333 1.117-.333 1.815 0 .716.109 1.334.326 1.854.218.52.524.923.921 1.208.4.286.871.428 1.412.428.363 0 .691-.066.985-.198.298-.136.547-.33.748-.581.204-.252.347-.554.428-.908h1.86a3.61 3.61 0 0 1-.62 1.7 3.562 3.562 0 0 1-1.387 1.176c-.575.286-1.251.429-2.026.429Zm10.213 0c-.921 0-1.724-.211-2.41-.633a4.265 4.265 0 0 1-1.598-1.771c-.38-.758-.569-1.645-.569-2.659 0-1.018.189-1.909.569-2.672.379-.762.912-1.355 1.598-1.777.686-.422 1.489-.633 2.41-.633.92 0 1.723.211 2.409.633.686.422 1.219 1.015 1.598 1.777.38.763.569 1.654.569 2.672 0 1.014-.189 1.901-.569 2.659a4.265 4.265 0 0 1-1.598 1.771c-.686.422-1.489.633-2.409.633Zm.006-1.605c.597 0 1.091-.157 1.483-.473.392-.315.682-.735.869-1.259a5.003 5.003 0 0 0 .288-1.732c0-.627-.096-1.202-.288-1.726-.187-.528-.477-.952-.869-1.272-.392-.32-.886-.48-1.483-.48-.601 0-1.099.16-1.496.48-.392.32-.684.744-.876 1.272a5.101 5.101 0 0 0-.281 1.726c0 .63.094 1.208.281 1.732.192.524.484.944.876 1.259.397.316.895.473 1.496.473Zm12.923-2.665v-5.747h1.918V312h-1.88v-1.701h-.102a3.069 3.069 0 0 1-1.087 1.311c-.494.345-1.11.517-1.847.517-.63 0-1.189-.138-1.675-.415-.481-.281-.86-.697-1.137-1.247-.273-.549-.409-1.229-.409-2.039v-6.245h1.911v6.015c0 .669.185 1.202.556 1.598.371.397.852.595 1.445.595.357 0 .713-.09 1.067-.269a2.24 2.24 0 0 0 .888-.812c.239-.362.356-.822.352-1.38Zm6.397-1.758V312h-1.911v-9.819h1.834v1.598h.122c.225-.52.579-.937 1.061-1.253.486-.315 1.097-.473 1.834-.473.669 0 1.255.141 1.758.422.503.277.893.691 1.17 1.24.277.55.415 1.23.415 2.039V312h-1.911v-6.015c0-.712-.185-1.268-.556-1.669-.371-.405-.88-.607-1.528-.607a2.39 2.39 0 0 0-1.182.288 2.065 2.065 0 0 0-.812.843c-.196.367-.294.81-.294 1.33Zm13.43-3.989v1.534h-5.363v-1.534h5.363Zm-3.925-2.352h1.911v9.288c0 .37.055.65.166.837a.868.868 0 0 0 .429.377c.179.064.372.096.581.096.154 0 .288-.011.403-.032l.268-.051.346 1.579a3.37 3.37 0 0 1-.473.128 3.731 3.731 0 0 1-.767.076 3.37 3.37 0 0 1-1.407-.268 2.414 2.414 0 0 1-1.054-.869c-.269-.392-.403-.885-.403-1.477v-9.684ZM954.162 312v-9.819h1.911V312h-1.911Zm.965-11.334c-.332 0-.618-.11-.857-.332a1.081 1.081 0 0 1-.351-.805c0-.316.117-.584.351-.806.239-.226.525-.339.857-.339.332 0 .616.113.85.339.239.222.358.49.358.806 0 .311-.119.579-.358.805a1.19 1.19 0 0 1-.85.332Zm5.428 5.504V312h-1.911v-9.819h1.835v1.598h.121c.226-.52.58-.937 1.061-1.253.486-.315 1.098-.473 1.835-.473.669 0 1.255.141 1.758.422.502.277.892.691 1.169 1.24.277.55.416 1.23.416 2.039V312h-1.911v-6.015c0-.712-.186-1.268-.557-1.669-.37-.405-.88-.607-1.527-.607-.443 0-.838.096-1.183.288a2.07 2.07 0 0 0-.812.843c-.196.367-.294.81-.294 1.33Zm12.963 9.716c-.779 0-1.451-.102-2.013-.307-.558-.204-1.014-.475-1.368-.812a3.399 3.399 0 0 1-.793-1.106l1.643-.677c.115.187.269.386.46.594.196.213.461.395.793.544.337.149.769.223 1.298.223.724 0 1.323-.176 1.796-.53.473-.35.709-.908.709-1.675v-1.93h-.121a4.276 4.276 0 0 1-.499.696c-.213.256-.507.478-.882.665-.375.188-.863.281-1.464.281-.775 0-1.474-.181-2.096-.543-.618-.366-1.108-.905-1.47-1.617-.358-.716-.537-1.596-.537-2.64s.177-1.939.53-2.685c.358-.745.848-1.316 1.47-1.713.623-.4 1.328-.601 2.116-.601.61 0 1.102.103 1.477.307.375.201.667.435.875.703.214.269.378.505.493.71h.14v-1.592h1.873v10.036c0 .844-.196 1.536-.588 2.077-.392.541-.922.942-1.592 1.202-.664.26-1.414.39-2.25.39Zm-.019-5.619c.55 0 1.014-.128 1.394-.383.383-.26.673-.631.869-1.112.2-.486.3-1.068.3-1.745 0-.661-.098-1.243-.294-1.746-.196-.502-.483-.894-.862-1.176-.38-.285-.848-.428-1.407-.428-.575 0-1.054.149-1.438.448-.383.294-.673.694-.869 1.201a4.772 4.772 0 0 0-.288 1.701c0 .643.098 1.208.294 1.693.196.486.486.865.869 1.138.388.273.866.409 1.432.409Zm12.332-4.813c0-1.602.211-3.077.633-4.423a13.203 13.203 0 0 1 1.847-3.727h1.752c-.316.422-.61.94-.882 1.553a14.616 14.616 0 0 0-.716 2.02 18.026 18.026 0 0 0-.48 2.27 15.79 15.79 0 0 0 .128 5.388c.2 1.04.471 2.005.812 2.896.341.89.72 1.617 1.138 2.179h-1.752a13.197 13.197 0 0 1-1.847-3.726c-.422-1.347-.633-2.823-.633-4.43Zm11.213 2.301h1.944l1.372 1.784.64.792 2.18 2.845h-2.02l-1.457-1.899-.498-.69-2.161-2.832Zm6.556-2.301c0 1.398-.25 2.599-.76 3.605-.52 1.002-1.22 1.773-2.11 2.314-.884.537-1.892.805-3.021.805-1.133 0-2.145-.268-3.036-.805-.886-.541-1.585-1.315-2.097-2.32-.511-1.006-.767-2.205-.767-3.599 0-1.398.256-2.597.767-3.599.512-1.005 1.211-1.777 2.097-2.314.891-.541 1.903-.811 3.036-.811 1.129 0 2.137.27 3.021.811.89.537 1.59 1.309 2.11 2.314.51 1.002.76 2.201.76 3.599Zm-1.95 0c0-1.065-.18-1.962-.52-2.691-.34-.733-.81-1.287-1.407-1.662a3.659 3.659 0 0 0-2.014-.569c-.754 0-1.427.19-2.02.569-.592.375-1.061.929-1.406 1.662-.341.729-.511 1.626-.511 2.691s.17 1.965.511 2.698c.345.728.814 1.282 1.406 1.661.593.375 1.266.563 2.02.563.75 0 1.421-.188 2.014-.563.597-.379 1.067-.933 1.407-1.661.34-.733.52-1.633.52-2.698Zm4.42 6.546v-13.091h4.79c.93 0 1.7.153 2.31.46.61.302 1.06.714 1.36 1.233.31.516.46 1.098.46 1.746 0 .545-.1 1.005-.3 1.38-.2.371-.47.669-.81.895-.33.222-.7.384-1.1.486v.128c.44.021.86.162 1.28.422.41.255.76.62 1.03 1.093s.41 1.048.41 1.725c0 .67-.16 1.27-.47 1.803-.31.528-.8.948-1.45 1.259-.65.307-1.48.461-2.5.461h-5.01Zm1.97-1.694h2.85c.95 0 1.62-.184 2.03-.55.41-.367.62-.825.62-1.374 0-.414-.11-.793-.32-1.138-.2-.345-.5-.62-.89-.825-.38-.204-.84-.307-1.37-.307h-2.92v4.194Zm0-5.734h2.65c.44 0 .84-.085 1.19-.256.36-.17.64-.409.85-.716.22-.311.32-.677.32-1.099 0-.541-.19-.995-.57-1.362-.38-.366-.96-.549-1.74-.549h-2.7v3.982Zm21.17.882c0 1.398-.25 2.599-.76 3.605-.51 1.002-1.22 1.773-2.11 2.314-.88.537-1.89.805-3.02.805-1.13 0-2.15-.268-3.04-.805-.88-.541-1.58-1.315-2.09-2.32-.51-1.006-.77-2.205-.77-3.599 0-1.398.26-2.597.77-3.599.51-1.005 1.21-1.777 2.09-2.314.89-.541 1.91-.811 3.04-.811 1.13 0 2.14.27 3.02.811.89.537 1.6 1.309 2.11 2.314.51 1.002.76 2.201.76 3.599Zm-1.95 0c0-1.065-.17-1.962-.52-2.691-.34-.733-.81-1.287-1.41-1.662-.59-.379-1.26-.569-2.01-.569-.75 0-1.43.19-2.02.569-.59.375-1.06.929-1.41 1.662-.34.729-.51 1.626-.51 2.691s.17 1.965.51 2.698c.35.728.82 1.282 1.41 1.661.59.375 1.27.563 2.02.563s1.42-.188 2.01-.563c.6-.379 1.07-.933 1.41-1.661.35-.733.52-1.633.52-2.698Zm7.94 0c0 1.607-.21 3.083-.63 4.43a13.394 13.394 0 0 1-1.85 3.726h-1.75c.31-.422.61-.939.88-1.553s.51-1.285.71-2.013c.21-.733.37-1.492.48-2.276.12-.784.18-1.555.18-2.314 0-1.01-.1-2.035-.3-3.075-.2-1.039-.47-2.004-.82-2.895-.34-.891-.72-1.617-1.13-2.18h1.75a13.4 13.4 0 0 1 1.85 3.727c.42 1.346.63 2.821.63 4.423Z"/><rect width="159" height="58" x="460" y="527.281" fill="#F4F5F7" rx="29"/><path stroke="#1D252C" stroke-linecap="round" stroke-linejoin="round" stroke-width="1.5" d="m496 562.281 2 2 4-4m0-6h-20m20 2v-3.8c0-1.12 0-1.68-.218-2.108a1.996 1.996 0 0 0-.874-.874c-.428-.218-.988-.218-2.108-.218h-13.6c-1.12 0-1.68 0-2.108.218a1.996 1.996 0 0 0-.874.874c-.218.428-.218.988-.218 2.108v7.6c0 1.12 0 1.68.218 2.108.192.376.498.682.874.874.428.218.988.218 2.108.218h6.8"/><path fill="#1D252C" d="M515.438 563.281V550.19h4.666c1.019 0 1.863.185 2.532.556a3.62 3.62 0 0 1 1.502 1.521c.332.639.498 1.36.498 2.161 0 .805-.168 1.53-.505 2.173-.332.639-.835 1.146-1.508 1.521-.669.371-1.511.556-2.525.556h-3.209v-1.674h3.03c.644 0 1.166-.111 1.566-.333.401-.225.695-.532.882-.92.188-.388.281-.829.281-1.323 0-.495-.093-.933-.281-1.317a2.008 2.008 0 0 0-.888-.901c-.401-.218-.929-.326-1.586-.326h-2.48v11.397h-1.975Zm14.13.217a4.014 4.014 0 0 1-1.688-.345 2.839 2.839 0 0 1-1.195-1.016c-.29-.444-.435-.987-.435-1.63 0-.554.107-1.01.32-1.368.213-.358.501-.642.863-.85a4.483 4.483 0 0 1 1.214-.473c.448-.107.904-.188 1.368-.243l1.432-.167c.367-.046.633-.121.799-.223.166-.103.249-.269.249-.499v-.045c0-.558-.157-.99-.473-1.297-.311-.307-.775-.46-1.393-.46-.644 0-1.151.142-1.521.428-.367.281-.62.594-.761.94l-1.796-.41c.213-.596.524-1.078.933-1.444a3.797 3.797 0 0 1 1.425-.806 5.581 5.581 0 0 1 1.694-.255c.392 0 .808.047 1.247.14.443.09.856.256 1.24.499.388.243.705.59.952 1.042.247.447.371 1.029.371 1.745v6.52h-1.866v-1.343h-.077c-.124.248-.309.49-.556.729a2.954 2.954 0 0 1-.953.595c-.387.157-.852.236-1.393.236Zm.415-1.534c.529 0 .98-.104 1.355-.313.38-.209.667-.482.863-.818.201-.341.301-.706.301-1.093v-1.266c-.068.068-.201.132-.397.192a6.318 6.318 0 0 1-.658.147c-.247.038-.488.074-.722.108l-.588.077c-.371.047-.71.126-1.017.237-.302.11-.545.27-.728.479-.179.205-.269.477-.269.818 0 .473.175.831.524 1.074.35.239.795.358 1.336.358Zm7.832 4.999c-.285 0-.545-.024-.78-.071a2.435 2.435 0 0 1-.524-.14l.46-1.566c.35.093.661.134.934.121.272-.013.513-.115.722-.307.213-.192.401-.505.562-.939l.237-.652-3.592-9.946h2.045l2.487 7.619h.102l2.486-7.619h2.052l-4.046 11.128a4.435 4.435 0 0 1-.716 1.298c-.29.358-.635.626-1.035.805-.401.179-.865.269-1.394.269Zm8.987-3.682v-9.818h1.835v1.598h.121a2.536 2.536 0 0 1 1.004-1.266c.464-.307 1.02-.46 1.668-.46.656 0 1.206.153 1.649.46.448.307.778.729.991 1.266h.102a2.765 2.765 0 0 1 1.119-1.253c.511-.316 1.121-.473 1.828-.473.891 0 1.617.279 2.18.837.567.558.85 1.4.85 2.525v6.584h-1.911v-6.405c0-.665-.181-1.146-.544-1.445a1.975 1.975 0 0 0-1.297-.447c-.622 0-1.106.192-1.451.575-.345.379-.518.867-.518 1.464v6.258h-1.905v-6.527c0-.532-.166-.96-.498-1.284-.333-.324-.765-.486-1.298-.486-.362 0-.697.096-1.003.288a2.107 2.107 0 0 0-.736.786 2.407 2.407 0 0 0-.274 1.169v6.054h-1.912Zm20.14.198c-.967 0-1.8-.207-2.499-.62a4.206 4.206 0 0 1-1.611-1.758c-.375-.758-.562-1.647-.562-2.665 0-1.006.187-1.892.562-2.66.379-.767.908-1.365 1.585-1.796.682-.43 1.479-.645 2.391-.645.554 0 1.091.091 1.611.275.52.183.986.47 1.4.863.413.392.739.901.978 1.527.238.622.357 1.379.357 2.269v.678h-7.804v-1.432h5.932c0-.503-.103-.948-.307-1.336a2.323 2.323 0 0 0-.863-.927c-.367-.225-.797-.338-1.291-.338-.537 0-1.006.132-1.407.396-.396.26-.703.601-.92 1.023a2.95 2.95 0 0 0-.32 1.361v1.119c0 .656.115 1.214.346 1.674.234.461.56.812.978 1.055.417.239.905.358 1.463.358.363 0 .693-.051.991-.153a2.05 2.05 0 0 0 1.272-1.247l1.809.326c-.145.533-.405 1-.78 1.4a3.787 3.787 0 0 1-1.4.927c-.558.217-1.195.326-1.911.326Zm8.244-6.028v5.83h-1.911v-9.818h1.835v1.598h.121c.226-.52.58-.938 1.061-1.253.486-.316 1.097-.473 1.835-.473.669 0 1.255.14 1.757.422.503.277.893.69 1.17 1.24.277.549.416 1.229.416 2.039v6.245h-1.912v-6.015c0-.712-.185-1.268-.556-1.668-.37-.405-.88-.608-1.527-.608a2.39 2.39 0 0 0-1.183.288 2.074 2.074 0 0 0-.812.844c-.196.366-.294.809-.294 1.329Zm13.43-3.988v1.534h-5.363v-1.534h5.363Zm-3.925-2.353h1.911v9.288c0 .371.056.65.167.837.11.184.253.309.428.377.179.064.373.096.582.096.153 0 .287-.01.402-.032l.269-.051.345 1.579a3.237 3.237 0 0 1-.473.128c-.205.047-.46.072-.767.077a3.362 3.362 0 0 1-1.406-.269 2.405 2.405 0 0 1-1.055-.869c-.269-.392-.403-.884-.403-1.477v-9.684Zm13.238 4.75-1.732.306a2.077 2.077 0 0 0-.345-.632 1.704 1.704 0 0 0-.627-.493c-.264-.127-.594-.191-.99-.191-.542 0-.993.121-1.356.364-.362.239-.543.548-.543.927 0 .328.122.592.364.792.243.201.635.365 1.177.493l1.559.358c.904.208 1.577.53 2.02.965.443.434.665.999.665 1.694 0 .588-.171 1.112-.511 1.572-.337.456-.808.814-1.413 1.074-.601.26-1.298.39-2.09.39-1.1 0-1.997-.234-2.691-.703-.695-.473-1.121-1.144-1.279-2.014l1.848-.281c.115.482.351.846.709 1.093.358.243.825.364 1.4.364.626 0 1.127-.13 1.502-.389.375-.265.563-.586.563-.966 0-.306-.115-.564-.346-.773-.225-.209-.573-.367-1.042-.473l-1.661-.364c-.917-.209-1.594-.542-2.033-.998-.435-.456-.652-1.033-.652-1.732 0-.579.162-1.087.486-1.521.324-.435.771-.774 1.342-1.017.571-.247 1.225-.37 1.962-.37 1.061 0 1.897.23 2.506.69.609.456 1.012 1.068 1.208 1.835Z"/><rect width="243" height="58" x="84" y="401.281" fill="#F4F5F7" rx="29"/><path stroke="#1D252C" stroke-linecap="round" stroke-linejoin="round" stroke-width="1.5" d="M116.25 428.531a2 2 0 1 0 0-4 2 2 0 0 0 0 4ZM120.7 435.531c-.252-2.247-2.136-4-4.45-4s-4.198 1.753-4.45 4H120.7Z"/><path stroke="#1D252C" stroke-linecap="round" stroke-width="1.5" d="M120 420.281h3a3 3 0 0 1 3 3v3M112 440.281h-3a3 3 0 0 1-3-3v-3M126 434.281v3a3 3 0 0 1-3 3h-3M106 426.281v-3a3 3 0 0 1 3-3h3"/><path fill="#1D252C" d="M141.413 424.19v13.091h-1.975V424.19h1.975Zm6.399 13.283c-.793 0-1.5-.203-2.122-.608-.618-.409-1.104-.99-1.458-1.745-.349-.758-.524-1.668-.524-2.729 0-1.061.177-1.969.531-2.723.358-.754.848-1.332 1.47-1.732.622-.401 1.327-.601 2.116-.601.609 0 1.099.102 1.47.307.375.2.665.434.869.703.209.268.371.505.486.709h.115v-4.864h1.911v13.091h-1.866v-1.528h-.16a4.968 4.968 0 0 1-.499.716 2.771 2.771 0 0 1-.882.703c-.375.2-.861.301-1.457.301Zm.422-1.63c.549 0 1.014-.145 1.393-.435.384-.294.673-.701.869-1.221.201-.52.301-1.125.301-1.815 0-.682-.098-1.279-.294-1.79-.196-.511-.484-.91-.863-1.195-.379-.286-.848-.429-1.406-.429-.576 0-1.055.149-1.439.448-.383.298-.673.705-.869 1.221-.192.515-.288 1.097-.288 1.745 0 .656.099 1.246.295 1.77.196.524.485.94.869 1.247.388.302.865.454 1.432.454Zm11.401 1.636c-.967 0-1.8-.207-2.499-.62a4.22 4.22 0 0 1-1.611-1.758c-.375-.758-.562-1.647-.562-2.665 0-1.006.187-1.892.562-2.66.38-.767.908-1.365 1.586-1.796.681-.43 1.478-.645 2.39-.645.554 0 1.091.091 1.611.275.52.183.987.47 1.4.863.413.392.739.901.978 1.527.239.622.358 1.379.358 2.269v.678h-7.805v-1.432h5.932c0-.503-.102-.948-.307-1.336a2.316 2.316 0 0 0-.863-.927c-.366-.225-.797-.338-1.291-.338-.537 0-1.006.132-1.406.396-.397.26-.703.601-.921 1.023a2.949 2.949 0 0 0-.319 1.361v1.119c0 .656.115 1.214.345 1.674.234.461.56.812.978 1.055.417.239.905.358 1.464.358.362 0 .692-.051.99-.153a2.15 2.15 0 0 0 .774-.473 2.06 2.06 0 0 0 .498-.774l1.809.326a3.27 3.27 0 0 1-.779 1.4 3.795 3.795 0 0 1-1.4.927c-.559.217-1.196.326-1.912.326Zm8.245-6.028v5.83h-1.912v-9.818h1.835v1.598h.121c.226-.52.58-.938 1.061-1.253.486-.316 1.098-.473 1.835-.473.669 0 1.255.14 1.758.422.503.277.893.69 1.17 1.24.277.549.415 1.229.415 2.039v6.245h-1.911v-6.015c0-.712-.186-1.268-.556-1.668-.371-.405-.88-.608-1.528-.608-.443 0-.837.096-1.183.288-.34.192-.611.473-.811.844-.196.366-.294.809-.294 1.329Zm13.429-3.988v1.534h-5.363v-1.534h5.363Zm-3.924-2.353h1.911v9.288c0 .371.055.65.166.837a.866.866 0 0 0 .428.377c.179.064.373.096.582.096.153 0 .288-.01.403-.032l.268-.051.345 1.579a3.202 3.202 0 0 1-.473.128c-.204.047-.46.072-.767.077a3.365 3.365 0 0 1-1.406-.269 2.41 2.41 0 0 1-1.055-.869c-.268-.392-.402-.884-.402-1.477v-9.684Zm6.038 12.171v-9.818h1.912v9.818h-1.912Zm.966-11.333c-.333 0-.618-.111-.857-.333a1.081 1.081 0 0 1-.351-.805c0-.315.117-.584.351-.806.239-.225.524-.338.857-.338.332 0 .615.113.85.338.238.222.358.491.358.806 0 .311-.12.579-.358.805a1.193 1.193 0 0 1-.85.333Zm8.1 1.515v1.534h-5.363v-1.534h5.363Zm-3.925-2.353h1.911v9.288c0 .371.056.65.167.837.11.184.253.309.428.377.179.064.373.096.582.096.153 0 .287-.01.402-.032l.269-.051.345 1.579a3.202 3.202 0 0 1-.473.128c-.205.047-.46.072-.767.077a3.362 3.362 0 0 1-1.406-.269 2.405 2.405 0 0 1-1.055-.869c-.268-.392-.403-.884-.403-1.477v-9.684Zm7.247 15.853c-.285 0-.545-.024-.78-.071a2.435 2.435 0 0 1-.524-.14l.461-1.566c.349.093.66.134.933.121.272-.013.513-.115.722-.307.213-.192.401-.505.563-.939l.236-.652-3.592-9.946h2.045l2.487 7.619h.102l2.486-7.619h2.052l-4.046 11.128a4.435 4.435 0 0 1-.716 1.298c-.29.358-.635.626-1.035.805-.401.179-.865.269-1.394.269Zm15.049-16.773 3.643 10.662h.147l3.644-10.662h2.135l-4.711 13.091h-2.282l-4.711-13.091h2.135Zm14.553 13.289c-.968 0-1.801-.207-2.499-.62a4.206 4.206 0 0 1-1.611-1.758c-.375-.758-.563-1.647-.563-2.665 0-1.006.188-1.892.563-2.66.379-.767.907-1.365 1.585-1.796.682-.43 1.479-.645 2.391-.645.554 0 1.09.091 1.61.275.52.183.987.47 1.4.863.414.392.74.901.978 1.527.239.622.358 1.379.358 2.269v.678h-7.805v-1.432h5.932c0-.503-.102-.948-.307-1.336a2.32 2.32 0 0 0-.862-.927c-.367-.225-.797-.338-1.292-.338-.537 0-1.005.132-1.406.396-.396.26-.703.601-.92 1.023a2.95 2.95 0 0 0-.32 1.361v1.119c0 .656.115 1.214.345 1.674.235.461.561.812.978 1.055.418.239.906.358 1.464.358.362 0 .692-.051.991-.153a2.05 2.05 0 0 0 1.272-1.247l1.809.326c-.145.533-.405 1-.78 1.4a3.787 3.787 0 0 1-1.4.927c-.558.217-1.195.326-1.911.326Zm6.333-.198v-9.818h1.847v1.559h.102c.179-.528.495-.944.946-1.246.456-.307.972-.46 1.547-.46.12 0 .26.004.422.012.166.009.296.02.39.032v1.828a3.62 3.62 0 0 0-.409-.07 3.881 3.881 0 0 0-.588-.045c-.452 0-.855.096-1.208.288a2.137 2.137 0 0 0-1.138 1.924v5.996h-1.911Zm6.908 0v-9.818h1.911v9.818h-1.911Zm.965-11.333c-.332 0-.618-.111-.856-.333a1.078 1.078 0 0 1-.352-.805c0-.315.117-.584.352-.806.238-.225.524-.338.856-.338.333 0 .616.113.85.338.239.222.358.491.358.806 0 .311-.119.579-.358.805a1.19 1.19 0 0 1-.85.333Zm8.19 1.515v1.534h-5.548v-1.534h5.548Zm-4.027 9.818v-10.956c0-.614.134-1.123.403-1.528a2.465 2.465 0 0 1 1.067-.914 3.4 3.4 0 0 1 1.445-.307c.383 0 .711.032.984.096.273.06.475.115.607.166l-.447 1.547c-.09-.025-.205-.055-.345-.089a1.94 1.94 0 0 0-.512-.058c-.464 0-.796.115-.997.345-.196.23-.294.563-.294.997v10.701h-1.911Zm5.999 0v-9.818h1.911v9.818h-1.911Zm.965-11.333c-.332 0-.618-.111-.856-.333a1.078 1.078 0 0 1-.352-.805c0-.315.117-.584.352-.806.238-.225.524-.338.856-.338.332 0 .616.113.85.338.239.222.358.491.358.806 0 .311-.119.579-.358.805a1.191 1.191 0 0 1-.85.333Zm7.653 11.531c-.95 0-1.768-.215-2.455-.646a4.27 4.27 0 0 1-1.572-1.796c-.366-.763-.55-1.636-.55-2.621 0-.997.188-1.877.563-2.64.375-.767.903-1.365 1.585-1.796.682-.43 1.485-.645 2.41-.645.746 0 1.41.138 1.994.415a3.575 3.575 0 0 1 1.413 1.151c.362.494.577 1.072.645 1.732h-1.86a2.227 2.227 0 0 0-.703-1.189c-.362-.332-.848-.498-1.457-.498-.533 0-1 .14-1.4.421-.396.277-.705.674-.927 1.189-.222.512-.332 1.117-.332 1.816 0 .716.108 1.333.326 1.853.217.52.524.923.92 1.208.401.286.872.429 1.413.429.362 0 .69-.066.984-.198.298-.137.548-.331.748-.582.205-.252.347-.554.428-.908h1.86a3.618 3.618 0 0 1-.62 1.701c-.345.498-.807.89-1.387 1.176-.575.285-1.25.428-2.026.428Zm8.934.019a4.01 4.01 0 0 1-1.687-.345 2.839 2.839 0 0 1-1.195-1.016c-.29-.444-.435-.987-.435-1.63 0-.554.107-1.01.32-1.368.213-.358.5-.642.863-.85a4.483 4.483 0 0 1 1.214-.473 11.85 11.85 0 0 1 1.368-.243l1.432-.167c.366-.046.633-.121.799-.223.166-.103.249-.269.249-.499v-.045c0-.558-.158-.99-.473-1.297-.311-.307-.776-.46-1.393-.46-.644 0-1.151.142-1.522.428-.366.281-.62.594-.76.94l-1.797-.41c.213-.596.525-1.078.934-1.444a3.789 3.789 0 0 1 1.425-.806 5.581 5.581 0 0 1 1.694-.255c.392 0 .807.047 1.246.14.444.09.857.256 1.24.499.388.243.706.59.953 1.042.247.447.371 1.029.371 1.745v6.52h-1.867v-1.343h-.077c-.123.248-.309.49-.556.729a2.949 2.949 0 0 1-.952.595c-.388.157-.852.236-1.394.236Zm.416-1.534c.528 0 .98-.104 1.355-.313a2.2 2.2 0 0 0 .863-.818c.2-.341.3-.706.3-1.093v-1.266c-.068.068-.2.132-.396.192a6.376 6.376 0 0 1-.658.147c-.247.038-.488.074-.723.108l-.588.077c-.37.047-.709.126-1.016.237-.303.11-.545.27-.729.479-.179.205-.268.477-.268.818 0 .473.175.831.524 1.074.349.239.795.358 1.336.358Zm11.558-8.501v1.534h-5.363v-1.534h5.363Zm-3.924-2.353h1.911v9.288c0 .371.055.65.166.837a.866.866 0 0 0 .428.377c.179.064.373.096.582.096.153 0 .288-.01.403-.032l.268-.051.345 1.579c-.11.043-.268.085-.473.128-.204.047-.46.072-.767.077a3.365 3.365 0 0 1-1.406-.269 2.41 2.41 0 0 1-1.055-.869c-.268-.392-.402-.884-.402-1.477v-9.684Zm6.039 12.171v-9.818h1.911v9.818h-1.911Zm.965-11.333c-.333 0-.618-.111-.857-.333a1.081 1.081 0 0 1-.351-.805c0-.315.117-.584.351-.806.239-.225.524-.338.857-.338.332 0 .615.113.85.338.238.222.358.491.358.806 0 .311-.12.579-.358.805a1.193 1.193 0 0 1-.85.333Zm7.653 11.531c-.921 0-1.724-.211-2.41-.633a4.268 4.268 0 0 1-1.598-1.77c-.379-.759-.569-1.645-.569-2.66 0-1.018.19-1.909.569-2.671.379-.763.912-1.356 1.598-1.777.686-.422 1.489-.633 2.41-.633.92 0 1.723.211 2.409.633.686.421 1.219 1.014 1.598 1.777.38.762.569 1.653.569 2.671 0 1.015-.189 1.901-.569 2.66a4.268 4.268 0 0 1-1.598 1.77c-.686.422-1.489.633-2.409.633Zm.006-1.604c.597 0 1.091-.158 1.483-.473.392-.316.682-.736.869-1.26a5 5 0 0 0 .288-1.732c0-.626-.096-1.202-.288-1.726-.187-.528-.477-.952-.869-1.272-.392-.319-.886-.479-1.483-.479-.601 0-1.099.16-1.496.479-.392.32-.684.744-.875 1.272a5.08 5.08 0 0 0-.282 1.726c0 .631.094 1.208.282 1.732.191.524.483.944.875 1.26.397.315.895.473 1.496.473Zm8.615-4.424v5.83h-1.911v-9.818h1.834v1.598h.122c.225-.52.579-.938 1.061-1.253.485-.316 1.097-.473 1.834-.473.669 0 1.255.14 1.758.422.503.277.893.69 1.17 1.24.277.549.415 1.229.415 2.039v6.245h-1.911v-6.015c0-.712-.185-1.268-.556-1.668-.371-.405-.88-.608-1.528-.608a2.39 2.39 0 0 0-1.182.288 2.067 2.067 0 0 0-.812.844c-.196.366-.294.809-.294 1.329Z"/><rect width="222" height="58" x="752" y="149.281" fill="#F4F5F7" rx="29"/><path stroke="#1D252C" stroke-linecap="round" stroke-linejoin="round" stroke-width="1.5" d="M788 174.281a4 4 0 0 1-8 0m-4.367-.599-.7 8.4c-.151 1.805-.226 2.707.079 3.403a3.005 3.005 0 0 0 1.32 1.434c.668.362 1.573.362 3.384.362h8.567c1.811 0 2.716 0 3.384-.362a3 3 0 0 0 1.32-1.434c.305-.696.23-1.598.079-3.403l-.7-8.4c-.129-1.552-.194-2.329-.538-2.916a2.986 2.986 0 0 0-1.294-1.191c-.614-.294-1.393-.294-2.951-.294h-7.167c-1.558 0-2.337 0-2.951.294a2.986 2.986 0 0 0-1.294 1.191c-.344.587-.409 1.364-.538 2.916Z"/><path fill="#1D252C" d="M818.81 178.735c0 1.398-.256 2.6-.767 3.605-.512 1.002-1.213 1.773-2.103 2.314-.887.537-1.895.806-3.024.806-1.133 0-2.145-.269-3.036-.806-.886-.541-1.585-1.314-2.097-2.32-.511-1.006-.767-2.205-.767-3.599 0-1.397.256-2.597.767-3.598.512-1.006 1.211-1.777 2.097-2.314.891-.542 1.903-.812 3.036-.812 1.129 0 2.137.27 3.024.812.89.537 1.591 1.308 2.103 2.314.511 1.001.767 2.201.767 3.598Zm-1.956 0c0-1.065-.173-1.962-.518-2.691-.341-.733-.81-1.287-1.406-1.662a3.659 3.659 0 0 0-2.014-.569c-.754 0-1.427.19-2.02.569-.592.375-1.061.929-1.406 1.662-.341.729-.511 1.626-.511 2.691 0 1.066.17 1.965.511 2.698.345.728.814 1.282 1.406 1.662.593.375 1.266.562 2.02.562.75 0 1.421-.187 2.014-.562.596-.38 1.065-.934 1.406-1.662.345-.733.518-1.632.518-2.698Zm6.176.716v5.83h-1.911v-9.818h1.834v1.598h.122c.226-.52.579-.938 1.061-1.253.486-.316 1.097-.473 1.834-.473.669 0 1.255.14 1.758.422.503.277.893.69 1.17 1.24.277.549.415 1.229.415 2.039v6.245h-1.911v-6.015c0-.712-.185-1.268-.556-1.668-.371-.405-.88-.608-1.528-.608a2.39 2.39 0 0 0-1.182.288 2.067 2.067 0 0 0-.812.844c-.196.366-.294.809-.294 1.329Zm10.758-7.261v13.091h-1.911V172.19h1.911Zm2.571 13.091v-9.818h1.911v9.818h-1.911Zm.965-11.333c-.332 0-.618-.111-.856-.333a1.078 1.078 0 0 1-.352-.805c0-.315.117-.584.352-.806.238-.225.524-.338.856-.338.333 0 .616.113.85.338.239.222.358.491.358.806 0 .311-.119.579-.358.805a1.19 1.19 0 0 1-.85.333Zm5.429 5.503v5.83h-1.912v-9.818h1.835v1.598h.121c.226-.52.58-.938 1.061-1.253.486-.316 1.098-.473 1.835-.473.669 0 1.255.14 1.758.422.503.277.893.69 1.17 1.24.277.549.415 1.229.415 2.039v6.245h-1.911v-6.015c0-.712-.186-1.268-.556-1.668-.371-.405-.88-.608-1.528-.608-.443 0-.837.096-1.183.288-.34.192-.611.473-.811.844-.196.366-.294.809-.294 1.329Zm13.078 6.028c-.968 0-1.801-.207-2.5-.62a4.21 4.21 0 0 1-1.61-1.758c-.375-.758-.563-1.647-.563-2.665 0-1.006.188-1.892.563-2.66.379-.767.907-1.365 1.585-1.796.682-.43 1.479-.645 2.391-.645.554 0 1.09.091 1.61.275.52.183.987.47 1.4.863.414.392.74.901.978 1.527.239.622.358 1.379.358 2.269v.678h-7.805v-1.432h5.932c0-.503-.102-.948-.307-1.336a2.32 2.32 0 0 0-.862-.927c-.367-.225-.797-.338-1.292-.338-.537 0-1.005.132-1.406.396-.396.26-.703.601-.92 1.023a2.95 2.95 0 0 0-.32 1.361v1.119c0 .656.115 1.214.345 1.674.235.461.561.812.978 1.055.418.239.906.358 1.464.358.362 0 .692-.051.991-.153.298-.107.556-.265.773-.473.217-.209.384-.467.499-.774l1.809.326c-.145.533-.405 1-.78 1.4a3.787 3.787 0 0 1-1.4.927c-.558.217-1.195.326-1.911.326Zm18.39-9.85c-.068-.605-.35-1.074-.844-1.406-.494-.337-1.117-.505-1.867-.505-.536 0-1.001.085-1.393.255-.392.166-.697.397-.914.691-.213.289-.32.62-.32.99 0 .311.073.58.218.806.149.226.343.415.581.569.243.149.503.274.78.377.277.098.544.179.799.243l1.279.332c.417.102.845.241 1.284.416.439.174.846.404 1.221.69a3.3 3.3 0 0 1 .908 1.061c.234.422.352.927.352 1.515 0 .741-.192 1.4-.576 1.975-.379.575-.931 1.029-1.655 1.362-.72.332-1.592.498-2.615.498-.98 0-1.828-.155-2.544-.467-.716-.311-1.276-.752-1.681-1.323-.405-.575-.628-1.257-.671-2.045h1.982c.038.473.191.867.46 1.182.273.311.62.544 1.042.697.426.149.892.224 1.4.224.558 0 1.054-.088 1.489-.262.439-.179.784-.426 1.035-.742.252-.319.378-.692.378-1.118 0-.388-.111-.706-.333-.953-.217-.247-.513-.451-.888-.613a8.736 8.736 0 0 0-1.26-.429l-1.546-.422c-1.049-.285-1.88-.705-2.493-1.259-.61-.554-.914-1.287-.914-2.199 0-.754.204-1.412.613-1.975.409-.562.963-.999 1.662-1.31.699-.315 1.487-.473 2.365-.473.887 0 1.669.155 2.346.466.682.312 1.219.74 1.611 1.285.392.541.596 1.164.614 1.867h-1.905Zm8.873-.166v1.534h-5.362v-1.534h5.362Zm-3.924-2.353h1.911v9.288c0 .371.055.65.166.837a.866.866 0 0 0 .428.377c.179.064.373.096.582.096.154 0 .288-.01.403-.032l.268-.051.345 1.579c-.11.043-.268.085-.473.128-.204.047-.46.072-.767.077a3.368 3.368 0 0 1-1.406-.269 2.41 2.41 0 0 1-1.055-.869c-.268-.392-.402-.884-.402-1.477v-9.684Zm10.069 12.369c-.921 0-1.724-.211-2.41-.633a4.268 4.268 0 0 1-1.598-1.77c-.379-.759-.569-1.645-.569-2.66 0-1.018.19-1.909.569-2.671.379-.763.912-1.356 1.598-1.777.686-.422 1.489-.633 2.41-.633.92 0 1.724.211 2.41.633.686.421 1.218 1.014 1.598 1.777.379.762.569 1.653.569 2.671 0 1.015-.19 1.901-.569 2.66a4.275 4.275 0 0 1-1.598 1.77c-.686.422-1.49.633-2.41.633Zm.006-1.604c.597 0 1.091-.158 1.483-.473.392-.316.682-.736.869-1.26a5 5 0 0 0 .288-1.732c0-.626-.096-1.202-.288-1.726-.187-.528-.477-.952-.869-1.272-.392-.319-.886-.479-1.483-.479-.601 0-1.099.16-1.496.479-.392.32-.683.744-.875 1.272a5.08 5.08 0 0 0-.281 1.726c0 .631.093 1.208.281 1.732.192.524.483.944.875 1.26.397.315.895.473 1.496.473Zm6.704 1.406v-9.818h1.847v1.559h.102c.179-.528.495-.944.946-1.246.456-.307.972-.46 1.547-.46.12 0 .26.004.422.012.166.009.296.02.39.032v1.828a3.62 3.62 0 0 0-.409-.07 3.881 3.881 0 0 0-.588-.045 2.49 2.49 0 0 0-1.208.288 2.137 2.137 0 0 0-1.138 1.924v5.996h-1.911Zm10.788.198c-.967 0-1.8-.207-2.499-.62a4.206 4.206 0 0 1-1.611-1.758c-.375-.758-.563-1.647-.563-2.665 0-1.006.188-1.892.563-2.66.379-.767.908-1.365 1.585-1.796.682-.43 1.479-.645 2.391-.645.554 0 1.091.091 1.611.275.519.183.986.47 1.399.863.414.392.74.901.978 1.527.239.622.358 1.379.358 2.269v.678h-7.804v-1.432h5.932c0-.503-.103-.948-.307-1.336a2.323 2.323 0 0 0-.863-.927c-.367-.225-.797-.338-1.291-.338-.537 0-1.006.132-1.407.396-.396.26-.703.601-.92 1.023a2.95 2.95 0 0 0-.32 1.361v1.119c0 .656.115 1.214.345 1.674.235.461.561.812.978 1.055.418.239.906.358 1.464.358.362 0 .693-.051.991-.153a2.05 2.05 0 0 0 1.272-1.247l1.809.326c-.145.533-.405 1-.78 1.4a3.787 3.787 0 0 1-1.4.927c-.558.217-1.195.326-1.911.326Zm11.006-10.016v1.534h-5.549v-1.534h5.549Zm-4.027 9.818v-10.956c0-.614.134-1.123.402-1.528a2.473 2.473 0 0 1 1.068-.914 3.395 3.395 0 0 1 1.444-.307c.384 0 .712.032.985.096.272.06.475.115.607.166l-.447 1.547c-.09-.025-.205-.055-.346-.089a1.933 1.933 0 0 0-.511-.058c-.465 0-.797.115-.997.345-.196.23-.294.563-.294.997v10.701h-1.911Zm5.998 0v-9.818h1.848v1.559h.102a2.37 2.37 0 0 1 .946-1.246c.456-.307.972-.46 1.547-.46.119 0 .26.004.422.012.166.009.296.02.39.032v1.828a3.62 3.62 0 0 0-.409-.07 3.881 3.881 0 0 0-.588-.045c-.452 0-.855.096-1.209.288a2.141 2.141 0 0 0-1.137 1.924v5.996h-1.912Zm10.693.198c-.921 0-1.724-.211-2.41-.633a4.268 4.268 0 0 1-1.598-1.77c-.379-.759-.569-1.645-.569-2.66 0-1.018.19-1.909.569-2.671.379-.763.912-1.356 1.598-1.777.686-.422 1.489-.633 2.41-.633.92 0 1.724.211 2.41.633.686.421 1.218 1.014 1.598 1.777.379.762.568 1.653.568 2.671 0 1.015-.189 1.901-.568 2.66a4.275 4.275 0 0 1-1.598 1.77c-.686.422-1.49.633-2.41.633Zm.006-1.604c.597 0 1.091-.158 1.483-.473.392-.316.682-.736.869-1.26a5 5 0 0 0 .288-1.732c0-.626-.096-1.202-.288-1.726-.187-.528-.477-.952-.869-1.272-.392-.319-.886-.479-1.483-.479-.601 0-1.099.16-1.496.479-.392.32-.684.744-.875 1.272a5.08 5.08 0 0 0-.282 1.726c0 .631.094 1.208.282 1.732.191.524.483.944.875 1.26.397.315.895.473 1.496.473Zm8.615-4.424v5.83h-1.911v-9.818h1.834v1.598h.122c.226-.52.579-.938 1.061-1.253.486-.316 1.097-.473 1.834-.473.669 0 1.255.14 1.758.422.503.277.893.69 1.17 1.24.277.549.415 1.229.415 2.039v6.245H943.4v-6.015c0-.712-.185-1.268-.556-1.668-.371-.405-.88-.608-1.528-.608a2.39 2.39 0 0 0-1.182.288 2.067 2.067 0 0 0-.812.844c-.196.366-.294.809-.294 1.329Zm13.43-3.988v1.534h-5.363v-1.534h5.363Zm-3.925-2.353h1.911v9.288c0 .371.056.65.166.837a.863.863 0 0 0 .429.377c.179.064.373.096.581.096.154 0 .288-.01.403-.032l.269-.051.345 1.579a3.237 3.237 0 0 1-.473.128 3.794 3.794 0 0 1-.767.077 3.37 3.37 0 0 1-1.407-.269 2.408 2.408 0 0 1-1.054-.869c-.269-.392-.403-.884-.403-1.477v-9.684Z"/><rect width="215" height="58" x="37" y="276" fill="#F4F5F7" rx="29"/><path stroke="#1D252C" stroke-linecap="round" stroke-linejoin="round" stroke-width="1.5" d="m63 299 4.5 4.5M63 299h-3l-1-3 1-1 3 1v3Zm13.259-3.259-2.628 2.627c-.396.396-.594.594-.668.822a1.002 1.002 0 0 0 0 .619c.074.228.272.426.668.822l.238.237c.396.396.594.594.822.668a.99.99 0 0 0 .618 0c.228-.074.426-.272.822-.668l2.458-2.458a5.5 5.5 0 0 1-6.16 7.485c-.485-.095-.728-.143-.876-.129a.833.833 0 0 0-.373.114c-.13.07-.261.201-.523.462l-7.157 7.157a2.12 2.12 0 1 1-3-3l7.157-7.157c.262-.261.393-.392.463-.523a.837.837 0 0 0 .113-.373c.015-.147-.033-.39-.129-.876a5.5 5.5 0 0 1 8.155-5.829ZM69 307.999l5.5 5.5a2.12 2.12 0 1 0 3-3l-4.525-4.524a5.534 5.534 0 0 1-.934-.171c-.39-.107-.816-.029-1.101.256L69 307.999Z"/><path fill="#1D252C" d="M99.578 302.348c-.068-.606-.35-1.074-.844-1.407-.494-.336-1.116-.505-1.866-.505-.537 0-1.001.086-1.394.256-.392.166-.696.396-.914.69-.213.29-.32.62-.32.991 0 .311.073.58.218.805.15.226.343.416.582.569.243.15.503.275.78.378.277.098.543.178.799.242l1.278.333c.418.102.846.241 1.285.415.439.175.846.405 1.221.691.375.285.677.639.907 1.061.235.422.352.927.352 1.515 0 .741-.192 1.399-.575 1.975-.38.575-.931 1.029-1.656 1.361-.72.333-1.591.499-2.614.499-.98 0-1.828-.156-2.544-.467-.716-.311-1.277-.752-1.681-1.323-.405-.575-.629-1.257-.671-2.045h1.981c.038.473.192.867.46 1.182.273.311.62.543 1.042.697.426.149.893.224 1.4.224.558 0 1.055-.088 1.49-.262.438-.179.783-.427 1.035-.742.251-.32.377-.692.377-1.119 0-.387-.11-.705-.332-.952-.218-.247-.514-.452-.889-.614a8.731 8.731 0 0 0-1.26-.428l-1.546-.422c-1.048-.285-1.88-.705-2.493-1.259-.61-.554-.914-1.287-.914-2.199 0-.754.205-1.412.614-1.975.409-.562.963-.999 1.662-1.31.698-.316 1.487-.473 2.365-.473.886 0 1.668.155 2.346.466.681.311 1.218.74 1.61 1.285.392.541.597 1.163.614 1.867h-1.905Zm8.522 9.85c-.967 0-1.8-.207-2.499-.62a4.206 4.206 0 0 1-1.611-1.758c-.375-.759-.562-1.647-.562-2.666 0-1.005.187-1.892.562-2.659.379-.767.908-1.366 1.585-1.796.682-.43 1.479-.646 2.391-.646.554 0 1.091.092 1.611.275.52.184.986.471 1.4.863.413.392.739.902.978 1.528.238.622.358 1.379.358 2.269v.678h-7.805v-1.432h5.932c0-.503-.102-.948-.307-1.336a2.323 2.323 0 0 0-.863-.927c-.366-.226-.797-.339-1.291-.339-.537 0-1.006.132-1.406.397-.397.26-.704.6-.921 1.022a2.956 2.956 0 0 0-.319 1.362v1.118c0 .657.115 1.215.345 1.675.234.46.56.812.978 1.055.417.239.905.358 1.463.358.363 0 .693-.051.991-.154a2.047 2.047 0 0 0 1.272-1.246l1.809.326a3.278 3.278 0 0 1-.78 1.4c-.37.396-.837.705-1.399.927-.559.217-1.196.326-1.912.326Zm6.333-.198v-9.819h1.848v1.56h.102a2.37 2.37 0 0 1 .946-1.246 2.705 2.705 0 0 1 1.547-.461 8.854 8.854 0 0 1 .812.045v1.828a3.426 3.426 0 0 0-.41-.07 3.881 3.881 0 0 0-.588-.045c-.451 0-.854.096-1.208.288a2.136 2.136 0 0 0-1.138 1.924V312h-1.911Zm15.606-9.819-3.56 9.819h-2.045l-3.567-9.819h2.052l2.486 7.556h.102l2.481-7.556h2.051Zm1.797 9.819v-9.819h1.911V312h-1.911Zm.965-11.334c-.333 0-.618-.11-.857-.332a1.081 1.081 0 0 1-.351-.805c0-.316.117-.584.351-.806.239-.226.524-.339.857-.339.332 0 .616.113.85.339.239.222.358.49.358.806 0 .311-.119.579-.358.805a1.19 1.19 0 0 1-.85.332Zm7.653 11.532c-.951 0-1.769-.216-2.455-.646a4.269 4.269 0 0 1-1.572-1.796c-.367-.763-.55-1.636-.55-2.621 0-.997.187-1.877.562-2.64.375-.767.904-1.366 1.586-1.796.681-.43 1.485-.646 2.409-.646.746 0 1.411.139 1.995.416a3.572 3.572 0 0 1 1.412 1.151c.363.494.578 1.071.646 1.732h-1.86a2.23 2.23 0 0 0-.703-1.189c-.362-.333-.848-.499-1.458-.499-.532 0-.999.141-1.399.422-.397.277-.706.673-.927 1.189-.222.511-.333 1.117-.333 1.815 0 .716.109 1.334.326 1.854.218.52.524.923.921 1.208.4.286.871.428 1.412.428.363 0 .691-.066.985-.198.298-.136.547-.33.748-.581.204-.252.347-.554.428-.908h1.86a3.61 3.61 0 0 1-.62 1.7 3.562 3.562 0 0 1-1.387 1.176c-.575.286-1.251.429-2.026.429Zm10.308 0c-.967 0-1.8-.207-2.499-.62a4.22 4.22 0 0 1-1.611-1.758c-.375-.759-.562-1.647-.562-2.666 0-1.005.187-1.892.562-2.659.38-.767.908-1.366 1.586-1.796.681-.43 1.478-.646 2.39-.646.554 0 1.091.092 1.611.275.52.184.986.471 1.4.863.413.392.739.902.978 1.528.238.622.358 1.379.358 2.269v.678h-7.805v-1.432h5.932c0-.503-.102-.948-.307-1.336a2.316 2.316 0 0 0-.863-.927c-.366-.226-.797-.339-1.291-.339-.537 0-1.006.132-1.406.397-.397.26-.703.6-.921 1.022a2.956 2.956 0 0 0-.319 1.362v1.118c0 .657.115 1.215.345 1.675.234.46.56.812.978 1.055.417.239.905.358 1.464.358.362 0 .692-.051.99-.154a2.047 2.047 0 0 0 1.272-1.246l1.809.326a3.276 3.276 0 0 1-.779 1.4 3.795 3.795 0 0 1-1.4.927c-.559.217-1.196.326-1.912.326Zm14.907-.013c-.878 0-1.635-.16-2.269-.48-.631-.319-1.117-.754-1.458-1.303-.341-.554-.511-1.181-.511-1.88 0-.532.111-1.005.332-1.419.222-.417.531-.803.927-1.157.396-.353.854-.709 1.374-1.067l2.11-1.49c.358-.234.637-.481.837-.741.2-.264.3-.59.3-.978 0-.307-.132-.601-.396-.882s-.618-.422-1.061-.422c-.307 0-.577.075-.812.224-.23.149-.411.341-.543.575-.128.23-.192.473-.192.729 0 .298.081.598.243.901.166.303.379.616.639.94.26.319.533.652.818.997l6.079 7.268h-2.16l-5.031-5.913c-.422-.499-.814-.967-1.176-1.406a7.303 7.303 0 0 1-.882-1.343 3.326 3.326 0 0 1-.332-1.476c0-.601.136-1.134.409-1.598a2.9 2.9 0 0 1 1.157-1.1c.494-.264 1.074-.396 1.738-.396.674 0 1.251.132 1.733.396.485.26.858.608 1.118 1.042.264.431.396.901.396 1.413 0 .622-.155 1.172-.466 1.649-.307.473-.731.908-1.272 1.304l-2.627 1.937c-.512.375-.867.745-1.068 1.112-.196.362-.294.646-.294.85 0 .375.096.722.288 1.042.196.32.469.575.818.767.354.192.767.288 1.24.288.486 0 .959-.105 1.419-.314a4.035 4.035 0 0 0 1.259-.914c.38-.396.68-.871.902-1.425.221-.554.332-1.174.332-1.86h1.726c0 .844-.096 1.557-.288 2.141-.192.58-.424 1.053-.697 1.419a5.197 5.197 0 0 1-.76.85 6.28 6.28 0 0 0-.218.205c-.068.068-.14.136-.217.205-.443.447-.98.777-1.611.99a5.73 5.73 0 0 1-1.853.32Zm12.832-.185v-13.091h4.666c1.014 0 1.856.174 2.525.524.673.349 1.176.833 1.508 1.451.333.613.499 1.323.499 2.128 0 .801-.168 1.507-.505 2.116-.332.605-.835 1.076-1.509 1.413-.669.336-1.51.505-2.524.505h-3.535v-1.701h3.356c.639 0 1.159-.091 1.559-.274.405-.184.701-.45.889-.799.187-.35.281-.77.281-1.26 0-.494-.096-.922-.288-1.285a1.849 1.849 0 0 0-.888-.83c-.401-.196-.927-.295-1.579-.295h-2.48V312h-1.975Zm6.462-5.907 3.234 5.907h-2.25l-3.17-5.907h2.186Zm9.094 6.105c-.967 0-1.8-.207-2.499-.62a4.213 4.213 0 0 1-1.611-1.758c-.375-.759-.562-1.647-.562-2.666 0-1.005.187-1.892.562-2.659.38-.767.908-1.366 1.585-1.796.682-.43 1.479-.646 2.391-.646.554 0 1.091.092 1.611.275.52.184.986.471 1.4.863.413.392.739.902.978 1.528.238.622.358 1.379.358 2.269v.678h-7.805v-1.432h5.932c0-.503-.102-.948-.307-1.336a2.323 2.323 0 0 0-.863-.927c-.366-.226-.797-.339-1.291-.339-.537 0-1.006.132-1.406.397-.397.26-.703.6-.921 1.022a2.956 2.956 0 0 0-.319 1.362v1.118c0 .657.115 1.215.345 1.675.234.46.56.812.978 1.055.417.239.905.358 1.464.358.362 0 .692-.051.99-.154a2.047 2.047 0 0 0 1.272-1.246l1.809.326a3.278 3.278 0 0 1-.78 1.4c-.37.396-.837.705-1.399.927-.559.217-1.196.326-1.912.326Zm6.333 3.483v-13.5h1.867v1.592h.16c.11-.205.27-.441.479-.71.209-.268.499-.502.869-.703.371-.204.861-.307 1.47-.307.793 0 1.5.201 2.123.601.622.401 1.11.978 1.463 1.733.358.754.537 1.662.537 2.723s-.177 1.97-.53 2.729c-.354.754-.84 1.336-1.458 1.745-.618.405-1.323.607-2.115.607-.597 0-1.085-.1-1.464-.3a2.771 2.771 0 0 1-.882-.703 5.342 5.342 0 0 1-.492-.716h-.116v5.209h-1.911Zm1.873-8.591c0 .691.1 1.296.301 1.816.2.52.49.927.869 1.221.379.289.844.434 1.393.434.571 0 1.049-.151 1.432-.454.384-.306.673-.722.869-1.246.201-.524.301-1.114.301-1.771 0-.647-.098-1.229-.294-1.745-.192-.515-.482-.922-.869-1.22-.384-.299-.863-.448-1.439-.448-.554 0-1.022.143-1.406.428-.379.286-.667.684-.863 1.196-.196.511-.294 1.108-.294 1.789Zm12.094 5.127a4.014 4.014 0 0 1-1.688-.345 2.847 2.847 0 0 1-1.195-1.017c-.29-.443-.435-.986-.435-1.63 0-.554.107-1.01.32-1.368.213-.357.501-.641.863-.85a4.549 4.549 0 0 1 1.214-.473c.448-.106.904-.187 1.368-.243l1.432-.166c.367-.047.633-.121.799-.223.166-.103.249-.269.249-.499v-.045c0-.558-.157-.991-.473-1.297-.311-.307-.775-.461-1.393-.461-.643 0-1.151.143-1.521.429-.367.281-.62.594-.761.939l-1.796-.409c.213-.596.524-1.078.933-1.444a3.78 3.78 0 0 1 1.426-.806 5.57 5.57 0 0 1 1.693-.256c.392 0 .808.047 1.247.141.443.09.856.256 1.24.499.388.243.705.59.952 1.042.247.447.371 1.029.371 1.745V312h-1.866v-1.343h-.077a2.74 2.74 0 0 1-.556.729 2.935 2.935 0 0 1-.953.594c-.387.158-.852.237-1.393.237Zm.415-1.534c.529 0 .98-.105 1.355-.313.38-.209.667-.482.863-.819.201-.341.301-.705.301-1.093v-1.265c-.068.068-.2.132-.396.191a5.913 5.913 0 0 1-.659.147c-.247.039-.488.075-.722.109l-.588.077a4.8 4.8 0 0 0-1.017.236 1.746 1.746 0 0 0-.728.48c-.179.204-.269.477-.269.818 0 .473.175.831.524 1.074.35.238.795.358 1.336.358Zm6.976 1.317v-9.819h1.911V312h-1.911Zm.965-11.334c-.332 0-.618-.11-.857-.332a1.081 1.081 0 0 1-.351-.805c0-.316.117-.584.351-.806.239-.226.525-.339.857-.339.332 0 .616.113.85.339.239.222.358.49.358.806 0 .311-.119.579-.358.805a1.19 1.19 0 0 1-.85.332ZM226.23 312v-9.819h1.847v1.56h.103a2.37 2.37 0 0 1 .946-1.246 2.705 2.705 0 0 1 1.547-.461 8.778 8.778 0 0 1 .811.045v1.828a3.361 3.361 0 0 0-.409-.07 3.881 3.881 0 0 0-.588-.045c-.451 0-.854.096-1.208.288a2.136 2.136 0 0 0-1.138 1.924V312h-1.911Z"/><rect width="274" height="58" x="752" y="401.281" fill="#F4F5F7" rx="29"/><path stroke="#212121" stroke-linecap="round" stroke-linejoin="round" stroke-width="1.5" d="M784.25 421.531v9M775.25 427.531h18M793.25 437.531v-10l-2-6h-14l-2 6v10a2 2 0 0 0 2 2h14a2 2 0 0 0 2-2Z"/><path fill="#1D252C" d="M809.413 424.19v13.091h-1.975V424.19h1.975Zm4.635 7.261v5.83h-1.912v-9.818h1.835v1.598h.121c.226-.52.58-.938 1.061-1.253.486-.316 1.098-.473 1.835-.473.669 0 1.255.14 1.758.422.503.277.892.69 1.169 1.24.277.549.416 1.229.416 2.039v6.245h-1.911v-6.015c0-.712-.186-1.268-.556-1.668-.371-.405-.88-.608-1.528-.608-.443 0-.837.096-1.183.288-.34.192-.611.473-.811.844-.196.366-.294.809-.294 1.329Zm16.894-3.988-3.561 9.818h-2.045l-3.567-9.818h2.052l2.487 7.555h.102l2.48-7.555h2.052Zm5.693 10.016c-.967 0-1.8-.207-2.499-.62a4.22 4.22 0 0 1-1.611-1.758c-.375-.758-.562-1.647-.562-2.665 0-1.006.187-1.892.562-2.66.38-.767.908-1.365 1.586-1.796.681-.43 1.478-.645 2.39-.645.554 0 1.091.091 1.611.275.52.183.987.47 1.4.863.413.392.739.901.978 1.527.239.622.358 1.379.358 2.269v.678h-7.805v-1.432h5.932c0-.503-.102-.948-.307-1.336a2.316 2.316 0 0 0-.863-.927c-.366-.225-.797-.338-1.291-.338-.537 0-1.006.132-1.406.396-.397.26-.703.601-.921 1.023a2.949 2.949 0 0 0-.319 1.361v1.119c0 .656.115 1.214.345 1.674.234.461.56.812.978 1.055.417.239.905.358 1.464.358.362 0 .692-.051.99-.153a2.15 2.15 0 0 0 .774-.473 2.06 2.06 0 0 0 .498-.774l1.809.326a3.27 3.27 0 0 1-.779 1.4 3.795 3.795 0 0 1-1.4.927c-.559.217-1.196.326-1.912.326Zm8.245-6.028v5.83h-1.912v-9.818h1.835v1.598h.121c.226-.52.58-.938 1.061-1.253.486-.316 1.098-.473 1.835-.473.669 0 1.255.14 1.758.422.503.277.893.69 1.17 1.24.277.549.415 1.229.415 2.039v6.245h-1.911v-6.015c0-.712-.186-1.268-.556-1.668-.371-.405-.88-.608-1.528-.608-.443 0-.837.096-1.183.288-.34.192-.611.473-.811.844-.196.366-.294.809-.294 1.329Zm13.429-3.988v1.534h-5.363v-1.534h5.363Zm-3.924-2.353h1.911v9.288c0 .371.055.65.166.837a.866.866 0 0 0 .428.377c.179.064.373.096.582.096.153 0 .288-.01.403-.032l.268-.051.345 1.579a3.202 3.202 0 0 1-.473.128c-.204.047-.46.072-.767.077a3.365 3.365 0 0 1-1.406-.269 2.41 2.41 0 0 1-1.055-.869c-.268-.392-.402-.884-.402-1.477v-9.684Zm10.069 12.369c-.921 0-1.724-.211-2.41-.633a4.268 4.268 0 0 1-1.598-1.77c-.379-.759-.569-1.645-.569-2.66 0-1.018.19-1.909.569-2.671.379-.763.912-1.356 1.598-1.777.686-.422 1.489-.633 2.41-.633.92 0 1.723.211 2.409.633.687.421 1.219 1.014 1.598 1.777.38.762.569 1.653.569 2.671 0 1.015-.189 1.901-.569 2.66a4.262 4.262 0 0 1-1.598 1.77c-.686.422-1.489.633-2.409.633Zm.006-1.604c.597 0 1.091-.158 1.483-.473.392-.316.682-.736.869-1.26a5 5 0 0 0 .288-1.732c0-.626-.096-1.202-.288-1.726-.187-.528-.477-.952-.869-1.272-.392-.319-.886-.479-1.483-.479-.601 0-1.099.16-1.496.479-.392.32-.684.744-.875 1.272a5.08 5.08 0 0 0-.282 1.726c0 .631.094 1.208.282 1.732.191.524.483.944.875 1.26.397.315.895.473 1.496.473Zm6.704 1.406v-9.818h1.847v1.559h.102c.179-.528.495-.944.946-1.246.456-.307.972-.46 1.547-.46.119 0 .26.004.422.012.166.009.296.02.39.032v1.828a3.62 3.62 0 0 0-.409-.07 3.881 3.881 0 0 0-.588-.045c-.452 0-.855.096-1.208.288a2.137 2.137 0 0 0-1.138 1.924v5.996h-1.911Zm8.415 3.682a3.97 3.97 0 0 1-.78-.071 2.435 2.435 0 0 1-.524-.14l.46-1.566c.35.093.661.134.933.121a1.12 1.12 0 0 0 .723-.307c.213-.192.4-.505.562-.939l.237-.652-3.593-9.946h2.046l2.486 7.619h.103l2.486-7.619h2.052l-4.046 11.128a4.458 4.458 0 0 1-.716 1.298c-.29.358-.635.626-1.036.805-.4.179-.865.269-1.393.269Zm13.904-16.773h2.397l4.168 10.176h.153l4.168-10.176h2.397v13.091h-1.879v-9.473h-.122l-3.861 9.454h-1.559l-3.861-9.461h-.122v9.48h-1.879V424.19Zm18.858 13.308a4.01 4.01 0 0 1-1.687-.345 2.841 2.841 0 0 1-1.196-1.016c-.289-.444-.434-.987-.434-1.63 0-.554.106-1.01.319-1.368.213-.358.501-.642.863-.85a4.49 4.49 0 0 1 1.215-.473 11.85 11.85 0 0 1 1.368-.243l1.432-.167c.366-.046.632-.121.799-.223.166-.103.249-.269.249-.499v-.045c0-.558-.158-.99-.473-1.297-.311-.307-.776-.46-1.394-.46-.643 0-1.15.142-1.521.428-.366.281-.62.594-.761.94l-1.796-.41c.213-.596.524-1.078.933-1.444a3.8 3.8 0 0 1 1.426-.806 5.576 5.576 0 0 1 1.694-.255c.392 0 .807.047 1.246.14.443.09.857.256 1.24.499.388.243.706.59.953 1.042.247.447.37 1.029.37 1.745v6.52h-1.866v-1.343h-.077c-.123.248-.309.49-.556.729a2.949 2.949 0 0 1-.952.595c-.388.157-.853.236-1.394.236Zm.416-1.534c.528 0 .98-.104 1.355-.313a2.2 2.2 0 0 0 .863-.818c.2-.341.3-.706.3-1.093v-1.266c-.068.068-.2.132-.396.192a6.376 6.376 0 0 1-.658.147c-.248.038-.488.074-.723.108l-.588.077a4.729 4.729 0 0 0-1.016.237c-.303.11-.546.27-.729.479-.179.205-.268.477-.268.818 0 .473.174.831.524 1.074.349.239.795.358 1.336.358Zm8.886-4.513v5.83h-1.911v-9.818h1.835v1.598h.121c.226-.52.58-.938 1.061-1.253.486-.316 1.097-.473 1.835-.473.669 0 1.255.14 1.757.422.503.277.893.69 1.17 1.24.277.549.416 1.229.416 2.039v6.245h-1.912v-6.015c0-.712-.185-1.268-.556-1.668-.37-.405-.88-.608-1.527-.608a2.39 2.39 0 0 0-1.183.288 2.074 2.074 0 0 0-.812.844c-.196.366-.294.809-.294 1.329Zm11.704 6.047a4.006 4.006 0 0 1-1.687-.345 2.841 2.841 0 0 1-1.196-1.016c-.289-.444-.434-.987-.434-1.63 0-.554.106-1.01.319-1.368.213-.358.501-.642.863-.85a4.477 4.477 0 0 1 1.215-.473 11.85 11.85 0 0 1 1.368-.243l1.431-.167c.367-.046.633-.121.799-.223.167-.103.25-.269.25-.499v-.045c0-.558-.158-.99-.473-1.297-.311-.307-.776-.46-1.394-.46-.643 0-1.15.142-1.521.428-.367.281-.62.594-.761.94l-1.796-.41c.213-.596.524-1.078.933-1.444a3.8 3.8 0 0 1 1.426-.806 5.576 5.576 0 0 1 1.694-.255c.392 0 .807.047 1.246.14.443.09.857.256 1.24.499.388.243.705.59.953 1.042.247.447.37 1.029.37 1.745v6.52h-1.866v-1.343h-.077c-.123.248-.309.49-.556.729a2.96 2.96 0 0 1-.952.595c-.388.157-.853.236-1.394.236Zm.416-1.534c.528 0 .98-.104 1.355-.313a2.2 2.2 0 0 0 .863-.818c.2-.341.3-.706.3-1.093v-1.266c-.068.068-.2.132-.396.192a6.34 6.34 0 0 1-.659.147c-.247.038-.488.074-.722.108l-.588.077c-.371.047-.71.126-1.016.237-.303.11-.546.27-.729.479-.179.205-.268.477-.268.818 0 .473.174.831.524 1.074.349.239.794.358 1.336.358Zm11.091 5.203c-.779 0-1.451-.102-2.013-.307-.558-.204-1.014-.475-1.368-.811a3.42 3.42 0 0 1-.793-1.106l1.643-.678c.115.188.269.386.46.595.196.213.461.394.793.543.337.149.769.224 1.298.224.724 0 1.323-.177 1.796-.531.473-.349.709-.908.709-1.675v-1.93h-.121a4.322 4.322 0 0 1-.499.697c-.213.255-.507.477-.882.664-.375.188-.863.282-1.464.282-.775 0-1.474-.181-2.096-.544-.618-.366-1.108-.905-1.47-1.617-.358-.716-.537-1.596-.537-2.64s.177-1.939.53-2.684c.358-.746.848-1.317 1.47-1.713.623-.401 1.328-.601 2.116-.601.61 0 1.102.102 1.477.307.375.2.667.434.875.703.213.268.378.505.493.709h.14v-1.591h1.873v10.035c0 .844-.196 1.536-.588 2.078-.392.541-.923.941-1.592 1.201-.664.26-1.414.39-2.25.39Zm-.019-5.618c.55 0 1.014-.128 1.394-.384.383-.26.673-.631.869-1.112.2-.486.3-1.068.3-1.745 0-.661-.098-1.242-.294-1.745-.196-.503-.483-.895-.863-1.176-.379-.286-.848-.429-1.406-.429-.575 0-1.054.149-1.438.448-.384.294-.673.694-.869 1.201a4.776 4.776 0 0 0-.288 1.701c0 .643.098 1.208.294 1.694.196.485.486.865.869 1.137.388.273.865.41 1.432.41Zm11.244 1.93c-.967 0-1.801-.207-2.499-.62a4.206 4.206 0 0 1-1.611-1.758c-.375-.758-.563-1.647-.563-2.665 0-1.006.188-1.892.563-2.66.379-.767.907-1.365 1.585-1.796.682-.43 1.479-.645 2.391-.645.554 0 1.091.091 1.61.275.52.183.987.47 1.4.863.414.392.74.901.978 1.527.239.622.358 1.379.358 2.269v.678h-7.804v-1.432h5.931c0-.503-.102-.948-.306-1.336a2.33 2.33 0 0 0-.863-.927c-.367-.225-.797-.338-1.292-.338-.537 0-1.005.132-1.406.396-.396.26-.703.601-.92 1.023a2.95 2.95 0 0 0-.32 1.361v1.119c0 .656.115 1.214.345 1.674.235.461.561.812.978 1.055.418.239.906.358 1.464.358.362 0 .692-.051.991-.153a2.05 2.05 0 0 0 1.272-1.247l1.809.326c-.145.533-.405 1-.78 1.4a3.787 3.787 0 0 1-1.4.927c-.558.217-1.195.326-1.911.326Zm6.333-.198v-9.818h1.834v1.598h.122a2.535 2.535 0 0 1 1.003-1.266c.465-.307 1.021-.46 1.669-.46.656 0 1.206.153 1.649.46.447.307.777.729.991 1.266h.102a2.757 2.757 0 0 1 1.118-1.253c.512-.316 1.121-.473 1.829-.473.89 0 1.617.279 2.179.837.567.558.85 1.4.85 2.525v6.584h-1.911v-6.405c0-.665-.181-1.146-.543-1.445-.362-.298-.795-.447-1.298-.447-.622 0-1.106.192-1.451.575-.345.379-.518.867-.518 1.464v6.258h-1.904v-6.527c0-.532-.167-.96-.499-1.284-.332-.324-.765-.486-1.298-.486-.362 0-.696.096-1.003.288a2.096 2.096 0 0 0-.735.786 2.407 2.407 0 0 0-.275 1.169v6.054h-1.911Zm20.139.198c-.967 0-1.8-.207-2.499-.62a4.22 4.22 0 0 1-1.611-1.758c-.375-.758-.562-1.647-.562-2.665 0-1.006.187-1.892.562-2.66.38-.767.908-1.365 1.586-1.796.681-.43 1.478-.645 2.39-.645.554 0 1.091.091 1.611.275.52.183.987.47 1.4.863.413.392.739.901.978 1.527.239.622.358 1.379.358 2.269v.678h-7.805v-1.432h5.932c0-.503-.102-.948-.307-1.336a2.316 2.316 0 0 0-.863-.927c-.366-.225-.797-.338-1.291-.338-.537 0-1.006.132-1.406.396-.397.26-.703.601-.921 1.023a2.949 2.949 0 0 0-.319 1.361v1.119c0 .656.115 1.214.345 1.674.234.461.56.812.978 1.055.418.239.905.358 1.464.358.362 0 .692-.051.99-.153a2.15 2.15 0 0 0 .774-.473 2.06 2.06 0 0 0 .498-.774l1.809.326a3.26 3.26 0 0 1-.779 1.4 3.795 3.795 0 0 1-1.4.927c-.559.217-1.196.326-1.912.326Zm8.245-6.028v5.83h-1.912v-9.818h1.835v1.598h.121c.226-.52.58-.938 1.061-1.253.486-.316 1.098-.473 1.835-.473.669 0 1.255.14 1.758.422.503.277.893.69 1.17 1.24.277.549.415 1.229.415 2.039v6.245h-1.911v-6.015c0-.712-.186-1.268-.556-1.668-.371-.405-.88-.608-1.528-.608-.443 0-.837.096-1.183.288-.34.192-.611.473-.811.844-.196.366-.294.809-.294 1.329Zm13.434-3.988v1.534h-5.368v-1.534h5.368Zm-3.93-2.353h1.91v9.288c0 .371.06.65.17.837.11.184.25.309.43.377.18.064.37.096.58.096.15 0 .29-.01.4-.032.12-.021.21-.038.27-.051l.34 1.579c-.11.043-.26.085-.47.128-.2.047-.46.072-.77.077-.5.008-.97-.081-1.4-.269a2.401 2.401 0 0 1-1.06-.869c-.27-.392-.4-.884-.4-1.477v-9.684Z"/><path stroke="#D2D3D5" d="M467 348.281v109c0 11.045-8.954 20-20 20h-84c-11.046 0-20 8.954-20 20v30M613 348.281v109c0 11.045 8.954 20 20 20h84c11.046 0 20 8.954 20 20v30M471 54h13c11.046 0 20 8.954 20 20v188M610 54h-13c-11.046 0-20 8.954-20 20v190M540 529.5V349M252 305h176.5M651 305.281h176M327 429h36.732c11.045 0 20-8.955 20-20v-59c0-11.046 8.954-20 20-20H436M327 180h36.732c11.045 0 20 8.954 20 20v59c0 11.045 8.954 20 20 20H436M752 180h-36.732c-11.045 0-20 8.954-20 20v59c0 11.045-8.954 20-20 20H643M753 429h-36.732c-11.045 0-20-8.955-20-20v-59c0-11.046-8.954-20-20-20H644"/><g filter="url(#b)"><rect width="223" height="88" x="428" y="261" fill="#FCDA01" rx="44" shape-rendering="crispEdges"/><g fill="#1D252C" clip-path="url(#c)"><path d="M599.106 317h3.97v-25.433h-3.97V317Zm7.938-25.435v3.81h3.97v-3.81h-3.97Zm0 25.435h3.97v-17.816h-3.97V317Zm-36.429-21.624h3.969v-3.809h-3.969v3.809Zm0 21.625h3.969v-17.817h-3.969v17.817Zm-22.638-12.503c0-7.27-4.274-12.931-11.949-12.931s-11.95 5.661-11.95 12.931c0 6.592 3.516 11.862 9.895 12.786v.356c0 3.281 2.667 5.939 5.955 5.939h5.953v-3.959h-7.938v-2.317c6.466-.868 10.034-6.165 10.034-12.805Zm-11.728 9.121h-.443c-5.446 0-7.453-4.193-7.453-9.121 0-4.928 2.007-9.12 7.453-9.122h.443c5.446 0 7.453 4.194 7.453 9.122s-2.007 9.121-7.453 9.121Zm26.426-4.438c0 2.548-1.094 4.717-3.97 4.717-2.876 0-3.969-2.169-3.969-4.717v-9.997h-3.97v10.522c0 5.059 2.352 7.72 6.802 7.72 2.568 0 4.064-1.125 4.888-2.41h.659v1.998h3.528v-17.816h-3.969v9.981l.001.002Zm25.683-10.422c-2.231 0-4.022.809-5.324 2.166h-.662v-1.74h-3.819v25.816h3.969v-9.712h.512c1.303 1.359 3.094 2.166 5.324 2.166 5.022 0 7.82-4.092 7.82-9.348 0-5.257-2.798-9.349-7.82-9.349v.001Zm-1.046 15.341c-3.554 0-4.906-2.755-4.906-5.993 0-3.239 1.351-5.994 4.906-5.994 3.555 0 4.906 2.755 4.906 5.994 0 3.238-1.351 5.993-4.906 5.993ZM514.936 317h-5.64a1.189 1.189 0 0 1-1.191-1.187v-21.625c0-.656-.532-1.188-1.19-1.188h-5.64a1.189 1.189 0 0 1-1.191-1.187v-5.625a1.19 1.19 0 0 0-1.19-1.188h-21.682a1.19 1.19 0 0 0-1.191 1.188v5.625c0 .656-.533 1.187-1.191 1.187h-5.639a1.19 1.19 0 0 0-1.191 1.188v21.625c0 .656.533 1.187 1.191 1.187h5.639a1.19 1.19 0 0 1 1.191 1.188v5.625c0 .656.533 1.187 1.191 1.187h21.682c.657 0 1.19-.531 1.19-1.187v-5.625a1.19 1.19 0 0 1 1.191-1.188h5.64c.658 0 1.19.532 1.19 1.188v5.625c0 .656.533 1.187 1.191 1.187h5.64c.658 0 1.19-.531 1.19-1.187v-5.625c0-.656-.532-1.188-1.19-1.188Zm-16.042 0h-21.682a1.189 1.189 0 0 1-1.191-1.187v-21.625a1.19 1.19 0 0 1 1.191-1.188h21.682c.657 0 1.19.532 1.19 1.188v21.625c0 .656-.533 1.187-1.19 1.187Z"/></g></g></g><defs><clipPath id="a"><path fill="#fff" d="M0 0h1105v612H0z"/></clipPath><clipPath id="c"><path fill="#fff" d="M468 285h143v40H468z"/></clipPath><filter id="b" width="463" height="328" x="308" y="141" color-interpolation-filters="sRGB" filterUnits="userSpaceOnUse"><feFlood flood-opacity="0" result="BackgroundImageFix"/><feColorMatrix in="SourceAlpha" result="hardAlpha" values="0 0 0 0 0 0 0 0 0 0 0 0 0 0 0 0 0 0 127 0"/><feOffset/><feGaussianBlur stdDeviation="60"/><feComposite in2="hardAlpha" operator="out"/><feColorMatrix values="0 0 0 0 0.988235 0 0 0 0 0.854902 0 0 0 0 0.00392157 0 0 0 0.4 0"/><feBlend in2="BackgroundImageFix" result="effect1_dropShadow_264_929"/><feBlend in="SourceGraphic" in2="effect1_dropShadow_264_929" result="shape"/></filter></defs></svg>