<svg width="180" height="224" viewBox="0 0 180 224" fill="none" xmlns="http://www.w3.org/2000/svg">
<path fill-rule="evenodd" clip-rule="evenodd" d="M104 24C90.7452 24 80 13.2548 80 0H76V24H67.4247C56.5818 24 47.801 32.8923 47.801 43.8727V138.005C47.801 148.985 39.0202 157.878 28.1774 157.878H11.8926C5.32448 157.878 0 163.202 0 169.77V212.107C0 218.676 5.32448 224 11.8926 224H35.9084C42.4765 224 47.801 218.676 47.801 212.107V177.75C47.801 166.77 56.5818 157.878 67.4247 157.878H160.376C171.219 157.878 180 148.985 180 138.005V43.8727C180 32.8923 171.219 24 160.376 24H104Z" fill="white"/>
</svg>
