<svg width="160" height="180" viewBox="0 0 160 180" fill="none" xmlns="http://www.w3.org/2000/svg">
<path fill-rule="evenodd" clip-rule="evenodd" d="M128.291 0C128.291 10.6039 119.55 19.2 108.946 19.2L128.291 19.2V0ZM128 126.302H144.301C152.975 126.302 160 119.188 160 110.404V35.0984C160 26.314 152.975 19.2002 144.301 19.2002H69.9398C61.2655 19.2002 54.2408 26.314 54.2408 35.0984V110.404C54.2408 119.188 47.2162 126.302 38.5419 126.302H9.51405C4.25958 126.302 1.113e-06 130.562 1.113e-06 135.816V169.686C1.113e-06 174.941 4.25958 179.2 9.51405 179.2H44.7267C49.9812 179.2 54.2408 174.941 54.2408 169.686V142.2C54.2408 133.416 61.2655 126.302 69.9398 126.302H113.963C122.059 128.557 128 135.985 128 144.8V126.302Z" fill="white"/>
</svg>
