<svg width="164" height="164" viewBox="0 0 164 164" fill="none" xmlns="http://www.w3.org/2000/svg">
<path fill-rule="evenodd" clip-rule="evenodd" d="M71.5 110H116L116.015 110C129.263 110.008 140 120.75 140 134V110H147.72C156.612 110 164 102.488 164 93.4839L164 16.2957C164 7.29168 156.8 0 147.909 -2.32821e-06L71.6882 -8.9916e-06C62.7971 -9.76889e-06 55 7.10202 55 16.106L55 24L31 24C44.2548 24 55 34.7452 55 48L55 24L55 93.2942C55 102.298 48.2083 110 39.3172 110H11.1221C4.87558 110 4.29741e-06 114.843 3.75132e-06 121.09L0 152.69C0 158.936 5.06382 164 11.3104 164H44.2865C50.533 164 55 158.747 55 152.5L55 125.886C55 116.882 62.6089 110 71.5 110Z" fill="white"/>
</svg>
