<svg width="88" height="20" viewBox="0 0 88 20" fill="none" xmlns="http://www.w3.org/2000/svg">
<g opacity="0.2" clip-path="url(#clip0_112_1114)">
<path d="M0 7.38468L8.03361 7.38625L12.9186 7.38706V2.66602L0 7.38468Z" fill="#1D252C"/>
<path d="M12.918 2.66604V19.3337L19.0192 0.436768L12.918 2.66604Z" fill="#1D252C"/>
<path d="M12.9162 7.38741L8.03125 7.3866L12.9162 19.334V7.38741Z" fill="#1D252C"/>
<path d="M0 7.38477L9.28631 10.4519L8.03361 7.38633L0 7.38477Z" fill="#1D252C"/>
<path d="M29.5933 14.9468C29.5224 15.0159 29.4044 15.1021 29.2394 15.2057C29.074 15.3093 28.8589 15.4129 28.5935 15.5165C28.3281 15.6199 28.0035 15.709 27.6203 15.7841C27.2367 15.8587 26.7975 15.8962 26.302 15.8962C25.3464 15.8962 24.5206 15.7465 23.8247 15.4475C23.1285 15.1484 22.5535 14.731 22.0994 14.196C21.6452 13.6608 21.3121 13.0281 21.0997 12.2971C20.8874 11.5664 20.7812 10.7638 20.7812 9.88911C20.7812 9.01475 20.8962 8.20613 21.1263 7.46389C21.3563 6.7216 21.7013 6.08029 22.1614 5.53916C22.6215 4.99844 23.1965 4.57546 23.8867 4.2704C24.5768 3.96569 25.3877 3.81299 26.3197 3.81299C26.7798 3.81299 27.1956 3.8534 27.5672 3.93381C27.9388 4.01439 28.2631 4.10941 28.5405 4.21863C28.8175 4.32814 29.0476 4.44299 29.2306 4.56387C29.4133 4.68468 29.5519 4.78562 29.6464 4.86591C29.7526 4.9582 29.8439 5.06743 29.9207 5.19387C29.9973 5.32066 30.0357 5.45875 30.0357 5.60821C30.0357 5.83854 29.9472 6.06858 29.7703 6.29868C29.5934 6.52901 29.3987 6.74189 29.1863 6.93737C29.0447 6.79928 28.8855 6.65852 28.7086 6.51451C28.5316 6.37068 28.334 6.24424 28.1158 6.13473C27.8974 6.0255 27.6496 5.9335 27.3726 5.85854C27.0953 5.78381 26.7857 5.7463 26.4437 5.7463C25.842 5.7463 25.3378 5.86445 24.9307 6.10017C24.5238 6.33618 24.1964 6.64391 23.9487 7.0237C23.701 7.40348 23.524 7.83794 23.4178 8.32695C23.3117 8.81619 23.2586 9.31384 23.2586 9.82013C23.2586 10.3611 23.3117 10.879 23.4178 11.3736C23.5239 11.8685 23.7067 12.3059 23.9664 12.6855C24.2257 13.0652 24.5649 13.3703 24.9838 13.6003C25.4024 13.8307 25.9244 13.9456 26.5498 13.9456C26.8799 13.9456 27.1838 13.9054 27.4611 13.8248C27.7381 13.7444 27.983 13.6465 28.1954 13.5312C28.4077 13.4164 28.5936 13.2957 28.7528 13.1689C28.912 13.0423 29.0447 12.9331 29.1509 12.8409C29.2217 12.9216 29.3041 13.0195 29.3986 13.1344C29.4937 13.2505 29.5823 13.3715 29.664 13.4969C29.7465 13.6236 29.8172 13.7501 29.8764 13.8765C29.9353 14.0033 29.9648 14.1182 29.9648 14.2217C29.9648 14.3715 29.9353 14.498 29.8764 14.6015C29.8172 14.7051 29.7229 14.8203 29.5933 14.9468ZM38.7122 13.6229C38.7122 14.5376 38.8484 15.2033 39.1216 15.6201C38.908 15.7009 38.7091 15.7589 38.5252 15.7936C38.3411 15.8284 38.1484 15.8457 37.9467 15.8457C37.5195 15.8457 37.196 15.7646 36.9765 15.6026C36.7568 15.4407 36.6174 15.2091 36.5582 14.908C36.297 15.1745 35.9529 15.4002 35.5257 15.5855C35.0985 15.7703 34.5761 15.8632 33.9592 15.8632C33.6387 15.8632 33.3184 15.8198 32.9979 15.7336C32.6774 15.6466 32.3866 15.5055 32.1256 15.3096C31.8644 15.1132 31.6509 14.8506 31.4847 14.5217C31.3184 14.1927 31.2355 13.7918 31.2355 13.3187C31.2355 12.7302 31.3808 12.2511 31.6717 11.882C31.9624 11.5125 32.3273 11.2212 32.7665 11.0076C33.2054 10.7943 33.6802 10.6474 34.1907 10.5664C34.7008 10.4855 35.1697 10.4338 35.5969 10.4104C35.7394 10.399 35.8787 10.393 36.0153 10.393H36.398V10.0769C36.398 9.63194 36.2762 9.31581 36.0331 9.12861C35.7896 8.94136 35.395 8.8475 34.8492 8.8475C34.3389 8.8475 33.8849 8.9286 33.4874 9.09058C33.0897 9.25285 32.7011 9.4379 32.3214 9.64632C32.1551 9.44956 32.0215 9.23256 31.9209 8.9951C31.82 8.75799 31.7696 8.58134 31.7696 8.46545C31.7696 8.30347 31.8614 8.14717 32.0455 7.99656C32.2294 7.84629 32.4817 7.71005 32.8021 7.58848C33.1226 7.46691 33.4903 7.3687 33.9059 7.29328C34.3211 7.21808 34.7603 7.1804 35.2232 7.1804C35.864 7.1804 36.4069 7.24417 36.8519 7.37142C37.297 7.49897 37.6589 7.69567 37.9379 7.96183C38.2166 8.22834 38.4154 8.56099 38.5342 8.96037C38.6527 9.35981 38.7122 9.82598 38.7122 10.3583L38.7122 13.6229ZM36.4335 11.6086H36.1844C36.1011 11.6086 36.018 11.6146 35.9351 11.626C35.6383 11.6493 35.3445 11.684 35.054 11.7301C34.763 11.7765 34.5049 11.8576 34.2796 11.9733C34.054 12.0891 33.8702 12.2397 33.7278 12.4247C33.5853 12.6101 33.5141 12.8475 33.5141 13.1368C33.5141 13.461 33.609 13.7358 33.7989 13.9616C33.9886 14.1874 34.309 14.3003 34.7602 14.3003C34.9855 14.3003 35.1992 14.2715 35.4011 14.2133C35.6027 14.1557 35.7807 14.0804 35.9351 13.9878C36.0892 13.8951 36.211 13.7939 36.3001 13.6837C36.389 13.5739 36.4335 13.4727 36.4335 13.38L36.4335 11.6086ZM43.1445 8.18752C43.3336 7.96774 43.6296 7.74472 44.0317 7.51891C44.4339 7.29316 44.9426 7.18028 45.5579 7.18028C45.9958 7.18028 46.4127 7.25269 46.8092 7.39734C47.2052 7.54222 47.5573 7.77672 47.8649 8.10068C48.1726 8.42493 48.418 8.85335 48.6015 9.38573C48.7849 9.91839 48.8766 10.5726 48.8766 11.348C48.8766 12.251 48.77 12.9951 48.5572 13.5796C48.344 14.1644 48.0692 14.6275 47.7322 14.9689C47.395 15.3104 47.0191 15.5507 46.6053 15.6895C46.1911 15.8284 45.777 15.898 45.363 15.898C45.0199 15.898 44.721 15.8603 44.4669 15.7851C44.2124 15.7097 43.9965 15.626 43.8191 15.5333C43.6416 15.4407 43.5057 15.3483 43.4111 15.2554C43.3165 15.1629 43.2573 15.0991 43.2337 15.0643V19.3332H40.8126V7.42337C40.8721 7.41201 40.9439 7.40035 41.0279 7.3887C41.0997 7.37734 41.1834 7.36858 41.2791 7.36261C41.3747 7.35693 41.4883 7.35397 41.6198 7.35397C42.0142 7.35397 42.3491 7.41775 42.6241 7.545C42.8991 7.67254 43.0727 7.88658 43.1445 8.18752ZM46.3488 11.4001C46.3488 11.0528 46.3192 10.7289 46.2603 10.4277C46.2013 10.1268 46.104 9.86627 45.9683 9.64626C45.8325 9.42642 45.6494 9.25552 45.4194 9.13389C45.1891 9.01237 44.9091 8.95168 44.5788 8.95168C44.0832 8.95168 43.7381 9.04443 43.5433 9.22943C43.3487 9.41477 43.2513 9.61751 43.2513 9.83728V13.5189C43.3456 13.6116 43.5135 13.7214 43.7555 13.8488C43.9976 13.9763 44.2776 14.0397 44.5964 14.0397C45.1983 14.0397 45.6408 13.8084 45.924 13.3452C46.2072 12.8822 46.3488 12.2337 46.3488 11.4001ZM50.7452 14.3871C50.662 14.1557 50.6086 13.9124 50.585 13.6577C50.5611 13.4031 50.5494 13.1485 50.5494 12.8935V4.83588C50.6323 4.82452 50.7213 4.81286 50.8164 4.80115C50.8992 4.78979 50.9883 4.78115 51.0833 4.77512C51.1782 4.76944 51.2731 4.76648 51.3681 4.76648C51.5579 4.76648 51.7479 4.78388 51.9379 4.81855C52.1275 4.85333 52.2997 4.92278 52.4542 5.0269C52.6083 5.13108 52.7328 5.27306 52.8279 5.45237C52.9228 5.63198 52.9703 5.86648 52.9703 6.15565V7.38858H55.4626V9.14264H52.9703V12.8458C52.9703 13.6534 53.3085 14.0571 53.9851 14.0571C54.1512 14.0571 54.3082 14.0312 54.4568 13.9789C54.6051 13.9269 54.7386 13.8691 54.8574 13.8054C54.9759 13.7417 55.0799 13.6752 55.1689 13.6056C55.2579 13.5361 55.3202 13.4841 55.3557 13.4494C55.5338 13.7043 55.67 13.9248 55.7652 14.111C55.86 14.2974 55.9076 14.4723 55.9076 14.6357C55.9076 14.7878 55.8454 14.9369 55.7207 15.0829C55.5959 15.2289 55.4208 15.3635 55.1954 15.4861C54.97 15.6087 54.6971 15.708 54.3766 15.784C54.0563 15.86 53.706 15.898 53.3264 15.898C52.5903 15.898 52.0179 15.759 51.6084 15.4813C51.199 15.2033 50.9111 14.8386 50.7452 14.3871ZM61.5942 14.1613C61.8919 14.1613 62.1539 14.1296 62.3804 14.0658C62.6065 14.0024 62.8089 13.9242 62.9876 13.8315C63.1661 13.739 63.3211 13.6376 63.4522 13.5276C63.5831 13.4177 63.7021 13.3164 63.8096 13.2236C63.9522 13.3972 64.1011 13.6203 64.256 13.8921C64.4107 14.1644 64.4882 14.3871 64.4882 14.5607C64.4882 14.8155 64.3397 15.047 64.0433 15.2554C63.794 15.4407 63.4407 15.5999 62.9841 15.7329C62.527 15.8659 61.9899 15.9326 61.373 15.9326C60.815 15.9326 60.2662 15.8632 59.7264 15.7242C59.1863 15.5854 58.7055 15.3422 58.2845 14.9948C57.863 14.6477 57.5218 14.1817 57.2608 13.597C56.9997 13.0124 56.8692 12.2745 56.8692 11.3828C56.8692 10.6534 56.985 10.0256 57.2162 9.49866C57.4477 8.97197 57.7562 8.5349 58.1421 8.18758C58.5275 7.84026 58.9637 7.58575 59.4504 7.42343C59.9369 7.26151 60.4354 7.18034 60.9458 7.18034C61.6103 7.18034 62.174 7.28185 62.6369 7.48424C63.0998 7.68692 63.4763 7.95905 63.7673 8.30046C64.0579 8.64198 64.2685 9.03272 64.3992 9.47263C64.5296 9.91271 64.595 10.3756 64.595 10.8619V11.1049C64.595 11.1978 64.592 11.296 64.5861 11.4001C64.5801 11.5044 64.5742 11.6059 64.5684 11.704C64.5622 11.8027 64.5533 11.8807 64.5418 11.9385H59.2902C59.3378 12.5753 59.5402 13.1049 59.8974 13.5276C60.2544 13.9503 60.8201 14.1613 61.5942 14.1613ZM62.4054 10.636C62.4054 10.0804 62.2949 9.62887 62.0741 9.28155C61.8533 8.93428 61.4562 8.76054 60.8837 8.76054C60.394 8.76054 60.0032 8.92559 59.7109 9.25552C59.4183 9.58551 59.2724 10.0456 59.2724 10.636L62.4054 10.636ZM68.8082 8.23141C68.8792 8.1281 68.9741 8.01331 69.0929 7.88681C69.2114 7.76043 69.3569 7.64558 69.5291 7.54227C69.701 7.43891 69.8909 7.35258 70.0988 7.28371C70.3062 7.21478 70.5288 7.18034 70.7664 7.18034C70.9087 7.18034 71.0601 7.192 71.2202 7.21478C71.3805 7.23785 71.5287 7.28099 71.6652 7.34394C71.8016 7.40719 71.9115 7.49317 71.9946 7.60228C72.0775 7.71138 72.1192 7.84623 72.1192 8.00688C72.1192 8.25947 72.0538 8.54957 71.9234 8.87706C71.7927 9.20485 71.6623 9.48434 71.5318 9.71577C71.3298 9.55374 71.1281 9.42927 70.9265 9.34242C70.7246 9.25563 70.4872 9.21215 70.2144 9.21215C69.8465 9.21215 69.538 9.31668 69.2889 9.52556C69.0394 9.7345 68.9149 9.98413 68.9149 10.2744V15.8961H66.494V7.42337C66.5532 7.41201 66.6244 7.40035 66.7075 7.3887C66.7787 7.37734 66.8618 7.36858 66.9568 7.36261C67.0517 7.35693 67.1643 7.35397 67.295 7.35397C67.6747 7.35397 68.004 7.4258 68.283 7.56917C68.5616 7.71237 68.737 7.93325 68.8082 8.23141ZM75.6913 8.23141C75.7625 8.1281 75.8574 8.01331 75.9762 7.88681C76.0947 7.76043 76.2402 7.64558 76.4123 7.54227C76.5843 7.43891 76.7741 7.35258 76.982 7.28371C77.1895 7.21478 77.412 7.18034 77.6495 7.18034C77.7918 7.18034 77.9432 7.192 78.1034 7.21478C78.2635 7.23785 78.4119 7.28099 78.5484 7.34394C78.6848 7.40719 78.7945 7.49317 78.8779 7.60228C78.9608 7.71138 79.0025 7.84623 79.0025 8.00688C79.0025 8.25947 78.937 8.54957 78.8067 8.87706C78.6758 9.20485 78.5454 9.48434 78.415 9.71577C78.2131 9.55374 78.0113 9.42927 77.8097 9.34242C77.6079 9.25563 77.3705 9.21215 77.0977 9.21215C76.7297 9.21215 76.4212 9.31668 76.172 9.52556C75.9228 9.7345 75.7982 9.98413 75.7982 10.2744V15.8961H73.3772V7.42337C73.4365 7.41201 73.5076 7.40035 73.5908 7.3887C73.662 7.37734 73.7451 7.36858 73.84 7.36261C73.9349 7.35693 74.0475 7.35397 74.1782 7.35397C74.558 7.35397 74.8873 7.4258 75.1661 7.56917C75.4448 7.71237 75.62 7.93325 75.6913 8.23141ZM87.2446 13.6229C87.2446 14.5376 87.381 15.2033 87.6541 15.6201C87.4404 15.7009 87.2416 15.7589 87.0578 15.7936C86.8737 15.8284 86.6809 15.8457 86.4792 15.8457C86.0519 15.8457 85.7285 15.7646 85.5091 15.6026C85.2892 15.4407 85.1499 15.2091 85.0906 14.908C84.8296 15.1745 84.4854 15.4002 84.0582 15.5855C83.631 15.7703 83.1086 15.8632 82.4917 15.8632C82.1712 15.8632 81.8509 15.8198 81.5303 15.7336C81.2099 15.6466 80.9189 15.5055 80.6581 15.3096C80.3969 15.1132 80.1833 14.8506 80.0172 14.5217C79.8509 14.1927 79.7681 13.7918 79.7681 13.3187C79.7681 12.7302 79.9132 12.2511 80.2042 11.882C80.4948 11.5125 80.8598 11.2212 81.299 11.0076C81.7379 10.7943 82.2126 10.6474 82.7232 10.5664C83.2332 10.4855 83.7022 10.4338 84.1294 10.4104C84.2719 10.399 84.4112 10.393 84.5479 10.393H84.9305V10.0769C84.9305 9.63194 84.8086 9.31581 84.5655 9.12861C84.322 8.94136 83.9275 8.8475 83.3817 8.8475C82.8714 8.8475 82.4175 8.9286 82.02 9.09058C81.6222 9.25285 81.2337 9.4379 80.8539 9.64632C80.6877 9.44956 80.554 9.23256 80.4534 8.9951C80.3525 8.75799 80.3021 8.58134 80.3021 8.46545C80.3021 8.30347 80.3939 8.14717 80.578 7.99656C80.7619 7.84629 81.0142 7.71005 81.3346 7.58848C81.6551 7.46691 82.0228 7.3687 82.4382 7.29328C82.8536 7.21808 83.2927 7.1804 83.7556 7.1804C84.3964 7.1804 84.9394 7.24417 85.3844 7.37142C85.8294 7.49897 86.1913 7.69567 86.4703 7.96183C86.749 8.22834 86.9478 8.56099 87.0667 8.96037C87.1851 9.35981 87.2446 9.82598 87.2446 10.3583V13.6229ZM84.966 11.6086H84.7168C84.6336 11.6086 84.5505 11.6146 84.4676 11.626C84.1709 11.6493 83.877 11.684 83.5864 11.7301C83.2955 11.7765 83.0374 11.8576 82.8121 11.9733C82.5865 12.0891 82.4026 12.2397 82.2602 12.4247C82.1178 12.6101 82.0466 12.8475 82.0466 13.1368C82.0466 13.461 82.1415 13.7358 82.3314 13.9616C82.5211 14.1874 82.8417 14.3003 83.2927 14.3003C83.5181 14.3003 83.7317 14.2715 83.9336 14.2133C84.1353 14.1557 84.3132 14.0804 84.4676 13.9878C84.6216 13.8951 84.7436 13.7939 84.8325 13.6837C84.9216 13.5739 84.9661 13.4727 84.9661 13.38L84.966 11.6086Z" fill="#1D252C"/>
</g>
<defs>
<clipPath id="clip0_112_1114">
<rect width="88" height="20" fill="white"/>
</clipPath>
</defs>
</svg>
