<svg width="89" height="20" viewBox="0 0 89 20" fill="none" xmlns="http://www.w3.org/2000/svg">
<g opacity="0.2" clip-path="url(#clip0_112_1180)">
<path d="M31.1969 7.13612V9.27241H36.4469C36.3076 10.4542 35.8894 11.3633 35.239 11.9541C34.4956 12.6814 33.2877 13.4995 31.1969 13.4995C27.9912 13.4995 25.4823 10.9542 25.4823 7.81792C25.4823 4.68166 27.9447 2.13629 31.1969 2.13629C32.916 2.13629 34.2169 2.81809 35.1461 3.68169L36.6792 2.18174C35.3784 0.954513 33.6129 0 31.1969 0C26.7832 0 23.0664 3.49988 23.0664 7.81792C23.0664 12.136 26.7832 15.6358 31.1969 15.6358C33.5664 15.6358 35.3784 14.8631 36.7722 13.4541C38.2124 12.045 38.677 10.0451 38.677 8.45426C38.677 7.95428 38.6306 7.49975 38.5841 7.13612H31.1969Z" fill="#1D252C"/>
<path d="M45.185 5.36414C42.3509 5.36414 39.9814 7.50043 39.9814 10.4094C39.9814 13.3184 42.3045 15.4547 45.185 15.4547C48.0655 15.4547 50.3885 13.3639 50.3885 10.4549C50.3885 7.50043 48.0655 5.36414 45.185 5.36414ZM45.185 13.5002C43.6053 13.5002 42.258 12.2275 42.258 10.4549C42.258 8.63675 43.6053 7.40952 45.185 7.40952C46.7646 7.40952 48.112 8.63675 48.112 10.4549C48.112 12.2275 46.7646 13.5002 45.185 13.5002Z" fill="#1D252C"/>
<path d="M70.5956 6.50046H70.5027C69.9916 5.90957 69.016 5.36414 67.7615 5.36414C65.1598 5.36414 62.9297 7.54588 62.9297 10.4094C62.9297 13.2275 65.1598 15.4547 67.7615 15.4547C69.016 15.4547 69.9916 14.9093 70.5027 14.3184H70.5956V15.0456C70.5956 16.9547 69.527 18.0001 67.8545 18.0001C66.4607 18.0001 65.6244 17.0456 65.2527 16.182L63.3014 17.0001C63.8589 18.3182 65.3921 20 67.9009 20C70.5492 20 72.8257 18.4546 72.8257 14.7275V5.63685H70.6885V6.50046H70.5956ZM67.9938 13.5002C66.4142 13.5002 65.2527 12.1821 65.2527 10.4549C65.2527 8.6822 66.4607 7.40952 67.9938 7.40952C69.527 7.40952 70.735 8.72766 70.735 10.5003C70.7815 12.2275 69.5735 13.5002 67.9938 13.5002Z" fill="#1D252C"/>
<path d="M56.7485 5.36414C53.9144 5.36414 51.5449 7.50043 51.5449 10.4094C51.5449 13.3184 53.8679 15.4547 56.7485 15.4547C59.629 15.4547 61.952 13.3639 61.952 10.4549C61.952 7.50043 59.629 5.36414 56.7485 5.36414ZM56.7485 13.5002C55.1688 13.5002 53.8215 12.2275 53.8215 10.4549C53.8215 8.63675 55.1688 7.40952 56.7485 7.40952C58.3281 7.40952 59.6755 8.63675 59.6755 10.4549C59.6755 12.2275 58.3281 13.5002 56.7485 13.5002Z" fill="#1D252C"/>
<path d="M74.543 0.227905H76.7731V15.5001H74.543V0.227905Z" fill="#1D252C"/>
<path d="M83.6526 13.5002C82.4911 13.5002 81.7013 13.0002 81.1438 11.9548L88.0663 9.18219L87.834 8.5913C87.4159 7.45497 86.0685 5.36414 83.4203 5.36414C80.7721 5.36414 78.542 7.40952 78.542 10.4094C78.542 13.2275 80.7256 15.4547 83.6526 15.4547C86.0221 15.4547 87.3694 14.0457 87.9734 13.2275L86.2079 12.0912C85.6039 12.9548 84.8141 13.5002 83.6526 13.5002ZM83.5132 7.27316C84.4424 7.27316 85.2323 7.72769 85.4646 8.36403L80.8185 10.2731C80.7721 8.18222 82.3517 7.27316 83.5132 7.27316Z" fill="#1D252C"/>
</g>
<defs>
<clipPath id="clip0_112_1180">
<rect width="88" height="20" fill="white" transform="translate(0.0664062)"/>
</clipPath>
</defs>
</svg>
