<svg width="89" height="20" viewBox="0 0 89 20" fill="none" xmlns="http://www.w3.org/2000/svg">
<g opacity="0.2" clip-path="url(#clip0_112_1073)">
<g clip-path="url(#clip1_112_1073)">
<path d="M79.0216 20C84.496 20 88.9338 15.5228 88.9338 10C88.9338 4.47715 84.496 0 79.0216 0C73.5472 0 69.1094 4.47715 69.1094 10C69.1094 15.5228 73.5472 20 79.0216 20Z" fill="#1D252C"/>
<path d="M83.3103 7.66019H81.6173C81.6629 7.39219 81.8275 7.24219 82.1605 7.07219L82.4718 6.91219C83.0288 6.62419 83.3262 6.29819 83.3262 5.76619C83.3262 5.43219 83.1973 5.16819 82.9416 4.97819C82.6859 4.78819 82.3845 4.69419 82.0317 4.69419C81.7587 4.69095 81.4907 4.7681 81.2605 4.91619C81.0285 5.06019 80.8561 5.24619 80.749 5.47819L81.2387 5.97419C81.429 5.58619 81.7046 5.39619 82.0673 5.39619C82.3746 5.39619 82.563 5.55619 82.563 5.77819C82.563 5.96419 82.4718 6.11819 82.1189 6.29819L81.9187 6.39619C81.4845 6.61819 81.1832 6.87219 81.0087 7.16019C80.8343 7.44819 80.749 7.81019 80.749 8.24819V8.36819H83.3103V7.66019Z" fill="#F1F3F8"/>
<path d="M83.0817 9.18286H80.2785L78.877 11.6309H81.6801L83.0817 14.0809L84.4833 11.6309L83.0817 9.18286Z" fill="#F1F3F8"/>
<path d="M79.1219 13.2656C77.3377 13.2656 75.8845 11.7996 75.8845 9.99965C75.8845 8.19965 77.3377 6.73364 79.1219 6.73364L80.23 4.39564C79.8651 4.32243 79.4939 4.28559 79.1219 4.28564C75.9936 4.28564 73.458 6.84364 73.458 9.99965C73.458 13.1556 75.9936 15.7136 79.1219 15.7136C80.3207 15.7159 81.4889 15.3319 82.4563 14.6176L81.2312 12.4736C80.645 12.9844 79.8964 13.2655 79.1219 13.2656Z" fill="#F1F3F8"/>
</g>
<path d="M25.0671 8.42321C25.0055 8.20718 24.919 8.01631 24.8075 7.85059C24.6961 7.68191 24.5597 7.53986 24.3983 7.42445C24.2399 7.30608 24.0581 7.21582 23.8527 7.15368C23.6503 7.09153 23.426 7.06046 23.1796 7.06046C22.719 7.06046 22.3142 7.17587 21.9652 7.40669C21.619 7.63752 21.3492 7.9734 21.1556 8.41433C20.962 8.8523 20.8652 9.38793 20.8652 10.0212C20.8652 10.6545 20.9605 11.1931 21.1512 11.637C21.3418 12.0809 21.6117 12.4197 21.9608 12.6535C22.3098 12.8843 22.722 12.9997 23.1972 12.9997C23.6283 12.9997 23.9965 12.9228 24.3015 12.7689C24.6095 12.6121 24.8442 12.3916 25.0055 12.1075C25.1698 11.8234 25.2519 11.4875 25.2519 11.0999L25.6391 11.1576H23.316V9.71049H27.0867V10.8557C27.0867 11.6547 26.9195 12.3413 26.5851 12.9154C26.2507 13.4865 25.7902 13.9275 25.2035 14.2382C24.6169 14.546 23.9451 14.6998 23.1884 14.6998C22.3436 14.6998 21.6014 14.5119 20.962 14.1361C20.3225 13.7573 19.8239 13.2202 19.466 12.5248C19.1111 11.8264 18.9336 10.9978 18.9336 10.039C18.9336 9.30211 19.0392 8.64515 19.2504 8.06809C19.4645 7.48807 19.7637 6.99683 20.148 6.59437C20.5322 6.19191 20.9796 5.88562 21.49 5.67551C22.0004 5.46541 22.5533 5.36035 23.1488 5.36035C23.6591 5.36035 24.1343 5.43581 24.5743 5.58674C25.0143 5.7347 25.4045 5.94481 25.7447 6.21706C26.0879 6.48932 26.3681 6.81336 26.5851 7.18919C26.8022 7.56206 26.9415 7.9734 27.0031 8.42321H25.0671Z" fill="#1D252C"/>
<path d="M28.465 14.5756V13.1906L31.6726 10.1943C31.9454 9.928 32.1742 9.6883 32.359 9.47523C32.5467 9.26216 32.689 9.05353 32.7858 8.84934C32.8826 8.64219 32.931 8.41877 32.931 8.17907C32.931 7.91273 32.8708 7.68339 32.7506 7.49103C32.6303 7.29572 32.466 7.14628 32.2578 7.0427C32.0495 6.93617 31.8134 6.8829 31.5494 6.8829C31.2736 6.8829 31.0331 6.93913 30.8278 7.05158C30.6225 7.16403 30.4641 7.32531 30.3526 7.53542C30.2411 7.74553 30.1854 7.99559 30.1854 8.2856H28.377C28.377 7.69078 28.5105 7.17439 28.7774 6.73642C29.0443 6.29844 29.4183 5.95961 29.8994 5.7199C30.3805 5.4802 30.9348 5.36035 31.5626 5.36035C32.2079 5.36035 32.7696 5.47576 33.2478 5.70659C33.7288 5.93445 34.1028 6.2511 34.3697 6.65652C34.6367 7.06194 34.7701 7.52654 34.7701 8.05034C34.7701 8.39361 34.7027 8.73245 34.5677 9.06685C34.4357 9.40125 34.1996 9.77264 33.8594 10.181C33.5191 10.5864 33.0395 11.0732 32.4206 11.6414L31.105 12.942V13.0042H34.8889V14.5756H28.465Z" fill="#1D252C"/>
<path d="M44.0783 8.09917C44.0431 7.74109 43.892 7.46292 43.6251 7.26465C43.3581 7.06638 42.9959 6.96724 42.5383 6.96724C42.2273 6.96724 41.9648 7.01163 41.7507 7.10041C41.5365 7.18623 41.3723 7.30608 41.2579 7.45996C41.1464 7.61384 41.0907 7.78844 41.0907 7.98375C41.0848 8.14651 41.1185 8.28856 41.1919 8.40989C41.2681 8.53122 41.3723 8.63628 41.5043 8.72505C41.6363 8.81087 41.7888 8.88633 41.9619 8.95144C42.1349 9.01358 42.3197 9.06685 42.5163 9.11124L43.3259 9.30655C43.7189 9.39533 44.0797 9.5137 44.4083 9.66167C44.7368 9.80963 45.0213 9.99163 45.2618 10.2077C45.5024 10.4237 45.6886 10.6782 45.8206 10.9711C45.9556 11.2641 46.0245 11.6 46.0274 11.9788C46.0245 12.5351 45.8837 13.0175 45.605 13.4259C45.3293 13.8313 44.9304 14.1465 44.4083 14.3714C43.8891 14.5933 43.2628 14.7043 42.5295 14.7043C41.802 14.7043 41.1684 14.5918 40.6287 14.3669C40.0919 14.142 39.6724 13.8091 39.3703 13.3682C39.0711 12.9243 38.9142 12.3753 38.8995 11.7213H40.7431C40.7636 12.0261 40.8502 12.2806 41.0027 12.4848C41.1581 12.686 41.3649 12.8385 41.6231 12.942C41.8841 13.0426 42.1789 13.093 42.5075 13.093C42.8301 13.093 43.1103 13.0456 43.3479 12.9509C43.5884 12.8562 43.7747 12.7245 43.9067 12.5558C44.0387 12.3872 44.1047 12.1933 44.1047 11.9743C44.1047 11.7702 44.0445 11.5985 43.9243 11.4594C43.8069 11.3203 43.6339 11.202 43.4051 11.1043C43.1792 11.0067 42.902 10.9179 42.5735 10.838L41.5923 10.5894C40.8326 10.403 40.2327 10.1115 39.7927 9.71493C39.3527 9.31839 39.1342 8.78424 39.1371 8.11248C39.1342 7.56206 39.2794 7.08117 39.5727 6.66983C39.869 6.25849 40.2752 5.93741 40.7915 5.70659C41.3077 5.47576 41.8944 5.36035 42.5515 5.36035C43.2203 5.36035 43.804 5.47576 44.3027 5.70659C44.8042 5.93741 45.1944 6.25849 45.473 6.66983C45.7517 7.08117 45.8954 7.55762 45.9042 8.09917H44.0783Z" fill="#1D252C"/>
<path d="M50.8685 7.75737V9.17782H46.7985V7.75737H50.8685ZM47.7225 6.12385H49.5969V12.4804C49.5969 12.655 49.6233 12.7911 49.6761 12.8888C49.7289 12.9835 49.8022 13.05 49.8961 13.0885C49.9929 13.127 50.1044 13.1462 50.2305 13.1462C50.3185 13.1462 50.4065 13.1388 50.4945 13.124C50.5825 13.1063 50.65 13.093 50.6969 13.0841L50.9917 14.4912C50.8978 14.5208 50.7658 14.5548 50.5957 14.5933C50.4256 14.6347 50.2188 14.6599 49.9753 14.6688C49.5236 14.6865 49.1276 14.6259 48.7873 14.4868C48.45 14.3477 48.1875 14.1317 47.9997 13.8387C47.812 13.5457 47.7196 13.1758 47.7225 12.729V6.12385Z" fill="#1D252C"/>
<path d="M54.0167 14.7043C53.5855 14.7043 53.2012 14.6288 52.8639 14.4779C52.5265 14.324 52.2596 14.0976 52.0631 13.7987C51.8695 13.4969 51.7727 13.1211 51.7727 12.6713C51.7727 12.2925 51.8416 11.9743 51.9795 11.7169C52.1173 11.4594 52.3051 11.2523 52.5427 11.0954C52.7803 10.9386 53.0501 10.8202 53.3523 10.7403C53.6573 10.6604 53.9771 10.6042 54.3115 10.5716C54.7045 10.5302 55.0213 10.4917 55.2618 10.4562C55.5024 10.4178 55.6769 10.3615 55.7854 10.2876C55.894 10.2136 55.9482 10.1041 55.9482 9.95907V9.93244C55.9482 9.65131 55.8602 9.4338 55.6842 9.27992C55.5112 9.12604 55.2648 9.04909 54.9451 9.04909C54.6077 9.04909 54.3393 9.12456 54.1399 9.27548C53.9404 9.42344 53.8084 9.60988 53.7439 9.83478L52.0103 9.69274C52.0983 9.27844 52.2713 8.92037 52.5295 8.61852C52.7876 8.31371 53.1205 8.07993 53.5283 7.91717C53.9389 7.75145 54.4141 7.66859 54.9539 7.66859C55.3293 7.66859 55.6886 7.71298 56.0318 7.80176C56.378 7.89054 56.6845 8.02814 56.9514 8.21458C57.2213 8.40101 57.434 8.64071 57.5894 8.93368C57.7449 9.22369 57.8226 9.57141 57.8226 9.97683V14.5756H56.045V13.6301H55.9922C55.8837 13.8431 55.7385 14.031 55.5566 14.1938C55.3748 14.3536 55.1563 14.4794 54.9011 14.5711C54.6459 14.6599 54.3511 14.7043 54.0167 14.7043ZM54.5535 13.3992C54.8292 13.3992 55.0726 13.3445 55.2838 13.235C55.495 13.1225 55.6608 12.9716 55.781 12.7822C55.9013 12.5928 55.9614 12.3783 55.9614 12.1386V11.415C55.9028 11.4535 55.8221 11.489 55.7194 11.5216C55.6197 11.5512 55.5068 11.5793 55.3806 11.6059C55.2545 11.6296 55.1284 11.6518 55.0023 11.6725C54.8761 11.6903 54.7617 11.7065 54.6591 11.7213C54.4391 11.7539 54.2469 11.8057 54.0827 11.8767C53.9184 11.9477 53.7908 12.0439 53.6999 12.1652C53.6089 12.2836 53.5635 12.4316 53.5635 12.6091C53.5635 12.8666 53.6559 13.0634 53.8407 13.1995C54.0284 13.3327 54.266 13.3992 54.5535 13.3992Z" fill="#1D252C"/>
<path d="M59.2768 14.5756V7.75737H61.094V8.947H61.1644C61.2876 8.52382 61.4944 8.20422 61.7848 7.98819C62.0752 7.76921 62.4096 7.65971 62.788 7.65971C62.8818 7.65971 62.983 7.66563 63.0916 7.67747C63.2001 7.68931 63.2954 7.70558 63.3776 7.7263V9.40421C63.2896 9.37757 63.1678 9.3539 63.0124 9.33319C62.8569 9.31247 62.7146 9.30211 62.5856 9.30211C62.3098 9.30211 62.0635 9.36278 61.8464 9.48411C61.6323 9.60248 61.4621 9.7682 61.336 9.98127C61.2128 10.1943 61.1512 10.44 61.1512 10.7181V14.5756H59.2768Z" fill="#1D252C"/>
</g>
<defs>
<clipPath id="clip0_112_1073">
<rect width="88" height="20" fill="white" transform="translate(0.933594)"/>
</clipPath>
<clipPath id="clip1_112_1073">
<rect width="19.8244" height="20" fill="white" transform="translate(69.1094)"/>
</clipPath>
</defs>
</svg>
