<svg width="129" height="108" viewBox="0 0 129 108" fill="none" xmlns="http://www.w3.org/2000/svg">
<path d="M125.822 86.4H110.775C109.02 86.4 107.499 85.059 107.499 83.2874V24.9C107.499 23.1284 106.177 21.6 104.422 21.6H89.375C87.6197 21.6 85.9992 20.0716 85.9992 18.3V3.11262C85.9992 1.34101 84.7769 0 83.0216 0H24.5769C22.8217 0 21.4998 1.52839 21.4998 3.3V18.4874C21.4998 20.259 19.9788 21.6 18.2236 21.6H3.17666C1.42143 21.6 0 23.0347 0 24.8063V83.1937C0 84.9653 1.42143 86.4 3.17666 86.4H18.2236C19.9788 86.4 21.4998 87.9284 21.4998 89.7V104.887C21.4998 106.659 22.8217 108 24.5769 108H83.0216C84.7769 108 85.9992 106.472 85.9992 104.7V89.5126C85.9992 87.741 87.6197 86.4 89.375 86.4H104.422C106.177 86.4 107.499 87.9284 107.499 89.7V104.887C107.499 106.659 109.02 108 110.775 108H125.822C127.577 108 128.999 106.565 128.999 104.794V89.6063C128.999 87.8347 127.577 86.4 125.822 86.4ZM83.0216 86.4H24.5769C22.8217 86.4 21.4998 85.059 21.4998 83.2874V24.9C21.4998 23.1284 22.8217 21.6 24.5769 21.6H83.0216C84.7769 21.6 85.9992 22.941 85.9992 24.7126V83.1C85.9992 84.8716 84.7769 86.4 83.0216 86.4Z" fill="#FDE967"/>
<g clip-path="url(#clip0_112_147)">
<path d="M40.9614 61.1032L43.6329 59.561C43.7776 59.4774 43.9474 59.4484 44.1117 59.4791L49.368 60.4629C49.7999 60.5437 50.1987 60.2112 50.1967 59.7717L50.1763 55.1662C50.1757 55.0411 50.2087 54.9181 50.2718 54.8101L52.9244 50.2687C53.0625 50.0323 53.0501 49.7372 52.8928 49.5132L48.4265 43.156M63.8003 46.0027C56.1003 49.7001 60.3001 54.6001 61.7003 55.3001C64.3282 56.6138 67.9827 56.7 67.9827 56.7C67.9941 56.4681 68 56.2347 68 56C68 48.268 61.732 42 54 42C46.268 42 40 48.268 40 56C40 63.732 46.268 70 54 70C54.2347 70 54.4681 69.9942 54.7 69.9828M60 70L55.5665 58.3117L67.2548 62.7452L62.0718 64.817L60 70Z" stroke="#1D252C" stroke-width="3.99998" stroke-linejoin="round"/>
</g>
<defs>
<clipPath id="clip0_112_147">
<rect width="32" height="32" fill="white" transform="translate(38 40)"/>
</clipPath>
</defs>
</svg>
