<svg width="212" height="48" viewBox="0 0 212 48" fill="none" xmlns="http://www.w3.org/2000/svg">
<g clip-path="url(#clip0_4470_3699)">
<path d="M7.89844 33.8547C9.07676 35.3599 10.1492 36.9456 11.108 38.6C11.9265 40.1561 12.2678 41.2112 12.8661 43.0861C13.2329 44.1218 13.5645 44.431 14.2774 44.431C15.0544 44.431 15.4068 43.905 15.6791 43.0917C16.2446 41.3212 16.6884 39.9698 17.3884 38.6932C18.7621 36.2282 20.469 34.0377 22.1462 31.9324C22.6004 31.3367 25.5359 27.8656 26.8576 25.1267C26.8576 25.1267 28.4819 22.1181 28.4819 17.9164C28.4819 13.986 26.88 11.26 26.88 11.26L22.268 12.4981L19.4669 19.8932L18.7741 20.9129L18.6355 21.0976L18.4513 21.3288L18.1277 21.6982L17.6655 22.1615L15.1713 24.1985L8.9357 27.8078L7.89844 33.8547Z" fill="#34A853"/>
<path d="M1.46094 24.6209C2.98279 28.1057 5.91757 31.1689 7.90319 33.8571L18.4497 21.3337C18.4497 21.3337 16.9638 23.2816 14.2686 23.2816C11.2665 23.2816 8.84114 20.8784 8.84114 17.8482C8.84114 15.7702 10.0883 14.3425 10.0883 14.3425L2.92913 16.2656L1.46094 24.6209Z" fill="#FBBC04"/>
<path d="M18.5611 4.24396C22.0637 5.3761 25.0618 7.7528 26.8752 11.2576L18.4465 21.3265C18.4465 21.3265 19.6937 19.8731 19.6937 17.808C19.6937 14.707 17.0889 12.3906 14.275 12.3906C11.6142 12.3906 10.0859 14.3353 10.0859 14.3353V7.99207L18.5611 4.24396Z" fill="#4285F4"/>
<path d="M3.39062 8.69301C5.48278 6.18383 9.16407 3.59998 14.2391 3.59998C16.7013 3.59998 18.5563 4.24795 18.5563 4.24795L10.082 14.3409H4.07786L3.39062 8.69301Z" fill="#1A73E8"/>
<path d="M1.4548 24.6209C1.4548 24.6209 0.0546875 21.8725 0.0546875 17.8907C0.0546875 14.1273 1.51407 10.8377 3.38675 8.69305L10.0829 14.3417L1.4548 24.6209Z" fill="#EA4335"/>
<path d="M145.542 36.7172V15.2571H148.293L155.738 28.3249H155.858L163.303 15.2571H166.053V36.7172H163.303V23.9786L163.423 20.3814H163.303L156.607 32.1605H154.993L148.297 20.3814H148.176L148.297 23.9786V36.7164L145.542 36.7172ZM174.095 37.1668C172.541 37.1668 171.24 36.7172 170.194 35.8179C169.149 34.9186 168.625 33.7302 168.625 32.2512C168.625 30.6454 169.241 29.3992 170.478 28.4895C171.715 27.5797 173.238 27.1261 175.044 27.1261C176.658 27.1261 177.983 27.4256 179.02 28.0254V27.6054C179.02 26.5263 178.652 25.6623 177.915 25.0136C177.178 24.3648 176.271 24.0396 175.193 24.0396C174.396 24.0396 173.675 24.2291 173.027 24.6016C172.379 24.9742 171.936 25.5009 171.697 26.1593L169.185 25.081C169.524 24.2018 170.192 23.3948 171.188 22.6385C172.183 21.8821 173.499 21.5143 175.134 21.5143C177.008 21.5143 178.562 22.0644 179.798 23.1628C181.034 24.2612 181.652 25.8109 181.652 27.8094V36.6891H179.021V34.6496H178.901C177.804 36.3358 176.199 37.1668 174.095 37.1668ZM174.544 34.6496C175.68 34.6496 176.71 34.2241 177.638 33.3761C178.565 32.5282 179.028 31.5294 179.028 30.3651C178.251 29.7252 177.085 29.4056 175.531 29.4056C174.195 29.4056 173.188 29.6947 172.511 30.2752C171.834 30.8557 171.494 31.5342 171.494 32.3131C171.494 33.0325 171.803 33.6018 172.42 34.0217C173.038 34.4416 173.746 34.6512 174.543 34.6512L174.544 34.6496ZM191.959 37.1668C190.843 37.1668 189.841 36.9259 188.955 36.4474C188.069 35.9688 187.405 35.3682 186.969 34.6488H186.848L186.969 36.6867V43.1607H184.218V22.0017H186.85V24.0396H186.97C187.408 23.3202 188.071 22.7212 188.957 22.241C189.842 21.7608 190.845 21.5216 191.96 21.5216C193.854 21.5216 195.489 22.2707 196.864 23.7698C198.239 25.2689 198.927 27.1261 198.927 29.3446C198.927 31.5631 198.238 33.4211 196.864 34.9194C195.489 36.4177 193.854 37.1676 191.96 37.1676L191.959 37.1668ZM191.51 34.6496C192.786 34.6496 193.881 34.1646 194.799 33.2043C195.717 32.244 196.174 30.9513 196.174 29.3526C196.174 27.754 195.716 26.4621 194.799 25.5009C193.882 24.5398 192.785 24.0556 191.51 24.0556C190.215 24.0556 189.113 24.535 188.206 25.4945C187.299 26.454 186.847 27.7427 186.847 29.3607C186.847 30.9786 187.3 32.2673 188.206 33.2268C189.112 34.1863 190.214 34.6657 191.51 34.6657V34.6496ZM206.236 37.1668C204.602 37.1668 203.252 36.767 202.185 35.968C201.118 35.1691 200.342 34.1694 199.838 32.9707L202.289 31.9509C203.066 33.7977 204.392 34.7074 206.266 34.7074C207.124 34.7074 207.827 34.5179 208.375 34.1454C208.923 33.7728 209.197 33.2661 209.197 32.6471C209.197 31.6884 208.529 31.038 207.193 30.6992L204.234 29.9805C203.296 29.7412 202.41 29.286 201.573 28.6171C200.736 27.9483 200.317 27.0434 200.317 25.9056C200.317 24.6073 200.889 23.553 202.036 22.742C203.182 21.9311 204.543 21.528 206.117 21.528C207.412 21.528 208.568 21.8227 209.585 22.4112C210.582 22.9781 211.353 23.8727 211.768 24.9437L209.375 25.9329C208.838 24.6346 207.721 23.985 206.027 23.985C205.21 23.985 204.521 24.1552 203.964 24.494C203.408 24.8329 203.127 25.2938 203.127 25.8735C203.127 26.7126 203.768 27.2818 205.071 27.5821L207.97 28.2711C209.345 28.5906 210.362 29.1406 211.019 29.9195C211.677 30.6983 212.006 31.5784 212.006 32.558C212.006 33.8764 211.468 34.9668 210.391 35.8548C209.315 36.7429 207.93 37.1732 206.226 37.1732L206.236 37.1668ZM64.0314 23.9224H52.7488V27.2786H60.7586C60.3637 31.9839 56.4574 33.9912 52.7705 33.9912C51.6022 33.9965 50.4446 33.7685 49.3652 33.3203C48.2858 32.8722 47.3063 32.213 46.4839 31.3811C45.6615 30.5493 45.0126 29.5616 44.5753 28.4756C44.1379 27.3896 43.9207 26.2272 43.9365 25.0561C43.9365 19.9759 47.8597 16.0632 52.7793 16.0632C56.5759 16.0632 58.8106 18.4897 58.8106 18.4897L61.1551 16.0568C61.1551 16.0568 58.1458 12.7005 52.6591 12.7005C45.6722 12.7005 40.2656 18.6125 40.2656 24.9983C40.2656 31.2548 45.3518 37.3579 52.8378 37.3579C59.4218 37.3579 64.2437 32.8358 64.2437 26.1489C64.2437 24.7389 64.0394 23.9232 64.0394 23.9232L64.0314 23.9224Z" fill="#767676"/>
<path d="M73.291 21.5352C68.6614 21.5352 65.3438 25.1628 65.3438 29.3943C65.3438 33.6884 68.5621 37.3836 73.3535 37.3836C77.6844 37.3836 81.2319 34.0658 81.2319 29.4859C81.2319 24.2371 77.1045 21.5336 73.299 21.5336L73.291 21.5352ZM73.3367 24.6482C75.6139 24.6482 77.7709 26.4933 77.7709 29.4658C77.7709 32.3756 75.6219 34.2754 73.3255 34.2754C70.8024 34.2754 68.812 32.2496 68.812 29.4441C68.812 26.6997 70.7784 24.649 73.3359 24.649L73.3367 24.6482Z" fill="#767676"/>
<path d="M90.4864 21.5352C85.8567 21.5352 82.5391 25.1628 82.5391 29.3943C82.5391 33.6884 85.7574 37.3836 90.5488 37.3836C94.8797 37.3836 98.4272 34.0658 98.4272 29.4859C98.4272 24.2371 94.2998 21.5336 90.4944 21.5336L90.4864 21.5352ZM90.532 24.6482C92.8092 24.6482 94.9662 26.4933 94.9662 29.4658C94.9662 32.3756 92.8172 34.2754 90.5208 34.2754C87.9977 34.2754 86.0073 32.2496 86.0073 29.4441C86.0073 26.6997 87.9737 24.649 90.5312 24.649L90.532 24.6482Z" fill="#767676"/>
<path d="M107.434 21.5352C103.185 21.5352 99.8438 25.2665 99.8438 29.4538C99.8438 34.2232 103.716 37.3868 107.359 37.3868C109.612 37.3868 110.81 36.4899 111.696 35.4598V37.0223C111.696 39.7563 110.039 41.3943 107.531 41.3943C105.116 41.3943 103.906 39.5941 103.484 38.5728L100.446 39.8462C101.524 42.1306 103.693 44.5137 107.557 44.5137C111.782 44.5137 115.003 41.8463 115.003 36.2434V22.0073H111.689V23.3499C110.67 22.2498 109.276 21.5312 107.427 21.5312L107.434 21.5352ZM107.741 24.6426C109.826 24.6426 111.964 26.4251 111.964 29.4706C111.964 32.5668 109.83 34.2722 107.695 34.2722C105.43 34.2722 103.322 32.4287 103.322 29.4996C103.322 26.4484 105.51 24.6418 107.741 24.6418V24.6426ZM129.795 21.5352C125.787 21.5352 122.421 24.7309 122.421 29.4498C122.421 34.4408 126.172 37.4021 130.18 37.4021C133.525 37.4021 135.579 35.5674 136.802 33.9237L134.079 32.1011C133.37 33.2043 132.184 34.2835 130.206 34.2835C127.984 34.2835 126.962 33.063 126.33 31.8811L136.93 27.4649L136.38 26.1802C135.354 23.6494 132.966 21.536 129.811 21.536L129.795 21.5352ZM129.933 24.5832C131.378 24.5832 132.416 25.354 132.859 26.2758L125.78 29.2418C125.476 26.9454 127.644 24.5832 129.933 24.5832ZM117.358 36.9299H120.839V13.5645H117.358V36.9299Z" fill="#767676"/>
</g>
<defs>
<clipPath id="clip0_4470_3699">
<rect width="212" height="48" fill="white"/>
</clipPath>
</defs>
</svg>
