<svg width="129" height="108" viewBox="0 0 129 108" fill="none" xmlns="http://www.w3.org/2000/svg">
<path d="M125.822 86.4H110.775C109.02 86.4 107.499 85.059 107.499 83.2874V24.9C107.499 23.1284 106.177 21.6 104.422 21.6H89.375C87.6197 21.6 85.9992 20.0716 85.9992 18.3V3.11262C85.9992 1.34101 84.7769 0 83.0217 0H24.5769C22.8217 0 21.4998 1.52839 21.4998 3.3V18.4874C21.4998 20.259 19.9788 21.6 18.2236 21.6H3.17666C1.42143 21.6 0 23.0347 0 24.8063V83.1937C0 84.9653 1.42143 86.4 3.17666 86.4H18.2236C19.9788 86.4 21.4998 87.9284 21.4998 89.7V104.887C21.4998 106.659 22.8217 108 24.5769 108H83.0217C84.7769 108 85.9992 106.472 85.9992 104.7V89.5126C85.9992 87.741 87.6197 86.4 89.375 86.4H104.422C106.177 86.4 107.499 87.9284 107.499 89.7V104.887C107.499 106.659 109.02 108 110.775 108H125.822C127.577 108 128.999 106.565 128.999 104.794V89.6063C128.999 87.8347 127.577 86.4 125.822 86.4ZM83.0217 86.4H24.5769C22.8217 86.4 21.4998 85.059 21.4998 83.2874V24.9C21.4998 23.1284 22.8217 21.6 24.5769 21.6H83.0217C84.7769 21.6 85.9992 22.941 85.9992 24.7126V83.1C85.9992 84.8716 84.7769 86.4 83.0217 86.4Z" fill="#E3E5E9"/>
<path d="M39 46V68H69V46H39Z" stroke="#212121" stroke-width="4" stroke-linecap="round" stroke-linejoin="round"/>
<path d="M54 60C55.6568 60 57 58.6568 57 57C57 55.3432 55.6568 54 54 54C52.3432 54 51 55.3432 51 57C51 58.6568 52.3432 60 54 60Z" stroke="#212121" stroke-width="4" stroke-linecap="round" stroke-linejoin="round"/>
<path d="M45 62H47" stroke="#212121" stroke-width="4" stroke-linecap="round" stroke-linejoin="round"/>
<path d="M61 52H63" stroke="#212121" stroke-width="4" stroke-linecap="round" stroke-linejoin="round"/>
<path d="M43 39H65" stroke="#212121" stroke-width="4" stroke-linecap="round" stroke-linejoin="round"/>
</svg>
