<svg width="129" height="108" viewBox="0 0 129 108" fill="none" xmlns="http://www.w3.org/2000/svg">
<path d="M125.822 86.4H110.775C109.02 86.4 107.499 85.059 107.499 83.2874V24.9C107.499 23.1284 106.177 21.6 104.422 21.6H89.375C87.6197 21.6 85.9992 20.0716 85.9992 18.3V3.11262C85.9992 1.34101 84.7769 0 83.0217 0H24.5769C22.8217 0 21.4998 1.52839 21.4998 3.3V18.4874C21.4998 20.259 19.9788 21.6 18.2236 21.6H3.17666C1.42143 21.6 0 23.0347 0 24.8063V83.1937C0 84.9653 1.42143 86.4 3.17666 86.4H18.2236C19.9788 86.4 21.4998 87.9284 21.4998 89.7V104.887C21.4998 106.659 22.8217 108 24.5769 108H83.0217C84.7769 108 85.9992 106.472 85.9992 104.7V89.5126C85.9992 87.741 87.6197 86.4 89.375 86.4H104.422C106.177 86.4 107.499 87.9284 107.499 89.7V104.887C107.499 106.659 109.02 108 110.775 108H125.822C127.577 108 128.999 106.565 128.999 104.794V89.6063C128.999 87.8347 127.577 86.4 125.822 86.4ZM83.0217 86.4H24.5769C22.8217 86.4 21.4998 85.059 21.4998 83.2874V24.9C21.4998 23.1284 22.8217 21.6 24.5769 21.6H83.0217C84.7769 21.6 85.9992 22.941 85.9992 24.7126V83.1C85.9992 84.8716 84.7769 86.4 83.0217 86.4Z" fill="#E3E5E9"/>
<path d="M54 56C55.1046 56 56 55.1046 56 54C56 52.8954 55.1046 52 54 52C52.8954 52 52 52.8954 52 54C52 55.1046 52.8954 56 54 56Z" fill="#1D252C"/>
<path d="M61.8532 67C66.1364 64.336 69 59.5761 69 54.1284C69 45.7734 62.2841 39 54 39C45.7159 39 39 45.7734 39 54.1284C39 59.5761 41.8636 64.336 46.1468 67" stroke="#1D252C" stroke-width="4" stroke-linecap="square" stroke-linejoin="round"/>
<path d="M58.188 61C60.472 59.5723 62 57.0221 62 54.1045C62 49.6281 58.4187 46 54 46C49.5813 46 46 49.6281 46 54.1045C46 57.0221 47.528 59.5723 49.812 61" stroke="#1D252C" stroke-width="4" stroke-linecap="square" stroke-linejoin="round"/>
</svg>
