<svg width="129" height="108" viewBox="0 0 129 108" fill="none" xmlns="http://www.w3.org/2000/svg">
<path d="M125.822 86.4H110.775C109.02 86.4 107.499 85.059 107.499 83.2874V24.9C107.499 23.1284 106.177 21.6 104.422 21.6H89.375C87.6197 21.6 85.9992 20.0716 85.9992 18.3V3.11262C85.9992 1.34101 84.7769 0 83.0217 0H24.5769C22.8217 0 21.4998 1.52839 21.4998 3.3V18.4874C21.4998 20.259 19.9788 21.6 18.2236 21.6H3.17666C1.42143 21.6 0 23.0347 0 24.8063V83.1937C0 84.9653 1.42143 86.4 3.17666 86.4H18.2236C19.9788 86.4 21.4998 87.9284 21.4998 89.7V104.887C21.4998 106.659 22.8217 108 24.5769 108H83.0217C84.7769 108 85.9992 106.472 85.9992 104.7V89.5126C85.9992 87.741 87.6197 86.4 89.375 86.4H104.422C106.177 86.4 107.499 87.9284 107.499 89.7V104.887C107.499 106.659 109.02 108 110.775 108H125.822C127.577 108 128.999 106.565 128.999 104.794V89.6063C128.999 87.8347 127.577 86.4 125.822 86.4ZM83.0217 86.4H24.5769C22.8217 86.4 21.4998 85.059 21.4998 83.2874V24.9C21.4998 23.1284 22.8217 21.6 24.5769 21.6H83.0217C84.7769 21.6 85.9992 22.941 85.9992 24.7126V83.1C85.9992 84.8716 84.7769 86.4 83.0217 86.4Z" fill="#E3E5E9"/>
<path d="M53.25 43.5H53.9016C58.4725 43.5 60.7579 43.5 61.6255 44.3209C62.3754 45.0306 62.7077 46.0759 62.5052 47.0883C62.271 48.2595 60.4052 49.5793 56.6734 52.2188L50.5766 56.5312C46.8449 59.1707 44.979 60.4905 44.7448 61.6617C44.5423 62.6741 44.8746 63.7194 45.6245 64.4291C46.4921 65.25 48.7775 65.25 53.3484 65.25H54.75M48 43.5C48 45.9853 45.9853 48 43.5 48C41.0147 48 39 45.9853 39 43.5C39 41.0147 41.0147 39 43.5 39C45.9853 39 48 41.0147 48 43.5ZM69 64.5C69 66.9853 66.9853 69 64.5 69C62.0147 69 60 66.9853 60 64.5C60 62.0147 62.0147 60 64.5 60C66.9853 60 69 62.0147 69 64.5Z" stroke="#1D252C" stroke-width="3.99998" stroke-linejoin="round"/>
</svg>
