<svg width="177" height="48" viewBox="0 0 177 48" fill="none" xmlns="http://www.w3.org/2000/svg">
<g clip-path="url(#clip0_4470_3721)">
<path fill-rule="evenodd" clip-rule="evenodd" d="M0.757812 16.0357V13.4945C0.757812 12.0911 1.89734 10.9533 3.30294 10.9533H5.84807V13.4945V36.3662H0.757812V16.0357ZM21.526 16.0357H10.9383V10.9533H21.526C28.5549 10.9533 34.2525 16.6421 34.2525 23.6602C34.2525 30.6783 28.5549 36.3671 21.526 36.3671H16.0286H10.9383V22.5241V19.9829H13.4835C14.8891 19.9829 16.0286 21.1207 16.0286 22.5241V26.2006V28.1067V31.229H22.4391C26.226 30.7786 29.1614 27.561 29.1614 23.6594C29.1614 19.449 25.7428 16.0357 21.526 16.0357Z" fill="#F27405"/>
<path d="M51.4153 18.4488C51.3198 17.4839 50.9084 16.7349 50.182 16.2011C49.4555 15.6672 48.4697 15.3998 47.2246 15.3998C46.3782 15.3998 45.6636 15.5196 45.0816 15.7583C44.4987 15.9894 44.0519 16.3124 43.7402 16.7265C43.4369 17.1406 43.2849 17.6112 43.2849 18.1375C43.2688 18.5761 43.3609 18.9582 43.5602 19.2854C43.768 19.6127 44.051 19.8952 44.4109 20.1339C44.7699 20.365 45.1855 20.5683 45.656 20.7437C46.1273 20.9107 46.6299 21.0541 47.1646 21.1738L49.3677 21.7001C50.4371 21.9397 51.4195 22.2585 52.3132 22.6566C53.2069 23.0546 53.9815 23.5455 54.6362 24.1275C55.2908 24.7094 55.7976 25.3951 56.1566 26.1837C56.5241 26.9732 56.7116 27.8773 56.7192 28.8978C56.7116 30.3966 56.3281 31.6954 55.5696 32.7952C54.8195 33.8875 53.7332 34.7359 52.3123 35.3415C50.8991 35.9395 49.1953 36.2381 47.1993 36.2381C45.2193 36.2381 43.4952 35.9353 42.0262 35.3297C40.5657 34.7241 39.4237 33.8276 38.6017 32.6401C37.7874 31.4441 37.3609 29.9664 37.3203 28.2045H42.3371C42.3928 29.0252 42.6285 29.7109 43.0433 30.2608C43.4665 30.8031 44.0291 31.213 44.7319 31.4922C45.4423 31.7629 46.2447 31.8987 47.1385 31.8987C48.0161 31.8987 48.7789 31.7713 49.4251 31.5158C50.0798 31.2611 50.5866 30.906 50.9456 30.4514C51.3046 29.9968 51.4845 29.4747 51.4845 28.8852C51.4845 28.3353 51.3206 27.8731 50.9937 27.4986C50.6744 27.1241 50.2031 26.8053 49.5805 26.5422C48.9656 26.279 48.2112 26.0403 47.3175 25.8253L44.6474 25.1556C42.5795 24.6538 40.9475 23.8685 39.7497 22.7999C38.5519 21.7322 37.9572 20.2933 37.9657 18.4842C37.9581 17.0015 38.3526 15.7068 39.1508 14.5986C39.9567 13.4903 41.0624 12.6258 42.4672 12.0042C43.8719 11.3826 45.4684 11.0714 47.2567 11.0714C49.0771 11.0714 50.6651 11.3818 52.0226 12.0042C53.3877 12.6258 54.4495 13.4903 55.208 14.5986C55.9666 15.7068 56.3577 16.9897 56.3813 18.4479H51.4153V18.4488Z" fill="black"/>
<path d="M67.7481 36.2499C65.8644 36.2499 64.2434 35.8518 62.8868 35.0547C61.5378 34.2493 60.4996 33.1334 59.7732 31.7072C59.0543 30.2802 58.6953 28.6389 58.6953 26.7817C58.6953 24.9009 59.0585 23.2512 59.785 21.8317C60.519 20.4046 61.5614 19.293 62.9104 18.496C64.2595 17.6905 65.8644 17.2882 67.7236 17.2882C69.3286 17.2882 70.7334 17.5792 71.9388 18.1611C73.1442 18.7431 74.0979 19.5595 74.8007 20.6121C75.5026 21.6638 75.8904 22.8994 75.9622 24.3181H71.1481C71.013 23.4013 70.654 22.6641 70.0711 22.1066C69.4959 21.5407 68.7415 21.2582 67.8081 21.2582C67.0175 21.2582 66.3273 21.4732 65.736 21.9042C65.154 22.3268 64.6987 22.9441 64.371 23.7572C64.0441 24.5703 63.8802 25.5545 63.8802 26.71C63.8802 27.8815 64.0398 28.8776 64.3591 29.6991C64.686 30.5197 65.1456 31.1455 65.736 31.5765C66.3273 32.0066 67.0175 32.2217 67.8081 32.2217C68.3901 32.2217 68.913 32.1019 69.3767 31.8633C69.8473 31.6237 70.2341 31.2771 70.5382 30.8233C70.8491 30.3611 71.0527 29.807 71.1481 29.1618H75.9622C75.8819 30.5644 75.4993 31.8 74.8125 32.8678C74.1342 33.9279 73.1957 34.757 71.9987 35.3542C70.8009 35.9513 69.3844 36.2499 67.7481 36.2499Z" fill="black"/>
<path d="M83.8018 36.2381C82.6285 36.2381 81.5827 36.0348 80.6653 35.6283C79.7471 35.2141 79.0207 34.6044 78.486 33.7989C77.9589 32.9858 77.6953 31.9737 77.6953 30.7626C77.6953 29.7421 77.8828 28.886 78.2579 28.1919C78.6329 27.4986 79.144 26.9402 79.791 26.5177C80.4373 26.0951 81.1722 25.7763 81.9941 25.5613C82.8244 25.3462 83.6945 25.1944 84.6042 25.1067C85.6737 24.9953 86.5361 24.8916 87.1908 24.7954C87.8454 24.6917 88.3202 24.5407 88.6158 24.3408C88.9106 24.1418 89.0584 23.8466 89.0584 23.4561V23.3844C89.0584 22.627 88.8194 22.0417 88.3404 21.6267C87.8691 21.2126 87.1984 21.0051 86.3283 21.0051C85.411 21.0051 84.6803 21.2084 84.1371 21.6149C83.5948 22.0139 83.235 22.5157 83.0601 23.1213L78.3424 22.74C78.5814 21.6242 79.0528 20.6602 79.7547 19.8471C80.4575 19.0265 81.3631 18.3965 82.473 17.9579C83.5906 17.5117 84.8839 17.2882 86.3528 17.2882C87.3741 17.2882 88.3523 17.408 89.2865 17.6467C90.2284 17.8853 91.0621 18.2564 91.7886 18.7583C92.5235 19.2601 93.1021 19.9062 93.5253 20.6948C93.9477 21.4758 94.1597 22.412 94.1597 23.5042V35.8897H89.322V33.3435H89.1784C88.8827 33.917 88.4883 34.423 87.9932 34.8616C87.4982 35.2917 86.9036 35.6308 86.2092 35.8779C85.514 36.1183 84.7124 36.2381 83.8018 36.2381ZM85.2631 32.7235C86.0132 32.7235 86.6755 32.5759 87.2507 32.2816C87.8251 31.9788 88.2762 31.5723 88.604 31.062C88.9309 30.5518 89.0948 29.974 89.0948 29.3288V27.3788C88.9351 27.4826 88.7155 27.5779 88.4359 27.6656C88.1647 27.7449 87.8573 27.8208 87.5143 27.8925C87.1705 27.9566 86.8275 28.0156 86.4846 28.0721C86.1408 28.1202 85.8299 28.164 85.5503 28.2037C84.9514 28.2914 84.4285 28.4306 83.9817 28.622C83.5348 28.8135 83.1877 29.0724 82.9402 29.3988C82.6927 29.7176 82.5685 30.1157 82.5685 30.5939C82.5685 31.2872 82.8202 31.8177 83.3228 32.1838C83.8339 32.5439 84.4809 32.7235 85.2631 32.7235Z" fill="black"/>
<path d="M102.531 25.2745V35.8906H97.4297V17.5277H102.291V20.7673H102.507C102.914 19.6995 103.596 18.8544 104.554 18.2328C105.512 17.6028 106.673 17.2882 108.038 17.2882C109.316 17.2882 110.43 17.5674 111.379 18.1249C112.33 18.6832 113.068 19.4802 113.595 20.516C114.121 21.5441 114.385 22.7712 114.385 24.1983V35.8906H109.284V25.1075C109.292 23.9832 109.005 23.1069 108.422 22.4769C107.839 21.8393 107.037 21.5205 106.015 21.5205C105.329 21.5205 104.722 21.6681 104.195 21.9624C103.676 22.2576 103.269 22.6878 102.974 23.2537C102.686 23.812 102.539 24.4859 102.531 25.2745Z" fill="black"/>
<path d="M120.71 36.2018C119.919 36.2018 119.241 35.9226 118.674 35.3651C118.115 34.7992 117.836 34.1219 117.836 33.3325C117.836 32.5515 118.115 31.8818 118.674 31.3243C119.241 30.766 119.919 30.4877 120.71 30.4877C121.476 30.4877 122.147 30.7668 122.721 31.3243C123.295 31.8818 123.583 32.5515 123.583 33.3325C123.583 33.8588 123.447 34.3404 123.176 34.779C122.913 35.2091 122.566 35.5558 122.134 35.8189C121.703 36.0745 121.228 36.2018 120.71 36.2018Z" fill="black"/>
<path d="M132.203 25.2745V35.8906H127.102V17.5277H131.963V20.7673H132.178C132.585 19.6995 133.268 18.8544 134.226 18.2328C135.184 17.6028 136.345 17.2882 137.71 17.2882C138.988 17.2882 140.101 17.5674 141.051 18.1249C142.002 18.6832 142.74 19.4802 143.266 20.516C143.793 21.5441 144.057 22.7712 144.057 24.1983V35.8906H138.955V25.1075C138.964 23.9832 138.677 23.1069 138.094 22.4769C137.511 21.8393 136.709 21.5205 135.687 21.5205C135.001 21.5205 134.394 21.6681 133.867 21.9624C133.348 22.2576 132.941 22.6878 132.645 23.2537C132.358 23.812 132.21 24.4859 132.203 25.2745Z" fill="black"/>
<path d="M164.23 28.0131V26.6138C164.23 25.0518 164.01 23.6889 163.571 22.525C163.132 21.3535 162.518 20.381 161.727 19.6076C160.945 18.8342 160.027 18.2564 158.973 17.8744C157.928 17.4839 156.798 17.2882 155.584 17.2882C153.781 17.2882 152.208 17.6871 150.867 18.4833C149.534 19.2804 148.5 20.392 147.766 21.819C147.032 23.2461 146.664 24.9034 146.664 26.7927C146.664 28.7291 147.032 30.4075 147.766 31.8262C148.5 33.2372 149.545 34.3286 150.903 35.102C152.268 35.867 153.897 36.2499 155.788 36.2499C157.305 36.2499 158.642 36.0188 159.799 35.5566C160.965 35.0868 161.915 34.4331 162.649 33.5956C163.392 32.7505 163.883 31.7621 164.122 30.631L159.404 30.3207C159.228 30.7828 158.973 31.1733 158.638 31.4922C158.303 31.811 157.9 32.0497 157.428 32.2099C156.958 32.3693 156.439 32.4486 155.872 32.4486C155.017 32.4486 154.279 32.2689 153.657 31.9105C153.034 31.552 152.551 31.0418 152.208 30.3805C151.873 29.7193 151.705 28.9341 151.705 28.0249V28.0131H164.23ZM153.609 21.6284C154.207 21.27 154.894 21.0903 155.669 21.0903C156.41 21.0903 157.062 21.2539 157.62 21.5803C158.187 21.8992 158.63 22.342 158.95 22.907C159.269 23.473 159.429 24.1224 159.429 24.8553H151.717C151.748 24.1966 151.911 23.5936 152.22 23.0504C152.555 22.4533 153.018 21.9793 153.609 21.6284Z" fill="black"/>
<path d="M176.203 31.8742C176.075 31.8978 175.892 31.9341 175.652 31.9822C175.413 32.0218 175.173 32.0421 174.934 32.0421C174.59 32.0421 174.287 31.9906 174.023 31.8869C173.768 31.7831 173.569 31.6043 173.425 31.3488C173.282 31.0856 173.21 30.7187 173.21 30.249V21.3535H176.67V17.5277H173.21V13.1285H168.108V17.5277H165.594V21.3535H168.108V30.9178C168.1 32.1213 168.352 33.1174 168.863 33.9069C169.374 34.6954 170.088 35.2774 171.006 35.6527C171.933 36.0272 173.01 36.1908 174.239 36.1427C174.902 36.1191 175.464 36.0508 175.927 35.9395C176.39 35.8357 176.75 35.7447 177.005 35.6645L176.203 31.8742Z" fill="black"/>
</g>
<defs>
<clipPath id="clip0_4470_3721">
<rect width="177" height="48" fill="white"/>
</clipPath>
</defs>
</svg>
