<svg width="188" height="48" viewBox="0 0 188 48" fill="none" xmlns="http://www.w3.org/2000/svg">
<g clip-path="url(#clip0_4470_3459)">
<path d="M21.4528 42.8104C33.2983 42.8104 42.9057 33.2243 42.9057 21.4052C42.9057 9.58609 33.2983 0 21.4528 0C9.60742 0 0 9.58609 0 21.4052C0 33.2243 9.60044 42.8104 21.4528 42.8104Z" fill="#2CA01C"/>
<path d="M14.2986 13.0782C9.69012 13.0782 5.95312 16.8069 5.95312 21.4052C5.95312 26.0035 9.68315 29.7252 14.2986 29.7252H15.4908V26.6365H14.2986C11.4052 26.6365 9.05567 24.2922 9.05567 21.4052C9.05567 18.5182 11.4052 16.1739 14.2986 16.1739H17.1641V32.3478C17.1641 34.0522 18.5515 35.4365 20.2597 35.4365V13.0782H14.2986ZM28.6052 29.7252C33.2136 29.7252 36.9506 25.9965 36.9506 21.4052C36.9506 16.8139 33.2206 13.0852 28.6052 13.0852H27.4129V16.1739H28.6052C31.4985 16.1739 33.8481 18.5182 33.8481 21.4052C33.8481 24.2922 31.4985 26.6365 28.6052 26.6365H25.7397V10.4626C25.7397 8.75825 24.3522 7.3739 22.6441 7.3739V29.7252H28.6052Z" fill="white"/>
<path d="M63.2683 48H59.9497V39.6174H59.8939C59.0363 40.9392 57.3491 41.767 55.4945 41.767C51.4578 41.767 48.9688 38.567 48.9688 34.7061C48.9688 30.8452 51.6251 27.7496 55.4109 27.7496C57.8441 27.7496 59.3361 28.9322 59.9985 29.9826H60.0821V28.1322H63.2614V48H63.2683ZM56.1639 39.0052C58.5971 39.0052 60.0612 36.8278 60.0612 34.7548C60.0612 32.6818 58.5971 30.4487 56.1639 30.4487C53.5982 30.4487 52.3502 32.6261 52.3502 34.6992C52.3502 36.7652 53.5912 39.0052 56.1639 39.0052ZM78.1605 41.3774H75.0092V39.2487H74.9534C74.3747 40.5705 72.799 41.76 70.8329 41.76C67.3748 41.76 65.9386 39.1096 65.9386 36.4105V28.1322H69.2573V35.4713C69.2573 37.0435 69.6128 38.9983 71.7463 38.9983C73.8797 38.9983 74.8418 37.1757 74.8418 35.4157V28.1322H78.1605V41.3705V41.3774ZM81.4931 27.847H84.8118V41.0922H81.4931V27.847ZM97.215 31.8052C96.6921 31.0609 95.5557 30.5044 94.475 30.5044C92.0418 30.5044 90.8217 32.6818 90.8217 34.7548C90.8217 36.8278 92.0697 39.0052 94.5796 39.0052C95.6045 39.0052 96.7339 38.5878 97.3754 37.8226L99.446 39.9165C98.3375 41.0992 96.5108 41.767 94.5517 41.767C90.6265 41.767 87.3636 39.1722 87.3636 34.7618C87.3636 30.3513 90.5707 27.7565 94.468 27.7565C96.4062 27.7565 98.4211 28.5287 99.4739 29.8226L97.208 31.8052H97.215ZM101.119 20.5218H104.438V33.7044H104.522L109.555 28.1322H113.815L108.063 34.1218L114.178 41.3774H109.786L104.529 34.5878H104.445V41.3774H101.126V20.5287L101.119 20.5218ZM119.003 20.5218V29.8226H119.086C119.776 28.967 121.101 27.7565 123.541 27.7565C127.327 27.7565 129.983 30.7896 129.983 34.7131C129.983 38.6365 127.494 41.7739 123.458 41.7739C121.603 41.7739 119.804 40.9183 118.898 39.4018H118.842V41.3913H115.691V20.5287H119.009L119.003 20.5218ZM122.788 30.4557C120.355 30.4557 118.891 32.6887 118.891 34.7618C118.891 36.8348 120.355 39.0122 122.788 39.0122C125.361 39.0122 126.602 36.7792 126.602 34.7061C126.602 32.6331 125.361 30.4557 122.788 30.4557ZM138.629 27.7496C142.638 27.7496 145.845 30.5392 145.845 34.7061C145.845 38.8731 142.638 41.767 138.629 41.767C134.62 41.767 131.413 38.8731 131.413 34.7061C131.413 30.5392 134.62 27.7496 138.629 27.7496ZM138.629 39.0052C141.257 39.0052 142.47 36.7722 142.47 34.6992C142.47 32.6261 141.257 30.4487 138.629 30.4487C136 30.4487 134.787 32.6261 134.787 34.6992C134.787 36.7722 136 39.0052 138.629 39.0052ZM154.511 27.7496C158.52 27.7496 161.727 30.5392 161.727 34.7061C161.727 38.8731 158.52 41.767 154.511 41.767C150.502 41.767 147.295 38.8731 147.295 34.7061C147.295 30.5392 150.502 27.7496 154.511 27.7496ZM154.511 39.0052C157.139 39.0052 158.352 36.7722 158.352 34.6992C158.352 32.6261 157.139 30.4487 154.511 30.4487C151.882 30.4487 150.669 32.6261 150.669 34.6992C150.669 36.7652 151.882 39.0052 154.511 39.0052ZM163.735 20.5218H167.054V33.7044H167.137L172.171 28.1322H176.424L170.679 34.1218L176.786 41.3774H172.394L167.137 34.5878H167.054V41.3774H163.735V20.5287V20.5218ZM185.843 31.6661C185.264 30.8939 184.156 30.2331 182.943 30.2331C181.897 30.2331 180.809 30.6226 180.809 31.6731C180.809 32.7235 181.834 32.9739 183.682 33.4122C185.648 33.8852 187.97 34.7618 187.97 37.3565C187.97 40.5844 185.341 41.7739 182.441 41.7739C180.398 41.7739 178.264 41.0018 176.989 39.5965L179.171 37.5583C179.889 38.4974 181.137 39.2139 182.573 39.2139C183.542 39.2139 184.707 38.8244 184.707 37.6418C184.707 36.5357 183.682 36.2087 181.667 35.7357C179.701 35.2626 177.742 34.4696 177.742 31.9861C177.742 29.0296 180.398 27.7705 183.026 27.7705C184.93 27.7705 186.924 28.4313 188.004 29.7809L185.857 31.687L185.843 31.6661ZM85.3208 10.0591C85.3208 13.4192 88.012 15.8678 91.4352 15.8678C94.8585 15.8678 97.5566 13.4192 97.5566 10.0591V2.35132H94.2379V9.66958C94.2379 11.4783 93.0248 12.6957 91.4282 12.6957C89.8316 12.6957 88.6115 11.4852 88.6115 9.66958V2.35132H85.2998L85.3208 10.0591ZM106.425 5.44698H110.385V15.6035H113.697V5.44698H117.65V2.35132H106.425V5.44698ZM104.278 2.35132H100.966V15.6105H104.278V2.35132ZM71.9415 5.44698H75.9016V15.6035H79.2133V5.44698H83.1664V2.35132H71.9485V5.44698H71.9415ZM54.5533 2.35132H51.2416V15.6105H54.5533V2.35132ZM70.1985 7.89567C70.1985 4.53567 67.5003 2.08698 64.0771 2.08698C60.6538 2.08698 57.9557 4.53567 57.9557 7.89567V15.6035H61.2674V8.28524C61.2674 6.47654 62.4805 5.25915 64.0771 5.25915C65.6737 5.25915 66.8868 6.46958 66.8868 8.28524V15.6035H70.1985V7.89567Z" fill="black"/>
</g>
<defs>
<clipPath id="clip0_4470_3459">
<rect width="188" height="48" fill="white"/>
</clipPath>
</defs>
</svg>
