<svg width="92" height="48" viewBox="0 0 92 48" fill="none" xmlns="http://www.w3.org/2000/svg">
<path fill-rule="evenodd" clip-rule="evenodd" d="M92 24.6355C92 18.1032 88.8318 12.9473 82.7732 12.9473C76.6924 12.9473 73.0106 18.1021 73.0106 24.5833C73.0106 32.2644 77.355 36.1427 83.5903 36.1427C86.6318 36.1427 88.9318 35.4545 90.6693 34.4844V29.3807C88.9318 30.2487 86.9386 30.7837 84.4085 30.7837C81.9295 30.7837 79.7317 29.9157 79.4505 26.9054H91.9455C91.9455 26.5724 91.9967 25.2471 91.9967 24.6343L92 24.6355ZM79.386 22.2123C79.386 19.3286 81.1491 18.1298 82.7599 18.1298C84.3184 18.1298 85.9804 19.3286 85.9804 22.2123H79.386ZM63.1591 12.9495C60.6545 12.9495 59.0459 14.1227 58.1499 14.9397L57.8164 13.358H52.1836V43.1112L58.5723 41.7593L58.5979 34.5377C59.5184 35.2014 60.8724 36.1449 63.1224 36.1449C67.6969 36.1449 71.8623 32.482 71.8623 24.3813C71.8367 16.981 67.6202 12.9484 63.1468 12.9484L63.1591 12.9495ZM61.625 30.5317C60.1175 30.5317 59.2238 29.9956 58.609 29.3329L58.5835 19.8647C59.2482 19.1244 60.1676 18.6149 61.625 18.6149C63.9506 18.6149 65.5602 21.2178 65.5602 24.56C65.5602 27.9787 63.9761 30.5317 61.625 30.5317ZM43.3937 11.4443L49.808 10.0679V4.88873L43.3937 6.2407V11.4443ZM43.3937 13.3835H49.808V35.7109H43.3937V13.3835ZM36.5181 15.2705L36.109 13.3835H30.5885V35.7132H36.9772V20.5795C38.4846 18.6149 41.0403 18.9723 41.8329 19.2531V13.3846C41.0148 13.0782 38.0255 12.5166 36.517 15.2716L36.5181 15.2705ZM23.7406 7.83354L17.5053 9.16219L17.4798 29.6015C17.4798 33.3777 20.3167 36.1594 24.0986 36.1594C26.1941 36.1594 27.7271 35.7764 28.5708 35.3158V30.1355C27.7526 30.4685 23.7151 31.6406 23.7151 27.8644V18.8191H28.5708V13.3835H23.7129L23.7406 7.83354ZM6.46542 19.8525C6.46542 18.8568 7.28361 18.4761 8.63761 18.4761C10.8478 18.5231 13.0168 19.0817 14.9741 20.1078V14.1238C12.853 13.2803 10.7576 12.9506 8.63761 12.9506C3.44949 12.9506 0 15.6556 0 20.1722C0 27.2151 9.71148 26.0918 9.71148 29.1298C9.71148 30.3031 8.68875 30.686 7.25804 30.686C5.13699 30.686 2.42787 29.818 0.281251 28.6436V34.7153C2.65798 35.7365 5.06139 36.1583 7.25804 36.1583C12.574 36.1583 16.2291 33.5298 16.2291 28.9622C16.2036 21.3588 6.46542 22.7107 6.46542 19.8525Z" fill="#6772E5"/>
</svg>
