<svg width="651" height="557" viewBox="0 0 651 557" fill="none" xmlns="http://www.w3.org/2000/svg">
<g clip-path="url(#clip0_2324_14391)">
<g filter="url(#filter0_d_2324_14391)">
<g clip-path="url(#clip1_2324_14391)">
<rect x="51" y="69.5029" width="600" height="456.497" rx="13.5593" fill="white"/>
<rect x="80.3828" y="179.107" width="110.734" height="7.9096" rx="3.9548" fill="#1D252C" fill-opacity="0.05"/>
<rect x="80.3828" y="193.797" width="66.6667" height="7.9096" rx="3.9548" fill="#1D252C" fill-opacity="0.05"/>
<path d="M84.6238 495.966V488.155H89.468V489.169H85.8025V491.549H89.1209V492.56H85.8025V495.966H84.6238ZM92.9209 496.085C92.3437 496.085 91.8465 495.961 91.4295 495.715C91.015 495.465 90.6946 495.116 90.4683 494.666C90.2445 494.213 90.1326 493.683 90.1326 493.075C90.1326 492.475 90.2445 491.946 90.4683 491.488C90.6946 491.031 91.0099 490.673 91.4142 490.417C91.8211 490.16 92.2966 490.031 92.8408 490.031C93.1714 490.031 93.4918 490.086 93.802 490.195C94.1122 490.305 94.3907 490.476 94.6373 490.71C94.884 490.944 95.0785 491.248 95.2209 491.622C95.3633 491.993 95.4345 492.444 95.4345 492.976V493.38H90.7773V492.526H94.3169C94.3169 492.226 94.2559 491.96 94.1338 491.729C94.0118 491.495 93.8401 491.31 93.6189 491.176C93.4002 491.041 93.1434 490.973 92.8484 490.973C92.528 490.973 92.2483 491.052 92.0093 491.21C91.7728 491.365 91.5897 491.568 91.46 491.82C91.3329 492.069 91.2693 492.34 91.2693 492.633V493.3C91.2693 493.692 91.338 494.025 91.4753 494.299C91.6151 494.574 91.8097 494.784 92.0589 494.929C92.3081 495.071 92.5992 495.142 92.9323 495.142C93.1485 495.142 93.3455 495.112 93.5235 495.051C93.7015 494.987 93.8554 494.893 93.9851 494.769C94.1148 494.644 94.2139 494.49 94.2826 494.307L95.362 494.502C95.2756 494.819 95.1205 495.098 94.8967 495.337C94.6755 495.573 94.397 495.758 94.0614 495.89C93.7282 496.02 93.3481 496.085 92.9209 496.085ZM96.7914 495.966V488.155H97.9319V491.057H98.0006C98.0667 490.935 98.162 490.794 98.2866 490.634C98.4112 490.474 98.5842 490.334 98.8054 490.214C99.0266 490.092 99.319 490.031 99.6827 490.031C100.156 490.031 100.578 490.151 100.949 490.39C101.32 490.629 101.611 490.973 101.822 491.423C102.036 491.874 102.143 492.415 102.143 493.048C102.143 493.682 102.037 494.224 101.826 494.677C101.615 495.127 101.325 495.474 100.957 495.718C100.588 495.96 100.167 496.081 99.6941 496.081C99.3381 496.081 99.047 496.021 98.8206 495.901C98.5969 495.782 98.4214 495.642 98.2943 495.482C98.1671 495.322 98.0692 495.179 98.0006 495.055H97.9052V495.966H96.7914ZM97.909 493.037C97.909 493.449 97.9688 493.81 98.0883 494.12C98.2078 494.43 98.3807 494.673 98.607 494.849C98.8334 495.022 99.1105 495.108 99.4386 495.108C99.7793 495.108 100.064 495.018 100.293 494.837C100.522 494.654 100.695 494.406 100.812 494.093C100.931 493.781 100.991 493.429 100.991 493.037C100.991 492.65 100.932 492.303 100.816 491.996C100.701 491.688 100.528 491.445 100.297 491.267C100.068 491.089 99.7818 491 99.4386 491C99.108 491 98.8283 491.085 98.5994 491.256C98.3731 491.426 98.2015 491.664 98.0845 491.969C97.9675 492.274 97.909 492.63 97.909 493.037ZM109.215 488.155V495.966H108.032V489.337H107.986L106.117 490.558V489.429L108.066 488.155H109.215ZM111.328 495.966V495.112L113.971 492.373C114.253 492.076 114.486 491.815 114.669 491.591C114.855 491.365 114.993 491.15 115.085 490.947C115.176 490.743 115.222 490.527 115.222 490.298C115.222 490.039 115.161 489.815 115.039 489.627C114.917 489.436 114.75 489.29 114.539 489.188C114.328 489.084 114.091 489.032 113.826 489.032C113.546 489.032 113.302 489.089 113.094 489.204C112.885 489.318 112.725 489.479 112.613 489.688C112.501 489.896 112.445 490.141 112.445 490.42H111.32C111.32 489.945 111.429 489.529 111.648 489.173C111.867 488.817 112.167 488.541 112.548 488.345C112.93 488.147 113.363 488.048 113.849 488.048C114.34 488.048 114.772 488.146 115.146 488.342C115.522 488.535 115.816 488.799 116.027 489.135C116.238 489.468 116.344 489.844 116.344 490.264C116.344 490.554 116.289 490.837 116.179 491.115C116.073 491.392 115.886 491.701 115.619 492.041C115.352 492.38 114.981 492.79 114.505 493.273L112.953 494.898V494.956H116.469V495.966H111.328Z" fill="#1D252C" fill-opacity="0.64"/>
<path d="M211.091 482.991H212.822L215.142 488.651H215.233L217.552 482.991H219.284V490.802H217.926V485.436H217.854L215.695 490.779H214.68L212.521 485.424H212.449V490.802H211.091V482.991ZM222.45 490.92C222.079 490.92 221.744 490.854 221.447 490.722C221.152 490.587 220.918 490.389 220.745 490.127C220.574 489.865 220.489 489.542 220.489 489.158C220.489 488.828 220.55 488.554 220.672 488.338C220.794 488.122 220.961 487.949 221.172 487.819C221.383 487.69 221.621 487.592 221.885 487.526C222.152 487.457 222.428 487.408 222.713 487.377C223.056 487.341 223.335 487.31 223.548 487.282C223.762 487.251 223.917 487.205 224.014 487.144C224.113 487.081 224.162 486.983 224.162 486.851V486.828C224.162 486.54 224.077 486.318 223.907 486.16C223.736 486.003 223.491 485.924 223.171 485.924C222.832 485.924 222.564 485.998 222.366 486.145C222.17 486.292 222.038 486.467 221.969 486.668L220.68 486.484C220.782 486.128 220.949 485.831 221.183 485.592C221.417 485.35 221.703 485.17 222.042 485.05C222.38 484.928 222.754 484.867 223.163 484.867C223.445 484.867 223.726 484.9 224.006 484.966C224.286 485.032 224.541 485.142 224.773 485.294C225.004 485.444 225.19 485.649 225.33 485.909C225.472 486.168 225.543 486.492 225.543 486.881V490.802H224.216V489.997H224.17C224.086 490.16 223.968 490.313 223.815 490.455C223.665 490.595 223.476 490.708 223.247 490.795C223.021 490.879 222.755 490.92 222.45 490.92ZM222.808 489.906C223.085 489.906 223.326 489.851 223.529 489.742C223.733 489.63 223.889 489.483 223.998 489.299C224.11 489.116 224.166 488.917 224.166 488.701V488.01C224.123 488.046 224.049 488.079 223.945 488.109C223.843 488.14 223.729 488.167 223.602 488.189C223.475 488.212 223.349 488.233 223.224 488.25C223.099 488.268 222.991 488.284 222.9 488.296C222.694 488.324 222.51 488.37 222.347 488.434C222.184 488.497 222.056 488.586 221.962 488.701C221.867 488.812 221.82 488.957 221.82 489.135C221.82 489.39 221.913 489.582 222.099 489.711C222.284 489.841 222.521 489.906 222.808 489.906ZM226.932 490.802V484.943H228.27V485.92H228.331C228.438 485.582 228.621 485.321 228.881 485.138C229.143 484.952 229.441 484.86 229.777 484.86C229.853 484.86 229.938 484.863 230.033 484.871C230.129 484.876 230.209 484.885 230.273 484.898V486.168C230.214 486.148 230.122 486.13 229.994 486.114C229.87 486.097 229.749 486.088 229.632 486.088C229.38 486.088 229.154 486.142 228.953 486.252C228.755 486.359 228.598 486.507 228.484 486.698C228.37 486.889 228.312 487.109 228.312 487.358V490.802H226.932Z" fill="#1D252C" fill-opacity="0.8"/>
<path d="M336.645 483.584H338.15L340.766 489.973H340.862L343.478 483.584H344.983V491.802H343.803V485.856H343.727L341.304 491.79H340.325L337.901 485.852H337.825V491.802H336.645V483.584ZM348.483 491.939C348.093 491.939 347.739 491.866 347.424 491.722C347.108 491.575 346.858 491.362 346.673 491.084C346.492 490.806 346.401 490.465 346.401 490.061C346.401 489.713 346.467 489.427 346.601 489.202C346.735 488.977 346.916 488.799 347.143 488.668C347.37 488.537 347.624 488.438 347.905 488.371C348.186 488.305 348.472 488.254 348.764 488.219C349.133 488.176 349.433 488.141 349.663 488.115C349.893 488.085 350.06 488.038 350.164 487.974C350.269 487.91 350.321 487.806 350.321 487.661V487.633C350.321 487.283 350.222 487.011 350.024 486.819C349.829 486.626 349.537 486.53 349.149 486.53C348.745 486.53 348.427 486.619 348.194 486.799C347.964 486.975 347.805 487.172 347.717 487.388L346.589 487.132C346.723 486.757 346.918 486.455 347.175 486.225C347.435 485.992 347.733 485.823 348.07 485.719C348.407 485.612 348.761 485.559 349.133 485.559C349.379 485.559 349.64 485.588 349.916 485.647C350.194 485.703 350.453 485.807 350.694 485.96C350.938 486.112 351.137 486.33 351.292 486.614C351.447 486.895 351.525 487.26 351.525 487.709V491.802H350.353V490.96H350.305C350.227 491.115 350.111 491.267 349.956 491.417C349.801 491.567 349.601 491.691 349.358 491.79C349.114 491.889 348.823 491.939 348.483 491.939ZM348.744 490.976C349.076 490.976 349.359 490.91 349.595 490.779C349.833 490.648 350.013 490.477 350.136 490.265C350.262 490.051 350.325 489.823 350.325 489.579V488.785C350.282 488.828 350.199 488.868 350.076 488.905C349.956 488.94 349.818 488.971 349.663 488.997C349.508 489.022 349.357 489.044 349.209 489.066C349.062 489.084 348.939 489.1 348.84 489.114C348.608 489.143 348.395 489.193 348.202 489.262C348.012 489.332 347.86 489.432 347.745 489.563C347.632 489.692 347.576 489.863 347.576 490.077C347.576 490.374 347.686 490.598 347.905 490.751C348.125 490.901 348.404 490.976 348.744 490.976ZM353.123 491.802V485.639H354.282V486.618H354.347C354.459 486.286 354.657 486.025 354.94 485.836C355.227 485.643 355.55 485.547 355.911 485.547C355.986 485.547 356.075 485.549 356.176 485.555C356.281 485.56 356.362 485.567 356.421 485.575V486.722C356.373 486.709 356.287 486.694 356.164 486.678C356.041 486.659 355.918 486.65 355.795 486.65C355.512 486.65 355.259 486.71 355.037 486.831C354.817 486.948 354.643 487.113 354.515 487.324C354.387 487.533 354.322 487.771 354.322 488.038V491.802H353.123ZM363.295 491.939C362.661 491.936 362.119 491.769 361.669 491.437C361.22 491.105 360.876 490.623 360.638 489.989C360.4 489.355 360.281 488.591 360.281 487.697C360.281 486.807 360.4 486.046 360.638 485.414C360.879 484.783 361.224 484.301 361.674 483.97C362.126 483.638 362.666 483.472 363.295 483.472C363.923 483.472 364.462 483.639 364.912 483.974C365.361 484.305 365.705 484.787 365.943 485.418C366.184 486.047 366.304 486.807 366.304 487.697C366.304 488.594 366.185 489.359 365.947 489.993C365.709 490.624 365.365 491.107 364.916 491.441C364.466 491.773 363.926 491.939 363.295 491.939ZM363.295 490.867C363.851 490.867 364.286 490.596 364.599 490.053C364.914 489.51 365.072 488.725 365.072 487.697C365.072 487.015 365 486.439 364.855 485.968C364.714 485.494 364.509 485.136 364.242 484.893C363.977 484.646 363.661 484.523 363.295 484.523C362.741 484.523 362.306 484.796 361.991 485.342C361.675 485.888 361.516 486.673 361.513 487.697C361.513 488.382 361.584 488.961 361.726 489.435C361.87 489.906 362.075 490.263 362.34 490.506C362.604 490.747 362.923 490.867 363.295 490.867ZM367.784 491.802L371.371 484.708V484.648H367.222V483.584H372.655V484.684L369.08 491.802H367.784Z" fill="#1D252C" fill-opacity="0.64"/>
<rect x="566.523" y="486.452" width="48.5876" height="7.9096" rx="3.9548" fill="#1D252C" fill-opacity="0.05"/>
<rect x="302.977" y="203.966" width="103.955" height="7.9096" rx="3.9548" fill="#1D252C" fill-opacity="0.05"/>
<path d="M507.519 204.134C507.147 204.134 506.812 204.065 506.512 203.928C506.212 203.788 505.974 203.586 505.798 203.321C505.625 203.057 505.539 202.732 505.539 202.349C505.539 202.018 505.602 201.746 505.73 201.532C505.857 201.319 506.028 201.15 506.245 201.025C506.461 200.9 506.702 200.806 506.969 200.743C507.236 200.679 507.508 200.631 507.786 200.598C508.136 200.557 508.421 200.524 508.64 200.499C508.859 200.471 509.018 200.426 509.117 200.365C509.216 200.304 509.265 200.205 509.265 200.068V200.041C509.265 199.708 509.171 199.45 508.983 199.267C508.798 199.083 508.52 198.992 508.152 198.992C507.768 198.992 507.465 199.077 507.244 199.247C507.025 199.415 506.874 199.602 506.79 199.808L505.718 199.564C505.845 199.208 506.031 198.921 506.275 198.702C506.522 198.481 506.805 198.321 507.126 198.221C507.446 198.12 507.783 198.069 508.136 198.069C508.37 198.069 508.618 198.097 508.88 198.153C509.145 198.206 509.391 198.305 509.62 198.45C509.852 198.595 510.041 198.802 510.189 199.072C510.336 199.339 510.41 199.686 510.41 200.113V204.004H509.296V203.203H509.25C509.176 203.35 509.066 203.495 508.918 203.638C508.771 203.78 508.581 203.898 508.35 203.992C508.119 204.087 507.841 204.134 507.519 204.134ZM507.766 203.218C508.082 203.218 508.351 203.156 508.575 203.031C508.801 202.907 508.973 202.744 509.09 202.543C509.21 202.34 509.269 202.122 509.269 201.891V201.136C509.229 201.176 509.15 201.214 509.033 201.25C508.918 201.283 508.787 201.312 508.64 201.338C508.492 201.361 508.349 201.382 508.209 201.403C508.069 201.42 507.952 201.436 507.858 201.448C507.637 201.476 507.435 201.523 507.252 201.589C507.071 201.656 506.926 201.751 506.817 201.876C506.71 201.998 506.657 202.16 506.657 202.364C506.657 202.646 506.761 202.86 506.969 203.005C507.178 203.147 507.444 203.218 507.766 203.218ZM516.731 198.145L514.606 204.004H513.386L511.257 198.145H512.482L513.966 202.654H514.027L515.507 198.145H516.731ZM520.06 206.323C519.595 206.323 519.194 206.262 518.858 206.14C518.525 206.018 518.253 205.856 518.042 205.655C517.831 205.455 517.673 205.235 517.569 204.996L518.549 204.591C518.618 204.703 518.71 204.821 518.824 204.946C518.941 205.073 519.099 205.181 519.297 205.27C519.498 205.359 519.756 205.404 520.071 205.404C520.504 205.404 520.861 205.298 521.143 205.087C521.425 204.879 521.567 204.546 521.567 204.088V202.936H521.494C521.425 203.061 521.326 203.199 521.197 203.352C521.069 203.504 520.894 203.636 520.67 203.748C520.446 203.86 520.155 203.916 519.797 203.916C519.334 203.916 518.917 203.808 518.546 203.592C518.177 203.373 517.885 203.052 517.668 202.627C517.455 202.2 517.348 201.675 517.348 201.052C517.348 200.429 517.454 199.895 517.665 199.45C517.878 199.005 518.171 198.664 518.542 198.427C518.913 198.188 519.334 198.069 519.804 198.069C520.168 198.069 520.462 198.13 520.685 198.252C520.909 198.371 521.083 198.511 521.208 198.672C521.335 198.832 521.433 198.973 521.502 199.095H521.586V198.145H522.703V204.134C522.703 204.637 522.586 205.05 522.352 205.373C522.118 205.696 521.802 205.935 521.403 206.09C521.006 206.245 520.558 206.323 520.06 206.323ZM520.048 202.97C520.377 202.97 520.654 202.894 520.88 202.741C521.109 202.586 521.282 202.365 521.399 202.078C521.518 201.788 521.578 201.441 521.578 201.036C521.578 200.642 521.52 200.295 521.403 199.995C521.286 199.695 521.114 199.461 520.888 199.293C520.661 199.123 520.382 199.038 520.048 199.038C519.705 199.038 519.419 199.127 519.19 199.305C518.961 199.48 518.789 199.719 518.672 200.022C518.557 200.324 518.5 200.663 518.5 201.036C518.5 201.42 518.558 201.757 518.675 202.047C518.792 202.337 518.965 202.563 519.194 202.726C519.425 202.889 519.71 202.97 520.048 202.97ZM524.984 204.076C524.776 204.076 524.596 204.003 524.446 203.855C524.296 203.705 524.221 203.525 524.221 203.314C524.221 203.105 524.296 202.927 524.446 202.78C524.596 202.629 524.776 202.554 524.984 202.554C525.193 202.554 525.372 202.629 525.522 202.78C525.672 202.927 525.747 203.105 525.747 203.314C525.747 203.453 525.711 203.582 525.64 203.699C525.572 203.813 525.48 203.905 525.366 203.973C525.251 204.042 525.124 204.076 524.984 204.076ZM532.516 204.122C531.939 204.122 531.442 203.999 531.025 203.752C530.611 203.503 530.29 203.153 530.064 202.703C529.84 202.251 529.728 201.72 529.728 201.113C529.728 200.513 529.84 199.984 530.064 199.526C530.29 199.068 530.606 198.711 531.01 198.454C531.417 198.197 531.892 198.069 532.436 198.069C532.767 198.069 533.087 198.124 533.398 198.233C533.708 198.342 533.986 198.514 534.233 198.748C534.48 198.982 534.674 199.286 534.816 199.659C534.959 200.031 535.03 200.482 535.03 201.013V201.418H530.373V200.563H533.912C533.912 200.263 533.851 199.998 533.729 199.766C533.607 199.532 533.436 199.348 533.214 199.213C532.996 199.078 532.739 199.011 532.444 199.011C532.124 199.011 531.844 199.09 531.605 199.247C531.368 199.403 531.185 199.606 531.056 199.858C530.928 200.107 530.865 200.378 530.865 200.67V201.338C530.865 201.729 530.934 202.062 531.071 202.337C531.211 202.612 531.405 202.821 531.654 202.966C531.904 203.109 532.195 203.18 532.528 203.18C532.744 203.18 532.941 203.15 533.119 203.088C533.297 203.025 533.451 202.931 533.581 202.806C533.71 202.682 533.81 202.528 533.878 202.345L534.958 202.539C534.871 202.857 534.716 203.136 534.492 203.375C534.271 203.611 533.993 203.795 533.657 203.928C533.324 204.057 532.944 204.122 532.516 204.122ZM537.059 198.145L538.352 200.426L539.657 198.145H540.904L539.077 201.075L540.919 204.004H539.672L538.352 201.815L537.036 204.004H535.785L537.609 201.075L535.808 198.145H537.059ZM542.075 204.004V198.145H543.216V204.004H542.075ZM542.651 197.241C542.453 197.241 542.282 197.175 542.14 197.043C542 196.908 541.93 196.748 541.93 196.562C541.93 196.374 542 196.214 542.14 196.082C542.282 195.947 542.453 195.879 542.651 195.879C542.849 195.879 543.018 195.947 543.158 196.082C543.301 196.214 543.372 196.374 543.372 196.562C543.372 196.748 543.301 196.908 543.158 197.043C543.018 197.175 542.849 197.241 542.651 197.241ZM547.485 198.145V199.061H544.285V198.145H547.485ZM545.143 196.741H546.283V202.284C546.283 202.505 546.316 202.671 546.382 202.783C546.448 202.893 546.534 202.968 546.638 203.008C546.745 203.047 546.86 203.066 546.985 203.066C547.077 203.066 547.157 203.059 547.225 203.047C547.294 203.034 547.347 203.024 547.386 203.016L547.592 203.958C547.525 203.984 547.431 204.009 547.309 204.034C547.187 204.062 547.035 204.078 546.852 204.08C546.551 204.085 546.272 204.032 546.012 203.92C545.753 203.808 545.543 203.635 545.383 203.401C545.223 203.167 545.143 202.874 545.143 202.52V196.741ZM551.589 204.004V198.145H552.691V199.076H552.752C552.859 198.761 553.047 198.513 553.317 198.332C553.589 198.149 553.897 198.057 554.24 198.057C554.311 198.057 554.395 198.06 554.492 198.065C554.591 198.07 554.668 198.076 554.724 198.084V199.175C554.678 199.162 554.597 199.148 554.48 199.133C554.363 199.115 554.246 199.106 554.129 199.106C553.86 199.106 553.619 199.164 553.408 199.278C553.2 199.39 553.035 199.546 552.912 199.747C552.79 199.945 552.729 200.172 552.729 200.426V204.004H551.589ZM557.364 204.134C556.992 204.134 556.657 204.065 556.357 203.928C556.057 203.788 555.819 203.586 555.643 203.321C555.471 203.057 555.384 202.732 555.384 202.349C555.384 202.018 555.448 201.746 555.575 201.532C555.702 201.319 555.874 201.15 556.09 201.025C556.306 200.9 556.547 200.806 556.814 200.743C557.081 200.679 557.354 200.631 557.631 200.598C557.982 200.557 558.266 200.524 558.485 200.499C558.704 200.471 558.863 200.426 558.962 200.365C559.061 200.304 559.111 200.205 559.111 200.068V200.041C559.111 199.708 559.017 199.45 558.828 199.267C558.643 199.083 558.366 198.992 557.997 198.992C557.613 198.992 557.31 199.077 557.089 199.247C556.87 199.415 556.719 199.602 556.635 199.808L555.563 199.564C555.691 199.208 555.876 198.921 556.12 198.702C556.367 198.481 556.65 198.321 556.971 198.221C557.291 198.12 557.628 198.069 557.982 198.069C558.216 198.069 558.464 198.097 558.725 198.153C558.99 198.206 559.237 198.305 559.465 198.45C559.697 198.595 559.886 198.802 560.034 199.072C560.181 199.339 560.255 199.686 560.255 200.113V204.004H559.141V203.203H559.095C559.022 203.35 558.911 203.495 558.764 203.638C558.616 203.78 558.427 203.898 558.195 203.992C557.964 204.087 557.687 204.134 557.364 204.134ZM557.612 203.218C557.927 203.218 558.197 203.156 558.42 203.031C558.647 202.907 558.818 202.744 558.935 202.543C559.055 202.34 559.114 202.122 559.114 201.891V201.136C559.074 201.176 558.995 201.214 558.878 201.25C558.764 201.283 558.633 201.312 558.485 201.338C558.338 201.361 558.194 201.382 558.054 201.403C557.914 201.42 557.797 201.436 557.703 201.448C557.482 201.476 557.28 201.523 557.097 201.589C556.916 201.656 556.771 201.751 556.662 201.876C556.555 201.998 556.502 202.16 556.502 202.364C556.502 202.646 556.606 202.86 556.814 203.005C557.023 203.147 557.289 203.218 557.612 203.218ZM564.509 198.145V199.061H561.309V198.145H564.509ZM562.167 196.741H563.307V202.284C563.307 202.505 563.34 202.671 563.407 202.783C563.473 202.893 563.558 202.968 563.662 203.008C563.769 203.047 563.885 203.066 564.009 203.066C564.101 203.066 564.181 203.059 564.249 203.047C564.318 203.034 564.372 203.024 564.41 203.016L564.616 203.958C564.55 203.984 564.455 204.009 564.333 204.034C564.211 204.062 564.059 204.078 563.876 204.08C563.576 204.085 563.296 204.032 563.037 203.92C562.777 203.808 562.567 203.635 562.407 203.401C562.247 203.167 562.167 202.874 562.167 202.52V196.741ZM568.233 204.122C567.655 204.122 567.158 203.999 566.741 203.752C566.327 203.503 566.006 203.153 565.78 202.703C565.556 202.251 565.444 201.72 565.444 201.113C565.444 200.513 565.556 199.984 565.78 199.526C566.006 199.068 566.322 198.711 566.726 198.454C567.133 198.197 567.608 198.069 568.152 198.069C568.483 198.069 568.803 198.124 569.114 198.233C569.424 198.342 569.702 198.514 569.949 198.748C570.196 198.982 570.39 199.286 570.533 199.659C570.675 200.031 570.746 200.482 570.746 201.013V201.418H566.089V200.563H569.629C569.629 200.263 569.568 199.998 569.446 199.766C569.323 199.532 569.152 199.348 568.931 199.213C568.712 199.078 568.455 199.011 568.16 199.011C567.84 199.011 567.56 199.09 567.321 199.247C567.084 199.403 566.901 199.606 566.772 199.858C566.645 200.107 566.581 200.378 566.581 200.67V201.338C566.581 201.729 566.65 202.062 566.787 202.337C566.927 202.612 567.121 202.821 567.371 202.966C567.62 203.109 567.911 203.18 568.244 203.18C568.46 203.18 568.657 203.15 568.835 203.088C569.013 203.025 569.167 202.931 569.297 202.806C569.426 202.682 569.526 202.528 569.594 202.345L570.674 202.539C570.587 202.857 570.432 203.136 570.208 203.375C569.987 203.611 569.709 203.795 569.373 203.928C569.04 204.057 568.66 204.122 568.233 204.122ZM578.916 202.539V202.127C578.916 201.832 578.977 201.563 579.099 201.319C579.224 201.072 579.405 200.875 579.641 200.727C579.88 200.577 580.169 200.502 580.507 200.502C580.853 200.502 581.143 200.576 581.377 200.724C581.611 200.871 581.787 201.068 581.907 201.315C582.029 201.561 582.09 201.832 582.09 202.127V202.539C582.09 202.834 582.029 203.105 581.907 203.352C581.785 203.596 581.605 203.793 581.369 203.943C581.135 204.09 580.848 204.164 580.507 204.164C580.164 204.164 579.874 204.09 579.637 203.943C579.401 203.793 579.222 203.596 579.099 203.352C578.977 203.105 578.916 202.834 578.916 202.539ZM579.805 202.127V202.539C579.805 202.758 579.857 202.956 579.962 203.134C580.066 203.312 580.248 203.401 580.507 203.401C580.764 203.401 580.943 203.312 581.045 203.134C581.146 202.956 581.197 202.758 581.197 202.539V202.127C581.197 201.909 581.148 201.71 581.049 201.532C580.952 201.354 580.771 201.265 580.507 201.265C580.253 201.265 580.072 201.354 579.965 201.532C579.859 201.71 579.805 201.909 579.805 202.127ZM574.988 198.069V197.657C574.988 197.362 575.049 197.091 575.171 196.844C575.295 196.598 575.476 196.401 575.712 196.253C575.951 196.106 576.24 196.032 576.578 196.032C576.924 196.032 577.214 196.106 577.448 196.253C577.682 196.401 577.859 196.598 577.978 196.844C578.098 197.091 578.157 197.362 578.157 197.657V198.069C578.157 198.364 578.096 198.635 577.974 198.881C577.855 199.125 577.677 199.322 577.44 199.473C577.206 199.62 576.919 199.694 576.578 199.694C576.232 199.694 575.941 199.62 575.705 199.473C575.471 199.322 575.293 199.125 575.171 198.881C575.049 198.635 574.988 198.364 574.988 198.069ZM575.88 197.657V198.069C575.88 198.288 575.931 198.486 576.033 198.664C576.137 198.842 576.319 198.931 576.578 198.931C576.833 198.931 577.011 198.842 577.112 198.664C577.216 198.486 577.269 198.288 577.269 198.069V197.657C577.269 197.438 577.219 197.24 577.12 197.062C577.021 196.884 576.84 196.795 576.578 196.795C576.324 196.795 576.143 196.884 576.037 197.062C575.932 197.24 575.88 197.438 575.88 197.657ZM575.35 204.004L580.721 196.192H581.632L576.262 204.004H575.35Z" fill="#1D252C" fill-opacity="0.64"/>
<path d="M89.2137 247.042C87.827 247.042 86.5943 246.804 85.5157 246.329C84.4435 245.854 83.5961 245.193 82.9733 244.345C82.3506 243.498 82.0199 242.519 81.9814 241.408H85.6024C85.6345 241.941 85.811 242.406 86.132 242.804C86.453 243.196 86.88 243.501 87.4129 243.719C87.9457 243.937 88.5428 244.047 89.2041 244.047C89.9103 244.047 90.5363 243.925 91.082 243.681C91.6277 243.43 92.0546 243.084 92.3628 242.641C92.6709 242.198 92.8218 241.687 92.8154 241.109C92.8218 240.512 92.6677 239.986 92.3532 239.53C92.0386 239.074 91.5827 238.718 90.9857 238.461C90.395 238.204 89.6824 238.076 88.8478 238.076H87.1047V235.322H88.8478C89.5347 235.322 90.135 235.203 90.6486 234.965C91.1686 234.728 91.5763 234.394 91.8716 233.964C92.167 233.527 92.3114 233.023 92.305 232.452C92.3114 231.893 92.1862 231.409 91.9294 230.998C91.679 230.58 91.3227 230.256 90.8605 230.025C90.4046 229.794 89.8686 229.678 89.2522 229.678C88.6487 229.678 88.0902 229.788 87.5766 230.006C87.063 230.224 86.6489 230.535 86.3343 230.94C86.0197 231.338 85.8528 231.813 85.8335 232.365H82.3955C82.4212 231.261 82.739 230.291 83.3489 229.457C83.9652 228.616 84.787 227.961 85.8142 227.492C86.8415 227.017 87.9939 226.78 89.2715 226.78C90.5876 226.78 91.7304 227.027 92.6998 227.521C93.6757 228.009 94.4301 228.667 94.9629 229.495C95.4958 230.324 95.7622 231.238 95.7622 232.24C95.7687 233.351 95.4412 234.282 94.78 235.033C94.1251 235.784 93.2648 236.275 92.1991 236.506V236.66C93.5858 236.853 94.6484 237.366 95.3867 238.201C96.1314 239.029 96.5006 240.06 96.4941 241.292C96.4941 242.397 96.1796 243.385 95.5504 244.258C94.9276 245.125 94.0673 245.806 92.9695 246.3C91.8781 246.794 90.6261 247.042 89.2137 247.042ZM101.986 244.403C101.402 244.403 100.901 244.197 100.483 243.787C100.066 243.369 99.8607 242.869 99.8671 242.284C99.8607 241.706 100.066 241.212 100.483 240.801C100.901 240.39 101.402 240.185 101.986 240.185C102.551 240.185 103.042 240.39 103.459 240.801C103.883 241.212 104.098 241.706 104.104 242.284C104.098 242.676 103.995 243.032 103.796 243.353C103.604 243.674 103.347 243.931 103.026 244.124C102.711 244.31 102.365 244.403 101.986 244.403ZM101.986 234.628C101.402 234.628 100.901 234.423 100.483 234.012C100.066 233.595 99.8607 233.094 99.8671 232.51C99.8607 231.932 100.066 231.437 100.483 231.027C100.901 230.609 101.402 230.401 101.986 230.401C102.551 230.401 103.042 230.609 103.459 231.027C103.883 231.437 104.098 231.932 104.104 232.51C104.098 232.895 103.995 233.248 103.796 233.569C103.604 233.89 103.347 234.147 103.026 234.339C102.711 234.532 102.365 234.628 101.986 234.628ZM114.522 247.042C113.238 247.042 112.089 246.801 111.074 246.319C110.06 245.831 109.254 245.164 108.657 244.316C108.066 243.469 107.752 242.499 107.713 241.408H111.18C111.244 242.217 111.594 242.878 112.23 243.392C112.865 243.899 113.629 244.153 114.522 244.153C115.222 244.153 115.844 243.992 116.39 243.671C116.936 243.35 117.366 242.904 117.681 242.332C117.995 241.761 118.149 241.109 118.143 240.378C118.149 239.633 117.992 238.972 117.671 238.394C117.35 237.816 116.91 237.363 116.352 237.036C115.793 236.702 115.151 236.535 114.426 236.535C113.835 236.529 113.254 236.638 112.683 236.862C112.111 237.087 111.658 237.383 111.325 237.748L108.099 237.219L109.129 227.049H120.57V230.035H112.085L111.517 235.264H111.633C111.999 234.834 112.516 234.477 113.183 234.195C113.851 233.906 114.583 233.762 115.379 233.762C116.573 233.762 117.639 234.044 118.576 234.609C119.514 235.168 120.252 235.938 120.791 236.92C121.33 237.903 121.6 239.026 121.6 240.291C121.6 241.594 121.298 242.756 120.695 243.777C120.098 244.791 119.266 245.591 118.201 246.175C117.141 246.753 115.915 247.042 114.522 247.042ZM132.848 227.049V246.772H129.275V230.526H129.16L124.547 233.473V230.198L129.449 227.049H132.848ZM149.585 235.89L146.407 236.237C146.318 235.916 146.16 235.614 145.936 235.331C145.717 235.049 145.422 234.821 145.05 234.648C144.677 234.474 144.221 234.388 143.682 234.388C142.957 234.388 142.347 234.545 141.852 234.859C141.364 235.174 141.124 235.582 141.13 236.082C141.124 236.513 141.281 236.862 141.602 237.132C141.929 237.402 142.469 237.623 143.22 237.797L145.743 238.336C147.143 238.638 148.183 239.116 148.863 239.771C149.55 240.426 149.897 241.283 149.903 242.342C149.897 243.273 149.624 244.095 149.085 244.807C148.552 245.514 147.81 246.066 146.86 246.464C145.91 246.862 144.818 247.061 143.586 247.061C141.775 247.061 140.318 246.682 139.214 245.925C138.109 245.161 137.451 244.098 137.24 242.737L140.639 242.409C140.793 243.077 141.12 243.581 141.621 243.921C142.122 244.262 142.774 244.432 143.576 244.432C144.404 244.432 145.069 244.262 145.57 243.921C146.077 243.581 146.33 243.161 146.33 242.66C146.33 242.236 146.167 241.886 145.839 241.61C145.518 241.334 145.018 241.122 144.337 240.975L141.814 240.445C140.395 240.15 139.345 239.652 138.665 238.952C137.984 238.246 137.647 237.354 137.654 236.275C137.647 235.363 137.894 234.574 138.395 233.906C138.902 233.232 139.605 232.712 140.504 232.346C141.409 231.974 142.453 231.787 143.634 231.787C145.367 231.787 146.732 232.157 147.727 232.895C148.728 233.633 149.348 234.631 149.585 235.89Z" fill="#1D252C"/>
<path d="M311.078 247.042C309.794 247.042 308.645 246.801 307.631 246.319C306.616 245.831 305.81 245.164 305.213 244.316C304.623 243.469 304.308 242.499 304.27 241.408H307.736C307.801 242.217 308.151 242.878 308.786 243.392C309.422 243.899 310.186 244.153 311.078 244.153C311.778 244.153 312.401 243.992 312.946 243.671C313.492 243.35 313.922 242.904 314.237 242.332C314.551 241.761 314.706 241.109 314.699 240.378C314.706 239.633 314.548 238.972 314.227 238.394C313.906 237.816 313.466 237.363 312.908 237.036C312.349 236.702 311.707 236.535 310.982 236.535C310.391 236.529 309.81 236.638 309.239 236.862C308.667 237.087 308.215 237.383 307.881 237.748L304.655 237.219L305.685 227.049H317.126V230.035H308.642L308.074 235.264H308.189C308.555 234.834 309.072 234.477 309.74 234.195C310.407 233.906 311.139 233.762 311.935 233.762C313.129 233.762 314.195 234.044 315.132 234.609C316.07 235.168 316.808 235.938 317.347 236.92C317.887 237.903 318.156 239.026 318.156 240.291C318.156 241.594 317.855 242.756 317.251 243.777C316.654 244.791 315.823 245.591 314.757 246.175C313.698 246.753 312.471 247.042 311.078 247.042ZM328.23 226.78C329.173 226.786 330.091 226.953 330.984 227.28C331.883 227.601 332.692 228.128 333.411 228.86C334.13 229.585 334.701 230.558 335.125 231.778C335.548 232.998 335.76 234.506 335.76 236.304C335.767 237.999 335.587 239.514 335.221 240.849C334.862 242.178 334.345 243.302 333.671 244.22C332.996 245.138 332.184 245.838 331.234 246.319C330.284 246.801 329.215 247.042 328.027 247.042C326.782 247.042 325.678 246.798 324.715 246.31C323.758 245.822 322.984 245.154 322.394 244.307C321.803 243.459 321.44 242.49 321.305 241.398H324.82C325 242.182 325.366 242.804 325.918 243.267C326.477 243.722 327.18 243.95 328.027 243.95C329.395 243.95 330.448 243.356 331.186 242.169C331.924 240.981 332.293 239.331 332.293 237.219H332.159C331.844 237.784 331.436 238.272 330.936 238.683C330.435 239.087 329.867 239.398 329.231 239.617C328.602 239.835 327.934 239.944 327.228 239.944C326.072 239.944 325.032 239.668 324.108 239.116C323.19 238.564 322.461 237.806 321.922 236.843C321.389 235.88 321.119 234.779 321.113 233.54C321.113 232.256 321.408 231.104 321.999 230.083C322.596 229.056 323.427 228.247 324.493 227.656C325.559 227.059 326.804 226.767 328.23 226.78ZM328.239 229.669C327.546 229.669 326.92 229.839 326.361 230.179C325.809 230.513 325.373 230.969 325.052 231.547C324.737 232.118 324.58 232.757 324.58 233.463C324.586 234.163 324.743 234.798 325.052 235.37C325.366 235.941 325.793 236.394 326.332 236.728C326.878 237.062 327.501 237.228 328.201 237.228C328.721 237.228 329.205 237.129 329.655 236.93C330.104 236.731 330.496 236.455 330.83 236.102C331.17 235.742 331.433 235.335 331.619 234.879C331.812 234.423 331.905 233.941 331.899 233.434C331.899 232.76 331.738 232.137 331.417 231.566C331.103 230.994 330.669 230.535 330.117 230.189C329.571 229.842 328.945 229.669 328.239 229.669ZM340.385 246.984C339.801 246.984 339.3 246.778 338.883 246.368C338.466 245.957 338.26 245.456 338.267 244.865C338.26 244.287 338.466 243.793 338.883 243.382C339.3 242.971 339.801 242.766 340.385 242.766C340.95 242.766 341.441 242.971 341.859 243.382C342.282 243.793 342.497 244.287 342.504 244.865C342.497 245.257 342.395 245.613 342.196 245.934C342.003 246.255 341.746 246.512 341.425 246.705C341.111 246.891 340.764 246.984 340.385 246.984ZM352.519 247.042C351.576 247.035 350.654 246.871 349.755 246.55C348.857 246.223 348.048 245.693 347.329 244.961C346.61 244.223 346.038 243.244 345.614 242.024C345.191 240.798 344.982 239.28 344.988 237.469C344.988 235.781 345.168 234.275 345.528 232.953C345.887 231.63 346.404 230.513 347.078 229.601C347.752 228.683 348.565 227.983 349.515 227.502C350.471 227.02 351.54 226.78 352.722 226.78C353.961 226.78 355.058 227.024 356.015 227.512C356.978 227.999 357.755 228.667 358.346 229.515C358.936 230.356 359.302 231.306 359.443 232.365H355.928C355.749 231.608 355.379 231.004 354.821 230.555C354.269 230.099 353.569 229.871 352.722 229.871C351.354 229.871 350.301 230.465 349.563 231.653C348.831 232.84 348.462 234.471 348.455 236.545H348.59C348.905 235.98 349.312 235.495 349.813 235.091C350.314 234.686 350.879 234.375 351.508 234.156C352.144 233.932 352.815 233.819 353.521 233.819C354.676 233.819 355.713 234.095 356.631 234.648C357.556 235.2 358.288 235.96 358.827 236.93C359.366 237.893 359.633 238.997 359.626 240.243C359.633 241.54 359.337 242.705 358.74 243.738C358.143 244.766 357.312 245.575 356.246 246.165C355.18 246.756 353.938 247.048 352.519 247.042ZM352.5 244.153C353.2 244.153 353.826 243.982 354.378 243.642C354.93 243.302 355.367 242.843 355.688 242.265C356.009 241.687 356.166 241.039 356.16 240.32C356.166 239.614 356.012 238.975 355.697 238.403C355.389 237.832 354.962 237.379 354.416 237.045C353.871 236.712 353.248 236.545 352.548 236.545C352.028 236.545 351.543 236.644 351.094 236.843C350.645 237.042 350.253 237.318 349.919 237.671C349.585 238.018 349.322 238.423 349.129 238.885C348.943 239.341 348.847 239.829 348.841 240.349C348.847 241.036 349.007 241.668 349.322 242.246C349.637 242.824 350.07 243.286 350.622 243.633C351.174 243.979 351.8 244.153 352.5 244.153ZM362.881 246.772V244.191L369.728 237.479C370.383 236.818 370.929 236.23 371.366 235.717C371.802 235.203 372.13 234.705 372.348 234.224C372.566 233.742 372.675 233.229 372.675 232.683C372.675 232.06 372.534 231.527 372.252 231.084C371.969 230.635 371.581 230.288 371.086 230.044C370.592 229.8 370.03 229.678 369.401 229.678C368.753 229.678 368.184 229.813 367.697 230.083C367.209 230.346 366.83 230.722 366.56 231.21C366.297 231.697 366.165 232.279 366.165 232.953H362.766C362.766 231.701 363.052 230.612 363.623 229.688C364.194 228.763 364.981 228.048 365.982 227.54C366.99 227.033 368.146 226.78 369.449 226.78C370.772 226.78 371.934 227.027 372.935 227.521C373.937 228.016 374.714 228.693 375.266 229.553C375.824 230.413 376.104 231.396 376.104 232.5C376.104 233.238 375.962 233.964 375.68 234.676C375.397 235.389 374.9 236.179 374.187 237.045C373.481 237.912 372.489 238.962 371.212 240.195L367.812 243.652V243.787H376.402V246.772H362.881Z" fill="#1D252C"/>
<path d="M506.435 232.58V230.536L511.859 225.218C512.378 224.695 512.81 224.229 513.156 223.822C513.502 223.416 513.761 223.021 513.934 222.64C514.107 222.259 514.194 221.852 514.194 221.419C514.194 220.926 514.082 220.504 513.858 220.153C513.634 219.797 513.326 219.522 512.935 219.329C512.543 219.136 512.098 219.039 511.6 219.039C511.086 219.039 510.636 219.146 510.25 219.36C509.863 219.568 509.563 219.866 509.349 220.252C509.141 220.639 509.037 221.099 509.037 221.633H506.344C506.344 220.641 506.57 219.779 507.023 219.047C507.475 218.315 508.098 217.748 508.892 217.346C509.69 216.944 510.606 216.743 511.638 216.743C512.686 216.743 513.606 216.939 514.4 217.331C515.193 217.722 515.808 218.259 516.246 218.94C516.688 219.622 516.909 220.4 516.909 221.275C516.909 221.859 516.797 222.434 516.574 222.999C516.35 223.563 515.956 224.189 515.391 224.875C514.832 225.562 514.046 226.393 513.034 227.37L510.341 230.108V230.215H517.146V232.58H506.435ZM519.16 229.681V227.431L525.789 216.957H527.666V220.161H526.521L522.059 227.232V227.354H531.312V229.681H519.16ZM526.613 232.58V228.995L526.643 227.988V216.957H529.313V232.58H526.613ZM535.041 232.748C534.578 232.748 534.181 232.585 533.851 232.26C533.52 231.934 533.357 231.538 533.362 231.07C533.357 230.612 533.52 230.22 533.851 229.895C534.181 229.569 534.578 229.407 535.041 229.407C535.488 229.407 535.877 229.569 536.208 229.895C536.543 230.22 536.714 230.612 536.719 231.07C536.714 231.38 536.632 231.662 536.475 231.916C536.322 232.171 536.119 232.374 535.864 232.527C535.615 232.674 535.341 232.748 535.041 232.748ZM544.706 232.878C543.45 232.878 542.372 232.56 541.471 231.924C540.576 231.283 539.887 230.36 539.404 229.155C538.926 227.944 538.687 226.487 538.687 224.784C538.692 223.08 538.934 221.631 539.412 220.435C539.895 219.235 540.584 218.32 541.479 217.689C542.379 217.058 543.455 216.743 544.706 216.743C545.957 216.743 547.033 217.058 547.933 217.689C548.833 218.32 549.522 219.235 550 220.435C550.483 221.636 550.725 223.085 550.725 224.784C550.725 226.492 550.483 227.952 550 229.162C549.522 230.368 548.833 231.288 547.933 231.924C547.038 232.56 545.962 232.878 544.706 232.878ZM544.706 230.49C545.682 230.49 546.453 230.009 547.017 229.048C547.587 228.082 547.872 226.66 547.872 224.784C547.872 223.543 547.742 222.5 547.483 221.656C547.223 220.812 546.857 220.176 546.384 219.749C545.911 219.317 545.352 219.1 544.706 219.1C543.735 219.1 542.967 219.584 542.402 220.55C541.838 221.511 541.553 222.922 541.548 224.784C541.543 226.03 541.667 227.077 541.922 227.927C542.181 228.776 542.547 229.417 543.02 229.849C543.493 230.276 544.055 230.49 544.706 230.49ZM558.981 232.794C558.233 232.789 557.504 232.659 556.792 232.405C556.08 232.145 555.439 231.726 554.869 231.146C554.3 230.561 553.847 229.785 553.511 228.819C553.176 227.848 553.01 226.645 553.015 225.211C553.015 223.873 553.158 222.681 553.443 221.633C553.727 220.585 554.137 219.7 554.671 218.978C555.205 218.251 555.848 217.697 556.601 217.315C557.359 216.934 558.205 216.743 559.141 216.743C560.123 216.743 560.992 216.936 561.75 217.323C562.513 217.709 563.128 218.238 563.596 218.91C564.064 219.576 564.354 220.329 564.466 221.168H561.682C561.539 220.568 561.247 220.09 560.804 219.734C560.367 219.372 559.813 219.192 559.141 219.192C558.058 219.192 557.224 219.662 556.639 220.603C556.059 221.544 555.767 222.836 555.762 224.479H555.869C556.118 224.031 556.441 223.647 556.837 223.327C557.234 223.006 557.682 222.76 558.18 222.587C558.683 222.409 559.215 222.32 559.774 222.32C560.69 222.32 561.511 222.538 562.238 222.976C562.971 223.413 563.551 224.016 563.978 224.784C564.405 225.547 564.616 226.421 564.611 227.408C564.616 228.435 564.382 229.358 563.909 230.177C563.436 230.991 562.777 231.632 561.933 232.099C561.089 232.567 560.105 232.799 558.981 232.794ZM558.966 230.505C559.52 230.505 560.016 230.37 560.453 230.101C560.891 229.831 561.237 229.468 561.491 229.01C561.745 228.552 561.87 228.039 561.865 227.469C561.87 226.909 561.748 226.403 561.498 225.951C561.254 225.498 560.916 225.14 560.484 224.875C560.052 224.611 559.558 224.479 559.004 224.479C558.592 224.479 558.208 224.557 557.852 224.715C557.496 224.873 557.186 225.091 556.921 225.371C556.657 225.646 556.448 225.966 556.296 226.332C556.148 226.693 556.072 227.08 556.067 227.492C556.072 228.036 556.199 228.537 556.448 228.995C556.698 229.452 557.041 229.819 557.478 230.093C557.916 230.368 558.411 230.505 558.966 230.505Z" fill="#FFC300"/>
<line x1="84.2539" y1="267.243" x2="84.2538" y2="418.655" stroke="#1D252C" stroke-opacity="0.08" stroke-width="0.976459"/>
<line x1="334.66" y1="267.238" x2="334.66" y2="466.436" stroke="#1D252C" stroke-opacity="0.08" stroke-width="0.976459"/>
<line x1="209.668" y1="267.238" x2="209.668" y2="466.436" stroke="#1D252C" stroke-opacity="0.08" stroke-width="0.976459"/>
<line x1="459.644" y1="267.238" x2="459.644" y2="466.436" stroke="#1D252C" stroke-opacity="0.08" stroke-width="0.976459"/>
<line x1="618.98" y1="267.243" x2="618.98" y2="445.774" stroke="#1D252C" stroke-opacity="0.08" stroke-width="0.976459"/>
<path d="M84.1719 305.81C84.1719 305.81 108.445 303.52 123.718 305.81C140.355 308.304 147.915 318.451 164.73 318.992C180.584 319.502 189.339 315.056 204.276 309.716C222.505 303.199 228.859 286.592 248.217 286.769C265.529 286.928 271.774 300.498 288.251 305.81C303.947 310.87 313.26 313.487 329.751 313.622C346.991 313.763 355.964 305.554 373.203 305.81C389.131 306.046 397.341 314.644 413.238 313.622C430.632 312.503 438.022 301.287 455.225 298.487C470.28 296.036 479.046 299.167 494.284 298.487C510.735 297.752 520.037 291.815 536.271 294.581C553.338 297.488 559.052 312.191 576.306 313.622C593.271 315.029 618.294 301.904 618.294 301.904" stroke="#FFC300" stroke-width="2.92938"/>
<path d="M213.601 306.665C213.601 308.553 212.071 310.083 210.183 310.083C208.296 310.083 206.766 308.553 206.766 306.665C206.766 304.778 208.296 303.248 210.183 303.248C212.071 303.248 213.601 304.778 213.601 306.665Z" fill="white" stroke="#FFC300" stroke-width="1.95292"/>
<path d="M337.898 313.445C337.898 315.332 336.367 316.862 334.48 316.862C332.593 316.862 331.062 315.332 331.062 313.445C331.062 311.557 332.593 310.027 334.48 310.027C336.367 310.027 337.898 311.557 337.898 313.445Z" fill="white" stroke="#FFC300" stroke-width="1.95292"/>
<path d="M463.319 297.626C463.319 299.513 461.789 301.043 459.902 301.043C458.014 301.043 456.484 299.513 456.484 297.626C456.484 295.738 458.014 294.208 459.902 294.208C461.789 294.208 463.319 295.738 463.319 297.626Z" fill="white" stroke="#FFC300" stroke-width="1.95292"/>
<path d="M619.288 302.878C619.288 304.766 617.758 306.296 615.871 306.296C613.983 306.296 612.453 304.766 612.453 302.878C612.453 300.991 613.983 299.461 615.871 299.461C617.758 299.461 619.288 300.991 619.288 302.878Z" fill="white" stroke="#FFC300" stroke-width="1.95292"/>
<path d="M86.1398 305.809C86.1398 307.696 84.6097 309.227 82.7222 309.227C80.8347 309.227 79.3046 307.696 79.3046 305.809C79.3046 303.921 80.8347 302.391 82.7222 302.391C84.6097 302.391 86.1398 303.921 86.1398 305.809Z" fill="white" stroke="#FFC300" stroke-width="1.95292"/>
<path d="M578.758 388.809C594.031 386.519 603.031 348.924 618.305 351.213V466.924H84.183V384.903C84.183 384.903 109.205 398.028 126.171 396.621C143.424 395.19 149.138 364.373 166.205 361.466C182.439 358.701 191.741 380.751 208.193 381.485C223.431 382.166 232.196 379.035 247.251 381.485C264.455 384.286 266.474 400.873 283.868 401.991C299.765 403.013 313.346 389.045 329.274 388.809C346.513 388.553 355.485 396.762 372.726 396.621C389.216 396.486 398.53 393.869 414.225 388.809C430.703 383.497 436.948 339.655 454.26 339.496C473.618 339.319 479.971 386.198 498.201 392.715C513.138 398.055 521.892 402.501 537.747 401.991C554.561 401.45 562.121 391.303 578.758 388.809Z" fill="url(#paint0_linear_2324_14391)" fill-opacity="0.48"/>
<path d="M618.305 351.213C603.031 348.924 594.031 386.519 578.758 388.809C562.121 391.303 554.561 401.45 537.747 401.991C521.892 402.501 513.138 398.055 498.201 392.715C479.971 386.198 473.618 339.319 454.26 339.496C436.948 339.655 430.703 383.497 414.225 388.809C398.53 393.869 389.216 396.486 372.726 396.621C355.485 396.762 346.513 388.553 329.274 388.809C313.346 389.045 299.765 403.013 283.868 401.991C266.474 400.873 264.455 384.286 247.251 381.485C232.196 379.035 223.431 382.166 208.193 381.485C191.741 380.751 182.439 358.701 166.205 361.466C149.138 364.373 143.424 395.19 126.171 396.621C109.205 398.028 84.183 384.903 84.183 384.903" stroke="#1D252C" stroke-width="2.92938"/>
<path d="M456.493 340.564C456.493 342.452 458.023 343.982 459.911 343.982C461.798 343.982 463.328 342.452 463.328 340.564C463.328 338.676 461.798 337.146 459.911 337.146C458.023 337.146 456.493 338.676 456.493 340.564Z" fill="white" stroke="#1D252C" stroke-width="1.95292"/>
<path d="M331.071 389.151C331.071 391.039 332.601 392.569 334.489 392.569C336.376 392.569 337.906 391.039 337.906 389.151C337.906 387.264 336.376 385.734 334.489 385.734C332.601 385.734 331.071 387.264 331.071 389.151Z" fill="white" stroke="#1D252C" stroke-width="1.95292"/>
<path d="M206.782 381.242C206.782 383.129 208.312 384.659 210.2 384.659C212.087 384.659 213.617 383.129 213.617 381.242C213.617 379.354 212.087 377.824 210.2 377.824C208.312 377.824 206.782 379.354 206.782 381.242Z" fill="white" stroke="#1D252C" stroke-width="1.95292"/>
<path d="M81.2587 385.879C81.2587 387.766 82.7888 389.297 84.6763 389.297C86.5637 389.297 88.0939 387.766 88.0939 385.879C88.0939 383.991 86.5637 382.461 84.6763 382.461C82.7888 382.461 81.2587 383.991 81.2587 385.879Z" fill="white" stroke="#1D252C" stroke-width="1.95292"/>
<path d="M614.407 351.7C614.407 353.588 615.937 355.118 617.825 355.118C619.712 355.118 621.242 353.588 621.242 351.7C621.242 349.813 619.712 348.282 617.825 348.282C615.937 348.282 614.407 349.813 614.407 351.7Z" fill="white" stroke="#1D252C" stroke-width="1.95292"/>
<path d="M123.734 422.985C108.461 420.696 84.1875 422.985 84.1875 422.985V452.389C84.1875 459.878 90.2582 465.948 97.7468 465.948H604.75C612.239 465.948 618.309 459.878 618.309 452.389V419.079C618.309 419.079 593.287 432.204 576.322 430.797C559.068 429.366 553.354 414.663 536.287 411.756C520.053 408.991 510.751 414.928 494.299 415.662C479.061 416.342 470.296 413.211 455.241 415.662C438.037 418.462 430.647 429.678 413.253 430.797C397.357 431.819 389.146 423.221 373.219 422.985C355.979 422.73 347.007 430.938 329.766 430.797C313.276 430.662 305.109 428.045 289.413 422.985C272.936 417.673 268.872 335.763 251.56 335.605C232.202 335.428 226.137 420.351 204.292 426.891C189.095 431.441 180.6 436.677 164.745 436.168C147.931 435.627 140.371 425.479 123.734 422.985Z" fill="#FCDA01" fill-opacity="0.16"/>
<path d="M84.1875 422.008C84.1875 422.008 108.461 419.718 123.734 422.008C140.371 424.502 147.931 434.65 164.745 435.19C180.6 435.7 191.102 434.727 204.292 425.914C231.221 407.921 231.637 335.428 250.995 335.605C268.307 335.763 267.38 408.486 288.267 422.008C302.11 430.97 313.276 429.685 329.766 429.82C347.007 429.961 355.979 421.752 373.219 422.008C389.146 422.244 397.357 430.842 413.253 429.82C430.647 428.701 438.037 417.485 455.241 414.685C470.296 412.234 479.061 415.365 494.299 414.685C510.751 413.95 520.053 408.013 536.287 410.779C553.354 413.686 559.068 428.389 576.322 429.82C593.287 431.227 618.309 418.102 618.309 418.102" stroke="#FCDA01" stroke-width="2.92938"/>
<rect x="80.3828" y="118.09" width="33.8983" height="33.8983" rx="16.9492" fill="#1D252C"/>
<path d="M105.229 129.955V134.474C105.229 134.586 105.196 134.695 105.135 134.788C105.073 134.881 104.985 134.954 104.883 134.997C104.813 135.025 104.739 135.039 104.664 135.039C104.514 135.039 104.369 134.981 104.261 134.877L102.404 133.013L98.2865 137.137C98.1794 137.243 98.0347 137.302 97.884 137.302C97.7332 137.302 97.5885 137.243 97.4814 137.137L95.0591 134.707L90.3769 139.397C90.2685 139.5 90.1244 139.559 89.9744 139.559C89.8247 139.557 89.6811 139.499 89.5719 139.397C89.4658 139.29 89.4062 139.145 89.4062 138.994C89.4062 138.843 89.4658 138.699 89.5719 138.592L94.6566 133.507C94.7637 133.401 94.9084 133.341 95.0591 133.341C95.2099 133.341 95.3545 133.401 95.4617 133.507L97.884 135.936L101.606 132.215L99.7413 130.357C99.6647 130.275 99.6127 130.174 99.5915 130.064C99.5702 129.954 99.5805 129.84 99.6212 129.736C99.6652 129.633 99.7381 129.546 99.8309 129.485C99.9238 129.423 100.033 129.39 100.144 129.39H104.664C104.813 129.39 104.957 129.449 105.063 129.555C105.169 129.661 105.229 129.805 105.229 129.955Z" fill="white"/>
<path d="M137.257 133.596H135.456C135.405 133.3 135.31 133.039 135.172 132.811C135.034 132.58 134.863 132.384 134.657 132.223C134.452 132.063 134.217 131.943 133.954 131.862C133.694 131.779 133.413 131.737 133.111 131.737C132.575 131.737 132.1 131.872 131.686 132.142C131.272 132.408 130.948 132.8 130.714 133.317C130.479 133.83 130.362 134.458 130.362 135.199C130.362 135.954 130.479 136.589 130.714 137.106C130.951 137.62 131.275 138.008 131.686 138.271C132.1 138.531 132.574 138.661 133.107 138.661C133.402 138.661 133.678 138.623 133.935 138.546C134.195 138.465 134.428 138.348 134.633 138.194C134.842 138.04 135.017 137.851 135.158 137.626C135.302 137.401 135.402 137.145 135.456 136.856L137.257 136.865C137.19 137.334 137.044 137.774 136.819 138.185C136.598 138.595 136.307 138.958 135.948 139.273C135.588 139.584 135.168 139.828 134.686 140.005C134.204 140.178 133.67 140.265 133.083 140.265C132.216 140.265 131.442 140.064 130.762 139.663C130.081 139.262 129.545 138.682 129.153 137.925C128.762 137.167 128.566 136.259 128.566 135.199C128.566 134.137 128.763 133.228 129.158 132.474C129.553 131.716 130.091 131.137 130.771 130.736C131.452 130.334 132.222 130.134 133.083 130.134C133.632 130.134 134.142 130.211 134.614 130.365C135.086 130.519 135.506 130.745 135.875 131.044C136.244 131.339 136.548 131.702 136.785 132.132C137.026 132.559 137.183 133.047 137.257 133.596ZM148.835 135.199C148.835 136.262 148.636 137.172 148.238 137.929C147.843 138.684 147.304 139.262 146.62 139.663C145.939 140.064 145.167 140.265 144.304 140.265C143.44 140.265 142.667 140.064 141.983 139.663C141.302 139.258 140.763 138.679 140.365 137.925C139.97 137.167 139.773 136.259 139.773 135.199C139.773 134.137 139.97 133.228 140.365 132.474C140.763 131.716 141.302 131.137 141.983 130.736C142.667 130.334 143.44 130.134 144.304 130.134C145.167 130.134 145.939 130.334 146.62 130.736C147.304 131.137 147.843 131.716 148.238 132.474C148.636 133.228 148.835 134.137 148.835 135.199ZM147.039 135.199C147.039 134.451 146.922 133.82 146.687 133.307C146.456 132.79 146.135 132.4 145.724 132.137C145.313 131.87 144.84 131.737 144.304 131.737C143.768 131.737 143.294 131.87 142.883 132.137C142.472 132.4 142.15 132.79 141.915 133.307C141.684 133.82 141.569 134.451 141.569 135.199C141.569 135.947 141.684 136.58 141.915 137.096C142.15 137.61 142.472 138 142.883 138.266C143.294 138.53 143.768 138.661 144.304 138.661C144.84 138.661 145.313 138.53 145.724 138.266C146.135 138 146.456 137.61 146.687 137.096C146.922 136.58 147.039 135.947 147.039 135.199ZM159.757 130.269V140.13H158.168L153.522 133.413H153.44V140.13H151.654V130.269H153.252L157.894 136.99H157.981V130.269H159.757ZM162.401 131.766V130.269H170.268V131.766H167.22V140.13H165.448V131.766H162.401ZM172.915 140.13V130.269H179.329V131.766H174.702V134.443H178.997V135.941H174.702V138.632H179.367V140.13H172.915ZM190.385 130.269V140.13H188.796L184.15 133.413H184.068V140.13H182.281V130.269H183.88L188.522 136.99H188.608V130.269H190.385ZM193.028 131.766V130.269H200.896V131.766H197.848V140.13H196.076V131.766H193.028ZM216.848 135.199C216.848 136.262 216.649 137.172 216.251 137.929C215.856 138.684 215.316 139.262 214.633 139.663C213.952 140.064 213.18 140.265 212.317 140.265C211.453 140.265 210.68 140.064 209.996 139.663C209.315 139.258 208.776 138.679 208.378 137.925C207.983 137.167 207.786 136.259 207.786 135.199C207.786 134.137 207.983 133.228 208.378 132.474C208.776 131.716 209.315 131.137 209.996 130.736C210.68 130.334 211.453 130.134 212.317 130.134C213.18 130.134 213.952 130.334 214.633 130.736C215.316 131.137 215.856 131.716 216.251 132.474C216.649 133.228 216.848 134.137 216.848 135.199ZM215.052 135.199C215.052 134.451 214.934 133.82 214.7 133.307C214.469 132.79 214.148 132.4 213.737 132.137C213.326 131.87 212.853 131.737 212.317 131.737C211.781 131.737 211.307 131.87 210.896 132.137C210.485 132.4 210.163 132.79 209.928 133.307C209.697 133.82 209.582 134.451 209.582 135.199C209.582 135.947 209.697 136.58 209.928 137.096C210.163 137.61 210.485 138 210.896 138.266C211.307 138.53 211.781 138.661 212.317 138.661C212.853 138.661 213.326 138.53 213.737 138.266C214.148 138 214.469 137.61 214.7 137.096C214.934 136.58 215.052 135.947 215.052 135.199ZM220.456 130.269L223.023 138.03H223.124L225.685 130.269H227.65L224.173 140.13H221.968L218.496 130.269H220.456ZM230.079 140.13V130.269H236.492V131.766H231.865V134.443H236.16V135.941H231.865V138.632H236.531V140.13H230.079ZM239.445 140.13V130.269H243.143C243.901 130.269 244.536 130.4 245.05 130.663C245.567 130.927 245.957 131.296 246.22 131.771C246.486 132.243 246.619 132.793 246.619 133.422C246.619 134.055 246.485 134.604 246.215 135.069C245.949 135.531 245.555 135.889 245.035 136.143C244.515 136.393 243.876 136.519 243.119 136.519H240.485V135.036H242.878C243.321 135.036 243.684 134.975 243.966 134.853C244.249 134.727 244.457 134.546 244.592 134.308C244.73 134.068 244.799 133.772 244.799 133.422C244.799 133.073 244.73 132.774 244.592 132.527C244.454 132.276 244.244 132.087 243.962 131.959C243.679 131.827 243.315 131.761 242.868 131.761H241.231V140.13H239.445ZM244.539 135.661L246.981 140.13H244.987L242.589 135.661H244.539ZM250.461 130.269L253.028 138.03H253.129L255.691 130.269H257.655L254.179 140.13H251.973L248.502 130.269H250.461ZM261.87 130.269V140.13H260.084V130.269H261.87ZM264.935 140.13V130.269H271.349V131.766H266.721V134.443H271.016V135.941H266.721V138.632H271.387V140.13H264.935ZM276.376 140.13L273.593 130.269H275.514L277.291 137.515H277.383L279.28 130.269H281.028L282.93 137.52H283.016L284.793 130.269H286.714L283.931 140.13H282.169L280.195 133.211H280.118L278.139 140.13H276.376Z" fill="black"/>
<rect opacity="0.05" x="51" y="69.5029" width="600" height="33.8983" fill="#1C1C1F"/>
<ellipse opacity="0.1" cx="85.3892" cy="86.29" rx="6.2954" ry="6.2954" fill="#1C1C1F"/>
<ellipse opacity="0.1" cx="108.459" cy="86.29" rx="6.2954" ry="6.2954" fill="#1C1C1F"/>
<ellipse opacity="0.1" cx="131.553" cy="86.29" rx="6.2954" ry="6.2954" fill="#1C1C1F"/>
</g>
<rect x="51.5" y="70.0029" width="599" height="455.497" rx="13.0593" stroke="#1D252C"/>
</g>
<g filter="url(#filter1_d_2324_14391)">
<rect y="376" width="164" height="181" rx="12" fill="white"/>
<path d="M0 388C0 381.373 5.37258 376 12 376H152C158.627 376 164 381.373 164 388V412H0V388Z" fill="black"/>
<path d="M20.7173 536V528.727H25.3764V529.832H22.0348V531.806H25.0568V532.911H22.0348V536H20.7173ZM28.5343 536.107C27.9874 536.107 27.5151 535.993 27.1174 535.766C26.722 535.536 26.4178 535.212 26.2047 534.793C25.9917 534.371 25.8851 533.875 25.8851 533.305C25.8851 532.744 25.9917 532.251 26.2047 531.827C26.4202 531.401 26.7208 531.07 27.1067 530.833C27.4926 530.594 27.946 530.474 28.4668 530.474C28.803 530.474 29.1202 530.529 29.4185 530.638C29.7192 530.744 29.9843 530.91 30.214 531.135C30.446 531.36 30.6283 531.646 30.7608 531.994C30.8934 532.34 30.9597 532.752 30.9597 533.23V533.624H26.4888V532.758H29.7275C29.7251 532.512 29.6718 532.293 29.5676 532.101C29.4635 531.907 29.3179 531.754 29.1309 531.643C28.9462 531.531 28.7308 531.476 28.4846 531.476C28.2218 531.476 27.9909 531.54 27.7921 531.668C27.5932 531.793 27.4382 531.959 27.3269 532.165C27.218 532.368 27.1623 532.592 27.16 532.836V533.592C27.16 533.91 27.218 534.182 27.334 534.409C27.45 534.634 27.6122 534.807 27.8205 534.928C28.0288 535.046 28.2727 535.105 28.552 535.105C28.7391 535.105 28.9083 535.079 29.0598 535.027C29.2114 534.973 29.3427 534.893 29.454 534.789C29.5653 534.685 29.6493 534.556 29.7061 534.402L30.9064 534.537C30.8307 534.854 30.6863 535.131 30.4732 535.368C30.2625 535.602 29.9926 535.785 29.6635 535.915C29.3345 536.043 28.958 536.107 28.5343 536.107ZM32.104 536V528.727H33.3896V531.447H33.4428C33.5091 531.315 33.6026 531.174 33.7234 531.025C33.8441 530.873 34.0075 530.744 34.2134 530.638C34.4194 530.529 34.6822 530.474 35.0018 530.474C35.4232 530.474 35.8031 530.582 36.1417 530.798C36.4826 531.011 36.7525 531.327 36.9513 531.746C37.1526 532.162 37.2532 532.674 37.2532 533.28C37.2532 533.879 37.1549 534.388 36.9585 534.807C36.762 535.226 36.4944 535.545 36.1559 535.766C35.8174 535.986 35.4338 536.096 35.0053 536.096C34.6928 536.096 34.4336 536.044 34.2276 535.94C34.0217 535.835 33.8559 535.71 33.7305 535.563C33.6074 535.414 33.5115 535.273 33.4428 535.141H33.3683V536H32.104ZM33.3647 533.273C33.3647 533.625 33.4144 533.934 33.5138 534.2C33.6156 534.465 33.7612 534.672 33.9506 534.821C34.1424 534.968 34.3744 535.041 34.6467 535.041C34.9308 535.041 35.1687 534.965 35.3604 534.814C35.5522 534.66 35.6966 534.451 35.7937 534.185C35.8931 533.918 35.9428 533.614 35.9428 533.273C35.9428 532.934 35.8943 532.634 35.7972 532.371C35.7002 532.108 35.5558 531.902 35.364 531.753C35.1722 531.604 34.9331 531.529 34.6467 531.529C34.372 531.529 34.1388 531.601 33.9471 531.746C33.7553 531.89 33.6097 532.093 33.5103 532.353C33.4132 532.613 33.3647 532.92 33.3647 533.273ZM43.7704 528.727V536H42.4529V530.009H42.4103L40.7093 531.096V529.888L42.5169 528.727H43.7704ZM45.617 536V535.048L48.1419 532.573C48.3833 532.329 48.5846 532.113 48.7456 531.923C48.9065 531.734 49.0273 531.55 49.1078 531.373C49.1883 531.195 49.2285 531.006 49.2285 530.805C49.2285 530.575 49.1764 530.379 49.0723 530.215C48.9681 530.049 48.8249 529.922 48.6426 529.832C48.4603 529.742 48.2531 529.697 48.0211 529.697C47.782 529.697 47.5725 529.746 47.3926 529.846C47.2127 529.943 47.073 530.081 46.9735 530.261C46.8765 530.441 46.8279 530.656 46.8279 530.904H45.5744C45.5744 530.442 45.6797 530.041 45.8904 529.7C46.1011 529.359 46.3912 529.095 46.7605 528.908C47.1322 528.721 47.5583 528.628 48.0389 528.628C48.5266 528.628 48.9551 528.719 49.3244 528.901C49.6937 529.084 49.9802 529.333 50.1838 529.651C50.3897 529.968 50.4927 530.33 50.4927 530.737C50.4927 531.009 50.4406 531.277 50.3365 531.54C50.2323 531.803 50.0488 532.094 49.786 532.413C49.5256 532.733 49.1599 533.12 48.6887 533.575L47.4352 534.849V534.899H50.6028V536H45.617Z" fill="#1D252C" fill-opacity="0.64"/>
<path d="M20.4773 391.598V390.273H27.4403V391.598H24.7429V399H23.1747V391.598H20.4773ZM28.7145 399V392.455H30.2571V399H28.7145ZM29.4901 391.526C29.2457 391.526 29.0355 391.445 28.8594 391.283C28.6832 391.118 28.5952 390.92 28.5952 390.69C28.5952 390.457 28.6832 390.26 28.8594 390.098C29.0355 389.933 29.2457 389.851 29.4901 389.851C29.7372 389.851 29.9474 389.933 30.1207 390.098C30.2969 390.26 30.3849 390.457 30.3849 390.69C30.3849 390.92 30.2969 391.118 30.1207 391.283C29.9474 391.445 29.7372 391.526 29.4901 391.526ZM31.8434 399V392.455H33.3178V393.567H33.3945C33.5309 393.192 33.7567 392.899 34.0721 392.689C34.3874 392.476 34.7638 392.369 35.2013 392.369C35.6445 392.369 36.0181 392.477 36.3221 392.693C36.6289 392.906 36.8448 393.197 36.9698 393.567H37.038C37.1829 393.203 37.4272 392.913 37.771 392.697C38.1175 392.479 38.5281 392.369 39.0025 392.369C39.6048 392.369 40.0962 392.56 40.4769 392.94C40.8576 393.321 41.0479 393.876 41.0479 394.607V399H39.5011V394.845C39.5011 394.439 39.3931 394.142 39.1772 393.955C38.9613 393.764 38.6971 393.669 38.3846 393.669C38.0124 393.669 37.7212 393.786 37.511 394.018C37.3036 394.249 37.1999 394.548 37.1999 394.918V399H35.6871V394.781C35.6871 394.443 35.5849 394.173 35.3803 393.972C35.1786 393.77 34.9144 393.669 34.5877 393.669C34.3661 393.669 34.1644 393.726 33.9826 393.839C33.8008 393.95 33.6559 394.108 33.5479 394.312C33.44 394.514 33.386 394.75 33.386 395.02V399H31.8434ZM45.5107 399.128C44.8544 399.128 44.2876 398.991 43.8104 398.719C43.3359 398.443 42.9709 398.054 42.7152 397.551C42.4595 397.045 42.3317 396.45 42.3317 395.766C42.3317 395.092 42.4595 394.501 42.7152 393.993C42.9737 393.482 43.3345 393.084 43.7976 392.8C44.2607 392.513 44.8047 392.369 45.4297 392.369C45.8331 392.369 46.2138 392.435 46.5717 392.565C46.9325 392.693 47.2507 392.892 47.5263 393.162C47.8047 393.432 48.0234 393.776 48.1825 394.193C48.3416 394.608 48.4212 395.102 48.4212 395.676V396.149H43.0561V395.109H46.9425C46.9396 394.814 46.8757 394.551 46.7507 394.321C46.6257 394.088 46.451 393.905 46.2266 393.771C46.005 393.638 45.7464 393.571 45.451 393.571C45.1357 393.571 44.8587 393.648 44.62 393.801C44.3814 393.952 44.1953 394.151 44.0618 394.398C43.9311 394.642 43.8643 394.911 43.8615 395.203V396.111C43.8615 396.491 43.9311 396.818 44.0703 397.091C44.2095 397.361 44.4041 397.568 44.6541 397.713C44.9041 397.855 45.1967 397.926 45.532 397.926C45.7564 397.926 45.9595 397.895 46.1413 397.832C46.3232 397.767 46.4808 397.672 46.6143 397.547C46.7479 397.422 46.8487 397.267 46.9169 397.082L48.3572 397.244C48.2663 397.625 48.093 397.957 47.8374 398.241C47.5845 398.523 47.2607 398.741 46.8658 398.898C46.4709 399.051 46.0192 399.128 45.5107 399.128ZM55.5579 399.128C54.9187 399.128 54.3647 398.987 53.896 398.706C53.4272 398.425 53.0636 398.031 52.805 397.526C52.5494 397.02 52.4215 396.429 52.4215 395.753C52.4215 395.077 52.5494 394.484 52.805 393.976C53.0636 393.467 53.4272 393.072 53.896 392.791C54.3647 392.51 54.9187 392.369 55.5579 392.369C56.1971 392.369 56.7511 392.51 57.2198 392.791C57.6886 393.072 58.0508 393.467 58.3065 393.976C58.565 394.484 58.6942 395.077 58.6942 395.753C58.6942 396.429 58.565 397.02 58.3065 397.526C58.0508 398.031 57.6886 398.425 57.2198 398.706C56.7511 398.987 56.1971 399.128 55.5579 399.128ZM55.5664 397.892C55.913 397.892 56.2028 397.797 56.4357 397.607C56.6687 397.413 56.842 397.155 56.9556 396.831C57.0721 396.507 57.1303 396.146 57.1303 395.749C57.1303 395.348 57.0721 394.986 56.9556 394.662C56.842 394.335 56.6687 394.075 56.4357 393.882C56.2028 393.689 55.913 393.592 55.5664 393.592C55.2113 393.592 54.9158 393.689 54.68 393.882C54.4471 394.075 54.2724 394.335 54.1559 394.662C54.0423 394.986 53.9854 395.348 53.9854 395.749C53.9854 396.146 54.0423 396.507 54.1559 396.831C54.2724 397.155 54.4471 397.413 54.68 397.607C54.9158 397.797 55.2113 397.892 55.5664 397.892ZM61.5462 395.165V399H60.0036V392.455H61.478V393.567H61.5547C61.7053 393.2 61.9453 392.909 62.2749 392.693C62.6072 392.477 63.0178 392.369 63.5064 392.369C63.9581 392.369 64.3516 392.466 64.6868 392.659C65.0249 392.852 65.2862 393.132 65.4709 393.499C65.6584 393.865 65.7507 394.31 65.7479 394.832V399H64.2053V395.071C64.2053 394.634 64.0916 394.291 63.8643 394.044C63.6399 393.797 63.3288 393.673 62.9311 393.673C62.6612 393.673 62.4212 393.733 62.2109 393.852C62.0036 393.969 61.8402 394.138 61.7209 394.359C61.6044 394.581 61.5462 394.849 61.5462 395.165ZM75.1037 392.672C75.0639 392.3 74.8963 392.01 74.6009 391.803C74.3082 391.595 73.9276 391.491 73.4588 391.491C73.1293 391.491 72.8466 391.541 72.6108 391.641C72.375 391.74 72.1946 391.875 72.0696 392.045C71.9446 392.216 71.8807 392.411 71.8778 392.629C71.8778 392.811 71.919 392.969 72.0014 393.102C72.0866 393.236 72.2017 393.349 72.3466 393.443C72.4915 393.534 72.652 393.611 72.8281 393.673C73.0043 393.736 73.1818 393.788 73.3608 393.831L74.179 394.036C74.5085 394.112 74.8253 394.216 75.1293 394.347C75.4361 394.477 75.7102 394.642 75.9517 394.841C76.196 395.04 76.3892 395.28 76.5312 395.561C76.6733 395.842 76.7443 396.172 76.7443 396.55C76.7443 397.061 76.6136 397.511 76.3523 397.901C76.0909 398.287 75.7131 398.589 75.2188 398.808C74.7273 399.024 74.1321 399.132 73.4332 399.132C72.7543 399.132 72.1648 399.027 71.6648 398.817C71.1676 398.607 70.7784 398.3 70.4972 397.896C70.2188 397.493 70.0682 397.001 70.0455 396.422H71.6009C71.6236 396.726 71.7173 396.979 71.8821 397.18C72.0469 397.382 72.2614 397.533 72.5256 397.632C72.7926 397.732 73.0909 397.781 73.4205 397.781C73.7642 397.781 74.0653 397.73 74.3239 397.628C74.5852 397.523 74.7898 397.378 74.9375 397.193C75.0852 397.006 75.1605 396.787 75.1634 396.537C75.1605 396.31 75.0938 396.122 74.9631 395.974C74.8324 395.824 74.6491 395.699 74.4134 395.599C74.1804 395.497 73.9077 395.406 73.5952 395.327L72.6023 395.071C71.8835 394.886 71.3153 394.607 70.8977 394.232C70.483 393.854 70.2756 393.352 70.2756 392.727C70.2756 392.213 70.4148 391.763 70.6932 391.376C70.9744 390.99 71.3565 390.69 71.8395 390.477C72.3224 390.261 72.8693 390.153 73.4801 390.153C74.0994 390.153 74.642 390.261 75.108 390.477C75.5767 390.69 75.9446 390.987 76.2116 391.368C76.4787 391.746 76.6165 392.18 76.625 392.672H75.1037ZM78.0856 399V392.455H79.6282V399H78.0856ZM78.8612 391.526C78.6168 391.526 78.4066 391.445 78.2305 391.283C78.0543 391.118 77.9663 390.92 77.9663 390.69C77.9663 390.457 78.0543 390.26 78.2305 390.098C78.4066 389.933 78.6168 389.851 78.8612 389.851C79.1083 389.851 79.3185 389.933 79.4918 390.098C79.668 390.26 79.756 390.457 79.756 390.69C79.756 390.92 79.668 391.118 79.4918 391.283C79.3185 391.445 79.1083 391.526 78.8612 391.526ZM84.483 392.455V393.648H80.7202V392.455H84.483ZM81.6491 390.886H83.1918V397.031C83.1918 397.239 83.223 397.398 83.2855 397.509C83.3509 397.616 83.4361 397.69 83.5412 397.73C83.6463 397.77 83.7628 397.79 83.8906 397.79C83.9872 397.79 84.0753 397.783 84.1548 397.768C84.2372 397.754 84.2997 397.741 84.3423 397.73L84.6023 398.936C84.5199 398.964 84.402 398.996 84.2486 399.03C84.098 399.064 83.9134 399.084 83.6946 399.089C83.3082 399.101 82.9602 399.043 82.6506 398.915C82.3409 398.784 82.0952 398.582 81.9134 398.31C81.7344 398.037 81.6463 397.696 81.6491 397.287V390.886ZM88.6005 399.128C87.9442 399.128 87.3775 398.991 86.9002 398.719C86.4258 398.443 86.0607 398.054 85.805 397.551C85.5494 397.045 85.4215 396.45 85.4215 395.766C85.4215 395.092 85.5494 394.501 85.805 393.993C86.0636 393.482 86.4244 393.084 86.8874 392.8C87.3505 392.513 87.8945 392.369 88.5195 392.369C88.9229 392.369 89.3036 392.435 89.6616 392.565C90.0224 392.693 90.3406 392.892 90.6161 393.162C90.8945 393.432 91.1133 393.776 91.2724 394.193C91.4315 394.608 91.511 395.102 91.511 395.676V396.149H86.146V395.109H90.0323C90.0295 394.814 89.9656 394.551 89.8406 394.321C89.7156 394.088 89.5408 393.905 89.3164 393.771C89.0948 393.638 88.8363 393.571 88.5408 393.571C88.2255 393.571 87.9485 393.648 87.7099 393.801C87.4712 393.952 87.2852 394.151 87.1516 394.398C87.021 394.642 86.9542 394.911 86.9513 395.203V396.111C86.9513 396.491 87.021 396.818 87.1602 397.091C87.2994 397.361 87.494 397.568 87.744 397.713C87.994 397.855 88.2866 397.926 88.6218 397.926C88.8462 397.926 89.0494 397.895 89.2312 397.832C89.413 397.767 89.5707 397.672 89.7042 397.547C89.8377 397.422 89.9386 397.267 90.0067 397.082L91.4471 397.244C91.3562 397.625 91.1829 397.957 90.9272 398.241C90.6744 398.523 90.3505 398.741 89.9556 398.898C89.5607 399.051 89.109 399.128 88.6005 399.128Z" fill="white"/>
<rect x="20" y="440.051" width="28.5717" height="73.2601" rx="3.66302" fill="#FCDA01"/>
<rect x="84.5703" y="470.088" width="28.5717" height="43.2234" rx="3.66302" fill="#1D252C" fill-opacity="0.08"/>
<rect x="52.3359" y="456.902" width="28.5717" height="56.4103" rx="3.66302" fill="#1D252C" fill-opacity="0.08"/>
<rect x="116.812" y="440.051" width="28.5717" height="73.2601" rx="3.66302" fill="#FCDA01"/>
<rect x="0.5" y="376.5" width="163" height="180" rx="11.5" stroke="#1D252C"/>
</g>
<g filter="url(#filter2_d_2324_14391)">
<g clip-path="url(#clip2_2324_14391)">
<rect x="388" width="214.195" height="300" rx="10" fill="white"/>
<rect x="388" width="216" height="42" fill="black"/>
<path d="M482.396 116.305V115.455H487.462V116.305H485.42V122H484.435V116.305H482.396ZM489.861 122.099C489.4 122.099 488.999 121.994 488.656 121.783C488.313 121.572 488.046 121.277 487.857 120.897C487.667 120.518 487.572 120.075 487.572 119.568C487.572 119.059 487.667 118.613 487.857 118.232C488.046 117.85 488.313 117.554 488.656 117.343C488.999 117.132 489.4 117.027 489.861 117.027C490.321 117.027 490.722 117.132 491.066 117.343C491.409 117.554 491.675 117.85 491.865 118.232C492.054 118.613 492.149 119.059 492.149 119.568C492.149 120.075 492.054 120.518 491.865 120.897C491.675 121.277 491.409 121.572 491.066 121.783C490.722 121.994 490.321 122.099 489.861 122.099ZM489.864 121.297C490.162 121.297 490.409 121.218 490.605 121.06C490.801 120.903 490.946 120.693 491.04 120.431C491.136 120.169 491.184 119.88 491.184 119.565C491.184 119.251 491.136 118.964 491.04 118.702C490.946 118.437 490.801 118.225 490.605 118.066C490.409 117.906 490.162 117.826 489.864 117.826C489.563 117.826 489.314 117.906 489.116 118.066C488.92 118.225 488.774 118.437 488.678 118.702C488.584 118.964 488.537 119.251 488.537 119.565C488.537 119.88 488.584 120.169 488.678 120.431C488.774 120.693 488.92 120.903 489.116 121.06C489.314 121.218 489.563 121.297 489.864 121.297ZM495.507 117.091V117.858H492.826V117.091H495.507ZM493.545 115.915H494.5V120.559C494.5 120.744 494.528 120.884 494.584 120.977C494.639 121.069 494.71 121.132 494.798 121.166C494.887 121.198 494.984 121.214 495.089 121.214C495.165 121.214 495.232 121.208 495.29 121.198C495.347 121.187 495.392 121.179 495.424 121.172L495.597 121.962C495.541 121.983 495.462 122.004 495.36 122.026C495.258 122.049 495.13 122.062 494.977 122.064C494.725 122.068 494.491 122.023 494.274 121.93C494.056 121.836 493.88 121.691 493.746 121.495C493.612 121.299 493.545 121.053 493.545 120.757V115.915ZM497.993 122.109C497.682 122.109 497.401 122.051 497.149 121.936C496.898 121.819 496.699 121.65 496.551 121.428C496.407 121.206 496.334 120.935 496.334 120.613C496.334 120.336 496.387 120.108 496.494 119.929C496.6 119.75 496.744 119.608 496.925 119.504C497.107 119.4 497.309 119.321 497.533 119.267C497.756 119.214 497.984 119.174 498.217 119.146C498.511 119.112 498.749 119.084 498.933 119.063C499.116 119.039 499.249 119.002 499.332 118.951C499.415 118.9 499.457 118.817 499.457 118.702V118.679C499.457 118.4 499.378 118.184 499.22 118.031C499.065 117.877 498.832 117.8 498.523 117.8C498.202 117.8 497.948 117.872 497.763 118.015C497.58 118.155 497.453 118.312 497.382 118.484L496.484 118.28C496.591 117.982 496.746 117.741 496.951 117.558C497.158 117.372 497.395 117.238 497.664 117.155C497.932 117.07 498.214 117.027 498.511 117.027C498.707 117.027 498.914 117.05 499.134 117.097C499.355 117.142 499.562 117.225 499.754 117.347C499.948 117.468 500.107 117.642 500.23 117.868C500.354 118.091 500.415 118.382 500.415 118.74V122H499.482V121.329H499.444C499.382 121.452 499.289 121.574 499.166 121.693C499.042 121.812 498.884 121.912 498.69 121.99C498.496 122.069 498.263 122.109 497.993 122.109ZM498.201 121.342C498.465 121.342 498.691 121.289 498.878 121.185C499.068 121.081 499.212 120.944 499.31 120.776C499.41 120.605 499.46 120.423 499.46 120.229V119.597C499.426 119.631 499.36 119.663 499.262 119.692C499.166 119.72 499.056 119.745 498.933 119.766C498.809 119.785 498.689 119.803 498.571 119.82C498.454 119.835 498.356 119.848 498.277 119.859C498.092 119.882 497.923 119.922 497.769 119.977C497.618 120.032 497.496 120.112 497.405 120.217C497.315 120.319 497.271 120.455 497.271 120.626C497.271 120.862 497.358 121.041 497.533 121.163C497.707 121.282 497.93 121.342 498.201 121.342ZM502.644 115.455V122H501.688V115.455H502.644Z" fill="black"/>
<path d="M474.244 141.159C473.396 141.159 472.64 141.013 471.977 140.722C471.318 140.426 470.797 140.021 470.415 139.506C470.036 138.987 469.841 138.388 469.83 137.71H472.307C472.322 137.994 472.415 138.244 472.585 138.46C472.759 138.672 472.991 138.837 473.278 138.955C473.566 139.072 473.89 139.131 474.25 139.131C474.625 139.131 474.956 139.064 475.244 138.932C475.532 138.799 475.758 138.616 475.92 138.381C476.083 138.146 476.165 137.875 476.165 137.568C476.165 137.258 476.078 136.983 475.903 136.744C475.733 136.502 475.487 136.312 475.165 136.176C474.847 136.04 474.468 135.972 474.028 135.972H472.943V134.165H474.028C474.4 134.165 474.727 134.1 475.011 133.972C475.299 133.843 475.523 133.665 475.682 133.438C475.841 133.206 475.92 132.938 475.92 132.631C475.92 132.339 475.85 132.083 475.71 131.864C475.574 131.64 475.381 131.466 475.131 131.341C474.884 131.216 474.597 131.153 474.267 131.153C473.934 131.153 473.629 131.214 473.352 131.335C473.076 131.453 472.854 131.621 472.688 131.841C472.521 132.061 472.432 132.318 472.42 132.614H470.062C470.074 131.943 470.265 131.352 470.636 130.841C471.008 130.33 471.508 129.93 472.136 129.642C472.769 129.35 473.483 129.205 474.278 129.205C475.081 129.205 475.784 129.35 476.386 129.642C476.989 129.934 477.456 130.328 477.79 130.824C478.127 131.316 478.294 131.869 478.29 132.483C478.294 133.134 478.091 133.678 477.682 134.114C477.277 134.549 476.748 134.826 476.097 134.943V135.034C476.953 135.144 477.604 135.441 478.051 135.926C478.502 136.407 478.725 137.009 478.722 137.733C478.725 138.396 478.534 138.985 478.148 139.5C477.765 140.015 477.237 140.42 476.562 140.716C475.888 141.011 475.116 141.159 474.244 141.159ZM485.053 141.256C484.075 141.252 483.234 141.011 482.53 140.534C481.829 140.057 481.289 139.366 480.911 138.46C480.536 137.555 480.35 136.466 480.354 135.193C480.354 133.924 480.541 132.843 480.916 131.949C481.295 131.055 481.835 130.375 482.536 129.909C483.24 129.439 484.079 129.205 485.053 129.205C486.026 129.205 486.863 129.439 487.564 129.909C488.268 130.379 488.81 131.061 489.189 131.955C489.568 132.845 489.755 133.924 489.751 135.193C489.751 136.47 489.562 137.561 489.183 138.466C488.808 139.371 488.27 140.062 487.57 140.54C486.869 141.017 486.03 141.256 485.053 141.256ZM485.053 139.216C485.719 139.216 486.251 138.881 486.649 138.21C487.047 137.54 487.244 136.534 487.24 135.193C487.24 134.311 487.149 133.576 486.967 132.989C486.789 132.402 486.536 131.96 486.206 131.665C485.88 131.369 485.496 131.222 485.053 131.222C484.39 131.222 483.859 131.553 483.462 132.216C483.064 132.879 482.863 133.871 482.859 135.193C482.859 136.087 482.948 136.833 483.126 137.432C483.308 138.027 483.564 138.473 483.893 138.773C484.223 139.068 484.609 139.216 485.053 139.216ZM492.474 141.148C492.099 141.148 491.777 141.015 491.509 140.75C491.243 140.481 491.111 140.159 491.111 139.784C491.111 139.413 491.243 139.095 491.509 138.83C491.777 138.564 492.099 138.432 492.474 138.432C492.838 138.432 493.156 138.564 493.429 138.83C493.702 139.095 493.838 139.413 493.838 139.784C493.838 140.034 493.774 140.263 493.645 140.472C493.52 140.676 493.355 140.841 493.151 140.966C492.946 141.087 492.721 141.148 492.474 141.148ZM495.803 141V139.227L499.945 135.392C500.297 135.051 500.592 134.744 500.831 134.472C501.073 134.199 501.257 133.932 501.382 133.67C501.507 133.405 501.57 133.119 501.57 132.812C501.57 132.472 501.492 132.178 501.337 131.932C501.181 131.682 500.969 131.491 500.7 131.358C500.431 131.222 500.126 131.153 499.786 131.153C499.429 131.153 499.119 131.225 498.854 131.369C498.589 131.513 498.384 131.72 498.24 131.989C498.096 132.258 498.024 132.578 498.024 132.949H495.689C495.689 132.187 495.861 131.527 496.206 130.966C496.551 130.405 497.034 129.972 497.655 129.665C498.276 129.358 498.992 129.205 499.803 129.205C500.636 129.205 501.361 129.352 501.979 129.648C502.6 129.939 503.083 130.345 503.428 130.864C503.772 131.383 503.945 131.977 503.945 132.648C503.945 133.087 503.857 133.521 503.683 133.949C503.513 134.377 503.208 134.852 502.768 135.375C502.329 135.894 501.71 136.517 500.911 137.244L499.212 138.909V138.989H504.098V141H495.803ZM505.949 141V129.364H508.409V134.494H508.562L512.75 129.364H515.699L511.381 134.574L515.75 141H512.807L509.619 136.216L508.409 137.693V141H505.949Z" fill="black"/>
<path d="M545 129C545 157.719 521.719 181 493 181C464.281 181 441 157.719 441 129C441 100.281 464.281 77 493 77C521.719 77 545 100.281 545 129ZM446.535 129C446.535 154.662 467.338 175.465 493 175.465C518.662 175.465 539.465 154.662 539.465 129C539.465 103.338 518.662 82.5353 493 82.5353C467.338 82.5353 446.535 103.338 446.535 129Z" fill="#1D252C" fill-opacity="0.08"/>
<path d="M464.533 85.4841C457.061 90.3722 450.973 97.1021 446.857 105.025C442.74 112.949 440.733 121.799 441.029 130.723C441.324 139.647 443.913 148.345 448.546 155.978C453.178 163.611 459.698 169.923 467.478 174.306C475.257 178.688 484.034 180.994 492.963 181C501.892 181.006 510.672 178.713 518.458 174.342C526.244 169.971 532.773 163.668 537.416 156.041C542.059 148.414 544.66 139.721 544.969 130.797L539.328 130.602C539.053 138.557 536.734 146.307 532.595 153.106C528.456 159.905 522.636 165.524 515.695 169.421C508.754 173.318 500.927 175.362 492.967 175.356C485.007 175.35 477.183 173.295 470.248 169.388C463.312 165.481 457.5 159.855 453.371 153.05C449.241 146.245 446.933 138.491 446.669 130.536C446.406 122.58 448.195 114.691 451.865 107.628C455.535 100.564 460.962 94.5648 467.623 90.2072L464.533 85.4841Z" fill="#1D252C"/>
<path d="M438.142 132.945C438.819 142.364 441.91 151.451 447.118 159.329C452.326 167.208 459.475 173.613 467.876 177.927C476.278 182.241 485.648 184.319 495.086 183.96C504.523 183.602 513.709 180.82 521.759 175.882C529.809 170.943 536.452 164.015 541.048 155.765C545.644 147.515 548.038 138.22 548 128.776C547.961 119.332 545.491 110.057 540.828 101.844C536.165 93.6312 529.466 86.7576 521.376 81.8851L515.147 92.2271C521.462 96.03 526.69 101.395 530.33 107.805C533.969 114.215 535.897 121.454 535.927 128.825C535.957 136.196 534.088 143.451 530.501 149.89C526.914 156.329 521.73 161.737 515.446 165.591C509.163 169.445 501.994 171.617 494.628 171.896C487.262 172.176 479.948 170.554 473.391 167.187C466.834 163.82 461.254 158.821 457.19 152.672C453.125 146.523 450.712 139.431 450.183 132.079L438.142 132.945Z" fill="#FCDA01"/>
<path d="M436.97 150.586C440.673 160.223 446.795 168.745 454.747 175.329C462.699 181.914 472.212 186.34 482.371 188.181C492.53 190.022 502.991 189.217 512.748 185.842C522.505 182.467 531.229 176.636 538.079 168.912C544.929 161.187 549.674 151.829 551.858 141.739C554.042 131.648 553.591 121.165 550.548 111.299C547.505 101.434 541.973 92.5179 534.485 85.4105C526.997 78.303 517.805 73.2435 507.794 70.7193L502.796 90.5415C509.403 92.2075 515.47 95.5467 520.412 100.238C525.354 104.929 529.005 110.813 531.014 117.324C533.022 123.836 533.32 130.754 531.878 137.414C530.437 144.074 527.305 150.25 522.784 155.349C518.263 160.447 512.505 164.295 506.066 166.522C499.626 168.75 492.722 169.282 486.017 168.066C479.312 166.851 473.033 163.93 467.785 159.584C462.537 155.238 458.496 149.614 456.052 143.254L436.97 150.586Z" fill="#1D252C"/>
<path d="M460.033 186.176C468.81 191.238 478.636 194.21 488.747 194.863C498.859 195.516 508.985 193.832 518.341 189.941C527.697 186.051 536.031 180.059 542.698 172.429C549.366 164.799 554.187 155.736 556.788 145.944C559.389 136.151 559.701 125.89 557.698 115.957C555.696 106.025 551.434 96.6864 545.242 88.6662C539.049 80.6459 531.094 74.159 521.991 69.7082C512.888 65.2574 502.883 62.9622 492.751 63.0005L492.868 94.0164C498.239 93.9961 503.542 95.2127 508.367 97.5719C513.192 99.9311 517.409 103.369 520.691 107.621C523.973 111.872 526.233 116.822 527.294 122.087C528.355 127.352 528.19 132.79 526.811 137.981C525.433 143.172 522.877 147.976 519.343 152.02C515.809 156.064 511.391 159.24 506.432 161.302C501.473 163.365 496.105 164.257 490.746 163.911C485.386 163.565 480.178 161.99 475.525 159.307L460.033 186.176Z" fill="#FCDA01"/>
<ellipse cx="411.01" cy="224.844" rx="5.01042" ry="5.01044" fill="#FCDA01"/>
<ellipse cx="410.534" cy="242.38" rx="5.01042" ry="5.01044" fill="#1D252C"/>
<ellipse cx="410.534" cy="259.917" rx="5.01042" ry="5.01044" fill="#FCDA01"/>
<ellipse cx="410.534" cy="277.452" rx="5.01042" ry="5.01044" fill="#EDEEEE"/>
<rect x="420.562" y="220.459" width="164.091" height="8.76827" rx="4.38413" fill="#1D252C" fill-opacity="0.06"/>
<rect x="420.562" y="237.996" width="144.049" height="8.76827" rx="4.38413" fill="#1D252C" fill-opacity="0.06"/>
<rect x="420.562" y="255.531" width="108.977" height="8.76827" rx="4.38413" fill="#1D252C" fill-opacity="0.06"/>
<rect x="420.562" y="273.068" width="121.503" height="8.76827" rx="4.38413" fill="#1D252C" fill-opacity="0.06"/>
<path d="M406.861 26V17.2727H410.134C410.804 17.2727 411.366 17.3977 411.821 17.6477C412.278 17.8977 412.624 18.2415 412.857 18.679C413.092 19.1136 413.21 19.608 413.21 20.1619C413.21 20.7216 413.092 21.2187 412.857 21.6534C412.621 22.0881 412.273 22.4304 411.812 22.6804C411.352 22.9276 410.786 23.0511 410.112 23.0511H407.943V21.7514H409.899C410.291 21.7514 410.612 21.6832 410.862 21.5469C411.112 21.4105 411.297 21.223 411.416 20.9844C411.538 20.7457 411.599 20.4716 411.599 20.1619C411.599 19.8523 411.538 19.5795 411.416 19.3438C411.297 19.108 411.111 18.9247 410.858 18.794C410.608 18.6605 410.286 18.5938 409.891 18.5938H408.442V26H406.861ZM416.282 26.1321C415.867 26.1321 415.493 26.0582 415.161 25.9105C414.831 25.7599 414.57 25.5384 414.377 25.2457C414.186 24.9531 414.091 24.5923 414.091 24.1634C414.091 23.794 414.159 23.4886 414.296 23.2472C414.432 23.0057 414.618 22.8125 414.854 22.6676C415.09 22.5227 415.355 22.4134 415.651 22.3395C415.949 22.2628 416.257 22.2074 416.576 22.1733C416.959 22.1335 417.27 22.098 417.509 22.0668C417.748 22.0327 417.921 21.9815 418.029 21.9134C418.14 21.8423 418.195 21.733 418.195 21.5852V21.5597C418.195 21.2386 418.1 20.9901 417.909 20.8139C417.719 20.6378 417.445 20.5497 417.087 20.5497C416.709 20.5497 416.409 20.6321 416.188 20.7969C415.969 20.9616 415.821 21.1562 415.745 21.3807L414.304 21.1761C414.418 20.7784 414.605 20.446 414.867 20.179C415.128 19.9091 415.448 19.7074 415.826 19.5739C416.203 19.4375 416.621 19.3693 417.078 19.3693C417.394 19.3693 417.708 19.4062 418.02 19.4801C418.333 19.554 418.618 19.6761 418.877 19.8466C419.135 20.0142 419.343 20.2429 419.499 20.5327C419.658 20.8224 419.738 21.1847 419.738 21.6193V26H418.255V25.1009H418.203C418.11 25.2827 417.978 25.4531 417.807 25.6122C417.64 25.7685 417.428 25.8949 417.172 25.9915C416.919 26.0852 416.623 26.1321 416.282 26.1321ZM416.682 24.9986C416.992 24.9986 417.26 24.9375 417.488 24.8153C417.715 24.6903 417.89 24.5256 418.012 24.321C418.137 24.1165 418.199 23.8935 418.199 23.652V22.8807C418.151 22.9205 418.069 22.9574 417.952 22.9915C417.838 23.0256 417.711 23.0554 417.569 23.081C417.426 23.1065 417.286 23.1293 417.147 23.1491C417.007 23.169 416.887 23.1861 416.784 23.2003C416.554 23.2315 416.348 23.2827 416.167 23.3537C415.985 23.4247 415.841 23.5241 415.736 23.652C415.631 23.777 415.578 23.9389 415.578 24.1378C415.578 24.4219 415.682 24.6364 415.89 24.7812C416.097 24.9261 416.361 24.9986 416.682 24.9986ZM424.135 28.5909C423.581 28.5909 423.105 28.5156 422.708 28.3651C422.31 28.2173 421.99 28.0185 421.749 27.7685C421.507 27.5185 421.34 27.2415 421.246 26.9375L422.635 26.6009C422.698 26.7287 422.789 26.8551 422.908 26.9801C423.027 27.108 423.188 27.2131 423.39 27.2955C423.594 27.3807 423.851 27.4233 424.161 27.4233C424.598 27.4233 424.961 27.3168 425.248 27.1037C425.534 26.8935 425.678 26.5469 425.678 26.0639V24.8239H425.601C425.522 24.983 425.405 25.1463 425.252 25.3139C425.101 25.4815 424.901 25.6222 424.651 25.7358C424.404 25.8494 424.093 25.9062 423.718 25.9062C423.215 25.9062 422.759 25.7884 422.35 25.5526C421.944 25.3139 421.62 24.9588 421.378 24.4872C421.14 24.0128 421.02 23.419 421.02 22.706C421.02 21.9872 421.14 21.3807 421.378 20.8864C421.62 20.3892 421.945 20.0128 422.354 19.7571C422.763 19.4986 423.219 19.3693 423.722 19.3693C424.105 19.3693 424.421 19.4347 424.668 19.5653C424.918 19.6932 425.117 19.848 425.265 20.0298C425.412 20.2088 425.525 20.3778 425.601 20.5369H425.686V19.4545H427.208V26.1065C427.208 26.6662 427.074 27.1293 426.807 27.4957C426.54 27.8622 426.175 28.1364 425.712 28.3182C425.249 28.5 424.723 28.5909 424.135 28.5909ZM424.148 24.696C424.475 24.696 424.753 24.6165 424.983 24.4574C425.213 24.2983 425.388 24.0696 425.507 23.7713C425.627 23.473 425.686 23.1151 425.686 22.6974C425.686 22.2855 425.627 21.9247 425.507 21.6151C425.391 21.3054 425.218 21.0653 424.988 20.8949C424.76 20.7216 424.48 20.6349 424.148 20.6349C423.804 20.6349 423.517 20.7244 423.287 20.9034C423.057 21.0824 422.884 21.3281 422.767 21.6406C422.651 21.9503 422.593 22.3026 422.593 22.6974C422.593 23.098 422.651 23.4489 422.767 23.75C422.887 24.0483 423.061 24.2812 423.292 24.4489C423.525 24.6136 423.81 24.696 424.148 24.696ZM431.686 26.1278C431.03 26.1278 430.463 25.9915 429.986 25.7188C429.512 25.4432 429.147 25.054 428.891 24.5511C428.635 24.0455 428.507 23.4503 428.507 22.7656C428.507 22.0923 428.635 21.5014 428.891 20.9929C429.15 20.4815 429.51 20.0838 429.973 19.7997C430.436 19.5128 430.98 19.3693 431.605 19.3693C432.009 19.3693 432.39 19.4347 432.748 19.5653C433.108 19.6932 433.426 19.892 433.702 20.1619C433.98 20.4318 434.199 20.7756 434.358 21.1932C434.517 21.608 434.597 22.1023 434.597 22.6761V23.1491H429.232V22.1094H433.118C433.115 21.8139 433.051 21.5511 432.926 21.321C432.801 21.0881 432.627 20.9048 432.402 20.7713C432.181 20.6378 431.922 20.571 431.627 20.571C431.311 20.571 431.034 20.6477 430.796 20.8011C430.557 20.9517 430.371 21.1506 430.238 21.3977C430.107 21.642 430.04 21.9105 430.037 22.2031V23.1108C430.037 23.4915 430.107 23.8182 430.246 24.0909C430.385 24.3608 430.58 24.5682 430.83 24.7131C431.08 24.8551 431.373 24.9261 431.708 24.9261C431.932 24.9261 432.135 24.8949 432.317 24.8324C432.499 24.767 432.657 24.6719 432.79 24.5469C432.924 24.4219 433.025 24.267 433.093 24.0824L434.533 24.2443C434.442 24.625 434.269 24.9574 434.013 25.2415C433.76 25.5227 433.436 25.7415 433.042 25.8977C432.647 26.0511 432.195 26.1278 431.686 26.1278ZM441.075 21.1847L439.669 21.3381C439.629 21.196 439.56 21.0625 439.46 20.9375C439.364 20.8125 439.233 20.7116 439.068 20.6349C438.903 20.5582 438.702 20.5199 438.463 20.5199C438.142 20.5199 437.872 20.5895 437.653 20.7287C437.438 20.8679 437.331 21.0483 437.334 21.2699C437.331 21.4602 437.401 21.6151 437.543 21.7344C437.688 21.8537 437.926 21.9517 438.259 22.0284L439.375 22.267C439.994 22.4006 440.455 22.6122 440.756 22.902C441.06 23.1918 441.213 23.571 441.216 24.0398C441.213 24.4517 441.092 24.8153 440.854 25.1307C440.618 25.4432 440.29 25.6875 439.869 25.8636C439.449 26.0398 438.966 26.1278 438.42 26.1278C437.619 26.1278 436.974 25.9602 436.486 25.625C435.997 25.2869 435.706 24.8168 435.612 24.2145L437.116 24.0696C437.185 24.3651 437.33 24.5881 437.551 24.7386C437.773 24.8892 438.061 24.9645 438.416 24.9645C438.783 24.9645 439.077 24.8892 439.298 24.7386C439.523 24.5881 439.635 24.402 439.635 24.1804C439.635 23.9929 439.563 23.8381 439.418 23.7159C439.276 23.5937 439.054 23.5 438.753 23.4347L437.636 23.2003C437.009 23.0696 436.544 22.8494 436.243 22.5398C435.942 22.2273 435.793 21.8324 435.795 21.3551C435.793 20.9517 435.902 20.6023 436.124 20.3068C436.348 20.0085 436.659 19.7784 437.057 19.6165C437.457 19.4517 437.919 19.3693 438.442 19.3693C439.209 19.3693 439.813 19.5327 440.253 19.8594C440.696 20.1861 440.97 20.6278 441.075 21.1847ZM445.533 26V17.2727H447.075V20.5369H447.139C447.219 20.3778 447.331 20.2088 447.476 20.0298C447.621 19.848 447.817 19.6932 448.064 19.5653C448.311 19.4347 448.626 19.3693 449.01 19.3693C449.516 19.3693 449.972 19.4986 450.378 19.7571C450.787 20.0128 451.111 20.392 451.349 20.8949C451.591 21.3949 451.712 22.0085 451.712 22.7358C451.712 23.4545 451.594 24.0653 451.358 24.5682C451.122 25.071 450.801 25.4545 450.395 25.7188C449.989 25.983 449.528 26.1151 449.014 26.1151C448.639 26.1151 448.328 26.0526 448.081 25.9276C447.834 25.8026 447.635 25.652 447.484 25.4759C447.337 25.2969 447.222 25.1278 447.139 24.9688H447.05V26H445.533ZM447.045 22.7273C447.045 23.1506 447.105 23.5213 447.224 23.8395C447.347 24.1577 447.521 24.4062 447.749 24.5852C447.979 24.7614 448.257 24.8494 448.584 24.8494C448.925 24.8494 449.21 24.7585 449.44 24.5767C449.67 24.392 449.844 24.1406 449.96 23.8224C450.08 23.5014 450.139 23.1364 450.139 22.7273C450.139 22.321 450.081 21.9602 449.964 21.6449C449.848 21.3295 449.675 21.0824 449.445 20.9034C449.214 20.7244 448.928 20.6349 448.584 20.6349C448.254 20.6349 447.974 20.7216 447.744 20.8949C447.514 21.0682 447.339 21.3111 447.22 21.6236C447.104 21.9361 447.045 22.304 447.045 22.7273ZM453.759 28.4545C453.549 28.4545 453.354 28.4375 453.175 28.4034C452.999 28.3722 452.859 28.3352 452.754 28.2926L453.112 27.0909C453.336 27.1563 453.536 27.1875 453.712 27.1847C453.888 27.1818 454.043 27.1264 454.177 27.0185C454.313 26.9134 454.428 26.7372 454.522 26.4901L454.654 26.1364L452.281 19.4545H453.917L455.425 24.3977H455.494L457.006 19.4545H458.647L456.026 26.7926C455.904 27.1392 455.742 27.4361 455.54 27.6832C455.339 27.9332 455.092 28.1236 454.799 28.2543C454.509 28.3878 454.163 28.4545 453.759 28.4545ZM463.927 17.2727L466.198 24.142H466.288L468.555 17.2727H470.293L467.217 26H465.265L462.192 17.2727H463.927ZM471.375 26V19.4545H472.917V26H471.375ZM472.15 18.5256C471.906 18.5256 471.696 18.4446 471.52 18.2827C471.343 18.1179 471.255 17.9205 471.255 17.6903C471.255 17.4574 471.343 17.2599 471.52 17.098C471.696 16.9332 471.906 16.8509 472.15 16.8509C472.397 16.8509 472.608 16.9332 472.781 17.098C472.957 17.2599 473.045 17.4574 473.045 17.6903C473.045 17.9205 472.957 18.1179 472.781 18.2827C472.608 18.4446 472.397 18.5256 472.15 18.5256ZM477.401 26.1278C476.745 26.1278 476.178 25.9915 475.701 25.7188C475.227 25.4432 474.862 25.054 474.606 24.5511C474.35 24.0455 474.222 23.4503 474.222 22.7656C474.222 22.0923 474.35 21.5014 474.606 20.9929C474.864 20.4815 475.225 20.0838 475.688 19.7997C476.151 19.5128 476.695 19.3693 477.32 19.3693C477.724 19.3693 478.104 19.4347 478.462 19.5653C478.823 19.6932 479.141 19.892 479.417 20.1619C479.695 20.4318 479.914 20.7756 480.073 21.1932C480.232 21.608 480.312 22.1023 480.312 22.6761V23.1491H474.947V22.1094H478.833C478.83 21.8139 478.766 21.5511 478.641 21.321C478.516 21.0881 478.342 20.9048 478.117 20.7713C477.896 20.6378 477.637 20.571 477.342 20.571C477.026 20.571 476.749 20.6477 476.511 20.8011C476.272 20.9517 476.086 21.1506 475.952 21.3977C475.822 21.642 475.755 21.9105 475.752 22.2031V23.1108C475.752 23.4915 475.822 23.8182 475.961 24.0909C476.1 24.3608 476.295 24.5682 476.545 24.7131C476.795 24.8551 477.087 24.9261 477.423 24.9261C477.647 24.9261 477.85 24.8949 478.032 24.8324C478.214 24.767 478.371 24.6719 478.505 24.5469C478.638 24.4219 478.739 24.267 478.808 24.0824L480.248 24.2443C480.157 24.625 479.984 24.9574 479.728 25.2415C479.475 25.5227 479.151 25.7415 478.756 25.8977C478.362 26.0511 477.91 26.1278 477.401 26.1278ZM482.933 26L481.083 19.4545H482.656L483.806 24.0568H483.866L485.042 19.4545H486.597L487.773 24.0312H487.837L488.971 19.4545H490.548L488.694 26H487.087L485.86 21.5767H485.771L484.543 26H482.933ZM496.798 21.1847L495.392 21.3381C495.352 21.196 495.282 21.0625 495.183 20.9375C495.086 20.8125 494.956 20.7116 494.791 20.6349C494.626 20.5582 494.424 20.5199 494.186 20.5199C493.865 20.5199 493.595 20.5895 493.376 20.7287C493.16 20.8679 493.054 21.0483 493.056 21.2699C493.054 21.4602 493.123 21.6151 493.265 21.7344C493.41 21.8537 493.649 21.9517 493.981 22.0284L495.098 22.267C495.717 22.4006 496.177 22.6122 496.478 22.902C496.782 23.1918 496.936 23.571 496.939 24.0398C496.936 24.4517 496.815 24.8153 496.576 25.1307C496.341 25.4432 496.012 25.6875 495.592 25.8636C495.172 26.0398 494.689 26.1278 494.143 26.1278C493.342 26.1278 492.697 25.9602 492.208 25.625C491.72 25.2869 491.429 24.8168 491.335 24.2145L492.839 24.0696C492.907 24.3651 493.052 24.5881 493.274 24.7386C493.495 24.8892 493.784 24.9645 494.139 24.9645C494.505 24.9645 494.799 24.8892 495.021 24.7386C495.245 24.5881 495.358 24.402 495.358 24.1804C495.358 23.9929 495.285 23.8381 495.14 23.7159C494.998 23.5937 494.777 23.5 494.475 23.4347L493.359 23.2003C492.731 23.0696 492.267 22.8494 491.966 22.5398C491.664 22.2273 491.515 21.8324 491.518 21.3551C491.515 20.9517 491.625 20.6023 491.846 20.3068C492.071 20.0085 492.382 19.7784 492.779 19.6165C493.18 19.4517 493.642 19.3693 494.164 19.3693C494.931 19.3693 495.535 19.5327 495.975 19.8594C496.419 20.1861 496.693 20.6278 496.798 21.1847Z" fill="white"/>
</g>
<rect x="388.5" y="0.5" width="213.195" height="299" rx="9.5" stroke="#1D252C"/>
</g>
</g>
<defs>
<filter id="filter0_d_2324_14391" x="21" y="39.5029" width="660" height="516.497" filterUnits="userSpaceOnUse" color-interpolation-filters="sRGB">
<feFlood flood-opacity="0" result="BackgroundImageFix"/>
<feColorMatrix in="SourceAlpha" type="matrix" values="0 0 0 0 0 0 0 0 0 0 0 0 0 0 0 0 0 0 127 0" result="hardAlpha"/>
<feOffset/>
<feGaussianBlur stdDeviation="15"/>
<feComposite in2="hardAlpha" operator="out"/>
<feColorMatrix type="matrix" values="0 0 0 0 0.113725 0 0 0 0 0.145098 0 0 0 0 0.172549 0 0 0 0.06 0"/>
<feBlend mode="normal" in2="BackgroundImageFix" result="effect1_dropShadow_2324_14391"/>
<feBlend mode="normal" in="SourceGraphic" in2="effect1_dropShadow_2324_14391" result="shape"/>
</filter>
<filter id="filter1_d_2324_14391" x="-30" y="346" width="224" height="241" filterUnits="userSpaceOnUse" color-interpolation-filters="sRGB">
<feFlood flood-opacity="0" result="BackgroundImageFix"/>
<feColorMatrix in="SourceAlpha" type="matrix" values="0 0 0 0 0 0 0 0 0 0 0 0 0 0 0 0 0 0 127 0" result="hardAlpha"/>
<feOffset/>
<feGaussianBlur stdDeviation="15"/>
<feComposite in2="hardAlpha" operator="out"/>
<feColorMatrix type="matrix" values="0 0 0 0 0.113725 0 0 0 0 0.145098 0 0 0 0 0.172549 0 0 0 0.06 0"/>
<feBlend mode="normal" in2="BackgroundImageFix" result="effect1_dropShadow_2324_14391"/>
<feBlend mode="normal" in="SourceGraphic" in2="effect1_dropShadow_2324_14391" result="shape"/>
</filter>
<filter id="filter2_d_2324_14391" x="358" y="-30" width="274.195" height="360" filterUnits="userSpaceOnUse" color-interpolation-filters="sRGB">
<feFlood flood-opacity="0" result="BackgroundImageFix"/>
<feColorMatrix in="SourceAlpha" type="matrix" values="0 0 0 0 0 0 0 0 0 0 0 0 0 0 0 0 0 0 127 0" result="hardAlpha"/>
<feOffset/>
<feGaussianBlur stdDeviation="15"/>
<feComposite in2="hardAlpha" operator="out"/>
<feColorMatrix type="matrix" values="0 0 0 0 0.113725 0 0 0 0 0.145098 0 0 0 0 0.172549 0 0 0 0.06 0"/>
<feBlend mode="normal" in2="BackgroundImageFix" result="effect1_dropShadow_2324_14391"/>
<feBlend mode="normal" in="SourceGraphic" in2="effect1_dropShadow_2324_14391" result="shape"/>
</filter>
<linearGradient id="paint0_linear_2324_14391" x1="351.244" y1="294.09" x2="351.244" y2="466.924" gradientUnits="userSpaceOnUse">
<stop stop-color="#1D252C"/>
<stop offset="1" stop-color="white" stop-opacity="0"/>
</linearGradient>
<clipPath id="clip0_2324_14391">
<rect width="651" height="557" fill="white"/>
</clipPath>
<clipPath id="clip1_2324_14391">
<rect x="51" y="69.5029" width="600" height="456.497" rx="13.5593" fill="white"/>
</clipPath>
<clipPath id="clip2_2324_14391">
<rect x="388" width="214.195" height="300" rx="10" fill="white"/>
</clipPath>
</defs>
</svg>
