<svg width="153" height="32" viewBox="0 0 153 32" fill="none" xmlns="http://www.w3.org/2000/svg">
<path d="M9.578 24.9999C12.522 24.9999 14.698 24.4345 16.106 23.3039C17.5353 22.1732 18.25 20.5732 18.25 18.5039C18.25 17.0959 17.93 15.9865 17.29 15.1759C16.6713 14.3439 15.7647 13.7252 14.57 13.3199C15.6367 12.8932 16.4367 12.2532 16.97 11.3999C17.5247 10.5465 17.802 9.43719 17.802 8.07186C17.802 6.17319 17.1193 4.72253 15.754 3.71986C14.3887 2.69586 12.202 2.18386 9.194 2.18386H0.458V24.9999H9.578ZM9.322 5.57586C10.858 5.57586 11.9673 5.82119 12.65 6.31186C13.3327 6.78119 13.674 7.51719 13.674 8.51986C13.674 9.60786 13.3007 10.3972 12.554 10.8879C11.8287 11.3785 10.762 11.6239 9.354 11.6239H4.554V5.57586H9.322ZM9.098 15.0159C10.7407 15.0159 11.9567 15.2612 12.746 15.7519C13.5567 16.2425 13.962 17.0425 13.962 18.1519C13.962 19.2185 13.5887 20.0292 12.842 20.5839C12.0953 21.1385 10.826 21.4159 9.034 21.4159H4.554V15.0159H9.098ZM30.1203 25.4799C31.9763 25.4799 33.5976 25.1172 34.9843 24.3919C36.3709 23.6665 37.4589 22.6105 38.2483 21.2239C38.6323 20.5412 38.9203 19.7839 39.1123 18.9519C39.3043 18.0985 39.4003 17.1705 39.4003 16.1679V15.6879C39.4003 13.6612 39.0056 11.9439 38.2163 10.5359C37.4269 9.10653 36.3283 8.01853 34.9203 7.27186C34.2376 6.88786 33.4909 6.61053 32.6803 6.43986C31.8909 6.24786 31.0376 6.15186 30.1203 6.15186C28.3283 6.15186 26.7283 6.52519 25.3203 7.27186C23.9336 7.99719 22.8456 9.06386 22.0563 10.4719C21.6509 11.1759 21.3416 11.9652 21.1283 12.8399C20.9363 13.7145 20.8403 14.6639 20.8403 15.6879V16.1679C20.8403 19.1545 21.6403 21.4585 23.2403 23.0799C24.8616 24.6799 27.1549 25.4799 30.1203 25.4799ZM30.1203 21.7999C28.5629 21.7999 27.3363 21.3092 26.4403 20.3279C25.5656 19.3252 25.1283 17.9172 25.1283 16.1039V15.6879C25.1283 13.7465 25.5869 12.2745 26.5043 11.2719C27.4429 10.2479 28.6589 9.73586 30.1523 9.73586C31.6669 9.73586 32.8723 10.2585 33.7683 11.3039C34.6856 12.3492 35.1443 13.8105 35.1443 15.6879V16.1039C35.1443 17.9172 34.6963 19.3252 33.8003 20.3279C32.9256 21.3092 31.6989 21.7999 30.1203 21.7999ZM51.4328 25.4799C53.2888 25.4799 54.9101 25.1172 56.2968 24.3919C57.6834 23.6665 58.7714 22.6105 59.5608 21.2239C59.9448 20.5412 60.2328 19.7839 60.4248 18.9519C60.6168 18.0985 60.7128 17.1705 60.7128 16.1679V15.6879C60.7128 13.6612 60.3181 11.9439 59.5288 10.5359C58.7394 9.10653 57.6408 8.01853 56.2328 7.27186C55.5501 6.88786 54.8034 6.61053 53.9928 6.43986C53.2034 6.24786 52.3501 6.15186 51.4328 6.15186C49.6408 6.15186 48.0408 6.52519 46.6328 7.27186C45.2461 7.99719 44.1581 9.06386 43.3688 10.4719C42.9634 11.1759 42.6541 11.9652 42.4408 12.8399C42.2488 13.7145 42.1528 14.6639 42.1528 15.6879V16.1679C42.1528 19.1545 42.9528 21.4585 44.5528 23.0799C46.1741 24.6799 48.4674 25.4799 51.4328 25.4799ZM51.4328 21.7999C49.8754 21.7999 48.6488 21.3092 47.7528 20.3279C46.8781 19.3252 46.4408 17.9172 46.4408 16.1039V15.6879C46.4408 13.7465 46.8994 12.2745 47.8168 11.2719C48.7554 10.2479 49.9714 9.73586 51.4648 9.73586C52.9794 9.73586 54.1848 10.2585 55.0808 11.3039C55.9981 12.3492 56.4568 13.8105 56.4568 15.6879V16.1039C56.4568 17.9172 56.0088 19.3252 55.1128 20.3279C54.2381 21.3092 53.0114 21.7999 51.4328 21.7999ZM81.5773 31.3359V6.59986H78.0893L77.6413 10.3439C77.1719 9.0852 76.4146 8.07186 75.3693 7.30386C74.3453 6.53586 73.0333 6.15186 71.4333 6.15186C68.9799 6.15186 67.0386 6.98386 65.6093 8.64786C64.1799 10.3119 63.4653 12.6692 63.4653 15.7199V16.1999C63.4653 18.2265 63.8066 19.9225 64.4893 21.2879C65.1719 22.6532 66.0999 23.6772 67.2733 24.3599C67.8493 24.7012 68.4679 24.9572 69.1293 25.1279C69.8119 25.2985 70.5266 25.3839 71.2733 25.3839C72.8733 25.3839 74.1853 25.0319 75.2093 24.3279C76.2546 23.6025 77.0226 22.6532 77.5133 21.4799V31.3359H81.5773ZM72.5533 21.8319C71.1666 21.8319 70.0146 21.3412 69.0973 20.3599C68.2013 19.3785 67.7533 17.9705 67.7533 16.1359V15.7519C67.7533 13.7892 68.1799 12.2959 69.0333 11.2719C69.9079 10.2479 71.1346 9.73586 72.7133 9.73586C74.2279 9.73586 75.4226 10.2799 76.2973 11.3679C77.1719 12.4345 77.6093 13.9172 77.6093 15.8159V16.1039C77.6093 17.7892 77.1506 19.1652 76.2333 20.2319C75.3373 21.2985 74.1106 21.8319 72.5533 21.8319ZM91.7323 22.2479C90.7723 22.2479 90.0469 22.0559 89.5563 21.6719C89.0869 21.2879 88.8523 20.7119 88.8523 19.9439C88.8523 19.5385 88.9376 19.1759 89.1083 18.8559C89.3003 18.5359 89.5776 18.2585 89.9403 18.0239C90.3669 17.7465 90.8576 17.5332 91.4123 17.3839C91.9883 17.2132 92.8309 17.0425 93.9403 16.8719C94.7723 16.7439 95.4976 16.5839 96.1163 16.3919C96.7563 16.1999 97.2683 15.9652 97.6523 15.6879V16.6799C97.6523 17.5545 97.4069 18.4292 96.9163 19.3039C96.4469 20.1572 95.7643 20.8612 94.8683 21.4159C94.4203 21.6932 93.9296 21.9065 93.3963 22.0559C92.8843 22.1839 92.3296 22.2479 91.7323 22.2479ZM98.2603 24.9999H101.652V12.5839C101.652 11.2612 101.386 10.1199 100.852 9.15986C100.34 8.19986 99.4869 7.46386 98.2923 6.95186C97.6949 6.67453 97.0016 6.47186 96.2123 6.34386C95.4229 6.21586 94.5269 6.15186 93.5243 6.15186C90.9003 6.15186 88.8416 6.79186 87.3483 8.07186C85.8549 9.33053 85.0336 11.0052 84.8843 13.0959H89.2043C89.2683 11.9225 89.6629 11.0159 90.3883 10.3759C91.1136 9.73586 92.2336 9.41586 93.7483 9.41586C95.1776 9.41586 96.1803 9.63986 96.7563 10.0879C97.3323 10.5359 97.6203 11.1439 97.6203 11.9119C97.6203 12.6585 97.2576 13.1919 96.5323 13.5119C95.8283 13.8105 94.6549 14.0665 93.0123 14.2799C91.8603 14.4505 90.9109 14.6105 90.1643 14.7599C89.4176 14.9092 88.7776 15.0799 88.2443 15.2719C87.9883 15.3572 87.7216 15.4639 87.4443 15.5919C87.1883 15.7199 86.9323 15.8692 86.6763 16.0399C85.9296 16.5092 85.3429 17.1279 84.9163 17.8959C84.4896 18.6425 84.2763 19.5279 84.2763 20.5519C84.2763 22.0452 84.7776 23.2399 85.7803 24.1359C86.8043 25.0319 88.3083 25.4799 90.2923 25.4799C92.1909 25.4799 93.7589 25.0852 94.9963 24.2959C96.2549 23.5065 97.1936 22.5145 97.8123 21.3199L98.2603 24.9999ZM115.787 25.4799C118.198 25.4799 120.118 24.6479 121.547 22.9839C122.977 21.2985 123.691 18.9412 123.691 15.9119V15.4319C123.691 13.3839 123.361 11.6772 122.699 10.3119C122.038 8.94653 121.121 7.91186 119.947 7.20786C119.35 6.86653 118.721 6.61053 118.059 6.43986C117.398 6.24786 116.683 6.15186 115.915 6.15186C114.422 6.15186 113.142 6.51453 112.075 7.23986C111.009 7.94386 110.209 8.90386 109.675 10.1199V0.359861H105.611V24.9999H109.163L109.547 21.2879C110.038 22.5465 110.806 23.5599 111.851 24.3279C112.897 25.0959 114.209 25.4799 115.787 25.4799ZM114.507 21.7679C113.014 21.7679 111.819 21.2345 110.923 20.1679C110.027 19.1012 109.579 17.6185 109.579 15.7199V15.3999C109.579 13.7145 110.038 12.3385 110.955 11.2719C111.873 10.2052 113.089 9.67186 114.603 9.67186C116.033 9.67186 117.195 10.1839 118.091 11.2079C118.987 12.2319 119.435 13.6612 119.435 15.4959V15.8799C119.435 17.8212 119.009 19.2932 118.155 20.2959C117.302 21.2772 116.086 21.7679 114.507 21.7679ZM131.147 24.9999V0.359861H126.955V24.9999H131.147ZM152.327 19.5599H147.815C147.495 20.3492 146.994 20.9572 146.311 21.3839C145.629 21.8105 144.733 22.0239 143.623 22.0239C142.109 22.0239 140.893 21.6185 139.975 20.8079C139.079 19.9972 138.546 18.8452 138.375 17.3519H152.583V15.3999C152.583 14.2265 152.413 13.0852 152.071 11.9759C151.73 10.8665 151.197 9.87453 150.471 8.99986C149.746 8.1252 148.807 7.43186 147.655 6.91986C146.525 6.40786 145.17 6.15186 143.591 6.15186C141.671 6.15186 140.007 6.54653 138.599 7.33586C137.213 8.12519 136.135 9.23453 135.367 10.6639C134.983 11.3892 134.695 12.1785 134.503 13.0319C134.311 13.8639 134.215 14.7705 134.215 15.7519V16.1999C134.215 19.0372 134.983 21.2985 136.519 22.9839C138.055 24.6479 140.37 25.4799 143.463 25.4799C145.874 25.4799 147.815 24.9572 149.287 23.9119C150.781 22.8665 151.794 21.4159 152.327 19.5599ZM143.623 9.47986C145.095 9.47986 146.215 9.89586 146.983 10.7279C147.773 11.5385 148.242 12.6479 148.391 14.0559H138.407C138.642 12.6052 139.207 11.4852 140.103 10.6959C140.999 9.8852 142.173 9.47986 143.623 9.47986Z" fill="#1D252C"/>
</svg>
