<svg width="48" height="44" fill="none" xmlns="http://www.w3.org/2000/svg"><g clip-path="url(#clip0_750_2039)"><path d="M46 42.045H28V29.334h18v12.711zM37 22a5.058 5.058 0 00-3.535 1.432A4.834 4.834 0 0032 26.889v2.444h10V26.89c0-1.297-.527-2.54-1.465-3.457A5.058 5.058 0 0037 22z" stroke="#FCDA01" stroke-width="4" stroke-linecap="round"/><path d="M41.355 14.625l1.472-1.353-1.472 1.353zm-3.516-2.341l.685-1.879-.685 1.879zm-8.2 1l-1.965.377 3.085 1.28-1.12-1.657zM26.17 6.586l1.446-1.382-1.446 1.382zM19.569 2.75l-.49 1.939.49-1.94zm-7.675.224l-.603-1.907.603 1.907zM5.538 7.187l1.526 1.294-1.526-1.294zM3.684 21.491l-1.802.867 1.802-.867zm5.079 5.63l-1.054 1.7 1.054-1.7zm7.375 2.09v-2h-.002l.002 2zm4.87 2h2v-4h-2v4zM40.95 17.53l.892 1.79 3.58-1.785-.892-1.79-3.58 1.785zm1.877-4.257a10.937 10.937 0 00-4.303-2.867l-1.371 3.758a6.936 6.936 0 012.73 1.816l2.944-2.707zm-4.303-2.867a11.114 11.114 0 00-5.153-.59l.484 3.97a7.114 7.114 0 013.298.378l1.371-3.758zm-5.153-.59c-1.74.212-3.406.833-4.854 1.813l2.242 3.312a7.047 7.047 0 013.096-1.155l-.484-3.97zm-1.768 3.092a15.338 15.338 0 00-3.987-7.703l-2.892 2.764a11.339 11.339 0 012.95 5.693l3.929-.754zm-3.987-7.703A15.816 15.816 0 0020.059.812l-.98 3.878a11.816 11.816 0 015.645 3.278l2.892-2.764zM20.059.812a16.05 16.05 0 00-8.768.256l1.206 3.814a12.05 12.05 0 016.581-.192L20.06.812zm-8.768.256a15.767 15.767 0 00-7.278 4.826l3.051 2.587a11.767 11.767 0 015.433-3.6l-1.206-3.813zM4.013 5.894A15.297 15.297 0 00.5 13.82l3.967.514A11.297 11.297 0 017.064 8.48L4.013 5.894zM.5 13.82a15.179 15.179 0 001.38 8.54l3.605-1.735a11.179 11.179 0 01-1.018-6.291L.5 13.819zm1.38 8.54a15.546 15.546 0 005.828 6.463l2.108-3.4a11.546 11.546 0 01-4.331-4.798L1.881 22.36zm5.828 6.463a15.982 15.982 0 008.43 2.39l-.003-4a11.982 11.982 0 01-6.32-1.79l-2.107 3.4zm8.429 2.39h4.87v-4h-4.87v4zm28.393-15.47a10.723 10.723 0 00-1.703-2.472l-2.945 2.707c.43.468.79.99 1.068 1.55l3.58-1.785z" fill="#FCDA01"/></g><defs><clipPath id="clip0_750_2039"><path fill="#fff" d="M0 0h48v44H0z"/></clipPath></defs></svg>