<svg width="197" height="83" viewBox="0 0 197 83" fill="none" xmlns="http://www.w3.org/2000/svg">
<g clip-path="url(#clip0_1662_1769)">
<path d="M112 29.5C112 33.2423 109.082 36 105.5 36C101.918 36 99 33.2423 99 29.5C99 25.7313 101.918 23 105.5 23C109.082 23 112 25.7313 112 29.5ZM109.155 29.5C109.155 27.1614 107.463 25.5613 105.5 25.5613C103.537 25.5613 101.845 27.1614 101.845 29.5C101.845 31.8151 103.537 33.4387 105.5 33.4387C107.463 33.4387 109.155 31.8122 109.155 29.5Z" fill="#747474"/>
<path d="M126 29.5C126 33.2423 123.082 36 119.5 36C115.918 36 113 33.2423 113 29.5C113 25.7342 115.918 23 119.5 23C123.082 23 126 25.7313 126 29.5ZM123.155 29.5C123.155 27.1614 121.463 25.5613 119.5 25.5613C117.537 25.5613 115.845 27.1614 115.845 29.5C115.845 31.8151 117.537 33.4387 119.5 33.4387C121.463 33.4387 123.155 31.8122 123.155 29.5Z" fill="#747474"/>
<path d="M139 23.3964V35.1756C139 40.021 136.274 42 133.051 42C130.017 42 128.191 39.8731 127.502 38.1337L129.896 37.0895C130.322 38.1574 131.366 39.4176 133.048 39.4176C135.111 39.4176 136.389 38.0834 136.389 35.572V34.6284H136.294C135.678 35.4241 134.493 36.1193 132.997 36.1193C129.867 36.1193 127 33.2617 127 29.5848C127 25.8812 129.867 23 132.997 23C134.49 23 135.675 23.6952 136.294 24.4672H136.389V23.3993H139V23.3964ZM136.584 29.5848C136.584 27.2745 135.114 25.5854 133.243 25.5854C131.346 25.5854 129.757 27.2745 129.757 29.5848C129.757 31.8714 131.346 33.5368 133.243 33.5368C135.114 33.5368 136.584 31.8714 136.584 29.5848Z" fill="#747474"/>
<path d="M144 17V36H141V17H144Z" fill="#747474"/>
<path d="M154.659 31.6422L156.877 33.1193C156.161 34.1772 154.436 36 151.456 36C147.76 36 145 33.1456 145 29.5C145 25.6346 147.784 23 151.136 23C154.513 23 156.164 25.6844 156.704 27.135L157 27.8735L148.303 31.4723C148.969 32.7764 150.004 33.4416 151.456 33.4416C152.911 33.4416 153.92 32.7266 154.659 31.6422ZM147.834 29.3037L153.647 26.8918C153.328 26.08 152.365 25.5144 151.233 25.5144C149.781 25.5144 147.76 26.7951 147.834 29.3037Z" fill="#747474"/>
<path d="M88.4098 27.8873V25.1551H97.8599C97.9523 25.6312 98 26.1945 98 26.8043C98 28.8542 97.4248 31.3891 95.5712 33.1951C93.7681 35.0244 91.4645 36 88.4128 36C82.7564 36 78 31.511 78 26C78 20.489 82.7564 16 88.4128 16C91.5419 16 93.7711 17.1963 95.446 18.7555L93.4671 20.6835C92.2661 19.5859 90.639 18.7323 88.4098 18.7323C84.2792 18.7323 81.0487 21.9756 81.0487 26C81.0487 30.0244 84.2792 33.2677 88.4098 33.2677C91.089 33.2677 92.6148 32.2195 93.5923 31.2671C94.385 30.4948 94.9066 29.3914 95.1122 27.8844L88.4098 27.8873Z" fill="#747474"/>
<path d="M84.9414 46.8421L82.0366 54.9658H87.9634L85.0351 46.8421H84.9414ZM79.53 62H77L83.6999 44H86.3001L93 62H90.47L88.7599 57.1211H81.2635L79.53 62Z" fill="#747474"/>
<path d="M94 49.3799H96.243V50.9888H96.3384C96.6844 50.4246 97.2272 49.9553 97.961 49.581C98.7066 49.1955 99.4702 49 100.252 49C101.779 49 102.948 49.4134 103.759 50.2291C104.582 51.0335 105 52.1899 105 53.6927V61H102.662V53.8492C102.614 51.9441 101.594 50.9888 99.6074 50.9888C98.6828 50.9888 97.9013 51.3464 97.269 52.0615C96.6486 52.7654 96.3384 53.5978 96.3384 54.5642V61H94V49.3799Z" fill="#747474"/>
<path d="M109.415 57.87C109.415 58.4684 109.666 58.9671 110.18 59.3718C110.689 59.7649 111.292 59.9585 111.998 59.9585C112.966 59.9585 113.839 59.6065 114.604 58.9025C115.382 58.1868 115.776 57.3421 115.776 56.3682C115.041 55.8051 114.018 55.5235 112.715 55.5235C111.771 55.5235 110.982 55.7523 110.348 56.204C109.726 56.644 109.415 57.2013 109.415 57.87ZM112.428 49C114.15 49 115.501 49.4576 116.493 50.361C117.498 51.2703 118 52.514 118 54.0921V61.6011H115.776V59.9116H115.68C114.706 61.3078 113.415 62 111.807 62C110.432 62 109.284 61.6011 108.363 60.8032C107.454 60.0054 107 59.014 107 57.8231C107 56.556 107.484 55.5587 108.459 54.8195C109.427 54.0686 110.73 53.6931 112.357 53.6931C113.743 53.6931 114.879 53.9395 115.776 54.4206V53.9043C115.776 53.1065 115.447 52.4377 114.796 51.8863C114.156 51.3231 113.409 51.0415 112.548 51.0415C111.239 51.0415 110.21 51.5812 109.463 52.6606L107.407 51.3935C108.536 49.7978 110.21 49 112.428 49Z" fill="#747474"/>
<path d="M122 44V62H120V44H122Z" fill="#747474"/>
<path d="M135 50L127.477 67H125.169L127.962 61.0534L123 50H125.446L129.023 58.4887H129.069L132.554 50H135Z" fill="#747474"/>
<path d="M141.836 62C140.815 62 139.964 61.6972 139.283 61.0917C138.602 60.4862 138.249 59.6419 138.237 58.5531V51.7758H136V49.7031H138.237V46H140.596V49.7031H143.708V51.7758H140.596V57.8079C140.596 58.6172 140.754 59.1703 141.082 59.4614C141.422 59.7409 141.793 59.8806 142.201 59.8806C142.395 59.8806 142.578 59.869 142.76 59.8341C142.936 59.7875 143.106 59.7351 143.271 59.671L144 61.6972C143.38 61.8952 142.663 62 141.836 62Z" fill="#747474"/>
<path d="M148 45.6172C148 46.0566 147.848 46.4375 147.543 46.7656C147.25 47.082 146.902 47.2344 146.5 47.2344C146.076 47.2344 145.723 47.082 145.435 46.7656C145.141 46.4375 145 46.0566 145 45.6172C145 45.166 145.141 44.7852 145.435 44.4688C145.723 44.1582 146.076 44 146.5 44C146.902 44 147.25 44.1582 147.543 44.4688C147.848 44.7852 148 45.166 148 45.6172ZM147.565 49.8125V62H145.435V49.8125H147.565Z" fill="#747474"/>
<path d="M155.434 62C153.566 62 152.024 61.384 150.807 60.1462C149.602 58.8967 149 57.3479 149 55.5C149 53.6227 149.602 52.074 150.807 50.8538C152.024 49.6218 153.566 49 155.434 49C156.717 49 157.831 49.3168 158.783 49.9386C159.729 50.5663 160.446 51.4287 160.928 52.5199L158.783 53.3881C158.12 51.8569 156.958 51.0884 155.289 51.0884C154.211 51.0884 153.277 51.5108 152.494 52.3556C151.723 53.2004 151.337 54.2505 151.337 55.5C151.337 56.7554 151.723 57.7996 152.494 58.6444C153.277 59.4892 154.211 59.9116 155.289 59.9116C157.006 59.9116 158.211 59.1489 158.904 57.6119L161 58.4801C160.548 59.5772 159.831 60.4395 158.855 61.0614C157.873 61.6832 156.735 62 155.434 62Z" fill="#747474"/>
<path d="M172 58.222C172 59.2897 171.537 60.1873 170.611 60.9206C169.697 61.6363 168.551 62 167.162 62C165.958 62 164.894 61.6773 163.968 61.0379C163.053 60.3985 162.399 59.5537 162 58.5036L164.014 57.6354C164.321 58.3745 164.755 58.9436 165.31 59.3484C165.877 59.759 166.497 59.9585 167.162 59.9585C167.885 59.9585 168.487 59.806 168.968 59.4892C169.459 59.1782 169.708 58.8028 169.708 58.3628C169.708 57.5826 169.112 57.0135 167.926 56.6498L165.866 56.1336C163.516 55.5235 162.347 54.3736 162.347 52.6841C162.347 51.5754 162.793 50.6837 163.69 50.009C164.581 49.3403 165.727 49 167.116 49C168.181 49 169.141 49.2581 170.009 49.7744C170.872 50.2906 171.473 50.9829 171.815 51.8394L169.801 52.6841C169.569 52.1679 169.188 51.769 168.667 51.4874C168.157 51.194 167.584 51.0415 166.954 51.0415C166.363 51.0415 165.831 51.194 165.356 51.4874C164.894 51.7866 164.662 52.1561 164.662 52.5903C164.662 53.2825 165.31 53.7811 166.606 54.0921L168.412 54.5614C170.802 55.1597 172 56.38 172 58.222Z" fill="#747474"/>
<path d="M56 21.9659V59.4659C56 63.6651 58.9107 66 62 66C64.8571 66 68 64.0114 68 59.4659V22.25C68 18.4059 65.1429 16 62 16C58.8571 16 56 18.6545 56 21.9659Z" fill="#747474"/>
<path d="M41 40.9725V59.4587C41 63.6625 43.9107 66 47 66C49.8571 66 53 64.0092 53 59.4587V41.2569C53 37.4085 50.1429 35 47 35C43.8571 35 41 37.6574 41 40.9725Z" fill="#747474"/>
<path d="M37 60C37 63.3125 34.3125 66 31 66C27.6875 66 25 63.3125 25 60C25 56.6875 27.6875 54 31 54C34.3125 54 37 56.6875 37 60Z" fill="#747474"/>
</g>
<defs>
<clipPath id="clip0_1662_1769">
<rect width="147" height="51" fill="white" transform="translate(25 16)"/>
</clipPath>
</defs>
</svg>
