<svg width="129" height="108" viewBox="0 0 129 108" fill="none" xmlns="http://www.w3.org/2000/svg">
<path d="M125.823 86.4H110.776C109.021 86.4 107.5 85.059 107.5 83.2874V24.9C107.5 23.1284 106.178 21.6 104.423 21.6H89.3758C87.6205 21.6 86 20.0716 86 18.3V3.11262C86 1.34101 84.7776 0 83.0224 0H24.5772C22.8219 0 21.5 1.52839 21.5 3.3V18.4874C21.5 20.259 19.979 21.6 18.2238 21.6H3.17669C1.42145 21.6 0 23.0347 0 24.8063V83.1937C0 84.9653 1.42145 86.4 3.17669 86.4H18.2238C19.979 86.4 21.5 87.9284 21.5 89.7V104.887C21.5 106.659 22.8219 108 24.5772 108H83.0224C84.7776 108 86 106.472 86 104.7V89.5126C86 87.741 87.6205 86.4 89.3758 86.4H104.423C106.178 86.4 107.5 87.9284 107.5 89.7V104.887C107.5 106.659 109.021 108 110.776 108H125.823C127.579 108 129 106.565 129 104.794V89.6063C129 87.8347 127.579 86.4 125.823 86.4ZM83.0224 86.4H24.5772C22.8219 86.4 21.5 85.059 21.5 83.2874V24.9C21.5 23.1284 22.8219 21.6 24.5772 21.6H83.0224C84.7776 21.6 86 22.941 86 24.7126V83.1C86 84.8716 84.7776 86.4 83.0224 86.4Z" fill="#1D252C" fill-opacity="0.1"/>
<g clip-path="url(#clip0_1267_773)">
<path d="M70.5 39H37.5V69H70.5V39Z" stroke="#1D252C" stroke-width="3.42857" stroke-miterlimit="10" stroke-linejoin="round"/>
<path d="M43.5 45C44.3284 45 45 44.3284 45 43.5C45 42.6716 44.3284 42 43.5 42C42.6716 42 42 42.6716 42 43.5C42 44.3284 42.6716 45 43.5 45Z" fill="#1D252C"/>
<path d="M49.5 45C50.3284 45 51 44.3284 51 43.5C51 42.6716 50.3284 42 49.5 42C48.6716 42 48 42.6716 48 43.5C48 44.3284 48.6716 45 49.5 45Z" fill="#1D252C"/>
<path d="M37.5 48H70.5" stroke="#1D252C" stroke-width="3.42857" stroke-miterlimit="10" stroke-linejoin="round"/>
<path d="M46.7969 59.25L51.2969 63.75L61.7969 53.25" stroke="#1D252C" stroke-width="3.42857" stroke-miterlimit="10" stroke-linejoin="round"/>
</g>
<defs>
<clipPath id="clip0_1267_773">
<rect width="36" height="36" fill="white" transform="translate(36 36)"/>
</clipPath>
</defs>
</svg>
