<svg width="140" height="140" fill="none" xmlns="http://www.w3.org/2000/svg"><path d="M71.5 86h76.22c8.892 0 16.28-7.512 16.28-16.516V-7.704C164-16.708 156.8-24 147.909-24h-76.22C62.796-24 55-16.898 55-7.894v77.188C55 78.298 48.208 86 39.317 86H11.122C4.876 86 0 90.843 0 97.09v31.6C0 134.936 5.064 140 11.31 140h32.976C50.533 140 55 134.747 55 128.5v-26.614C55 92.882 62.609 86 71.5 86z" fill="#fff"/><path d="M140 110c0-13.255-10.745-24-24-24h24v24zM55 24C55 10.745 44.255 0 31 0h24v24z" fill="#fff"/></svg>