<svg width="44" height="44" viewBox="0 0 44 44" fill="none" xmlns="http://www.w3.org/2000/svg">
<path d="M29.3333 7.33337H38.5V42.1667H5.5V7.33337H14.6667" stroke="#1D252C" stroke-width="3" stroke-linejoin="round"/>
<path d="M29.3307 9.16671V11H14.6641V9.16671C14.6641 7.22178 15.4367 5.35653 16.8119 3.98125C18.1872 2.606 20.0524 1.83337 21.9974 1.83337C23.9424 1.83337 25.8076 2.606 27.1828 3.98125C28.5582 5.35653 29.3307 7.22178 29.3307 9.16671Z" stroke="#1D252C" stroke-width="3" stroke-linejoin="round"/>
<path d="M18.3359 20.1666H33.0026" stroke="#1D252C" stroke-width="3" stroke-linejoin="round"/>
<path d="M18.3359 27.5H33.0026" stroke="#1D252C" stroke-width="3" stroke-linejoin="round"/>
<path d="M18.3359 34.8334H33.0026" stroke="#1D252C" stroke-width="3" stroke-linejoin="round"/>
<path d="M14.6667 18.3334H11V22H14.6667V18.3334Z" fill="#1D252C"/>
<path d="M14.6667 25.6666H11V29.3333H14.6667V25.6666Z" fill="#1D252C"/>
<path d="M14.6667 33H11V36.6667H14.6667V33Z" fill="#1D252C"/>
</svg>
