<svg width="145" height="146" viewBox="0 0 145 146" fill="none" xmlns="http://www.w3.org/2000/svg">
<path d="M47.9388 63.82L47.9388 131.675C47.9388 139.59 54.3857 146 62.3466 146L130.592 146C138.553 146 145 139.59 145 131.675L145 63.82C145 55.9047 138.553 49.4947 130.592 49.4947L62.3466 49.4947C54.3857 49.4947 47.9388 43.0848 47.9388 35.1695L47.9388 10.069C47.9388 4.50803 43.4616 5.18275e-07 37.9388 4.52415e-07L10 1.19249e-07C4.47715 5.33895e-08 -5.37578e-08 4.50804 -1.20071e-07 10.069L-4.70147e-07 39.4258C-5.36461e-07 44.9867 4.47716 49.4947 10 49.4947L33.531 49.4947C41.4918 49.4947 47.9388 55.9047 47.9388 63.82Z" fill="#FCDA01"/>
</svg>
