<svg width="114" height="32" fill="none" xmlns="http://www.w3.org/2000/svg"><g clip-path="url(#clip0_750_1763)" fill="#1D252C"><path d="M104.515 25.6h3.165V5.252h-3.165V25.6zm6.329-20.348v3.047h3.164V5.252h-3.164zm0 20.347h3.164V11.347h-3.164v14.252zM81.802 8.301h3.165V5.253h-3.165v3.048zm0 17.3h3.165V11.347h-3.165V25.6zM63.755 15.598c0-5.816-3.407-10.345-9.525-10.345-6.119 0-9.527 4.53-9.527 10.345 0 5.274 2.803 9.49 7.888 10.23v.284a4.749 4.749 0 004.747 4.751h4.746v-3.167h-6.328v-1.854c5.155-.695 8-4.932 8-10.244zm-9.35 7.297h-.352c-4.342 0-5.942-3.355-5.942-7.297 0-3.943 1.6-7.296 5.942-7.297h.353c4.341 0 5.941 3.354 5.941 7.297 0 3.942-1.6 7.297-5.941 7.297zm21.068-3.55c0 2.038-.872 3.773-3.165 3.773s-3.165-1.735-3.165-3.774v-7.997H65.98v8.418c0 4.046 1.874 6.175 5.422 6.175 2.048 0 3.24-.9 3.897-1.928h.525v1.599h2.813V11.358h-3.164v7.986zm20.474-8.338c-1.779 0-3.206.647-4.244 1.733h-.528v-1.392H88.13v20.653h3.165v-7.77h.408c1.039 1.087 2.467 1.733 4.244 1.733 4.004 0 6.234-3.274 6.234-7.48 0-4.204-2.23-7.478-6.234-7.478v.001zm-.834 12.273c-2.833 0-3.91-2.204-3.91-4.795 0-2.591 1.076-4.795 3.91-4.795s3.911 2.204 3.911 4.795c0 2.59-1.077 4.795-3.91 4.795zM37.417 25.6h-4.496a.95.95 0 01-.949-.95V7.35a.95.95 0 00-.95-.95h-4.495a.95.95 0 01-.95-.95V.95a.95.95 0 00-.949-.95H7.344a.95.95 0 00-.95.95v4.5a.95.95 0 01-.949.95H.95a.95.95 0 00-.95.95v17.3c0 .525.425.95.95.95h4.495a.95.95 0 01.95.95v4.5c0 .525.424.95.949.95h17.284a.95.95 0 00.95-.95v-4.5a.95.95 0 01.949-.95h4.496a.95.95 0 01.949.95v4.5c0 .525.425.95.95.95h4.495a.95.95 0 00.95-.95v-4.5a.95.95 0 00-.95-.95zm-12.789 0H7.344a.95.95 0 01-.95-.95V7.35a.95.95 0 01.95-.95h17.284a.95.95 0 01.95.95v17.3a.95.95 0 01-.95.95z"/></g><defs><clipPath id="clip0_750_1763"><path fill="#fff" d="M0 0h114v32H0z"/></clipPath></defs></svg>