<svg width="146" height="163" viewBox="0 0 146 163" fill="none" xmlns="http://www.w3.org/2000/svg">
<path d="M63.6171 114.884H131.256C139.146 114.884 145.536 108.413 145.536 100.423V31.9252C145.536 23.9349 139.146 17.4642 131.256 17.4642H63.6171C55.727 17.4642 49.3373 23.9349 49.3373 31.9252V100.423C49.3373 108.413 42.9477 114.884 35.0576 114.884H8.65397C3.87451 114.884 0 118.759 0 123.538V154.346C0 159.125 3.87451 163 8.65396 163H40.6834C45.4628 163 49.3373 159.125 49.3373 154.346V129.345C49.3373 121.355 55.727 114.884 63.6171 114.884Z" fill="#9FA0A1"/>
<path d="M63.6171 114.884H131.256C139.146 114.884 145.536 108.413 145.536 100.423V31.9252C145.536 23.9349 139.146 17.4642 131.256 17.4642H63.6171C55.727 17.4642 49.3373 23.9349 49.3373 31.9252V100.423C49.3373 108.413 42.9477 114.884 35.0576 114.884H8.65397C3.87451 114.884 0 118.759 0 123.538V154.346C0 159.125 3.87451 163 8.65396 163H40.6834C45.4628 163 49.3373 159.125 49.3373 154.346V129.345C49.3373 121.355 55.727 114.884 63.6171 114.884Z" fill="white"/>
<path d="M116.429 9.53674e-06C116.429 9.64527 108.61 17.4643 98.9648 17.4643H116.429V9.53674e-06Z" fill="white"/>
<path d="M116.429 131.71C116.429 122.065 108.61 114.246 98.9648 114.246H116.429V131.71Z" fill="white"/>
</svg>
