<svg width="40" height="32" viewBox="0 0 40 32" fill="none" xmlns="http://www.w3.org/2000/svg">
<path d="M8.8 31.6667C11.7714 31.6667 13.9048 31.0592 15.2 29.8441C16.4952 28.6291 17.1429 26.4648 17.1429 23.3513C17.1429 20.0859 16.5714 17.9596 15.4286 16.9724C14.3619 15.9852 12.4952 15.4916 9.82857 15.4916C9.52381 15.4916 9.21905 15.4916 8.91429 15.4916C8.68571 15.4916 8.49524 15.5296 8.34286 15.6055C8.64762 12.7958 9.40952 10.6315 10.6286 9.11271C11.9238 7.51798 13.6762 6.56874 15.8857 6.26499L14.8571 0C9.75238 0.759392 5.98095 2.84772 3.54286 6.26499C1.18095 9.68225 0 14.2766 0 20.048C0 24.4524 0.647619 27.49 1.94286 29.1607C3.31429 30.8313 5.6 31.6667 8.8 31.6667ZM31.6571 31.6667C34.6286 31.6667 36.7619 31.0592 38.0571 29.8441C39.3524 28.6291 40 26.4648 40 23.3513C40 20.0859 39.4286 17.9596 38.2857 16.9724C37.219 15.9852 35.3524 15.4916 32.6857 15.4916C32.381 15.4916 32.0762 15.4916 31.7714 15.4916C31.5429 15.4916 31.3524 15.5296 31.2 15.6055C31.5048 12.7958 32.2667 10.6315 33.4857 9.11271C34.781 7.51798 36.5333 6.56874 38.7429 6.26499L37.7143 0C32.6095 0.759392 28.8381 2.84772 26.4 6.26499C24.0381 9.68225 22.8571 14.2766 22.8571 20.048C22.8571 24.4524 23.5048 27.49 24.8 29.1607C26.1714 30.8313 28.4571 31.6667 31.6571 31.6667Z" fill="#FCDA01"/>
</svg>
