<svg width="180" height="48" fill="none" xmlns="http://www.w3.org/2000/svg"><g clip-path="url(#clip0_750_2885)" fill="#000"><path fill-rule="evenodd" clip-rule="evenodd" d="M41.51 38.485a.475.475 0 00-.285-.438.467.467 0 00-.531.118 24.207 24.207 0 01-8.093 5.71 24.092 24.092 0 01-19.356-.098 24.211 24.211 0 01-8.035-5.793.452.452 0 00-.35-.166.47.47 0 00-.47.477c0 .112.041.22.116.304a23.045 23.045 0 008.09 6.891 22.908 22.908 0 0020.637.11 23.04 23.04 0 008.163-6.806.487.487 0 00.115-.309zM25.514 1.932a.47.47 0 00-.175.642.487.487 0 00.314.234A24.143 24.143 0 0134.615 7a24.295 24.295 0 016.55 7.444 24.464 24.464 0 012.073 19.347.473.473 0 00.401.63.466.466 0 00.483-.32 23.247 23.247 0 00-1.102-20.718 23.083 23.083 0 00-7.233-7.794 22.93 22.93 0 00-9.942-3.704.445.445 0 00-.33.048zM2.038 34.134a.465.465 0 00.692-.273.472.472 0 00-.009-.284 24.465 24.465 0 012.27-19.328 24.29 24.29 0 016.625-7.377 24.14 24.14 0 019.007-4.098.454.454 0 00.316-.225.472.472 0 00-.232-.672.464.464 0 00-.263-.024 22.927 22.927 0 00-9.979 3.6 23.081 23.081 0 00-7.314 7.717 23.25 23.25 0 00-1.318 20.705.45.45 0 00.205.259zm.541 3.496l12.793-3.949a.102.102 0 00.032-.01.165.165 0 00.061-.03.368.368 0 00.18-.395.37.37 0 00-.318-.293l-1.83-.319a.276.276 0 01-.235-.278.29.29 0 01.09-.21l7.616-8.82a2.555 2.555 0 013.007-.867l-2.922-8.518L1.74 36.32a.81.81 0 00-.118.961.795.795 0 00.969.343l-.012.007z"/><path fill-rule="evenodd" clip-rule="evenodd" d="M44.242 36.27l-9.794-9.168-.025-.022a.369.369 0 00-.607.267.39.39 0 00.03.17l.638 1.755a.28.28 0 01-.342.369l-11.403-2.22a2.543 2.543 0 01-1.497-.704 2.568 2.568 0 01-.753-1.479l-5.872 6.803 28.925 5.63a.801.801 0 00.885-.377.803.803 0 00-.187-1.015l.002-.01z"/><path fill-rule="evenodd" clip-rule="evenodd" d="M19.24 13.781v.03a.24.24 0 000 .065.374.374 0 00.256.351.37.37 0 00.413-.131l1.192-1.432a.277.277 0 01.352-.065.267.267 0 01.139.18l3.79 11.039a2.597 2.597 0 01-.758 3.054l8.796 1.71L23.803.575a.794.794 0 00-.765-.579.769.769 0 00-.764.666L19.24 13.78zm58.273 6.705H65.236a.966.966 0 01-.686-.285.977.977 0 01.686-1.664h19.278v-7.021H65.236a7.929 7.929 0 00-5.622 2.341 8.017 8.017 0 00-2.329 5.653c0 2.12.838 4.154 2.329 5.653a7.928 7.928 0 005.622 2.341h12.277c.257 0 .504.103.685.286a.978.978 0 010 1.378.967.967 0 01-.685.286h-19.28v7.02h19.28a7.93 7.93 0 005.554-2.377 8.018 8.018 0 002.292-5.616c0-2.102-.824-4.12-2.292-5.615a7.93 7.93 0 00-5.554-2.38zm31.118 15.989h8.754l-11.581-24.956h-8.758L85.461 36.475h8.76l1.744-4.177h10.921l1.745 4.177zm-9.97-10.62l2.77-6.624 2.769 6.625h-5.538z"/><path d="M138.852 11.523v.009h-.138v14.81l-10.836-14.819h-8.503v24.95h7.28V21.651l10.836 14.83h8.503V11.523h-7.142zm32.487 0l-7.352 10.052-7.348-10.052h-8.666L159.656 27.5v8.971h8.661V27.5L180 11.522h-8.661z"/></g><defs><clipPath id="clip0_750_2885"><path fill="#fff" d="M0 0h180v48H0z"/></clipPath></defs></svg>