<svg width="85" height="48" viewBox="0 0 85 48" fill="none" xmlns="http://www.w3.org/2000/svg">
<g clip-path="url(#clip0_36_197)">
<path d="M58.5137 23.1051C58.4148 23.4901 58.348 23.8168 58.2464 24.1324C56.8573 28.4581 54.1132 31.5449 49.8776 33.304C47.8002 34.167 45.6462 34.6435 43.4108 34.5908C40.2094 34.5152 37.2565 33.6231 34.7608 31.5338C32.2394 29.4237 30.764 26.6907 30.0486 23.5165C29.7277 22.0917 29.5837 20.6482 29.8154 19.2102C30.8607 12.7182 34.5667 7.47832 41.2603 5.5541C44.731 4.55662 48.2324 4.48517 51.5722 5.8503C56.1342 7.71486 58.9298 11.1436 59.7281 16.0714C59.7942 16.4807 59.7963 16.8996 59.8297 17.3137C59.8464 17.5184 59.7629 17.5995 59.5485 17.5988C57.588 17.5933 55.6276 17.5905 53.6671 17.6016C53.3741 17.603 53.3956 17.415 53.3692 17.2416C53.1367 15.7329 52.5675 14.3712 51.5507 13.2191C50.1817 11.668 48.3959 10.9598 46.3818 10.7316C46.1633 10.7066 45.9406 10.7052 45.7242 10.6692C45.4103 10.6178 45.2815 10.7323 45.2106 11.0493C44.6761 13.4285 44.1214 15.803 43.5723 18.1787C42.8311 21.3876 42.0941 24.5979 41.3397 27.8033C41.261 28.1363 41.3501 28.2431 41.6633 28.3249C45.8474 29.4175 49.7843 27.6576 51.8485 23.7176C52.1005 23.2376 52.3656 23.0774 52.9001 23.0892C54.6045 23.1273 56.3103 23.103 58.0154 23.103H58.513L58.5137 23.1051Z" fill="black"/>
<path d="M71.6254 17.6364H82.4816C82.451 17.8077 82.4349 17.9263 82.4085 18.0429C82.0612 19.5752 81.7056 21.1061 81.3715 22.6411C81.3054 22.9443 81.1836 23.0449 80.8663 23.0435C77.5264 23.031 74.1858 23.0407 70.846 23.0275C70.4917 23.0261 70.3491 23.1246 70.2725 23.4839C69.9412 25.0433 69.5717 26.595 69.2174 28.1495C69.1924 28.2598 69.1771 28.3722 69.1479 28.5345H79.9859C79.9699 28.6711 79.9678 28.7599 79.9483 28.8446C79.5836 30.4212 79.2127 31.9959 78.8564 33.5739C78.7972 33.8368 78.6803 33.9173 78.4103 33.9166C71.3589 33.909 64.3075 33.9111 57.2554 33.9097C57.1538 33.9097 57.0515 33.8979 56.9026 33.8889C57.0084 33.4151 57.1051 32.9684 57.2067 32.523C59.1484 24.0652 61.0929 15.6074 63.027 7.1482C63.0979 6.83953 63.2225 6.75004 63.5357 6.75074C70.5523 6.75975 77.5696 6.75767 84.5861 6.75767H85.0002C84.845 7.43677 84.7031 8.06314 84.5583 8.68813C84.3203 9.71267 84.0684 10.7344 83.8491 11.7624C83.7858 12.0593 83.6654 12.1447 83.3661 12.144C80.0263 12.1336 76.6857 12.144 73.3458 12.1287C72.9825 12.1273 72.8475 12.2438 72.7717 12.5879C72.4279 14.1452 72.0569 15.6962 71.6971 17.25C71.6714 17.3603 71.6554 17.4734 71.6254 17.635V17.6364Z" fill="black"/>
<path d="M31.343 33.9451C31.1711 33.9534 31.057 33.9638 30.9429 33.9638C27.2195 33.9645 23.4969 33.9617 19.7735 33.97C19.5007 33.97 19.3929 33.8868 19.3393 33.6177C17.9856 26.8066 16.6216 19.9976 15.2714 13.1859C15.238 13.0187 15.284 12.7877 15.3828 12.6503C18.3566 8.51751 21.3422 4.393 24.3258 0.267099C24.3786 0.194264 24.4392 0.126979 24.5429 0.000732422C26.8138 11.3366 29.0728 22.6141 31.343 33.9458V33.9451Z" fill="black"/>
<path d="M15.9639 33.9367H0.00012207C4.15913 28.1842 8.28055 22.4823 12.457 16.7054C13.6345 22.4934 14.794 28.1904 15.9639 33.9367Z" fill="black"/>
<path d="M8.84925 47.7988C9.15199 46.2527 9.44081 44.7724 9.74425 43.2241H5.52121C5.38759 43.8831 5.24631 44.5789 5.10573 45.2753C4.95819 46.0099 4.80438 46.7438 4.66867 47.4804C4.6297 47.6927 4.54062 47.7648 4.32627 47.7648C3.64215 47.7635 2.95803 47.7843 2.2746 47.7891C2.11592 47.7905 1.95655 47.7628 1.74707 47.744C1.85842 47.1614 1.96073 46.6106 2.06999 46.0612C2.66155 43.0965 3.26007 40.1332 3.84119 37.1664C3.89965 36.8674 4.00891 36.771 4.31443 36.7821C4.99786 36.8064 5.68267 36.7911 6.36679 36.7918C6.49137 36.7918 6.61664 36.7918 6.79132 36.7918C6.50738 38.2395 6.23387 39.6351 5.95618 41.0495C6.0557 41.0648 6.11068 41.0807 6.16566 41.0807C7.40655 41.0786 8.64743 41.0703 9.88831 41.0745C10.1166 41.0752 10.2071 40.9996 10.2502 40.7686C10.4764 39.5658 10.7283 38.3678 10.9587 37.1664C11.0102 36.8972 11.109 36.7835 11.4104 36.7925C12.2093 36.8175 13.009 36.8008 13.849 36.8008C13.849 36.9063 13.8643 37.0027 13.8469 37.0922C13.1628 40.5445 12.4724 43.9962 11.7945 47.4499C11.743 47.7135 11.6512 47.8127 11.3707 47.8065C10.5495 47.787 9.72824 47.7995 8.84995 47.7995L8.84925 47.7988Z" fill="black"/>
<path d="M49.1231 42.6033C48.883 43.1132 48.6415 43.6216 48.4042 44.1322C47.8878 45.2434 47.3693 46.3533 46.8641 47.4694C46.7701 47.6761 46.6609 47.7663 46.4228 47.7586C45.7972 47.7385 45.1708 47.7441 44.5445 47.7462C44.3587 47.7462 44.2515 47.7025 44.2146 47.4895C43.7699 44.9049 43.3154 42.3217 42.8645 39.7378C42.861 39.7163 42.8679 39.6921 42.8749 39.604C43.0224 39.604 43.1769 39.604 43.3314 39.604C44.0156 39.606 44.6997 39.6192 45.3838 39.6067C45.6448 39.6019 45.7429 39.6851 45.7798 39.9487C45.9907 41.4359 46.2217 42.9204 46.4465 44.4055C46.4528 44.4492 46.4653 44.4915 46.4952 44.6275C46.5892 44.4429 46.6525 44.3292 46.7061 44.2113C47.361 42.7816 48.0208 41.3548 48.6617 39.9189C48.7689 39.6782 48.9004 39.6033 49.1572 39.6088C49.897 39.6262 50.6368 39.6151 51.4045 39.6151C51.5952 41.2798 51.7824 42.9169 51.9814 44.6545C52.0795 44.4998 52.1359 44.4249 52.1784 44.3431C52.955 42.8572 53.7345 41.3728 54.5008 39.8814C54.6051 39.6782 54.7179 39.5915 54.951 39.5984C55.5391 39.6144 56.1286 39.604 56.7529 39.604C56.7083 39.7142 56.686 39.7892 56.6499 39.8565C55.2823 42.4036 53.912 44.9493 52.5493 47.4985C52.4491 47.6865 52.3329 47.7607 52.1171 47.7559C51.4796 47.742 50.8414 47.7385 50.204 47.7573C49.9437 47.7649 49.8748 47.6671 49.8448 47.4257C49.6507 45.8663 49.4405 44.3098 49.2345 42.7518C49.2289 42.7095 49.215 42.6679 49.2053 42.6262C49.1781 42.6179 49.1503 42.6096 49.1231 42.6013V42.6033Z" fill="black"/>
<path d="M37.3972 47.744C37.473 47.3354 37.5378 46.9865 37.6025 46.6369L37.5503 46.6043C37.48 46.6848 37.4104 46.7652 37.3401 46.8457C36.4709 47.846 35.2272 48.2115 33.971 47.7794C32.7329 47.3541 32.1594 46.3983 32.0349 45.149C31.856 43.3566 32.3821 41.7792 33.6244 40.4772C34.5577 39.4984 35.7471 39.2612 37.0485 39.5192C37.6679 39.642 38.1147 40.0041 38.3986 40.566C38.439 40.6457 38.4829 40.7241 38.5726 40.8913C38.7042 40.2552 38.819 39.7086 38.929 39.1613C39.0702 38.4593 39.2011 37.7553 39.3528 37.0553C39.3737 36.9596 39.4899 36.8133 39.5651 36.8119C40.4211 36.7945 41.2771 36.8008 42.1867 36.8008C42.0698 37.3987 41.9626 37.9599 41.8506 38.5197C41.2583 41.4892 40.6619 44.4574 40.0787 47.4284C40.0313 47.6705 39.9485 47.7537 39.6994 47.7481C38.9484 47.7329 38.1968 47.7426 37.3965 47.7426L37.3972 47.744ZM34.8952 44.7106C34.8952 44.8257 34.8904 44.9416 34.8959 45.0567C34.9391 45.9439 35.6594 46.4586 36.5126 46.2034C37.0415 46.0452 37.4863 45.7213 37.6303 45.1969C37.8767 44.3006 38.1196 43.3843 38.1919 42.4638C38.2748 41.4081 37.1647 40.7435 36.2398 41.236C35.9712 41.3789 35.7283 41.6453 35.5745 41.9124C35.0783 42.7725 34.9272 43.7305 34.8959 44.7106H34.8952Z" fill="black"/>
<path d="M22.5963 47.7523C21.8684 47.7523 21.0687 47.7586 20.2705 47.7419C20.196 47.7405 20.0645 47.5963 20.0624 47.5165C20.0547 47.1863 20.0867 46.8554 20.1069 46.4767C19.9121 46.6834 19.7436 46.8645 19.5731 47.0434C18.9774 47.6677 18.2174 47.9251 17.3816 47.9424C16.8777 47.9528 16.3516 47.9389 15.8707 47.8071C14.9611 47.5574 14.2477 47.0337 14.1141 46.014C13.9763 44.9659 14.5038 44.2424 15.3543 43.7173C16.2242 43.1804 17.2104 43.0077 18.2014 42.8808C18.9141 42.7899 19.6309 42.7254 20.3484 42.6865C20.6407 42.6706 20.7542 42.552 20.8133 42.2904C20.972 41.5898 20.6908 41.1397 19.9844 40.9926C19.0317 40.7935 18.2313 41.1362 17.7135 41.9499C17.6558 42.0407 17.5263 42.1552 17.4379 42.1482C16.6982 42.0914 15.9604 42.0095 15.2227 41.9332C15.1921 41.9297 15.1643 41.9013 15.1176 41.8736C15.5436 40.8941 16.2562 40.2157 17.2556 39.8668C18.6934 39.3646 20.1668 39.325 21.6387 39.6913C22.0229 39.787 22.3987 39.9812 22.7321 40.2011C23.325 40.5917 23.6403 41.1667 23.5547 41.8881C23.4649 42.6442 23.3313 43.3954 23.2074 44.1474C23.0118 45.328 22.8086 46.5079 22.5977 47.7523H22.5963ZM20.489 43.7936C19.4527 43.8595 18.4756 43.9046 17.6036 44.4429C17.5354 44.4852 17.4727 44.5386 17.4136 44.5927C17.0517 44.925 16.9216 45.4348 17.0879 45.8538C17.2507 46.263 17.6203 46.4816 18.1478 46.485C18.5821 46.4878 18.9621 46.3407 19.3031 46.0799C20.0311 45.5229 20.3032 44.7287 20.4897 43.7936H20.489Z" fill="black"/>
<path d="M62.4381 46.4594C62.2767 46.6453 62.1688 46.7757 62.0547 46.9006C61.3991 47.6199 60.5688 47.9238 59.6084 47.9571C58.7398 47.9876 57.9186 47.8821 57.2129 47.323C56.1648 46.4934 56.146 45.0138 57.1788 44.0906C57.8769 43.4663 58.735 43.1701 59.6348 43.0314C60.6523 42.8739 61.6809 42.7803 62.7068 42.6901C62.9684 42.6672 63.0777 42.5652 63.1348 42.3377C63.3178 41.6114 62.9636 41.0558 62.2182 40.9726C61.2995 40.8699 60.5131 41.0926 60.0357 41.9742C59.9939 42.0505 59.8833 42.1469 59.8123 42.1414C59.0293 42.0804 58.2485 42.0006 57.4231 41.9215C57.7036 41.2438 58.119 40.7353 58.6765 40.3406C59.3752 39.8447 60.1735 39.6213 61.0135 39.5284C62.0108 39.4174 63.0046 39.4167 63.981 39.681C65.4829 40.0882 66.0842 41.0295 65.8253 42.552C65.7592 42.9391 65.6889 43.3255 65.6165 43.7112C65.4606 44.5401 65.2859 45.3655 65.1523 46.1979C65.0723 46.6953 65.057 47.203 65.009 47.7386C64.2044 47.7386 63.3853 47.7448 62.5662 47.7274C62.4994 47.7261 62.3817 47.5637 62.3804 47.475C62.3755 47.1649 62.4117 46.8548 62.4381 46.4594ZM62.8181 43.7965C61.8751 43.8443 60.9961 43.8957 60.1923 44.2973C59.9438 44.4215 59.7176 44.6296 59.5402 44.8474C59.2764 45.1706 59.282 45.5667 59.4546 45.9288C59.6265 46.2895 59.9571 46.458 60.3551 46.483C60.8792 46.5163 61.3343 46.3408 61.7282 46.0051C62.3908 45.4411 62.6427 44.6746 62.8181 43.7965Z" fill="black"/>
<path d="M83.0613 45.3481C82.5908 46.3816 81.8705 47.067 80.9233 47.4943C79.553 48.1137 78.1256 48.1595 76.7205 47.6566C74.7022 46.9345 73.7961 44.9472 74.4705 42.8613C75.2096 40.5736 77.3858 39.2182 79.8996 39.4478C81.0075 39.5491 81.9728 39.9001 82.7091 40.7713C83.4893 41.6939 83.602 42.7732 83.4573 43.908C83.4475 43.983 83.2457 44.0856 83.1323 44.0863C81.613 44.0981 80.0944 44.0939 78.5752 44.0933C78.2042 44.0933 77.8326 44.1071 77.4624 44.0884C77.1986 44.0752 77.0963 44.1564 77.0872 44.4318C77.0573 45.3862 77.3503 45.9287 78.0699 46.1881C78.9065 46.4899 79.9239 46.2249 80.3888 45.4847C80.6456 45.0762 80.9059 44.9964 81.3388 45.0866C81.8893 45.2017 82.4523 45.2586 83.0606 45.3481H83.0613ZM77.3649 42.742C78.4868 42.742 79.5843 42.7469 80.6818 42.7323C80.7584 42.7316 80.8871 42.5977 80.9004 42.5124C81.0291 41.6439 80.5357 41.0273 79.6581 40.935C78.5112 40.8143 77.644 41.4788 77.3656 42.742H77.3649Z" fill="black"/>
<path d="M31.7397 39.5172C31.6507 40.2289 31.5734 40.9163 31.4683 41.6002C31.4537 41.6932 31.3013 41.8361 31.2122 41.8368C29.6554 41.8423 28.8028 42.9626 28.4994 44.3076C28.2656 45.3439 28.0554 46.3858 27.8515 47.4291C27.8055 47.6615 27.7269 47.7593 27.4729 47.7551C26.6182 47.7398 25.7629 47.7496 24.8749 47.7496C25.092 46.6452 25.3001 45.5819 25.511 44.5185C25.8123 43.0014 26.1241 41.4858 26.4115 39.966C26.4651 39.6816 26.5667 39.5872 26.8604 39.599C27.5084 39.6254 28.1584 39.6108 28.807 39.615C28.9191 39.615 29.0304 39.6247 29.1745 39.6316C29.0694 40.1997 28.9712 40.7283 28.8731 41.2569C29.5238 40.1921 30.3158 39.3847 31.7397 39.5186V39.5172Z" fill="black"/>
<path d="M71.5064 39.6178C71.402 40.188 71.3074 40.702 71.2127 41.216C71.2378 41.2341 71.2628 41.2528 71.2872 41.2708C71.8725 40.1901 72.6415 39.3993 74.0097 39.5152C74.0153 39.597 74.0341 39.6858 74.025 39.7711C73.9582 40.3684 73.8803 40.9649 73.8163 41.5622C73.7961 41.7508 73.7355 41.8369 73.5233 41.8563C72.0583 41.9915 71.2364 42.679 70.88 44.1253C70.6149 45.2018 70.4138 46.2936 70.1834 47.3785C70.1597 47.4909 70.1319 47.6026 70.1027 47.7309H67.2026C67.4935 46.2666 67.7789 44.8279 68.0642 43.39C68.289 42.2565 68.5256 41.1259 68.7323 39.9889C68.7873 39.6872 68.9084 39.6019 69.207 39.6109C69.9586 39.6324 70.7109 39.6178 71.5057 39.6178H71.5064Z" fill="black"/>
<path d="M81.6179 31.5388C81.9979 31.5388 82.1851 31.7573 82.1851 32.0168C82.1851 32.2054 82.0835 32.4073 81.8141 32.4739L82.2108 33.1356H81.8977L81.5288 32.4968H81.3284V33.1356H81.0653V31.5395H81.6186L81.6179 31.5388ZM81.6179 31.7525H81.3277V32.288H81.6179C81.8232 32.288 81.9151 32.1756 81.9151 32.0168C81.9151 31.8579 81.8232 31.7525 81.6179 31.7525Z" fill="black"/>
<path d="M81.5845 33.9569C80.6867 33.9569 79.9567 33.2292 79.9567 32.3344C79.9567 31.4396 80.6867 30.7119 81.5845 30.7119C82.4823 30.7119 83.2123 31.4396 83.2123 32.3344C83.2123 33.2292 82.4823 33.9569 81.5845 33.9569ZM81.5845 31.0421C80.8698 31.0421 80.2879 31.622 80.2879 32.3344C80.2879 33.0468 80.8698 33.6267 81.5845 33.6267C82.2992 33.6267 82.8811 33.0468 82.8811 32.3344C82.8811 31.622 82.2992 31.0421 81.5845 31.0421Z" fill="black"/>
</g>
<defs>
<clipPath id="clip0_36_197">
<rect width="85" height="48" fill="white"/>
</clipPath>
</defs>
</svg>
