<svg width="600" height="91" viewBox="0 0 600 91" fill="none" xmlns="http://www.w3.org/2000/svg">
<path d="M481.9 0.700012L538.5 57.4L507.2 88.7H556.2L587.5 57.4L530.8 0.700012H481.9Z" fill="black"/>
<path d="M570.4 88.7H581L600 69.8L594.7 64.4L570.4 88.7Z" fill="black"/>
<path d="M409.6 0.700012L466.2 57.4L434.9 88.7H483.9L515.2 57.4L458.5 0.700012H409.6Z" fill="black"/>
<path d="M40.1 3.5V33.1H20.7V3.5H0V88.8H20.7V55H40.1V88.8H60.8V3.5H40.1Z" fill="black"/>
<path d="M118.8 75C118.8 79.7 119 84.9 121.1 88.9H102.1C101.6 87.2 101.4 84.7 101.4 83H101.2C97.3 88.7 91.5 90.4 85.5 90.4C76.1 90.4 68.3 84.7 68.3 71.6C68.3 52 86.4 52.7 95.9 50.4C98.4 49.8 101 48.9 101 44.9C101 40.7 97.9 39.2 94.9 39.2C89.2 39.2 88 42.9 87.9 45.5H70.5C71.1 28 84 25.2 95.6 25.2C118.9 25.2 118.7 37.5 118.7 49.5V75H118.8ZM100.9 61C98.6 62.4 96.1 63.3 93.6 64C89.5 65.2 87.3 66.5 87.3 70.7C87.3 73.6 89.7 76.4 93.1 76.4C97.3 76.4 100.6 73.2 100.9 66.7V61Z" fill="black"/>
<path d="M179.5 88.8H161.5V81H161.3C157.8 87.2 152.8 90.4 145.4 90.4C136.7 90.4 128.7 83.6 128.7 69.4V26.8H147.3V59.3C147.3 66.5 148 71.5 153.4 71.5C156.6 71.5 160.8 69.5 160.8 59.5V26.7H179.4V88.8H179.5Z" fill="black"/>
<path d="M208.6 3.5H190V88.9H208.6V3.5Z" fill="black"/>
<path d="M243.8 90.4C225.4 90.4 217.2 75 217.2 57.8C217.2 40.6 225.5 25.3 243.8 25.3C262.2 25.3 270.4 40.6 270.4 57.8C270.5 75 262.2 90.4 243.8 90.4ZM243.8 42.5C236.7 42.5 235.8 51.2 235.8 57.8C235.8 64.4 236.7 73.2 243.8 73.2C250.9 73.2 251.8 64.4 251.8 57.8C251.8 51.2 250.9 42.5 243.8 42.5Z" fill="black"/>
<path d="M301 26.8H311V41.4H301V63C301 68.7 302.1 71.2 306.8 71.2C308.2 71.2 309.6 71.1 311 70.8V88.7C307.2 88.7 303 89.4 299 89.4C291.1 89.4 282.3 87.8 282.3 70.9V41.3H274V26.7H282.3V7.79999H301V26.8Z" fill="black"/>
<path d="M343.2 26.8H353.2V41.4H343.2V63C343.2 68.7 344.2 71.2 348.9 71.2C350.3 71.2 351.7 71.1 353.1 70.8V88.7C349.3 88.7 345.1 89.4 341.1 89.4C333.2 89.4 324.4 87.8 324.4 70.9V41.3H316.1V26.7H324.4V7.79999H343V26.8H343.2Z" fill="black"/>
<path d="M374.8 63.1C375.3 70.2 378.5 75.2 384.3 75.2C387.3 75.2 390.6 73.8 392.1 70.8H409.5C405.7 84.2 395.5 90.4 384.4 90.4C368.8 90.4 357 78.7 357 58C357 40 367.3 25.2 382.8 25.2C402.2 25.2 410.6 38.9 410.6 63.1H374.8ZM392.7 50.8C392.7 45.1 389.3 40.4 384.5 40.4C378.9 40.4 375.8 44.1 374.9 50.8H392.7Z" fill="black"/>
</svg>
