<svg width="197" height="82" viewBox="0 0 197 82" fill="none" xmlns="http://www.w3.org/2000/svg">
<g clip-path="url(#clip0_1662_1807)">
<path d="M46.9333 35.5928C46.9333 34.2912 47.9999 33.7904 49.7669 33.7904C52.3 33.7904 55.4999 34.5583 58.0333 35.9267V28.0827C55.2667 26.9813 52.5334 26.5474 49.7669 26.5474C43 26.5474 38.5 30.0856 38.5 35.9936C38.5 45.2056 51.1666 43.7372 51.1666 47.7093C51.1666 49.2444 49.8334 49.7452 47.9666 49.7452C45.2001 49.7452 41.6666 48.6103 38.8666 47.0749V55.0189C41.9666 56.354 45.1 56.9213 47.9666 56.9213C54.8999 56.9213 59.6666 53.4836 59.6666 47.5089C59.6334 37.5623 46.9333 39.3311 46.9333 35.5928ZM69.4666 19.8719L61.3333 21.6074L61.3 48.3432C61.3 53.2834 65.0001 56.9213 69.9334 56.9213C72.6667 56.9213 74.6666 56.4207 75.7666 55.8199V49.0442C74.7002 49.4781 69.4333 51.0135 69.4333 46.0735V34.2243H75.7666V27.1149H69.4333L69.4666 19.8719ZM86.1334 29.5847L85.6 27.1149H78.4V56.3205H86.7334V36.5275C88.6998 33.9575 92.0334 34.4247 93.0667 34.7918V27.1149C92.0001 26.7143 88.1001 25.9799 86.1334 29.5847ZM95.0999 27.1149H103.467V56.3205H95.0999V27.1149ZM95.0999 24.5781L103.467 22.7757V16L95.0999 17.7691V24.5781ZM120.867 26.5474C117.6 26.5474 115.5 28.0827 114.333 29.151L113.9 27.0815H106.567V66L114.9 64.2311L114.933 54.7852C116.133 55.653 117.9 56.888 120.833 56.888C126.8 56.888 132.233 52.0815 132.233 41.5008C132.2 31.8211 126.7 26.5474 120.867 26.5474ZM118.867 49.5448C116.9 49.5448 115.733 48.844 114.933 47.9761L114.9 35.5928C115.767 34.6249 116.967 33.9575 118.867 33.9575C121.9 33.9575 124 37.3619 124 41.7343C124 46.207 121.933 49.5448 118.867 49.5448ZM158.5 41.8346C158.5 33.2898 154.367 26.5474 146.467 26.5474C138.533 26.5474 133.733 33.29 133.733 41.7679C133.733 51.8145 139.4 56.888 147.533 56.888C151.5 56.888 154.5 55.9868 156.767 54.7185V48.0428C154.5 49.1777 151.9 49.8787 148.6 49.8787C145.367 49.8787 142.5 48.7438 142.133 44.8052H158.433C158.433 44.3711 158.5 42.6355 158.5 41.8346ZM142.033 38.6637C142.033 34.892 144.333 33.3231 146.433 33.3231C148.467 33.3231 150.633 34.892 150.633 38.6637H142.033Z" fill="#747474"/>
</g>
<defs>
<clipPath id="clip0_1662_1807">
<rect width="120" height="50" fill="white" transform="translate(38.5 16)"/>
</clipPath>
</defs>
</svg>
