<svg width="310" height="46" viewBox="0 0 310 46" fill="none" xmlns="http://www.w3.org/2000/svg">
<path d="M0.53125 7.59599L8.56495 7.597L13.4498 7.59801V2.742L0.53125 7.59599Z" fill="#1D252C"/>
<path d="M13.4453 2.74197V19.886L19.5465 0.448975L13.4453 2.74197Z" fill="#1D252C"/>
<path d="M13.4475 7.59802H8.5625L13.4475 19.886V7.59802Z" fill="#1D252C"/>
<path d="M0.53125 7.59601L9.81765 10.75L8.56495 7.59702L0.53125 7.59601Z" fill="#1D252C"/>
<path d="M30.1245 15.374C30.0537 15.445 29.9356 15.534 29.7706 15.64C29.6053 15.747 29.3901 15.853 29.1247 15.96C28.8593 16.066 28.5347 16.158 28.1515 16.235C27.768 16.312 27.3287 16.35 26.8333 16.35C25.8777 16.35 25.0519 16.196 24.356 15.889C23.6597 15.581 23.0847 15.152 22.6307 14.602C22.1765 14.051 21.8433 13.4 21.631 12.648C21.4186 11.897 21.3125 11.071 21.3125 10.172C21.3125 9.272 21.4275 8.441 21.6575 7.677C21.8875 6.914 22.2326 6.25401 22.6926 5.69701C23.1527 5.14101 23.7278 4.706 24.4179 4.392C25.108 4.079 25.9189 3.922 26.8509 3.922C27.311 3.922 27.7269 3.96301 28.0985 4.04601C28.4701 4.12901 28.7944 4.227 29.0717 4.339C29.3487 4.452 29.5788 4.57 29.7618 4.694C29.9446 4.818 30.0831 4.922 30.1777 5.005C30.2838 5.1 30.3751 5.212 30.452 5.342C30.5286 5.473 30.567 5.61501 30.567 5.76801C30.567 6.00501 30.4785 6.242 30.3015 6.479C30.1246 6.715 29.9299 6.934 29.7175 7.136C29.576 6.993 29.4168 6.849 29.2399 6.701C29.0629 6.553 28.8652 6.423 28.6471 6.31C28.4287 6.198 28.1809 6.103 27.9038 6.026C27.6265 5.949 27.3169 5.91 26.9749 5.91C26.3733 5.91 25.869 6.032 25.462 6.274C25.055 6.517 24.7276 6.834 24.4799 7.224C24.2322 7.615 24.0552 8.062 23.949 8.565C23.8429 9.068 23.7898 9.58 23.7898 10.101C23.7898 10.657 23.8429 11.19 23.949 11.698C24.0552 12.207 24.2379 12.657 24.4976 13.048C24.7569 13.438 25.0962 13.752 25.5151 13.989C25.9336 14.226 26.4556 14.344 27.0811 14.344C27.4111 14.344 27.715 14.303 27.9923 14.22C28.2693 14.137 28.5143 14.036 28.7266 13.918C28.939 13.8 29.1248 13.675 29.284 13.545C29.4433 13.415 29.576 13.303 29.6822 13.208C29.753 13.291 29.8353 13.391 29.9299 13.51C30.0249 13.629 30.1135 13.753 30.1953 13.882C30.2777 14.013 30.3485 14.143 30.4076 14.273C30.4665 14.403 30.4961 14.522 30.4961 14.628C30.4961 14.782 30.4665 14.912 30.4076 15.019C30.3484 15.125 30.2541 15.244 30.1245 15.374ZM39.2434 14.012C39.2434 14.953 39.3797 15.638 39.6528 16.066C39.4392 16.149 39.2404 16.209 39.0564 16.245C38.8723 16.281 38.6796 16.298 38.4779 16.298C38.0507 16.298 37.7272 16.215 37.5078 16.048C37.2881 15.882 37.1487 15.644 37.0895 15.334C36.8282 15.608 36.4841 15.84 36.057 16.031C35.6297 16.221 35.1074 16.316 34.4904 16.316C34.17 16.316 33.8496 16.272 33.5292 16.183C33.2087 16.094 32.9178 15.948 32.6568 15.747C32.3956 15.545 32.1821 15.275 32.016 14.937C31.8497 14.598 31.7668 14.186 31.7668 13.699C31.7668 13.094 31.912 12.601 32.2029 12.221C32.4936 11.841 32.8585 11.542 33.2978 11.322C33.7367 11.103 34.2115 10.952 34.7219 10.868C35.232 10.785 35.701 10.732 36.1282 10.708C36.2707 10.696 36.41 10.69 36.5465 10.69H36.9293V10.365C36.9293 9.90701 36.8074 9.58201 36.5643 9.38901C36.3209 9.19701 35.9262 9.10001 35.3805 9.10001C34.8701 9.10001 34.4161 9.18401 34.0187 9.35001C33.6209 9.51701 33.2323 9.707 32.8527 9.922C32.6864 9.719 32.5528 9.496 32.4521 9.252C32.3512 9.008 32.3008 8.826 32.3008 8.707C32.3008 8.541 32.3926 8.38001 32.5768 8.22501C32.7606 8.07001 33.0129 7.92999 33.3334 7.80499C33.6539 7.67999 34.0215 7.579 34.4371 7.502C34.8523 7.424 35.2915 7.38499 35.7544 7.38499C36.3952 7.38499 36.9382 7.451 37.3832 7.582C37.8282 7.713 38.1902 7.915 38.4691 8.189C38.7478 8.463 38.9467 8.806 39.0654 9.216C39.1839 9.627 39.2435 10.107 39.2435 10.654L39.2434 14.012ZM36.9647 11.94H36.7156C36.6324 11.94 36.5492 11.946 36.4664 11.958C36.1695 11.982 35.8758 12.018 35.5852 12.065C35.2943 12.113 35.0361 12.196 34.8109 12.315C34.5853 12.434 34.4014 12.589 34.259 12.78C34.1166 12.97 34.0454 13.215 34.0454 13.512C34.0454 13.846 34.1402 14.128 34.3301 14.36C34.5198 14.593 34.8403 14.709 35.2915 14.709C35.5168 14.709 35.7305 14.679 35.9323 14.619C36.134 14.56 36.312 14.483 36.4664 14.387C36.6205 14.292 36.7423 14.188 36.8313 14.075C36.9203 13.962 36.9648 13.858 36.9648 13.762L36.9647 11.94ZM43.6757 8.42101C43.8649 8.19501 44.1608 7.96599 44.563 7.73399C44.9652 7.50099 45.4739 7.38499 46.0892 7.38499C46.527 7.38499 46.944 7.45999 47.3404 7.60899C47.7365 7.75799 48.0886 7.999 48.3962 8.332C48.7038 8.666 48.9493 9.10601 49.1328 9.65401C49.3161 10.202 49.4079 10.875 49.4079 11.672C49.4079 12.601 49.3013 13.366 49.0884 13.967C48.8753 14.569 48.6004 15.045 48.2634 15.397C47.9262 15.748 47.5504 15.995 47.1365 16.138C46.7224 16.281 46.3082 16.352 45.8943 16.352C45.5512 16.352 45.2523 16.313 44.9982 16.236C44.7436 16.158 44.5278 16.072 44.3503 15.977C44.1729 15.882 44.0369 15.787 43.9424 15.691C43.8478 15.596 43.7885 15.53 43.7649 15.495V19.885H41.3439V7.63499C41.4034 7.62399 41.4752 7.61201 41.5591 7.60001C41.631 7.58801 41.7146 7.579 41.8103 7.573C41.9059 7.567 42.0196 7.564 42.151 7.564C42.5454 7.564 42.8803 7.63 43.1554 7.761C43.4303 7.892 43.604 8.11201 43.6757 8.42101ZM46.88 11.726C46.88 11.369 46.8505 11.035 46.7915 10.726C46.7326 10.416 46.6352 10.148 46.4995 9.922C46.3638 9.696 46.1807 9.52 45.9507 9.395C45.7203 9.27 45.4403 9.207 45.1101 9.207C44.6145 9.207 44.2693 9.303 44.0745 9.493C43.8799 9.684 43.7826 9.892 43.7826 10.118V13.905C43.8768 14 44.0448 14.113 44.2868 14.244C44.5288 14.376 44.8088 14.441 45.1276 14.441C45.7295 14.441 46.172 14.203 46.4552 13.726C46.7385 13.25 46.88 12.583 46.88 11.726ZM51.2764 14.798C51.1932 14.56 51.1399 14.31 51.1162 14.048C51.0923 13.786 51.0806 13.524 51.0806 13.262V4.974C51.1635 4.962 51.2526 4.95 51.3476 4.938C51.4304 4.927 51.5195 4.918 51.6146 4.911C51.7095 4.906 51.8043 4.903 51.8994 4.903C52.0891 4.903 52.2792 4.92099 52.4691 4.95599C52.6588 4.99199 52.8309 5.063 52.9854 5.17C53.1395 5.278 53.2641 5.424 53.3592 5.608C53.4541 5.793 53.5016 6.03399 53.5016 6.33099V7.60001H55.9939V9.40401H53.5016V13.213C53.5016 14.043 53.8398 14.459 54.5163 14.459C54.6824 14.459 54.8395 14.432 54.9881 14.378C55.1363 14.325 55.2698 14.265 55.3886 14.2C55.5072 14.134 55.6111 14.066 55.7001 13.994C55.7891 13.923 55.8514 13.869 55.887 13.834C56.065 14.096 56.2013 14.323 56.2964 14.514C56.3913 14.706 56.4388 14.886 56.4388 15.054C56.4388 15.21 56.3767 15.364 56.2519 15.514C56.1272 15.664 55.952 15.802 55.7267 15.928C55.5012 16.055 55.2284 16.157 54.9079 16.235C54.5875 16.313 54.2372 16.352 53.8576 16.352C53.1216 16.352 52.5491 16.209 52.1397 15.924C51.7303 15.638 51.4424 15.262 51.2764 14.798ZM62.125 14.566C62.423 14.566 62.685 14.533 62.912 14.468C63.138 14.402 63.34 14.322 63.519 14.227C63.697 14.131 63.852 14.027 63.983 13.914C64.114 13.801 64.233 13.697 64.341 13.601C64.483 13.78 64.632 14.009 64.787 14.289C64.942 14.569 65.019 14.798 65.019 14.977C65.019 15.239 64.871 15.477 64.575 15.691C64.325 15.882 63.972 16.046 63.515 16.182C63.058 16.319 62.521 16.388 61.904 16.388C61.346 16.388 60.797 16.316 60.258 16.173C59.718 16.031 59.237 15.78 58.8157 15.423C58.3943 15.066 58.053 14.587 57.792 13.985C57.5309 13.384 57.4004 12.625 57.4004 11.708C57.4004 10.958 57.5162 10.312 57.7474 9.77C57.979 9.228 58.2874 8.77901 58.6734 8.42101C59.059 8.06401 59.495 7.80199 59.982 7.63499C60.468 7.46899 60.967 7.38499 61.477 7.38499C62.142 7.38499 62.705 7.49 63.168 7.698C63.631 7.906 64.008 8.18599 64.299 8.53799C64.589 8.88899 64.8 9.291 64.93 9.743C65.061 10.196 65.126 10.672 65.126 11.172V11.422C65.126 11.518 65.123 11.619 65.117 11.726C65.111 11.833 65.105 11.937 65.1 12.038C65.093 12.14 65.085 12.22 65.073 12.28H59.821C59.869 12.935 60.071 13.479 60.429 13.914C60.786 14.349 61.351 14.566 62.125 14.566ZM62.937 10.94C62.937 10.368 62.826 9.904 62.605 9.547C62.385 9.189 61.987 9.011 61.415 9.011C60.925 9.011 60.534 9.181 60.242 9.52C59.95 9.859 59.804 10.333 59.804 10.94H62.937ZM69.339 8.467C69.41 8.36 69.505 8.242 69.624 8.112C69.743 7.982 69.888 7.864 70.06 7.758C70.232 7.651 70.422 7.563 70.63 7.492C70.837 7.421 71.06 7.38499 71.298 7.38499C71.44 7.38499 71.591 7.39701 71.751 7.42101C71.912 7.44501 72.06 7.489 72.196 7.554C72.333 7.619 72.443 7.707 72.526 7.819C72.609 7.932 72.65 8.06999 72.65 8.23599C72.65 8.49499 72.585 8.794 72.455 9.131C72.324 9.468 72.194 9.755 72.063 9.993C71.861 9.827 71.659 9.69899 71.458 9.60899C71.256 9.51999 71.018 9.47501 70.746 9.47501C70.378 9.47501 70.069 9.583 69.82 9.798C69.571 10.013 69.446 10.269 69.446 10.568V16.35H67.025V7.63499C67.084 7.62399 67.156 7.61201 67.239 7.60001C67.31 7.58801 67.393 7.579 67.488 7.573C67.583 7.567 67.696 7.564 67.826 7.564C68.206 7.564 68.535 7.638 68.814 7.785C69.093 7.933 69.268 8.16 69.339 8.467ZM76.223 8.467C76.294 8.36 76.389 8.242 76.507 8.112C76.626 7.982 76.771 7.864 76.944 7.758C77.116 7.651 77.305 7.563 77.513 7.492C77.721 7.421 77.943 7.38499 78.181 7.38499C78.323 7.38499 78.474 7.39701 78.635 7.42101C78.795 7.44501 78.943 7.489 79.08 7.554C79.216 7.619 79.326 7.707 79.409 7.819C79.492 7.932 79.534 8.06999 79.534 8.23599C79.534 8.49499 79.468 8.794 79.338 9.131C79.207 9.468 79.077 9.755 78.946 9.993C78.744 9.827 78.543 9.69899 78.341 9.60899C78.139 9.51999 77.902 9.47501 77.629 9.47501C77.261 9.47501 76.952 9.583 76.703 9.798C76.454 10.013 76.329 10.269 76.329 10.568V16.35H73.908V7.63499C73.968 7.62399 74.039 7.61201 74.122 7.60001C74.193 7.58801 74.276 7.579 74.371 7.573C74.466 7.567 74.579 7.564 74.709 7.564C75.089 7.564 75.419 7.638 75.697 7.785C75.976 7.933 76.151 8.16 76.223 8.467ZM87.776 14.012C87.776 14.953 87.912 15.638 88.185 16.066C87.972 16.149 87.773 16.209 87.589 16.245C87.405 16.281 87.212 16.298 87.01 16.298C86.583 16.298 86.26 16.215 86.04 16.048C85.82 15.882 85.681 15.644 85.622 15.334C85.361 15.608 85.017 15.84 84.589 16.031C84.162 16.221 83.64 16.316 83.023 16.316C82.702 16.316 82.382 16.272 82.062 16.183C81.741 16.094 81.45 15.948 81.189 15.747C80.928 15.545 80.715 15.275 80.548 14.937C80.382 14.598 80.299 14.186 80.299 13.699C80.299 13.094 80.444 12.601 80.735 12.221C81.026 11.841 81.391 11.542 81.83 11.322C82.269 11.103 82.744 10.952 83.254 10.868C83.764 10.785 84.233 10.732 84.661 10.708C84.803 10.696 84.942 10.69 85.079 10.69H85.462V10.365C85.462 9.90701 85.34 9.58201 85.097 9.38901C84.853 9.19701 84.459 9.10001 83.913 9.10001C83.403 9.10001 82.949 9.18401 82.551 9.35001C82.153 9.51701 81.765 9.707 81.385 9.922C81.219 9.719 81.085 9.496 80.985 9.252C80.884 9.008 80.833 8.826 80.833 8.707C80.833 8.541 80.925 8.38001 81.109 8.22501C81.293 8.07001 81.545 7.92999 81.866 7.80499C82.186 7.67999 82.554 7.579 82.969 7.502C83.385 7.424 83.824 7.38499 84.287 7.38499C84.928 7.38499 85.471 7.451 85.916 7.582C86.361 7.713 86.723 7.915 87.002 8.189C87.28 8.463 87.479 8.806 87.598 9.216C87.716 9.627 87.776 10.107 87.776 10.654V14.012ZM85.497 11.94H85.248C85.165 11.94 85.082 11.946 84.999 11.958C84.702 11.982 84.408 12.018 84.118 12.065C83.827 12.113 83.569 12.196 83.343 12.315C83.118 12.434 82.934 12.589 82.791 12.78C82.649 12.97 82.578 13.215 82.578 13.512C82.578 13.846 82.673 14.128 82.863 14.36C83.052 14.593 83.373 14.709 83.824 14.709C84.049 14.709 84.263 14.679 84.465 14.619C84.667 14.56 84.844 14.483 84.999 14.387C85.153 14.292 85.275 14.188 85.364 14.075C85.453 13.962 85.497 13.858 85.497 13.762V11.94Z" fill="#1D252C"/>
<path d="M0.706177 42.149V40.713L4.93828 34.026H6.13638V36.071H5.40578L2.55678 40.586V40.664H8.46428V42.149H0.706177ZM5.46428 44V41.711L5.48378 41.068V34.026H7.18828V44H5.46428ZM10.8446 44.107C10.5491 44.107 10.2959 44.003 10.0848 43.795C9.87378 43.588 9.76988 43.334 9.77308 43.036C9.76988 42.744 9.87378 42.494 10.0848 42.286C10.2959 42.078 10.5491 41.974 10.8446 41.974C11.1303 41.974 11.3786 42.078 11.5897 42.286C11.804 42.494 11.9127 42.744 11.916 43.036C11.9127 43.234 11.8608 43.414 11.7601 43.576C11.6627 43.739 11.5329 43.869 11.3705 43.966C11.2114 44.06 11.0361 44.107 10.8446 44.107ZM17.0637 44.136C16.4144 44.136 15.8332 44.015 15.3202 43.771C14.8072 43.524 14.3998 43.187 14.0978 42.758C13.7991 42.33 13.64 41.839 13.6205 41.287H15.3738C15.4062 41.696 15.5832 42.031 15.9046 42.291C16.2261 42.547 16.6124 42.675 17.0637 42.675C17.4176 42.675 17.7325 42.594 18.0085 42.432C18.2845 42.269 18.502 42.044 18.6611 41.755C18.8202 41.466 18.8981 41.136 18.8949 40.766C18.8981 40.39 18.8186 40.055 18.6562 39.763C18.4939 39.471 18.2715 39.242 17.989 39.076C17.7066 38.907 17.3819 38.823 17.015 38.823C16.7163 38.82 16.4225 38.875 16.1335 38.989C15.8446 39.102 15.6157 39.252 15.4468 39.437L13.8153 39.169L14.3364 34.026H20.1222V35.536H15.8316L15.5442 38.18H15.6027C15.7877 37.963 16.0491 37.782 16.3868 37.64C16.7244 37.494 17.0946 37.42 17.4972 37.42C18.1011 37.42 18.64 37.563 19.114 37.849C19.5881 38.131 19.9614 38.521 20.2342 39.018C20.5069 39.515 20.6433 40.083 20.6433 40.722C20.6433 41.381 20.4907 41.969 20.1855 42.485C19.8835 42.998 19.4631 43.403 18.9241 43.698C18.3884 43.99 17.7683 44.136 17.0637 44.136ZM26.3657 33.558L23.1514 45.5H21.6075L24.8218 33.558H26.3657ZM30.9387 44.136C30.2894 44.136 29.7082 44.015 29.1952 43.771C28.6822 43.524 28.2747 43.187 27.9728 42.758C27.6741 42.33 27.515 41.839 27.4955 41.287H29.2488C29.2812 41.696 29.4582 42.031 29.7796 42.291C30.101 42.547 30.4874 42.675 30.9387 42.675C31.2926 42.675 31.6075 42.594 31.8835 42.432C32.1595 42.269 32.377 42.044 32.5361 41.755C32.6952 41.466 32.7731 41.136 32.7699 40.766C32.7731 40.39 32.6936 40.055 32.5312 39.763C32.3689 39.471 32.1465 39.242 31.864 39.076C31.5816 38.907 31.2569 38.823 30.89 38.823C30.5913 38.82 30.2975 38.875 30.0085 38.989C29.7196 39.102 29.4907 39.252 29.3218 39.437L27.6903 39.169L28.2114 34.026H33.9972V35.536H29.7066L29.4192 38.18H29.4777C29.6627 37.963 29.9241 37.782 30.2618 37.64C30.5994 37.494 30.9696 37.42 31.3722 37.42C31.976 37.42 32.515 37.563 32.989 37.849C33.4631 38.131 33.8364 38.521 34.1092 39.018C34.3819 39.515 34.5183 40.083 34.5183 40.722C34.5183 41.381 34.3657 41.969 34.0605 42.485C33.7585 42.998 33.3381 43.403 32.7991 43.698C32.2634 43.99 31.6433 44.136 30.9387 44.136Z" fill="#597287"/>
<path d="M50.5061 33.506C50.8096 32.633 52.0442 32.633 52.3477 33.506L53.2195 36.014C53.3533 36.399 53.7127 36.661 54.1204 36.669L56.775 36.723C57.6991 36.742 58.0806 37.916 57.3441 38.474L55.2282 40.079C54.9033 40.325 54.766 40.747 54.8841 41.138L55.653 43.679C55.9206 44.564 54.9218 45.289 54.1632 44.761L51.9837 43.245C51.649 43.012 51.2048 43.012 50.8701 43.245L48.6907 44.761C47.932 45.289 46.9332 44.564 47.2008 43.679L47.9697 41.138C48.0878 40.747 47.9505 40.325 47.6256 40.079L45.5097 38.474C44.7732 37.916 45.1548 36.742 46.0788 36.723L48.7335 36.669C49.1411 36.661 49.5005 36.399 49.6344 36.014L50.5061 33.506Z" fill="#FCDA01"/>
<path d="M68.506 33.506C68.81 32.633 70.044 32.633 70.348 33.506L71.219 36.014C71.353 36.399 71.713 36.661 72.12 36.669L74.775 36.723C75.699 36.742 76.081 37.916 75.344 38.474L73.228 40.079C72.903 40.325 72.766 40.747 72.884 41.138L73.653 43.679C73.921 44.564 72.922 45.289 72.163 44.761L69.984 43.245C69.649 43.012 69.205 43.012 68.87 43.245L66.691 44.761C65.932 45.289 64.933 44.564 65.201 43.679L65.97 41.138C66.088 40.747 65.95 40.325 65.626 40.079L63.51 38.474C62.773 37.916 63.155 36.742 64.079 36.723L66.733 36.669C67.141 36.661 67.5 36.399 67.634 36.014L68.506 33.506Z" fill="#FCDA01"/>
<path d="M104.506 33.506C104.81 32.633 106.044 32.633 106.348 33.506L107.219 36.014C107.353 36.399 107.713 36.661 108.12 36.669L110.775 36.723C111.699 36.742 112.081 37.916 111.344 38.474L109.228 40.079C108.903 40.325 108.766 40.747 108.884 41.138L109.653 43.679C109.921 44.564 108.922 45.289 108.163 44.761L105.984 43.245C105.649 43.012 105.205 43.012 104.87 43.245L102.691 44.761C101.932 45.289 100.933 44.564 101.201 43.679L101.97 41.138C102.088 40.747 101.95 40.325 101.626 40.079L99.51 38.474C98.773 37.916 99.155 36.742 100.079 36.723L102.733 36.669C103.141 36.661 103.5 36.399 103.634 36.014L104.506 33.506Z" fill="#FCDA01"/>
<path d="M86.506 33.506C86.81 32.633 88.044 32.633 88.348 33.506L89.219 36.014C89.353 36.399 89.713 36.661 90.12 36.669L92.775 36.723C93.699 36.742 94.081 37.916 93.344 38.474L91.228 40.079C90.903 40.325 90.766 40.747 90.884 41.138L91.653 43.679C91.921 44.564 90.922 45.289 90.163 44.761L87.984 43.245C87.649 43.012 87.205 43.012 86.87 43.245L84.691 44.761C83.932 45.289 82.933 44.564 83.201 43.679L83.97 41.138C84.088 40.747 83.95 40.325 83.626 40.079L81.51 38.474C80.773 37.916 81.155 36.742 82.079 36.723L84.733 36.669C85.141 36.661 85.5 36.399 85.634 36.014L86.506 33.506Z" fill="#FCDA01"/>
<path d="M122.506 33.506C122.81 32.633 124.044 32.633 124.348 33.506L125.219 36.014C125.353 36.399 125.713 36.661 126.12 36.669L128.775 36.723C129.699 36.742 130.081 37.916 129.344 38.474L127.228 40.079C126.903 40.325 126.766 40.747 126.884 41.138L127.653 43.679C127.921 44.564 126.922 45.289 126.163 44.761L123.984 43.245C123.649 43.012 123.205 43.012 122.87 43.245L120.691 44.761C119.932 45.289 118.933 44.564 119.201 43.679L119.97 41.138C120.088 40.747 119.95 40.325 119.626 40.079L117.51 38.474C116.773 37.916 117.155 36.742 118.079 36.723L120.733 36.669C121.141 36.661 121.5 36.399 121.634 36.014L122.506 33.506Z" fill="#FCDA01"/>
<path d="M156.534 9V39" stroke="white" stroke-opacity="0.12" stroke-width="1.06715"/>
<mask id="mask0_7_527" style="mask-type:luminance" maskUnits="userSpaceOnUse" x="231" y="0" width="21" height="21">
<path d="M252 0H231.609V20.5714H252V0Z" fill="white"/>
</mask>
<g mask="url(#mask0_7_527)">
<path d="M241.805 20.571C247.436 20.571 252 15.966 252 10.286C252 4.605 247.436 0 241.805 0C236.174 0 231.609 4.605 231.609 10.286C231.609 15.966 236.174 20.571 241.805 20.571Z" fill="#1D252C"/>
<path d="M246.213 7.87902H244.471C244.518 7.60302 244.687 7.44902 245.03 7.27402L245.35 7.11002C245.923 6.81302 246.229 6.47802 246.229 5.93102C246.229 5.58702 246.096 5.31602 245.833 5.12002C245.57 4.92502 245.26 4.82802 244.897 4.82802C244.617 4.82502 244.341 4.90403 244.104 5.05703C243.866 5.20503 243.688 5.39602 243.578 5.63502L244.082 6.14503C244.278 5.74603 244.561 5.55002 244.934 5.55002C245.25 5.55002 245.444 5.71501 245.444 5.94301C245.444 6.13501 245.35 6.29302 244.987 6.47802L244.781 6.57902C244.335 6.80702 244.025 7.06803 243.845 7.36503C243.666 7.66103 243.578 8.03301 243.578 8.48401V8.60702H246.213V7.87902Z" fill="white"/>
<path d="M245.981 9.44501H243.098L241.656 11.963H244.54L245.981 14.483L247.423 11.963L245.981 9.44501Z" fill="white"/>
<path d="M241.904 13.645C240.069 13.645 238.574 12.137 238.574 10.285C238.574 8.43402 240.069 6.92601 241.904 6.92601L243.044 4.52101C242.668 4.44601 242.287 4.40802 241.904 4.40802C238.686 4.40802 236.078 7.03902 236.078 10.285C236.078 13.532 238.686 16.163 241.904 16.163C243.137 16.165 244.339 15.77 245.334 15.035L244.073 12.83C243.471 13.356 242.7 13.645 241.904 13.645Z" fill="white"/>
</g>
<path d="M186.309 8.66403C186.245 8.44203 186.156 8.24603 186.042 8.07503C185.927 7.90203 185.787 7.75502 185.621 7.63702C185.458 7.51502 185.271 7.42203 185.06 7.35803C184.852 7.29403 184.621 7.26202 184.367 7.26202C183.894 7.26202 183.477 7.38103 183.118 7.61803C182.762 7.85603 182.485 8.20103 182.285 8.65503C182.086 9.10503 181.987 9.65603 181.987 10.308C181.987 10.959 182.085 11.513 182.281 11.97C182.477 12.426 182.755 12.775 183.114 13.015C183.473 13.253 183.897 13.371 184.385 13.371C184.829 13.371 185.208 13.292 185.521 13.134C185.838 12.973 186.08 12.746 186.245 12.454C186.414 12.161 186.499 11.816 186.499 11.417L186.897 11.477H184.508V9.98804H188.386V11.166C188.386 11.988 188.214 12.694 187.87 13.285C187.526 13.872 187.053 14.326 186.449 14.645C185.846 14.962 185.155 15.12 184.376 15.12C183.507 15.12 182.744 14.927 182.086 14.54C181.429 14.151 180.916 13.598 180.548 12.883C180.183 12.164 180 11.312 180 10.326C180 9.56803 180.109 8.89203 180.326 8.29903C180.546 7.70203 180.854 7.19704 181.249 6.78304C181.644 6.36904 182.104 6.05403 182.629 5.83803C183.154 5.62203 183.723 5.51404 184.336 5.51404C184.861 5.51404 185.349 5.59102 185.802 5.74702C186.254 5.89902 186.656 6.11503 187.006 6.39503C187.359 6.67503 187.647 7.00803 187.87 7.39503C188.093 7.77803 188.237 8.20103 188.3 8.66403H186.309Z" fill="#1D252C"/>
<path d="M189.804 14.992V13.568L193.103 10.486C193.384 10.212 193.619 9.96503 193.809 9.74603C194.002 9.52703 194.148 9.31204 194.248 9.10204C194.348 8.88904 194.397 8.65902 194.397 8.41302C194.397 8.13902 194.335 7.90303 194.212 7.70503C194.088 7.50403 193.919 7.35103 193.705 7.24403C193.491 7.13503 193.248 7.08003 192.976 7.08003C192.693 7.08003 192.445 7.13804 192.234 7.25304C192.023 7.36904 191.86 7.53504 191.745 7.75104C191.631 7.96704 191.573 8.22403 191.573 8.52203H189.713C189.713 7.91103 189.851 7.38003 190.125 6.92903C190.4 6.47903 190.784 6.13003 191.279 5.88303C191.774 5.63703 192.344 5.51404 192.99 5.51404C193.654 5.51404 194.231 5.63203 194.723 5.87003C195.218 6.10403 195.603 6.43003 195.877 6.84703C196.152 7.26403 196.289 7.74204 196.289 8.28104C196.289 8.63404 196.22 8.98203 196.081 9.32603C195.945 9.67003 195.702 10.052 195.352 10.472C195.002 10.889 194.509 11.39 193.872 11.974L192.519 13.312V13.376H196.411V14.992H189.804Z" fill="#1D252C"/>
<path d="M205.863 8.33102C205.827 7.96202 205.672 7.67603 205.397 7.47203C205.122 7.26803 204.75 7.16603 204.279 7.16603C203.959 7.16603 203.689 7.21202 203.469 7.30302C203.249 7.39202 203.08 7.51503 202.962 7.67303C202.848 7.83203 202.79 8.01104 202.79 8.21204C202.784 8.37904 202.819 8.52602 202.894 8.65002C202.973 8.77502 203.08 8.88304 203.216 8.97504C203.351 9.06304 203.508 9.14003 203.686 9.20703C203.864 9.27103 204.054 9.32602 204.257 9.37202L205.089 9.57303C205.494 9.66403 205.865 9.78603 206.203 9.93803C206.541 10.09 206.833 10.277 207.081 10.499C207.328 10.722 207.52 10.983 207.655 11.285C207.794 11.586 207.865 11.932 207.868 12.321C207.865 12.893 207.72 13.39 207.434 13.81C207.15 14.227 206.74 14.551 206.203 14.782C205.669 15.01 205.024 15.125 204.27 15.125C203.522 15.125 202.87 15.009 202.315 14.778C201.763 14.546 201.331 14.204 201.021 13.75C200.713 13.294 200.552 12.729 200.536 12.056H202.433C202.454 12.37 202.543 12.632 202.7 12.842C202.86 13.049 203.072 13.205 203.338 13.312C203.606 13.415 203.91 13.467 204.247 13.467C204.579 13.467 204.868 13.418 205.112 13.321C205.359 13.224 205.551 13.088 205.687 12.915C205.822 12.741 205.89 12.542 205.89 12.317C205.89 12.107 205.828 11.93 205.705 11.787C205.584 11.644 205.406 11.522 205.171 11.422C204.938 11.321 204.653 11.23 204.315 11.148L203.306 10.892C202.525 10.7 201.908 10.401 201.455 9.99303C201.003 9.58503 200.778 9.03502 200.781 8.34402C200.778 7.77802 200.927 7.28402 201.229 6.86102C201.534 6.43702 201.951 6.10703 202.482 5.87003C203.013 5.63203 203.617 5.51404 204.293 5.51404C204.981 5.51404 205.581 5.63203 206.094 5.87003C206.61 6.10703 207.011 6.43702 207.298 6.86102C207.584 7.28402 207.732 7.77402 207.741 8.33102H205.863Z" fill="#1D252C"/>
<path d="M212.847 7.97902V9.44002H208.661V7.97902H212.847ZM209.612 6.29901H211.54V12.837C211.54 13.017 211.567 13.157 211.621 13.257C211.675 13.355 211.751 13.423 211.847 13.463C211.947 13.502 212.061 13.522 212.191 13.522C212.282 13.522 212.372 13.514 212.463 13.499C212.553 13.481 212.623 13.467 212.671 13.458L212.974 14.905C212.878 14.936 212.742 14.971 212.567 15.01C212.392 15.053 212.179 15.079 211.929 15.088C211.464 15.106 211.057 15.044 210.707 14.901C210.36 14.758 210.09 14.536 209.897 14.234C209.704 13.933 209.609 13.552 209.612 13.093V6.29901Z" fill="#1D252C"/>
<path d="M216.086 15.125C215.642 15.125 215.247 15.047 214.9 14.892C214.553 14.733 214.278 14.501 214.076 14.193C213.877 13.883 213.777 13.496 213.777 13.033C213.777 12.644 213.848 12.317 213.99 12.052C214.132 11.787 214.325 11.574 214.569 11.413C214.814 11.251 215.091 11.13 215.402 11.047C215.716 10.965 216.045 10.907 216.389 10.874C216.793 10.831 217.119 10.792 217.366 10.755C217.614 10.716 217.793 10.658 217.905 10.582C218.017 10.506 218.072 10.393 218.072 10.244V10.216C218.072 9.927 217.982 9.704 217.801 9.545C217.623 9.387 217.369 9.308 217.04 9.308C216.694 9.308 216.417 9.385 216.212 9.541C216.007 9.693 215.871 9.885 215.805 10.116L214.022 9.97C214.112 9.544 214.29 9.17501 214.556 8.86501C214.821 8.55101 215.164 8.311 215.583 8.144C216.006 7.973 216.494 7.888 217.05 7.888C217.436 7.888 217.805 7.93399 218.158 8.02499C218.514 8.11599 218.83 8.25801 219.104 8.44901C219.382 8.64101 219.601 8.888 219.76 9.189C219.92 9.487 220 9.84499 220 10.262V14.992H218.172V14.02H218.118C218.006 14.239 217.857 14.432 217.67 14.6C217.482 14.764 217.258 14.893 216.995 14.988C216.733 15.079 216.43 15.125 216.086 15.125ZM216.638 13.782C216.921 13.782 217.172 13.726 217.389 13.613C217.606 13.498 217.777 13.342 217.9 13.148C218.024 12.953 218.086 12.732 218.086 12.486V11.741C218.026 11.781 217.943 11.817 217.837 11.851C217.734 11.881 217.618 11.91 217.489 11.938C217.359 11.962 217.229 11.985 217.099 12.006C216.97 12.024 216.852 12.041 216.746 12.056C216.52 12.09 216.322 12.143 216.153 12.216C215.984 12.289 215.853 12.388 215.76 12.513C215.666 12.635 215.619 12.787 215.619 12.97C215.619 13.234 215.714 13.437 215.905 13.577C216.098 13.714 216.342 13.782 216.638 13.782Z" fill="#1D252C"/>
<path d="M221.496 14.992V7.97903H223.365V9.20303H223.438C223.564 8.76803 223.777 8.43903 224.076 8.21703C224.374 7.99103 224.718 7.87903 225.108 7.87903C225.204 7.87903 225.308 7.88503 225.42 7.89703C225.531 7.90903 225.629 7.92604 225.714 7.94704V9.67303C225.623 9.64603 225.498 9.62104 225.338 9.60004C225.178 9.57904 225.032 9.56802 224.899 9.56802C224.616 9.56802 224.362 9.63004 224.139 9.75504C223.919 9.87704 223.744 10.047 223.614 10.267C223.487 10.486 223.424 10.738 223.424 11.025V14.992H221.496Z" fill="#1D252C"/>
<path d="M180.706 42.149V40.713L184.938 34.026H186.136V36.071H185.406L182.557 40.586V40.664H188.464V42.149H180.706ZM185.464 44V41.711L185.484 41.068V34.026H187.188V44H185.464ZM190.845 44.107C190.549 44.107 190.296 44.003 190.085 43.795C189.874 43.588 189.77 43.334 189.773 43.036C189.77 42.744 189.874 42.494 190.085 42.286C190.296 42.078 190.549 41.974 190.845 41.974C191.13 41.974 191.379 42.078 191.59 42.286C191.804 42.494 191.913 42.744 191.916 43.036C191.913 43.234 191.861 43.414 191.76 43.576C191.663 43.739 191.533 43.869 191.371 43.966C191.211 44.06 191.036 44.107 190.845 44.107ZM197.064 44.136C196.414 44.136 195.833 44.015 195.32 43.771C194.807 43.524 194.4 43.187 194.098 42.758C193.799 42.33 193.64 41.839 193.621 41.287H195.374C195.406 41.696 195.583 42.031 195.905 42.291C196.226 42.547 196.612 42.675 197.064 42.675C197.418 42.675 197.733 42.594 198.009 42.432C198.284 42.269 198.502 42.044 198.661 41.755C198.82 41.466 198.898 41.136 198.895 40.766C198.898 40.39 198.819 40.055 198.656 39.763C198.494 39.471 198.272 39.242 197.989 39.076C197.707 38.907 197.382 38.823 197.015 38.823C196.716 38.82 196.422 38.875 196.134 38.989C195.845 39.102 195.616 39.252 195.447 39.437L193.815 39.169L194.336 34.026H200.122V35.536H195.832L195.544 38.18H195.603C195.788 37.963 196.049 37.782 196.387 37.64C196.724 37.494 197.095 37.42 197.497 37.42C198.101 37.42 198.64 37.563 199.114 37.849C199.588 38.131 199.961 38.521 200.234 39.018C200.507 39.515 200.643 40.083 200.643 40.722C200.643 41.381 200.491 41.969 200.185 42.485C199.884 42.998 199.463 43.403 198.924 43.698C198.388 43.99 197.768 44.136 197.064 44.136ZM206.366 33.558L203.151 45.5H201.608L204.822 33.558H206.366ZM210.939 44.136C210.289 44.136 209.708 44.015 209.195 43.771C208.682 43.524 208.275 43.187 207.973 42.758C207.674 42.33 207.515 41.839 207.496 41.287H209.249C209.281 41.696 209.458 42.031 209.78 42.291C210.101 42.547 210.487 42.675 210.939 42.675C211.293 42.675 211.608 42.594 211.884 42.432C212.159 42.269 212.377 42.044 212.536 41.755C212.695 41.466 212.773 41.136 212.77 40.766C212.773 40.39 212.694 40.055 212.531 39.763C212.369 39.471 212.147 39.242 211.864 39.076C211.582 38.907 211.257 38.823 210.89 38.823C210.591 38.82 210.297 38.875 210.009 38.989C209.72 39.102 209.491 39.252 209.322 39.437L207.69 39.169L208.211 34.026H213.997V35.536H209.707L209.419 38.18H209.478C209.663 37.963 209.924 37.782 210.262 37.64C210.599 37.494 210.97 37.42 211.372 37.42C211.976 37.42 212.515 37.563 212.989 37.849C213.463 38.131 213.836 38.521 214.109 39.018C214.382 39.515 214.518 40.083 214.518 40.722C214.518 41.381 214.366 41.969 214.06 42.485C213.759 42.998 213.338 43.403 212.799 43.698C212.263 43.99 211.643 44.136 210.939 44.136Z" fill="#597287"/>
<path d="M230.506 33.506C230.81 32.633 232.044 32.633 232.348 33.506L233.219 36.014C233.353 36.399 233.713 36.661 234.12 36.669L236.775 36.723C237.699 36.742 238.081 37.916 237.344 38.474L235.228 40.079C234.903 40.325 234.766 40.747 234.884 41.138L235.653 43.679C235.921 44.564 234.922 45.289 234.163 44.761L231.984 43.245C231.649 43.012 231.205 43.012 230.87 43.245L228.691 44.761C227.932 45.289 226.933 44.564 227.201 43.679L227.97 41.138C228.088 40.747 227.95 40.325 227.626 40.079L225.51 38.474C224.773 37.916 225.155 36.742 226.079 36.723L228.733 36.669C229.141 36.661 229.5 36.399 229.634 36.014L230.506 33.506Z" fill="#FCDA01"/>
<path d="M248.506 33.506C248.81 32.633 250.044 32.633 250.348 33.506L251.219 36.014C251.353 36.399 251.713 36.661 252.12 36.669L254.775 36.723C255.699 36.742 256.081 37.916 255.344 38.474L253.228 40.079C252.903 40.325 252.766 40.747 252.884 41.138L253.653 43.679C253.921 44.564 252.922 45.289 252.163 44.761L249.984 43.245C249.649 43.012 249.205 43.012 248.87 43.245L246.691 44.761C245.932 45.289 244.933 44.564 245.201 43.679L245.97 41.138C246.088 40.747 245.95 40.325 245.626 40.079L243.51 38.474C242.773 37.916 243.155 36.742 244.079 36.723L246.733 36.669C247.141 36.661 247.5 36.399 247.634 36.014L248.506 33.506Z" fill="#FCDA01"/>
<path d="M284.506 33.506C284.81 32.633 286.044 32.633 286.348 33.506L287.219 36.014C287.353 36.399 287.713 36.661 288.12 36.669L290.775 36.723C291.699 36.742 292.081 37.916 291.344 38.474L289.228 40.079C288.903 40.325 288.766 40.747 288.884 41.138L289.653 43.679C289.921 44.564 288.922 45.289 288.163 44.761L285.984 43.245C285.649 43.012 285.205 43.012 284.87 43.245L282.691 44.761C281.932 45.289 280.933 44.564 281.201 43.679L281.97 41.138C282.088 40.747 281.95 40.325 281.626 40.079L279.51 38.474C278.773 37.916 279.155 36.742 280.079 36.723L282.733 36.669C283.141 36.661 283.5 36.399 283.634 36.014L284.506 33.506Z" fill="#FCDA01"/>
<path d="M266.506 33.506C266.81 32.633 268.044 32.633 268.348 33.506L269.219 36.014C269.353 36.399 269.713 36.661 270.12 36.669L272.775 36.723C273.699 36.742 274.081 37.916 273.344 38.474L271.228 40.079C270.903 40.325 270.766 40.747 270.884 41.138L271.653 43.679C271.921 44.564 270.922 45.289 270.163 44.761L267.984 43.245C267.649 43.012 267.205 43.012 266.87 43.245L264.691 44.761C263.932 45.289 262.933 44.564 263.201 43.679L263.97 41.138C264.088 40.747 263.95 40.325 263.626 40.079L261.51 38.474C260.773 37.916 261.155 36.742 262.079 36.723L264.733 36.669C265.141 36.661 265.5 36.399 265.634 36.014L266.506 33.506Z" fill="#FCDA01"/>
<path d="M302.506 33.506C302.81 32.633 304.044 32.633 304.348 33.506L305.219 36.014C305.353 36.399 305.713 36.661 306.12 36.669L308.775 36.723C309.699 36.742 310.081 37.916 309.344 38.474L307.228 40.079C306.903 40.325 306.766 40.747 306.884 41.138L307.653 43.679C307.921 44.564 306.922 45.289 306.163 44.761L303.984 43.245C303.649 43.012 303.205 43.012 302.87 43.245L300.691 44.761C299.932 45.289 298.933 44.564 299.201 43.679L299.97 41.138C300.088 40.747 299.95 40.325 299.626 40.079L297.51 38.474C296.773 37.916 297.155 36.742 298.079 36.723L300.733 36.669C301.141 36.661 301.5 36.399 301.634 36.014L302.506 33.506Z" fill="#FCDA01"/>
</svg>
