<svg width="36" height="36" fill="none" xmlns="http://www.w3.org/2000/svg"><path fill-rule="evenodd" clip-rule="evenodd" d="M10.967 1.712a8.532 8.532 0 00-5.14 1.04 1.5 1.5 0 00-.325 2.37l3.736 3.736-.6.6-3.739-3.736a1.5 1.5 0 00-2.368.326 8.532 8.532 0 009.637 12.423l2.288-2.288-.583-.584a1.5 1.5 0 00-1.06-.439h-.003a1.5 1.5 0 00-.606.128A5.532 5.532 0 014.48 9.544l3.097 3.096a1.5 1.5 0 002.121 0l2.722-2.72a1.5 1.5 0 000-2.123L9.325 4.701a5.53 5.53 0 015.745 7.724 1.5 1.5 0 00.311 1.667l.584.583 2.29-2.29a8.533 8.533 0 00-7.287-10.673zm13.332 15.683l-2.808 2.808.246.245a1.5 1.5 0 001.666.312 5.533 5.533 0 017.724 5.744l-3.095-3.096a1.5 1.5 0 00-2.122 0l-2.721 2.723a1.5 1.5 0 000 2.12l3.095 3.095a5.53 5.53 0 01-4.401-1.394 5.532 5.532 0 01-1.342-6.33 1.5 1.5 0 00-.311-1.666l-.246-.246-2.809 2.808a8.53 8.53 0 007.467 9.816 8.531 8.531 0 005.139-1.039 1.5 1.5 0 00.326-2.368L26.37 27.19l.6-.6 3.735 3.736A1.5 1.5 0 0033.074 30a8.533 8.533 0 00-8.776-12.606z" fill="#1D252C"/><path d="M15.133 25.025l-3.988-3.988-8.45 8.45 3.988 3.988 8.45-8.45zM29.424 6.742L12.445 23.721" stroke="#1D252C" stroke-width="2.5" stroke-linejoin="round"/><path d="M30.885 10.16L26 5.277l6.106-3.665 2.444 2.443-3.665 6.107z" fill="#1D252C"/></svg>