<svg width="40" height="40" fill="none" xmlns="http://www.w3.org/2000/svg"><g clip-path="url(#clip0_750_2152)"><path d="M13.338 35.001H1.672V1.668h36.666v16.667" stroke="#FCDA01" stroke-width="2.5" stroke-linejoin="round"/><path d="M8.339 8.333a1.667 1.667 0 100-3.333 1.667 1.667 0 000 3.333zm6.656 0a1.667 1.667 0 100-3.333 1.667 1.667 0 000 3.333z" fill="#FCDA01"/><path d="M1.672 11.668h36.666m-.005 18.333s-5 8.334-11.666 8.334C20 38.335 15 30 15 30s5-8.333 11.667-8.333c6.666 0 11.666 8.333 11.666 8.333z" stroke="#FCDA01" stroke-width="2.5" stroke-linejoin="round"/><path d="M26.662 33.335a3.333 3.333 0 100-6.667 3.333 3.333 0 000 6.667z" fill="#FCDA01"/></g><defs><clipPath id="clip0_750_2152"><path fill="#fff" d="M0 0h40v40H0z"/></clipPath></defs></svg>