<svg width="208" height="40" viewBox="0 0 208 40" fill="none" xmlns="http://www.w3.org/2000/svg">
<path d="M206.962 30.3449C206.962 29.9508 206.568 29.7932 206.213 29.7932H205.543V31.7636H205.898V30.9755H206.174L206.607 31.7636H207.041L206.529 30.8966C206.765 30.8572 206.962 30.6208 206.962 30.3843V30.3449ZM205.898 30.6602V30.1085H206.213C206.41 30.1085 206.607 30.1479 206.607 30.3843C206.607 30.6208 206.371 30.6602 206.174 30.6602H205.898ZM206.213 29.0838C205.268 29.1232 204.479 29.9114 204.519 30.8572C204.558 31.803 205.346 32.5912 206.292 32.5518C207.238 32.5124 208.026 31.7242 207.987 30.7784C207.987 29.8326 207.199 29.0444 206.253 29.0444C206.253 29.0444 206.213 29.0444 206.213 29.0838ZM206.213 32.2365C205.386 32.2365 204.716 31.5666 204.716 30.739C204.716 29.9114 205.386 29.2415 206.213 29.2415C207.041 29.2415 207.711 29.9114 207.711 30.739V30.7784C207.711 31.606 207.041 32.2759 206.213 32.2759V32.2365ZM93.5038 29.3597C90.9422 29.3597 89.6417 27.0346 89.6417 24.8277C89.6417 22.6208 91.0604 20.4139 93.3855 20.4139C94.489 20.4139 95.8683 20.9657 96.42 21.7538L99.0998 19.0346C97.5629 17.5765 95.5136 16.7489 93.3855 16.8277C88.6565 16.8277 85.2279 20.2169 85.2279 24.8671C85.2279 29.5962 88.6171 32.9459 93.5038 32.9459C95.7895 32.9459 97.9176 32.2759 99.1787 30.8966L96.5382 28.0592C95.7501 28.8868 94.6466 29.3597 93.5038 29.3597ZM78.3313 32.5124H82.5875V17.2612H78.3707L78.3313 32.5124ZM70.6466 25.6159C70.6466 27.3893 69.4643 29.3203 67.3362 29.3203C65.6416 29.3203 64.7352 28.138 64.7352 25.6553V17.3006H60.5185V26.7587C60.5185 29.9114 62.0948 32.9853 66.3116 32.9853C68.282 32.9853 69.9372 31.409 70.7648 30.2267H70.8436V32.5518H74.8633V17.2612H70.6466V25.6159ZM52.9126 19.1923H52.8337C52.2426 18.5223 50.6268 16.8277 48.0258 16.8277C43.7303 16.8277 40.4199 20.1775 40.4199 24.8277C40.4199 29.5567 43.4938 32.9459 47.8288 32.9459C49.7204 32.9065 51.4544 32.0789 52.7155 30.6602H52.7943V40H56.9717V17.2612H52.952L52.9126 19.1923ZM48.8534 29.3597C46.2524 29.3597 44.7549 27.074 44.7549 24.8277C44.7549 22.6602 46.0948 20.3745 48.8534 20.3745C51.3362 20.3745 52.8731 22.739 52.8731 24.8671C52.8731 26.9952 51.3756 29.3597 48.8534 29.3597ZM144.735 16.8277C139.967 16.8277 136.46 20.1775 136.46 24.8277C136.46 29.6356 140.006 32.9853 144.735 32.9853C149.464 32.9853 153.011 29.5962 153.011 24.8277C153.011 20.1775 149.543 16.8277 144.735 16.8277ZM144.735 29.3597C141.977 29.3597 140.755 26.9952 140.755 24.8277C140.755 22.6602 142.016 20.3745 144.735 20.3745C147.455 20.3745 148.795 22.6602 148.795 24.8277C148.795 26.9952 147.533 29.3597 144.735 29.3597ZM197.386 23.1331C195.218 22.6208 194.43 22.345 194.43 21.4386C194.43 20.2563 196.006 19.9804 196.676 19.9804C197.977 19.9804 199.435 20.7686 200.026 21.478L202.509 19.1134C201.327 17.6947 199.08 16.8672 196.716 16.8672C193.642 16.8672 190.45 18.4041 190.45 21.7932C190.45 24.7489 192.775 25.6159 195.021 26.1676C197.386 26.7193 198.253 27.1134 198.253 28.0986C198.253 29.4779 196.676 29.7144 196.085 29.7144C194.627 29.6356 193.248 29.005 192.263 27.9016L189.701 30.5026C191.08 32.0789 193.484 32.9853 195.928 32.9853C200.066 32.9853 202.509 31.0149 202.509 27.7834C202.509 24.7095 199.514 23.6454 197.386 23.1331ZM189.386 17.2612H183.947L178.509 23.5666H178.43V8.86719H174.213V32.5124H178.43V25.0247H178.509L184.144 32.5124H189.662L183.12 24.1972L189.386 17.2612ZM126.962 16.8672C124.992 16.8672 123.612 17.6553 122.233 18.9164H122.193V8.86719H117.977V32.5124H121.996V30.3449H122.075C123.139 31.9607 124.913 32.9065 126.844 32.9065C131.179 32.9065 134.489 29.5173 134.489 24.8277C134.489 20.1775 131.258 16.8277 126.962 16.8277V16.8672ZM126.134 29.3597C123.573 29.3597 122.075 27.074 122.075 24.8671C122.075 22.6602 123.652 20.3745 126.134 20.3745C128.854 20.3745 130.193 22.6602 130.193 24.8277C130.193 27.074 128.735 29.3597 126.134 29.3597ZM116.4 17.2612H110.962L105.523 23.5666H105.445V8.86719H101.228V32.5124H105.445V25.0247H105.523L111.159 32.5124H116.676L110.174 24.1972L116.4 17.2612ZM163.218 16.8672C158.41 16.8672 154.942 20.2169 154.942 24.8277C154.942 29.6356 158.489 32.9853 163.218 32.9853C167.947 32.9853 171.494 29.5962 171.494 24.8277C171.494 20.1775 167.987 16.8277 163.218 16.8277V16.8672ZM163.218 29.3597C160.46 29.3597 159.198 26.9952 159.198 24.8277C159.198 22.6602 160.46 20.3745 163.218 20.3745C165.977 20.3745 167.198 22.6602 167.198 24.8277C167.198 26.9952 165.937 29.3597 163.218 29.3597Z" fill="black"/>
<path d="M17.9586 35.4678C27.7529 35.4678 35.6927 27.5281 35.6927 17.7339C35.6927 7.93974 27.7529 0 17.9586 0C8.1644 0 0.224609 7.93974 0.224609 17.7339C0.224609 27.5281 8.1644 35.4678 17.9586 35.4678Z" fill="#2CA01C"/>
<path d="M5.15234 17.734C5.15234 21.5566 8.22624 24.6305 12.0489 24.6305H13.0341V22.0689H12.0489C9.64496 22.0689 7.71393 20.1379 7.71393 17.734C7.71393 15.33 9.64496 13.399 12.0489 13.399H14.4134V26.798C14.4134 28.2167 15.5563 29.3595 16.975 29.3595V10.8374H12.0489C8.22624 10.8374 5.15234 13.9113 5.15234 17.734ZM23.8716 10.8374H22.8864V13.399H23.8716C26.2755 13.399 28.2066 15.33 28.2066 17.734C28.2066 20.1379 26.2755 22.0689 23.8716 22.0689H21.5071V8.66996C21.5071 7.25125 20.3642 6.1084 18.9455 6.1084V24.6305H23.8716C27.6943 24.6305 30.7682 21.5566 30.7682 17.734C30.7682 13.9113 27.6943 10.8374 23.8716 10.8374Z" fill="white"/>
<path d="M57.7603 4.05921C58.4303 4.05921 58.9426 3.54689 58.9426 2.87694C58.9426 2.207 58.4303 1.69468 57.7603 1.69468C57.0904 1.69468 56.5781 2.207 56.5781 2.87694C56.5781 3.54689 57.0904 4.05921 57.7603 4.05921ZM50.785 4.84738C49.7997 4.84738 48.8539 5.3991 48.4204 6.3055H48.3416V5.04442H46.5288V12.8079H48.4598V8.55179C48.4598 7.52717 49.051 6.46313 50.2726 6.46313C51.4943 6.46313 51.7308 7.60599 51.7308 8.51239V12.8473H53.6618V7.92126C53.6618 6.34491 52.8342 4.76856 50.785 4.76856V4.84738ZM42.5879 12.8079H44.5583V5.04442H42.5879V12.8079ZM77.8589 4.01979C78.5289 4.01979 79.0412 3.50748 79.0412 2.83753C79.0412 2.16759 78.5289 1.65527 77.8589 1.65527C77.1889 1.65527 76.6766 2.16759 76.6766 2.83753C76.6766 3.50748 77.1889 4.01979 77.8589 4.01979ZM74.7062 5.04442V6.7784H76.8737V12.8079H78.8441V6.7784H81.0116V5.04442H74.7062ZM71.3958 12.8079H73.3663V5.04442H71.3958V12.8079ZM54.647 6.7784H56.8145V12.8079H58.785V6.7784H60.9525V5.04442H54.647V6.7784ZM67.4943 9.33997C67.4943 10.3646 66.9032 11.4286 65.6815 11.4286C64.4599 11.4286 64.2234 10.2464 64.2234 9.33997V5.04442H62.253V9.89169C62.253 11.468 63.12 13.0444 65.1298 13.0444C66.1544 13.0444 67.0608 12.4927 67.5338 11.5863H67.5732V12.8473H69.4254V5.04442H67.4549L67.4943 9.33997Z" fill="black"/>
</svg>
