<svg width="129" height="36" viewBox="0 0 129 36" fill="none" xmlns="http://www.w3.org/2000/svg">
<g clip-path="url(#clip0_2455_8967)">
<path d="M117.58 28.7993H121.14V5.90971H117.58V28.7993ZM124.699 5.90845V9.33684H128.259V5.90845H124.699ZM124.699 28.7993H128.259V12.7652H124.699V28.7993ZM92.0274 9.3381H95.5877V5.90971H92.0274V9.3381ZM92.0274 28.8006H95.5877V12.7652H92.0274V28.7993V28.8006ZM71.7246 17.5476C71.7246 11.005 67.892 5.90971 61.0085 5.90971C54.1249 5.90971 50.291 11.005 50.291 17.5476C50.291 23.4807 53.4441 28.2239 59.1653 29.0554V29.376C59.1653 32.3286 61.5569 34.7211 64.5057 34.7211H69.8449V31.1577H62.7256V29.0719C68.5249 28.2908 71.7246 23.5236 71.7246 17.5476ZM61.2064 25.757H60.8093C55.9252 25.757 54.1249 21.9829 54.1249 17.5476C54.1249 13.1122 55.9252 9.33936 60.8093 9.3381H61.2064C66.0904 9.3381 67.8908 13.1122 67.8908 17.5476C67.8908 21.9829 66.0904 25.757 61.2064 25.757ZM84.9068 21.7621C84.9068 24.0561 83.9259 26.0081 81.3465 26.0081C78.7671 26.0081 77.7862 24.0561 77.7862 21.7621V12.7652H74.2259V22.2353C74.2259 26.7879 76.3351 29.1829 80.3266 29.1829C82.6299 29.1829 83.9713 28.1709 84.7101 27.0138H85.3014V28.8119H88.4658V12.7778H84.9055V21.7608L84.9068 21.7621ZM107.94 12.3829C105.94 12.3829 104.333 13.111 103.166 14.3324H102.572V12.7665H99.1467V36.0006H102.707V27.2599H103.166C104.335 28.4826 105.941 29.2094 107.94 29.2094C112.445 29.2094 114.954 25.5261 114.954 20.7955C114.954 16.0649 112.445 12.3816 107.94 12.3816V12.3829ZM107.002 26.1898C103.815 26.1898 102.602 23.7103 102.602 20.7955C102.602 17.8807 103.814 15.4012 107.002 15.4012C110.191 15.4012 111.402 17.8807 111.402 20.7955C111.402 23.7103 110.191 26.1898 107.002 26.1898Z" fill="#1D252C"/>
<path d="M42.0944 28.8H37.0364C36.4464 28.8 35.9685 28.3218 35.9685 27.7312V8.26877C35.9685 7.67823 35.4907 7.2 34.9007 7.2H29.8427C29.2527 7.2 28.7748 6.72177 28.7748 6.13123V1.06877C28.7748 0.478234 28.297 0 27.707 0H8.26154C7.67152 0 7.19371 0.478234 7.19371 1.06877V6.13123C7.19371 6.72177 6.71589 7.2 6.12587 7.2H1.06784C0.477816 7.2 0 7.67823 0 8.26877V27.7312C0 28.3218 0.477816 28.8 1.06784 28.8H6.12587C6.71589 28.8 7.19371 29.2782 7.19371 29.8688V34.9312C7.19371 35.5218 7.67152 36 8.26154 36H27.707C28.297 36 28.7748 35.5218 28.7748 34.9312V29.8688C28.7748 29.2782 29.2527 28.8 29.8427 28.8H34.9007C35.4907 28.8 35.9685 29.2782 35.9685 29.8688V34.9312C35.9685 35.5218 36.4464 36 37.0364 36H42.0944C42.6844 36 43.1623 35.5218 43.1623 34.9312V29.8688C43.1623 29.2782 42.6844 28.8 42.0944 28.8ZM27.707 28.8H8.26154C7.67152 28.8 7.19371 28.3218 7.19371 27.7312V8.26877C7.19371 7.67823 7.67152 7.2 8.26154 7.2H27.707C28.297 7.2 28.7748 7.67823 28.7748 8.26877V27.7312C28.7748 28.3218 28.297 28.8 27.707 28.8Z" fill="#1D252C"/>
</g>
<defs>
<clipPath id="clip0_2455_8967">
<rect width="128.25" height="36" fill="white"/>
</clipPath>
</defs>
</svg>
