<svg width="104" height="20" fill="none" xmlns="http://www.w3.org/2000/svg"><path d="M8.926 3.09c.354-1.018 1.794-1.018 2.148 0l1.017 2.926c.157.45.576.754 1.051.764l3.098.063c1.078.022 1.523 1.392.663 2.043l-2.468 1.872c-.38.287-.54.78-.402 1.236l.897 2.965c.313 1.032-.853 1.878-1.738 1.262l-2.542-1.769a1.137 1.137 0 00-1.3 0l-2.542 1.77c-.885.615-2.05-.231-1.738-1.263l.897-2.966a1.137 1.137 0 00-.402-1.235L3.097 8.886c-.86-.651-.414-2.02.664-2.043l3.097-.063c.475-.01.895-.314 1.05-.764L8.927 3.09zm21 0c.354-1.018 1.794-1.018 2.148 0l1.017 2.926c.157.45.576.754 1.051.764l3.097.063c1.079.022 1.524 1.392.664 2.043l-2.468 1.872c-.38.287-.54.78-.402 1.236l.897 2.965c.313 1.032-.853 1.878-1.738 1.262l-2.542-1.769a1.137 1.137 0 00-1.3 0l-2.542 1.77c-.885.615-2.05-.231-1.738-1.263l.897-2.966a1.137 1.137 0 00-.402-1.235l-2.468-1.872c-.86-.651-.415-2.02.663-2.043l3.098-.063c.475-.01.895-.314 1.05-.764l1.018-2.926zm42 0c.354-1.018 1.794-1.018 2.148 0l1.017 2.926c.157.45.576.754 1.051.764l3.098.063c1.078.022 1.523 1.392.663 2.043l-2.468 1.872c-.38.287-.54.78-.402 1.236l.897 2.965c.313 1.032-.853 1.878-1.738 1.262l-2.542-1.769a1.137 1.137 0 00-1.3 0l-2.542 1.77c-.885.615-2.05-.231-1.738-1.263l.897-2.966a1.137 1.137 0 00-.402-1.235l-2.468-1.872c-.86-.651-.414-2.02.663-2.043l3.098-.063c.475-.01.894-.314 1.05-.764l1.018-2.926zm-21 0c.354-1.018 1.794-1.018 2.148 0l1.017 2.926c.157.45.576.754 1.051.764l3.097.063c1.079.022 1.524 1.392.664 2.043l-2.468 1.872c-.38.287-.54.78-.402 1.236l.897 2.965c.313 1.032-.853 1.878-1.738 1.262l-2.542-1.769a1.137 1.137 0 00-1.3 0l-2.542 1.77c-.885.615-2.05-.231-1.738-1.263l.897-2.966a1.137 1.137 0 00-.402-1.235l-2.468-1.872c-.86-.651-.415-2.02.663-2.043l3.098-.063c.475-.01.895-.314 1.05-.764l1.018-2.926zm42 0c.354-1.018 1.794-1.018 2.148 0l1.017 2.926c.157.45.576.754 1.051.764l3.097.063c1.079.022 1.524 1.392.664 2.043l-2.468 1.872c-.38.287-.54.78-.402 1.236l.897 2.965c.313 1.032-.853 1.878-1.738 1.262l-2.542-1.769a1.137 1.137 0 00-1.3 0l-2.542 1.77c-.885.615-2.05-.231-1.738-1.263l.897-2.966a1.137 1.137 0 00-.402-1.235l-2.468-1.872c-.86-.651-.414-2.02.663-2.043l3.098-.063c.475-.01.894-.314 1.05-.764l1.018-2.926z" fill="#fff"/></svg>