<svg width="78" height="26" viewBox="0 0 78 26" fill="none" xmlns="http://www.w3.org/2000/svg">
<path d="M10.715 7.36798L7.67497 16.328H14.299L11.163 7.36798L10.939 6.11998L10.715 7.36798ZM17.339 25L15.547 19.88H6.49097L4.76297 25H0.474976L8.76297 2.18398H13.115L21.595 25H17.339ZM27.772 25H23.58V0.359985H27.772V25ZM48.952 19.56C48.419 21.416 47.406 22.8667 45.912 23.912C44.44 24.9573 42.499 25.48 40.088 25.48C36.995 25.48 34.68 24.648 33.144 22.984C31.608 21.2987 30.84 19.0373 30.84 16.2V15.752C30.84 14.7707 30.936 13.864 31.128 13.032C31.32 12.1787 31.608 11.3893 31.992 10.664C32.76 9.23469 33.838 8.12528 35.224 7.33598C36.632 6.54668 38.296 6.15199 40.216 6.15199C41.795 6.15199 43.15 6.40798 44.28 6.91998C45.432 7.43198 46.371 8.12528 47.096 8.99998C47.822 9.87468 48.355 10.8667 48.696 11.976C49.038 13.0853 49.208 14.2267 49.208 15.4V17.352H35C35.171 18.8453 35.704 19.9973 36.6 20.808C37.518 21.6187 38.734 22.024 40.248 22.024C41.358 22.024 42.254 21.8107 42.936 21.384C43.619 20.9573 44.12 20.3493 44.44 19.56H48.952ZM40.248 9.47999C38.798 9.47999 37.624 9.88528 36.728 10.696C35.832 11.4853 35.267 12.6053 35.032 14.056H45.016C44.867 12.648 44.398 11.5387 43.608 10.728C42.84 9.89598 41.72 9.47999 40.248 9.47999ZM56.457 25H52.329V6.59998H55.721L56.265 10.92C56.627 9.40528 57.299 8.28529 58.281 7.55999C59.283 6.81329 60.649 6.43998 62.377 6.43998H63.625V10.696H61.801C61.075 10.696 60.435 10.7493 59.881 10.856C59.326 10.9413 58.857 11.08 58.473 11.272C57.705 11.6347 57.171 12.2427 56.873 13.096C56.595 13.928 56.457 15.0587 56.457 16.488V25ZM77.918 21.096V25H75.55C74.697 25 73.929 24.9467 73.246 24.84C72.585 24.712 72.03 24.5413 71.582 24.328C70.665 23.8587 70.025 23.0907 69.662 22.024C69.321 20.9573 69.15 19.496 69.15 17.64V10.312H65.566V6.75998H67.198C67.497 6.75998 67.753 6.74929 67.966 6.72799C68.18 6.68529 68.361 6.63199 68.51 6.56799C68.809 6.41869 69.022 6.15199 69.15 5.76799C69.278 5.38399 69.364 4.81868 69.406 4.07198C69.428 3.66668 69.438 3.22928 69.438 2.75998C69.46 2.29068 69.47 1.91728 69.47 1.63998H73.054V6.59998H77.918V10.312H73.054V16.936C73.054 17.5333 73.076 18.0667 73.118 18.536C73.161 18.984 73.225 19.3573 73.31 19.656C73.46 20.2533 73.79 20.648 74.302 20.84C74.814 21.0107 75.582 21.096 76.606 21.096H77.918Z" fill="#1D252C"/>
</svg>
