<svg width="197" height="82" viewBox="0 0 197 82" fill="none" xmlns="http://www.w3.org/2000/svg">
<g clip-path="url(#clip0_1662_1801)">
<path d="M39.783 49.5196C39.783 49.5196 38.2214 47.5888 37.2977 46.5457L36 49.6305C37.8695 52.4269 39.1012 54.846 39.783 56C41.1026 53.7363 44.3358 47.0339 51 40.7533L50.2522 39C45.9194 42.2402 42.2243 46.3681 39.783 49.5196Z" fill="#747474"/>
<path fill-rule="evenodd" clip-rule="evenodd" d="M106.114 49.7283C106.114 51.5024 107.143 52.4223 108.787 52.6851V57C103.879 56.9343 101.271 54.5688 101.271 50.0787V25H106.114V49.7283ZM121.32 34.3306C115.251 34.3306 110.452 39.3025 110.452 45.5886C110.452 51.8747 115.097 56.8467 120.904 56.8467C123.862 56.8467 126.228 55.7296 127.63 54.1088L127.893 54.1964V56.4086H132.757V34.7687H127.893V36.2799L127.674 36.3676C126.206 35.1629 124.212 34.3306 121.32 34.3306ZM121.911 52.7947C118.274 52.7947 115.272 49.6407 115.272 45.6105C115.272 41.5366 118.274 38.4264 121.911 38.4264C124.3 38.4264 126.381 39.1273 127.849 40.2444V49.5092C126.6 51.8747 124.344 52.7947 121.911 52.7947ZM136.767 56.4743H141.609V41.3176C143.121 39.7625 145.247 38.755 147.723 38.755H148.752V34.3306H148.139C145.488 34.3306 143.275 35.5791 141.85 37.3094L141.588 37.2218V34.7687H136.745V56.4743H136.767ZM85.8898 34.3306C79.8204 34.3306 75 39.3244 75 45.5886C75 51.8747 79.6451 56.8467 85.4515 56.8467C88.3876 56.8467 90.7759 55.7296 92.1782 54.1088L92.4412 54.1964V56.4086H97.3054V34.7687H92.4412V36.2799L92.222 36.3676C90.7759 35.1629 88.782 34.3306 85.8898 34.3306ZM86.4814 52.7947C82.8441 52.7947 79.8423 49.6407 79.8423 45.6105C79.8423 41.5366 82.8222 38.4264 86.4814 38.4264C88.8697 38.4264 90.9512 39.1273 92.4192 40.2444V49.5092C91.1703 51.8747 88.9135 52.7947 86.4814 52.7947ZM160.562 34.3306C154.493 34.3306 149.695 39.3025 149.695 45.5886C149.695 51.8747 154.34 56.8467 160.146 56.8467C163.082 56.8467 165.471 55.7296 166.873 54.1088L167.136 54.1964V56.4086H172V34.7687H167.136V36.2799L166.917 36.3676C165.449 35.1629 163.455 34.3306 160.562 34.3306ZM161.154 52.7947C157.517 52.7947 154.537 49.6407 154.537 45.6105C154.537 41.5366 157.517 38.4264 161.154 38.4264C163.542 38.4264 165.624 39.1273 167.092 40.2444V49.5092C165.843 51.8747 163.586 52.7947 161.154 52.7947Z" fill="#747474"/>
<path d="M49.7313 56H55.0245L50.3682 44.9565C49.0065 46.3913 47.8424 47.8043 46.8101 49.1522L49.7313 56ZM70.7726 34.5652L63.9858 50.2826H63.7222L56.9354 34.5652H51.686L61.3721 56H66.314L76 34.5652H70.7726ZM42.3295 26H37.6731L25 56H30.2933L39.4522 34.6087L39.8915 33.4565H40.1331L40.5724 34.6087L43.2959 40.9565C44.5039 39.7609 45.8217 38.587 47.2054 37.4783L42.3295 26Z" fill="#747474"/>
</g>
<defs>
<clipPath id="clip0_1662_1801">
<rect width="147" height="32" fill="white" transform="translate(25 25)"/>
</clipPath>
</defs>
</svg>
