<svg width="160" height="224" fill="none" xmlns="http://www.w3.org/2000/svg"><path d="M87.425 157.878h92.951c10.843 0 19.624-8.893 19.624-19.873V43.873C200 32.893 191.219 24 180.376 24H87.425C76.582 24 67.8 32.892 67.8 43.873v94.132c0 10.98-8.78 19.873-19.624 19.873H11.893C5.324 157.878 0 163.202 0 169.77v42.337C0 218.676 5.324 224 11.893 224h44.015c6.569 0 11.893-5.324 11.893-11.893V177.75c0-10.98 8.78-19.872 19.624-19.872z" fill="#9FA0A1"/><path d="M87.425 157.878h92.951c10.843 0 19.624-8.893 19.624-19.873V43.873C200 32.893 191.219 24 180.376 24H87.425C76.582 24 67.8 32.892 67.8 43.873v94.132c0 10.98-8.78 19.873-19.624 19.873H11.893C5.324 157.878 0 163.202 0 169.77v42.337C0 218.676 5.324 224 11.893 224h44.015c6.569 0 11.893-5.324 11.893-11.893V177.75c0-10.98 8.78-19.872 19.624-19.872zM160 0c0 13.255-10.745 24-24 24h24V0z" fill="#fff"/><path d="M160 181c0-13.255-10.745-24-24-24h24v24z" fill="#fff"/></svg>