<svg width="160" height="224" fill="none" xmlns="http://www.w3.org/2000/svg"><g clip-path="url(#clip0_1235_170)"><path d="M72.575 157.878h-92.951c-10.843 0-19.624-8.893-19.624-19.873V43.873C-40 32.893-31.22 24-20.376 24h92.951C83.418 24 92.2 32.892 92.2 43.873v94.132c0 10.98 8.781 19.873 19.624 19.873h36.284c6.569 0 11.893 5.324 11.893 11.892v42.337c0 6.569-5.324 11.893-11.893 11.893h-44.015c-6.569 0-11.893-5.324-11.893-11.893V177.75c0-10.98-8.78-19.872-19.624-19.872z" fill="#9FA0A1"/><path d="M72.575 157.878h-92.951c-10.843 0-19.624-8.893-19.624-19.873V43.873C-40 32.893-31.22 24-20.376 24h92.951C83.418 24 92.2 32.892 92.2 43.873v94.132c0 10.98 8.781 19.873 19.624 19.873h36.284c6.569 0 11.893 5.324 11.893 11.892v42.337c0 6.569-5.324 11.893-11.893 11.893h-44.015c-6.569 0-11.893-5.324-11.893-11.893V177.75c0-10.98-8.78-19.872-19.624-19.872zM0 0c0 13.255 10.745 24 24 24H0V0z" fill="#fff"/><path d="M0 181c0-13.255 10.745-24 24-24H0v24z" fill="#fff"/></g><defs><clipPath id="clip0_1235_170"><path fill="#fff" d="M0 0h160v224H0z"/></clipPath></defs></svg>