<svg width="104" height="24" fill="none" xmlns="http://www.w3.org/2000/svg"><path d="M.617 8.862l9.373.002h5.699V3.2L.617 8.862z" fill="#fff"/><path d="M15.688 3.199v20L22.806.524 15.687 3.2z" fill="#fff"/><path d="M15.687 8.864H9.988l5.7 14.336V8.864z" fill="#fff"/><path d="M.617 8.861l10.834 3.68L9.99 8.864.617 8.861zm34.523 9.074c-.083.083-.22.186-.413.31a4.521 4.521 0 01-.753.373c-.31.125-.689.231-1.136.322-.447.09-.96.134-1.538.134-1.115 0-2.078-.18-2.89-.538a5.382 5.382 0 01-2.013-1.502c-.53-.642-.918-1.402-1.166-2.279-.248-.877-.372-1.84-.372-2.89 0-1.049.134-2.019.403-2.91.268-.89.67-1.66 1.207-2.31a5.552 5.552 0 012.013-1.522c.806-.366 1.752-.549 2.839-.549.537 0 1.022.049 1.455.145.434.097.812.21 1.136.342a4.434 4.434 0 011.29.777c.124.11.23.242.32.393.09.152.134.318.134.497 0 .277-.103.553-.31.829a5.98 5.98 0 01-.68.766 8.414 8.414 0 00-.558-.507 3.772 3.772 0 00-.692-.456 4.577 4.577 0 00-.867-.331 4.055 4.055 0 00-1.084-.135c-.701 0-1.29.142-1.765.425a3.392 3.392 0 00-1.145 1.108 4.709 4.709 0 00-.62 1.564 9.11 9.11 0 000 3.656c.124.594.337 1.119.64 1.574a3.43 3.43 0 001.187 1.098c.489.277 1.098.414 1.827.414a3.7 3.7 0 001.064-.145 4.25 4.25 0 001.507-.787c.185-.152.34-.283.464-.393.083.097.179.214.289.352.11.14.214.284.31.435.096.152.178.304.247.455.07.153.104.29.104.415a.93.93 0 01-.104.455 1.966 1.966 0 01-.33.415zm10.639-1.589c0 1.098.159 1.897.477 2.397a3.534 3.534 0 01-1.37.27c-.499 0-.876-.097-1.132-.291-.256-.195-.42-.472-.488-.834-.305.32-.706.59-1.205.813-.498.222-1.108.334-1.827.334-.374 0-.748-.053-1.122-.156a2.943 2.943 0 01-1.018-.509 2.64 2.64 0 01-.747-.945c-.194-.395-.291-.876-.291-1.444 0-.706.17-1.281.509-1.724a3.64 3.64 0 011.277-1.05 5.768 5.768 0 011.662-.529 15.784 15.784 0 012.128-.208h.447v-.379c0-.534-.142-.913-.426-1.138-.284-.225-.744-.337-1.381-.337-.595 0-1.125.097-1.589.291-.464.195-.917.417-1.36.667a3.06 3.06 0 01-.467-.781c-.118-.285-.177-.497-.177-.636 0-.194.107-.382.322-.563.215-.18.509-.343.883-.49a7.176 7.176 0 011.287-.353c.485-.09.997-.136 1.537-.136.748 0 1.381.077 1.9.23.52.152.942.388 1.267.708.326.32.558.719.696 1.198.138.48.208 1.039.208 1.678v3.917zM43.12 13.93h-.29a2.07 2.07 0 00-.291.02c-.346.029-.69.07-1.028.126-.34.055-.64.153-.904.292-.263.139-.477.32-.643.541-.167.223-.25.508-.25.855 0 .389.111.719.333.99.22.27.595.406 1.121.406a2.615 2.615 0 001.371-.375 1.61 1.61 0 00.426-.365c.103-.132.155-.253.155-.364V13.93zm7.83-4.105c.22-.264.566-.532 1.035-.803.47-.27 1.063-.406 1.78-.406.511 0 .998.087 1.46.26a3.21 3.21 0 011.232.844c.359.39.645.904.86 1.543.213.639.32 1.424.32 2.354 0 1.084-.124 1.977-.372 2.678-.249.702-.57 1.258-.963 1.667-.393.41-.832.698-1.315.865a4.41 4.41 0 01-1.449.25c-.4 0-.749-.045-1.045-.135a4.178 4.178 0 01-.756-.302 2.005 2.005 0 01-.683-.563v5.122h-2.825V8.907a4.991 4.991 0 01.544-.073c.112-.007.245-.01.398-.01.46 0 .85.076 1.172.229.32.153.523.41.607.77zm3.738 3.855c0-.417-.034-.806-.103-1.167a2.842 2.842 0 00-.34-.938 1.66 1.66 0 00-.641-.615c-.269-.146-.596-.218-.98-.218-.579 0-.982.111-1.209.333-.227.222-.34.466-.34.73v4.417c.11.112.305.243.588.396.282.153.609.23.98.23.703 0 1.22-.278 1.55-.834.33-.556.495-1.334.495-2.334zm5.13 3.584a3.631 3.631 0 01-.188-.875 10.075 10.075 0 01-.041-.917V5.8l.311-.041a5.235 5.235 0 01.644-.041c.221 0 .443.02.665.062.221.042.422.125.602.25s.325.295.436.51c.11.216.166.497.166.844v1.48h2.908v2.105h-2.908v4.444c0 .969.395 1.453 1.184 1.453.194 0 .377-.031.55-.094.173-.062.33-.131.468-.208a2.946 2.946 0 00.581-.427c.208.306.367.57.478.794.11.224.166.433.166.63 0 .182-.072.36-.218.536a2.15 2.15 0 01-.613.484 3.802 3.802 0 01-.955.357 5.16 5.16 0 01-1.225.137c-.859 0-1.527-.166-2.005-.5a2.659 2.659 0 01-1.007-1.313zm12.657-.27a3.305 3.305 0 001.625-.397c.208-.11.39-.232.542-.364.153-.132.292-.254.417-.365.166.208.34.476.52.802.181.327.272.594.272.802 0 .306-.173.584-.52.834-.29.223-.702.414-1.235.573-.533.16-1.16.24-1.88.24a7.47 7.47 0 01-1.92-.25 4.243 4.243 0 01-1.683-.876c-.492-.416-.89-.975-1.194-1.677-.305-.702-.457-1.587-.457-2.657 0-.875.135-1.629.405-2.261a4.54 4.54 0 011.08-1.573c.45-.417.959-.722 1.526-.917a5.351 5.351 0 011.745-.292c.775 0 1.433.122 1.973.365s.98.57 1.319.98c.339.409.584.878.737 1.406.152.528.228 1.083.228 1.667v.292c0 .111-.003.229-.01.354l-.02.364a2.262 2.262 0 01-.032.282h-6.126c.055.764.291 1.4.708 1.907.416.507 1.076.76 1.98.76zm.946-4.231c0-.667-.129-1.209-.387-1.626-.257-.416-.72-.625-1.389-.625-.57 0-1.027.198-1.368.594-.341.396-.511.948-.511 1.657h3.655zm7.47-2.886a3.59 3.59 0 01.332-.413 2.36 2.36 0 01.509-.414c.2-.124.422-.227.665-.31.241-.083.501-.124.778-.124.166 0 .343.014.53.041.187.028.36.08.519.155.16.076.287.18.384.31a.794.794 0 01.146.486c0 .303-.077.651-.229 1.044a8.538 8.538 0 01-.457 1.007 3.08 3.08 0 00-.706-.448 2.041 2.041 0 00-.83-.157c-.43 0-.79.126-1.08.376-.291.251-.437.55-.437.899v6.746h-2.824V8.907a4.968 4.968 0 01.54-.073c.11-.007.242-.01.394-.01.443 0 .828.086 1.153.258.325.171.53.437.613.794zm8.03 0c.083-.124.194-.261.332-.413a2.35 2.35 0 01.51-.414c.2-.124.421-.227.664-.31.242-.083.502-.124.779-.124.166 0 .342.014.53.041.186.028.36.08.518.155.16.076.287.18.385.31a.794.794 0 01.145.486c0 .303-.076.651-.228 1.044a8.57 8.57 0 01-.457 1.007 3.076 3.076 0 00-.707-.448 2.04 2.04 0 00-.83-.157c-.43 0-.79.126-1.08.376-.29.251-.436.55-.436.899v6.746H86.22V8.907a4.96 4.96 0 01.54-.073c.11-.007.242-.01.395-.01.443 0 .827.086 1.152.258.326.171.53.437.613.794zm13.479 6.47c0 1.098.159 1.897.478 2.397-.25.097-.482.166-.696.208a3.54 3.54 0 01-.675.063c-.499 0-.876-.098-1.132-.292-.256-.195-.419-.472-.488-.834-.305.32-.706.59-1.204.813-.499.222-1.108.334-1.828.334-.374 0-.748-.053-1.122-.156a2.942 2.942 0 01-1.017-.509 2.64 2.64 0 01-.748-.945c-.194-.395-.29-.876-.29-1.444 0-.706.169-1.281.508-1.724a3.624 3.624 0 011.277-1.05 5.767 5.767 0 011.662-.529 15.786 15.786 0 012.129-.208h.446v-.379c0-.534-.142-.913-.426-1.138-.284-.225-.744-.337-1.38-.337-.596 0-1.126.097-1.59.291-.463.195-.917.417-1.36.667a3.063 3.063 0 01-.467-.781c-.118-.285-.177-.497-.177-.636 0-.194.107-.382.322-.563.215-.18.51-.343.883-.49a7.177 7.177 0 011.288-.353c.484-.09.996-.136 1.536-.136.748 0 1.382.077 1.901.23.519.152.941.388 1.267.708.325.32.557.719.695 1.198.138.48.208 1.039.208 1.678v3.917zm-2.658-2.417h-.291a2.07 2.07 0 00-.29.02c-.347.029-.69.07-1.029.126a2.94 2.94 0 00-.903.292c-.263.139-.478.32-.644.541-.166.223-.25.508-.25.855 0 .389.111.719.333.99.221.27.595.406 1.121.406.263 0 .513-.034.748-.104.235-.07.443-.16.623-.271a1.61 1.61 0 00.426-.365c.104-.132.156-.253.156-.364V13.93z" fill="#fff"/></svg>