<svg width="44" height="44" viewBox="0 0 44 44" fill="none" xmlns="http://www.w3.org/2000/svg">
<path d="M42.1693 3.66663H1.83594V40.3333H42.1693V3.66663Z" stroke="#1D252C" stroke-width="3.42857" stroke-miterlimit="10" stroke-linejoin="round"/>
<path d="M9.16927 11C10.1818 11 11.0026 10.1792 11.0026 9.16671C11.0026 8.15419 10.1818 7.33337 9.16927 7.33337C8.15676 7.33337 7.33594 8.15419 7.33594 9.16671C7.33594 10.1792 8.15676 11 9.16927 11Z" fill="#1D252C"/>
<path d="M16.4974 11C17.5099 11 18.3307 10.1792 18.3307 9.16671C18.3307 8.15419 17.5099 7.33337 16.4974 7.33337C15.4849 7.33337 14.6641 8.15419 14.6641 9.16671C14.6641 10.1792 15.4849 11 16.4974 11Z" fill="#1D252C"/>
<path d="M1.83594 14.6666H42.1693" stroke="#1D252C" stroke-width="3.42857" stroke-miterlimit="10" stroke-linejoin="round"/>
<path d="M13.1953 28.4167L18.6953 33.9167L31.5286 21.0834" stroke="#1D252C" stroke-width="3.42857" stroke-miterlimit="10" stroke-linejoin="round"/>
</svg>
