<svg width="197" height="82" viewBox="0 0 197 82" fill="none" xmlns="http://www.w3.org/2000/svg">
<g clip-path="url(#clip0_1662_1810)">
<path d="M98.5 71C115.068 71 128.5 57.5684 128.5 41C128.5 24.4316 115.068 11 98.5 11C81.9316 11 68.5 24.4316 68.5 41C68.5 57.5684 81.9316 71 98.5 71Z" fill="#747474"/>
<path d="M76.5005 40.4998C76.5005 43.5678 77.7202 46.5101 79.8913 48.6795C82.0624 50.8489 85.007 52.0676 88.0774 52.0676H89.7309V47.7708H88.0774C87.1169 47.7784 86.1643 47.596 85.2747 47.234C84.3851 46.8721 83.576 46.3377 82.8941 45.6617C82.2122 44.9858 81.6709 44.1816 81.3016 43.2956C80.9322 42.4096 80.7421 41.4593 80.7421 40.4995C80.7421 39.5397 80.9322 38.5894 81.3016 37.7034C81.6709 36.8175 82.2122 36.0133 82.8941 35.3373C83.576 34.6614 84.3851 34.127 85.2747 33.765C86.1643 33.403 87.1169 33.2206 88.0774 33.2283H92.0464V55.7031C92.0468 56.8425 92.4999 57.9352 93.3062 58.7409C94.1124 59.5466 95.2059 59.9995 96.3462 60V28.9319H88.0774C86.557 28.9318 85.0516 29.231 83.6469 29.8123C82.2423 30.3936 80.966 31.2457 79.891 32.3199C78.8159 33.3941 77.9631 34.6693 77.3813 36.0728C76.7995 37.4763 76.5005 38.9806 76.5005 40.4998ZM107.923 28.9319H106.27V33.2288H107.923C109.839 33.2504 111.669 34.026 113.016 35.3872C114.363 36.7484 115.118 38.5855 115.118 40.4998C115.118 42.414 114.363 44.2511 113.016 45.6123C111.669 46.9735 109.839 47.7491 107.923 47.7708H103.954V25.2969C103.954 24.7326 103.843 24.1739 103.627 23.6526C103.411 23.1312 103.094 22.6576 102.695 22.2586C102.296 21.8595 101.822 21.543 101.3 21.3271C100.778 21.1111 100.219 21 99.6543 21V52.0681H107.923C110.993 52.0681 113.938 50.8493 116.109 48.6799C118.28 46.5106 119.5 43.5682 119.5 40.5002C119.5 37.4322 118.28 34.4899 116.109 32.3205C113.938 30.1511 110.993 28.9319 107.923 28.9319Z" fill="white"/>
</g>
<defs>
<clipPath id="clip0_1662_1810">
<rect width="60" height="60" fill="white" transform="translate(68.5 11)"/>
</clipPath>
</defs>
</svg>
