<svg width="125" height="40" viewBox="0 0 125 40" fill="none" xmlns="http://www.w3.org/2000/svg">
<path fill-rule="evenodd" clip-rule="evenodd" d="M15.8398 33.3914C16.7285 33.6081 17.5101 33.5758 18.2674 33.3487C21.6715 32.3262 22.4046 30.9268 26.4795 30.7908C27.4594 30.7585 29.0548 30.9602 29.8455 31.2634C30.0968 31.3591 30.5787 31.3821 30.5787 31.0121V27.1343C30.5729 26.2939 29.645 26.1107 27.8202 26.0184C23.1285 25.7844 21.1793 27.6334 17.8213 28.287C17.3268 28.3839 16.4542 28.3954 15.8386 28.2559C15.7037 28.2409 15.6473 28.3147 15.6576 28.4507V33.2092C15.6576 33.3314 15.7187 33.3614 15.8386 33.3902L15.8398 33.3914ZM15.8398 23.517C16.7285 23.7349 17.5101 23.7026 18.2674 23.4744C21.6715 22.4519 22.4046 21.0536 26.4795 20.9164C27.4594 20.883 29.0548 21.0859 29.8455 21.389C30.0968 21.4847 30.5787 21.5078 30.5787 21.1389V17.2611C30.5729 16.4207 29.6058 16.2098 27.7833 16.1187C23.0905 15.8836 21.1804 17.7614 17.8225 18.415C17.328 18.5118 16.4553 18.5233 15.8398 18.3827C15.7061 18.3677 15.6484 18.4415 15.6588 18.5775V23.336C15.6588 23.4582 15.7199 23.4882 15.8398 23.5182V23.517ZM9.83401 32.8588C10.7389 32.4519 12.136 33.3741 12.649 33.7971C13.1401 34.2006 13.8455 34.0415 13.8455 33.0271V8.54063C13.8455 8.01729 13.4674 7.81787 12.9764 8.03228C12.1176 8.40692 10.8023 7.76254 10.2939 7.38098C9.70836 6.93948 9.1147 7.16311 9.1147 8.31354V32.4692C9.1147 32.913 9.42478 33.0432 9.83401 32.8576V32.8588ZM15.8398 13.7107C16.7285 13.9274 17.5101 13.8951 18.2674 13.668C21.6715 12.6467 22.4046 11.2473 26.4807 11.1101C27.4605 11.0767 29.0559 11.2795 29.8467 11.5827C30.098 11.6784 30.5798 11.7026 30.5798 11.3314V7.4536C30.5741 6.61326 29.6461 6.45879 27.8213 6.36888C23.1297 6.13487 21.1804 7.95504 17.8225 8.60865C17.328 8.70432 16.4553 8.717 15.8398 8.57637C15.7049 8.56023 15.6484 8.63516 15.6588 8.77118V13.5297C15.6588 13.6519 15.7199 13.6818 15.8398 13.7118V13.7107ZM43.2657 25.4478V6.3804H54.913V10.5591H48.3193V13.8663H54.5372V17.9562H48.3193V21.1746H54.9141V25.4467H43.2669L43.2657 25.4478ZM58.3378 25.4478V6.3804H69.985V10.5591H63.3902V13.8663H69.6081V17.9562H63.3902V21.1746H69.985V25.4467H58.3378V25.4478ZM87.1827 7.11816V12.8C86.4738 12.0081 85.7648 11.4305 85.0605 11.0617C84.3516 10.6882 83.5965 10.5026 82.7954 10.5061C81.3072 10.5061 80.1014 11.0179 79.1793 12.0346C78.2571 13.0571 77.7971 14.3862 77.7971 16.0277C77.7971 17.5562 78.2663 18.8242 79.2069 19.8329C80.1452 20.8427 81.3429 21.3441 82.7965 21.3441C83.5977 21.3476 84.3516 21.162 85.0605 20.7885C85.766 20.4196 86.4738 19.8375 87.1827 19.0375V24.732C86.3585 25.1274 85.5435 25.4294 84.7274 25.63C83.9182 25.8294 83.0974 25.9285 82.264 25.9285C81.2231 25.9285 80.2651 25.804 79.3879 25.555C78.5176 25.3141 77.7095 24.9395 76.9637 24.43C75.5458 23.4732 74.4646 22.2732 73.7199 20.8242C72.9752 19.3706 72.604 17.7395 72.604 15.9262C72.604 14.468 72.838 13.1435 73.313 11.947C73.7833 10.7516 74.4957 9.67147 75.449 8.69741C76.3481 7.7683 77.3637 7.0755 78.4934 6.6121C79.6184 6.15447 80.8772 5.92392 82.2651 5.92392C83.094 5.92392 83.9182 6.02075 84.7285 6.22133C85.5435 6.4219 86.3597 6.72277 87.1827 7.11931V7.11816ZM109.622 15.9516C109.622 17.3256 109.369 18.6098 108.868 19.8063C108.367 21.0075 107.636 22.0772 106.674 23.0248C105.706 23.9631 104.598 24.6859 103.351 25.1942C102.106 25.7026 100.813 25.9562 99.4686 25.9539C98.1084 25.9539 96.8092 25.7003 95.5689 25.1942C94.3308 24.6916 93.238 23.9689 92.2893 23.0248C91.3095 22.0772 90.5695 21.0017 90.0599 19.7925C89.5551 18.5879 89.3026 17.3084 89.3026 15.9516C89.3026 14.5948 89.5551 13.3072 90.0599 12.1026C90.5695 10.9026 91.3095 9.82594 92.2882 8.87954C93.2369 7.93545 94.3297 7.21268 95.5689 6.71009C96.8184 6.19942 98.1187 5.94582 99.4686 5.95043C100.821 5.95043 102.119 6.20403 103.368 6.71009C104.614 7.21268 105.716 7.93545 106.674 8.87954C107.621 9.80519 108.35 10.8772 108.863 12.098C109.368 13.3026 109.622 14.5879 109.622 15.9516ZM99.4686 21.5527C100.904 21.5527 102.092 21.0236 103.032 19.9654C103.972 18.9026 104.442 17.5643 104.442 15.9516C104.442 14.3389 103.968 13.0225 103.014 11.9516C102.061 10.8841 100.878 10.3504 99.4686 10.3504C98.0588 10.3504 96.8461 10.8841 95.9055 11.9458C94.966 13.0086 94.4968 14.347 94.4968 15.9516C94.4968 17.5562 94.9579 18.9256 95.8836 19.9746C96.8104 21.0282 98.0058 21.5527 99.4686 21.5527ZM112.87 25.4467V6.3804H118.051V20.9925H124.49V25.4467H112.869H112.87ZM43.268 33.9908V26.8115H48.8611V28.3839H45.6945V29.63H48.6801V31.17H45.6945V32.3816H48.8611V33.9908H43.268ZM54.1476 33.9908V26.8115H56.6352V32.3135H59.728V33.9908H54.1476ZM64.5844 33.9908V26.8115H70.1787V28.3839H67.011V29.63H69.9965V31.17H67.011V32.3816H70.1787V33.9908H64.5844ZM82.0784 27.0893V29.2288C81.7383 28.9314 81.3971 28.7135 81.0594 28.5741C80.7112 28.4323 80.3481 28.3631 79.9723 28.3654C79.2565 28.3654 78.6778 28.5579 78.2352 28.9406C77.7914 29.3256 77.5712 29.8259 77.5712 30.4438C77.5712 31.019 77.796 31.4963 78.2478 31.8767C78.6986 32.2571 79.2738 32.445 79.9712 32.445C80.3562 32.445 80.7193 32.3746 81.0582 32.2352C81.3971 32.0957 81.7372 31.8767 82.0772 31.5758V33.7199C81.6819 33.8686 81.2899 33.9827 80.898 34.0588C80.5084 34.1337 80.113 34.1718 79.7153 34.1718C79.215 34.1718 78.755 34.1245 78.3343 34.0311C77.9274 33.9447 77.5389 33.8029 77.1712 33.6069C76.4899 33.2473 75.9712 32.7954 75.6127 32.249C75.2553 31.7014 75.0767 31.087 75.0767 30.4046C75.0767 29.8559 75.1896 29.3568 75.4167 28.9061C75.6415 28.4553 75.985 28.0484 76.4427 27.683C76.8807 27.3291 77.3683 27.0674 77.9043 26.898C78.445 26.7262 79.049 26.6386 79.7153 26.6386C80.1141 26.6386 80.5095 26.6755 80.898 26.7504C81.2899 26.8254 81.6807 26.9395 82.0772 27.0882L82.0784 27.0893ZM88.4403 33.9908V28.5084H86.3942V26.8115H92.9729V28.5084H90.928V33.9908H88.4403ZM97.8294 33.9908V26.8115H100.43C101.447 26.8115 102.158 26.8484 102.558 26.9222C102.958 26.9948 103.305 27.1193 103.597 27.2922C103.914 27.4755 104.166 27.7256 104.354 28.0415C104.53 28.3458 104.618 28.6801 104.618 29.0478C104.618 29.6035 104.445 30.0553 104.098 30.4035C103.751 30.7516 103.245 30.9833 102.581 31.0963L105.066 33.9908H102.255L100.16 31.1804V33.9908H97.8271H97.8294ZM100.163 30.2052H100.625C101.161 30.2052 101.553 30.1326 101.799 29.9885C102.046 29.8444 102.171 29.6184 102.171 29.3118C102.171 28.9522 102.055 28.6963 101.824 28.5441C101.593 28.3919 101.206 28.317 100.662 28.317H100.164V30.2052H100.163ZM109.72 33.9908V26.8115H112.234V33.9908H109.72ZM124.497 27.0893V29.2288C124.157 28.9314 123.816 28.7135 123.478 28.5741C123.13 28.4323 122.767 28.3631 122.391 28.3654C121.675 28.3654 121.096 28.5579 120.654 28.9406C120.21 29.3256 119.99 29.8259 119.99 30.4438C119.99 31.019 120.216 31.4963 120.666 31.8767C121.117 32.2571 121.691 32.445 122.39 32.445C122.775 32.445 123.139 32.3746 123.477 32.2352C123.816 32.0957 124.156 31.8767 124.496 31.5758V33.7199C124.1 33.8686 123.708 33.9827 123.316 34.0588C122.927 34.1337 122.531 34.1718 122.134 34.1718C121.633 34.1718 121.173 34.1245 120.753 34.0311C120.346 33.9447 119.957 33.8029 119.59 33.6069C118.908 33.2473 118.39 32.7954 118.031 32.249C117.674 31.7014 117.495 31.087 117.495 30.4046C117.495 29.8559 117.608 29.3568 117.835 28.9061C118.061 28.4553 118.403 28.0484 118.861 27.683C119.299 27.3291 119.787 27.0674 120.323 26.898C120.863 26.7262 121.467 26.6386 122.134 26.6386C122.533 26.6386 122.928 26.6755 123.318 26.7504C123.708 26.8254 124.1 26.9395 124.496 27.0882L124.497 27.0893ZM19.9378 1.71873C9.89971 1.71873 1.71297 9.93084 1.71297 20C1.71297 30.0692 9.89971 38.2813 19.9378 38.2813C29.9758 38.2813 38.1625 30.0692 38.1625 20C38.1625 9.93084 29.9758 1.71873 19.9378 1.71873ZM19.9378 0C30.9199 0 39.8755 8.98444 39.8755 20C39.8755 31.0156 30.9199 40 19.9378 40C8.95562 40 0 31.0144 0 20C0 8.98559 8.95677 0 19.9378 0Z" fill="#171717"/>
</svg>
