<svg width="158" height="25" viewBox="0 0 158 25" fill="none" xmlns="http://www.w3.org/2000/svg">
<path d="M16.7125 20.256H4.5845V14.304H14.4085V10.656H4.5845V4.8H16.1685V1.184H0.5205V24H16.7125V20.256ZM35.4943 24V20.448H24.6783L35.4303 8.928V5.6H19.9743V9.088H30.3423L19.3023 20.832V24H35.4943ZM42.519 24V15.488C42.519 14.0587 42.6577 12.928 42.935 12.096C43.2337 11.2427 43.767 10.6347 44.535 10.272C44.919 10.08 45.3883 9.94133 45.943 9.856C46.4977 9.74933 47.1377 9.696 47.863 9.696H49.687V5.44H48.439C46.711 5.44 45.3457 5.81333 44.343 6.56C43.3617 7.28533 42.6897 8.40533 42.327 9.92L41.783 5.6H38.391V24H42.519ZM69.1398 18.56H64.6278C64.3078 19.3493 63.8064 19.9573 63.1238 20.384C62.4411 20.8107 61.5451 21.024 60.4358 21.024C58.9211 21.024 57.7051 20.6187 56.7878 19.808C55.8918 18.9973 55.3584 17.8453 55.1878 16.352H69.3958V14.4C69.3958 13.2267 69.2251 12.0853 68.8838 10.976C68.5424 9.86667 68.0091 8.87467 67.2838 8C66.5584 7.12533 65.6198 6.432 64.4678 5.92C63.3371 5.408 61.9824 5.152 60.4038 5.152C58.4838 5.152 56.8198 5.54667 55.4118 6.336C54.0251 7.12533 52.9478 8.23467 52.1798 9.664C51.7958 10.3893 51.5078 11.1787 51.3158 12.032C51.1238 12.864 51.0278 13.7707 51.0278 14.752V15.2C51.0278 18.0373 51.7958 20.2987 53.3318 21.984C54.8678 23.648 57.1824 24.48 60.2758 24.48C62.6864 24.48 64.6278 23.9573 66.0998 22.912C67.5931 21.8667 68.6064 20.416 69.1398 18.56ZM60.4358 8.48C61.9078 8.48 63.0278 8.896 63.7958 9.728C64.5851 10.5387 65.0544 11.648 65.2038 13.056H55.2198C55.4544 11.6053 56.0198 10.4853 56.9158 9.696C57.8118 8.88533 58.9851 8.48 60.4358 8.48ZM76.74 14.4C76.74 12.6933 77.1133 11.3387 77.86 10.336C78.6067 9.312 79.7587 8.8 81.316 8.8C82.8093 8.8 83.844 9.248 84.42 10.144C84.996 11.0187 85.284 12.2027 85.284 13.696V24H89.508V12.672C89.508 10.3893 88.9213 8.56533 87.748 7.2C86.596 5.83467 84.9107 5.152 82.692 5.152C81.1133 5.152 79.8013 5.52533 78.756 6.272C77.7107 7.01867 76.9427 8.02133 76.452 9.28L76.068 5.6H72.516V24H76.74V14.4ZM103.418 20.096H102.106C101.082 20.096 100.314 20.0107 99.8023 19.84C99.2903 19.648 98.9596 19.2533 98.8103 18.656C98.7249 18.3573 98.6609 17.984 98.6183 17.536C98.5756 17.0667 98.5543 16.5333 98.5543 15.936V9.312H103.418V5.6H98.5543V0.639999H94.9703C94.9703 0.917333 94.9596 1.29067 94.9383 1.76C94.9383 2.22933 94.9276 2.66667 94.9062 3.072C94.8636 3.81867 94.7783 4.384 94.6503 4.768C94.5223 5.152 94.3089 5.41867 94.0103 5.568C93.8609 5.632 93.6796 5.68533 93.4663 5.728C93.2529 5.74933 92.9969 5.76 92.6983 5.76H91.0663V9.312H94.6503V16.64C94.6503 18.496 94.8209 19.9573 95.1623 21.024C95.5249 22.0907 96.1649 22.8587 97.0823 23.328C97.5303 23.5413 98.0849 23.712 98.7463 23.84C99.4289 23.9467 100.197 24 101.05 24H103.418V20.096ZM114.37 24.48C116.226 24.48 117.848 24.1173 119.234 23.392C120.621 22.6667 121.709 21.6107 122.498 20.224C122.882 19.5413 123.17 18.784 123.362 17.952C123.554 17.0987 123.65 16.1707 123.65 15.168V14.688C123.65 12.6613 123.256 10.944 122.466 9.536C121.677 8.10667 120.578 7.01867 119.17 6.272C118.488 5.888 117.741 5.61067 116.93 5.44C116.141 5.248 115.288 5.152 114.37 5.152C112.578 5.152 110.978 5.52533 109.57 6.272C108.184 6.99733 107.096 8.064 106.306 9.472C105.901 10.176 105.592 10.9653 105.378 11.84C105.186 12.7147 105.09 13.664 105.09 14.688V15.168C105.09 18.1547 105.89 20.4587 107.49 22.08C109.112 23.68 111.405 24.48 114.37 24.48ZM114.37 20.8C112.813 20.8 111.586 20.3093 110.69 19.328C109.816 18.3253 109.378 16.9173 109.378 15.104V14.688C109.378 12.7467 109.837 11.2747 110.754 10.272C111.693 9.248 112.909 8.736 114.402 8.736C115.917 8.736 117.122 9.25867 118.018 10.304C118.936 11.3493 119.394 12.8107 119.394 14.688V15.104C119.394 16.9173 118.946 18.3253 118.05 19.328C117.176 20.3093 115.949 20.8 114.37 20.8ZM139.533 24H143.053V5.6H138.829V15.168C138.829 16.7893 138.477 18.1227 137.773 19.168C137.069 20.192 136.023 20.704 134.637 20.704C133.207 20.704 132.226 20.256 131.693 19.36C131.159 18.4427 130.893 17.2693 130.893 15.84V5.6H126.701V16.992C126.701 19.2747 127.234 21.0773 128.301 22.4C129.367 23.7227 130.999 24.384 133.197 24.384C134.711 24.384 135.959 24.032 136.941 23.328C137.943 22.624 138.679 21.6747 139.149 20.48L139.533 24ZM157.825 20.096H156.513C155.489 20.096 154.721 20.0107 154.209 19.84C153.697 19.648 153.366 19.2533 153.217 18.656C153.131 18.3573 153.067 17.984 153.025 17.536C152.982 17.0667 152.961 16.5333 152.961 15.936V9.312H157.825V5.6H152.961V0.639999H149.377C149.377 0.917333 149.366 1.29067 149.345 1.76C149.345 2.22933 149.334 2.66667 149.312 3.072C149.27 3.81867 149.185 4.384 149.057 4.768C148.929 5.152 148.715 5.41867 148.417 5.568C148.267 5.632 148.086 5.68533 147.873 5.728C147.659 5.74933 147.403 5.76 147.105 5.76H145.473V9.312H149.057V16.64C149.057 18.496 149.227 19.9573 149.569 21.024C149.931 22.0907 150.571 22.8587 151.489 23.328C151.937 23.5413 152.491 23.712 153.153 23.84C153.835 23.9467 154.603 24 155.457 24H157.825V20.096Z" fill="#1D252C"/>
</svg>
