<svg width="197" height="82" viewBox="0 0 197 82" fill="none" xmlns="http://www.w3.org/2000/svg">
<g clip-path="url(#clip0_1662_1814)">
<path d="M7 50.1159C8.08767 51.5226 9.07759 53.0045 9.9626 54.5507C10.7182 56.0049 11.0332 56.9909 11.5855 58.7431C11.9241 59.7111 12.2302 60 12.8882 60C13.6054 60 13.9307 59.5085 14.1821 58.7484C14.7041 57.0938 15.1137 55.8308 15.7599 54.6377C17.0279 52.334 18.6035 50.287 20.1517 48.3195C20.5709 47.7627 23.2806 44.5188 24.5006 41.9592C24.5006 41.9592 26 39.1475 26 35.2207C26 31.5476 24.5213 29 24.5213 29L20.2641 30.1571L17.6785 37.0682L17.039 38.0212L16.9111 38.1937L16.741 38.4099L16.4423 38.755L16.0157 39.188L13.7134 41.0917L7.95747 44.4647L7 50.1159Z" fill="#747474"/>
<path d="M1 41.4807C2.43329 44.6949 5.19727 47.5204 7.06733 50L17 38.4486C17 38.4486 15.6007 40.2453 13.0622 40.2453C10.2349 40.2453 7.95068 38.0286 7.95068 35.2335C7.95068 33.3168 9.12522 32 9.12522 32L2.38274 33.7738L1 41.4807Z" fill="#747474"/>
<path d="M17.0767 23C20.4147 24.0604 23.2718 26.2865 25 29.5692L16.9676 39C16.9676 39 18.1561 37.6388 18.1561 35.7045C18.1561 32.8 15.6737 30.6304 12.9922 30.6304C10.4564 30.6304 9 32.4518 9 32.4518V26.5106L17.0767 23Z" fill="#747474"/>
<path d="M3 26.7417C4.93134 24.4056 8.32967 22 13.0146 22C15.2875 22 17 22.6033 17 22.6033L9.17704 32H3.63441L3 26.7417Z" fill="#747474"/>
<path d="M1.25655 42C1.25655 42 0 39.4117 0 35.6618C0 32.1177 1.30974 29.0197 2.99042 27L9 32.3196L1.25655 42Z" fill="#747474"/>
<path d="M135.079 52.8653V32.434H137.642L144.578 44.8753H144.69L151.626 32.434H154.189V52.8653H151.626V40.7374L151.738 37.3127H151.626L145.388 48.5271H143.884L137.646 37.3127H137.534L137.646 40.7374V52.8646L135.079 52.8653ZM161.681 53.2934C160.233 53.2934 159.02 52.8653 158.047 52.0091C157.073 51.153 156.584 50.0216 156.584 48.6135C156.584 47.0846 157.159 45.8982 158.311 45.0321C159.463 44.1659 160.882 43.734 162.564 43.734C164.069 43.734 165.303 44.0192 166.269 44.5902V44.1904C166.269 43.163 165.926 42.3404 165.239 41.7228C164.553 41.1051 163.707 40.7955 162.704 40.7955C161.961 40.7955 161.289 40.9759 160.685 41.3306C160.082 41.6853 159.669 42.1868 159.446 42.8136L157.106 41.787C157.422 40.9499 158.044 40.1816 158.972 39.4615C159.899 38.7414 161.125 38.3913 162.649 38.3913C164.395 38.3913 165.842 38.915 166.994 39.9607C168.145 41.0065 168.721 42.4819 168.721 44.3846V52.8386H166.27V50.8969H166.158C165.136 52.5022 163.641 53.2934 161.681 53.2934ZM162.099 50.8969C163.157 50.8969 164.117 50.4917 164.981 49.6845C165.845 48.8772 166.277 47.9262 166.277 46.8178C165.553 46.2085 164.466 45.9043 163.018 45.9043C161.773 45.9043 160.835 46.1795 160.205 46.7322C159.574 47.2849 159.257 47.9308 159.257 48.6723C159.257 49.3573 159.545 49.8993 160.12 50.2991C160.696 50.6989 161.355 50.8984 162.098 50.8984L162.099 50.8969ZM178.323 53.2934C177.283 53.2934 176.35 53.0641 175.525 52.6085C174.699 52.1529 174.081 51.5811 173.674 50.8961H173.562L173.674 52.8363V59H171.111V38.8553H173.563V40.7955H173.675C174.084 40.1106 174.701 39.5403 175.526 39.0831C176.351 38.626 177.286 38.3982 178.324 38.3982C180.088 38.3982 181.611 39.1114 182.893 40.5386C184.174 41.9659 184.815 43.734 184.815 45.8462C184.815 47.9584 184.173 49.7273 182.893 51.1537C181.612 52.5802 180.088 53.2942 178.324 53.2942L178.323 53.2934ZM177.905 50.8969C179.094 50.8969 180.114 50.4352 180.969 49.5209C181.824 48.6066 182.25 47.3758 182.25 45.8538C182.25 44.3318 181.823 43.1018 180.969 42.1868C180.115 41.2717 179.093 40.8108 177.905 40.8108C176.698 40.8108 175.672 41.2672 174.827 42.1807C173.982 43.0942 173.56 44.3211 173.56 45.8615C173.56 47.4018 173.983 48.6288 174.827 49.5423C175.671 50.4558 176.698 50.9122 177.905 50.9122V50.8969ZM191.624 53.2934C190.102 53.2934 188.844 52.9127 187.85 52.1521C186.856 51.3915 186.134 50.4397 185.663 49.2984L187.947 48.3276C188.671 50.0858 189.906 50.9519 191.653 50.9519C192.451 50.9519 193.106 50.7715 193.617 50.4168C194.127 50.0621 194.383 49.5797 194.383 48.9904C194.383 48.0776 193.761 47.4584 192.516 47.1358L189.759 46.4516C188.886 46.2238 188.06 45.7904 187.28 45.1536C186.5 44.5168 186.11 43.6553 186.11 42.5721C186.11 41.336 186.643 40.3322 187.711 39.5602C188.779 38.7881 190.047 38.4043 191.513 38.4043C192.72 38.4043 193.796 38.6849 194.744 39.2452C195.673 39.7849 196.391 40.6366 196.778 41.6563L194.549 42.5981C194.049 41.362 193.008 40.7435 191.429 40.7435C190.668 40.7435 190.027 40.9056 189.508 41.2282C188.989 41.5508 188.728 41.9896 188.728 42.5415C188.728 43.3403 189.325 43.8823 190.538 44.1682L193.24 44.8241C194.521 45.1284 195.468 45.652 196.081 46.3935C196.693 47.135 197 47.9729 197 48.9055C197 50.1607 196.499 51.1988 195.496 52.0443C194.493 52.8898 193.202 53.2995 191.615 53.2995L191.624 53.2934ZM59.1411 40.6839H48.6298V43.8793H56.092C55.7242 48.3589 52.0848 50.27 48.65 50.27C47.5616 50.2751 46.4831 50.058 45.4775 49.6313C44.4719 49.2047 43.5594 48.5771 42.7932 47.7851C42.027 46.9932 41.4225 46.0528 41.015 45.0188C40.6075 43.9849 40.4052 42.8782 40.4199 41.7633C40.4199 36.9266 44.0749 33.2015 48.6582 33.2015C52.1953 33.2015 54.2772 35.5117 54.2772 35.5117L56.4614 33.1954C56.4614 33.1954 53.6579 30 48.5463 30C42.037 30 37 35.6286 37 41.7082C37 47.6648 41.7385 53.4754 48.7127 53.4754C54.8466 53.4754 59.3388 49.17 59.3388 42.8037C59.3388 41.4613 59.1486 40.6847 59.1486 40.6847L59.1411 40.6839Z" fill="#747474"/>
<path d="M67.503 38.0015C63.1322 38.0015 60 41.4347 60 45.4392C60 49.503 63.0384 53 67.562 53C71.6508 53 75 49.8602 75 45.5258C75 40.5585 71.1033 38 67.5106 38L67.503 38.0015ZM67.5461 40.9476C69.696 40.9476 71.7325 42.6938 71.7325 45.5068C71.7325 48.2606 69.7036 50.0585 67.5355 50.0585C65.1535 50.0585 63.2744 48.1413 63.2744 45.4863C63.2744 42.8891 65.1308 40.9483 67.5454 40.9483L67.5461 40.9476Z" fill="#747474"/>
<path d="M83.503 38.0015C79.1322 38.0015 76 41.4347 76 45.4392C76 49.503 79.0384 53 83.562 53C87.6508 53 91 49.8602 91 45.5258C91 40.5585 87.1033 38 83.5106 38L83.503 38.0015ZM83.5461 40.9476C85.696 40.9476 87.7325 42.6938 87.7325 45.5068C87.7325 48.2606 85.7036 50.0585 83.5355 50.0585C81.1535 50.0585 79.2744 48.1413 79.2744 45.4863C79.2744 42.8891 81.1308 40.9483 83.5454 40.9483L83.5461 40.9476Z" fill="#747474"/>
<path d="M100.163 38.4688C96.153 38.4688 93 41.965 93 45.8886C93 50.3577 96.6541 53.322 100.093 53.322C102.219 53.322 103.349 52.4816 104.185 51.5163V52.9804C104.185 55.5422 102.622 57.0771 100.255 57.0771C97.9755 57.0771 96.8333 55.3902 96.4357 54.4332L93.5685 55.6265C94.5859 57.767 96.633 60 100.28 60C104.267 60 107.307 57.5006 107.307 52.2506V38.9111H104.179V40.1691C103.217 39.1384 101.902 38.465 100.157 38.465L100.163 38.4688ZM100.453 41.3804C102.42 41.3804 104.439 43.0507 104.439 45.9044C104.439 48.8055 102.424 50.4036 100.41 50.4036C98.2718 50.4036 96.2822 48.6761 96.2822 45.9315C96.2822 43.0725 98.3474 41.3797 100.453 41.3797V41.3804ZM121.267 38.4688C117.484 38.4688 114.307 41.4632 114.307 45.8848C114.307 50.5616 117.847 53.3363 121.63 53.3363C124.787 53.3363 126.725 51.6171 127.88 50.077L125.31 48.3692C124.641 49.4029 123.521 50.4141 121.655 50.4141C119.557 50.4141 118.593 49.2705 117.996 48.163L128 44.025L127.481 42.8212C126.513 40.4497 124.259 38.4695 121.282 38.4695L121.267 38.4688ZM121.397 41.3247C122.761 41.3247 123.74 42.047 124.158 42.9107L117.478 45.69C117.19 43.5382 119.237 41.3247 121.397 41.3247ZM109.529 52.8939H112.814V31H109.529V52.8939Z" fill="#747474"/>
</g>
<defs>
<clipPath id="clip0_1662_1814">
<rect width="197" height="38" fill="white" transform="translate(0 22)"/>
</clipPath>
</defs>
</svg>
