<svg width="78" height="24" fill="none" xmlns="http://www.w3.org/2000/svg"><g clip-path="url(#clip0_750_1741)" fill="#fff"><path d="M9.757 8.564v2.563h6.3c-.167 1.418-.669 2.51-1.45 3.218-.891.873-2.341 1.855-4.85 1.855-3.847 0-6.858-3.054-6.858-6.818s2.955-6.818 6.858-6.818a6.8 6.8 0 014.74 1.854l1.839-1.8C14.775 1.145 12.656 0 9.757 0 4.46 0 0 4.2 0 9.382c0 5.182 4.46 9.382 9.757 9.382 2.843 0 5.018-.928 6.69-2.619 1.729-1.69 2.286-4.09 2.286-6 0-.6-.055-1.145-.111-1.581H9.757zm16.784-2.128c-3.4 0-6.244 2.563-6.244 6.054s2.788 6.055 6.244 6.055c3.457 0 6.245-2.51 6.245-6 0-3.546-2.788-6.11-6.245-6.11zm0 9.763c-1.895 0-3.512-1.527-3.512-3.654 0-2.182 1.617-3.655 3.512-3.655 1.896 0 3.513 1.473 3.513 3.655 0 2.127-1.617 3.654-3.513 3.654zM57.035 7.8h-.111c-.613-.71-1.784-1.364-3.29-1.364-3.122 0-5.798 2.618-5.798 6.054 0 3.382 2.676 6.055 5.798 6.055 1.506 0 2.677-.655 3.29-1.364h.111v.873c0 2.29-1.282 3.545-3.29 3.545-1.672 0-2.675-1.145-3.121-2.182l-2.342.982c.669 1.582 2.509 3.6 5.52 3.6 3.178 0 5.91-1.854 5.91-6.327V6.762h-2.565V7.8h-.112zm-3.122 8.4c-1.895 0-3.29-1.583-3.29-3.655 0-2.128 1.45-3.655 3.29-3.655s3.29 1.582 3.29 3.71c.055 2.072-1.394 3.6-3.29 3.6zM40.42 6.438c-3.4 0-6.244 2.563-6.244 6.054s2.788 6.055 6.244 6.055c3.457 0 6.245-2.51 6.245-6 0-3.546-2.788-6.11-6.245-6.11zm0 9.763c-1.895 0-3.512-1.527-3.512-3.654 0-2.182 1.617-3.655 3.512-3.655 1.896 0 3.513 1.473 3.513 3.655 0 2.127-1.617 3.654-3.513 3.654zM61.773.273h2.677v18.328h-2.677V.273zM72.707 16.2c-1.394 0-2.341-.6-3.01-1.855l8.307-3.328-.279-.709c-.502-1.363-2.119-3.872-5.297-3.872-3.178 0-5.854 2.454-5.854 6.054 0 3.382 2.62 6.055 6.133 6.055 2.844 0 4.46-1.691 5.185-2.673l-2.118-1.364c-.725 1.037-1.673 1.691-3.067 1.691zm-.167-7.474c1.115 0 2.063.546 2.342 1.31l-5.576 2.29c-.056-2.509 1.84-3.6 3.234-3.6z"/></g><defs><clipPath id="clip0_750_1741"><path fill="#fff" d="M0 0h78v24H0z"/></clipPath></defs></svg>