<svg width="84" height="24" fill="none" xmlns="http://www.w3.org/2000/svg"><g clip-path="url(#clip0_750_1724)"><path d="M72.106 24C78.675 24 84 18.627 84 12S78.675 0 72.106 0C65.536 0 60.21 5.373 60.21 12s5.325 12 11.895 12z" fill="#fff"/><path d="M77.253 9.192h-2.031c.054-.321.252-.501.652-.705l.373-.192c.668-.346 1.025-.737 1.025-1.376 0-.4-.154-.717-.461-.945a1.776 1.776 0 00-1.092-.341 1.673 1.673 0 00-.925.266 1.557 1.557 0 00-.614.675l.587.595c.229-.466.56-.694.995-.694.368 0 .594.192.594.459 0 .223-.109.408-.532.624l-.24.117c-.522.267-.883.572-1.093.917-.209.346-.311.78-.311 1.306v.144h3.073v-.85zm-.273 1.828h-3.365l-1.681 2.937h3.363l1.682 2.94 1.682-2.94-1.682-2.938z" fill="#1D252C"/><path d="M72.226 15.919c-2.14 0-3.885-1.76-3.885-3.92s1.744-3.919 3.885-3.919l1.33-2.805a6.757 6.757 0 00-1.33-.132c-3.754 0-6.796 3.07-6.796 6.856 0 3.788 3.042 6.857 6.796 6.857a6.715 6.715 0 004.002-1.315l-1.47-2.573a3.853 3.853 0 01-2.532.95z" fill="#1D252C"/></g><path d="M7.36 10.109a2.402 2.402 0 00-.311-.687 1.933 1.933 0 00-.491-.511 2.099 2.099 0 00-.655-.325 2.745 2.745 0 00-.808-.112c-.552 0-1.038.138-1.457.415-.415.277-.74.68-.972 1.21-.232.525-.348 1.168-.348 1.928s.114 1.406.343 1.939c.229.532.553.939.972 1.22.418.276.913.415 1.483.415.518 0 .96-.093 1.326-.277.37-.188.65-.453.844-.794.197-.34.296-.744.296-1.209l.465.07H5.259v-1.737h4.525v1.374c0 .959-.2 1.783-.602 2.472a4.118 4.118 0 01-1.658 1.587c-.704.37-1.51.554-2.418.554-1.014 0-1.905-.225-2.672-.676-.767-.455-1.366-1.1-1.795-1.934C.213 14.193 0 13.198 0 12.048c0-.884.127-1.673.38-2.365a5.061 5.061 0 011.077-1.769 4.65 4.65 0 011.61-1.102 5.178 5.178 0 011.991-.378c.613 0 1.183.09 1.71.271.529.178.997.43 1.405.757a4.08 4.08 0 011.009 1.166c.26.448.428.941.501 1.481H7.36zm4.078 7.383V15.83l3.849-3.596c.327-.32.602-.607.823-.863a3.29 3.29 0 00.513-.75c.116-.25.174-.517.174-.805 0-.32-.072-.595-.217-.826a1.426 1.426 0 00-.59-.538 1.84 1.84 0 00-.851-.191c-.33 0-.62.067-.866.202a1.39 1.39 0 00-.57.58c-.134.253-.2.553-.2.9h-2.17c0-.713.16-1.333.48-1.858.32-.526.769-.932 1.346-1.22.577-.288 1.242-.431 1.996-.431.774 0 1.448.138 2.022.415.577.274 1.026.653 1.346 1.14.32.487.48 1.044.48 1.673 0 .411-.08.818-.242 1.22-.158.4-.442.846-.85 1.336-.408.487-.984 1.071-1.727 1.753l-1.578 1.56v.075h4.54v1.886h-7.708zM30.174 9.72c-.043-.43-.224-.763-.544-1.001-.32-.238-.755-.357-1.304-.357-.373 0-.689.053-.945.16a1.331 1.331 0 00-.592.431c-.134.185-.2.394-.2.629a.904.904 0 00.121.511c.092.146.216.272.375.378.158.103.341.194.549.272.208.075.43.138.665.192l.972.234c.471.107.904.249 1.299.426.394.178.735.396 1.024.655.289.26.512.565.67.916.162.352.245.755.249 1.21-.004.667-.173 1.246-.507 1.736-.331.487-.81.865-1.436 1.135-.623.266-1.375.4-2.255.4-.873 0-1.633-.136-2.28-.405-.645-.27-1.148-.67-1.51-1.199-.36-.533-.548-1.191-.566-1.976h2.213c.024.365.128.67.311.916.187.241.435.424.744.549.314.12.668.18 1.062.18.387 0 .723-.056 1.008-.17a1.53 1.53 0 00.67-.474 1.1 1.1 0 00.238-.698.912.912 0 00-.216-.617c-.14-.167-.349-.31-.623-.427a6.308 6.308 0 00-.998-.32l-1.177-.297c-.912-.224-1.632-.574-2.16-1.05-.528-.476-.79-1.117-.787-1.923-.003-.66.171-1.237.523-1.731.355-.494.843-.879 1.463-1.156.62-.277 1.323-.415 2.111-.415.803 0 1.504.138 2.102.415.602.277 1.07.662 1.404 1.156.335.494.507 1.065.518 1.715h-2.191zm8.148-.41v1.705h-4.884V9.31h4.884zm-3.775-1.96h2.25v7.628c0 .21.03.373.094.49a.526.526 0 00.264.24c.116.046.25.069.401.069.106 0 .212-.01.317-.027l.243-.048.354 1.689a6.249 6.249 0 01-.475.122c-.204.05-.453.08-.745.09-.542.022-1.017-.05-1.425-.218a1.993 1.993 0 01-.946-.777c-.225-.352-.336-.796-.332-1.332V7.35zM42.1 17.646c-.518 0-.979-.09-1.383-.271a2.232 2.232 0 01-.962-.815c-.232-.363-.348-.814-.348-1.353 0-.455.083-.837.248-1.146a2.02 2.02 0 01.676-.745c.285-.189.609-.33.971-.426a7.35 7.35 0 011.152-.203c.471-.05.851-.096 1.14-.138.289-.046.498-.114.628-.203a.446.446 0 00.196-.394v-.032c0-.337-.106-.598-.317-.783-.208-.185-.503-.277-.887-.277-.405 0-.727.09-.966.272a1.25 1.25 0 00-.475.67l-2.08-.17a2.86 2.86 0 01.622-1.289 2.99 2.99 0 011.199-.841c.492-.2 1.063-.299 1.71-.299.451 0 .882.054 1.294.16a3.37 3.37 0 011.104.496 2.4 2.4 0 01.765.863c.187.348.28.765.28 1.251v5.519h-2.133v-1.135h-.063c-.13.256-.305.481-.523.677-.218.192-.48.342-.787.453-.306.106-.66.16-1.061.16zm.644-1.566c.33 0 .623-.065.876-.197.254-.135.453-.316.597-.543a1.41 1.41 0 00.217-.772v-.869a1.2 1.2 0 01-.29.128c-.12.036-.256.07-.407.101-.152.029-.303.055-.455.08l-.411.059a2.762 2.762 0 00-.692.186c-.197.085-.35.2-.46.346a.848.848 0 00-.163.533c0 .31.11.545.333.709.225.16.51.24.855.24zm5.668 1.412V9.31h2.18v1.428h.085c.148-.508.396-.892.745-1.151.348-.263.75-.394 1.203-.394a3.372 3.372 0 01.708.08v2.013a2.928 2.928 0 00-.438-.085 3.897 3.897 0 00-.513-.037c-.33 0-.626.072-.886.218a1.6 1.6 0 00-.613.597 1.73 1.73 0 00-.222.884v4.629h-2.249z" fill="#fff"/><defs><clipPath id="clip0_750_1724"><path fill="#fff" transform="translate(60.21)" d="M0 0h23.789v24H0z"/></clipPath></defs></svg>