<svg width="140" height="140" fill="none" xmlns="http://www.w3.org/2000/svg"><path d="M54 71.5v76.22c0 8.892 7.512 16.28 16.516 16.28h77.188c9.004 0 16.296-7.2 16.296-16.091v-76.22C164 62.796 156.898 55 147.894 55H70.706C61.702 55 54 48.208 54 39.317V11.122C54 4.876 49.157 0 42.91 0h-31.6C5.064 0 0 5.064 0 11.31v32.976C0 50.533 5.253 55 11.5 55h26.614C47.118 55 54 62.609 54 71.5z" fill="#fff"/><path d="M30 140c13.255 0 24-10.745 24-24v24H30zm86-85c13.255 0 24-10.745 24-24v24h-24z" fill="#fff"/></svg>