<svg xmlns="http://www.w3.org/2000/svg" xmlns:xlink="http://www.w3.org/1999/xlink">
  <defs>
    <symbol id="square-warn" width="44" height="44" viewBox="0 0 44 44" fill="none" xmlns="http://www.w3.org/2000/svg">
        <path d="M42.1606 22.0003L21.9943 1.83398L1.82812 22.0003L21.9943 42.1664L42.1606 22.0003Z" stroke="currentColor" stroke-width="3.66667" stroke-linejoin="round"/>
        <path d="M23.8385 11H20.1719V23.8333H23.8385V11Z" fill="currentColor"/>
        <path d="M23.8385 27.5H20.1719V31.1667H23.8385V27.5Z" fill="currentColor"/>
    </symbol>
    <symbol id="easy-to-use" width="44" height="44" viewBox="0 0 44 44" fill="none" xmlns="http://www.w3.org/2000/svg">
        <path d="M16.5 16.5H5.5V38.5" stroke="currentColor" stroke-width="4" stroke-miterlimit="10" stroke-linejoin="round"/>
        <path d="M38.5 38.5013V31.168" stroke="currentColor" stroke-width="4" stroke-miterlimit="10" stroke-linejoin="round"/>
        <path d="M44 38.5H0L1.83333 44H42.1667L44 38.5Z" fill="currentColor"/>
        <path d="M29.3385 31.1667L42.1719 14.6667H33.0052V5.5L20.1719 22H29.3385V31.1667Z" stroke="currentColor" stroke-width="4" stroke-miterlimit="10" stroke-linejoin="round"/>
    </symbol>
    <symbol id="support" width="44" height="44" viewBox="0 0 44 44" fill="none" xmlns="http://www.w3.org/2000/svg">
        <path d="M34.8385 18.3346V16.5013C34.8385 13.0977 33.4865 9.83349 31.0797 7.42676C28.673 5.02005 25.4088 3.66797 22.0052 3.66797C18.6016 3.66797 15.3374 5.02005 12.9307 7.42676C10.524 9.83349 9.17188 13.0977 9.17188 16.5013V18.3346" stroke="currentColor" stroke-width="4" stroke-linejoin="round"/>
        <path d="M9.16146 32.9987C7.21653 32.9987 5.35128 32.2261 3.976 30.8508C2.60075 29.4756 1.82812 27.6103 1.82812 25.6654C1.82812 23.7204 2.60075 21.8551 3.976 20.48C5.35128 19.1046 7.21653 18.332 9.16146 18.332V32.9987Z" stroke="currentColor" stroke-width="4" stroke-linejoin="round"/>
        <path d="M42.1615 25.6654C42.1615 27.6103 41.3889 29.4756 40.0135 30.8508C38.6383 32.2261 36.7731 32.9987 34.8281 32.9987V18.332C36.7731 18.332 38.6383 19.1046 40.0135 20.48C41.3889 21.8551 42.1615 23.7204 42.1615 25.6654Z" stroke="currentColor" stroke-width="4" stroke-linejoin="round"/>
        <path d="M25.6719 40.3333H27.5052C29.4502 40.3333 31.3154 39.5608 32.6906 38.1854C34.066 36.8102 34.8385 34.945 34.8385 33" stroke="currentColor" stroke-width="4" stroke-linejoin="round"/>
    </symbol>
  </defs>
</svg>