<svg width="229" height="27" viewBox="0 0 229 27" fill="none" xmlns="http://www.w3.org/2000/svg">
<path d="M9.02289 18.8H4.38288V26H0.254883V3.18401H8.86288C9.88688 3.18401 10.8149 3.26931 11.6469 3.44001C12.5002 3.58931 13.2575 3.83471 13.9189 4.17601C15.2629 4.81601 16.2655 5.72272 16.9269 6.89602C17.588 8.04802 17.919 9.39202 17.919 10.928C17.919 13.3173 17.183 15.2373 15.7109 16.688C14.2602 18.1173 12.0309 18.8213 9.02289 18.8ZM8.86288 6.76802H4.38288V15.216H8.95889C10.4735 15.216 11.6469 14.8533 12.4789 14.128C13.3109 13.3813 13.7269 12.3147 13.7269 10.928C13.7269 9.69072 13.3215 8.68801 12.5109 7.92001C11.7215 7.15201 10.5055 6.76802 8.86288 6.76802ZM29.136 26.48C26.171 26.48 23.877 25.68 22.256 24.08C20.656 22.4587 19.856 20.1547 19.856 17.168V16.688C19.856 15.664 19.952 14.7147 20.144 13.84C20.357 12.9653 20.667 12.176 21.072 11.472C21.861 10.064 22.949 8.99731 24.336 8.27201C25.744 7.52531 27.344 7.15202 29.136 7.15202C30.053 7.15202 30.907 7.24801 31.696 7.44001C32.507 7.61071 33.253 7.88801 33.936 8.27201C35.344 9.01871 36.443 10.1067 37.232 11.536C38.021 12.944 38.416 14.6613 38.416 16.688V17.168C38.416 18.1707 38.32 19.0987 38.128 19.952C37.936 20.784 37.648 21.5413 37.264 22.224C36.475 23.6107 35.387 24.6667 34 25.392C32.613 26.1173 30.992 26.48 29.136 26.48ZM29.136 22.8C30.715 22.8 31.941 22.3093 32.816 21.328C33.712 20.3253 34.16 18.9173 34.16 17.104V16.688C34.16 14.8107 33.701 13.3493 32.784 12.304C31.888 11.2587 30.683 10.736 29.168 10.736C27.675 10.736 26.459 11.248 25.52 12.272C24.603 13.2747 24.144 14.7467 24.144 16.688V17.104C24.144 18.9173 24.581 20.3253 25.456 21.328C26.352 22.3093 27.579 22.8 29.136 22.8ZM43.865 5.61602C42.863 5.61602 42.148 5.41331 41.721 5.00801C41.295 4.60271 41.081 3.87732 41.081 2.83202C41.081 1.80802 41.316 1.09331 41.785 0.688015C42.255 0.282715 42.948 0.0800171 43.865 0.0800171C44.783 0.0800171 45.476 0.282715 45.945 0.688015C46.415 1.09331 46.649 1.80802 46.649 2.83202C46.649 3.81332 46.415 4.52802 45.945 4.97602C45.497 5.40272 44.804 5.61602 43.865 5.61602ZM45.945 26H41.689V7.60001H45.945V26ZM54.224 16.4V26H50V7.60001H53.552L53.936 11.28C54.427 10.0213 55.195 9.01871 56.24 8.27201C57.286 7.52531 58.598 7.15202 60.176 7.15202C62.395 7.15202 64.08 7.83471 65.232 9.20001C66.406 10.5653 66.992 12.3893 66.992 14.672V26H62.768V15.696C62.768 14.2027 62.48 13.0187 61.904 12.144C61.328 11.248 60.294 10.8 58.8 10.8C57.243 10.8 56.091 11.312 55.344 12.336C54.598 13.3387 54.224 14.6933 54.224 16.4ZM80.903 22.096V26H78.535C77.681 26 76.913 25.9467 76.231 25.84C75.569 25.712 75.015 25.5413 74.567 25.328C73.649 24.8587 73.009 24.0907 72.647 23.024C72.305 21.9573 72.135 20.496 72.135 18.64V11.312H68.551V7.76001H70.183C70.481 7.76001 70.737 7.74932 70.951 7.72802C71.164 7.68532 71.345 7.63202 71.495 7.56802C71.793 7.41872 72.007 7.15202 72.135 6.76802C72.263 6.38402 72.348 5.81871 72.391 5.07201C72.412 4.66671 72.423 4.22931 72.423 3.76001C72.444 3.29071 72.455 2.91731 72.455 2.64001H76.039V7.60001H80.903V11.312H76.039V17.936C76.039 18.5333 76.06 19.0667 76.103 19.536C76.145 19.984 76.209 20.3573 76.295 20.656C76.444 21.2533 76.775 21.648 77.287 21.84C77.799 22.0107 78.567 22.096 79.591 22.096H80.903ZM102.105 26.48C99.139 26.48 96.846 25.68 95.225 24.08C93.625 22.4587 92.825 20.1547 92.825 17.168V16.688C92.825 15.664 92.921 14.7147 93.113 13.84C93.326 12.9653 93.635 12.176 94.041 11.472C94.83 10.064 95.918 8.99731 97.305 8.27201C98.713 7.52531 100.313 7.15202 102.105 7.15202C103.022 7.15202 103.875 7.24801 104.665 7.44001C105.475 7.61071 106.222 7.88801 106.905 8.27201C108.313 9.01871 109.411 10.1067 110.201 11.536C110.99 12.944 111.385 14.6613 111.385 16.688V17.168C111.385 18.1707 111.289 19.0987 111.097 19.952C110.905 20.784 110.617 21.5413 110.233 22.224C109.443 23.6107 108.355 24.6667 106.969 25.392C105.582 26.1173 103.961 26.48 102.105 26.48ZM102.105 22.8C103.683 22.8 104.91 22.3093 105.785 21.328C106.681 20.3253 107.129 18.9173 107.129 17.104V16.688C107.129 14.8107 106.67 13.3493 105.753 12.304C104.857 11.2587 103.651 10.736 102.137 10.736C100.643 10.736 99.427 11.248 98.489 12.272C97.571 13.2747 97.113 14.7467 97.113 16.688V17.104C97.113 18.9173 97.55 20.3253 98.425 21.328C99.321 22.3093 100.547 22.8 102.105 22.8ZM124.103 11.248H119.783L119.751 26H115.751V11.248H112.519V7.60001H115.751V6.86401C115.751 4.51731 116.242 2.85332 117.223 1.87202C118.205 0.890717 119.783 0.400017 121.959 0.400017H124.135V3.85601H122.535C122.151 3.85601 121.81 3.87731 121.511 3.92001C121.213 3.96271 120.967 4.02671 120.775 4.11201C120.37 4.28271 120.103 4.62402 119.975 5.13602C119.847 5.62672 119.783 6.37331 119.783 7.37601V7.60001H124.103V11.248ZM140.41 26H136.282V7.60001H139.674L140.218 11.92C140.58 10.4053 141.252 9.28532 142.234 8.56002C143.236 7.81332 144.602 7.44001 146.33 7.44001H147.578V11.696H145.754C145.028 11.696 144.388 11.7493 143.834 11.856C143.279 11.9413 142.81 12.08 142.426 12.272C141.658 12.6347 141.124 13.2427 140.826 14.096C140.548 14.928 140.41 16.0587 140.41 17.488V26ZM167.03 20.56C166.497 22.416 165.484 23.8667 163.99 24.912C162.518 25.9573 160.577 26.48 158.166 26.48C155.073 26.48 152.758 25.648 151.222 23.984C149.686 22.2987 148.918 20.0373 148.918 17.2V16.752C148.918 15.7707 149.014 14.864 149.206 14.032C149.398 13.1787 149.686 12.3893 150.07 11.664C150.838 10.2347 151.916 9.12531 153.302 8.33601C154.71 7.54671 156.374 7.15202 158.294 7.15202C159.873 7.15202 161.228 7.40801 162.358 7.92001C163.51 8.43201 164.449 9.12532 165.174 10C165.9 10.8747 166.433 11.8667 166.774 12.976C167.116 14.0853 167.286 15.2267 167.286 16.4V18.352H153.078C153.249 19.8453 153.782 20.9973 154.678 21.808C155.596 22.6187 156.812 23.024 158.326 23.024C159.436 23.024 160.332 22.8107 161.014 22.384C161.697 21.9573 162.198 21.3493 162.518 20.56H167.03ZM158.326 10.48C156.876 10.48 155.702 10.8853 154.806 11.696C153.91 12.4853 153.345 13.6053 153.11 15.056H163.094C162.945 13.648 162.476 12.5387 161.686 11.728C160.918 10.896 159.798 10.48 158.326 10.48ZM174.631 16.4V26H170.407V7.60001H173.959L174.343 11.28C174.833 10.0213 175.601 9.01871 176.647 8.27201C177.692 7.52531 179.004 7.15202 180.583 7.15202C182.801 7.15202 184.487 7.83471 185.639 9.20001C186.812 10.5653 187.399 12.3893 187.399 14.672V26H183.175V15.696C183.175 14.2027 182.887 13.0187 182.311 12.144C181.735 11.248 180.7 10.8 179.207 10.8C177.649 10.8 176.497 11.312 175.751 12.336C175.004 13.3387 174.631 14.6933 174.631 16.4ZM201.309 22.096V26H198.941C198.088 26 197.32 25.9467 196.637 25.84C195.976 25.712 195.421 25.5413 194.973 25.328C194.056 24.8587 193.416 24.0907 193.053 23.024C192.712 21.9573 192.541 20.496 192.541 18.64V11.312H188.957V7.76001H190.589C190.888 7.76001 191.144 7.74932 191.357 7.72802C191.57 7.68532 191.752 7.63202 191.901 7.56802C192.2 7.41872 192.413 7.15202 192.541 6.76802C192.669 6.38402 192.754 5.81871 192.797 5.07201C192.818 4.66671 192.829 4.22931 192.829 3.76001C192.85 3.29071 192.861 2.91731 192.861 2.64001H196.445V7.60001H201.309V11.312H196.445V17.936C196.445 18.5333 196.466 19.0667 196.509 19.536C196.552 19.984 196.616 20.3573 196.701 20.656C196.85 21.2533 197.181 21.648 197.693 21.84C198.205 22.0107 198.973 22.096 199.997 22.096H201.309ZM210.81 23.248C211.408 23.248 211.962 23.184 212.474 23.056C213.008 22.9067 213.498 22.6933 213.946 22.416C214.842 21.8613 215.525 21.1573 215.994 20.304C216.485 19.4293 216.73 18.5547 216.73 17.68V16.688C216.346 16.9653 215.834 17.2 215.194 17.392C214.576 17.584 213.85 17.744 213.018 17.872C211.909 18.0427 211.066 18.2133 210.49 18.384C209.936 18.5333 209.445 18.7467 209.018 19.024C208.656 19.2587 208.378 19.536 208.186 19.856C208.016 20.176 207.93 20.5387 207.93 20.944C207.93 21.712 208.165 22.288 208.634 22.672C209.125 23.056 209.85 23.248 210.81 23.248ZM217.338 26L216.89 22.32C216.272 23.5147 215.333 24.5067 214.074 25.296C212.837 26.0853 211.269 26.48 209.37 26.48C207.386 26.48 205.882 26.032 204.858 25.136C203.856 24.24 203.354 23.0453 203.354 21.552C203.354 20.528 203.568 19.6427 203.994 18.896C204.421 18.128 205.008 17.5093 205.754 17.04C206.01 16.8693 206.266 16.72 206.522 16.592C206.8 16.464 207.066 16.3573 207.322 16.272C207.856 16.08 208.496 15.9093 209.242 15.76C209.989 15.6107 210.938 15.4507 212.09 15.28C213.733 15.0667 214.906 14.8107 215.61 14.512C216.336 14.192 216.698 13.6587 216.698 12.912C216.698 12.144 216.41 11.536 215.834 11.088C215.258 10.64 214.256 10.416 212.826 10.416C211.312 10.416 210.192 10.736 209.466 11.376C208.741 12.016 208.346 12.9227 208.282 14.096H203.962C204.112 12.0053 204.933 10.3307 206.426 9.07201C207.92 7.79201 209.978 7.15202 212.602 7.15202C213.605 7.15202 214.501 7.21602 215.29 7.34402C216.08 7.47202 216.773 7.67471 217.37 7.95201C218.565 8.46401 219.418 9.20002 219.93 10.16C220.464 11.12 220.73 12.2613 220.73 13.584V26H217.338ZM228.881 26H224.689V1.36002H228.881V26Z" fill="#1D252C"/>
</svg>
