<svg width="96" height="96" viewBox="0 0 96 96" fill="none" xmlns="http://www.w3.org/2000/svg">
<path d="M64.5 54V9.38318C64.5 4.17861 59.9929 -3.75228e-06 54.7223 -3.8147e-06H9.53892C4.2683 -3.87711e-06 5.9825e-07 4.21476 5.35755e-07 9.41932L0 54.0361C-6.24958e-08 59.2407 4.29601 64.5 9.56663 64.5H54.75C60.0206 64.5 64.5 67.6342 64.5 72.8387V89.3432C64.5 92.9997 67.4642 95.9639 71.1207 95.9639L89.3793 96C93.0358 96 96 93.0358 96 89.3793V70.0762C96 66.4197 93.0635 64.5 89.407 64.5H73.8279C68.5573 64.5 64.5 59.2046 64.5 54Z" fill="#FCDA01"/>
<path d="M53.2521 41.4543H48.1621C47.5684 41.4543 47.0539 41.0073 47.0539 40.4168V20.9543C47.0539 20.3638 46.6067 19.8543 46.013 19.8543H40.9231C40.3293 19.8543 39.7812 19.3448 39.7812 18.7543V13.6918C39.7812 13.1013 39.3677 12.6543 38.7739 12.6543H19.0039C18.4101 12.6543 17.963 13.1638 17.963 13.7543V18.8168C17.963 19.4073 17.4485 19.8543 16.8547 19.8543H11.7648C11.1711 19.8543 10.6902 20.3325 10.6902 20.9231V40.3855C10.6902 40.9761 11.1711 41.4543 11.7648 41.4543H16.8547C17.4485 41.4543 17.963 41.9638 17.963 42.5543V47.6168C17.963 48.2073 18.4101 48.6543 19.0039 48.6543H38.7739C39.3677 48.6543 39.7812 48.1448 39.7812 47.5543V42.4918C39.7812 41.9013 40.3293 41.4543 40.9231 41.4543H46.013C46.6067 41.4543 47.0539 41.9638 47.0539 42.5543V47.6168C47.0539 48.2073 47.5684 48.6543 48.1621 48.6543H53.2521C53.8458 48.6543 54.3266 48.1761 54.3266 47.5855V42.5231C54.3266 41.9325 53.8458 41.4543 53.2521 41.4543ZM38.7739 41.4543H19.0039C18.4101 41.4543 17.963 41.0073 17.963 40.4168V20.9543C17.963 20.3638 18.4101 19.8543 19.0039 19.8543H38.7739C39.3677 19.8543 39.7812 20.3013 39.7812 20.8918V40.3543C39.7812 40.9448 39.3677 41.4543 38.7739 41.4543Z" fill="#1D252C"/>
</svg>
