<svg width="141" height="40" fill="none" xmlns="http://www.w3.org/2000/svg"><g clip-path="url(#clip0_750_2854)" fill="#FCDA01"><path d="M129.252 31.999h3.914V6.566h-3.914v25.433zm7.827-25.435v3.81h3.914v-3.81h-3.914zm0 25.435h3.914V14.183h-3.914V32zm-35.92-21.624h3.914v-3.81h-3.914v3.81zm0 21.625h3.914V14.183h-3.914V32zM78.838 19.497c0-7.27-4.214-12.931-11.782-12.931-7.567 0-11.783 5.661-11.783 12.93 0 6.593 3.467 11.863 9.757 12.787v.356c0 3.281 2.63 5.94 5.871 5.94h5.87v-3.96h-7.827v-2.317c6.376-.868 9.894-6.165 9.894-12.805zm-11.564 9.121h-.437c-5.37 0-7.349-4.193-7.349-9.121 0-4.928 1.98-9.12 7.35-9.122h.436c5.37 0 7.349 4.194 7.349 9.122s-1.98 9.121-7.349 9.121zm26.057-4.438c0 2.549-1.079 4.717-3.915 4.717-2.836 0-3.914-2.168-3.914-4.717v-9.997h-3.914v10.522c0 5.059 2.319 7.72 6.707 7.72 2.532 0 4.007-1.124 4.82-2.41h.65v1.998h3.478V14.197H93.33v9.981l.002.002zm25.323-10.422c-2.2 0-3.966.81-5.249 2.166h-.653v-1.74h-3.766V40h3.914v-9.712h.505c1.285 1.359 3.051 2.166 5.249 2.166 4.952 0 7.711-4.092 7.711-9.348 0-5.257-2.759-9.35-7.711-9.35v.002zM117.623 29.1c-3.504 0-4.838-2.755-4.838-5.993 0-3.24 1.332-5.994 4.838-5.994 3.505 0 4.837 2.755 4.837 5.994 0 3.238-1.332 5.993-4.837 5.993zM46.28 32h-5.562a1.18 1.18 0 01-1.174-1.188V9.189A1.18 1.18 0 0038.37 8h-5.56a1.18 1.18 0 01-1.175-1.188V1.188A1.18 1.18 0 0030.462 0H9.084A1.18 1.18 0 007.91 1.188v5.624A1.18 1.18 0 016.735 8H1.174A1.18 1.18 0 000 9.188v21.624A1.18 1.18 0 001.174 32h5.56a1.18 1.18 0 011.175 1.188v5.624A1.18 1.18 0 009.083 40h21.379a1.18 1.18 0 001.174-1.188v-5.624A1.18 1.18 0 0132.81 32h5.56a1.18 1.18 0 011.174 1.188v5.624A1.18 1.18 0 0040.718 40h5.561a1.18 1.18 0 001.174-1.188v-5.624A1.18 1.18 0 0046.28 32zm-15.82 0H9.084a1.18 1.18 0 01-1.174-1.188V9.189A1.18 1.18 0 019.083 8h21.379a1.18 1.18 0 011.174 1.188v21.624A1.18 1.18 0 0130.462 32z"/></g><defs><clipPath id="clip0_750_2854"><path fill="#fff" d="M0 0h141v40H0z"/></clipPath></defs></svg>