<svg width="101" height="26" viewBox="0 0 101 26" fill="none" xmlns="http://www.w3.org/2000/svg">
<path d="M8.946 5.76799H4.306V13.096H8.882C10.332 13.096 11.452 12.776 12.242 12.136C13.052 11.496 13.458 10.568 13.458 9.35198C13.458 8.22128 13.095 7.34669 12.37 6.72799C11.666 6.08799 10.524 5.76799 8.946 5.76799ZM8.722 16.712H4.306V25H0.145996V2.18398H9.04201C12.135 2.18398 14.354 2.81328 15.698 4.07198C17.063 5.30928 17.746 6.97329 17.746 9.06399C17.746 10.5787 17.404 11.8053 16.722 12.744C16.06 13.6613 15.1 14.3333 13.842 14.76C14.994 15.1227 15.847 15.7413 16.402 16.616C16.956 17.4907 17.234 18.728 17.234 20.328V23.784C17.234 24.0613 17.276 24.3067 17.362 24.52C17.447 24.712 17.575 24.872 17.746 25H13.298C13.148 24.8933 13.031 24.7227 12.946 24.488C12.882 24.232 12.85 23.976 12.85 23.72V20.392C12.85 19.0693 12.54 18.1307 11.922 17.576C11.303 17 10.236 16.712 8.722 16.712ZM37.984 19.56C37.45 21.416 36.437 22.8667 34.944 23.912C33.472 24.9573 31.53 25.48 29.12 25.48C26.026 25.48 23.712 24.648 22.176 22.984C20.64 21.2987 19.872 19.0373 19.872 16.2V15.752C19.872 14.7707 19.968 13.864 20.16 13.032C20.352 12.1787 20.64 11.3893 21.024 10.664C21.792 9.23469 22.869 8.12528 24.256 7.33598C25.664 6.54668 27.328 6.15199 29.248 6.15199C30.826 6.15199 32.181 6.40798 33.312 6.91998C34.464 7.43198 35.402 8.12528 36.128 8.99998C36.853 9.87468 37.386 10.8667 37.728 11.976C38.069 13.0853 38.24 14.2267 38.24 15.4V17.352H24.032C24.202 18.8453 24.736 19.9973 25.632 20.808C26.549 21.6187 27.765 22.024 29.28 22.024C30.389 22.024 31.285 21.8107 31.968 21.384C32.65 20.9573 33.152 20.3493 33.472 19.56H37.984ZM29.28 9.47999C27.829 9.47999 26.656 9.88528 25.76 10.696C24.864 11.4853 24.298 12.6053 24.064 14.056H34.048C33.898 12.648 33.429 11.5387 32.64 10.728C31.872 9.89598 30.752 9.47999 29.28 9.47999ZM45.584 15.4V25H41.36V6.59998H44.912L45.296 10.28C45.786 9.02128 46.554 8.01868 47.6 7.27198C48.645 6.52528 49.957 6.15199 51.536 6.15199C53.754 6.15199 55.44 6.83468 56.592 8.19998C57.765 9.56528 58.352 11.3893 58.352 13.672V25H54.128V14.696C54.128 13.2027 53.84 12.0187 53.264 11.144C52.688 10.248 51.653 9.79999 50.16 9.79999C48.602 9.79999 47.45 10.312 46.704 11.336C45.957 12.3387 45.584 13.6933 45.584 15.4ZM72.262 21.096V25H69.894C69.041 25 68.273 24.9467 67.59 24.84C66.929 24.712 66.374 24.5413 65.926 24.328C65.009 23.8587 64.369 23.0907 64.006 22.024C63.665 20.9573 63.494 19.496 63.494 17.64V10.312H59.91V6.75998H61.542C61.841 6.75998 62.097 6.74929 62.31 6.72799C62.523 6.68529 62.705 6.63199 62.854 6.56799C63.153 6.41869 63.366 6.15199 63.494 5.76799C63.622 5.38399 63.707 4.81868 63.75 4.07198C63.771 3.66668 63.782 3.22928 63.782 2.75998C63.803 2.29068 63.814 1.91728 63.814 1.63998H67.398V6.59998H72.262V10.312H67.398V16.936C67.398 17.5333 67.419 18.0667 67.462 18.536C67.505 18.984 67.569 19.3573 67.654 19.656C67.803 20.2533 68.134 20.648 68.646 20.84C69.158 21.0107 69.926 21.096 70.95 21.096H72.262ZM79.46 25H75.268V0.359985H79.46V25ZM100.64 19.56C100.106 21.416 99.093 22.8667 97.6 23.912C96.128 24.9573 94.186 25.48 91.776 25.48C88.682 25.48 86.368 24.648 84.832 22.984C83.296 21.2987 82.528 19.0373 82.528 16.2V15.752C82.528 14.7707 82.624 13.864 82.816 13.032C83.008 12.1787 83.296 11.3893 83.68 10.664C84.448 9.23469 85.525 8.12528 86.912 7.33598C88.32 6.54668 89.984 6.15199 91.904 6.15199C93.482 6.15199 94.837 6.40798 95.968 6.91998C97.12 7.43198 98.058 8.12528 98.784 8.99998C99.509 9.87468 100.042 10.8667 100.384 11.976C100.725 13.0853 100.896 14.2267 100.896 15.4V17.352H86.688C86.858 18.8453 87.392 19.9973 88.288 20.808C89.205 21.6187 90.421 22.024 91.936 22.024C93.045 22.024 93.941 21.8107 94.624 21.384C95.306 20.9573 95.808 20.3493 96.128 19.56H100.64ZM91.936 9.47999C90.485 9.47999 89.312 9.88528 88.416 10.696C87.52 11.4853 86.954 12.6053 86.72 14.056H96.704C96.554 12.648 96.085 11.5387 95.296 10.728C94.528 9.89598 93.408 9.47999 91.936 9.47999Z" fill="#1D252C"/>
</svg>
