<svg width="84" height="84" viewBox="0 0 84 84" fill="none" xmlns="http://www.w3.org/2000/svg">
<path d="M56 36.75V75.7897C56 80.3437 52.4938 84 47.882 84H8.34656C3.73476 84 5.23469e-07 80.3121 4.68785e-07 75.7581L0 36.7184C-5.46838e-08 32.1644 3.73476 28 8.34656 28H47.882C52.4938 28 56 24.8201 56 20.2661V5.82473C56 2.62529 59.0312 0.0316281 62.2306 0.0316281L78.2069 0C81.4063 -3.78892e-08 84 2.59366 84 5.79311V22.6833C84 25.8827 81.4063 28 78.2069 28H64.5751C59.9634 28 56 32.196 56 36.75Z" fill="#FCDA01"/>
<g clip-path="url(#clip0_1370_1072)">
<path d="M23.3327 66.4999H15.166V43.1665H40.8327V54.8332" stroke="#1D252C" stroke-width="2.1" stroke-linejoin="round"/>
<path d="M19.8327 47.8333C20.477 47.8333 20.9993 47.311 20.9993 46.6667C20.9993 46.0223 20.477 45.5 19.8327 45.5C19.1884 45.5 18.666 46.0223 18.666 46.6667C18.666 47.311 19.1884 47.8333 19.8327 47.8333Z" fill="#1D252C"/>
<path d="M24.5007 47.8333C25.145 47.8333 25.6673 47.311 25.6673 46.6667C25.6673 46.0223 25.145 45.5 24.5007 45.5C23.8563 45.5 23.334 46.0223 23.334 46.6667C23.334 47.311 23.8563 47.8333 24.5007 47.8333Z" fill="#1D252C"/>
<path d="M15.166 50.1665H40.8327" stroke="#1D252C" stroke-width="2.1" stroke-linejoin="round"/>
<path d="M40.8333 62.9999C40.8333 62.9999 37.3333 68.8332 32.6667 68.8332C28 68.8332 24.5 62.9999 24.5 62.9999C24.5 62.9999 28 57.1665 32.6667 57.1665C37.3333 57.1665 40.8333 62.9999 40.8333 62.9999Z" stroke="#1D252C" stroke-width="2.1" stroke-linejoin="round"/>
<path d="M32.6673 65.3332C33.956 65.3332 35.0007 64.2886 35.0007 62.9999C35.0007 61.7112 33.956 60.6665 32.6673 60.6665C31.3786 60.6665 30.334 61.7112 30.334 62.9999C30.334 64.2886 31.3786 65.3332 32.6673 65.3332Z" fill="#1D252C"/>
</g>
<defs>
<clipPath id="clip0_1370_1072">
<rect width="28" height="28" fill="white" transform="translate(14 42)"/>
</clipPath>
</defs>
</svg>
