<svg width="300" height="46" viewBox="0 0 300 46" fill="none" xmlns="http://www.w3.org/2000/svg">
<path d="M0.03125 7.59599L8.06495 7.597L12.9498 7.59801V2.742L0.03125 7.59599Z" fill="#1D252C"/>
<path d="M12.9453 2.74197V19.886L19.0465 0.448975L12.9453 2.74197Z" fill="#1D252C"/>
<path d="M12.9475 7.59802H8.0625L12.9475 19.886V7.59802Z" fill="#1D252C"/>
<path d="M0.03125 7.59601L9.31765 10.75L8.06495 7.59702L0.03125 7.59601Z" fill="#1D252C"/>
<path d="M29.6245 15.374C29.5537 15.445 29.4356 15.534 29.2706 15.64C29.1053 15.747 28.8901 15.853 28.6247 15.96C28.3593 16.066 28.0347 16.158 27.6515 16.235C27.268 16.312 26.8287 16.35 26.3333 16.35C25.3777 16.35 24.5519 16.196 23.856 15.889C23.1597 15.581 22.5847 15.152 22.1307 14.602C21.6765 14.051 21.3433 13.4 21.131 12.648C20.9186 11.897 20.8125 11.071 20.8125 10.172C20.8125 9.272 20.9275 8.441 21.1575 7.677C21.3875 6.914 21.7326 6.25401 22.1926 5.69701C22.6527 5.14101 23.2278 4.706 23.9179 4.392C24.608 4.079 25.4189 3.922 26.3509 3.922C26.811 3.922 27.2269 3.96301 27.5985 4.04601C27.9701 4.12901 28.2944 4.227 28.5717 4.339C28.8487 4.452 29.0788 4.57 29.2618 4.694C29.4446 4.818 29.5831 4.922 29.6777 5.005C29.7838 5.1 29.8751 5.212 29.952 5.342C30.0286 5.473 30.067 5.61501 30.067 5.76801C30.067 6.00501 29.9785 6.242 29.8015 6.479C29.6246 6.715 29.4299 6.934 29.2175 7.136C29.076 6.993 28.9168 6.849 28.7399 6.701C28.5629 6.553 28.3652 6.423 28.1471 6.31C27.9287 6.198 27.6809 6.103 27.4038 6.026C27.1265 5.949 26.8169 5.91 26.4749 5.91C25.8733 5.91 25.369 6.032 24.962 6.274C24.555 6.517 24.2276 6.834 23.9799 7.224C23.7322 7.615 23.5552 8.062 23.449 8.565C23.3429 9.068 23.2898 9.58 23.2898 10.101C23.2898 10.657 23.3429 11.19 23.449 11.698C23.5552 12.207 23.7379 12.657 23.9976 13.048C24.2569 13.438 24.5962 13.752 25.0151 13.989C25.4336 14.226 25.9556 14.344 26.5811 14.344C26.9111 14.344 27.215 14.303 27.4923 14.22C27.7693 14.137 28.0143 14.036 28.2266 13.918C28.439 13.8 28.6248 13.675 28.784 13.545C28.9433 13.415 29.076 13.303 29.1822 13.208C29.253 13.291 29.3353 13.391 29.4299 13.51C29.5249 13.629 29.6135 13.753 29.6953 13.882C29.7777 14.013 29.8485 14.143 29.9076 14.273C29.9665 14.403 29.9961 14.522 29.9961 14.628C29.9961 14.782 29.9665 14.912 29.9076 15.019C29.8484 15.125 29.7541 15.244 29.6245 15.374ZM38.7434 14.012C38.7434 14.953 38.8797 15.638 39.1528 16.066C38.9392 16.149 38.7404 16.209 38.5564 16.245C38.3723 16.281 38.1796 16.298 37.9779 16.298C37.5507 16.298 37.2272 16.215 37.0078 16.048C36.7881 15.882 36.6487 15.644 36.5895 15.334C36.3282 15.608 35.9841 15.84 35.557 16.031C35.1297 16.221 34.6074 16.316 33.9904 16.316C33.67 16.316 33.3496 16.272 33.0292 16.183C32.7087 16.094 32.4178 15.948 32.1568 15.747C31.8956 15.545 31.6821 15.275 31.516 14.937C31.3497 14.598 31.2668 14.186 31.2668 13.699C31.2668 13.094 31.412 12.601 31.7029 12.221C31.9936 11.841 32.3585 11.542 32.7978 11.322C33.2367 11.103 33.7115 10.952 34.2219 10.868C34.732 10.785 35.201 10.732 35.6282 10.708C35.7707 10.696 35.91 10.69 36.0465 10.69H36.4293V10.365C36.4293 9.90701 36.3074 9.58201 36.0643 9.38901C35.8209 9.19701 35.4262 9.10001 34.8805 9.10001C34.3701 9.10001 33.9161 9.18401 33.5187 9.35001C33.1209 9.51701 32.7323 9.707 32.3527 9.922C32.1864 9.719 32.0528 9.496 31.9521 9.252C31.8512 9.008 31.8008 8.826 31.8008 8.707C31.8008 8.541 31.8926 8.38001 32.0768 8.22501C32.2606 8.07001 32.5129 7.92999 32.8334 7.80499C33.1539 7.67999 33.5215 7.579 33.9371 7.502C34.3523 7.424 34.7915 7.38499 35.2544 7.38499C35.8952 7.38499 36.4382 7.451 36.8832 7.582C37.3282 7.713 37.6902 7.915 37.9691 8.189C38.2478 8.463 38.4467 8.806 38.5654 9.216C38.6839 9.627 38.7435 10.107 38.7435 10.654L38.7434 14.012ZM36.4647 11.94H36.2156C36.1324 11.94 36.0492 11.946 35.9664 11.958C35.6695 11.982 35.3758 12.018 35.0852 12.065C34.7943 12.113 34.5361 12.196 34.3109 12.315C34.0853 12.434 33.9014 12.589 33.759 12.78C33.6166 12.97 33.5454 13.215 33.5454 13.512C33.5454 13.846 33.6402 14.128 33.8301 14.36C34.0198 14.593 34.3403 14.709 34.7915 14.709C35.0168 14.709 35.2305 14.679 35.4323 14.619C35.634 14.56 35.812 14.483 35.9664 14.387C36.1205 14.292 36.2423 14.188 36.3313 14.075C36.4203 13.962 36.4648 13.858 36.4648 13.762L36.4647 11.94ZM43.1757 8.42101C43.3649 8.19501 43.6608 7.96599 44.063 7.73399C44.4652 7.50099 44.9739 7.38499 45.5892 7.38499C46.027 7.38499 46.444 7.45999 46.8404 7.60899C47.2365 7.75799 47.5886 7.999 47.8962 8.332C48.2038 8.666 48.4493 9.10601 48.6328 9.65401C48.8161 10.202 48.9079 10.875 48.9079 11.672C48.9079 12.601 48.8013 13.366 48.5884 13.967C48.3753 14.569 48.1004 15.045 47.7634 15.397C47.4262 15.748 47.0504 15.995 46.6365 16.138C46.2224 16.281 45.8082 16.352 45.3943 16.352C45.0512 16.352 44.7523 16.313 44.4982 16.236C44.2436 16.158 44.0278 16.072 43.8503 15.977C43.6729 15.882 43.5369 15.787 43.4424 15.691C43.3478 15.596 43.2885 15.53 43.2649 15.495V19.885H40.8439V7.63499C40.9034 7.62399 40.9752 7.61201 41.0591 7.60001C41.131 7.58801 41.2146 7.579 41.3103 7.573C41.4059 7.567 41.5196 7.564 41.651 7.564C42.0454 7.564 42.3803 7.63 42.6554 7.761C42.9303 7.892 43.104 8.11201 43.1757 8.42101ZM46.38 11.726C46.38 11.369 46.3505 11.035 46.2915 10.726C46.2326 10.416 46.1352 10.148 45.9995 9.922C45.8638 9.696 45.6807 9.52 45.4507 9.395C45.2203 9.27 44.9403 9.207 44.6101 9.207C44.1145 9.207 43.7693 9.303 43.5745 9.493C43.3799 9.684 43.2826 9.892 43.2826 10.118V13.905C43.3768 14 43.5448 14.113 43.7868 14.244C44.0288 14.376 44.3088 14.441 44.6276 14.441C45.2295 14.441 45.672 14.203 45.9552 13.726C46.2385 13.25 46.38 12.583 46.38 11.726ZM50.7764 14.798C50.6932 14.56 50.6399 14.31 50.6162 14.048C50.5923 13.786 50.5806 13.524 50.5806 13.262V4.974C50.6635 4.962 50.7526 4.95 50.8476 4.938C50.9304 4.927 51.0195 4.918 51.1146 4.911C51.2095 4.906 51.3043 4.903 51.3994 4.903C51.5891 4.903 51.7792 4.92099 51.9691 4.95599C52.1588 4.99199 52.3309 5.063 52.4854 5.17C52.6395 5.278 52.7641 5.424 52.8592 5.608C52.9541 5.793 53.002 6.03399 53.002 6.33099V7.60001H55.494V9.40401H53.002V13.213C53.002 14.043 53.34 14.459 54.016 14.459C54.182 14.459 54.339 14.432 54.488 14.378C54.636 14.325 54.77 14.265 54.889 14.2C55.007 14.134 55.111 14.066 55.2 13.994C55.289 13.923 55.351 13.869 55.387 13.834C55.565 14.096 55.701 14.323 55.796 14.514C55.891 14.706 55.939 14.886 55.939 15.054C55.939 15.21 55.877 15.364 55.752 15.514C55.627 15.664 55.452 15.802 55.227 15.928C55.001 16.055 54.728 16.157 54.408 16.235C54.088 16.313 53.737 16.352 53.358 16.352C52.6216 16.352 52.0491 16.209 51.6397 15.924C51.2303 15.638 50.9424 15.262 50.7764 14.798ZM61.625 14.566C61.923 14.566 62.185 14.533 62.412 14.468C62.638 14.402 62.84 14.322 63.019 14.227C63.197 14.131 63.352 14.027 63.483 13.914C63.614 13.801 63.733 13.697 63.841 13.601C63.983 13.78 64.132 14.009 64.287 14.289C64.442 14.569 64.519 14.798 64.519 14.977C64.519 15.239 64.371 15.477 64.075 15.691C63.825 15.882 63.472 16.046 63.015 16.182C62.558 16.319 62.021 16.388 61.404 16.388C60.846 16.388 60.297 16.316 59.758 16.173C59.218 16.031 58.737 15.78 58.316 15.423C57.894 15.066 57.553 14.587 57.292 13.985C57.031 13.384 56.9 12.625 56.9 11.708C56.9 10.958 57.016 10.312 57.247 9.77C57.479 9.228 57.787 8.77901 58.173 8.42101C58.559 8.06401 58.995 7.80199 59.482 7.63499C59.968 7.46899 60.467 7.38499 60.977 7.38499C61.642 7.38499 62.205 7.49 62.668 7.698C63.131 7.906 63.508 8.18599 63.799 8.53799C64.089 8.88899 64.3 9.291 64.43 9.743C64.561 10.196 64.626 10.672 64.626 11.172V11.422C64.626 11.518 64.623 11.619 64.617 11.726C64.611 11.833 64.605 11.937 64.6 12.038C64.593 12.14 64.585 12.22 64.573 12.28H59.321C59.369 12.935 59.571 13.479 59.929 13.914C60.286 14.349 60.851 14.566 61.625 14.566ZM62.437 10.94C62.437 10.368 62.326 9.904 62.105 9.547C61.885 9.189 61.487 9.011 60.915 9.011C60.425 9.011 60.034 9.181 59.742 9.52C59.45 9.859 59.304 10.333 59.304 10.94H62.437ZM68.839 8.467C68.91 8.36 69.005 8.242 69.124 8.112C69.243 7.982 69.388 7.864 69.56 7.758C69.732 7.651 69.922 7.563 70.13 7.492C70.337 7.421 70.56 7.38499 70.798 7.38499C70.94 7.38499 71.091 7.39701 71.251 7.42101C71.412 7.44501 71.56 7.489 71.696 7.554C71.833 7.619 71.943 7.707 72.026 7.819C72.109 7.932 72.15 8.06999 72.15 8.23599C72.15 8.49499 72.085 8.794 71.955 9.131C71.824 9.468 71.694 9.755 71.563 9.993C71.361 9.827 71.159 9.69899 70.958 9.60899C70.756 9.51999 70.518 9.47501 70.246 9.47501C69.878 9.47501 69.569 9.583 69.32 9.798C69.071 10.013 68.946 10.269 68.946 10.568V16.35H66.525V7.63499C66.584 7.62399 66.656 7.61201 66.739 7.60001C66.81 7.58801 66.893 7.579 66.988 7.573C67.083 7.567 67.196 7.564 67.326 7.564C67.706 7.564 68.035 7.638 68.314 7.785C68.593 7.933 68.768 8.16 68.839 8.467ZM75.723 8.467C75.794 8.36 75.889 8.242 76.007 8.112C76.126 7.982 76.271 7.864 76.444 7.758C76.616 7.651 76.805 7.563 77.013 7.492C77.221 7.421 77.443 7.38499 77.681 7.38499C77.823 7.38499 77.974 7.39701 78.135 7.42101C78.295 7.44501 78.443 7.489 78.58 7.554C78.716 7.619 78.826 7.707 78.909 7.819C78.992 7.932 79.034 8.06999 79.034 8.23599C79.034 8.49499 78.968 8.794 78.838 9.131C78.707 9.468 78.577 9.755 78.446 9.993C78.244 9.827 78.043 9.69899 77.841 9.60899C77.639 9.51999 77.402 9.47501 77.129 9.47501C76.761 9.47501 76.452 9.583 76.203 9.798C75.954 10.013 75.829 10.269 75.829 10.568V16.35H73.408V7.63499C73.468 7.62399 73.539 7.61201 73.622 7.60001C73.693 7.58801 73.776 7.579 73.871 7.573C73.966 7.567 74.079 7.564 74.209 7.564C74.589 7.564 74.919 7.638 75.197 7.785C75.476 7.933 75.651 8.16 75.723 8.467ZM87.276 14.012C87.276 14.953 87.412 15.638 87.685 16.066C87.472 16.149 87.273 16.209 87.089 16.245C86.905 16.281 86.712 16.298 86.51 16.298C86.083 16.298 85.76 16.215 85.54 16.048C85.32 15.882 85.181 15.644 85.122 15.334C84.861 15.608 84.517 15.84 84.089 16.031C83.662 16.221 83.14 16.316 82.523 16.316C82.202 16.316 81.882 16.272 81.562 16.183C81.241 16.094 80.95 15.948 80.689 15.747C80.428 15.545 80.215 15.275 80.048 14.937C79.882 14.598 79.799 14.186 79.799 13.699C79.799 13.094 79.944 12.601 80.235 12.221C80.526 11.841 80.891 11.542 81.33 11.322C81.769 11.103 82.244 10.952 82.754 10.868C83.264 10.785 83.733 10.732 84.161 10.708C84.303 10.696 84.442 10.69 84.579 10.69H84.962V10.365C84.962 9.90701 84.84 9.58201 84.597 9.38901C84.353 9.19701 83.959 9.10001 83.413 9.10001C82.903 9.10001 82.449 9.18401 82.051 9.35001C81.653 9.51701 81.265 9.707 80.885 9.922C80.719 9.719 80.585 9.496 80.485 9.252C80.384 9.008 80.333 8.826 80.333 8.707C80.333 8.541 80.425 8.38001 80.609 8.22501C80.793 8.07001 81.045 7.92999 81.366 7.80499C81.686 7.67999 82.054 7.579 82.469 7.502C82.885 7.424 83.324 7.38499 83.787 7.38499C84.428 7.38499 84.971 7.451 85.416 7.582C85.861 7.713 86.223 7.915 86.502 8.189C86.78 8.463 86.979 8.806 87.098 9.216C87.216 9.627 87.276 10.107 87.276 10.654V14.012ZM84.997 11.94H84.748C84.665 11.94 84.582 11.946 84.499 11.958C84.202 11.982 83.908 12.018 83.618 12.065C83.327 12.113 83.069 12.196 82.843 12.315C82.618 12.434 82.434 12.589 82.291 12.78C82.149 12.97 82.078 13.215 82.078 13.512C82.078 13.846 82.173 14.128 82.363 14.36C82.552 14.593 82.873 14.709 83.324 14.709C83.549 14.709 83.763 14.679 83.965 14.619C84.167 14.56 84.344 14.483 84.499 14.387C84.653 14.292 84.775 14.188 84.864 14.075C84.953 13.962 84.997 13.858 84.997 13.762V11.94Z" fill="#1D252C"/>
<path d="M0.206177 42.149V40.713L4.43828 34.026H5.63638V36.071H4.90578L2.05678 40.586V40.664H7.96428V42.149H0.206177ZM4.96428 44V41.711L4.98378 41.068V34.026H6.68828V44H4.96428ZM10.3446 44.107C10.0491 44.107 9.79588 44.003 9.58478 43.795C9.37378 43.588 9.26988 43.334 9.27308 43.036C9.26988 42.744 9.37378 42.494 9.58478 42.286C9.79588 42.078 10.0491 41.974 10.3446 41.974C10.6303 41.974 10.8786 42.078 11.0897 42.286C11.304 42.494 11.4127 42.744 11.416 43.036C11.4127 43.234 11.3608 43.414 11.2601 43.576C11.1627 43.739 11.0329 43.869 10.8705 43.966C10.7114 44.06 10.5361 44.107 10.3446 44.107ZM16.5637 44.136C15.9144 44.136 15.3332 44.015 14.8202 43.771C14.3072 43.524 13.8998 43.187 13.5978 42.758C13.2991 42.33 13.14 41.839 13.1205 41.287H14.8738C14.9062 41.696 15.0832 42.031 15.4046 42.291C15.7261 42.547 16.1124 42.675 16.5637 42.675C16.9176 42.675 17.2325 42.594 17.5085 42.432C17.7845 42.269 18.002 42.044 18.1611 41.755C18.3202 41.466 18.3981 41.136 18.3949 40.766C18.3981 40.39 18.3186 40.055 18.1562 39.763C17.9939 39.471 17.7715 39.242 17.489 39.076C17.2066 38.907 16.8819 38.823 16.515 38.823C16.2163 38.82 15.9225 38.875 15.6335 38.989C15.3446 39.102 15.1157 39.252 14.9468 39.437L13.3153 39.169L13.8364 34.026H19.6222V35.536H15.3316L15.0442 38.18H15.1027C15.2877 37.963 15.5491 37.782 15.8868 37.64C16.2244 37.494 16.5946 37.42 16.9972 37.42C17.6011 37.42 18.14 37.563 18.614 37.849C19.0881 38.131 19.4614 38.521 19.7342 39.018C20.0069 39.515 20.1433 40.083 20.1433 40.722C20.1433 41.381 19.9907 41.969 19.6855 42.485C19.3835 42.998 18.9631 43.403 18.4241 43.698C17.8884 43.99 17.2683 44.136 16.5637 44.136ZM25.8657 33.558L22.6514 45.5H21.1075L24.3218 33.558H25.8657ZM30.4387 44.136C29.7894 44.136 29.2082 44.015 28.6952 43.771C28.1822 43.524 27.7747 43.187 27.4728 42.758C27.1741 42.33 27.015 41.839 26.9955 41.287H28.7488C28.7812 41.696 28.9582 42.031 29.2796 42.291C29.601 42.547 29.9874 42.675 30.4387 42.675C30.7926 42.675 31.1075 42.594 31.3835 42.432C31.6595 42.269 31.877 42.044 32.0361 41.755C32.1952 41.466 32.2731 41.136 32.2699 40.766C32.2731 40.39 32.1936 40.055 32.0312 39.763C31.8689 39.471 31.6465 39.242 31.364 39.076C31.0816 38.907 30.7569 38.823 30.39 38.823C30.0913 38.82 29.7975 38.875 29.5085 38.989C29.2196 39.102 28.9907 39.252 28.8218 39.437L27.1903 39.169L27.7114 34.026H33.4972V35.536H29.2066L28.9192 38.18H28.9777C29.1627 37.963 29.4241 37.782 29.7618 37.64C30.0994 37.494 30.4696 37.42 30.8722 37.42C31.476 37.42 32.015 37.563 32.489 37.849C32.9631 38.131 33.3364 38.521 33.6092 39.018C33.8819 39.515 34.0183 40.083 34.0183 40.722C34.0183 41.381 33.8657 41.969 33.5605 42.485C33.2585 42.998 32.8381 43.403 32.2991 43.698C31.7634 43.99 31.1433 44.136 30.4387 44.136Z" fill="#597287"/>
<path d="M50.0061 33.506C50.3096 32.633 51.5442 32.633 51.8477 33.506L52.7195 36.014C52.8533 36.399 53.213 36.661 53.62 36.669L56.275 36.723C57.199 36.742 57.581 37.916 56.844 38.474L54.728 40.079C54.403 40.325 54.266 40.747 54.384 41.138L55.153 43.679C55.421 44.564 54.422 45.289 53.663 44.761L51.4837 43.245C51.149 43.012 50.7048 43.012 50.3701 43.245L48.1907 44.761C47.432 45.289 46.4332 44.564 46.7008 43.679L47.4697 41.138C47.5878 40.747 47.4505 40.325 47.1256 40.079L45.0097 38.474C44.2732 37.916 44.6548 36.742 45.5788 36.723L48.2335 36.669C48.6411 36.661 49.0005 36.399 49.1344 36.014L50.0061 33.506Z" fill="#FCDA01"/>
<path d="M68.006 33.506C68.31 32.633 69.544 32.633 69.848 33.506L70.719 36.014C70.853 36.399 71.213 36.661 71.62 36.669L74.275 36.723C75.199 36.742 75.581 37.916 74.844 38.474L72.728 40.079C72.403 40.325 72.266 40.747 72.384 41.138L73.153 43.679C73.421 44.564 72.422 45.289 71.663 44.761L69.484 43.245C69.149 43.012 68.705 43.012 68.37 43.245L66.191 44.761C65.432 45.289 64.433 44.564 64.701 43.679L65.47 41.138C65.588 40.747 65.45 40.325 65.126 40.079L63.01 38.474C62.273 37.916 62.655 36.742 63.579 36.723L66.233 36.669C66.641 36.661 67 36.399 67.134 36.014L68.006 33.506Z" fill="#FCDA01"/>
<path d="M104.006 33.506C104.31 32.633 105.544 32.633 105.848 33.506L106.719 36.014C106.853 36.399 107.213 36.661 107.62 36.669L110.275 36.723C111.199 36.742 111.581 37.916 110.844 38.474L108.728 40.079C108.403 40.325 108.266 40.747 108.384 41.138L109.153 43.679C109.421 44.564 108.422 45.289 107.663 44.761L105.484 43.245C105.149 43.012 104.705 43.012 104.37 43.245L102.191 44.761C101.432 45.289 100.433 44.564 100.701 43.679L101.47 41.138C101.588 40.747 101.45 40.325 101.126 40.079L99.01 38.474C98.273 37.916 98.655 36.742 99.579 36.723L102.233 36.669C102.641 36.661 103 36.399 103.134 36.014L104.006 33.506Z" fill="#FCDA01"/>
<path d="M86.006 33.506C86.31 32.633 87.544 32.633 87.848 33.506L88.719 36.014C88.853 36.399 89.213 36.661 89.62 36.669L92.275 36.723C93.199 36.742 93.581 37.916 92.844 38.474L90.728 40.079C90.403 40.325 90.266 40.747 90.384 41.138L91.153 43.679C91.421 44.564 90.422 45.289 89.663 44.761L87.484 43.245C87.149 43.012 86.705 43.012 86.37 43.245L84.191 44.761C83.432 45.289 82.433 44.564 82.701 43.679L83.47 41.138C83.588 40.747 83.45 40.325 83.126 40.079L81.01 38.474C80.273 37.916 80.655 36.742 81.579 36.723L84.233 36.669C84.641 36.661 85 36.399 85.134 36.014L86.006 33.506Z" fill="#FCDA01"/>
<path d="M122.006 33.506C122.31 32.633 123.544 32.633 123.848 33.506L124.719 36.014C124.853 36.399 125.213 36.661 125.62 36.669L128.275 36.723C129.199 36.742 129.581 37.916 128.844 38.474L126.728 40.079C126.403 40.325 126.266 40.747 126.384 41.138L127.153 43.679C127.421 44.564 126.422 45.289 125.663 44.761L123.484 43.245C123.149 43.012 122.705 43.012 122.37 43.245L120.191 44.761C119.432 45.289 118.433 44.564 118.701 43.679L119.47 41.138C119.588 40.747 119.45 40.325 119.126 40.079L117.01 38.474C116.273 37.916 116.655 36.742 117.579 36.723L120.233 36.669C120.641 36.661 121 36.399 121.134 36.014L122.006 33.506Z" fill="#FCDA01"/>
<path d="M156.034 9V39" stroke="white" stroke-opacity="0.12" stroke-width="1.06715"/>
<mask id="mask0_7_528" style="mask-type:luminance" maskUnits="userSpaceOnUse" x="231" y="0" width="21" height="21">
<path d="M251.5 0H231.109V20.5714H251.5V0Z" fill="white"/>
</mask>
<g mask="url(#mask0_7_528)">
<path d="M241.305 20.571C246.936 20.571 251.5 15.966 251.5 10.286C251.5 4.605 246.936 0 241.305 0C235.674 0 231.109 4.605 231.109 10.286C231.109 15.966 235.674 20.571 241.305 20.571Z" fill="#1D252C"/>
<path d="M245.713 7.87902H243.971C244.018 7.60302 244.187 7.44902 244.53 7.27402L244.85 7.11002C245.423 6.81302 245.729 6.47802 245.729 5.93102C245.729 5.58702 245.596 5.31602 245.333 5.12002C245.07 4.92502 244.76 4.82802 244.397 4.82802C244.117 4.82502 243.841 4.90403 243.604 5.05703C243.366 5.20503 243.188 5.39602 243.078 5.63502L243.582 6.14503C243.778 5.74603 244.061 5.55002 244.434 5.55002C244.75 5.55002 244.944 5.71501 244.944 5.94301C244.944 6.13501 244.85 6.29302 244.487 6.47802L244.281 6.57902C243.835 6.80702 243.525 7.06803 243.345 7.36503C243.166 7.66103 243.078 8.03301 243.078 8.48401V8.60702H245.713V7.87902Z" fill="white"/>
<path d="M245.481 9.44501H242.598L241.156 11.963H244.04L245.481 14.483L246.923 11.963L245.481 9.44501Z" fill="white"/>
<path d="M241.404 13.645C239.569 13.645 238.074 12.137 238.074 10.285C238.074 8.43402 239.569 6.92601 241.404 6.92601L242.544 4.52101C242.168 4.44601 241.787 4.40802 241.404 4.40802C238.186 4.40802 235.578 7.03902 235.578 10.285C235.578 13.532 238.186 16.163 241.404 16.163C242.637 16.165 243.839 15.77 244.834 15.035L243.573 12.83C242.971 13.356 242.2 13.645 241.404 13.645Z" fill="white"/>
</g>
<path d="M185.809 8.66403C185.745 8.44203 185.656 8.24603 185.542 8.07503C185.427 7.90203 185.287 7.75502 185.121 7.63702C184.958 7.51502 184.771 7.42203 184.56 7.35803C184.352 7.29403 184.121 7.26202 183.867 7.26202C183.394 7.26202 182.977 7.38103 182.618 7.61803C182.262 7.85603 181.985 8.20103 181.785 8.65503C181.586 9.10503 181.487 9.65603 181.487 10.308C181.487 10.959 181.585 11.513 181.781 11.97C181.977 12.426 182.255 12.775 182.614 13.015C182.973 13.253 183.397 13.371 183.885 13.371C184.329 13.371 184.708 13.292 185.021 13.134C185.338 12.973 185.58 12.746 185.745 12.454C185.914 12.161 185.999 11.816 185.999 11.417L186.397 11.477H184.008V9.98804H187.886V11.166C187.886 11.988 187.714 12.694 187.37 13.285C187.026 13.872 186.553 14.326 185.949 14.645C185.346 14.962 184.655 15.12 183.876 15.12C183.007 15.12 182.244 14.927 181.586 14.54C180.929 14.151 180.416 13.598 180.048 12.883C179.683 12.164 179.5 11.312 179.5 10.326C179.5 9.56803 179.609 8.89203 179.826 8.29903C180.046 7.70203 180.354 7.19704 180.749 6.78304C181.144 6.36904 181.604 6.05403 182.129 5.83803C182.654 5.62203 183.223 5.51404 183.836 5.51404C184.361 5.51404 184.849 5.59102 185.302 5.74702C185.754 5.89902 186.156 6.11503 186.506 6.39503C186.859 6.67503 187.147 7.00803 187.37 7.39503C187.593 7.77803 187.737 8.20103 187.8 8.66403H185.809Z" fill="#1D252C"/>
<path d="M189.304 14.992V13.568L192.603 10.486C192.884 10.212 193.119 9.96503 193.309 9.74603C193.502 9.52703 193.648 9.31204 193.748 9.10204C193.848 8.88904 193.897 8.65902 193.897 8.41302C193.897 8.13902 193.835 7.90303 193.712 7.70503C193.588 7.50403 193.419 7.35103 193.205 7.24403C192.991 7.13503 192.748 7.08003 192.476 7.08003C192.193 7.08003 191.945 7.13804 191.734 7.25304C191.523 7.36904 191.36 7.53504 191.245 7.75104C191.131 7.96704 191.073 8.22403 191.073 8.52203H189.213C189.213 7.91103 189.351 7.38003 189.625 6.92903C189.9 6.47903 190.284 6.13003 190.779 5.88303C191.274 5.63703 191.844 5.51404 192.49 5.51404C193.154 5.51404 193.731 5.63203 194.223 5.87003C194.718 6.10403 195.103 6.43003 195.377 6.84703C195.652 7.26403 195.789 7.74204 195.789 8.28104C195.789 8.63404 195.72 8.98203 195.581 9.32603C195.445 9.67003 195.202 10.052 194.852 10.472C194.502 10.889 194.009 11.39 193.372 11.974L192.019 13.312V13.376H195.911V14.992H189.304Z" fill="#1D252C"/>
<path d="M205.363 8.33102C205.327 7.96202 205.172 7.67603 204.897 7.47203C204.622 7.26803 204.25 7.16603 203.779 7.16603C203.459 7.16603 203.189 7.21202 202.969 7.30302C202.749 7.39202 202.58 7.51503 202.462 7.67303C202.348 7.83203 202.29 8.01104 202.29 8.21204C202.284 8.37904 202.319 8.52602 202.394 8.65002C202.473 8.77502 202.58 8.88304 202.716 8.97504C202.851 9.06304 203.008 9.14003 203.186 9.20703C203.364 9.27103 203.554 9.32602 203.757 9.37202L204.589 9.57303C204.994 9.66403 205.365 9.78603 205.703 9.93803C206.041 10.09 206.333 10.277 206.581 10.499C206.828 10.722 207.02 10.983 207.155 11.285C207.294 11.586 207.365 11.932 207.368 12.321C207.365 12.893 207.22 13.39 206.934 13.81C206.65 14.227 206.24 14.551 205.703 14.782C205.169 15.01 204.524 15.125 203.77 15.125C203.022 15.125 202.37 15.009 201.815 14.778C201.263 14.546 200.831 14.204 200.521 13.75C200.213 13.294 200.052 12.729 200.036 12.056H201.933C201.954 12.37 202.043 12.632 202.2 12.842C202.36 13.049 202.572 13.205 202.838 13.312C203.106 13.415 203.41 13.467 203.747 13.467C204.079 13.467 204.368 13.418 204.612 13.321C204.859 13.224 205.051 13.088 205.187 12.915C205.322 12.741 205.39 12.542 205.39 12.317C205.39 12.107 205.328 11.93 205.205 11.787C205.084 11.644 204.906 11.522 204.671 11.422C204.438 11.321 204.153 11.23 203.815 11.148L202.806 10.892C202.025 10.7 201.408 10.401 200.955 9.99303C200.503 9.58503 200.278 9.03502 200.281 8.34402C200.278 7.77802 200.427 7.28402 200.729 6.86102C201.034 6.43702 201.451 6.10703 201.982 5.87003C202.513 5.63203 203.117 5.51404 203.793 5.51404C204.481 5.51404 205.081 5.63203 205.594 5.87003C206.11 6.10703 206.511 6.43702 206.798 6.86102C207.084 7.28402 207.232 7.77402 207.241 8.33102H205.363Z" fill="#1D252C"/>
<path d="M212.347 7.97902V9.44002H208.161V7.97902H212.347ZM209.112 6.29901H211.04V12.837C211.04 13.017 211.067 13.157 211.121 13.257C211.175 13.355 211.251 13.423 211.347 13.463C211.447 13.502 211.561 13.522 211.691 13.522C211.782 13.522 211.872 13.514 211.963 13.499C212.053 13.481 212.123 13.467 212.171 13.458L212.474 14.905C212.378 14.936 212.242 14.971 212.067 15.01C211.892 15.053 211.679 15.079 211.429 15.088C210.964 15.106 210.557 15.044 210.207 14.901C209.86 14.758 209.59 14.536 209.397 14.234C209.204 13.933 209.109 13.552 209.112 13.093V6.29901Z" fill="#1D252C"/>
<path d="M215.586 15.125C215.142 15.125 214.747 15.047 214.4 14.892C214.053 14.733 213.778 14.501 213.576 14.193C213.377 13.883 213.277 13.496 213.277 13.033C213.277 12.644 213.348 12.317 213.49 12.052C213.632 11.787 213.825 11.574 214.069 11.413C214.314 11.251 214.591 11.13 214.902 11.047C215.216 10.965 215.545 10.907 215.889 10.874C216.293 10.831 216.619 10.792 216.866 10.755C217.114 10.716 217.293 10.658 217.405 10.582C217.517 10.506 217.572 10.393 217.572 10.244V10.216C217.572 9.927 217.482 9.704 217.301 9.545C217.123 9.387 216.869 9.308 216.54 9.308C216.194 9.308 215.917 9.385 215.712 9.541C215.507 9.693 215.371 9.885 215.305 10.116L213.522 9.97C213.612 9.544 213.79 9.17501 214.056 8.86501C214.321 8.55101 214.664 8.311 215.083 8.144C215.506 7.973 215.994 7.888 216.55 7.888C216.936 7.888 217.305 7.93399 217.658 8.02499C218.014 8.11599 218.33 8.25801 218.604 8.44901C218.882 8.64101 219.101 8.888 219.26 9.189C219.42 9.487 219.5 9.84499 219.5 10.262V14.992H217.672V14.02H217.618C217.506 14.239 217.357 14.432 217.17 14.6C216.982 14.764 216.758 14.893 216.495 14.988C216.233 15.079 215.93 15.125 215.586 15.125ZM216.138 13.782C216.421 13.782 216.672 13.726 216.889 13.613C217.106 13.498 217.277 13.342 217.4 13.148C217.524 12.953 217.586 12.732 217.586 12.486V11.741C217.526 11.781 217.443 11.817 217.337 11.851C217.234 11.881 217.118 11.91 216.989 11.938C216.859 11.962 216.729 11.985 216.599 12.006C216.47 12.024 216.352 12.041 216.246 12.056C216.02 12.09 215.822 12.143 215.653 12.216C215.484 12.289 215.353 12.388 215.26 12.513C215.166 12.635 215.119 12.787 215.119 12.97C215.119 13.234 215.214 13.437 215.405 13.577C215.598 13.714 215.842 13.782 216.138 13.782Z" fill="#1D252C"/>
<path d="M220.996 14.992V7.97903H222.865V9.20303H222.938C223.064 8.76803 223.277 8.43903 223.576 8.21703C223.874 7.99103 224.218 7.87903 224.608 7.87903C224.704 7.87903 224.808 7.88503 224.92 7.89703C225.031 7.90903 225.129 7.92604 225.214 7.94704V9.67303C225.123 9.64603 224.998 9.62104 224.838 9.60004C224.678 9.57904 224.532 9.56802 224.399 9.56802C224.116 9.56802 223.862 9.63004 223.639 9.75504C223.419 9.87704 223.244 10.047 223.114 10.267C222.987 10.486 222.924 10.738 222.924 11.025V14.992H220.996Z" fill="#1D252C"/>
<path d="M188.68 34.026V44H187.073L182.373 37.206H182.291V44H180.484V34.026H182.101L186.795 40.825H186.883V34.026H188.68ZM194.642 33.558L191.428 45.5H189.884L193.099 33.558H194.642ZM197.126 44H195.198L198.709 34.026H200.94L204.456 44H202.527L199.863 36.071H199.785L197.126 44ZM197.19 40.089H202.449V41.541H197.19V40.089Z" fill="#597287"/>
<path d="M220.006 33.506C220.31 32.633 221.544 32.633 221.848 33.506L222.719 36.014C222.853 36.399 223.213 36.661 223.62 36.669L226.275 36.723C227.199 36.742 227.581 37.916 226.844 38.474L224.728 40.079C224.403 40.325 224.266 40.747 224.384 41.138L225.153 43.679C225.421 44.564 224.422 45.289 223.663 44.761L221.484 43.245C221.149 43.012 220.705 43.012 220.37 43.245L218.191 44.761C217.432 45.289 216.433 44.564 216.701 43.679L217.47 41.138C217.588 40.747 217.45 40.325 217.126 40.079L215.01 38.474C214.273 37.916 214.655 36.742 215.579 36.723L218.233 36.669C218.641 36.661 219 36.399 219.134 36.014L220.006 33.506Z" fill="#D2D3D5"/>
<path d="M238.006 33.506C238.31 32.633 239.544 32.633 239.848 33.506L240.719 36.014C240.853 36.399 241.213 36.661 241.62 36.669L244.275 36.723C245.199 36.742 245.581 37.916 244.844 38.474L242.728 40.079C242.403 40.325 242.266 40.747 242.384 41.138L243.153 43.679C243.421 44.564 242.422 45.289 241.663 44.761L239.484 43.245C239.149 43.012 238.705 43.012 238.37 43.245L236.191 44.761C235.432 45.289 234.433 44.564 234.701 43.679L235.47 41.138C235.588 40.747 235.45 40.325 235.126 40.079L233.01 38.474C232.273 37.916 232.655 36.742 233.579 36.723L236.233 36.669C236.641 36.661 237 36.399 237.134 36.014L238.006 33.506Z" fill="#D2D3D5"/>
<path d="M274.006 33.506C274.31 32.633 275.544 32.633 275.848 33.506L276.719 36.014C276.853 36.399 277.213 36.661 277.62 36.669L280.275 36.723C281.199 36.742 281.581 37.916 280.844 38.474L278.728 40.079C278.403 40.325 278.266 40.747 278.384 41.138L279.153 43.679C279.421 44.564 278.422 45.289 277.663 44.761L275.484 43.245C275.149 43.012 274.705 43.012 274.37 43.245L272.191 44.761C271.432 45.289 270.433 44.564 270.701 43.679L271.47 41.138C271.588 40.747 271.45 40.325 271.126 40.079L269.01 38.474C268.273 37.916 268.655 36.742 269.579 36.723L272.233 36.669C272.641 36.661 273 36.399 273.134 36.014L274.006 33.506Z" fill="#D2D3D5"/>
<path d="M256.006 33.506C256.31 32.633 257.544 32.633 257.848 33.506L258.719 36.014C258.853 36.399 259.213 36.661 259.62 36.669L262.275 36.723C263.199 36.742 263.581 37.916 262.844 38.474L260.728 40.079C260.403 40.325 260.266 40.747 260.384 41.138L261.153 43.679C261.421 44.564 260.422 45.289 259.663 44.761L257.484 43.245C257.149 43.012 256.705 43.012 256.37 43.245L254.191 44.761C253.432 45.289 252.433 44.564 252.701 43.679L253.47 41.138C253.588 40.747 253.45 40.325 253.126 40.079L251.01 38.474C250.273 37.916 250.655 36.742 251.579 36.723L254.233 36.669C254.641 36.661 255 36.399 255.134 36.014L256.006 33.506Z" fill="#D2D3D5"/>
<path d="M292.006 33.506C292.31 32.633 293.544 32.633 293.848 33.506L294.719 36.014C294.853 36.399 295.213 36.661 295.62 36.669L298.275 36.723C299.199 36.742 299.581 37.916 298.844 38.474L296.728 40.079C296.403 40.325 296.266 40.747 296.384 41.138L297.153 43.679C297.421 44.564 296.422 45.289 295.663 44.761L293.484 43.245C293.149 43.012 292.705 43.012 292.37 43.245L290.191 44.761C289.432 45.289 288.433 44.564 288.701 43.679L289.47 41.138C289.588 40.747 289.45 40.325 289.126 40.079L287.01 38.474C286.273 37.916 286.655 36.742 287.579 36.723L290.233 36.669C290.641 36.661 291 36.399 291.134 36.014L292.006 33.506Z" fill="#D2D3D5"/>
</svg>
