<svg width="312" height="48" viewBox="0 0 312 48" fill="none" xmlns="http://www.w3.org/2000/svg">
<path d="M0.53125 7.59567L8.56486 7.59728L13.4498 7.59812V2.74219L0.53125 7.59567Z" fill="#1D252C"/>
<path d="M13.4453 2.74218V19.8861L19.5465 0.449219L13.4453 2.74218Z" fill="#1D252C"/>
<path d="M13.4475 7.59849L8.5625 7.59766L13.4475 19.8864V7.59849Z" fill="#1D252C"/>
<path d="M0.53125 7.5957L9.81756 10.7504L8.56486 7.59731L0.53125 7.5957Z" fill="#1D252C"/>
<path d="M30.1245 15.3738C30.0537 15.4449 29.9356 15.5336 29.7706 15.6401C29.6053 15.7467 29.3901 15.8532 29.1247 15.9598C28.8593 16.0662 28.5347 16.1578 28.1515 16.235C27.768 16.3117 27.3287 16.3503 26.8333 16.3503C25.8777 16.3503 25.0519 16.1963 24.356 15.8888C23.6597 15.5812 23.0847 15.1518 22.6307 14.6015C22.1765 14.0511 21.8433 13.4002 21.631 12.6484C21.4186 11.8968 21.3125 11.0713 21.3125 10.1716C21.3125 9.27226 21.4275 8.44054 21.6575 7.67709C21.8875 6.91358 22.2326 6.25395 22.6926 5.69737C23.1527 5.14119 23.7278 4.70613 24.4179 4.39236C25.108 4.07894 25.9189 3.92188 26.8509 3.92188C27.311 3.92188 27.7269 3.96344 28.0985 4.04614C28.4701 4.12903 28.7944 4.22676 29.0717 4.33911C29.3487 4.45175 29.5788 4.56988 29.7618 4.69421C29.9446 4.81848 30.0831 4.92229 30.1777 5.00488C30.2838 5.09981 30.3751 5.21215 30.452 5.34221C30.5286 5.47262 30.567 5.61466 30.567 5.76838C30.567 6.0053 30.4785 6.24191 30.3015 6.47858C30.1246 6.71549 29.9299 6.93445 29.7175 7.13553C29.576 6.99349 29.4168 6.84871 29.2399 6.70058C29.0629 6.55264 28.8652 6.42259 28.6471 6.30995C28.4287 6.1976 28.1809 6.10297 27.9038 6.02587C27.6265 5.949 27.3169 5.91042 26.9749 5.91042C26.3733 5.91042 25.869 6.03195 25.462 6.27441C25.055 6.51716 24.7276 6.83368 24.4799 7.22432C24.2322 7.61495 24.0552 8.06182 23.949 8.5648C23.8429 9.06802 23.7898 9.57989 23.7898 10.1006C23.7898 10.6571 23.8429 11.1897 23.949 11.6985C24.0552 12.2075 24.2379 12.6574 24.4976 13.0479C24.7569 13.4384 25.0962 13.7522 25.5151 13.9888C25.9336 14.2258 26.4556 14.344 27.0811 14.344C27.4111 14.344 27.715 14.3027 27.9923 14.2198C28.2693 14.137 28.5143 14.0363 28.7266 13.9178C28.939 13.7997 29.1248 13.6755 29.284 13.5451C29.4433 13.4149 29.576 13.3026 29.6822 13.2077C29.753 13.2907 29.8353 13.3914 29.9299 13.5096C30.0249 13.629 30.1135 13.7535 30.1953 13.8825C30.2777 14.0128 30.3485 14.1429 30.4076 14.2729C30.4665 14.4034 30.4961 14.5216 30.4961 14.6279C30.4961 14.782 30.4665 14.9121 30.4076 15.0186C30.3484 15.1252 30.2541 15.2437 30.1245 15.3738ZM39.2434 14.0121C39.2434 14.9529 39.3797 15.6376 39.6528 16.0663C39.4392 16.1495 39.2404 16.2091 39.0564 16.2448C38.8723 16.2806 38.6796 16.2984 38.4779 16.2984C38.0507 16.2984 37.7272 16.215 37.5078 16.0483C37.2881 15.8818 37.1487 15.6436 37.0895 15.3339C36.8282 15.608 36.4841 15.8401 36.057 16.0307C35.6297 16.2209 35.1074 16.3164 34.4904 16.3164C34.17 16.3164 33.8496 16.2718 33.5292 16.183C33.2087 16.0936 32.9178 15.9485 32.6568 15.7469C32.3956 15.5449 32.1821 15.2749 32.016 14.9365C31.8497 14.5982 31.7668 14.1858 31.7668 13.6992C31.7668 13.0938 31.912 12.6011 32.2029 12.2214C32.4936 11.8414 32.8585 11.5417 33.2978 11.322C33.7367 11.1026 34.2115 10.9516 34.7219 10.8683C35.232 10.7851 35.701 10.7318 36.1282 10.7078C36.2707 10.696 36.41 10.6899 36.5465 10.6899H36.9293V10.3648C36.9293 9.90708 36.8074 9.58192 36.5643 9.38937C36.3209 9.19677 35.9262 9.10022 35.3805 9.10022C34.8701 9.10022 34.4161 9.18365 34.0187 9.35025C33.6209 9.51716 33.2323 9.7075 32.8527 9.92187C32.6864 9.71948 32.5528 9.49629 32.4521 9.25204C32.3512 9.00816 32.3008 8.82646 32.3008 8.70726C32.3008 8.54065 32.3926 8.37989 32.5768 8.22497C32.7606 8.07041 33.0129 7.93028 33.3334 7.80523C33.6539 7.68019 34.0215 7.57918 34.4371 7.5016C34.8523 7.42426 35.2915 7.3855 35.7544 7.3855C36.3952 7.3855 36.9382 7.45109 37.3832 7.58198C37.8282 7.71317 38.1902 7.91549 38.4691 8.18925C38.7478 8.46337 38.9467 8.80553 39.0654 9.21632C39.1839 9.62718 39.2435 10.1067 39.2435 10.6542L39.2434 14.0121ZM36.9647 11.9402H36.7156C36.6324 11.9402 36.5492 11.9464 36.4664 11.9581C36.1695 11.9821 35.8758 12.0178 35.5852 12.0652C35.2943 12.1129 35.0361 12.1963 34.8109 12.3153C34.5853 12.4344 34.4014 12.5894 34.259 12.7796C34.1166 12.9703 34.0454 13.2145 34.0454 13.5121C34.0454 13.8455 34.1402 14.1282 34.3301 14.3604C34.5198 14.5927 34.8403 14.7088 35.2915 14.7088C35.5168 14.7088 35.7305 14.6792 35.9323 14.6194C36.134 14.5601 36.312 14.4826 36.4664 14.3873C36.6205 14.2921 36.7423 14.1879 36.8313 14.0746C36.9203 13.9616 36.9648 13.8575 36.9648 13.7622L36.9647 11.9402ZM43.6757 8.42139C43.8649 8.19534 44.1608 7.96594 44.563 7.73368C44.9652 7.50148 45.4739 7.38538 46.0892 7.38538C46.527 7.38538 46.944 7.45986 47.3404 7.60863C47.7365 7.75765 48.0886 7.99885 48.3962 8.33207C48.7038 8.66558 48.9493 9.10625 49.1328 9.65383C49.3161 10.2017 49.4079 10.8746 49.4079 11.6722C49.4079 12.601 49.3013 13.3663 49.0884 13.9675C48.8753 14.569 48.6004 15.0454 48.2634 15.3965C47.9262 15.7478 47.5504 15.9949 47.1365 16.1377C46.7224 16.2806 46.3082 16.3522 45.8943 16.3522C45.5512 16.3522 45.2523 16.3134 44.9982 16.2361C44.7436 16.1585 44.5278 16.0724 44.3503 15.977C44.1729 15.8819 44.0369 15.7867 43.9424 15.6912C43.8478 15.596 43.7885 15.5304 43.7649 15.4946V19.8855H41.3439V7.63541C41.4034 7.62372 41.4752 7.61173 41.5591 7.59975C41.631 7.58806 41.7146 7.57906 41.8103 7.57291C41.9059 7.56707 42.0196 7.56403 42.151 7.56403C42.5454 7.56403 42.8803 7.62962 43.1554 7.76051C43.4303 7.8917 43.604 8.11185 43.6757 8.42139ZM46.88 11.7257C46.88 11.3686 46.8505 11.0353 46.7915 10.7256C46.7326 10.4161 46.6352 10.1481 46.4995 9.92181C46.3638 9.69569 46.1807 9.5199 45.9507 9.3948C45.7203 9.26981 45.4403 9.20738 45.1101 9.20738C44.6145 9.20738 44.2693 9.30279 44.0745 9.49307C43.8799 9.68371 43.7826 9.89223 43.7826 10.1183V13.9051C43.8768 14.0005 44.0448 14.1134 44.2868 14.2444C44.5288 14.3755 44.8088 14.4408 45.1276 14.4408C45.7295 14.4408 46.172 14.2028 46.4552 13.7264C46.7385 13.2502 46.88 12.5832 46.88 11.7257ZM51.2764 14.7981C51.1932 14.5601 51.1399 14.3099 51.1162 14.0479C51.0923 13.786 51.0806 13.5241 51.0806 13.2618V4.97399C51.1635 4.9623 51.2526 4.95032 51.3476 4.93827C51.4304 4.92658 51.5195 4.9177 51.6146 4.9115C51.7095 4.90565 51.8043 4.90261 51.8994 4.90261C52.0891 4.90261 52.2792 4.9205 52.4691 4.95616C52.6588 4.99194 52.8309 5.06338 52.9854 5.17047C53.1395 5.27763 53.2641 5.42366 53.3592 5.6081C53.4541 5.79283 53.5016 6.03404 53.5016 6.33147V7.59963H55.9939V9.4038H53.5016V13.2128C53.5016 14.0435 53.8398 14.4587 54.5163 14.4587C54.6824 14.4587 54.8395 14.432 54.9881 14.3783C55.1363 14.3247 55.2698 14.2653 55.3886 14.1997C55.5072 14.1343 55.6111 14.0658 55.7001 13.9943C55.7891 13.9228 55.8514 13.8693 55.887 13.8336C56.065 14.0957 56.2013 14.3226 56.2964 14.5141C56.3913 14.7058 56.4388 14.8857 56.4388 15.0538C56.4388 15.2102 56.3767 15.3636 56.2519 15.5138C56.1272 15.6639 55.952 15.8024 55.7267 15.9285C55.5012 16.0546 55.2284 16.1567 54.9079 16.2349C54.5875 16.3131 54.2372 16.3522 53.8576 16.3522C53.1216 16.3522 52.5491 16.2092 52.1397 15.9235C51.7303 15.6376 51.4424 15.2625 51.2764 14.7981ZM62.1255 14.5659C62.4231 14.5659 62.6851 14.5333 62.9116 14.4676C63.1377 14.4024 63.3401 14.3219 63.5188 14.2266C63.6974 14.1315 63.8524 14.0272 63.9834 13.9141C64.1143 13.801 64.2334 13.6968 64.3408 13.6014C64.4835 13.7799 64.6323 14.0093 64.7872 14.2889C64.942 14.569 65.0195 14.7981 65.0195 14.9767C65.0195 15.2387 64.871 15.4769 64.5745 15.6912C64.3253 15.8819 63.9719 16.0456 63.5153 16.1823C63.0583 16.3192 62.5212 16.3878 61.9043 16.3878C61.3462 16.3878 60.7974 16.3164 60.2576 16.1734C59.7176 16.0306 59.2368 15.7805 58.8157 15.4232C58.3943 15.0661 58.053 14.5869 57.792 13.9854C57.5309 13.3841 57.4004 12.6251 57.4004 11.708C57.4004 10.9577 57.5162 10.312 57.7474 9.76999C57.979 9.22825 58.2874 8.7787 58.6734 8.42145C59.0588 8.06421 59.4949 7.80243 59.9817 7.63547C60.4681 7.46892 60.9667 7.38544 61.4771 7.38544C62.1416 7.38544 62.7053 7.48985 63.1681 7.69802C63.6311 7.90649 64.0076 8.18639 64.2986 8.53755C64.5892 8.88883 64.7998 9.29074 64.9305 9.74322C65.0608 10.1959 65.1263 10.672 65.1263 11.1721V11.4222C65.1263 11.5177 65.1232 11.6186 65.1174 11.7258C65.1113 11.8331 65.1055 11.9374 65.0996 12.0384C65.0935 12.1398 65.0846 12.2201 65.073 12.2796H59.8214C59.869 12.9346 60.0715 13.4793 60.4287 13.9141C60.7857 14.3488 61.3514 14.5659 62.1255 14.5659ZM62.9367 10.9399C62.9367 10.3683 62.8262 9.90392 62.6054 9.54668C62.3845 9.18949 61.9875 9.01078 61.4149 9.01078C60.9253 9.01078 60.5345 9.18055 60.2421 9.5199C59.9495 9.85932 59.8036 10.3326 59.8036 10.9398L62.9367 10.9399ZM69.3394 8.46653C69.4105 8.36027 69.5054 8.2422 69.6242 8.11209C69.7427 7.9821 69.8882 7.86397 70.0603 7.75771C70.2323 7.65139 70.4222 7.5626 70.63 7.49176C70.8374 7.42086 71.06 7.38544 71.2976 7.38544C71.44 7.38544 71.5913 7.39742 71.7515 7.42086C71.9117 7.44459 72.0599 7.48896 72.1964 7.55371C72.3328 7.61877 72.4428 7.7072 72.5258 7.81943C72.6087 7.93165 72.6505 8.07035 72.6505 8.23559C72.6505 8.49539 72.585 8.79378 72.4547 9.13064C72.3239 9.46778 72.1936 9.75526 72.0631 9.99331C71.8611 9.82664 71.6594 9.69861 71.4577 9.60929C71.2559 9.52002 71.0185 9.4753 70.7457 9.4753C70.3777 9.4753 70.0692 9.58281 69.8201 9.79766C69.5707 10.0126 69.4461 10.2693 69.4461 10.5679V16.3502H67.0253V7.63541C67.0844 7.62372 67.1556 7.61173 67.2388 7.59975C67.31 7.58806 67.393 7.57906 67.488 7.57291C67.5829 7.56707 67.6955 7.56403 67.8262 7.56403C68.2059 7.56403 68.5352 7.63791 68.8142 7.78538C69.0929 7.93266 69.2682 8.15986 69.3394 8.46653ZM76.2226 8.46653C76.2938 8.36027 76.3886 8.2422 76.5074 8.11209C76.6259 7.9821 76.7714 7.86397 76.9436 7.75771C77.1155 7.65139 77.3054 7.5626 77.5132 7.49176C77.7207 7.42086 77.9432 7.38544 78.1808 7.38544C78.3231 7.38544 78.4744 7.39742 78.6346 7.42086C78.7948 7.44459 78.9431 7.48896 79.0797 7.55371C79.2161 7.61877 79.3258 7.7072 79.4092 7.81943C79.492 7.93165 79.5337 8.07035 79.5337 8.23559C79.5337 8.49539 79.4682 8.79378 79.3379 9.13064C79.207 9.46778 79.0767 9.75526 78.9462 9.99331C78.7444 9.82664 78.5425 9.69861 78.3409 9.60929C78.1391 9.52002 77.9018 9.4753 77.6289 9.4753C77.261 9.4753 76.9524 9.58281 76.7033 9.79766C76.454 10.0126 76.3294 10.2693 76.3294 10.5679V16.3502H73.9085V7.63541C73.9677 7.62372 74.0389 7.61173 74.1221 7.59975C74.1933 7.58806 74.2763 7.57906 74.3713 7.57291C74.4661 7.56707 74.5787 7.56403 74.7094 7.56403C75.0892 7.56403 75.4185 7.63791 75.6974 7.78538C75.9761 7.93266 76.1513 8.15986 76.2226 8.46653ZM87.7759 14.0121C87.7759 14.9529 87.9123 15.6376 88.1853 16.0663C87.9717 16.1495 87.7728 16.2091 87.589 16.2448C87.4049 16.2806 87.2121 16.2984 87.0105 16.2984C86.5831 16.2984 86.2597 16.215 86.0403 16.0483C85.8205 15.8818 85.6812 15.6436 85.6219 15.3339C85.3608 15.608 85.0167 15.8401 84.5894 16.0307C84.1623 16.2209 83.6398 16.3164 83.0229 16.3164C82.7024 16.3164 82.3821 16.2718 82.0616 16.183C81.7412 16.0936 81.4502 15.9485 81.1893 15.7469C80.9281 15.5449 80.7146 15.2749 80.5485 14.9365C80.3822 14.5982 80.2993 14.1858 80.2993 13.6992C80.2993 13.0938 80.4444 12.6011 80.7355 12.2214C81.0261 11.8414 81.3911 11.5417 81.8303 11.322C82.2692 11.1026 82.7439 10.9516 83.2544 10.8683C83.7644 10.7851 84.2335 10.7318 84.6607 10.7078C84.8031 10.696 84.9424 10.6899 85.0791 10.6899H85.4618V10.3648C85.4618 9.90708 85.3399 9.58192 85.0968 9.38937C84.8533 9.19677 84.4587 9.10022 83.913 9.10022C83.4026 9.10022 82.9487 9.18365 82.5512 9.35025C82.1534 9.51716 81.7649 9.7075 81.3852 9.92187C81.2189 9.71948 81.0852 9.49629 80.9846 9.25204C80.8838 9.00816 80.8334 8.82646 80.8334 8.70726C80.8334 8.54065 80.9251 8.37989 81.1093 8.22497C81.2932 8.07041 81.5454 7.93028 81.8658 7.80523C82.1863 7.68019 82.554 7.57918 82.9695 7.5016C83.3848 7.42426 83.824 7.3855 84.2868 7.3855C84.9276 7.3855 85.4706 7.45109 85.9157 7.58198C86.3606 7.71317 86.7226 7.91549 87.0015 8.18925C87.2802 8.46337 87.479 8.80553 87.5979 9.21632C87.7163 9.62718 87.7759 10.1067 87.7759 10.6542V14.0121ZM85.4973 11.9402H85.2481C85.1649 11.9402 85.0817 11.9464 84.9989 11.9581C84.7022 11.9821 84.4083 12.0178 84.1177 12.0652C83.8267 12.1129 83.5687 12.1963 83.3433 12.3153C83.1178 12.4344 82.9339 12.5894 82.7915 12.7796C82.6491 12.9703 82.5778 13.2145 82.5778 13.5121C82.5778 13.8455 82.6727 14.1282 82.8627 14.3604C83.0524 14.5927 83.3729 14.7088 83.824 14.7088C84.0493 14.7088 84.263 14.6792 84.4649 14.6194C84.6666 14.5601 84.8445 14.4826 84.9989 14.3873C85.1529 14.2921 85.2749 14.1879 85.3638 14.0746C85.4528 13.9616 85.4973 13.8575 85.4973 13.7622L85.4973 11.9402Z" fill="#1D252C"/>
<path d="M0.706169 42.1494V40.7127L4.93831 34.026H6.13636V36.0714H5.40584L2.55682 40.586V40.664H8.46428V42.1494H0.706169ZM5.46428 44V41.711L5.48376 41.0682V34.026H7.18831V44H5.46428ZM10.8446 44.1071C10.5491 44.1071 10.2959 44.0032 10.0848 43.7955C9.87378 43.5877 9.76988 43.3344 9.77313 43.0357C9.76988 42.7435 9.87378 42.4935 10.0848 42.2857C10.2959 42.0779 10.5491 41.974 10.8446 41.974C11.1303 41.974 11.3786 42.0779 11.5897 42.2857C11.804 42.4935 11.9127 42.7435 11.916 43.0357C11.9127 43.2338 11.8608 43.414 11.7601 43.5763C11.6627 43.7386 11.5329 43.8685 11.3705 43.9659C11.2114 44.0601 11.0361 44.1071 10.8446 44.1071ZM17.0637 44.1364C16.4144 44.1364 15.8332 44.0146 15.3202 43.7711C14.8072 43.5244 14.3998 43.1867 14.0978 42.7581C13.7991 42.3295 13.64 41.8393 13.6205 41.2873H15.3738C15.4062 41.6964 15.5832 42.0308 15.9046 42.2906C16.2261 42.5471 16.6124 42.6753 17.0637 42.6753C17.4176 42.6753 17.7325 42.5942 18.0085 42.4318C18.2845 42.2695 18.502 42.0438 18.6611 41.7549C18.8202 41.4659 18.8981 41.1364 18.8949 40.7662C18.8981 40.3896 18.8186 40.0552 18.6562 39.763C18.4939 39.4708 18.2715 39.2419 17.989 39.0763C17.7066 38.9075 17.3819 38.8231 17.015 38.8231C16.7163 38.8198 16.4225 38.875 16.1335 38.9886C15.8446 39.1023 15.6157 39.2516 15.4468 39.4367L13.8153 39.1688L14.3364 34.026H20.1222V35.5357H15.8316L15.5442 38.1802H15.6027C15.7877 37.9627 16.0491 37.7825 16.3868 37.6396C16.7244 37.4935 17.0946 37.4205 17.4972 37.4205C18.1011 37.4205 18.64 37.5633 19.114 37.849C19.5881 38.1315 19.9614 38.5211 20.2342 39.0179C20.5069 39.5146 20.6433 40.0828 20.6433 40.7224C20.6433 41.3815 20.4907 41.9692 20.1855 42.4854C19.8835 42.9984 19.4631 43.4026 18.9241 43.6981C18.3884 43.9903 17.7683 44.1364 17.0637 44.1364ZM26.3657 33.5584L23.1514 45.5H21.6075L24.8218 33.5584H26.3657ZM30.9387 44.1364C30.2894 44.1364 29.7082 44.0146 29.1952 43.7711C28.6822 43.5244 28.2747 43.1867 27.9728 42.7581C27.6741 42.3295 27.515 41.8393 27.4955 41.2873H29.2488C29.2812 41.6964 29.4582 42.0308 29.7796 42.2906C30.101 42.5471 30.4874 42.6753 30.9387 42.6753C31.2926 42.6753 31.6075 42.5942 31.8835 42.4318C32.1595 42.2695 32.377 42.0438 32.5361 41.7549C32.6952 41.4659 32.7731 41.1364 32.7699 40.7662C32.7731 40.3896 32.6936 40.0552 32.5312 39.763C32.3689 39.4708 32.1465 39.2419 31.864 39.0763C31.5816 38.9075 31.2569 38.8231 30.89 38.8231C30.5913 38.8198 30.2975 38.875 30.0085 38.9886C29.7196 39.1023 29.4907 39.2516 29.3218 39.4367L27.6903 39.1688L28.2114 34.026H33.9972V35.5357H29.7066L29.4192 38.1802H29.4777C29.6627 37.9627 29.9241 37.7825 30.2618 37.6396C30.5994 37.4935 30.9696 37.4205 31.3722 37.4205C31.976 37.4205 32.515 37.5633 32.989 37.849C33.4631 38.1315 33.8364 38.5211 34.1092 39.0179C34.3819 39.5146 34.5183 40.0828 34.5183 40.7224C34.5183 41.3815 34.3657 41.9692 34.0605 42.4854C33.7585 42.9984 33.3381 43.4026 32.7991 43.6981C32.2634 43.9903 31.6433 44.1364 30.9387 44.1364Z" fill="#597287"/>
<path d="M50.5076 33.5063C50.8111 32.6333 52.0457 32.6333 52.3491 33.5063L53.2209 36.0144C53.3548 36.3995 53.7142 36.6606 54.1218 36.6689L56.7765 36.723C57.7005 36.7418 58.0821 37.916 57.3456 38.4744L55.2297 40.0785C54.9048 40.3248 54.7675 40.7473 54.8856 41.1376L55.6545 43.679C55.9221 44.5637 54.9233 45.2894 54.1646 44.7615L51.9852 43.2449C51.6505 43.012 51.2063 43.012 50.8716 43.2449L48.6921 44.7615C47.9335 45.2894 46.9347 44.5637 47.2023 43.679L47.9712 41.1376C48.0892 40.7473 47.952 40.3248 47.6271 40.0785L45.5112 38.4744C44.7747 37.916 45.1562 36.7418 46.0803 36.723L48.7349 36.6689C49.1426 36.6606 49.502 36.3995 49.6358 36.0144L50.5076 33.5063Z" fill="#FCDA01"/>
<path d="M68.5076 33.5063C68.8111 32.6333 70.0457 32.6333 70.3491 33.5063L71.2209 36.0144C71.3548 36.3995 71.7142 36.6606 72.1218 36.6689L74.7765 36.723C75.7005 36.7418 76.0821 37.916 75.3456 38.4744L73.2297 40.0785C72.9048 40.3248 72.7675 40.7473 72.8856 41.1376L73.6545 43.679C73.9221 44.5637 72.9233 45.2894 72.1646 44.7615L69.9852 43.2449C69.6505 43.012 69.2063 43.012 68.8716 43.2449L66.6921 44.7615C65.9335 45.2894 64.9347 44.5637 65.2023 43.679L65.9712 41.1376C66.0892 40.7473 65.952 40.3248 65.6271 40.0785L63.5112 38.4744C62.7747 37.916 63.1562 36.7418 64.0803 36.723L66.7349 36.6689C67.1426 36.6606 67.502 36.3995 67.6358 36.0144L68.5076 33.5063Z" fill="#FCDA01"/>
<path d="M104.508 33.5063C104.811 32.6333 106.046 32.6333 106.349 33.5063L107.221 36.0144C107.355 36.3995 107.714 36.6606 108.122 36.6689L110.776 36.723C111.701 36.7418 112.082 37.916 111.346 38.4744L109.23 40.0785C108.905 40.3248 108.768 40.7473 108.886 41.1376L109.654 43.679C109.922 44.5637 108.923 45.2894 108.165 44.7615L105.985 43.2449C105.651 43.012 105.206 43.012 104.872 43.2449L102.692 44.7615C101.933 45.2894 100.935 44.5637 101.202 43.679L101.971 41.1376C102.089 40.7473 101.952 40.3248 101.627 40.0785L99.5112 38.4744C98.7747 37.916 99.1562 36.7418 100.08 36.723L102.735 36.6689C103.143 36.6606 103.502 36.3995 103.636 36.0144L104.508 33.5063Z" fill="#FCDA01"/>
<path d="M86.5076 33.5063C86.8111 32.6333 88.0457 32.6333 88.3491 33.5063L89.2209 36.0144C89.3548 36.3995 89.7142 36.6606 90.1218 36.6689L92.7765 36.723C93.7005 36.7418 94.0821 37.916 93.3456 38.4744L91.2297 40.0785C90.9048 40.3248 90.7675 40.7473 90.8856 41.1376L91.6545 43.679C91.9221 44.5637 90.9233 45.2894 90.1646 44.7615L87.9852 43.2449C87.6505 43.012 87.2063 43.012 86.8716 43.2449L84.6921 44.7615C83.9335 45.2894 82.9347 44.5637 83.2023 43.679L83.9712 41.1376C84.0892 40.7473 83.952 40.3248 83.6271 40.0785L81.5112 38.4744C80.7747 37.916 81.1562 36.7418 82.0803 36.723L84.7349 36.6689C85.1426 36.6606 85.502 36.3995 85.6358 36.0144L86.5076 33.5063Z" fill="#FCDA01"/>
<path d="M122.508 33.5063C122.811 32.6333 124.046 32.6333 124.349 33.5063L125.221 36.0144C125.355 36.3995 125.714 36.6606 126.122 36.6689L128.776 36.723C129.701 36.7418 130.082 37.916 129.346 38.4744L127.23 40.0785C126.905 40.3248 126.768 40.7473 126.886 41.1376L127.654 43.679C127.922 44.5637 126.923 45.2894 126.165 44.7615L123.985 43.2449C123.651 43.012 123.206 43.012 122.872 43.2449L120.692 44.7615C119.933 45.2894 118.935 44.5637 119.202 43.679L119.971 41.1376C120.089 40.7473 119.952 40.3248 119.627 40.0785L117.511 38.4744C116.775 37.916 117.156 36.7418 118.08 36.723L120.735 36.6689C121.143 36.6606 121.502 36.3995 121.636 36.0144L122.508 33.5063Z" fill="#FCDA01"/>
<line x1="156.534" y1="9" x2="156.534" y2="39" stroke="white" stroke-opacity="0.12" stroke-width="1.06715"/>
<g clip-path="url(#clip0_225_3651)">
<path d="M241.805 20.5714C247.436 20.5714 252 15.9663 252 10.2857C252 4.60507 247.436 0 241.805 0C236.174 0 231.609 4.60507 231.609 10.2857C231.609 15.9663 236.174 20.5714 241.805 20.5714Z" fill="#1D252C"/>
<path d="M246.213 7.87897H244.471C244.518 7.60331 244.687 7.44902 245.03 7.27417L245.35 7.1096C245.923 6.81337 246.229 6.47805 246.229 5.93085C246.229 5.58731 246.096 5.31577 245.833 5.12034C245.57 4.92491 245.26 4.82823 244.897 4.82823C244.617 4.82489 244.341 4.90425 244.104 5.05657C243.866 5.20468 243.688 5.396 243.578 5.63463L244.082 6.1448C244.278 5.74571 244.561 5.55028 244.934 5.55028C245.25 5.55028 245.444 5.71485 245.444 5.9432C245.444 6.13451 245.35 6.29291 244.987 6.47805L244.781 6.57885C244.335 6.8072 244.025 7.06845 243.845 7.36468C243.666 7.66091 243.578 8.03325 243.578 8.48377V8.6072H246.213V7.87897Z" fill="white"/>
<path d="M245.981 9.44531H243.098L241.656 11.9633H244.54L245.981 14.4833L247.423 11.9633L245.981 9.44531Z" fill="white"/>
<path d="M241.904 13.6448C240.069 13.6448 238.574 12.1369 238.574 10.2855C238.574 8.43403 240.069 6.92614 241.904 6.92614L243.044 4.52135C242.668 4.44604 242.287 4.40815 241.904 4.4082C238.686 4.4082 236.078 7.03929 236.078 10.2855C236.078 13.5316 238.686 16.1627 241.904 16.1627C243.137 16.165 244.339 15.7701 245.334 15.0354L244.073 12.8301C243.471 13.3555 242.7 13.6447 241.904 13.6448Z" fill="white"/>
</g>
<path d="M186.309 8.66404C186.245 8.44184 186.156 8.24551 186.042 8.07505C185.927 7.90156 185.787 7.75545 185.621 7.63674C185.458 7.51499 185.271 7.42215 185.06 7.35823C184.852 7.29431 184.621 7.26235 184.367 7.26235C183.894 7.26235 183.477 7.38106 183.118 7.61848C182.762 7.8559 182.485 8.20137 182.285 8.6549C182.086 9.10539 181.987 9.65632 181.987 10.3077C181.987 10.9591 182.085 11.5131 182.281 11.9696C182.477 12.4262 182.755 12.7747 183.114 13.0152C183.473 13.2526 183.897 13.3713 184.385 13.3713C184.829 13.3713 185.208 13.2922 185.521 13.1339C185.838 12.9726 186.08 12.7458 186.245 12.4536C186.414 12.1614 186.499 11.8159 186.499 11.4172L186.897 11.4765H184.508V9.9881H188.386V11.1661C188.386 11.9879 188.214 12.6941 187.87 13.2846C187.526 13.872 187.053 14.3256 186.449 14.6452C185.846 14.9617 185.155 15.12 184.376 15.12C183.507 15.12 182.744 14.9267 182.086 14.5401C181.429 14.1505 180.916 13.5981 180.548 12.8828C180.183 12.1644 180 11.3122 180 10.326C180 9.56805 180.109 8.89232 180.326 8.29878C180.546 7.70219 180.854 7.19691 181.249 6.78295C181.644 6.36899 182.104 6.05395 182.629 5.83784C183.154 5.62173 183.723 5.51367 184.336 5.51367C184.861 5.51367 185.349 5.59129 185.802 5.74653C186.254 5.89872 186.656 6.11483 187.006 6.39486C187.359 6.67489 187.647 7.00819 187.87 7.39476C188.093 7.77828 188.237 8.20137 188.3 8.66404H186.309Z" fill="#1D252C"/>
<path d="M189.804 14.9922V13.5676L193.103 10.4858C193.384 10.2118 193.619 9.96527 193.809 9.74612C194.002 9.52696 194.148 9.31237 194.248 9.10235C194.348 8.88928 194.397 8.65947 194.397 8.41292C194.397 8.13898 194.335 7.90308 194.212 7.70523C194.088 7.50434 193.919 7.35062 193.705 7.24409C193.491 7.13451 193.248 7.07972 192.976 7.07972C192.693 7.07972 192.445 7.13756 192.234 7.25322C192.023 7.36889 191.86 7.53477 191.745 7.75089C191.631 7.967 191.573 8.2242 191.573 8.5225H189.713C189.713 7.91069 189.851 7.37954 190.125 6.92905C190.4 6.47857 190.784 6.13005 191.279 5.8835C191.774 5.63695 192.344 5.51367 192.99 5.51367C193.654 5.51367 194.231 5.63238 194.723 5.8698C195.218 6.10417 195.603 6.42986 195.877 6.84687C196.152 7.26387 196.289 7.74176 196.289 8.28051C196.289 8.6336 196.22 8.98212 196.081 9.32607C195.945 9.67002 195.702 10.052 195.352 10.4721C195.002 10.8891 194.509 11.3898 193.872 11.9742L192.519 13.312V13.3759H196.411V14.9922H189.804Z" fill="#1D252C"/>
<path d="M205.863 8.33074C205.827 7.96243 205.672 7.67631 205.397 7.47238C205.122 7.26844 204.75 7.16647 204.279 7.16647C203.959 7.16647 203.689 7.21213 203.469 7.30344C203.249 7.39172 203.08 7.51499 202.962 7.67327C202.848 7.83155 202.79 8.01113 202.79 8.21203C202.784 8.37944 202.819 8.52554 202.894 8.65034C202.973 8.77514 203.08 8.88319 203.216 8.97451C203.351 9.06278 203.508 9.1404 203.686 9.20736C203.864 9.27128 204.054 9.32607 204.257 9.37173L205.089 9.57262C205.494 9.66393 205.865 9.78569 206.203 9.93788C206.541 10.0901 206.833 10.2773 207.081 10.4995C207.328 10.7217 207.52 10.9834 207.655 11.2848C207.794 11.5861 207.865 11.9316 207.868 12.3212C207.865 12.8934 207.72 13.3896 207.434 13.8096C207.15 14.2266 206.74 14.5508 206.203 14.7821C205.669 15.0104 205.024 15.1246 204.27 15.1246C203.522 15.1246 202.87 15.0089 202.315 14.7776C201.763 14.5462 201.331 14.2038 201.021 13.7503C200.713 13.2937 200.552 12.7291 200.536 12.0564H202.433C202.454 12.3699 202.543 12.6317 202.7 12.8417C202.86 13.0487 203.072 13.2054 203.338 13.312C203.606 13.4155 203.91 13.4672 204.247 13.4672C204.579 13.4672 204.868 13.4185 205.112 13.3211C205.359 13.2237 205.551 13.0882 205.687 12.9147C205.822 12.7412 205.89 12.5419 205.89 12.3166C205.89 12.1066 205.828 11.9301 205.705 11.787C205.584 11.6439 205.406 11.5222 205.171 11.4217C204.938 11.3213 204.653 11.23 204.315 11.1478L203.306 10.8921C202.525 10.7004 201.908 10.4005 201.455 9.99267C201.003 9.58479 200.778 9.03538 200.781 8.34443C200.778 7.77828 200.927 7.28366 201.229 6.86057C201.534 6.43747 201.951 6.10722 202.482 5.8698C203.013 5.63238 203.617 5.51367 204.293 5.51367C204.981 5.51367 205.581 5.63238 206.094 5.8698C206.61 6.10722 207.011 6.43747 207.298 6.86057C207.584 7.28366 207.732 7.77372 207.741 8.33074H205.863Z" fill="#1D252C"/>
<path d="M212.847 7.97917V9.44021H208.661V7.97917H212.847ZM209.612 6.29898H211.54V12.8371C211.54 13.0167 211.567 13.1567 211.621 13.2572C211.675 13.3546 211.751 13.4231 211.847 13.4626C211.947 13.5022 212.061 13.522 212.191 13.522C212.282 13.522 212.372 13.5144 212.463 13.4992C212.553 13.4809 212.623 13.4672 212.671 13.4581L212.974 14.9054C212.878 14.9358 212.742 14.9709 212.567 15.0104C212.392 15.053 212.179 15.0789 211.929 15.088C211.464 15.1063 211.057 15.0439 210.707 14.9008C210.36 14.7578 210.09 14.5356 209.897 14.2342C209.704 13.9329 209.609 13.5524 209.612 13.0928V6.29898Z" fill="#1D252C"/>
<path d="M216.086 15.1246C215.642 15.1246 215.247 15.0469 214.9 14.8917C214.553 14.7334 214.278 14.5006 214.076 14.1932C213.877 13.8827 213.777 13.4961 213.777 13.0335C213.777 12.6438 213.848 12.3166 213.99 12.0518C214.132 11.787 214.325 11.5739 214.569 11.4126C214.814 11.2513 215.091 11.1295 215.402 11.0474C215.716 10.9652 216.045 10.9073 216.389 10.8739C216.793 10.8312 217.119 10.7917 217.366 10.7551C217.614 10.7156 217.793 10.6577 217.905 10.5816C218.017 10.5056 218.072 10.3929 218.072 10.2438V10.2164C218.072 9.92723 217.982 9.7035 217.801 9.54522C217.623 9.38695 217.369 9.30781 217.04 9.30781C216.694 9.30781 216.417 9.38542 216.212 9.54066C216.007 9.69285 215.871 9.88461 215.805 10.1159L214.022 9.96984C214.112 9.5437 214.29 9.1754 214.556 8.86493C214.821 8.55141 215.164 8.31095 215.583 8.14354C216.006 7.97309 216.494 7.88786 217.05 7.88786C217.436 7.88786 217.805 7.93352 218.158 8.02483C218.514 8.11615 218.83 8.25768 219.104 8.44945C219.382 8.64121 219.601 8.88776 219.76 9.1891C219.92 9.48739 220 9.84504 220 10.262V14.9922H218.172V14.0197H218.118C218.006 14.2388 217.857 14.4321 217.67 14.5995C217.482 14.7639 217.258 14.8932 216.995 14.9876C216.733 15.0789 216.43 15.1246 216.086 15.1246ZM216.638 13.7822C216.921 13.7822 217.172 13.7259 217.389 13.6133C217.606 13.4976 217.777 13.3424 217.9 13.1476C218.024 12.9528 218.086 12.7321 218.086 12.4856V11.7413C218.026 11.7809 217.943 11.8174 217.837 11.8509C217.734 11.8814 217.618 11.9103 217.489 11.9377C217.359 11.962 217.229 11.9849 217.099 12.0062C216.97 12.0244 216.852 12.0412 216.746 12.0564C216.52 12.0899 216.322 12.1431 216.153 12.2162C215.984 12.2892 215.853 12.3882 215.76 12.513C215.666 12.6347 215.619 12.7869 215.619 12.9695C215.619 13.2343 215.714 13.4368 215.905 13.5768C216.098 13.7137 216.342 13.7822 216.638 13.7822Z" fill="#1D252C"/>
<path d="M221.496 14.9922V7.97917H223.365V9.20279H223.438C223.564 8.76753 223.777 8.43879 224.076 8.21659C224.374 7.99135 224.718 7.87873 225.108 7.87873C225.204 7.87873 225.308 7.88482 225.42 7.89699C225.531 7.90917 225.629 7.92591 225.714 7.94721V9.67307C225.623 9.64567 225.498 9.62132 225.338 9.60001C225.178 9.57871 225.032 9.56805 224.899 9.56805C224.616 9.56805 224.362 9.63045 224.139 9.75525C223.919 9.877 223.744 10.0475 223.614 10.2666C223.487 10.4858 223.424 10.7384 223.424 11.0245V14.9922H221.496Z" fill="#1D252C"/>
<path d="M180.706 42.1494V40.7127L184.938 34.026H186.136V36.0714H185.406L182.557 40.586V40.664H188.464V42.1494H180.706ZM185.464 44V41.711L185.484 41.0682V34.026H187.188V44H185.464ZM190.845 44.1071C190.549 44.1071 190.296 44.0032 190.085 43.7955C189.874 43.5877 189.77 43.3344 189.773 43.0357C189.77 42.7435 189.874 42.4935 190.085 42.2857C190.296 42.0779 190.549 41.974 190.845 41.974C191.13 41.974 191.379 42.0779 191.59 42.2857C191.804 42.4935 191.913 42.7435 191.916 43.0357C191.913 43.2338 191.861 43.414 191.76 43.5763C191.663 43.7386 191.533 43.8685 191.371 43.9659C191.211 44.0601 191.036 44.1071 190.845 44.1071ZM196.981 44.1364C196.504 44.1331 196.038 44.0503 195.583 43.888C195.129 43.7224 194.72 43.4545 194.356 43.0844C193.992 42.711 193.703 42.2159 193.489 41.599C193.275 40.9789 193.169 40.211 193.172 39.2955C193.172 38.4416 193.263 37.6802 193.445 37.0114C193.627 36.3425 193.888 35.7776 194.229 35.3166C194.57 34.8523 194.981 34.4984 195.461 34.2549C195.945 34.0114 196.486 33.8896 197.083 33.8896C197.71 33.8896 198.265 34.013 198.749 34.2597C199.236 34.5065 199.629 34.8442 199.927 35.2727C200.226 35.6981 200.411 36.1786 200.483 36.7143H198.705C198.614 36.3312 198.427 36.026 198.145 35.7987C197.866 35.5682 197.512 35.4529 197.083 35.4529C196.392 35.4529 195.859 35.7532 195.486 36.3539C195.116 36.9545 194.929 37.7792 194.926 38.8279H194.994C195.153 38.5422 195.359 38.2971 195.612 38.0925C195.866 37.888 196.151 37.7305 196.47 37.6201C196.791 37.5065 197.13 37.4497 197.487 37.4497C198.072 37.4497 198.596 37.5893 199.06 37.8685C199.528 38.1477 199.898 38.5325 200.171 39.0227C200.444 39.5097 200.578 40.0682 200.575 40.6981C200.578 41.3539 200.429 41.9432 200.127 42.4659C199.825 42.9854 199.405 43.3945 198.866 43.6932C198.327 43.9919 197.698 44.1396 196.981 44.1364ZM196.971 42.6753C197.325 42.6753 197.642 42.5893 197.921 42.4172C198.2 42.2451 198.421 42.013 198.583 41.7208C198.746 41.4286 198.825 41.1006 198.822 40.737C198.825 40.3799 198.747 40.0568 198.588 39.7679C198.432 39.4789 198.216 39.25 197.94 39.0812C197.664 38.9123 197.349 38.8279 196.996 38.8279C196.733 38.8279 196.487 38.8782 196.26 38.9789C196.033 39.0795 195.835 39.2192 195.666 39.3977C195.497 39.5731 195.364 39.7776 195.267 40.0114C195.172 40.2419 195.124 40.4886 195.121 40.7516C195.124 41.099 195.205 41.4188 195.364 41.711C195.523 42.0032 195.742 42.237 196.022 42.4123C196.301 42.5877 196.617 42.6753 196.971 42.6753ZM206.312 33.5584L203.098 45.5H201.554L204.768 33.5584H206.312ZM210.885 44.1364C210.236 44.1364 209.655 44.0146 209.142 43.7711C208.629 43.5244 208.221 43.1867 207.919 42.7581C207.621 42.3295 207.461 41.8393 207.442 41.2873H209.195C209.228 41.6964 209.405 42.0308 209.726 42.2906C210.047 42.5471 210.434 42.6753 210.885 42.6753C211.239 42.6753 211.554 42.5942 211.83 42.4318C212.106 42.2695 212.323 42.0438 212.483 41.7549C212.642 41.4659 212.72 41.1364 212.716 40.7662C212.72 40.3896 212.64 40.0552 212.478 39.763C212.315 39.4708 212.093 39.2419 211.81 39.0763C211.528 38.9075 211.203 38.8231 210.836 38.8231C210.538 38.8198 210.244 38.875 209.955 38.9886C209.666 39.1023 209.437 39.2516 209.268 39.4367L207.637 39.1688L208.158 34.026H213.944V35.5357H209.653L209.366 38.1802H209.424C209.609 37.9627 209.871 37.7825 210.208 37.6396C210.546 37.4935 210.916 37.4205 211.319 37.4205C211.922 37.4205 212.461 37.5633 212.935 37.849C213.409 38.1315 213.783 38.5211 214.056 39.0179C214.328 39.5146 214.465 40.0828 214.465 40.7224C214.465 41.3815 214.312 41.9692 214.007 42.4854C213.705 42.9984 213.284 43.4026 212.746 43.6981C212.21 43.9903 211.59 44.1364 210.885 44.1364Z" fill="#597287"/>
<path d="M230.508 33.5063C230.811 32.6333 232.046 32.6333 232.349 33.5063L233.221 36.0144C233.355 36.3995 233.714 36.6606 234.122 36.6689L236.776 36.723C237.701 36.7418 238.082 37.916 237.346 38.4744L235.23 40.0785C234.905 40.3248 234.768 40.7473 234.886 41.1376L235.654 43.679C235.922 44.5637 234.923 45.2894 234.165 44.7615L231.985 43.2449C231.651 43.012 231.206 43.012 230.872 43.2449L228.692 44.7615C227.933 45.2894 226.935 44.5637 227.202 43.679L227.971 41.1376C228.089 40.7473 227.952 40.3248 227.627 40.0785L225.511 38.4744C224.775 37.916 225.156 36.7418 226.08 36.723L228.735 36.6689C229.143 36.6606 229.502 36.3995 229.636 36.0144L230.508 33.5063Z" fill="#FCDA01"/>
<path d="M248.508 33.5063C248.811 32.6333 250.046 32.6333 250.349 33.5063L251.221 36.0144C251.355 36.3995 251.714 36.6606 252.122 36.6689L254.776 36.723C255.701 36.7418 256.082 37.916 255.346 38.4744L253.23 40.0785C252.905 40.3248 252.768 40.7473 252.886 41.1376L253.654 43.679C253.922 44.5637 252.923 45.2894 252.165 44.7615L249.985 43.2449C249.651 43.012 249.206 43.012 248.872 43.2449L246.692 44.7615C245.933 45.2894 244.935 44.5637 245.202 43.679L245.971 41.1376C246.089 40.7473 245.952 40.3248 245.627 40.0785L243.511 38.4744C242.775 37.916 243.156 36.7418 244.08 36.723L246.735 36.6689C247.143 36.6606 247.502 36.3995 247.636 36.0144L248.508 33.5063Z" fill="#FCDA01"/>
<path d="M284.508 33.5063C284.811 32.6333 286.046 32.6333 286.349 33.5063L287.221 36.0144C287.355 36.3995 287.714 36.6606 288.122 36.6689L290.776 36.723C291.701 36.7418 292.082 37.916 291.346 38.4744L289.23 40.0785C288.905 40.3248 288.768 40.7473 288.886 41.1376L289.654 43.679C289.922 44.5637 288.923 45.2894 288.165 44.7615L285.985 43.2449C285.651 43.012 285.206 43.012 284.872 43.2449L282.692 44.7615C281.933 45.2894 280.935 44.5637 281.202 43.679L281.971 41.1376C282.089 40.7473 281.952 40.3248 281.627 40.0785L279.511 38.4744C278.775 37.916 279.156 36.7418 280.08 36.723L282.735 36.6689C283.143 36.6606 283.502 36.3995 283.636 36.0144L284.508 33.5063Z" fill="#FCDA01"/>
<path d="M266.508 33.5063C266.811 32.6333 268.046 32.6333 268.349 33.5063L269.221 36.0144C269.355 36.3995 269.714 36.6606 270.122 36.6689L272.776 36.723C273.701 36.7418 274.082 37.916 273.346 38.4744L271.23 40.0785C270.905 40.3248 270.768 40.7473 270.886 41.1376L271.654 43.679C271.922 44.5637 270.923 45.2894 270.165 44.7615L267.985 43.2449C267.651 43.012 267.206 43.012 266.872 43.2449L264.692 44.7615C263.933 45.2894 262.935 44.5637 263.202 43.679L263.971 41.1376C264.089 40.7473 263.952 40.3248 263.627 40.0785L261.511 38.4744C260.775 37.916 261.156 36.7418 262.08 36.723L264.735 36.6689C265.143 36.6606 265.502 36.3995 265.636 36.0144L266.508 33.5063Z" fill="#FCDA01"/>
<path d="M302.508 33.5063C302.811 32.6333 304.046 32.6333 304.349 33.5063L305.221 36.0144C305.355 36.3995 305.714 36.6606 306.122 36.6689L308.776 36.723C309.701 36.7418 310.082 37.916 309.346 38.4744L307.23 40.0785C306.905 40.3248 306.768 40.7473 306.886 41.1376L307.654 43.679C307.922 44.5637 306.923 45.2894 306.165 44.7615L303.985 43.2449C303.651 43.012 303.206 43.012 302.872 43.2449L300.692 44.7615C299.933 45.2894 298.935 44.5637 299.202 43.679L299.971 41.1376C300.089 40.7473 299.952 40.3248 299.627 40.0785L297.511 38.4744C296.775 37.916 297.156 36.7418 298.08 36.723L300.735 36.6689C301.143 36.6606 301.502 36.3995 301.636 36.0144L302.508 33.5063Z" fill="#FCDA01"/>
<defs>
<clipPath id="clip0_225_3651">
<rect width="20.3909" height="20.5714" fill="white" transform="translate(231.609)"/>
</clipPath>
</defs>
</svg>
