<svg width="36" height="36" fill="none" xmlns="http://www.w3.org/2000/svg"><g clip-path="url(#clip0_750_2104)" stroke="#1D252C" stroke-width="2.5" stroke-miterlimit="10" stroke-linejoin="round"><path d="M31.5 27h-15v-7.5h12c1.65 0 3 1.35 3 3V27zm-17.25 7.5a3.75 3.75 0 100-7.5 3.75 3.75 0 000 7.5zm16.5 0a3.75 3.75 0 100-7.5 3.75 3.75 0 000 7.5zM15 27h15m-15 7.5h15M25.5 12h-9v7.5h9V12zM6 24a4.5 4.5 0 100-9 4.5 4.5 0 000 9zm0-9V1.5l10.5 12"/></g><defs><clipPath id="clip0_750_2104"><path fill="#fff" d="M0 0h36v36H0z"/></clipPath></defs></svg>