<svg width="120" height="138" fill="none" xmlns="http://www.w3.org/2000/svg"><path d="M80.326 66.027v59.426c0 6.932-5.335 12.546-11.923 12.546h-56.48C5.336 137.999 0 132.385 0 125.453V66.027c0-6.932 5.335-12.546 11.924-12.546h56.479c6.588 0 11.923-5.613 11.923-12.545V18.953c0-4.87 3.706-8.818 8.276-8.818h23.122c4.571 0 8.276 3.948 8.276 8.818v25.71c0 4.87-3.705 8.818-8.276 8.818H92.25c-6.588 0-11.924 5.614-11.924 12.546z" fill="#fff"/><path d="M114.073 0c0 6.03-4.642 10.916-10.37 10.916h10.37V.001zm0 63.154c0-6.029-4.642-10.916-10.37-10.916h10.37v10.916z" fill="#fff"/></svg>