<svg width="140" height="153" fill="none" xmlns="http://www.w3.org/2000/svg"><path d="M46.286 73.187v65.87c0 7.683 6.224 13.906 13.91 13.906h65.893c7.686 0 13.911-6.223 13.911-13.906v-65.87c0-7.683-6.225-13.906-13.911-13.906H60.197c-7.687 0-13.911-6.222-13.911-13.906V21.009c0-5.399-4.323-9.775-9.656-9.775H9.655C4.323 11.234 0 15.611 0 21.01v28.498c0 5.398 4.323 9.774 9.655 9.774h22.72c7.686 0 13.91 6.223 13.91 13.906z" fill="#fff"/><path d="M6.913 0c0 6.683 5.417 12.1 12.099 12.1h-12.1L6.914 0zm0 70c0-6.683 5.417-12.1 12.099-12.1h-12.1L6.914 70z" fill="#fff"/></svg>