<svg width="40" height="40" fill="none" xmlns="http://www.w3.org/2000/svg"><path d="M14.987 20.003a6.667 6.667 0 100-13.334 6.667 6.667 0 000 13.334zm0-10a3.334 3.334 0 110 6.667 3.334 3.334 0 010-6.667zM28.32 23.33a4.999 4.999 0 100-9.998 4.999 4.999 0 000 9.998zm0-6.667a1.668 1.668 0 011.18 2.847 1.666 1.666 0 11-1.179-2.846zm0 8.34v3.334a5 5 0 015 5h-6.666a11.666 11.666 0 10-23.334 0v3.333h33.334v-3.333a8.344 8.344 0 00-8.334-8.334zM6.654 33.337a8.333 8.333 0 1116.666 0H6.654z" fill="#FCDA01"/></svg>