<svg width="80" height="80" viewBox="0 0 80 80" fill="none" xmlns="http://www.w3.org/2000/svg">
<path d="M53.75 35V72.1807C53.75 76.5178 49.9941 80 45.6019 80H7.9491C3.55691 80 4.98542e-07 76.4877 4.46462e-07 72.1506L0 34.9699C-5.20798e-08 30.6327 3.58001 26.25 7.9722 26.25H45.625C50.0172 26.25 53.75 23.6382 53.75 19.3011V5.54736C53.75 2.50028 56.2202 0.030122 59.2672 0.030122L74.4828 0C77.5299 -3.6085e-08 80 2.47016 80 5.51725V21.6032C80 24.6502 77.5529 26.25 74.5059 26.25H61.5232C57.1311 26.25 53.75 30.6629 53.75 35Z" fill="#FCDA01"/>
<g clip-path="url(#clip0_112_537)">
<path d="M23.828 57.2287C27.915 57.2287 31.2282 53.9155 31.2282 49.8285C31.2282 45.7414 27.915 42.4282 23.828 42.4282C19.7409 42.4282 16.4277 45.7414 16.4277 49.8285C16.4277 53.9155 19.7409 57.2287 23.828 57.2287Z" stroke="#1D252C" stroke-width="2.5" stroke-linecap="round" stroke-linejoin="round"/>
<path d="M30.171 63.5718C34.2581 63.5718 37.5713 60.2586 37.5713 56.1715C37.5713 52.0845 34.2581 48.7713 30.171 48.7713C26.084 48.7713 22.7708 52.0845 22.7708 56.1715C22.7708 60.2586 26.084 63.5718 30.171 63.5718Z" stroke="#1D252C" stroke-width="2.5" stroke-linecap="round" stroke-linejoin="round"/>
</g>
<defs>
<clipPath id="clip0_112_537">
<rect width="24" height="24" fill="white" transform="translate(15 41)"/>
</clipPath>
</defs>
</svg>
