<svg width="80" height="80" viewBox="0 0 80 80" fill="none" xmlns="http://www.w3.org/2000/svg">
<path d="M53.75 35V72.1807C53.75 76.5178 49.9941 80 45.6019 80H7.9491C3.55691 80 4.98542e-07 76.4877 4.46462e-07 72.1506L0 34.9699C-5.20798e-08 30.6327 3.58001 26.25 7.9722 26.25H45.625C50.0172 26.25 53.75 23.6382 53.75 19.3011V5.54736C53.75 2.50028 56.2202 0.030122 59.2672 0.030122L74.4828 0C77.5299 -3.6085e-08 80 2.47016 80 5.51725V21.6032C80 24.6502 77.5529 26.25 74.5059 26.25H61.5232C57.1311 26.25 53.75 30.6629 53.75 35Z" fill="#FCDA01"/>
<g clip-path="url(#clip0_112_529)">
<path d="M27.5321 45.5444H27.0694C23.8238 45.5444 22.201 45.5444 21.585 46.1273C21.0525 46.6312 20.8165 47.3734 20.9603 48.0923C21.1266 48.9239 22.4515 49.861 25.1012 51.7352L29.4303 54.7973C32.0801 56.6715 33.405 57.6086 33.5713 58.4402C33.715 59.1591 33.4791 59.9014 32.9466 60.4052C32.3306 60.9882 30.7078 60.9882 27.4622 60.9882H26.467M31.2599 45.5444C31.2599 47.3091 32.6904 48.7396 34.4551 48.7396C36.2198 48.7396 37.6504 47.3091 37.6504 45.5444C37.6504 43.7797 36.2198 42.3491 34.4551 42.3491C32.6904 42.3491 31.2599 43.7797 31.2599 45.5444ZM16.3486 60.4556C16.3486 62.2203 17.7792 63.6509 19.5439 63.6509C21.3086 63.6509 22.7392 62.2203 22.7392 60.4556C22.7392 58.6909 21.3086 57.2604 19.5439 57.2604C17.7792 57.2604 16.3486 58.6909 16.3486 60.4556Z" stroke="#1D252C" stroke-width="2.5" stroke-linejoin="round"/>
</g>
<defs>
<clipPath id="clip0_112_529">
<rect width="24" height="24" fill="white" transform="matrix(-1 0 0 1 39 41)"/>
</clipPath>
</defs>
</svg>
