<svg width="80" height="80" viewBox="0 0 80 80" fill="none" xmlns="http://www.w3.org/2000/svg">
<path d="M53.75 35V72.1807C53.75 76.5178 49.9941 80 45.6019 80H7.9491C3.55691 80 4.98542e-07 76.4877 4.46462e-07 72.1506L0 34.9699C-5.20798e-08 30.6327 3.58001 26.25 7.9722 26.25H45.625C50.0172 26.25 53.75 23.6382 53.75 19.3011V5.54736C53.75 2.50028 56.2202 0.030122 59.2672 0.030122L74.4828 0C77.5299 -3.6085e-08 80 2.47016 80 5.51725V21.6032C80 24.6502 77.5529 26.25 74.5059 26.25H61.5232C57.1311 26.25 53.75 30.6629 53.75 35Z" fill="#FCDA01"/>
<g clip-path="url(#clip0_112_512)">
<path d="M22.7748 55.1131C22.7748 55.1131 24.3596 57.2262 27.001 57.2262C29.6423 57.2262 31.2271 55.1131 31.2271 55.1131M30.1706 49.8304H30.1812M22.7748 49.8304H24.8879M37.5664 53C37.5664 58.8351 32.8361 63.5654 27.001 63.5654C21.1659 63.5654 16.4355 58.8351 16.4355 53C16.4355 47.1649 21.1659 42.4346 27.001 42.4346C32.8361 42.4346 37.5664 47.1649 37.5664 53ZM30.6989 49.8304C30.6989 50.1221 30.4624 50.3586 30.1706 50.3586C29.8788 50.3586 29.6423 50.1221 29.6423 49.8304C29.6423 49.5386 29.8788 49.3021 30.1706 49.3021C30.4624 49.3021 30.6989 49.5386 30.6989 49.8304Z" stroke="#1D252C" stroke-width="2.5" stroke-linecap="round" stroke-linejoin="round"/>
</g>
<defs>
<clipPath id="clip0_112_512">
<rect width="24" height="24" fill="white" transform="translate(15 41)"/>
</clipPath>
</defs>
</svg>
