<svg width="711" height="607" viewBox="0 0 711 607" fill="none" xmlns="http://www.w3.org/2000/svg">
<path d="M600.096 230.2H534.237C526.555 230.2 520.333 236.457 520.333 244.183V498.817C520.333 506.543 514.112 512.8 506.429 512.8H440.571C432.888 512.8 426.667 519.057 426.667 526.783V593.017C426.667 600.743 420.445 607 412.763 607H159.571C151.888 607 145.667 600.743 145.667 593.017V526.783C145.667 519.057 139.445 512.8 131.763 512.8H65.9039C58.2215 512.8 52 506.543 52 498.817V244.183C52 236.457 58.2215 230.2 65.9039 230.2H131.763C139.445 230.2 145.667 223.943 145.667 216.217V149.983C145.667 142.257 151.888 136 159.571 136H412.763C420.445 136 426.667 142.257 426.667 149.983V216.217C426.667 223.943 432.888 230.2 440.571 230.2H506.429C514.112 230.2 520.333 223.943 520.333 216.217V149.983C520.333 142.257 526.555 136 534.237 136H600.096C607.779 136 614 142.257 614 149.983V216.217C614 223.943 607.779 230.2 600.096 230.2ZM412.763 230.2H159.571C151.888 230.2 145.667 236.457 145.667 244.183V498.817C145.667 506.543 151.888 512.8 159.571 512.8H412.763C420.445 512.8 426.667 506.543 426.667 498.817V244.183C426.667 236.457 420.445 230.2 412.763 230.2Z" fill="#FCDA01" fill-opacity="0.3"/>
<g filter="url(#filter0_d_198_7697)">
<g clip-path="url(#clip0_198_7697)">
<rect x="81" y="79.5029" width="600" height="456.497" rx="13.5593" fill="white"/>
<rect x="110.381" y="189.107" width="110.734" height="7.9096" rx="3.9548" fill="#1D252C" fill-opacity="0.05"/>
<rect x="110.381" y="203.797" width="66.6667" height="7.9096" rx="3.9548" fill="#1D252C" fill-opacity="0.05"/>
<path d="M114.625 505.967V498.155H119.469V499.17H115.803V501.55H119.122V502.561H115.803V505.967H114.625ZM122.922 506.085C122.345 506.085 121.848 505.962 121.43 505.715C121.016 505.466 120.696 505.116 120.469 504.666C120.245 504.213 120.134 503.683 120.134 503.076C120.134 502.475 120.245 501.947 120.469 501.489C120.696 501.031 121.011 500.674 121.415 500.417C121.822 500.16 122.298 500.032 122.842 500.032C123.172 500.032 123.493 500.086 123.803 500.196C124.113 500.305 124.392 500.477 124.638 500.711C124.885 500.945 125.079 501.249 125.222 501.622C125.364 501.994 125.435 502.445 125.435 502.976V503.381H120.778V502.526H124.318C124.318 502.226 124.257 501.961 124.135 501.729C124.013 501.495 123.841 501.311 123.62 501.176C123.401 501.041 123.144 500.974 122.849 500.974C122.529 500.974 122.249 501.053 122.01 501.21C121.774 501.365 121.591 501.569 121.461 501.821C121.334 502.07 121.27 502.341 121.27 502.633V503.301C121.27 503.692 121.339 504.025 121.476 504.3C121.616 504.575 121.811 504.784 122.06 504.929C122.309 505.072 122.6 505.143 122.933 505.143C123.149 505.143 123.347 505.112 123.525 505.051C123.703 504.988 123.856 504.894 123.986 504.769C124.116 504.645 124.215 504.491 124.284 504.308L125.363 504.502C125.277 504.82 125.121 505.098 124.898 505.337C124.676 505.574 124.398 505.758 124.062 505.891C123.729 506.02 123.349 506.085 122.922 506.085ZM126.792 505.967V498.155H127.933V501.058H128.002C128.068 500.936 128.163 500.795 128.288 500.634C128.412 500.474 128.585 500.334 128.806 500.215C129.028 500.093 129.32 500.032 129.684 500.032C130.157 500.032 130.579 500.151 130.95 500.39C131.321 500.629 131.612 500.974 131.823 501.424C132.037 501.874 132.144 502.416 132.144 503.049C132.144 503.682 132.038 504.225 131.827 504.678C131.616 505.128 131.326 505.475 130.958 505.719C130.589 505.96 130.168 506.081 129.695 506.081C129.339 506.081 129.048 506.021 128.822 505.902C128.598 505.782 128.422 505.643 128.295 505.482C128.168 505.322 128.07 505.18 128.002 505.055H127.906V505.967H126.792ZM127.91 503.037C127.91 503.449 127.97 503.81 128.089 504.121C128.209 504.431 128.382 504.674 128.608 504.849C128.834 505.022 129.112 505.109 129.44 505.109C129.78 505.109 130.065 505.018 130.294 504.838C130.523 504.655 130.696 504.407 130.813 504.094C130.932 503.781 130.992 503.429 130.992 503.037C130.992 502.651 130.933 502.304 130.816 501.996C130.702 501.688 130.529 501.446 130.298 501.268C130.069 501.09 129.783 501.001 129.44 501.001C129.109 501.001 128.829 501.086 128.6 501.256C128.374 501.427 128.202 501.664 128.085 501.969C127.968 502.275 127.91 502.631 127.91 503.037ZM139.216 498.155V505.967H138.033V499.338H137.987L136.118 500.558V499.429L138.067 498.155H139.216ZM141.329 505.967V505.112L143.972 502.374C144.254 502.076 144.487 501.816 144.67 501.592C144.856 501.365 144.994 501.151 145.086 500.947C145.177 500.744 145.223 500.528 145.223 500.299C145.223 500.039 145.162 499.816 145.04 499.627C144.918 499.437 144.751 499.291 144.54 499.189C144.329 499.085 144.092 499.032 143.827 499.032C143.547 499.032 143.303 499.09 143.095 499.204C142.886 499.318 142.726 499.48 142.614 499.688C142.502 499.897 142.446 500.141 142.446 500.421H141.321C141.321 499.945 141.43 499.53 141.649 499.174C141.868 498.818 142.168 498.542 142.549 498.346C142.931 498.147 143.364 498.048 143.85 498.048C144.341 498.048 144.773 498.146 145.147 498.342C145.523 498.535 145.817 498.8 146.028 499.135C146.239 499.469 146.344 499.845 146.344 500.264C146.344 500.554 146.29 500.838 146.18 501.115C146.074 501.392 145.887 501.701 145.62 502.042C145.353 502.38 144.982 502.791 144.506 503.274L142.954 504.899V504.956H146.47V505.967H141.329Z" fill="#1D252C" fill-opacity="0.64"/>
<path d="M241.093 492.991H242.824L245.144 498.651H245.235L247.554 492.991H249.286V500.803H247.928V495.436H247.855L245.697 500.78H244.682L242.523 495.425H242.451V500.803H241.093V492.991ZM252.452 500.921C252.08 500.921 251.746 500.855 251.449 500.723C251.154 500.588 250.92 500.39 250.747 500.128C250.576 499.866 250.491 499.543 250.491 499.159C250.491 498.828 250.552 498.555 250.674 498.339C250.796 498.123 250.963 497.95 251.174 497.82C251.385 497.69 251.623 497.592 251.887 497.526C252.154 497.458 252.43 497.408 252.715 497.377C253.058 497.342 253.337 497.31 253.55 497.282C253.764 497.252 253.919 497.206 254.016 497.145C254.115 497.081 254.164 496.983 254.164 496.851V496.828C254.164 496.541 254.079 496.318 253.909 496.161C253.738 496.003 253.493 495.924 253.173 495.924C252.834 495.924 252.566 495.998 252.368 496.145C252.172 496.293 252.04 496.467 251.971 496.668L250.682 496.485C250.784 496.129 250.951 495.831 251.185 495.592C251.419 495.351 251.705 495.17 252.044 495.051C252.382 494.929 252.756 494.868 253.165 494.868C253.447 494.868 253.728 494.901 254.008 494.967C254.288 495.033 254.543 495.142 254.775 495.295C255.006 495.445 255.192 495.65 255.332 495.909C255.474 496.168 255.545 496.493 255.545 496.882V500.803H254.218V499.998H254.172C254.088 500.161 253.97 500.313 253.817 500.456C253.667 500.595 253.478 500.709 253.249 500.795C253.023 500.879 252.757 500.921 252.452 500.921ZM252.81 499.906C253.087 499.906 253.328 499.852 253.531 499.742C253.735 499.63 253.891 499.483 254 499.3C254.112 499.117 254.168 498.917 254.168 498.701V498.011C254.125 498.046 254.051 498.079 253.947 498.11C253.845 498.14 253.731 498.167 253.604 498.19C253.476 498.213 253.351 498.233 253.226 498.251C253.101 498.269 252.993 498.284 252.902 498.297C252.696 498.325 252.511 498.37 252.349 498.434C252.186 498.498 252.058 498.587 251.963 498.701C251.869 498.813 251.822 498.958 251.822 499.136C251.822 499.39 251.915 499.582 252.101 499.712C252.286 499.842 252.523 499.906 252.81 499.906ZM256.934 500.803V494.944H258.272V495.92H258.333C258.44 495.582 258.623 495.322 258.883 495.139C259.145 494.953 259.443 494.86 259.779 494.86C259.855 494.86 259.94 494.864 260.035 494.872C260.131 494.877 260.211 494.885 260.275 494.898V496.168C260.216 496.148 260.124 496.13 259.996 496.115C259.872 496.097 259.751 496.088 259.634 496.088C259.382 496.088 259.156 496.143 258.955 496.252C258.757 496.359 258.6 496.508 258.486 496.699C258.372 496.889 258.314 497.109 258.314 497.358V500.803H256.934Z" fill="#1D252C" fill-opacity="0.8"/>
<path d="M366.647 493.585H368.152L370.768 499.973H370.864L373.48 493.585H374.985V501.803H373.805V495.856H373.729L371.306 501.791H370.327L367.903 495.852H367.827V501.803H366.647V493.585ZM378.485 501.939C378.095 501.939 377.741 501.867 377.426 501.722C377.11 501.575 376.86 501.363 376.675 501.084C376.494 500.806 376.403 500.465 376.403 500.061C376.403 499.714 376.469 499.427 376.603 499.203C376.737 498.978 376.918 498.8 377.145 498.669C377.372 498.538 377.626 498.439 377.907 498.372C378.188 498.305 378.474 498.254 378.766 498.219C379.135 498.177 379.435 498.142 379.665 498.115C379.895 498.086 380.062 498.039 380.166 497.975C380.271 497.911 380.323 497.806 380.323 497.662V497.634C380.323 497.283 380.224 497.012 380.026 496.819C379.831 496.627 379.539 496.53 379.151 496.53C378.747 496.53 378.429 496.62 378.196 496.799C377.966 496.976 377.807 497.172 377.719 497.389L376.591 497.132C376.725 496.758 376.92 496.455 377.177 496.225C377.436 495.993 377.735 495.824 378.072 495.72C378.409 495.613 378.763 495.559 379.135 495.559C379.381 495.559 379.642 495.589 379.918 495.647C380.196 495.704 380.455 495.808 380.696 495.96C380.939 496.113 381.139 496.331 381.294 496.614C381.449 496.895 381.527 497.26 381.527 497.71V501.803H380.355V500.96H380.307C380.229 501.115 380.113 501.268 379.958 501.418C379.803 501.567 379.603 501.692 379.36 501.791C379.116 501.89 378.825 501.939 378.485 501.939ZM378.746 500.976C379.078 500.976 379.361 500.911 379.597 500.78C379.835 500.648 380.015 500.477 380.138 500.266C380.264 500.052 380.327 499.823 380.327 499.58V498.785C380.284 498.828 380.201 498.868 380.078 498.906C379.958 498.94 379.82 498.971 379.665 498.998C379.51 499.022 379.359 499.045 379.211 499.066C379.064 499.085 378.941 499.101 378.842 499.114C378.609 499.144 378.397 499.193 378.204 499.263C378.014 499.332 377.862 499.433 377.747 499.564C377.634 499.692 377.578 499.863 377.578 500.077C377.578 500.374 377.688 500.599 377.907 500.751C378.127 500.901 378.406 500.976 378.746 500.976ZM383.125 501.803V495.639H384.284V496.618H384.348C384.461 496.287 384.659 496.026 384.942 495.836C385.229 495.643 385.552 495.547 385.913 495.547C385.988 495.547 386.077 495.55 386.178 495.555C386.283 495.56 386.364 495.567 386.423 495.575V496.723C386.375 496.709 386.289 496.695 386.166 496.679C386.043 496.66 385.92 496.651 385.797 496.651C385.513 496.651 385.261 496.711 385.039 496.831C384.819 496.949 384.645 497.113 384.517 497.325C384.389 497.533 384.324 497.771 384.324 498.039V501.803H383.125ZM393.297 501.939C392.663 501.936 392.121 501.769 391.671 501.438C391.222 501.106 390.878 500.623 390.64 499.989C390.402 499.355 390.283 498.591 390.283 497.698C390.283 496.807 390.402 496.046 390.64 495.415C390.881 494.783 391.226 494.302 391.675 493.97C392.128 493.638 392.668 493.473 393.297 493.473C393.925 493.473 394.464 493.64 394.914 493.974C395.363 494.306 395.707 494.787 395.945 495.419C396.186 496.047 396.306 496.807 396.306 497.698C396.306 498.594 396.187 499.359 395.949 499.993C395.711 500.624 395.367 501.107 394.918 501.442C394.468 501.773 393.928 501.939 393.297 501.939ZM393.297 500.868C393.853 500.868 394.288 500.596 394.601 500.053C394.916 499.51 395.074 498.725 395.074 497.698C395.074 497.016 395.002 496.439 394.857 495.968C394.716 495.495 394.511 495.136 394.244 494.893C393.979 494.647 393.663 494.524 393.297 494.524C392.743 494.524 392.308 494.797 391.992 495.342C391.677 495.888 391.518 496.673 391.515 497.698C391.515 498.383 391.586 498.962 391.728 499.435C391.872 499.906 392.077 500.263 392.342 500.507C392.606 500.747 392.925 500.868 393.297 500.868ZM397.786 501.803L401.373 494.708V494.648H397.224V493.585H402.657V494.684L399.082 501.803H397.786Z" fill="#1D252C" fill-opacity="0.64"/>
<rect x="596.52" y="496.452" width="48.5876" height="7.9096" rx="3.9548" fill="#1D252C" fill-opacity="0.05"/>
<rect x="332.978" y="213.966" width="103.955" height="7.9096" rx="3.9548" fill="#1D252C" fill-opacity="0.05"/>
<path d="M537.52 214.134C537.149 214.134 536.814 214.065 536.514 213.928C536.213 213.788 535.976 213.586 535.8 213.321C535.627 213.057 535.541 212.732 535.541 212.349C535.541 212.018 535.604 211.746 535.732 211.532C535.859 211.319 536.03 211.15 536.247 211.025C536.463 210.9 536.704 210.806 536.971 210.743C537.238 210.679 537.51 210.631 537.787 210.598C538.138 210.557 538.423 210.524 538.642 210.499C538.861 210.471 539.02 210.426 539.119 210.365C539.218 210.304 539.267 210.205 539.267 210.068V210.041C539.267 209.708 539.173 209.45 538.985 209.267C538.8 209.083 538.522 208.992 538.154 208.992C537.77 208.992 537.467 209.077 537.246 209.247C537.027 209.415 536.876 209.602 536.792 209.808L535.72 209.564C535.847 209.208 536.033 208.921 536.277 208.702C536.524 208.481 536.807 208.321 537.128 208.221C537.448 208.12 537.785 208.069 538.138 208.069C538.372 208.069 538.62 208.097 538.882 208.153C539.147 208.206 539.393 208.305 539.622 208.45C539.854 208.595 540.043 208.802 540.19 209.072C540.338 209.339 540.412 209.686 540.412 210.113V214.004H539.298V213.203H539.252C539.178 213.35 539.068 213.495 538.92 213.638C538.773 213.78 538.583 213.898 538.352 213.992C538.121 214.087 537.843 214.134 537.52 214.134ZM537.768 213.218C538.084 213.218 538.353 213.156 538.577 213.031C538.803 212.907 538.975 212.744 539.092 212.543C539.211 212.34 539.271 212.122 539.271 211.891V211.136C539.231 211.176 539.152 211.214 539.035 211.25C538.92 211.283 538.789 211.312 538.642 211.338C538.494 211.361 538.351 211.382 538.211 211.403C538.071 211.42 537.954 211.436 537.86 211.448C537.639 211.476 537.437 211.523 537.253 211.589C537.073 211.656 536.928 211.751 536.819 211.876C536.712 211.998 536.658 212.16 536.658 212.364C536.658 212.646 536.763 212.86 536.971 213.005C537.18 213.147 537.445 213.218 537.768 213.218ZM546.733 208.145L544.608 214.004H543.388L541.259 208.145H542.484L543.968 212.654H544.029L545.509 208.145H546.733ZM550.062 216.323C549.597 216.323 549.196 216.262 548.86 216.14C548.527 216.018 548.255 215.856 548.044 215.655C547.833 215.455 547.675 215.235 547.571 214.996L548.551 214.591C548.62 214.703 548.712 214.821 548.826 214.946C548.943 215.073 549.101 215.181 549.299 215.27C549.5 215.359 549.758 215.404 550.073 215.404C550.506 215.404 550.863 215.298 551.145 215.087C551.427 214.879 551.569 214.546 551.569 214.088V212.936H551.496C551.427 213.061 551.328 213.199 551.199 213.352C551.071 213.504 550.896 213.636 550.672 213.748C550.448 213.86 550.157 213.916 549.799 213.916C549.336 213.916 548.919 213.808 548.548 213.592C548.179 213.373 547.886 213.052 547.67 212.627C547.457 212.2 547.35 211.675 547.35 211.052C547.35 210.429 547.455 209.895 547.667 209.45C547.88 209.005 548.173 208.664 548.544 208.427C548.915 208.188 549.336 208.069 549.806 208.069C550.17 208.069 550.464 208.13 550.687 208.252C550.911 208.371 551.085 208.511 551.21 208.672C551.337 208.832 551.435 208.973 551.504 209.095H551.588V208.145H552.705V214.134C552.705 214.637 552.588 215.05 552.354 215.373C552.12 215.696 551.804 215.935 551.405 216.09C551.008 216.245 550.56 216.323 550.062 216.323ZM550.05 212.97C550.378 212.97 550.656 212.894 550.882 212.741C551.111 212.586 551.284 212.365 551.401 212.078C551.52 211.788 551.58 211.441 551.58 211.036C551.58 210.642 551.521 210.295 551.405 209.995C551.288 209.695 551.116 209.461 550.89 209.293C550.663 209.123 550.384 209.038 550.05 209.038C549.707 209.038 549.421 209.127 549.192 209.305C548.963 209.48 548.79 209.719 548.673 210.022C548.559 210.324 548.502 210.663 548.502 211.036C548.502 211.42 548.56 211.757 548.677 212.047C548.794 212.337 548.967 212.563 549.196 212.726C549.427 212.889 549.712 212.97 550.05 212.97ZM554.986 214.076C554.778 214.076 554.598 214.003 554.448 213.855C554.298 213.705 554.223 213.525 554.223 213.314C554.223 213.105 554.298 212.927 554.448 212.78C554.598 212.629 554.778 212.554 554.986 212.554C555.195 212.554 555.374 212.629 555.524 212.78C555.674 212.927 555.749 213.105 555.749 213.314C555.749 213.453 555.713 213.582 555.642 213.699C555.574 213.813 555.482 213.905 555.368 213.973C555.253 214.042 555.126 214.076 554.986 214.076ZM562.518 214.122C561.941 214.122 561.444 213.999 561.027 213.752C560.613 213.503 560.292 213.153 560.066 212.703C559.842 212.251 559.73 211.72 559.73 211.113C559.73 210.513 559.842 209.984 560.066 209.526C560.292 209.068 560.607 208.711 561.012 208.454C561.419 208.197 561.894 208.069 562.438 208.069C562.769 208.069 563.089 208.124 563.4 208.233C563.71 208.342 563.988 208.514 564.235 208.748C564.482 208.982 564.676 209.286 564.818 209.659C564.961 210.031 565.032 210.482 565.032 211.013V211.418H560.375V210.563H563.914C563.914 210.263 563.853 209.998 563.731 209.766C563.609 209.532 563.438 209.348 563.216 209.213C562.998 209.078 562.741 209.011 562.446 209.011C562.126 209.011 561.846 209.09 561.607 209.247C561.37 209.403 561.187 209.606 561.058 209.858C560.93 210.107 560.867 210.378 560.867 210.67V211.338C560.867 211.729 560.935 212.062 561.073 212.337C561.213 212.612 561.407 212.821 561.656 212.966C561.906 213.109 562.197 213.18 562.53 213.18C562.746 213.18 562.943 213.15 563.121 213.088C563.299 213.025 563.453 212.931 563.583 212.806C563.712 212.682 563.811 212.528 563.88 212.345L564.96 212.539C564.873 212.857 564.718 213.136 564.494 213.375C564.273 213.611 563.995 213.795 563.659 213.928C563.326 214.057 562.946 214.122 562.518 214.122ZM567.061 208.145L568.354 210.426L569.659 208.145H570.906L569.079 211.075L570.921 214.004H569.674L568.354 211.815L567.038 214.004H565.787L567.611 211.075L565.81 208.145H567.061ZM572.077 214.004V208.145H573.218V214.004H572.077ZM572.653 207.241C572.455 207.241 572.284 207.175 572.142 207.043C572.002 206.908 571.932 206.748 571.932 206.562C571.932 206.374 572.002 206.214 572.142 206.082C572.284 205.947 572.455 205.879 572.653 205.879C572.851 205.879 573.02 205.947 573.16 206.082C573.303 206.214 573.374 206.374 573.374 206.562C573.374 206.748 573.303 206.908 573.16 207.043C573.02 207.175 572.851 207.241 572.653 207.241ZM577.487 208.145V209.061H574.286V208.145H577.487ZM575.145 206.741H576.285V212.284C576.285 212.505 576.318 212.671 576.384 212.783C576.45 212.893 576.536 212.968 576.64 213.008C576.747 213.047 576.862 213.066 576.987 213.066C577.079 213.066 577.159 213.059 577.227 213.047C577.296 213.034 577.349 213.024 577.387 213.016L577.593 213.958C577.527 213.984 577.433 214.009 577.311 214.034C577.189 214.062 577.037 214.078 576.853 214.08C576.553 214.085 576.274 214.032 576.014 213.92C575.755 213.808 575.545 213.635 575.385 213.401C575.225 213.167 575.145 212.874 575.145 212.52V206.741ZM581.591 214.004V208.145H582.693V209.076H582.754C582.861 208.761 583.049 208.513 583.319 208.332C583.591 208.149 583.898 208.057 584.242 208.057C584.313 208.057 584.397 208.06 584.494 208.065C584.593 208.07 584.67 208.076 584.726 208.084V209.175C584.68 209.162 584.599 209.148 584.482 209.133C584.365 209.115 584.248 209.106 584.131 209.106C583.862 209.106 583.621 209.164 583.41 209.278C583.202 209.39 583.036 209.546 582.914 209.747C582.792 209.945 582.731 210.172 582.731 210.426V214.004H581.591ZM587.366 214.134C586.994 214.134 586.659 214.065 586.359 213.928C586.059 213.788 585.821 213.586 585.645 213.321C585.473 213.057 585.386 212.732 585.386 212.349C585.386 212.018 585.45 211.746 585.577 211.532C585.704 211.319 585.876 211.15 586.092 211.025C586.308 210.9 586.549 210.806 586.816 210.743C587.083 210.679 587.356 210.631 587.633 210.598C587.984 210.557 588.268 210.524 588.487 210.499C588.706 210.471 588.865 210.426 588.964 210.365C589.063 210.304 589.113 210.205 589.113 210.068V210.041C589.113 209.708 589.019 209.45 588.83 209.267C588.645 209.083 588.368 208.992 587.999 208.992C587.615 208.992 587.312 209.077 587.091 209.247C586.872 209.415 586.721 209.602 586.637 209.808L585.565 209.564C585.692 209.208 585.878 208.921 586.122 208.702C586.369 208.481 586.652 208.321 586.973 208.221C587.293 208.12 587.63 208.069 587.984 208.069C588.218 208.069 588.465 208.097 588.727 208.153C588.992 208.206 589.239 208.305 589.467 208.45C589.699 208.595 589.888 208.802 590.036 209.072C590.183 209.339 590.257 209.686 590.257 210.113V214.004H589.143V213.203H589.097C589.024 213.35 588.913 213.495 588.766 213.638C588.618 213.78 588.429 213.898 588.197 213.992C587.966 214.087 587.689 214.134 587.366 214.134ZM587.614 213.218C587.929 213.218 588.198 213.156 588.422 213.031C588.649 212.907 588.82 212.744 588.937 212.543C589.057 212.34 589.116 212.122 589.116 211.891V211.136C589.076 211.176 588.997 211.214 588.88 211.25C588.766 211.283 588.635 211.312 588.487 211.338C588.34 211.361 588.196 211.382 588.056 211.403C587.916 211.42 587.799 211.436 587.705 211.448C587.484 211.476 587.282 211.523 587.099 211.589C586.918 211.656 586.773 211.751 586.664 211.876C586.557 211.998 586.504 212.16 586.504 212.364C586.504 212.646 586.608 212.86 586.816 213.005C587.025 213.147 587.291 213.218 587.614 213.218ZM594.511 208.145V209.061H591.311V208.145H594.511ZM592.169 206.741H593.309V212.284C593.309 212.505 593.342 212.671 593.408 212.783C593.475 212.893 593.56 212.968 593.664 213.008C593.771 213.047 593.887 213.066 594.011 213.066C594.103 213.066 594.183 213.059 594.251 213.047C594.32 213.034 594.373 213.024 594.412 213.016L594.618 213.958C594.551 213.984 594.457 214.009 594.335 214.034C594.213 214.062 594.061 214.078 593.878 214.08C593.578 214.085 593.298 214.032 593.038 213.92C592.779 213.808 592.569 213.635 592.409 213.401C592.249 213.167 592.169 212.874 592.169 212.52V206.741ZM598.235 214.122C597.657 214.122 597.16 213.999 596.743 213.752C596.329 213.503 596.008 213.153 595.782 212.703C595.558 212.251 595.446 211.72 595.446 211.113C595.446 210.513 595.558 209.984 595.782 209.526C596.008 209.068 596.324 208.711 596.728 208.454C597.135 208.197 597.61 208.069 598.154 208.069C598.485 208.069 598.805 208.124 599.116 208.233C599.426 208.342 599.704 208.514 599.951 208.748C600.198 208.982 600.392 209.286 600.535 209.659C600.677 210.031 600.748 210.482 600.748 211.013V211.418H596.091V210.563H599.631C599.631 210.263 599.57 209.998 599.447 209.766C599.325 209.532 599.154 209.348 598.933 209.213C598.714 209.078 598.457 209.011 598.162 209.011C597.842 209.011 597.562 209.09 597.323 209.247C597.086 209.403 596.903 209.606 596.774 209.858C596.646 210.107 596.583 210.378 596.583 210.67V211.338C596.583 211.729 596.652 212.062 596.789 212.337C596.929 212.612 597.123 212.821 597.372 212.966C597.622 213.109 597.913 213.18 598.246 213.18C598.462 213.18 598.659 213.15 598.837 213.088C599.015 213.025 599.169 212.931 599.299 212.806C599.428 212.682 599.528 212.528 599.596 212.345L600.676 212.539C600.589 212.857 600.434 213.136 600.21 213.375C599.989 213.611 599.711 213.795 599.375 213.928C599.042 214.057 598.662 214.122 598.235 214.122ZM608.918 212.539V212.127C608.918 211.832 608.979 211.563 609.101 211.319C609.226 211.072 609.407 210.875 609.643 210.727C609.882 210.577 610.171 210.502 610.509 210.502C610.855 210.502 611.145 210.576 611.379 210.724C611.613 210.871 611.789 211.068 611.909 211.315C612.031 211.561 612.092 211.832 612.092 212.127V212.539C612.092 212.834 612.031 213.105 611.909 213.352C611.787 213.596 611.607 213.793 611.371 213.943C611.137 214.09 610.85 214.164 610.509 214.164C610.166 214.164 609.876 214.09 609.639 213.943C609.403 213.793 609.223 213.596 609.101 213.352C608.979 213.105 608.918 212.834 608.918 212.539ZM609.807 212.127V212.539C609.807 212.758 609.859 212.956 609.963 213.134C610.068 213.312 610.25 213.401 610.509 213.401C610.766 213.401 610.945 213.312 611.047 213.134C611.148 212.956 611.199 212.758 611.199 212.539V212.127C611.199 211.909 611.15 211.71 611.051 211.532C610.954 211.354 610.773 211.265 610.509 211.265C610.255 211.265 610.074 211.354 609.967 211.532C609.86 211.71 609.807 211.909 609.807 212.127ZM604.99 208.069V207.657C604.99 207.362 605.051 207.091 605.173 206.844C605.297 206.598 605.478 206.401 605.714 206.253C605.953 206.106 606.242 206.032 606.58 206.032C606.926 206.032 607.216 206.106 607.45 206.253C607.684 206.401 607.861 206.598 607.98 206.844C608.1 207.091 608.159 207.362 608.159 207.657V208.069C608.159 208.364 608.098 208.635 607.976 208.881C607.857 209.125 607.679 209.322 607.442 209.473C607.208 209.62 606.921 209.694 606.58 209.694C606.234 209.694 605.943 209.62 605.707 209.473C605.473 209.322 605.295 209.125 605.173 208.881C605.051 208.635 604.99 208.364 604.99 208.069ZM605.882 207.657V208.069C605.882 208.288 605.933 208.486 606.035 208.664C606.139 208.842 606.321 208.931 606.58 208.931C606.834 208.931 607.012 208.842 607.114 208.664C607.218 208.486 607.271 208.288 607.271 208.069V207.657C607.271 207.438 607.221 207.24 607.122 207.062C607.023 206.884 606.842 206.795 606.58 206.795C606.326 206.795 606.145 206.884 606.039 207.062C605.934 207.24 605.882 207.438 605.882 207.657ZM605.352 214.004L610.723 206.192H611.634L606.264 214.004H605.352Z" fill="#1D252C" fill-opacity="0.64"/>
<path d="M119.212 257.042C117.825 257.042 116.592 256.805 115.514 256.329C114.442 255.854 113.594 255.193 112.971 254.346C112.349 253.498 112.018 252.519 111.979 251.408H115.6C115.633 251.941 115.809 252.407 116.13 252.805C116.451 253.196 116.878 253.501 117.411 253.72C117.944 253.938 118.541 254.047 119.202 254.047C119.908 254.047 120.534 253.925 121.08 253.681C121.626 253.431 122.053 253.084 122.361 252.641C122.669 252.198 122.82 251.688 122.813 251.11C122.82 250.513 122.666 249.986 122.351 249.531C122.037 249.075 121.581 248.718 120.984 248.462C120.393 248.205 119.68 248.076 118.846 248.076H117.103V245.322H118.846C119.533 245.322 120.133 245.203 120.647 244.966C121.167 244.728 121.574 244.394 121.87 243.964C122.165 243.528 122.309 243.024 122.303 242.452C122.309 241.894 122.184 241.409 121.927 240.998C121.677 240.581 121.321 240.257 120.859 240.026C120.403 239.794 119.867 239.679 119.25 239.679C118.647 239.679 118.088 239.788 117.575 240.006C117.061 240.225 116.647 240.536 116.332 240.94C116.018 241.338 115.851 241.814 115.832 242.366H112.394C112.419 241.261 112.737 240.292 113.347 239.457C113.963 238.616 114.785 237.961 115.812 237.493C116.84 237.018 117.992 236.78 119.27 236.78C120.586 236.78 121.728 237.027 122.698 237.522C123.674 238.01 124.428 238.668 124.961 239.496C125.494 240.324 125.76 241.239 125.76 242.24C125.767 243.351 125.439 244.282 124.778 245.033C124.123 245.784 123.263 246.276 122.197 246.507V246.661C123.584 246.853 124.646 247.367 125.385 248.202C126.129 249.03 126.499 250.06 126.492 251.293C126.492 252.397 126.178 253.386 125.548 254.259C124.926 255.126 124.065 255.806 122.968 256.301C121.876 256.795 120.624 257.042 119.212 257.042ZM131.984 254.403C131.4 254.403 130.899 254.198 130.481 253.787C130.064 253.37 129.859 252.869 129.865 252.285C129.859 251.707 130.064 251.213 130.481 250.802C130.899 250.391 131.4 250.185 131.984 250.185C132.549 250.185 133.04 250.391 133.457 250.802C133.881 251.213 134.096 251.707 134.102 252.285C134.096 252.676 133.993 253.033 133.794 253.354C133.602 253.675 133.345 253.932 133.024 254.124C132.709 254.31 132.363 254.403 131.984 254.403ZM131.984 244.629C131.4 244.629 130.899 244.423 130.481 244.012C130.064 243.595 129.859 243.094 129.865 242.51C129.859 241.932 130.064 241.438 130.481 241.027C130.899 240.61 131.4 240.401 131.984 240.401C132.549 240.401 133.04 240.61 133.457 241.027C133.881 241.438 134.096 241.932 134.102 242.51C134.096 242.895 133.993 243.248 133.794 243.569C133.602 243.89 133.345 244.147 133.024 244.34C132.709 244.532 132.363 244.629 131.984 244.629ZM144.52 257.042C143.236 257.042 142.087 256.801 141.072 256.32C140.058 255.832 139.252 255.164 138.655 254.317C138.064 253.469 137.75 252.5 137.711 251.408H141.178C141.242 252.217 141.592 252.879 142.228 253.392C142.864 253.899 143.628 254.153 144.52 254.153C145.22 254.153 145.842 253.993 146.388 253.672C146.934 253.351 147.364 252.904 147.679 252.333C147.993 251.762 148.147 251.11 148.141 250.378C148.147 249.633 147.99 248.972 147.669 248.394C147.348 247.816 146.908 247.364 146.35 247.036C145.791 246.702 145.149 246.536 144.424 246.536C143.833 246.529 143.252 246.638 142.681 246.863C142.109 247.088 141.657 247.383 141.323 247.749L138.097 247.219L139.127 237.05H150.568V240.035H142.083L141.515 245.264H141.631C141.997 244.834 142.514 244.478 143.181 244.195C143.849 243.907 144.581 243.762 145.377 243.762C146.571 243.762 147.637 244.045 148.574 244.61C149.512 245.168 150.25 245.938 150.789 246.921C151.328 247.903 151.598 249.027 151.598 250.291C151.598 251.595 151.296 252.757 150.693 253.777C150.096 254.792 149.264 255.591 148.199 256.175C147.139 256.753 145.913 257.042 144.52 257.042ZM162.846 237.05V256.772H159.273V240.526H159.158L154.545 243.473V240.199L159.447 237.05H162.846ZM179.583 245.89L176.406 246.237C176.316 245.916 176.158 245.614 175.934 245.332C175.715 245.049 175.42 244.821 175.048 244.648C174.675 244.475 174.219 244.388 173.68 244.388C172.955 244.388 172.345 244.545 171.85 244.86C171.363 245.174 171.122 245.582 171.128 246.083C171.122 246.513 171.279 246.863 171.6 247.133C171.927 247.402 172.467 247.624 173.218 247.797L175.741 248.336C177.141 248.638 178.181 249.116 178.861 249.771C179.548 250.426 179.895 251.283 179.901 252.343C179.895 253.273 179.622 254.095 179.083 254.808C178.55 255.514 177.808 256.066 176.858 256.464C175.908 256.862 174.817 257.061 173.584 257.061C171.773 257.061 170.316 256.683 169.212 255.925C168.107 255.161 167.449 254.098 167.238 252.737L170.637 252.41C170.791 253.078 171.119 253.582 171.619 253.922C172.12 254.262 172.772 254.432 173.574 254.432C174.402 254.432 175.067 254.262 175.568 253.922C176.075 253.582 176.328 253.161 176.328 252.66C176.328 252.237 176.165 251.887 175.837 251.611C175.516 251.335 175.016 251.123 174.335 250.975L171.812 250.445C170.393 250.15 169.343 249.653 168.663 248.953C167.982 248.247 167.645 247.354 167.652 246.276C167.645 245.364 167.892 244.574 168.393 243.907C168.9 243.232 169.603 242.712 170.502 242.346C171.407 241.974 172.451 241.788 173.632 241.788C175.365 241.788 176.73 242.157 177.725 242.895C178.726 243.634 179.346 244.632 179.583 245.89Z" fill="#1D252C"/>
<path d="M341.075 257.041C339.791 257.041 338.642 256.8 337.628 256.319C336.613 255.831 335.808 255.163 335.21 254.316C334.62 253.468 334.305 252.499 334.267 251.407H337.734C337.798 252.216 338.148 252.878 338.783 253.391C339.419 253.898 340.183 254.152 341.075 254.152C341.775 254.152 342.398 253.992 342.943 253.671C343.489 253.35 343.919 252.903 344.234 252.332C344.549 251.761 344.703 251.109 344.696 250.377C344.703 249.632 344.545 248.971 344.224 248.393C343.903 247.815 343.464 247.363 342.905 247.035C342.346 246.702 341.704 246.535 340.979 246.535C340.388 246.528 339.807 246.637 339.236 246.862C338.664 247.087 338.212 247.382 337.878 247.748L334.652 247.218L335.682 237.049H347.123V240.034H338.639L338.071 245.263H338.186C338.552 244.833 339.069 244.477 339.737 244.194C340.404 243.906 341.136 243.761 341.932 243.761C343.126 243.761 344.192 244.044 345.13 244.609C346.067 245.167 346.805 245.938 347.344 246.92C347.884 247.902 348.153 249.026 348.153 250.29C348.153 251.594 347.852 252.756 347.248 253.776C346.651 254.791 345.82 255.59 344.754 256.174C343.695 256.752 342.468 257.041 341.075 257.041ZM358.227 236.779C359.17 236.786 360.088 236.953 360.981 237.28C361.88 237.601 362.689 238.127 363.408 238.859C364.127 239.585 364.698 240.557 365.122 241.777C365.546 242.997 365.757 244.506 365.757 246.303C365.764 247.998 365.584 249.514 365.218 250.849C364.859 252.178 364.342 253.301 363.668 254.219C362.994 255.138 362.181 255.837 361.231 256.319C360.281 256.8 359.212 257.041 358.024 257.041C356.779 257.041 355.675 256.797 354.712 256.309C353.755 255.821 352.981 255.154 352.391 254.306C351.8 253.459 351.437 252.489 351.302 251.398H354.818C354.997 252.181 355.363 252.804 355.915 253.266C356.474 253.722 357.177 253.95 358.024 253.95C359.392 253.95 360.445 253.356 361.183 252.168C361.921 250.981 362.291 249.331 362.291 247.218H362.156C361.841 247.783 361.433 248.271 360.933 248.682C360.432 249.087 359.864 249.398 359.228 249.616C358.599 249.835 357.931 249.944 357.225 249.944C356.069 249.944 355.029 249.668 354.105 249.115C353.187 248.563 352.458 247.806 351.919 246.843C351.386 245.88 351.116 244.779 351.11 243.54C351.11 242.256 351.405 241.103 351.996 240.082C352.593 239.055 353.424 238.246 354.49 237.656C355.556 237.058 356.801 236.766 358.227 236.779ZM358.236 239.668C357.543 239.668 356.917 239.838 356.358 240.179C355.806 240.512 355.37 240.968 355.049 241.546C354.734 242.118 354.577 242.756 354.577 243.463C354.583 244.162 354.74 244.798 355.049 245.369C355.363 245.941 355.79 246.393 356.329 246.727C356.875 247.061 357.498 247.228 358.198 247.228C358.718 247.228 359.202 247.128 359.652 246.929C360.101 246.73 360.493 246.454 360.827 246.101C361.167 245.742 361.43 245.334 361.616 244.878C361.809 244.422 361.902 243.941 361.896 243.434C361.896 242.76 361.735 242.137 361.414 241.565C361.1 240.994 360.666 240.535 360.114 240.188C359.568 239.842 358.942 239.668 358.236 239.668ZM370.382 256.983C369.798 256.983 369.297 256.778 368.88 256.367C368.463 255.956 368.257 255.455 368.264 254.865C368.257 254.287 368.463 253.793 368.88 253.382C369.297 252.971 369.798 252.765 370.382 252.765C370.947 252.765 371.438 252.971 371.856 253.382C372.279 253.793 372.495 254.287 372.501 254.865C372.495 255.256 372.392 255.613 372.193 255.934C372 256.255 371.743 256.511 371.422 256.704C371.108 256.89 370.761 256.983 370.382 256.983ZM382.516 257.041C381.573 257.035 380.651 256.871 379.753 256.55C378.854 256.223 378.045 255.693 377.326 254.961C376.607 254.223 376.035 253.244 375.612 252.024C375.188 250.798 374.979 249.279 374.986 247.469C374.986 245.78 375.165 244.275 375.525 242.952C375.884 241.63 376.401 240.512 377.075 239.601C377.749 238.683 378.562 237.983 379.512 237.501C380.468 237.02 381.537 236.779 382.719 236.779C383.958 236.779 385.056 237.023 386.012 237.511C386.975 237.999 387.752 238.667 388.343 239.514C388.933 240.355 389.299 241.305 389.44 242.365H385.925C385.746 241.607 385.377 241.004 384.818 240.554C384.266 240.098 383.566 239.87 382.719 239.87C381.351 239.87 380.298 240.464 379.56 241.652C378.828 242.84 378.459 244.471 378.452 246.544H378.587C378.902 245.979 379.31 245.495 379.81 245.09C380.311 244.686 380.876 244.374 381.505 244.156C382.141 243.931 382.812 243.819 383.518 243.819C384.674 243.819 385.71 244.095 386.628 244.647C387.553 245.199 388.285 245.96 388.824 246.929C389.363 247.892 389.63 248.997 389.623 250.242C389.63 251.539 389.335 252.704 388.737 253.738C388.14 254.765 387.309 255.574 386.243 256.165C385.178 256.755 383.935 257.048 382.516 257.041ZM382.497 254.152C383.197 254.152 383.823 253.982 384.375 253.642C384.927 253.301 385.364 252.842 385.685 252.265C386.006 251.687 386.163 251.038 386.157 250.319C386.163 249.613 386.009 248.974 385.694 248.403C385.386 247.831 384.959 247.379 384.414 247.045C383.868 246.711 383.245 246.544 382.545 246.544C382.025 246.544 381.541 246.644 381.091 246.843C380.642 247.042 380.25 247.318 379.916 247.671C379.582 248.018 379.319 248.422 379.127 248.884C378.94 249.34 378.844 249.828 378.838 250.348C378.844 251.035 379.005 251.667 379.319 252.245C379.634 252.823 380.067 253.285 380.619 253.632C381.171 253.979 381.797 254.152 382.497 254.152ZM392.878 256.771V254.191L399.726 247.478C400.38 246.817 400.926 246.23 401.363 245.716C401.799 245.202 402.127 244.705 402.345 244.223C402.563 243.742 402.672 243.228 402.672 242.682C402.672 242.06 402.531 241.527 402.249 241.084C401.966 240.634 401.578 240.288 401.083 240.044C400.589 239.8 400.027 239.678 399.398 239.678C398.75 239.678 398.182 239.813 397.694 240.082C397.206 240.346 396.827 240.721 396.557 241.209C396.294 241.697 396.162 242.278 396.162 242.952H392.763C392.763 241.7 393.049 240.612 393.62 239.688C394.191 238.763 394.978 238.047 395.979 237.54C396.987 237.033 398.143 236.779 399.446 236.779C400.769 236.779 401.931 237.026 402.932 237.521C403.934 238.015 404.711 238.692 405.263 239.553C405.821 240.413 406.101 241.395 406.101 242.5C406.101 243.238 405.96 243.963 405.677 244.676C405.395 245.389 404.897 246.178 404.184 247.045C403.478 247.912 402.486 248.961 401.209 250.194L397.809 253.651V253.786H406.399V256.771H392.878Z" fill="#1D252C"/>
<path d="M536.437 242.58V240.536L541.861 235.218C542.38 234.695 542.812 234.229 543.158 233.822C543.504 233.416 543.763 233.021 543.936 232.64C544.109 232.259 544.196 231.852 544.196 231.419C544.196 230.926 544.084 230.504 543.86 230.153C543.636 229.797 543.328 229.522 542.937 229.329C542.545 229.136 542.1 229.039 541.602 229.039C541.088 229.039 540.638 229.146 540.252 229.36C539.865 229.568 539.565 229.866 539.351 230.252C539.143 230.639 539.039 231.099 539.039 231.633H536.346C536.346 230.641 536.572 229.779 537.025 229.047C537.477 228.315 538.1 227.748 538.894 227.346C539.692 226.944 540.608 226.743 541.64 226.743C542.688 226.743 543.608 226.939 544.401 227.331C545.195 227.722 545.81 228.259 546.248 228.94C546.69 229.622 546.911 230.4 546.911 231.275C546.911 231.859 546.799 232.434 546.576 232.999C546.352 233.563 545.958 234.189 545.393 234.875C544.834 235.562 544.048 236.393 543.036 237.37L540.343 240.108V240.215H547.148V242.58H536.437ZM549.162 239.681V237.431L555.791 226.957H557.668V230.161H556.523L552.061 237.232V237.354H561.314V239.681H549.162ZM556.615 242.58V238.995L556.645 237.988V226.957H559.315V242.58H556.615ZM565.043 242.748C564.58 242.748 564.183 242.585 563.852 242.26C563.522 241.934 563.359 241.538 563.364 241.07C563.359 240.612 563.522 240.22 563.852 239.895C564.183 239.569 564.58 239.407 565.043 239.407C565.49 239.407 565.879 239.569 566.21 239.895C566.545 240.22 566.716 240.612 566.721 241.07C566.716 241.38 566.634 241.662 566.477 241.916C566.324 242.171 566.121 242.374 565.866 242.527C565.617 242.674 565.343 242.748 565.043 242.748ZM574.708 242.878C573.452 242.878 572.374 242.56 571.473 241.924C570.578 241.283 569.889 240.36 569.406 239.155C568.928 237.944 568.689 236.487 568.689 234.784C568.694 233.08 568.936 231.631 569.414 230.435C569.897 229.235 570.586 228.32 571.481 227.689C572.381 227.058 573.457 226.743 574.708 226.743C575.959 226.743 577.035 227.058 577.935 227.689C578.835 228.32 579.524 229.235 580.002 230.435C580.485 231.636 580.727 233.085 580.727 234.784C580.727 236.492 580.485 237.952 580.002 239.162C579.524 240.368 578.835 241.288 577.935 241.924C577.04 242.56 575.964 242.878 574.708 242.878ZM574.708 240.49C575.684 240.49 576.455 240.009 577.019 239.048C577.589 238.082 577.874 236.66 577.874 234.784C577.874 233.543 577.744 232.5 577.485 231.656C577.225 230.812 576.859 230.176 576.386 229.749C575.913 229.317 575.354 229.1 574.708 229.1C573.737 229.1 572.969 229.584 572.404 230.55C571.84 231.511 571.555 232.922 571.55 234.784C571.545 236.03 571.669 237.077 571.924 237.927C572.183 238.776 572.549 239.417 573.022 239.849C573.495 240.276 574.057 240.49 574.708 240.49ZM588.983 242.794C588.235 242.789 587.506 242.659 586.794 242.405C586.082 242.145 585.441 241.726 584.871 241.146C584.302 240.561 583.849 239.785 583.513 238.819C583.178 237.848 583.012 236.645 583.017 235.211C583.017 233.873 583.16 232.681 583.445 231.633C583.729 230.585 584.139 229.7 584.673 228.978C585.207 228.251 585.85 227.697 586.603 227.315C587.361 226.934 588.207 226.743 589.143 226.743C590.125 226.743 590.994 226.936 591.752 227.323C592.515 227.709 593.13 228.238 593.598 228.91C594.066 229.576 594.356 230.329 594.468 231.168H591.683C591.541 230.568 591.249 230.09 590.806 229.734C590.369 229.372 589.814 229.192 589.143 229.192C588.06 229.192 587.226 229.662 586.641 230.603C586.061 231.544 585.769 232.836 585.764 234.479H585.87C586.12 234.031 586.443 233.647 586.839 233.327C587.236 233.006 587.684 232.76 588.182 232.587C588.685 232.409 589.217 232.32 589.776 232.32C590.692 232.32 591.513 232.538 592.24 232.976C592.973 233.413 593.552 234.016 593.98 234.784C594.407 235.547 594.618 236.421 594.613 237.408C594.618 238.435 594.384 239.358 593.911 240.177C593.438 240.991 592.779 241.632 591.935 242.099C591.091 242.567 590.107 242.799 588.983 242.794ZM588.968 240.505C589.522 240.505 590.018 240.37 590.455 240.101C590.893 239.831 591.238 239.468 591.493 239.01C591.747 238.552 591.872 238.039 591.867 237.469C591.872 236.909 591.75 236.403 591.5 235.951C591.256 235.498 590.918 235.14 590.486 234.875C590.053 234.611 589.56 234.479 589.006 234.479C588.594 234.479 588.21 234.557 587.854 234.715C587.498 234.873 587.188 235.091 586.923 235.371C586.659 235.646 586.45 235.966 586.298 236.332C586.15 236.693 586.074 237.08 586.069 237.492C586.074 238.036 586.201 238.537 586.45 238.995C586.699 239.452 587.043 239.819 587.48 240.093C587.917 240.368 588.413 240.505 588.968 240.505Z" fill="#FFC300"/>
<line x1="114.255" y1="277.243" x2="114.255" y2="428.656" stroke="#1D252C" stroke-opacity="0.08" stroke-width="0.976459"/>
<line x1="364.657" y1="277.238" x2="364.657" y2="476.436" stroke="#1D252C" stroke-opacity="0.08" stroke-width="0.976459"/>
<line x1="239.669" y1="277.238" x2="239.669" y2="476.436" stroke="#1D252C" stroke-opacity="0.08" stroke-width="0.976459"/>
<line x1="489.646" y1="277.238" x2="489.646" y2="476.436" stroke="#1D252C" stroke-opacity="0.08" stroke-width="0.976459"/>
<line x1="648.984" y1="277.243" x2="648.984" y2="455.774" stroke="#1D252C" stroke-opacity="0.08" stroke-width="0.976459"/>
<path d="M114.183 315.81C114.183 315.81 138.456 313.52 153.729 315.81C170.366 318.304 177.926 328.451 194.74 328.992C210.595 329.502 219.349 325.056 234.287 319.716C252.516 313.199 258.869 296.592 278.227 296.769C295.539 296.928 301.784 310.498 318.262 315.81C333.958 320.87 343.271 323.487 359.761 323.622C377.002 323.763 385.974 315.554 403.214 315.81C419.141 316.046 427.352 324.644 443.248 323.622C460.642 322.503 468.033 311.287 485.236 308.487C500.291 306.036 509.056 309.167 524.294 308.487C540.746 307.752 550.048 301.815 566.282 304.581C583.349 307.488 589.063 322.191 606.317 323.622C623.282 325.029 648.304 311.904 648.304 311.904" stroke="#FFC300" stroke-width="2.92938"/>
<path d="M243.606 316.666C243.606 318.553 242.075 320.083 240.188 320.083C238.301 320.083 236.77 318.553 236.77 316.666C236.77 314.778 238.301 313.248 240.188 313.248C242.075 313.248 243.606 314.778 243.606 316.666Z" fill="white" stroke="#FFC300" stroke-width="1.95292"/>
<path d="M367.901 323.445C367.901 325.332 366.371 326.862 364.484 326.862C362.596 326.862 361.066 325.332 361.066 323.445C361.066 321.557 362.596 320.027 364.484 320.027C366.371 320.027 367.901 321.557 367.901 323.445Z" fill="white" stroke="#FFC300" stroke-width="1.95292"/>
<path d="M493.323 307.626C493.323 309.513 491.793 311.043 489.906 311.043C488.018 311.043 486.488 309.513 486.488 307.626C486.488 305.738 488.018 304.208 489.906 304.208C491.793 304.208 493.323 305.738 493.323 307.626Z" fill="white" stroke="#FFC300" stroke-width="1.95292"/>
<path d="M649.291 312.878C649.291 314.766 647.761 316.296 645.874 316.296C643.986 316.296 642.456 314.766 642.456 312.878C642.456 310.991 643.986 309.461 645.874 309.461C647.761 309.461 649.291 310.991 649.291 312.878Z" fill="white" stroke="#FFC300" stroke-width="1.95292"/>
<path d="M116.145 315.809C116.145 317.697 114.615 319.227 112.727 319.227C110.84 319.227 109.309 317.697 109.309 315.809C109.309 313.922 110.84 312.391 112.727 312.391C114.615 312.391 116.145 313.922 116.145 315.809Z" fill="white" stroke="#FFC300" stroke-width="1.95292"/>
<path d="M608.761 398.809C624.034 396.52 633.034 358.924 648.308 361.214V476.924H114.186V394.904C114.186 394.904 139.208 408.028 156.174 406.621C173.427 405.19 179.141 374.374 196.208 371.466C212.442 368.701 221.744 390.752 238.196 391.486C253.434 392.166 262.199 389.036 277.254 391.486C294.458 394.286 296.477 410.873 313.871 411.992C329.768 413.014 343.349 399.046 359.276 398.809C376.516 398.554 385.488 406.762 402.729 406.621C419.219 406.486 428.532 403.869 444.228 398.809C460.706 393.498 466.951 349.655 484.263 349.497C503.621 349.319 509.974 396.199 528.203 402.715C543.141 408.055 551.895 412.502 567.75 411.992C584.564 411.451 592.124 401.303 608.761 398.809Z" fill="url(#paint0_linear_198_7697)" fill-opacity="0.48"/>
<path d="M648.308 361.214C633.034 358.924 624.034 396.52 608.761 398.809C592.124 401.303 584.564 411.451 567.75 411.992C551.895 412.502 543.141 408.055 528.203 402.715C509.974 396.199 503.621 349.319 484.263 349.497C466.951 349.655 460.706 393.498 444.228 398.809C428.532 403.869 419.219 406.486 402.729 406.621C385.488 406.762 376.516 398.554 359.276 398.809C343.349 399.046 329.768 413.014 313.871 411.992C296.477 410.873 294.458 394.286 277.254 391.486C262.199 389.036 253.434 392.166 238.196 391.486C221.744 390.752 212.442 368.701 196.208 371.466C179.141 374.374 173.427 405.19 156.174 406.621C139.208 408.028 114.186 394.904 114.186 394.904" stroke="#1D252C" stroke-width="2.92938"/>
<path d="M486.496 350.564C486.496 352.452 488.026 353.982 489.914 353.982C491.801 353.982 493.331 352.452 493.331 350.564C493.331 348.676 491.801 347.146 489.914 347.146C488.026 347.146 486.496 348.676 486.496 350.564Z" fill="white" stroke="#1D252C" stroke-width="1.95292"/>
<path d="M361.074 399.152C361.074 401.039 362.604 402.57 364.492 402.57C366.379 402.57 367.909 401.039 367.909 399.152C367.909 397.264 366.379 395.734 364.492 395.734C362.604 395.734 361.074 397.264 361.074 399.152Z" fill="white" stroke="#1D252C" stroke-width="1.95292"/>
<path d="M236.778 391.242C236.778 393.129 238.308 394.659 240.196 394.659C242.083 394.659 243.613 393.129 243.613 391.242C243.613 389.354 242.083 387.824 240.196 387.824C238.308 387.824 236.778 389.354 236.778 391.242Z" fill="white" stroke="#1D252C" stroke-width="1.95292"/>
<path d="M111.263 395.878C111.263 397.766 112.793 399.296 114.68 399.296C116.568 399.296 118.098 397.766 118.098 395.878C118.098 393.991 116.568 392.461 114.68 392.461C112.793 392.461 111.263 393.991 111.263 395.878Z" fill="white" stroke="#1D252C" stroke-width="1.95292"/>
<path d="M644.409 361.7C644.409 363.587 645.939 365.117 647.827 365.117C649.714 365.117 651.244 363.587 651.244 361.7C651.244 359.812 649.714 358.282 647.827 358.282C645.939 358.282 644.409 359.812 644.409 361.7Z" fill="white" stroke="#1D252C" stroke-width="1.95292"/>
<path d="M153.738 432.985C138.465 430.696 114.191 432.985 114.191 432.985V462.389C114.191 469.878 120.262 475.948 127.751 475.948H634.754C642.242 475.948 648.313 469.878 648.313 462.389V429.079C648.313 429.079 623.291 442.204 606.326 440.797C589.072 439.366 583.358 424.663 566.291 421.756C550.057 418.991 540.755 424.928 524.303 425.662C509.065 426.342 500.3 423.211 485.245 425.662C468.041 428.462 460.651 439.678 443.257 440.797C427.361 441.819 419.15 433.221 403.223 432.985C385.983 432.73 377.011 440.938 359.77 440.797C343.28 440.662 335.113 438.045 319.417 432.985C302.94 427.673 298.876 345.763 281.564 345.605C262.206 345.428 256.141 430.351 234.296 436.891C219.099 441.441 210.604 446.677 194.749 446.168C177.935 445.627 170.375 435.479 153.738 432.985Z" fill="#FCDA01" fill-opacity="0.16"/>
<path d="M114.191 432.008C114.191 432.008 138.465 429.718 153.738 432.008C170.375 434.502 177.935 444.65 194.749 445.19C210.604 445.7 221.106 444.727 234.296 435.914C261.225 417.921 261.641 345.428 280.999 345.605C298.311 345.763 297.383 418.486 318.271 432.008C332.114 440.97 343.28 439.685 359.77 439.82C377.011 439.961 385.983 431.752 403.223 432.008C419.15 432.244 427.361 440.842 443.257 439.82C460.651 438.701 468.041 427.485 485.245 424.685C500.3 422.234 509.065 425.365 524.303 424.685C540.755 423.95 550.057 418.013 566.291 420.779C583.358 423.686 589.072 438.389 606.326 439.82C623.291 441.227 648.313 428.102 648.313 428.102" stroke="#FCDA01" stroke-width="2.92938"/>
<rect x="110.381" y="128.091" width="33.8983" height="33.8983" rx="16.9492" fill="#1D252C"/>
<path d="M135.229 139.956V144.475C135.229 144.587 135.196 144.696 135.135 144.789C135.073 144.882 134.985 144.955 134.883 144.998C134.813 145.026 134.739 145.04 134.664 145.04C134.514 145.04 134.369 144.982 134.261 144.878L132.404 143.014L128.286 147.138C128.179 147.244 128.035 147.303 127.884 147.303C127.733 147.303 127.589 147.244 127.481 147.138L125.059 144.708L120.377 149.398C120.268 149.501 120.124 149.559 119.974 149.56C119.825 149.558 119.681 149.5 119.572 149.398C119.466 149.291 119.406 149.146 119.406 148.995C119.406 148.844 119.466 148.7 119.572 148.593L124.657 143.508C124.764 143.402 124.908 143.342 125.059 143.342C125.21 143.342 125.355 143.402 125.462 143.508L127.884 145.937L131.606 142.215L129.741 140.358C129.665 140.276 129.613 140.175 129.591 140.065C129.57 139.955 129.581 139.841 129.621 139.737C129.665 139.634 129.738 139.547 129.831 139.486C129.924 139.424 130.033 139.391 130.144 139.391H134.664C134.813 139.391 134.957 139.45 135.063 139.556C135.169 139.662 135.229 139.806 135.229 139.956Z" fill="white"/>
<path d="M167.252 143.596H165.452C165.4 143.3 165.305 143.039 165.167 142.811C165.029 142.58 164.858 142.384 164.652 142.223C164.447 142.063 164.212 141.943 163.949 141.862C163.689 141.779 163.408 141.737 163.107 141.737C162.571 141.737 162.095 141.872 161.681 142.142C161.267 142.408 160.943 142.8 160.709 143.317C160.474 143.83 160.357 144.458 160.357 145.199C160.357 145.954 160.474 146.589 160.709 147.106C160.946 147.62 161.27 148.008 161.681 148.271C162.095 148.531 162.569 148.661 163.102 148.661C163.397 148.661 163.673 148.623 163.93 148.546C164.19 148.465 164.423 148.348 164.628 148.194C164.837 148.04 165.012 147.851 165.153 147.626C165.297 147.401 165.397 147.145 165.452 146.856L167.252 146.865C167.185 147.334 167.039 147.774 166.814 148.185C166.593 148.595 166.302 148.958 165.943 149.273C165.583 149.584 165.163 149.828 164.681 150.005C164.2 150.178 163.665 150.265 163.078 150.265C162.211 150.265 161.437 150.064 160.757 149.663C160.076 149.262 159.54 148.682 159.149 147.925C158.757 147.167 158.561 146.259 158.561 145.199C158.561 144.137 158.759 143.228 159.153 142.474C159.548 141.716 160.086 141.137 160.766 140.736C161.447 140.334 162.217 140.134 163.078 140.134C163.627 140.134 164.137 140.211 164.609 140.365C165.081 140.519 165.501 140.745 165.87 141.044C166.24 141.339 166.543 141.702 166.781 142.132C167.021 142.559 167.179 143.047 167.252 143.596ZM178.83 145.199C178.83 146.262 178.631 147.172 178.233 147.929C177.838 148.684 177.299 149.262 176.615 149.663C175.934 150.064 175.162 150.265 174.299 150.265C173.435 150.265 172.662 150.064 171.978 149.663C171.297 149.258 170.758 148.679 170.36 147.925C169.965 147.167 169.768 146.259 169.768 145.199C169.768 144.137 169.965 143.228 170.36 142.474C170.758 141.716 171.297 141.137 171.978 140.736C172.662 140.334 173.435 140.134 174.299 140.134C175.162 140.134 175.934 140.334 176.615 140.736C177.299 141.137 177.838 141.716 178.233 142.474C178.631 143.228 178.83 144.137 178.83 145.199ZM177.034 145.199C177.034 144.451 176.917 143.82 176.682 143.307C176.451 142.79 176.13 142.4 175.719 142.137C175.308 141.87 174.835 141.737 174.299 141.737C173.763 141.737 173.289 141.87 172.878 142.137C172.468 142.4 172.145 142.79 171.911 143.307C171.679 143.82 171.564 144.451 171.564 145.199C171.564 145.947 171.679 146.58 171.911 147.096C172.145 147.61 172.468 148 172.878 148.266C173.289 148.53 173.763 148.661 174.299 148.661C174.835 148.661 175.308 148.53 175.719 148.266C176.13 148 176.451 147.61 176.682 147.096C176.917 146.58 177.034 145.947 177.034 145.199ZM189.753 140.269V150.13H188.164L183.517 143.413H183.435V150.13H181.649V140.269H183.247L187.889 146.99H187.976V140.269H189.753ZM192.396 141.766V140.269H200.264V141.766H197.216V150.13H195.444V141.766H192.396ZM202.91 150.13V140.269H209.324V141.766H204.697V144.443H208.992V145.941H204.697V148.632H209.362V150.13H202.91ZM220.38 140.269V150.13H218.791L214.145 143.413H214.063V150.13H212.276V140.269H213.875L218.517 146.99H218.603V140.269H220.38ZM223.023 141.766V140.269H230.891V141.766H227.843V150.13H226.071V141.766H223.023ZM246.843 145.199C246.843 146.262 246.644 147.172 246.246 147.929C245.851 148.684 245.312 149.262 244.628 149.663C243.947 150.064 243.175 150.265 242.312 150.265C241.448 150.265 240.675 150.064 239.991 149.663C239.31 149.258 238.771 148.679 238.373 147.925C237.978 147.167 237.781 146.259 237.781 145.199C237.781 144.137 237.978 143.228 238.373 142.474C238.771 141.716 239.31 141.137 239.991 140.736C240.675 140.334 241.448 140.134 242.312 140.134C243.175 140.134 243.947 140.334 244.628 140.736C245.312 141.137 245.851 141.716 246.246 142.474C246.644 143.228 246.843 144.137 246.843 145.199ZM245.047 145.199C245.047 144.451 244.93 143.82 244.695 143.307C244.464 142.79 244.143 142.4 243.732 142.137C243.321 141.87 242.848 141.737 242.312 141.737C241.776 141.737 241.302 141.87 240.891 142.137C240.48 142.4 240.158 142.79 239.923 143.307C239.692 143.82 239.577 144.451 239.577 145.199C239.577 145.947 239.692 146.58 239.923 147.096C240.158 147.61 240.48 148 240.891 148.266C241.302 148.53 241.776 148.661 242.312 148.661C242.848 148.661 243.321 148.53 243.732 148.266C244.143 148 244.464 147.61 244.695 147.096C244.93 146.58 245.047 145.947 245.047 145.199ZM250.451 140.269L253.018 148.03H253.119L255.681 140.269H257.645L254.169 150.13H251.963L248.492 140.269H250.451ZM260.074 150.13V140.269H266.488V141.766H261.86V144.443H266.155V145.941H261.86V148.632H266.526V150.13H260.074ZM269.44 150.13V140.269H273.138C273.896 140.269 274.531 140.4 275.045 140.663C275.562 140.927 275.952 141.296 276.215 141.771C276.481 142.243 276.615 142.793 276.615 143.422C276.615 144.055 276.48 144.604 276.21 145.069C275.944 145.531 275.55 145.889 275.03 146.143C274.51 146.393 273.872 146.519 273.114 146.519H270.48V145.036H272.873C273.316 145.036 273.679 144.975 273.961 144.853C274.244 144.727 274.453 144.546 274.587 144.308C274.725 144.068 274.794 143.772 274.794 143.422C274.794 143.073 274.725 142.774 274.587 142.527C274.449 142.276 274.239 142.087 273.957 141.959C273.674 141.827 273.31 141.761 272.864 141.761H271.226V150.13H269.44ZM274.534 145.661L276.976 150.13H274.982L272.584 145.661H274.534ZM280.457 140.269L283.023 148.03H283.124L285.686 140.269H287.65L284.174 150.13H281.969L278.497 140.269H280.457ZM291.866 140.269V150.13H290.079V140.269H291.866ZM294.93 150.13V140.269H301.344V141.766H296.716V144.443H301.011V145.941H296.716V148.632H301.382V150.13H294.93ZM306.371 150.13L303.588 140.269H305.51L307.286 147.515H307.378L309.275 140.269H311.023L312.925 147.52H313.011L314.788 140.269H316.709L313.926 150.13H312.164L310.19 143.211H310.113L308.134 150.13H306.371Z" fill="black"/>
<rect opacity="0.05" x="81" y="79.5029" width="600" height="33.8983" fill="#1C1C1F"/>
<ellipse opacity="0.1" cx="115.385" cy="96.2895" rx="6.2954" ry="6.2954" fill="#1C1C1F"/>
<ellipse opacity="0.1" cx="138.46" cy="96.2895" rx="6.2954" ry="6.2954" fill="#1C1C1F"/>
<ellipse opacity="0.1" cx="161.552" cy="96.2895" rx="6.2954" ry="6.2954" fill="#1C1C1F"/>
</g>
<rect x="81.5" y="80.0029" width="599" height="455.497" rx="13.0593" stroke="#1D252C"/>
</g>
<g filter="url(#filter1_d_198_7697)">
<rect x="30" y="386" width="164" height="181" rx="12" fill="white"/>
<path d="M30 398C30 391.373 35.3726 386 42 386H182C188.627 386 194 391.373 194 398V422H30V398Z" fill="black"/>
<path d="M50.7173 546V538.727H55.3764V539.832H52.0348V541.806H55.0568V542.911H52.0348V546H50.7173ZM58.5343 546.107C57.9874 546.107 57.5151 545.993 57.1174 545.766C56.722 545.536 56.4178 545.212 56.2047 544.793C55.9917 544.371 55.8851 543.875 55.8851 543.305C55.8851 542.744 55.9917 542.251 56.2047 541.827C56.4202 541.401 56.7208 541.07 57.1067 540.833C57.4926 540.594 57.946 540.474 58.4668 540.474C58.803 540.474 59.1202 540.529 59.4185 540.638C59.7192 540.744 59.9843 540.91 60.214 541.135C60.446 541.36 60.6283 541.646 60.7608 541.994C60.8934 542.34 60.9597 542.752 60.9597 543.23V543.624H56.4888V542.758H59.7275C59.7251 542.512 59.6718 542.293 59.5676 542.101C59.4635 541.907 59.3179 541.754 59.1309 541.643C58.9462 541.531 58.7308 541.476 58.4846 541.476C58.2218 541.476 57.9909 541.54 57.7921 541.668C57.5932 541.793 57.4382 541.959 57.3269 542.165C57.218 542.368 57.1623 542.592 57.16 542.836V543.592C57.16 543.91 57.218 544.182 57.334 544.409C57.45 544.634 57.6122 544.807 57.8205 544.928C58.0288 545.046 58.2727 545.105 58.552 545.105C58.7391 545.105 58.9083 545.079 59.0598 545.027C59.2114 544.973 59.3427 544.893 59.454 544.789C59.5653 544.685 59.6493 544.556 59.7061 544.402L60.9064 544.537C60.8307 544.854 60.6863 545.131 60.4732 545.368C60.2625 545.602 59.9926 545.785 59.6635 545.915C59.3345 546.043 58.958 546.107 58.5343 546.107ZM62.104 546V538.727H63.3896V541.447H63.4428C63.5091 541.315 63.6026 541.174 63.7234 541.025C63.8441 540.873 64.0075 540.744 64.2134 540.638C64.4194 540.529 64.6822 540.474 65.0018 540.474C65.4232 540.474 65.8031 540.582 66.1417 540.798C66.4826 541.011 66.7525 541.327 66.9513 541.746C67.1526 542.162 67.2532 542.674 67.2532 543.28C67.2532 543.879 67.1549 544.388 66.9585 544.807C66.762 545.226 66.4944 545.545 66.1559 545.766C65.8174 545.986 65.4338 546.096 65.0053 546.096C64.6928 546.096 64.4336 546.044 64.2276 545.94C64.0217 545.835 63.8559 545.71 63.7305 545.563C63.6074 545.414 63.5115 545.273 63.4428 545.141H63.3683V546H62.104ZM63.3647 543.273C63.3647 543.625 63.4144 543.934 63.5138 544.2C63.6156 544.465 63.7612 544.672 63.9506 544.821C64.1424 544.968 64.3744 545.041 64.6467 545.041C64.9308 545.041 65.1687 544.965 65.3604 544.814C65.5522 544.66 65.6966 544.451 65.7937 544.185C65.8931 543.918 65.9428 543.614 65.9428 543.273C65.9428 542.934 65.8943 542.634 65.7972 542.371C65.7002 542.108 65.5558 541.902 65.364 541.753C65.1722 541.604 64.9331 541.529 64.6467 541.529C64.372 541.529 64.1388 541.601 63.9471 541.746C63.7553 541.89 63.6097 542.093 63.5103 542.353C63.4132 542.613 63.3647 542.92 63.3647 543.273ZM73.7704 538.727V546H72.4529V540.009H72.4103L70.7093 541.096V539.888L72.5169 538.727H73.7704ZM75.617 546V545.048L78.1419 542.573C78.3833 542.329 78.5846 542.113 78.7456 541.923C78.9065 541.734 79.0273 541.55 79.1078 541.373C79.1883 541.195 79.2285 541.006 79.2285 540.805C79.2285 540.575 79.1764 540.379 79.0723 540.215C78.9681 540.049 78.8249 539.922 78.6426 539.832C78.4603 539.742 78.2531 539.697 78.0211 539.697C77.782 539.697 77.5725 539.746 77.3926 539.846C77.2127 539.943 77.073 540.081 76.9735 540.261C76.8765 540.441 76.8279 540.656 76.8279 540.904H75.5744C75.5744 540.442 75.6797 540.041 75.8904 539.7C76.1011 539.359 76.3912 539.095 76.7605 538.908C77.1322 538.721 77.5583 538.628 78.0389 538.628C78.5266 538.628 78.9551 538.719 79.3244 538.901C79.6937 539.084 79.9802 539.333 80.1838 539.651C80.3897 539.968 80.4927 540.33 80.4927 540.737C80.4927 541.009 80.4406 541.277 80.3365 541.54C80.2323 541.803 80.0488 542.094 79.786 542.413C79.5256 542.733 79.1599 543.12 78.6887 543.575L77.4352 544.849V544.899H80.6028V546H75.617Z" fill="#1D252C" fill-opacity="0.64"/>
<path d="M50.4773 401.598V400.273H57.4403V401.598H54.7429V409H53.1747V401.598H50.4773ZM58.7145 409V402.455H60.2571V409H58.7145ZM59.4901 401.526C59.2457 401.526 59.0355 401.445 58.8594 401.283C58.6832 401.118 58.5952 400.92 58.5952 400.69C58.5952 400.457 58.6832 400.26 58.8594 400.098C59.0355 399.933 59.2457 399.851 59.4901 399.851C59.7372 399.851 59.9474 399.933 60.1207 400.098C60.2969 400.26 60.3849 400.457 60.3849 400.69C60.3849 400.92 60.2969 401.118 60.1207 401.283C59.9474 401.445 59.7372 401.526 59.4901 401.526ZM61.8434 409V402.455H63.3178V403.567H63.3945C63.5309 403.192 63.7567 402.899 64.0721 402.689C64.3874 402.476 64.7638 402.369 65.2013 402.369C65.6445 402.369 66.0181 402.477 66.3221 402.693C66.6289 402.906 66.8448 403.197 66.9698 403.567H67.038C67.1829 403.203 67.4272 402.913 67.771 402.697C68.1175 402.479 68.5281 402.369 69.0025 402.369C69.6048 402.369 70.0962 402.56 70.4769 402.94C70.8576 403.321 71.0479 403.876 71.0479 404.607V409H69.5011V404.845C69.5011 404.439 69.3931 404.142 69.1772 403.955C68.9613 403.764 68.6971 403.669 68.3846 403.669C68.0124 403.669 67.7212 403.786 67.511 404.018C67.3036 404.249 67.1999 404.548 67.1999 404.918V409H65.6871V404.781C65.6871 404.443 65.5849 404.173 65.3803 403.972C65.1786 403.77 64.9144 403.669 64.5877 403.669C64.3661 403.669 64.1644 403.726 63.9826 403.839C63.8008 403.95 63.6559 404.108 63.5479 404.312C63.44 404.514 63.386 404.75 63.386 405.02V409H61.8434ZM75.5107 409.128C74.8544 409.128 74.2876 408.991 73.8104 408.719C73.3359 408.443 72.9709 408.054 72.7152 407.551C72.4595 407.045 72.3317 406.45 72.3317 405.766C72.3317 405.092 72.4595 404.501 72.7152 403.993C72.9737 403.482 73.3345 403.084 73.7976 402.8C74.2607 402.513 74.8047 402.369 75.4297 402.369C75.8331 402.369 76.2138 402.435 76.5717 402.565C76.9325 402.693 77.2507 402.892 77.5263 403.162C77.8047 403.432 78.0234 403.776 78.1825 404.193C78.3416 404.608 78.4212 405.102 78.4212 405.676V406.149H73.0561V405.109H76.9425C76.9396 404.814 76.8757 404.551 76.7507 404.321C76.6257 404.088 76.451 403.905 76.2266 403.771C76.005 403.638 75.7464 403.571 75.451 403.571C75.1357 403.571 74.8587 403.648 74.62 403.801C74.3814 403.952 74.1953 404.151 74.0618 404.398C73.9311 404.642 73.8643 404.911 73.8615 405.203V406.111C73.8615 406.491 73.9311 406.818 74.0703 407.091C74.2095 407.361 74.4041 407.568 74.6541 407.713C74.9041 407.855 75.1967 407.926 75.532 407.926C75.7564 407.926 75.9595 407.895 76.1413 407.832C76.3232 407.767 76.4808 407.672 76.6143 407.547C76.7479 407.422 76.8487 407.267 76.9169 407.082L78.3572 407.244C78.2663 407.625 78.093 407.957 77.8374 408.241C77.5845 408.523 77.2607 408.741 76.8658 408.898C76.4709 409.051 76.0192 409.128 75.5107 409.128ZM85.5579 409.128C84.9187 409.128 84.3647 408.987 83.896 408.706C83.4272 408.425 83.0636 408.031 82.805 407.526C82.5494 407.02 82.4215 406.429 82.4215 405.753C82.4215 405.077 82.5494 404.484 82.805 403.976C83.0636 403.467 83.4272 403.072 83.896 402.791C84.3647 402.51 84.9187 402.369 85.5579 402.369C86.1971 402.369 86.7511 402.51 87.2198 402.791C87.6886 403.072 88.0508 403.467 88.3065 403.976C88.565 404.484 88.6942 405.077 88.6942 405.753C88.6942 406.429 88.565 407.02 88.3065 407.526C88.0508 408.031 87.6886 408.425 87.2198 408.706C86.7511 408.987 86.1971 409.128 85.5579 409.128ZM85.5664 407.892C85.913 407.892 86.2028 407.797 86.4357 407.607C86.6687 407.413 86.842 407.155 86.9556 406.831C87.0721 406.507 87.1303 406.146 87.1303 405.749C87.1303 405.348 87.0721 404.986 86.9556 404.662C86.842 404.335 86.6687 404.075 86.4357 403.882C86.2028 403.689 85.913 403.592 85.5664 403.592C85.2113 403.592 84.9158 403.689 84.68 403.882C84.4471 404.075 84.2724 404.335 84.1559 404.662C84.0423 404.986 83.9854 405.348 83.9854 405.749C83.9854 406.146 84.0423 406.507 84.1559 406.831C84.2724 407.155 84.4471 407.413 84.68 407.607C84.9158 407.797 85.2113 407.892 85.5664 407.892ZM91.5462 405.165V409H90.0036V402.455H91.478V403.567H91.5547C91.7053 403.2 91.9453 402.909 92.2749 402.693C92.6072 402.477 93.0178 402.369 93.5064 402.369C93.9581 402.369 94.3516 402.466 94.6868 402.659C95.0249 402.852 95.2862 403.132 95.4709 403.499C95.6584 403.865 95.7507 404.31 95.7479 404.832V409H94.2053V405.071C94.2053 404.634 94.0916 404.291 93.8643 404.044C93.6399 403.797 93.3288 403.673 92.9311 403.673C92.6612 403.673 92.4212 403.733 92.2109 403.852C92.0036 403.969 91.8402 404.138 91.7209 404.359C91.6044 404.581 91.5462 404.849 91.5462 405.165ZM105.104 402.672C105.064 402.3 104.896 402.01 104.601 401.803C104.308 401.595 103.928 401.491 103.459 401.491C103.129 401.491 102.847 401.541 102.611 401.641C102.375 401.74 102.195 401.875 102.07 402.045C101.945 402.216 101.881 402.411 101.878 402.629C101.878 402.811 101.919 402.969 102.001 403.102C102.087 403.236 102.202 403.349 102.347 403.443C102.491 403.534 102.652 403.611 102.828 403.673C103.004 403.736 103.182 403.788 103.361 403.831L104.179 404.036C104.509 404.112 104.825 404.216 105.129 404.347C105.436 404.477 105.71 404.642 105.952 404.841C106.196 405.04 106.389 405.28 106.531 405.561C106.673 405.842 106.744 406.172 106.744 406.55C106.744 407.061 106.614 407.511 106.352 407.901C106.091 408.287 105.713 408.589 105.219 408.808C104.727 409.024 104.132 409.132 103.433 409.132C102.754 409.132 102.165 409.027 101.665 408.817C101.168 408.607 100.778 408.3 100.497 407.896C100.219 407.493 100.068 407.001 100.045 406.422H101.601C101.624 406.726 101.717 406.979 101.882 407.18C102.047 407.382 102.261 407.533 102.526 407.632C102.793 407.732 103.091 407.781 103.42 407.781C103.764 407.781 104.065 407.73 104.324 407.628C104.585 407.523 104.79 407.378 104.938 407.193C105.085 407.006 105.161 406.787 105.163 406.537C105.161 406.31 105.094 406.122 104.963 405.974C104.832 405.824 104.649 405.699 104.413 405.599C104.18 405.497 103.908 405.406 103.595 405.327L102.602 405.071C101.884 404.886 101.315 404.607 100.898 404.232C100.483 403.854 100.276 403.352 100.276 402.727C100.276 402.213 100.415 401.763 100.693 401.376C100.974 400.99 101.357 400.69 101.839 400.477C102.322 400.261 102.869 400.153 103.48 400.153C104.099 400.153 104.642 400.261 105.108 400.477C105.577 400.69 105.945 400.987 106.212 401.368C106.479 401.746 106.616 402.18 106.625 402.672H105.104ZM108.086 409V402.455H109.628V409H108.086ZM108.861 401.526C108.617 401.526 108.407 401.445 108.23 401.283C108.054 401.118 107.966 400.92 107.966 400.69C107.966 400.457 108.054 400.26 108.23 400.098C108.407 399.933 108.617 399.851 108.861 399.851C109.108 399.851 109.319 399.933 109.492 400.098C109.668 400.26 109.756 400.457 109.756 400.69C109.756 400.92 109.668 401.118 109.492 401.283C109.319 401.445 109.108 401.526 108.861 401.526ZM114.483 402.455V403.648H110.72V402.455H114.483ZM111.649 400.886H113.192V407.031C113.192 407.239 113.223 407.398 113.286 407.509C113.351 407.616 113.436 407.69 113.541 407.73C113.646 407.77 113.763 407.79 113.891 407.79C113.987 407.79 114.075 407.783 114.155 407.768C114.237 407.754 114.3 407.741 114.342 407.73L114.602 408.936C114.52 408.964 114.402 408.996 114.249 409.03C114.098 409.064 113.913 409.084 113.695 409.089C113.308 409.101 112.96 409.043 112.651 408.915C112.341 408.784 112.095 408.582 111.913 408.31C111.734 408.037 111.646 407.696 111.649 407.287V400.886ZM118.6 409.128C117.944 409.128 117.377 408.991 116.9 408.719C116.426 408.443 116.061 408.054 115.805 407.551C115.549 407.045 115.422 406.45 115.422 405.766C115.422 405.092 115.549 404.501 115.805 403.993C116.064 403.482 116.424 403.084 116.887 402.8C117.35 402.513 117.895 402.369 118.52 402.369C118.923 402.369 119.304 402.435 119.662 402.565C120.022 402.693 120.341 402.892 120.616 403.162C120.895 403.432 121.113 403.776 121.272 404.193C121.431 404.608 121.511 405.102 121.511 405.676V406.149H116.146V405.109H120.032C120.029 404.814 119.966 404.551 119.841 404.321C119.716 404.088 119.541 403.905 119.316 403.771C119.095 403.638 118.836 403.571 118.541 403.571C118.225 403.571 117.949 403.648 117.71 403.801C117.471 403.952 117.285 404.151 117.152 404.398C117.021 404.642 116.954 404.911 116.951 405.203V406.111C116.951 406.491 117.021 406.818 117.16 407.091C117.299 407.361 117.494 407.568 117.744 407.713C117.994 407.855 118.287 407.926 118.622 407.926C118.846 407.926 119.049 407.895 119.231 407.832C119.413 407.767 119.571 407.672 119.704 407.547C119.838 407.422 119.939 407.267 120.007 407.082L121.447 407.244C121.356 407.625 121.183 407.957 120.927 408.241C120.674 408.523 120.35 408.741 119.956 408.898C119.561 409.051 119.109 409.128 118.6 409.128Z" fill="white"/>
<rect x="50" y="450.051" width="28.5717" height="73.2601" rx="3.66302" fill="#FCDA01"/>
<rect x="114.57" y="480.088" width="28.5717" height="43.2234" rx="3.66302" fill="#1D252C" fill-opacity="0.08"/>
<rect x="82.3359" y="466.902" width="28.5717" height="56.4103" rx="3.66302" fill="#1D252C" fill-opacity="0.08"/>
<rect x="146.812" y="450.051" width="28.5717" height="73.2601" rx="3.66302" fill="#FCDA01"/>
<rect x="30.5" y="386.5" width="163" height="180" rx="11.5" stroke="#1D252C"/>
</g>
<g filter="url(#filter2_d_198_7697)">
<g clip-path="url(#clip1_198_7697)">
<rect x="371" y="30" width="214.195" height="300" rx="10" fill="white"/>
<rect x="371" y="30" width="216" height="42" fill="black"/>
<path d="M465.396 146.305V145.455H470.462V146.305H468.42V152H467.435V146.305H465.396ZM472.861 152.099C472.4 152.099 471.999 151.994 471.656 151.783C471.313 151.572 471.046 151.277 470.857 150.897C470.667 150.518 470.572 150.075 470.572 149.568C470.572 149.059 470.667 148.613 470.857 148.232C471.046 147.85 471.313 147.554 471.656 147.343C471.999 147.132 472.4 147.027 472.861 147.027C473.321 147.027 473.722 147.132 474.066 147.343C474.409 147.554 474.675 147.85 474.865 148.232C475.054 148.613 475.149 149.059 475.149 149.568C475.149 150.075 475.054 150.518 474.865 150.897C474.675 151.277 474.409 151.572 474.066 151.783C473.722 151.994 473.321 152.099 472.861 152.099ZM472.864 151.297C473.162 151.297 473.409 151.218 473.605 151.06C473.801 150.903 473.946 150.693 474.04 150.431C474.136 150.169 474.184 149.88 474.184 149.565C474.184 149.251 474.136 148.964 474.04 148.702C473.946 148.437 473.801 148.225 473.605 148.066C473.409 147.906 473.162 147.826 472.864 147.826C472.563 147.826 472.314 147.906 472.116 148.066C471.92 148.225 471.774 148.437 471.678 148.702C471.584 148.964 471.537 149.251 471.537 149.565C471.537 149.88 471.584 150.169 471.678 150.431C471.774 150.693 471.92 150.903 472.116 151.06C472.314 151.218 472.563 151.297 472.864 151.297ZM478.507 147.091V147.858H475.826V147.091H478.507ZM476.545 145.915H477.5V150.559C477.5 150.744 477.528 150.884 477.584 150.977C477.639 151.069 477.71 151.132 477.798 151.166C477.887 151.198 477.984 151.214 478.089 151.214C478.165 151.214 478.232 151.208 478.29 151.198C478.347 151.187 478.392 151.179 478.424 151.172L478.597 151.962C478.541 151.983 478.462 152.004 478.36 152.026C478.258 152.049 478.13 152.062 477.977 152.064C477.725 152.068 477.491 152.023 477.274 151.93C477.056 151.836 476.88 151.691 476.746 151.495C476.612 151.299 476.545 151.053 476.545 150.757V145.915ZM480.993 152.109C480.682 152.109 480.401 152.051 480.149 151.936C479.898 151.819 479.699 151.65 479.551 151.428C479.407 151.206 479.334 150.935 479.334 150.613C479.334 150.336 479.387 150.108 479.494 149.929C479.6 149.75 479.744 149.608 479.925 149.504C480.107 149.4 480.309 149.321 480.533 149.267C480.756 149.214 480.984 149.174 481.217 149.146C481.511 149.112 481.749 149.084 481.933 149.063C482.116 149.039 482.249 149.002 482.332 148.951C482.415 148.9 482.457 148.817 482.457 148.702V148.679C482.457 148.4 482.378 148.184 482.22 148.031C482.065 147.877 481.832 147.8 481.523 147.8C481.202 147.8 480.948 147.872 480.763 148.015C480.58 148.155 480.453 148.312 480.382 148.484L479.484 148.28C479.591 147.982 479.746 147.741 479.951 147.558C480.158 147.372 480.395 147.238 480.664 147.155C480.932 147.07 481.214 147.027 481.511 147.027C481.707 147.027 481.914 147.05 482.134 147.097C482.355 147.142 482.562 147.225 482.754 147.347C482.948 147.468 483.107 147.642 483.23 147.868C483.354 148.091 483.415 148.382 483.415 148.74V152H482.482V151.329H482.444C482.382 151.452 482.289 151.574 482.166 151.693C482.042 151.812 481.884 151.912 481.69 151.99C481.496 152.069 481.263 152.109 480.993 152.109ZM481.201 151.342C481.465 151.342 481.691 151.289 481.878 151.185C482.068 151.081 482.212 150.944 482.31 150.776C482.41 150.605 482.46 150.423 482.46 150.229V149.597C482.426 149.631 482.36 149.663 482.262 149.692C482.166 149.72 482.056 149.745 481.933 149.766C481.809 149.785 481.689 149.803 481.571 149.82C481.454 149.835 481.356 149.848 481.277 149.859C481.092 149.882 480.923 149.922 480.769 149.977C480.618 150.032 480.496 150.112 480.405 150.217C480.315 150.319 480.271 150.455 480.271 150.626C480.271 150.862 480.358 151.041 480.533 151.163C480.707 151.282 480.93 151.342 481.201 151.342ZM485.644 145.455V152H484.688V145.455H485.644Z" fill="black"/>
<path d="M457.244 171.159C456.396 171.159 455.64 171.013 454.977 170.722C454.318 170.426 453.797 170.021 453.415 169.506C453.036 168.987 452.841 168.388 452.83 167.71H455.307C455.322 167.994 455.415 168.244 455.585 168.46C455.759 168.672 455.991 168.837 456.278 168.955C456.566 169.072 456.89 169.131 457.25 169.131C457.625 169.131 457.956 169.064 458.244 168.932C458.532 168.799 458.758 168.616 458.92 168.381C459.083 168.146 459.165 167.875 459.165 167.568C459.165 167.258 459.078 166.983 458.903 166.744C458.733 166.502 458.487 166.312 458.165 166.176C457.847 166.04 457.468 165.972 457.028 165.972H455.943V164.165H457.028C457.4 164.165 457.727 164.1 458.011 163.972C458.299 163.843 458.523 163.665 458.682 163.438C458.841 163.206 458.92 162.938 458.92 162.631C458.92 162.339 458.85 162.083 458.71 161.864C458.574 161.64 458.381 161.466 458.131 161.341C457.884 161.216 457.597 161.153 457.267 161.153C456.934 161.153 456.629 161.214 456.352 161.335C456.076 161.453 455.854 161.621 455.688 161.841C455.521 162.061 455.432 162.318 455.42 162.614H453.062C453.074 161.943 453.265 161.352 453.636 160.841C454.008 160.33 454.508 159.93 455.136 159.642C455.769 159.35 456.483 159.205 457.278 159.205C458.081 159.205 458.784 159.35 459.386 159.642C459.989 159.934 460.456 160.328 460.79 160.824C461.127 161.316 461.294 161.869 461.29 162.483C461.294 163.134 461.091 163.678 460.682 164.114C460.277 164.549 459.748 164.826 459.097 164.943V165.034C459.953 165.144 460.604 165.441 461.051 165.926C461.502 166.407 461.725 167.009 461.722 167.733C461.725 168.396 461.534 168.985 461.148 169.5C460.765 170.015 460.237 170.42 459.562 170.716C458.888 171.011 458.116 171.159 457.244 171.159ZM468.053 171.256C467.075 171.252 466.234 171.011 465.53 170.534C464.829 170.057 464.289 169.366 463.911 168.46C463.536 167.555 463.35 166.466 463.354 165.193C463.354 163.924 463.541 162.843 463.916 161.949C464.295 161.055 464.835 160.375 465.536 159.909C466.24 159.439 467.079 159.205 468.053 159.205C469.026 159.205 469.863 159.439 470.564 159.909C471.268 160.379 471.81 161.061 472.189 161.955C472.568 162.845 472.755 163.924 472.751 165.193C472.751 166.47 472.562 167.561 472.183 168.466C471.808 169.371 471.27 170.062 470.57 170.54C469.869 171.017 469.03 171.256 468.053 171.256ZM468.053 169.216C468.719 169.216 469.251 168.881 469.649 168.21C470.047 167.54 470.244 166.534 470.24 165.193C470.24 164.311 470.149 163.576 469.967 162.989C469.789 162.402 469.536 161.96 469.206 161.665C468.88 161.369 468.496 161.222 468.053 161.222C467.39 161.222 466.859 161.553 466.462 162.216C466.064 162.879 465.863 163.871 465.859 165.193C465.859 166.087 465.948 166.833 466.126 167.432C466.308 168.027 466.564 168.473 466.893 168.773C467.223 169.068 467.609 169.216 468.053 169.216ZM475.474 171.148C475.099 171.148 474.777 171.015 474.509 170.75C474.243 170.481 474.111 170.159 474.111 169.784C474.111 169.413 474.243 169.095 474.509 168.83C474.777 168.564 475.099 168.432 475.474 168.432C475.838 168.432 476.156 168.564 476.429 168.83C476.702 169.095 476.838 169.413 476.838 169.784C476.838 170.034 476.774 170.263 476.645 170.472C476.52 170.676 476.355 170.841 476.151 170.966C475.946 171.087 475.721 171.148 475.474 171.148ZM478.803 171V169.227L482.945 165.392C483.297 165.051 483.592 164.744 483.831 164.472C484.073 164.199 484.257 163.932 484.382 163.67C484.507 163.405 484.57 163.119 484.57 162.812C484.57 162.472 484.492 162.178 484.337 161.932C484.181 161.682 483.969 161.491 483.7 161.358C483.431 161.222 483.126 161.153 482.786 161.153C482.429 161.153 482.119 161.225 481.854 161.369C481.589 161.513 481.384 161.72 481.24 161.989C481.096 162.258 481.024 162.578 481.024 162.949H478.689C478.689 162.187 478.861 161.527 479.206 160.966C479.551 160.405 480.034 159.972 480.655 159.665C481.276 159.358 481.992 159.205 482.803 159.205C483.636 159.205 484.361 159.352 484.979 159.648C485.6 159.939 486.083 160.345 486.428 160.864C486.772 161.383 486.945 161.977 486.945 162.648C486.945 163.087 486.857 163.521 486.683 163.949C486.513 164.377 486.208 164.852 485.768 165.375C485.329 165.894 484.71 166.517 483.911 167.244L482.212 168.909V168.989H487.098V171H478.803ZM488.949 171V159.364H491.409V164.494H491.562L495.75 159.364H498.699L494.381 164.574L498.75 171H495.807L492.619 166.216L491.409 167.693V171H488.949Z" fill="black"/>
<path d="M528 159C528 187.719 504.719 211 476 211C447.281 211 424 187.719 424 159C424 130.281 447.281 107 476 107C504.719 107 528 130.281 528 159ZM429.535 159C429.535 184.662 450.338 205.465 476 205.465C501.662 205.465 522.465 184.662 522.465 159C522.465 133.338 501.662 112.535 476 112.535C450.338 112.535 429.535 133.338 429.535 159Z" fill="#1D252C" fill-opacity="0.08"/>
<path d="M447.533 115.484C440.061 120.372 433.973 127.102 429.857 135.025C425.74 142.949 423.733 151.799 424.029 160.723C424.324 169.647 426.913 178.345 431.546 185.978C436.178 193.611 442.698 199.923 450.478 204.306C458.257 208.688 467.034 210.994 475.963 211C484.892 211.006 493.672 208.713 501.458 204.342C509.244 199.971 515.773 193.668 520.416 186.041C525.059 178.414 527.66 169.721 527.969 160.797L522.328 160.602C522.053 168.557 519.734 176.307 515.595 183.106C511.456 189.905 505.636 195.524 498.695 199.421C491.754 203.318 483.927 205.362 475.967 205.356C468.007 205.35 460.183 203.295 453.248 199.388C446.312 195.481 440.5 189.855 436.371 183.05C432.241 176.245 429.933 168.491 429.669 160.536C429.406 152.58 431.195 144.691 434.865 137.628C438.535 130.564 443.962 124.565 450.623 120.207L447.533 115.484Z" fill="#1D252C"/>
<path d="M421.142 162.945C421.819 172.364 424.91 181.451 430.118 189.329C435.326 197.208 442.475 203.613 450.876 207.927C459.278 212.241 468.648 214.319 478.086 213.96C487.523 213.602 496.709 210.82 504.759 205.882C512.809 200.943 519.452 194.015 524.048 185.765C528.644 177.515 531.038 168.22 531 158.776C530.961 149.332 528.491 140.057 523.828 131.844C519.165 123.631 512.466 116.758 504.376 111.885L498.147 122.227C504.462 126.03 509.69 131.395 513.33 137.805C516.969 144.215 518.897 151.454 518.927 158.825C518.957 166.196 517.088 173.451 513.501 179.89C509.914 186.329 504.73 191.737 498.446 195.591C492.163 199.445 484.994 201.617 477.628 201.896C470.262 202.176 462.948 200.554 456.391 197.187C449.834 193.82 444.254 188.821 440.19 182.672C436.125 176.523 433.712 169.431 433.183 162.079L421.142 162.945Z" fill="#FCDA01"/>
<path d="M419.97 180.586C423.673 190.223 429.795 198.745 437.747 205.329C445.699 211.914 455.212 216.34 465.371 218.181C475.53 220.022 485.991 219.217 495.748 215.842C505.505 212.467 514.229 206.636 521.079 198.912C527.929 191.187 532.674 181.829 534.858 171.739C537.042 161.648 536.591 151.165 533.548 141.299C530.505 131.434 524.973 122.518 517.485 115.41C509.997 108.303 500.805 103.244 490.794 100.719L485.796 120.541C492.403 122.207 498.47 125.547 503.412 130.238C508.354 134.929 512.005 140.813 514.014 147.324C516.022 153.836 516.32 160.754 514.878 167.414C513.437 174.074 510.305 180.25 505.784 185.349C501.263 190.447 495.505 194.295 489.066 196.522C482.626 198.75 475.722 199.282 469.017 198.066C462.312 196.851 456.033 193.93 450.785 189.584C445.537 185.238 441.496 179.614 439.052 173.254L419.97 180.586Z" fill="#1D252C"/>
<path d="M443.033 216.176C451.81 221.238 461.636 224.21 471.747 224.863C481.859 225.516 491.985 223.832 501.341 219.941C510.697 216.051 519.031 210.059 525.698 202.429C532.366 194.799 537.187 185.736 539.788 175.944C542.389 166.151 542.701 155.89 540.698 145.957C538.696 136.025 534.434 126.686 528.242 118.666C522.049 110.646 514.094 104.159 504.991 99.7082C495.888 95.2574 485.883 92.9622 475.751 93.0005L475.868 124.016C481.239 123.996 486.542 125.213 491.367 127.572C496.192 129.931 500.409 133.369 503.691 137.621C506.973 141.872 509.233 146.822 510.294 152.087C511.355 157.352 511.19 162.79 509.811 167.981C508.433 173.172 505.877 177.976 502.343 182.02C498.809 186.064 494.391 189.24 489.432 191.302C484.473 193.365 479.105 194.257 473.746 193.911C468.386 193.565 463.178 191.99 458.525 189.307L443.033 216.176Z" fill="#FCDA01"/>
<ellipse cx="394.01" cy="254.844" rx="5.01042" ry="5.01044" fill="#FCDA01"/>
<ellipse cx="393.534" cy="272.38" rx="5.01042" ry="5.01044" fill="#1D252C"/>
<ellipse cx="393.534" cy="289.917" rx="5.01042" ry="5.01044" fill="#FCDA01"/>
<ellipse cx="393.534" cy="307.452" rx="5.01042" ry="5.01044" fill="#EDEEEE"/>
<rect x="403.562" y="250.459" width="164.091" height="8.76827" rx="4.38413" fill="#1D252C" fill-opacity="0.06"/>
<rect x="403.562" y="267.996" width="144.049" height="8.76827" rx="4.38413" fill="#1D252C" fill-opacity="0.06"/>
<rect x="403.562" y="285.531" width="108.977" height="8.76827" rx="4.38413" fill="#1D252C" fill-opacity="0.06"/>
<rect x="403.562" y="303.068" width="121.503" height="8.76827" rx="4.38413" fill="#1D252C" fill-opacity="0.06"/>
<path d="M389.861 56V47.2727H393.134C393.804 47.2727 394.366 47.3977 394.821 47.6477C395.278 47.8977 395.624 48.2415 395.857 48.679C396.092 49.1136 396.21 49.608 396.21 50.1619C396.21 50.7216 396.092 51.2187 395.857 51.6534C395.621 52.0881 395.273 52.4304 394.812 52.6804C394.352 52.9276 393.786 53.0511 393.112 53.0511H390.943V51.7514H392.899C393.291 51.7514 393.612 51.6832 393.862 51.5469C394.112 51.4105 394.297 51.223 394.416 50.9844C394.538 50.7457 394.599 50.4716 394.599 50.1619C394.599 49.8523 394.538 49.5795 394.416 49.3438C394.297 49.108 394.111 48.9247 393.858 48.794C393.608 48.6605 393.286 48.5938 392.891 48.5938H391.442V56H389.861ZM399.282 56.1321C398.867 56.1321 398.493 56.0582 398.161 55.9105C397.831 55.7599 397.57 55.5384 397.377 55.2457C397.186 54.9531 397.091 54.5923 397.091 54.1634C397.091 53.794 397.159 53.4886 397.296 53.2472C397.432 53.0057 397.618 52.8125 397.854 52.6676C398.09 52.5227 398.355 52.4134 398.651 52.3395C398.949 52.2628 399.257 52.2074 399.576 52.1733C399.959 52.1335 400.27 52.098 400.509 52.0668C400.748 52.0327 400.921 51.9815 401.029 51.9134C401.14 51.8423 401.195 51.733 401.195 51.5852V51.5597C401.195 51.2386 401.1 50.9901 400.909 50.8139C400.719 50.6378 400.445 50.5497 400.087 50.5497C399.709 50.5497 399.409 50.6321 399.188 50.7969C398.969 50.9616 398.821 51.1562 398.745 51.3807L397.304 51.1761C397.418 50.7784 397.605 50.446 397.867 50.179C398.128 49.9091 398.448 49.7074 398.826 49.5739C399.203 49.4375 399.621 49.3693 400.078 49.3693C400.394 49.3693 400.708 49.4062 401.02 49.4801C401.333 49.554 401.618 49.6761 401.877 49.8466C402.135 50.0142 402.343 50.2429 402.499 50.5327C402.658 50.8224 402.738 51.1847 402.738 51.6193V56H401.255V55.1009H401.203C401.11 55.2827 400.978 55.4531 400.807 55.6122C400.64 55.7685 400.428 55.8949 400.172 55.9915C399.919 56.0852 399.623 56.1321 399.282 56.1321ZM399.682 54.9986C399.992 54.9986 400.26 54.9375 400.488 54.8153C400.715 54.6903 400.89 54.5256 401.012 54.321C401.137 54.1165 401.199 53.8935 401.199 53.652V52.8807C401.151 52.9205 401.069 52.9574 400.952 52.9915C400.838 53.0256 400.711 53.0554 400.569 53.081C400.426 53.1065 400.286 53.1293 400.147 53.1491C400.007 53.169 399.887 53.1861 399.784 53.2003C399.554 53.2315 399.348 53.2827 399.167 53.3537C398.985 53.4247 398.841 53.5241 398.736 53.652C398.631 53.777 398.578 53.9389 398.578 54.1378C398.578 54.4219 398.682 54.6364 398.89 54.7812C399.097 54.9261 399.361 54.9986 399.682 54.9986ZM407.135 58.5909C406.581 58.5909 406.105 58.5156 405.708 58.3651C405.31 58.2173 404.99 58.0185 404.749 57.7685C404.507 57.5185 404.34 57.2415 404.246 56.9375L405.635 56.6009C405.698 56.7287 405.789 56.8551 405.908 56.9801C406.027 57.108 406.188 57.2131 406.39 57.2955C406.594 57.3807 406.851 57.4233 407.161 57.4233C407.598 57.4233 407.961 57.3168 408.248 57.1037C408.534 56.8935 408.678 56.5469 408.678 56.0639V54.8239H408.601C408.522 54.983 408.405 55.1463 408.252 55.3139C408.101 55.4815 407.901 55.6222 407.651 55.7358C407.404 55.8494 407.093 55.9062 406.718 55.9062C406.215 55.9062 405.759 55.7884 405.35 55.5526C404.944 55.3139 404.62 54.9588 404.378 54.4872C404.14 54.0128 404.02 53.419 404.02 52.706C404.02 51.9872 404.14 51.3807 404.378 50.8864C404.62 50.3892 404.945 50.0128 405.354 49.7571C405.763 49.4986 406.219 49.3693 406.722 49.3693C407.105 49.3693 407.421 49.4347 407.668 49.5653C407.918 49.6932 408.117 49.848 408.265 50.0298C408.412 50.2088 408.525 50.3778 408.601 50.5369H408.686V49.4545H410.208V56.1065C410.208 56.6662 410.074 57.1293 409.807 57.4957C409.54 57.8622 409.175 58.1364 408.712 58.3182C408.249 58.5 407.723 58.5909 407.135 58.5909ZM407.148 54.696C407.475 54.696 407.753 54.6165 407.983 54.4574C408.213 54.2983 408.388 54.0696 408.507 53.7713C408.627 53.473 408.686 53.1151 408.686 52.6974C408.686 52.2855 408.627 51.9247 408.507 51.6151C408.391 51.3054 408.218 51.0653 407.988 50.8949C407.76 50.7216 407.48 50.6349 407.148 50.6349C406.804 50.6349 406.517 50.7244 406.287 50.9034C406.057 51.0824 405.884 51.3281 405.767 51.6406C405.651 51.9503 405.593 52.3026 405.593 52.6974C405.593 53.098 405.651 53.4489 405.767 53.75C405.887 54.0483 406.061 54.2812 406.292 54.4489C406.525 54.6136 406.81 54.696 407.148 54.696ZM414.686 56.1278C414.03 56.1278 413.463 55.9915 412.986 55.7188C412.512 55.4432 412.147 55.054 411.891 54.5511C411.635 54.0455 411.507 53.4503 411.507 52.7656C411.507 52.0923 411.635 51.5014 411.891 50.9929C412.15 50.4815 412.51 50.0838 412.973 49.7997C413.436 49.5128 413.98 49.3693 414.605 49.3693C415.009 49.3693 415.39 49.4347 415.748 49.5653C416.108 49.6932 416.426 49.892 416.702 50.1619C416.98 50.4318 417.199 50.7756 417.358 51.1932C417.517 51.608 417.597 52.1023 417.597 52.6761V53.1491H412.232V52.1094H416.118C416.115 51.8139 416.051 51.5511 415.926 51.321C415.801 51.0881 415.627 50.9048 415.402 50.7713C415.181 50.6378 414.922 50.571 414.627 50.571C414.311 50.571 414.034 50.6477 413.796 50.8011C413.557 50.9517 413.371 51.1506 413.238 51.3977C413.107 51.642 413.04 51.9105 413.037 52.2031V53.1108C413.037 53.4915 413.107 53.8182 413.246 54.0909C413.385 54.3608 413.58 54.5682 413.83 54.7131C414.08 54.8551 414.373 54.9261 414.708 54.9261C414.932 54.9261 415.135 54.8949 415.317 54.8324C415.499 54.767 415.657 54.6719 415.79 54.5469C415.924 54.4219 416.025 54.267 416.093 54.0824L417.533 54.2443C417.442 54.625 417.269 54.9574 417.013 55.2415C416.76 55.5227 416.436 55.7415 416.042 55.8977C415.647 56.0511 415.195 56.1278 414.686 56.1278ZM424.075 51.1847L422.669 51.3381C422.629 51.196 422.56 51.0625 422.46 50.9375C422.364 50.8125 422.233 50.7116 422.068 50.6349C421.903 50.5582 421.702 50.5199 421.463 50.5199C421.142 50.5199 420.872 50.5895 420.653 50.7287C420.438 50.8679 420.331 51.0483 420.334 51.2699C420.331 51.4602 420.401 51.6151 420.543 51.7344C420.688 51.8537 420.926 51.9517 421.259 52.0284L422.375 52.267C422.994 52.4006 423.455 52.6122 423.756 52.902C424.06 53.1918 424.213 53.571 424.216 54.0398C424.213 54.4517 424.092 54.8153 423.854 55.1307C423.618 55.4432 423.29 55.6875 422.869 55.8636C422.449 56.0398 421.966 56.1278 421.42 56.1278C420.619 56.1278 419.974 55.9602 419.486 55.625C418.997 55.2869 418.706 54.8168 418.612 54.2145L420.116 54.0696C420.185 54.3651 420.33 54.5881 420.551 54.7386C420.773 54.8892 421.061 54.9645 421.416 54.9645C421.783 54.9645 422.077 54.8892 422.298 54.7386C422.523 54.5881 422.635 54.402 422.635 54.1804C422.635 53.9929 422.563 53.8381 422.418 53.7159C422.276 53.5937 422.054 53.5 421.753 53.4347L420.636 53.2003C420.009 53.0696 419.544 52.8494 419.243 52.5398C418.942 52.2273 418.793 51.8324 418.795 51.3551C418.793 50.9517 418.902 50.6023 419.124 50.3068C419.348 50.0085 419.659 49.7784 420.057 49.6165C420.457 49.4517 420.919 49.3693 421.442 49.3693C422.209 49.3693 422.813 49.5327 423.253 49.8594C423.696 50.1861 423.97 50.6278 424.075 51.1847ZM428.533 56V47.2727H430.075V50.5369H430.139C430.219 50.3778 430.331 50.2088 430.476 50.0298C430.621 49.848 430.817 49.6932 431.064 49.5653C431.311 49.4347 431.626 49.3693 432.01 49.3693C432.516 49.3693 432.972 49.4986 433.378 49.7571C433.787 50.0128 434.111 50.392 434.349 50.8949C434.591 51.3949 434.712 52.0085 434.712 52.7358C434.712 53.4545 434.594 54.0653 434.358 54.5682C434.122 55.071 433.801 55.4545 433.395 55.7188C432.989 55.983 432.528 56.1151 432.014 56.1151C431.639 56.1151 431.328 56.0526 431.081 55.9276C430.834 55.8026 430.635 55.652 430.484 55.4759C430.337 55.2969 430.222 55.1278 430.139 54.9688H430.05V56H428.533ZM430.045 52.7273C430.045 53.1506 430.105 53.5213 430.224 53.8395C430.347 54.1577 430.521 54.4062 430.749 54.5852C430.979 54.7614 431.257 54.8494 431.584 54.8494C431.925 54.8494 432.21 54.7585 432.44 54.5767C432.67 54.392 432.844 54.1406 432.96 53.8224C433.08 53.5014 433.139 53.1364 433.139 52.7273C433.139 52.321 433.081 51.9602 432.964 51.6449C432.848 51.3295 432.675 51.0824 432.445 50.9034C432.214 50.7244 431.928 50.6349 431.584 50.6349C431.254 50.6349 430.974 50.7216 430.744 50.8949C430.514 51.0682 430.339 51.3111 430.22 51.6236C430.104 51.9361 430.045 52.304 430.045 52.7273ZM436.759 58.4545C436.549 58.4545 436.354 58.4375 436.175 58.4034C435.999 58.3722 435.859 58.3352 435.754 58.2926L436.112 57.0909C436.336 57.1563 436.536 57.1875 436.712 57.1847C436.888 57.1818 437.043 57.1264 437.177 57.0185C437.313 56.9134 437.428 56.7372 437.522 56.4901L437.654 56.1364L435.281 49.4545H436.917L438.425 54.3977H438.494L440.006 49.4545H441.647L439.026 56.7926C438.904 57.1392 438.742 57.4361 438.54 57.6832C438.339 57.9332 438.092 58.1236 437.799 58.2543C437.509 58.3878 437.163 58.4545 436.759 58.4545ZM446.927 47.2727L449.198 54.142H449.288L451.555 47.2727H453.293L450.217 56H448.265L445.192 47.2727H446.927ZM454.375 56V49.4545H455.917V56H454.375ZM455.15 48.5256C454.906 48.5256 454.696 48.4446 454.52 48.2827C454.343 48.1179 454.255 47.9205 454.255 47.6903C454.255 47.4574 454.343 47.2599 454.52 47.098C454.696 46.9332 454.906 46.8509 455.15 46.8509C455.397 46.8509 455.608 46.9332 455.781 47.098C455.957 47.2599 456.045 47.4574 456.045 47.6903C456.045 47.9205 455.957 48.1179 455.781 48.2827C455.608 48.4446 455.397 48.5256 455.15 48.5256ZM460.401 56.1278C459.745 56.1278 459.178 55.9915 458.701 55.7188C458.227 55.4432 457.862 55.054 457.606 54.5511C457.35 54.0455 457.222 53.4503 457.222 52.7656C457.222 52.0923 457.35 51.5014 457.606 50.9929C457.864 50.4815 458.225 50.0838 458.688 49.7997C459.151 49.5128 459.695 49.3693 460.32 49.3693C460.724 49.3693 461.104 49.4347 461.462 49.5653C461.823 49.6932 462.141 49.892 462.417 50.1619C462.695 50.4318 462.914 50.7756 463.073 51.1932C463.232 51.608 463.312 52.1023 463.312 52.6761V53.1491H457.947V52.1094H461.833C461.83 51.8139 461.766 51.5511 461.641 51.321C461.516 51.0881 461.342 50.9048 461.117 50.7713C460.896 50.6378 460.637 50.571 460.342 50.571C460.026 50.571 459.749 50.6477 459.511 50.8011C459.272 50.9517 459.086 51.1506 458.952 51.3977C458.822 51.642 458.755 51.9105 458.752 52.2031V53.1108C458.752 53.4915 458.822 53.8182 458.961 54.0909C459.1 54.3608 459.295 54.5682 459.545 54.7131C459.795 54.8551 460.087 54.9261 460.423 54.9261C460.647 54.9261 460.85 54.8949 461.032 54.8324C461.214 54.767 461.371 54.6719 461.505 54.5469C461.638 54.4219 461.739 54.267 461.808 54.0824L463.248 54.2443C463.157 54.625 462.984 54.9574 462.728 55.2415C462.475 55.5227 462.151 55.7415 461.756 55.8977C461.362 56.0511 460.91 56.1278 460.401 56.1278ZM465.933 56L464.083 49.4545H465.656L466.806 54.0568H466.866L468.042 49.4545H469.597L470.773 54.0312H470.837L471.971 49.4545H473.548L471.694 56H470.087L468.86 51.5767H468.771L467.543 56H465.933ZM479.798 51.1847L478.392 51.3381C478.352 51.196 478.282 51.0625 478.183 50.9375C478.086 50.8125 477.956 50.7116 477.791 50.6349C477.626 50.5582 477.424 50.5199 477.186 50.5199C476.865 50.5199 476.595 50.5895 476.376 50.7287C476.16 50.8679 476.054 51.0483 476.056 51.2699C476.054 51.4602 476.123 51.6151 476.265 51.7344C476.41 51.8537 476.649 51.9517 476.981 52.0284L478.098 52.267C478.717 52.4006 479.177 52.6122 479.478 52.902C479.782 53.1918 479.936 53.571 479.939 54.0398C479.936 54.4517 479.815 54.8153 479.576 55.1307C479.341 55.4432 479.012 55.6875 478.592 55.8636C478.172 56.0398 477.689 56.1278 477.143 56.1278C476.342 56.1278 475.697 55.9602 475.208 55.625C474.72 55.2869 474.429 54.8168 474.335 54.2145L475.839 54.0696C475.907 54.3651 476.052 54.5881 476.274 54.7386C476.495 54.8892 476.784 54.9645 477.139 54.9645C477.505 54.9645 477.799 54.8892 478.021 54.7386C478.245 54.5881 478.358 54.402 478.358 54.1804C478.358 53.9929 478.285 53.8381 478.14 53.7159C477.998 53.5937 477.777 53.5 477.475 53.4347L476.359 53.2003C475.731 53.0696 475.267 52.8494 474.966 52.5398C474.664 52.2273 474.515 51.8324 474.518 51.3551C474.515 50.9517 474.625 50.6023 474.846 50.3068C475.071 50.0085 475.382 49.7784 475.779 49.6165C476.18 49.4517 476.642 49.3693 477.164 49.3693C477.931 49.3693 478.535 49.5327 478.975 49.8594C479.419 50.1861 479.693 50.6278 479.798 51.1847Z" fill="white"/>
</g>
<rect x="371.5" y="30.5" width="213.195" height="299" rx="9.5" stroke="#1D252C"/>
</g>
<defs>
<filter id="filter0_d_198_7697" x="51" y="49.5029" width="660" height="516.497" filterUnits="userSpaceOnUse" color-interpolation-filters="sRGB">
<feFlood flood-opacity="0" result="BackgroundImageFix"/>
<feColorMatrix in="SourceAlpha" type="matrix" values="0 0 0 0 0 0 0 0 0 0 0 0 0 0 0 0 0 0 127 0" result="hardAlpha"/>
<feOffset/>
<feGaussianBlur stdDeviation="15"/>
<feComposite in2="hardAlpha" operator="out"/>
<feColorMatrix type="matrix" values="0 0 0 0 0.113725 0 0 0 0 0.145098 0 0 0 0 0.172549 0 0 0 0.06 0"/>
<feBlend mode="normal" in2="BackgroundImageFix" result="effect1_dropShadow_198_7697"/>
<feBlend mode="normal" in="SourceGraphic" in2="effect1_dropShadow_198_7697" result="shape"/>
</filter>
<filter id="filter1_d_198_7697" x="0" y="356" width="224" height="241" filterUnits="userSpaceOnUse" color-interpolation-filters="sRGB">
<feFlood flood-opacity="0" result="BackgroundImageFix"/>
<feColorMatrix in="SourceAlpha" type="matrix" values="0 0 0 0 0 0 0 0 0 0 0 0 0 0 0 0 0 0 127 0" result="hardAlpha"/>
<feOffset/>
<feGaussianBlur stdDeviation="15"/>
<feComposite in2="hardAlpha" operator="out"/>
<feColorMatrix type="matrix" values="0 0 0 0 0.113725 0 0 0 0 0.145098 0 0 0 0 0.172549 0 0 0 0.06 0"/>
<feBlend mode="normal" in2="BackgroundImageFix" result="effect1_dropShadow_198_7697"/>
<feBlend mode="normal" in="SourceGraphic" in2="effect1_dropShadow_198_7697" result="shape"/>
</filter>
<filter id="filter2_d_198_7697" x="341" y="0" width="274.195" height="360" filterUnits="userSpaceOnUse" color-interpolation-filters="sRGB">
<feFlood flood-opacity="0" result="BackgroundImageFix"/>
<feColorMatrix in="SourceAlpha" type="matrix" values="0 0 0 0 0 0 0 0 0 0 0 0 0 0 0 0 0 0 127 0" result="hardAlpha"/>
<feOffset/>
<feGaussianBlur stdDeviation="15"/>
<feComposite in2="hardAlpha" operator="out"/>
<feColorMatrix type="matrix" values="0 0 0 0 0.113725 0 0 0 0 0.145098 0 0 0 0 0.172549 0 0 0 0.06 0"/>
<feBlend mode="normal" in2="BackgroundImageFix" result="effect1_dropShadow_198_7697"/>
<feBlend mode="normal" in="SourceGraphic" in2="effect1_dropShadow_198_7697" result="shape"/>
</filter>
<linearGradient id="paint0_linear_198_7697" x1="381.247" y1="304.091" x2="381.247" y2="476.924" gradientUnits="userSpaceOnUse">
<stop stop-color="#1D252C"/>
<stop offset="1" stop-color="white" stop-opacity="0"/>
</linearGradient>
<clipPath id="clip0_198_7697">
<rect x="81" y="79.5029" width="600" height="456.497" rx="13.5593" fill="white"/>
</clipPath>
<clipPath id="clip1_198_7697">
<rect x="371" y="30" width="214.195" height="300" rx="10" fill="white"/>
</clipPath>
</defs>
</svg>
