<svg width="137" height="48" viewBox="0 0 137 48" fill="none" xmlns="http://www.w3.org/2000/svg">
<mask id="mask0_4470_3588" style="mask-type:luminance" maskUnits="userSpaceOnUse" x="0" y="4" width="137" height="40">
<path d="M136.519 4.79999H0V43.2H136.519V4.79999Z" fill="white"/>
</mask>
<g mask="url(#mask0_4470_3588)">
<path d="M31.0794 9.54447C31.0822 9.57291 31.0822 9.60135 31.0794 9.6298C31.0751 9.65255 31.0708 9.67389 31.0652 9.69664C31.0652 9.72366 31.0495 9.74927 31.041 9.77629C31.0324 9.79762 31.0239 9.82038 31.014 9.84171L30.977 9.9242C30.9557 9.96118 30.9343 10.001 30.9102 10.038V10.0536C30.8831 10.0906 30.8547 10.1262 30.8248 10.1631L30.8063 10.1816C30.7722 10.2186 30.7367 10.2556 30.6968 10.2926L30.6172 10.3594L30.5447 10.4177C30.5162 10.439 30.4821 10.459 30.4508 10.4817L30.3541 10.5457L29.9318 10.7918V9.46055C29.919 9.33255 29.8735 9.21024 29.7995 9.105C29.7256 8.99975 29.626 8.91442 29.5108 8.86038L24.9943 6.20935C24.9616 6.18802 24.9261 6.17095 24.8905 6.15389L24.855 6.13824L24.7895 6.10838C24.7412 6.08847 24.6871 6.07282 24.6374 6.0586H24.599L24.5108 6.03442H24.4866H24.4511H24.3757H24.3444H24.3103H24.2378H24.2065H23.868C23.8367 6.03158 23.804 6.03158 23.7713 6.03442H23.7216L23.5566 6.06144H23.5111L23.4315 6.07709L23.376 6.09273L23.3035 6.11406H23.2864H23.2594C23.221 6.12544 23.184 6.14251 23.1485 6.15958L23.1072 6.17522C23.0617 6.19513 23.0176 6.21789 22.975 6.24349L2.84975 18.1475H2.83126L2.79429 18.1731L2.74451 18.2086L2.70327 18.2399L2.65919 18.2769C2.6535 18.2812 2.64781 18.2854 2.64497 18.2926C2.62221 18.3139 2.60088 18.3352 2.5824 18.3594C2.58097 18.3651 2.58097 18.3722 2.5824 18.3779C2.5696 18.3935 2.55822 18.4092 2.54827 18.4277L2.53405 18.449L2.51271 18.4945V18.5215V18.567V18.5955C2.51129 18.6111 2.51129 18.6282 2.51271 18.6438V18.6723V19.9992L2.11169 19.7532C1.59832 19.4531 1.34235 19.0549 1.34519 18.6595L1.32812 24.9827C1.32812 25.3795 1.58126 25.7749 2.09462 26.075L6.60829 28.7288C6.67086 28.763 6.73344 28.7971 6.79885 28.8298L6.86711 28.8597L6.9823 28.9123H7.00363L7.05056 28.9279L7.20699 28.9834L7.26245 28.999H7.29942L7.36484 29.0175L7.52695 29.0574L7.56962 29.0687H7.63503L7.77297 29.0943H7.82843H7.88816L8.01899 29.1086H8.08156H8.13987H8.27354H8.33754H8.64755H8.82389H8.89357H8.91632C9.01445 29.0958 9.11399 29.083 9.21354 29.0659H9.22776L9.31024 29.0502L9.45387 29.0175L9.55626 28.9862L9.69135 28.9521H9.7198L9.87765 28.8938H9.89898L10.0654 28.8213L10.1137 28.7985L10.2886 28.7046L30.4124 16.8021L30.4437 16.7807L30.512 16.7381L30.6058 16.6741L30.6784 16.6129L30.758 16.5475H30.7722C30.8049 16.5176 30.8376 16.4849 30.8661 16.4494C30.8732 16.4437 30.8789 16.4366 30.8831 16.428C30.9002 16.4095 30.9201 16.3896 30.9343 16.3697L30.9699 16.3214C30.9727 16.3157 30.977 16.3071 30.9827 16.3029C31.0012 16.2716 31.0211 16.2417 31.0381 16.2104C31.0396 16.2033 31.0396 16.1976 31.0381 16.1919C31.0524 16.1649 31.0652 16.1365 31.0765 16.1094C31.0851 16.0924 31.0922 16.0782 31.0979 16.0611C31.0993 16.0554 31.0993 16.0483 31.0979 16.0426C31.1078 16.017 31.1149 15.9914 31.1206 15.9658C31.1263 15.9473 31.132 15.9274 31.1348 15.9103C31.1363 15.9046 31.1363 15.9004 31.1348 15.8947V15.8122V15.7567V15.7354L31.1519 9.4122C31.0865 9.49042 31.0822 9.51744 31.0794 9.54447ZM9.36996 21.9576C9.32872 21.9818 9.28322 22.0046 9.23771 22.0259L9.19647 22.0444L9.08413 22.0899L9.04147 22.1041L8.96894 22.124L8.91348 22.1411L8.83384 22.1567H8.7798C8.72434 22.1567 8.67173 22.1752 8.61626 22.1809H8.56507H8.46837H8.26359H8.19106H8.1228H8.05312H7.98771H7.91234H7.85261L7.76302 22.1567L7.71467 22.1425C7.66347 22.1269 7.61086 22.1098 7.56251 22.0899L7.48998 22.0586L7.45443 22.043L7.34777 21.9889L7.17286 21.8851L22.9337 12.5624C22.9778 12.5368 23.0219 12.5141 23.0688 12.4927L23.1101 12.4771C23.1456 12.46 23.1826 12.4444 23.221 12.4316L23.2622 12.4188L23.3376 12.3974L23.3931 12.3818L23.4698 12.3633H23.5253L23.6874 12.3391H23.7386H23.8353H24.1098H24.1752H24.2477H24.3103H24.3885H24.4454L24.535 12.3605L24.5833 12.3761C24.6374 12.3918 24.6871 12.4088 24.7383 12.4287L24.8109 12.4586L24.8478 12.4742C24.8834 12.4913 24.9175 12.5112 24.9517 12.5297L25.1251 12.6335L9.36996 21.9576Z" fill="#4B44F4"/>
<path d="M29.4913 8.86323C30.0501 9.19318 30.0516 9.72794 29.4913 10.0551L9.36747 21.9605C9.05319 22.1212 8.70621 22.2051 8.35495 22.2051C8.0037 22.2051 7.65671 22.1212 7.34386 21.9605L2.84157 19.3052C2.28269 18.9781 2.28127 18.4433 2.84157 18.1162L22.9654 6.21221C23.2782 6.05007 23.6252 5.96332 23.9765 5.96332C24.3277 5.96332 24.6733 6.05007 24.9861 6.21221L29.4913 8.86323Z" fill="white"/>
<path d="M30.3169 8.37549C31.3351 8.97282 31.3394 9.94704 30.3297 10.5444L10.2031 22.4484C9.19338 23.0457 7.5452 23.0457 6.52273 22.4484L2.00906 19.7945C0.990849 19.1972 0.986583 18.223 1.99626 17.6256L22.1215 5.72162C22.6903 5.42722 23.3217 5.27362 23.9602 5.27362C24.6002 5.27362 25.2301 5.42722 25.8004 5.72162L30.3169 8.37549ZM9.36688 21.9591L29.4907 10.0551C30.0467 9.72802 30.0439 9.19184 29.4907 8.86189L24.9742 6.21086C24.6613 6.04873 24.3157 5.9634 23.9645 5.9634C23.6132 5.9634 23.2677 6.04873 22.9548 6.21086L2.83102 18.1149C2.27498 18.442 2.2764 18.9782 2.83102 19.3053L7.34468 21.9591C7.65754 22.1198 8.00453 22.2038 8.35578 22.2038C8.70703 22.2038 9.05402 22.1198 9.36688 21.9591Z" fill="#4B44F4"/>
<path d="M30.7278 16.4095C30.7079 15.8862 30.3708 15.3969 29.7835 15.0513L25.2684 12.3975C24.6441 12.0689 23.9516 11.8983 23.2476 11.8983C22.5437 11.8983 21.8512 12.0689 21.2269 12.3975L12.5636 17.5246C11.9692 17.8773 11.6378 18.3623 11.6279 18.8984V18.9198L11.6094 25.243C11.6094 25.7934 11.945 26.2954 12.5593 26.6567L17.073 29.3077C17.1427 29.3489 17.2152 29.3873 17.2877 29.4243L17.3631 29.4542L17.3915 29.4698L17.4925 29.5153H17.5167L17.5707 29.5338C17.6262 29.5551 17.6845 29.5765 17.7542 29.5992L17.8125 29.6177H17.8409L17.9177 29.6362C17.976 29.6547 18.0343 29.6703 18.1026 29.6846H18.141H18.2135L18.377 29.7144H18.4183H18.4894L18.6487 29.7329H18.7596H18.9231H19.2118H19.3071H19.5232H19.6C19.7067 29.7329 19.8148 29.7073 19.9072 29.6903H19.9385H20.001H20.0281L20.1873 29.6547L20.2641 29.6319H20.3111L20.4433 29.5921H20.4774C20.5357 29.5722 20.5955 29.5537 20.6509 29.531H20.6751C20.7405 29.5068 20.8017 29.4812 20.8614 29.4513L20.9169 29.4243C20.9851 29.3916 21.052 29.3546 21.116 29.3191L29.7778 24.1948L29.8148 24.1735L29.8745 24.1336L29.9115 24.1095L30.0011 24.0483L30.0708 23.99L30.1021 23.9644C30.1262 23.9459 30.1504 23.9246 30.1717 23.9032L30.203 23.8791C30.2443 23.8392 30.2812 23.8023 30.3154 23.7653L30.3481 23.7255L30.4021 23.6615C30.4163 23.6444 30.4277 23.6245 30.4476 23.5975L30.4647 23.5761C30.4903 23.5377 30.5145 23.4965 30.5372 23.4567L30.5514 23.4282C30.5713 23.3912 30.5884 23.3528 30.604 23.3159C30.6211 23.2789 30.624 23.2732 30.6282 23.2575L30.6439 23.2163C30.6439 23.1893 30.6595 23.1566 30.6695 23.1167C30.678 23.0926 30.6837 23.0698 30.6894 23.0456C30.6908 23.0343 30.6908 23.0243 30.6894 23.0115C30.6908 22.9759 30.6908 22.939 30.6894 22.902C30.6908 22.8792 30.6908 22.8551 30.6894 22.8309V22.7967L30.7079 16.4735C30.7164 16.4522 30.7235 16.4309 30.7278 16.4095Z" fill="#4B44F4"/>
<path d="M30.3561 16.5417V16.6242C30.3518 16.6484 30.3476 16.6711 30.3405 16.6939C30.3348 16.7209 30.3248 16.7465 30.3163 16.7721C30.3163 16.7949 30.3006 16.8162 30.2921 16.839C30.2822 16.8603 30.2679 16.893 30.2523 16.92C30.2381 16.9471 30.2111 16.9968 30.1869 17.0324C30.1812 17.0381 30.1783 17.0438 30.1755 17.0509C30.1485 17.0879 30.12 17.122 30.0888 17.159C30.0845 17.1661 30.0788 17.1732 30.0717 17.1789C30.0376 17.2173 30.002 17.2514 29.9636 17.2884L29.8811 17.3552L29.81 17.415L29.7162 17.4775L29.618 17.5415L29.1971 17.7876V16.4607C29.1843 16.3312 29.1374 16.2061 29.0634 16.1008C28.9895 15.9956 28.8899 15.9117 28.7748 15.8576L24.2597 13.2066C24.227 13.1867 24.1928 13.1668 24.1559 13.1497L24.1189 13.1341L24.0549 13.1056C24.0037 13.0857 23.9525 13.0687 23.8985 13.053H23.8643L23.7733 13.0317H23.752H23.715H23.6382H23.6098H23.5771H23.5031H23.469H23.1348H23.0367H22.9855L22.8234 13.0559H22.7793L22.6996 13.0729L22.6456 13.0886L22.5717 13.1099H22.5532H22.529C22.4906 13.1227 22.4536 13.1369 22.4181 13.154L22.3783 13.1711C22.3313 13.1924 22.2858 13.2151 22.2432 13.2407L13.5799 18.3636H13.5614L13.5244 18.3906L13.4746 18.4247L13.4348 18.4575L13.3893 18.4944L13.3765 18.5087L13.3154 18.5755L13.304 18.5897V18.6054L13.2699 18.6566L13.2542 18.6779L13.2329 18.7248C13.2329 18.7334 13.2329 18.7419 13.2329 18.7504V18.7945C13.2315 18.8045 13.2315 18.8144 13.2329 18.823V18.8699V18.8998V18.9126V20.2381L12.8319 19.992C12.3199 19.6891 12.0625 19.2937 12.0654 18.8998L12.0469 25.223C12.0469 25.6169 12.3043 26.0123 12.8162 26.3152L17.3299 28.9663C17.391 29.0047 17.455 29.0374 17.5204 29.0672L17.5844 29.0971C17.6228 29.117 17.6641 29.1341 17.7039 29.1483H17.7266L17.7722 29.1654L17.9286 29.2194L17.9812 29.2365H18.0167L18.085 29.2521L18.2471 29.2934H18.2898H18.3566L18.4946 29.319H18.5472C18.5671 29.3175 18.5898 29.3175 18.6112 29.319L18.7406 29.3332H18.8017H18.86H18.9951H19.3251H19.3691H19.5441H19.6137H19.6379C19.736 29.3332 19.8356 29.309 19.9351 29.2919H19.9479L20.0304 29.2735L20.1755 29.2422L20.2764 29.2151L20.4115 29.1753H20.4414L20.5978 29.1184H20.6191L20.7884 29.0473L20.8339 29.0231C20.8936 28.9933 20.9533 28.9648 21.0088 28.9293L29.6721 23.8064L29.7034 23.7865L29.7702 23.7424L29.8626 23.6784L29.9366 23.6201L30.0162 23.5533H30.0319C30.0646 23.522 30.0959 23.4893 30.1257 23.4551L30.1442 23.4352L30.194 23.3755C30.194 23.3584 30.2153 23.3414 30.2267 23.3271L30.2395 23.3101C30.2608 23.2802 30.2793 23.2489 30.2978 23.2162V23.1963C30.312 23.1693 30.3248 23.1423 30.3376 23.1152C30.3433 23.0982 30.3504 23.0825 30.3589 23.0669C30.3604 23.0612 30.3604 23.0555 30.3589 23.0484L30.3803 22.9702C30.386 22.9531 30.3917 22.9346 30.3959 22.9161V22.8308V22.7753V22.754L30.4144 16.4308C30.3646 16.4891 30.3575 16.5161 30.3561 16.5417ZM22.3512 19.463L22.3882 19.4459C22.4252 19.4288 22.465 19.4132 22.5034 19.4018L22.5446 19.3862L22.6172 19.3677L22.6755 19.3506L22.7523 19.3321H22.8077L22.9698 19.3079H23.0196H23.1163H23.3965H23.4633H23.5344H23.5984H23.6723H23.7335L23.8217 19.3307L23.8714 19.3449C23.9226 19.3591 23.9738 19.3762 24.0236 19.3961L24.0947 19.4288L24.1317 19.4431L24.2383 19.4999L24.4104 19.6038L20.1129 22.1467C20.0688 22.1709 20.0247 22.1936 19.9764 22.215L19.9351 22.232L19.8256 22.2747L19.783 22.2889L19.7119 22.3117L19.6536 22.3259L19.5768 22.343H19.5213C19.4687 22.343 19.4161 22.36 19.3592 22.3657H19.308H19.2127H19.0065H18.9311H18.8657H18.7932H18.7306L18.6553 22.3501H18.5941L18.5074 22.3287H18.459C18.405 22.3117 18.3538 22.2946 18.3054 22.2747L18.2315 22.2448C18.2201 22.2377 18.2087 22.232 18.1974 22.2278C18.1618 22.2107 18.1248 22.1936 18.0907 22.1737L17.9158 22.0699L22.2161 19.527L22.3512 19.463Z" fill="#4B44F4"/>
<path d="M29.6016 15.3727C30.6212 15.97 30.6255 16.9442 29.613 17.5416L20.9497 22.6644C20.3809 22.9602 19.7495 23.1138 19.1095 23.1138C18.471 23.1138 17.8396 22.9602 17.2708 22.6644L12.75 20.0134C11.7332 19.4132 11.7289 18.4418 12.7386 17.8417L21.4019 12.7188C21.9707 12.4244 22.6021 12.2708 23.2407 12.2708C23.8806 12.2708 24.5106 12.4244 25.0808 12.7188L29.6016 15.3727ZM20.1206 22.178L28.7825 17.0523C29.3371 16.7252 29.3357 16.189 28.7825 15.8591L24.2674 13.2081C23.9545 13.0459 23.609 12.9606 23.2563 12.9606C22.905 12.9606 22.5595 13.0459 22.2452 13.2081L13.5833 18.3309C13.0273 18.6609 13.0316 19.1942 13.5833 19.5241L18.0984 22.178C18.4113 22.3387 18.7583 22.4226 19.1095 22.4226C19.4608 22.4226 19.8063 22.3387 20.1206 22.178Z" fill="#4B44F4"/>
<path d="M28.784 15.8606C29.3443 16.1906 29.3471 16.7267 28.784 17.0538L20.1207 22.1781C19.8078 22.3388 19.4608 22.4242 19.1096 22.4242C18.7583 22.4242 18.4113 22.3388 18.0985 22.1781L13.5848 19.5242C13.0259 19.1943 13.0217 18.6624 13.5848 18.3324L22.2481 13.2096C22.561 13.0474 22.9065 12.9607 23.2592 12.9607C23.6105 12.9607 23.9574 13.0474 24.2703 13.2096L28.784 15.8606Z" fill="white"/>
<mask id="mask1_4470_3588" style="mask-type:luminance" maskUnits="userSpaceOnUse" x="-4" y="1" width="141" height="43">
<path d="M136.535 4.79993H0.015625V43.1999H136.535V4.79993Z" fill="white"/>
<path d="M29.6023 1.77771L16.7155 2.48882L-3.46094 17.5118L-1.41599 27.4673L4.09455 31.2888L8.98223 30.3999L14.0932 28.1329L31.1581 18.1333L35.558 9.24438L29.6023 1.77771Z" fill="black"/>
</mask>
<g mask="url(#mask1_4470_3588)">
<path d="M40.815 22.0345C40.8492 21.6135 40.5975 21.1868 40.0528 20.8668L35.5391 18.213C34.5195 17.6156 32.8813 17.6156 31.8588 18.213L30.3585 19.1019V16.8306L30.3998 16.805L30.4936 16.741L30.5661 16.6827L30.6458 16.6158H30.6614C30.6941 16.5845 30.7254 16.5518 30.7553 16.5177C30.7624 16.512 30.7681 16.5035 30.7723 16.4964C30.7894 16.4764 30.8079 16.458 30.8235 16.438L30.8591 16.3883C30.8619 16.3812 30.8662 16.3755 30.8705 16.3712C30.8904 16.3385 30.9103 16.31 30.9259 16.2788C30.9273 16.2716 30.9273 16.2645 30.9259 16.2574C30.9416 16.2304 30.9529 16.2048 30.9657 16.1778C30.9743 16.1621 30.9814 16.1436 30.9871 16.128C30.9871 16.1209 30.9871 16.1152 30.9871 16.1095C30.9956 16.0839 31.0027 16.0597 31.0084 16.0327C31.0155 16.0156 31.0198 15.9972 31.0226 15.9787C31.024 15.9744 31.024 15.9673 31.0226 15.963V15.8805V15.8251V15.8037L31.0397 9.48054V9.55307C31.0767 9.13209 30.825 8.70827 30.2817 8.38827L25.7936 5.7216C25.2234 5.4272 24.5934 5.27502 23.9535 5.27502C23.315 5.27502 22.6836 5.4272 22.1133 5.7216L1.98952 17.627C1.48752 17.9243 1.23582 18.3154 1.23582 18.7065L1.21875 25.0297C1.21875 25.4251 1.4733 25.8204 1.98525 26.1205L6.49892 28.7758C6.56149 28.81 6.62406 28.8441 6.68948 28.8768L6.75774 28.9038L6.87292 28.9564H6.89568L6.94118 28.9749L7.09761 29.029L7.1545 29.0446H7.19005L7.25546 29.0631L7.41758 29.1029L7.46024 29.1129H7.52566L7.6636 29.1399H7.71906H7.78021L7.90962 29.1527H7.97361H8.03049H8.16417H8.22959H8.53818H8.71451H8.78562H8.80695C8.90507 29.1399 9.00462 29.13 9.10416 29.1129H9.11838L9.20086 29.0944L9.34591 29.0631L9.44688 29.0332L9.58198 28.9963H9.61184L9.76827 28.9408H9.7896L9.95741 28.8668L10.0058 28.8427L10.1793 28.7502L13.5169 26.7833L15.4495 27.9111L11.7421 30.1028C11.2401 30.4 10.9884 30.7925 10.9884 31.1836L10.9713 37.5068C10.9713 37.9022 11.2259 38.299 11.7378 38.5991L16.2515 41.253C16.3141 41.2871 16.3767 41.3212 16.4421 41.354L16.5103 41.3824L16.6255 41.4336H16.6483L16.6938 41.4521L16.8516 41.5047L16.9071 41.5232L16.9426 41.5346L17.0081 41.5531L17.173 41.59H17.2128H17.2783L17.4162 41.6156H17.4717H17.5328L17.6636 41.6299H17.7262H17.7831H17.9168H18.2908H18.4671H18.5396H18.5595C18.6605 41.6299 18.7601 41.6071 18.8568 41.59H18.871L18.9563 41.5687L19.0985 41.5388L19.1995 41.5104L19.3346 41.4734H19.3644L19.5209 41.418H19.5422L19.71 41.3454L19.7584 41.3241C19.8181 41.2942 19.8764 41.2615 19.9319 41.2288L40.0556 29.3262L40.0869 29.3049L40.1552 29.2622L40.2491 29.1982L40.3216 29.1399L40.4012 29.0731L40.4154 29.0574C40.4496 29.0276 40.4809 28.9963 40.5107 28.9621L40.5292 28.9408L40.5775 28.8825L40.6145 28.8327C40.6174 28.827 40.6216 28.8199 40.6259 28.8156C40.6458 28.7844 40.6643 28.7559 40.6814 28.7232C40.6828 28.7175 40.6828 28.7104 40.6814 28.7047C40.6956 28.6777 40.7084 28.6478 40.7198 28.6194C40.7297 28.6037 40.7368 28.5881 40.7425 28.5724V28.5568C40.751 28.5312 40.7596 28.5042 40.7638 28.4772C40.7638 28.4601 40.7766 28.443 40.7809 28.4231V28.4075V28.325C40.7823 28.3079 40.7823 28.288 40.7809 28.2695V28.2482L40.798 21.925C40.8193 21.9847 40.8165 22.0089 40.815 22.0345ZM31.0255 9.77351C31.0198 9.79342 31.0127 9.81049 31.0041 9.82898L31.0255 9.77351ZM30.96 9.92142L30.9288 9.9712C30.9387 9.95698 30.9501 9.94134 30.96 9.92142ZM30.8833 10.0494L30.8321 10.112C30.8491 10.0921 30.869 10.0693 30.8833 10.038V10.0494ZM30.7794 10.1817C30.7567 10.2073 30.7339 10.23 30.7098 10.2528C30.7311 10.2286 30.7581 10.2059 30.7794 10.1817ZM2.50715 18.4092C2.50715 18.4036 2.50715 18.3979 2.50715 18.3908V18.4092ZM2.6522 18.2372L2.63798 18.25L2.65505 18.2372H2.6522ZM29.7328 17.4834L29.6333 17.5474L29.7356 17.4805L29.7328 17.4834ZM29.8992 17.3611L29.8636 17.3909L29.8992 17.3568V17.3611ZM29.9162 9.37529C29.9162 9.38951 29.9162 9.40374 29.9162 9.41796C29.9106 9.40231 29.9049 9.38667 29.902 9.3696L29.9162 9.37529ZM30.0883 17.1833L30.0158 17.2558L30.0912 17.1833H30.0883ZM30.1921 17.0539L30.1395 17.1207C30.158 17.0965 30.1779 17.0752 30.195 17.051L30.1921 17.0539ZM30.2689 16.9259L30.2376 16.9799L30.2718 16.9216L30.2689 16.9259ZM39.6575 21.8539V21.8994C39.6575 21.9136 39.6347 21.8766 39.6333 21.8624L39.6575 21.8539ZM40.3529 22.8437L40.3074 22.8807L40.3557 22.8409L40.3529 22.8437ZM40.6458 22.538C40.6316 22.5607 40.6117 22.5806 40.5946 22.602C40.6117 22.5806 40.633 22.555 40.6472 22.5337L40.6458 22.538ZM40.7254 22.4085C40.7254 22.4256 40.7041 22.4412 40.6942 22.4612L40.7254 22.4057V22.4085ZM40.788 22.2592C40.7823 22.2777 40.7752 22.2976 40.7667 22.3161L40.7909 22.2578L40.788 22.2592ZM40.8293 22.1113L40.815 22.1724L40.8293 22.1084V22.1113Z" fill="#4B44F4"/>
<path d="M18.0928 42.0778H17.9307H17.7685H17.6576L17.4984 42.0607L17.3832 42.0436L17.2211 42.0138H17.1485H17.1073L16.9253 41.9697L16.8513 41.9498H16.82L16.7688 41.9355L16.5783 41.8687L16.5242 41.8488H16.5001L16.3991 41.8047L16.3721 41.7919L16.2981 41.7578C16.2228 41.7236 16.1502 41.6838 16.0805 41.6454L11.5569 38.929C10.9426 38.5706 10.607 38.0685 10.6098 37.5153L10.6269 31.1921V31.1892C10.6269 30.6502 10.9653 30.161 11.5612 29.8097L14.7239 27.938L13.5165 27.234L10.3752 29.1014C10.3098 29.1412 10.2443 29.1754 10.1747 29.2095L10.1192 29.2365C10.0609 29.2635 9.99832 29.2906 9.93291 29.3147H9.90873L9.73524 29.3787H9.70111L9.56744 29.4186L9.43945 29.0715L9.53899 29.4257L9.44514 29.4527L9.28587 29.4868H9.25885H9.19627H9.16499C9.07255 29.5053 8.9659 29.5195 8.85782 29.5323H8.77961L8.56487 29.5466H8.1738H8.03302H7.91783L7.76282 29.5295H7.69314H7.64906L7.48552 29.5025L7.41299 29.4868H7.37317L7.1883 29.4427L7.1172 29.4243H7.08876L7.0333 29.4058L6.83989 29.3403L6.7887 29.3204C6.73039 29.2977 6.69769 29.2806 6.66356 29.2664L6.56401 29.2223C6.48722 29.1853 6.41469 29.1455 6.34501 29.1057L1.82992 26.4518C1.217 26.0934 0.881394 25.5885 0.882817 25.0381L0.899882 18.7149V18.7007C0.899882 18.1617 1.23834 17.6753 1.83561 17.3197L21.9594 5.41714C22.5837 5.08719 23.2777 4.9151 23.9802 4.9151C24.6841 4.9151 25.3767 5.08719 26.0024 5.41714L30.516 8.06959C31.1062 8.41519 31.4432 8.90443 31.4631 9.43065V9.48185L31.4461 15.8051C31.4475 15.8164 31.4475 15.8278 31.4461 15.8392V15.9131C31.4461 15.9387 31.4461 15.9843 31.4347 16.017C31.4333 16.0298 31.4333 16.0411 31.4347 16.0539C31.4347 16.0781 31.4347 16.1009 31.4148 16.1251C31.3949 16.1492 31.3949 16.1933 31.3863 16.2232C31.3764 16.2531 31.3864 16.2531 31.3736 16.2659L31.348 16.3242C31.3309 16.3611 31.3138 16.3981 31.2939 16.4351V16.465C31.2697 16.5034 31.2456 16.5432 31.2185 16.583L31.2043 16.6029C31.1915 16.6243 31.1759 16.6456 31.1588 16.6655C31.1418 16.6883 31.1247 16.7096 31.1062 16.7295L31.0763 16.7665C31.0379 16.8091 30.9995 16.8475 30.9583 16.8874L30.9284 16.9115L30.8573 16.9741L30.8275 16.9983L30.772 17.0424V18.4746L31.739 17.9085C32.3633 17.5786 33.0559 17.4079 33.7598 17.4079C34.4637 17.4079 35.1563 17.5786 35.782 17.9085L40.2971 20.5624C40.8844 20.9066 41.2229 21.3958 41.2428 21.922C41.2442 21.9391 41.2442 21.9562 41.2428 21.9732L41.2257 28.2964V28.332V28.4059V28.5083V28.5453C41.2257 28.5581 41.2129 28.5923 41.2058 28.6164C41.1987 28.642 41.1873 28.6861 41.1773 28.7146C41.1788 28.7288 41.1788 28.743 41.1773 28.7572L41.1503 28.8155C41.1333 28.8525 41.119 28.8895 41.1006 28.9265C41.0806 28.9635 41.1006 28.9435 41.0849 28.9563C41.0707 28.9691 41.0366 29.0346 41.011 29.0744C40.9839 29.1142 41.011 29.0915 40.9953 29.0943C40.9811 29.0971 40.964 29.1384 40.9498 29.1583C40.9342 29.1811 40.9157 29.2024 40.8972 29.2223L40.8673 29.2564C40.8289 29.3005 40.7905 29.3403 40.7493 29.3787L40.7209 29.4043L40.6483 29.4655L40.6185 29.4868L40.5459 29.5466L40.462 29.6035L40.4407 29.6177L40.3611 29.6717L40.3241 29.6945L20.2031 41.5956C20.1377 41.6355 20.0695 41.6696 20.0026 41.7037L19.9457 41.7307C19.886 41.7578 19.8263 41.7848 19.7609 41.809H19.7367C19.6812 41.8317 19.6229 41.8545 19.5618 41.873H19.5291L19.384 41.9156H19.3542L19.2703 41.9398L19.1252 41.9697H19.0868H19.0228H18.9944C18.9005 41.9867 18.7939 42.001 18.6858 42.0138H18.6047L18.3957 42.028H18.171L18.0928 42.0778ZM11.3607 31.212L11.3436 37.5181C11.3436 37.7912 11.5569 38.0714 11.9295 38.2904L16.4432 40.9443C16.4958 40.9727 16.5513 41.0026 16.6096 41.0296L16.6963 41.0694L16.7688 41.1007L16.8072 41.1163L16.9693 41.1732L17.0177 41.1875H17.0419L17.1115 41.2045L17.2594 41.2415H17.2907H17.3561L17.4813 41.2643L17.5879 41.2785L17.7088 41.2927H17.8197C17.8596 41.2955 17.9008 41.2955 17.9406 41.2927H18.2819H18.4483H18.4895H18.535C18.6218 41.2927 18.7142 41.2714 18.8038 41.2557H18.8308L18.8934 41.2415L19.0214 41.2145L19.1153 41.1903L19.2361 41.1533H19.2632L19.4025 41.1035L19.5675 41.0324L19.6101 41.0097L19.7609 40.9315L39.8847 29.0275L40.0966 29.3275L39.9117 29.0104L39.9913 28.9563C40.0098 28.9464 40.0269 28.935 40.0439 28.9222L40.0823 28.8895L40.1037 28.8724L40.1677 28.8212L40.1961 28.7971L40.2516 28.7345L40.3213 28.6491C40.3284 28.6406 40.3341 28.6335 40.3383 28.6235C40.3511 28.6079 40.3625 28.5908 40.3724 28.5723V28.551L40.3995 28.497C40.398 28.4856 40.398 28.4756 40.3995 28.4643C40.4052 28.45 40.408 28.4358 40.4108 28.4202V28.3732C40.4137 28.359 40.4137 28.3434 40.4108 28.3291V28.2751L40.4251 23.2006L40.3995 23.2163C40.3796 23.2347 40.3596 23.2518 40.3383 23.2675L40.3141 23.2817C40.2857 23.3044 40.2544 23.3243 40.2231 23.3443L39.8022 23.5903C39.7183 23.6387 39.6202 23.6515 39.5277 23.6259C39.4339 23.6003 39.3557 23.5391 39.3073 23.4538C39.2746 23.3983 39.2575 23.3343 39.259 23.2703C39.2575 23.2049 39.2746 23.1423 39.3059 23.0854C39.3372 23.0299 39.3827 22.983 39.4367 22.9503L39.8577 22.7043L39.9131 22.6673L39.9401 22.6502H39.9515L39.9984 22.626L40.034 22.5905L40.0539 22.5763L40.0781 22.5563L40.1279 22.5251C40.1407 22.5051 40.1563 22.4881 40.1719 22.4724C40.199 22.4454 40.2132 22.434 40.2246 22.4184H40.2402C40.2459 22.407 40.2544 22.3956 40.2644 22.3843L40.2885 22.3572V22.343L40.2999 22.3274C40.3028 22.3188 40.307 22.3103 40.3141 22.3032V22.2861C40.3141 22.279 40.3141 22.2733 40.3141 22.2662L40.3284 22.2292L40.3454 22.1923C40.3454 22.1866 40.3454 22.1795 40.3454 22.1723V22.1382V22.0998V22.0671C40.3696 21.7798 40.1606 21.484 39.7666 21.2507L35.2501 18.5997C34.7965 18.3523 34.2931 18.2186 33.7811 18.2058C33.8337 18.2385 33.8778 18.284 33.9091 18.3395C33.939 18.3935 33.956 18.4547 33.9575 18.5187C33.9575 18.6154 33.9205 18.7078 33.8537 18.7775C33.7868 18.8458 33.6972 18.8856 33.6019 18.887H33.5721C33.538 18.887 33.5038 18.8827 33.4711 18.8728C33.4398 18.8856 33.4057 18.8941 33.3716 18.8998H33.336C33.2635 18.9083 33.191 18.8955 33.1255 18.8628C33.0843 18.9211 33.026 18.9652 32.9592 18.988L32.9179 19.0051C32.8738 19.0264 32.8255 19.0363 32.7757 19.0378C32.7274 19.0392 32.679 19.0307 32.6335 19.0122C32.588 18.9937 32.5468 18.9652 32.5126 18.9311C32.4771 18.8955 32.4501 18.8529 32.4316 18.8074C32.4131 18.7604 32.4046 18.7121 32.406 18.6623C32.406 18.6125 32.4174 18.5627 32.4373 18.5172C32.4572 18.4717 32.487 18.4319 32.5226 18.3978C32.5581 18.3636 32.6008 18.338 32.6477 18.321L32.7131 18.2939C32.7587 18.2769 32.8084 18.2698 32.8582 18.274C32.908 18.2769 32.9563 18.2897 33.0004 18.311C33.026 18.2769 33.0587 18.2456 33.0943 18.22C32.6875 18.2641 32.2936 18.3892 31.9338 18.5898L30.4336 19.4772C30.3781 19.5099 30.3155 19.527 30.2515 19.527C30.1875 19.527 30.125 19.5099 30.0695 19.4772C30.0155 19.4445 29.97 19.3976 29.9373 19.3407C29.906 19.2838 29.8903 19.2198 29.8903 19.1558V17.7706H29.8704H29.859C29.842 17.7876 29.8235 17.8033 29.8036 17.8175L29.7794 17.8346L29.687 17.8929L29.266 18.1389C29.1836 18.1873 29.084 18.2001 28.9916 18.1759C28.8991 18.1503 28.8195 18.0891 28.7712 18.0038C28.7399 17.9483 28.7228 17.8843 28.7228 17.8203C28.7228 17.7549 28.7399 17.6909 28.7712 17.6355C28.8039 17.5786 28.8494 17.5331 28.9048 17.5003L29.3243 17.2543L29.3784 17.2202L29.4097 17.1974L29.4665 17.1675L29.5106 17.1263H29.5249L29.5448 17.1107C29.5618 17.0979 29.5789 17.0851 29.5974 17.0751L29.6187 17.0523L29.6756 16.9955L29.6941 16.9656L29.7282 16.9215V16.9101L29.7495 16.8703L29.7737 16.8305C29.7794 16.8205 29.7851 16.8106 29.7908 16.802C29.8278 16.7437 29.8818 16.6982 29.9429 16.6712C29.9614 16.6499 29.9828 16.6299 30.0055 16.6143L30.0738 16.5674L30.1321 16.5304L30.1676 16.4991L30.1904 16.482L30.253 16.428L30.2786 16.4081L30.3369 16.3441L30.4065 16.2573L30.4236 16.236L30.4577 16.1819C30.4577 16.1748 30.4577 16.1691 30.4577 16.162C30.4577 16.1421 30.4748 16.1222 30.4819 16.1051L30.4961 16.0739C30.4976 16.0611 30.4976 16.0468 30.4961 16.034L30.5089 15.9899C30.5104 15.9743 30.5104 15.9587 30.5089 15.943V15.889L30.5231 10.8145H30.499C30.4862 10.8301 30.472 10.8429 30.4563 10.8543L30.4293 10.8742L30.4094 10.8884L30.3184 10.9482C30.2345 10.9965 30.1349 11.0107 30.0425 10.9851C29.9486 10.961 29.8704 10.8984 29.8206 10.8145C29.7723 10.7291 29.7595 10.6282 29.7837 10.5329C29.8093 10.439 29.869 10.3579 29.9529 10.3082C29.9714 10.2982 29.9899 10.2868 30.0055 10.274L30.0368 10.2541C30.0553 10.2413 30.0752 10.2299 30.0951 10.2228C30.1065 10.2086 30.1193 10.1958 30.1335 10.1859L30.1534 10.1688H30.1676L30.1847 10.156H30.1975L30.2231 10.1418C30.233 10.1275 30.2444 10.1133 30.2572 10.1019L30.3098 10.0507H30.3226L30.3369 10.0308L30.3753 9.9839V9.9711C30.3795 9.95972 30.3852 9.94977 30.3923 9.93981L30.4065 9.91421C30.4108 9.90568 30.4165 9.89857 30.4222 9.89003C30.4222 9.87866 30.4222 9.86728 30.4222 9.8559L30.4392 9.81608V9.79901V9.76203V9.72363V9.68808C30.4634 9.40363 30.2501 9.10639 29.8562 8.87457L25.3425 6.2207C24.9799 6.02017 24.5831 5.89501 24.1722 5.85234C24.2418 5.89643 24.2945 5.9647 24.3201 6.04434C24.3471 6.12399 24.3457 6.20932 24.3172 6.28754C24.2888 6.36719 24.2362 6.43403 24.165 6.4767C24.0954 6.52079 24.0129 6.53928 23.9318 6.5279H23.902C23.865 6.52363 23.828 6.51368 23.7939 6.49803C23.7555 6.51083 23.7157 6.51652 23.6744 6.51652H23.8806C23.8664 6.49092 23.8451 6.47101 23.8195 6.45679C23.7939 6.44399 23.764 6.43972 23.7356 6.44257C23.7071 6.44541 23.6801 6.45821 23.6588 6.4767C23.636 6.49519 23.6204 6.51937 23.6119 6.54781C23.5891 6.56061 23.5635 6.56914 23.5379 6.57483H23.5137C23.4839 6.5791 23.4554 6.5791 23.4256 6.57483C23.4 6.59332 23.3715 6.60754 23.3417 6.61892L23.2962 6.63599C23.2066 6.67297 23.107 6.67154 23.0174 6.63172C22.9293 6.59332 22.8596 6.52079 22.824 6.42977C22.7885 6.33874 22.7899 6.23777 22.8283 6.14674C22.8667 6.05714 22.9378 5.98603 23.0274 5.95048L23.0928 5.92488C23.1355 5.91208 23.1795 5.90497 23.2236 5.90354L23.2478 5.88932C22.9193 5.94479 22.605 6.05714 22.3149 6.2207L2.19113 18.1247C1.82281 18.338 1.61519 18.6168 1.61519 18.8842V18.8998L1.59812 25.2059C1.59812 25.479 1.81143 25.7592 2.18402 25.9782L6.69769 28.6321L6.86123 28.7174L6.95082 28.7572L7.02334 28.7885H7.04752H7.0788C7.13 28.8084 7.1755 28.8241 7.22385 28.8383L7.27221 28.8554H7.29638L7.36464 28.8696L7.51396 28.9094H7.54809H7.60782L7.7358 28.9322L7.84246 28.9464L7.96333 28.9606H8.07426H8.19513H8.26766H8.54354H8.70281H8.7469H8.78814C8.87631 28.9606 8.96874 28.9393 9.05833 28.9236H9.08535H9.14792L9.27733 28.8952L9.34844 28.8753H9.38257L9.49064 28.8454H9.51908L9.65703 28.7971L9.82199 28.7245L9.86465 28.7032C9.913 28.679 9.96704 28.6534 10.0154 28.6235L13.3516 26.6566C13.407 26.6239 13.4696 26.6068 13.5336 26.6068C13.5976 26.6068 13.6602 26.6239 13.7142 26.6566L15.6482 27.7859C15.7023 27.8186 15.7478 27.8655 15.7805 27.921C15.8118 27.9764 15.8288 28.0404 15.8288 28.1059C15.8288 28.1699 15.8118 28.2324 15.7805 28.2893C15.7478 28.3448 15.7023 28.3903 15.6482 28.423L11.9437 30.6147C11.5783 30.8308 11.3678 31.1053 11.3678 31.377L11.3607 31.212ZM33.6986 18.1958V18.1247H33.6844L33.6986 18.1958ZM23.5834 5.68168C23.6175 5.6959 23.6488 5.71581 23.6773 5.73857C23.7043 5.70301 23.737 5.67172 23.774 5.64754C23.6943 5.64754 23.6147 5.64754 23.5322 5.66745L23.5834 5.68168ZM17.5567 34.9965C17.5282 35.0008 17.4984 35.0008 17.4699 34.9965C17.3874 34.978 17.3064 34.9553 17.2282 34.9254L17.194 34.9126C17.1016 34.8771 17.012 34.8344 16.9253 34.7846C16.8712 34.7519 16.8257 34.7064 16.7944 34.6495C16.7631 34.594 16.7475 34.53 16.7475 34.466C16.7461 34.4006 16.7631 34.3366 16.7958 34.2811C16.8428 34.2001 16.921 34.1403 17.0106 34.1147C17.1002 34.0891 17.1969 34.1005 17.2794 34.146C17.332 34.1759 17.386 34.2015 17.4429 34.2214H17.4699L17.5225 34.2413C17.5581 34.2541 17.5936 34.2641 17.6292 34.2712C17.7259 34.2826 17.8126 34.3338 17.8724 34.4106C17.9321 34.4888 17.9591 34.5869 17.9477 34.6851C17.9364 34.7818 17.8866 34.8714 17.8112 34.9325C17.7344 34.9937 17.6377 35.0207 17.5424 35.0093L17.5567 34.9965ZM12.2665 31.2632C12.1983 31.2632 12.13 31.2433 12.0717 31.2049C12.0319 31.1779 11.9963 31.1451 11.9693 31.1053C11.9423 31.0655 11.9224 31.0214 11.9124 30.9745C11.9025 30.9275 11.9025 30.8778 11.911 30.8308C11.9195 30.7839 11.9366 30.7384 11.9622 30.6971L11.985 30.6687C12.0106 30.6317 12.0404 30.6004 12.076 30.5748C12.0987 30.535 12.1272 30.4995 12.1613 30.4682L12.1784 30.4539C12.2523 30.3928 12.3462 30.3643 12.4415 30.3729C12.5367 30.3828 12.6235 30.4298 12.6846 30.5037C12.7159 30.5393 12.7401 30.5805 12.7543 30.626C12.7685 30.6715 12.7742 30.7199 12.7714 30.7668C12.7685 30.8138 12.7557 30.8607 12.7344 30.9034C12.7131 30.946 12.6846 30.9844 12.6491 31.0143L12.6192 31.0371C12.6121 31.0513 12.605 31.0641 12.5965 31.0769C12.5623 31.1352 12.514 31.1821 12.4571 31.2163C12.3988 31.249 12.3334 31.2646 12.2665 31.2632ZM7.81544 22.5051C7.787 22.508 7.75856 22.508 7.72869 22.5051L7.62061 22.471H7.59075L7.53529 22.4454C7.50685 22.4426 7.47841 22.434 7.45139 22.4241C7.35895 22.3885 7.26936 22.3459 7.18261 22.2961C7.12715 22.2634 7.08165 22.2164 7.05036 22.161C7.01907 22.1041 7.00201 22.0415 7.00201 21.9761C7.00201 21.9107 7.01907 21.8467 7.05321 21.7912C7.10013 21.7101 7.17693 21.6504 7.26652 21.6248C7.35753 21.5992 7.45423 21.6106 7.53529 21.6561C7.58933 21.6859 7.64479 21.713 7.70309 21.7357L7.73865 21.7528H7.7998L7.8325 21.7642L7.89365 21.7841C7.97187 21.804 8.04155 21.8495 8.09132 21.9135C8.14252 21.9789 8.16953 22.0586 8.16953 22.1411C8.17238 22.1709 8.17238 22.2008 8.16953 22.2292C8.1482 22.3089 8.1027 22.3786 8.0387 22.4283C7.97471 22.4781 7.8965 22.5051 7.81544 22.5051ZM39.6628 22.2733C39.5789 22.2733 39.4979 22.2449 39.4339 22.1908C39.3699 22.1382 39.3244 22.0643 39.3073 21.9818V21.9291C39.3045 21.9078 39.3045 21.8851 39.3073 21.8637C39.2974 21.7656 39.3258 21.6675 39.387 21.5921C39.4481 21.5153 39.5363 21.4669 39.633 21.457C39.7297 21.447 39.825 21.4769 39.9003 21.5395C39.9743 21.602 40.0226 21.6916 40.0312 21.7898C40.0312 21.7969 40.0312 21.804 40.0312 21.8111C40.0511 21.9078 40.0312 22.0074 39.9785 22.0884C39.9259 22.1695 39.8434 22.2264 39.7496 22.2463L39.6628 22.2733ZM2.44852 18.914H2.3888C2.30347 18.8998 2.22668 18.8557 2.17122 18.7889C2.11576 18.722 2.08447 18.6381 2.08447 18.5499C2.08305 18.53 2.08305 18.5087 2.08447 18.4888C2.08874 18.4618 2.09585 18.4347 2.1058 18.4106C2.12002 18.3793 2.13709 18.3494 2.157 18.321C2.16553 18.2811 2.1826 18.2442 2.20535 18.2115C2.23095 18.1702 2.26365 18.1361 2.30347 18.1105C2.31627 18.0863 2.33049 18.0635 2.34471 18.0408L2.3888 17.9967L2.41013 17.9768C2.48408 17.9156 2.57935 17.8872 2.67463 17.8971C2.76849 17.9057 2.85666 17.9526 2.91781 18.0266C2.97896 18.0934 3.01309 18.1816 3.01309 18.2726C3.01309 18.3636 2.97896 18.4518 2.91781 18.5187C2.91354 18.5187 2.90643 18.5187 2.90643 18.5187H2.89363L2.8595 18.5457C2.85524 18.5571 2.84813 18.5684 2.84102 18.5798L2.81115 18.6196C2.79551 18.7021 2.75143 18.7761 2.68601 18.8301C2.62202 18.8842 2.54238 18.914 2.45848 18.914H2.44852ZM29.9216 9.7919C29.8391 9.7919 29.7581 9.76345 29.6941 9.70941C29.6301 9.65679 29.586 9.58141 29.5689 9.49892L29.5561 9.44772C29.5547 9.42497 29.5547 9.40221 29.5561 9.37803C29.5561 9.30123 29.5817 9.22443 29.6258 9.16185C29.6713 9.09786 29.7353 9.05234 29.8093 9.02817C29.8818 9.00399 29.96 9.00399 30.0325 9.02959C30.1065 9.05377 30.1691 9.1007 30.2146 9.1647C30.2444 9.20737 30.2643 9.25572 30.2743 9.30692V9.32257C30.2743 9.32968 30.2743 9.33679 30.2743 9.3439C30.2928 9.44061 30.2743 9.54017 30.2202 9.62123C30.1676 9.7023 30.0851 9.75919 29.9913 9.7791C29.9685 9.78621 29.9458 9.79048 29.9216 9.7919Z" fill="#4B44F4"/>
<path d="M30.7356 16.4095C30.7157 15.8862 30.3786 15.3969 29.7913 15.0513L25.2762 12.3975C24.6519 12.0689 23.9594 11.8983 23.2555 11.8983C22.5515 11.8983 21.859 12.0689 21.2347 12.3975L12.5714 17.5246C11.977 17.8773 11.6456 18.3623 11.6357 18.8984V18.9198L11.6172 25.243C11.6172 25.7934 11.9528 26.2954 12.5671 26.6567L17.0808 29.3077C17.1505 29.3489 17.223 29.3873 17.2955 29.4243L17.3709 29.4542L17.3993 29.4698L17.5003 29.5153H17.5245L17.5785 29.5338C17.634 29.5551 17.6923 29.5765 17.762 29.5992L17.8203 29.6177H17.8487L17.9255 29.6362C17.9838 29.6547 18.0421 29.6703 18.1104 29.6846H18.1488H18.2213L18.3848 29.7144H18.4261H18.4972L18.6565 29.7329H18.7674H18.9309H19.2196H19.3149H19.531H19.6078C19.7145 29.7329 19.8226 29.7073 19.915 29.6903H19.9463H20.0089H20.0359L20.1952 29.6547L20.2719 29.6319H20.3189L20.4511 29.5921H20.4853C20.5436 29.5722 20.6033 29.5537 20.6587 29.531H20.6829C20.7483 29.5068 20.8095 29.4812 20.8692 29.4513L20.9247 29.4243C20.9929 29.3916 21.0598 29.3546 21.1238 29.3191L29.7856 24.1948L29.8226 24.1735L29.8823 24.1336L29.9193 24.1095L30.0089 24.0483L30.0786 23.99L30.1099 23.9644C30.134 23.9459 30.1582 23.9246 30.1795 23.9032L30.2108 23.8791C30.2521 23.8392 30.289 23.8023 30.3232 23.7653L30.3559 23.7255L30.4099 23.6615C30.4241 23.6444 30.4355 23.6245 30.4554 23.5975L30.4725 23.5761C30.4981 23.5377 30.5223 23.4965 30.545 23.4567L30.5592 23.4282C30.5792 23.3912 30.5962 23.3528 30.6119 23.3159C30.6289 23.2789 30.6318 23.2732 30.636 23.2575L30.6517 23.2163C30.6517 23.1893 30.6673 23.1566 30.6773 23.1167C30.6858 23.0926 30.6915 23.0698 30.6972 23.0456C30.6986 23.0343 30.6986 23.0243 30.6972 23.0115C30.6986 22.9759 30.6986 22.939 30.6972 22.902C30.6986 22.8792 30.6986 22.8551 30.6972 22.8309V22.7967L30.7157 16.4735C30.7242 16.4522 30.7313 16.4309 30.7356 16.4095Z" fill="#4B44F4"/>
<path d="M30.3717 16.5418V16.6243C30.3675 16.6484 30.3632 16.6712 30.3561 16.694C30.3504 16.721 30.3404 16.7466 30.3319 16.7722C30.3319 16.7949 30.3163 16.8163 30.3077 16.839C30.2978 16.8604 30.2836 16.8931 30.2679 16.9201C30.2537 16.9471 30.2267 16.9969 30.2025 17.0324C30.1968 17.0381 30.194 17.0438 30.1911 17.0509C30.1641 17.0879 30.1357 17.122 30.1044 17.159C30.1001 17.1661 30.0944 17.1732 30.0873 17.1789C30.0532 17.2173 30.0176 17.2515 29.9792 17.2884L29.8968 17.3553L29.8257 17.415L29.7318 17.4776L29.6337 17.5416L29.2127 17.7876V16.4607C29.1999 16.3313 29.153 16.2061 29.0791 16.1009C29.0051 15.9956 28.9056 15.9117 28.7904 15.8577L24.2753 13.2067C24.2426 13.1868 24.2085 13.1668 24.1715 13.1498L24.1345 13.1341L24.0705 13.1057C24.0193 13.0858 23.9681 13.0687 23.9141 13.0531H23.88L23.7889 13.0317H23.7676H23.7306H23.6538H23.6254H23.5927H23.5187H23.4846H23.1504H23.0523H23.0011L22.839 13.0559H22.7949L22.7153 13.073L22.6612 13.0886L22.5873 13.11H22.5688H22.5446C22.5062 13.1228 22.4693 13.137 22.4337 13.154L22.3939 13.1711C22.347 13.1924 22.3014 13.2152 22.2588 13.2408L13.5955 18.3636H13.577L13.54 18.3907L13.4903 18.4248L13.4504 18.4575L13.4049 18.4945L13.3921 18.5087L13.331 18.5756L13.3196 18.5898V18.6054L13.2855 18.6566L13.2698 18.678L13.2485 18.7249C13.2485 18.7334 13.2485 18.742 13.2485 18.7505V18.7946C13.2471 18.8045 13.2471 18.8145 13.2485 18.823V18.87V18.8998V18.9126V20.2381L12.8475 19.9921C12.3355 19.6892 12.0781 19.2938 12.081 18.8998L12.0625 25.223C12.0625 25.617 12.3199 26.0124 12.8318 26.3153L17.3455 28.9663C17.4067 29.0047 17.4707 29.0374 17.5361 29.0673L17.6001 29.0972C17.6385 29.1171 17.6797 29.1341 17.7195 29.1484H17.7423L17.7878 29.1654L17.9442 29.2195L17.9968 29.2365H18.0324L18.1006 29.2522L18.2628 29.2934H18.3054H18.3723L18.5102 29.319H18.5628C18.5827 29.3176 18.6055 29.3176 18.6268 29.319L18.7562 29.3333H18.8174H18.8757H19.0108H19.3407H19.3848H19.5597H19.6294H19.6535C19.7517 29.3333 19.8512 29.3091 19.9508 29.292H19.9636L20.046 29.2735L20.1911 29.2422L20.2921 29.2152L20.4272 29.1754H20.457L20.6134 29.1185H20.6348L20.804 29.0474L20.8495 29.0232C20.9092 28.9933 20.969 28.9649 21.0244 28.9293L29.6877 23.8065L29.719 23.7866L29.7858 23.7425L29.8783 23.6785L29.9522 23.6202L30.0319 23.5533H30.0475C30.0802 23.522 30.1115 23.4893 30.1414 23.4552L30.1598 23.4353L30.2096 23.3756C30.2096 23.3585 30.2309 23.3414 30.2423 23.3272L30.2551 23.3101C30.2764 23.2803 30.2949 23.249 30.3134 23.2163V23.1964C30.3276 23.1693 30.3404 23.1423 30.3532 23.1153C30.3589 23.0982 30.366 23.0826 30.3746 23.0669C30.376 23.0612 30.376 23.0556 30.3746 23.0484L30.3959 22.9702C30.4016 22.9532 30.4073 22.9347 30.4115 22.9162V22.8308V22.7754V22.754L30.43 16.4308C30.3803 16.4892 30.3732 16.5162 30.3717 16.5418ZM22.3669 19.463L22.4038 19.446C22.4408 19.4289 22.4806 19.4132 22.519 19.4019L22.5603 19.3862L22.6328 19.3677L22.6911 19.3507L22.7679 19.3322H22.8233L22.9855 19.308H23.0352H23.1319H23.4121H23.4789H23.55H23.614H23.688H23.7491L23.8373 19.3308L23.8871 19.345C23.9383 19.3592 23.9895 19.3763 24.0392 19.3962L24.1103 19.4289L24.1473 19.4431L24.254 19.5L24.426 19.6038L20.1285 22.1468C20.0844 22.1709 20.0403 22.1937 19.992 22.215L19.9508 22.2321L19.8413 22.2748L19.7986 22.289L19.7275 22.3117L19.6692 22.326L19.5924 22.343H19.5369C19.4843 22.343 19.4317 22.3601 19.3748 22.3658H19.3236H19.2283H19.0221H18.9468H18.8814H18.8088H18.7463L18.6709 22.3501H18.6097L18.523 22.3288H18.4746C18.4206 22.3117 18.3694 22.2947 18.3211 22.2748L18.2471 22.2449C18.2357 22.2378 18.2244 22.2321 18.213 22.2278C18.1774 22.2108 18.1405 22.1937 18.1063 22.1738L17.9314 22.07L22.2318 19.527L22.3669 19.463Z" fill="#4B44F4"/>
<path d="M29.5938 15.3727C30.6134 15.97 30.6177 16.9442 29.6052 17.5416L20.9419 22.6644C20.373 22.9602 19.7416 23.1138 19.1017 23.1138C18.4632 23.1138 17.8318 22.9602 17.263 22.6644L12.7422 20.0134C11.7254 19.4132 11.7211 18.4418 12.7308 17.8417L21.3941 12.7188C21.9629 12.4244 22.5943 12.2708 23.2328 12.2708C23.8728 12.2708 24.5028 12.4244 25.073 12.7188L29.5938 15.3727ZM20.1128 22.178L28.7747 17.0523C29.3293 16.7252 29.3279 16.189 28.7747 15.8591L24.2596 13.2081C23.9467 13.0459 23.6012 12.9606 23.2485 12.9606C22.8972 12.9606 22.5517 13.0459 22.2374 13.2081L13.5755 18.3309C13.0195 18.6609 13.0238 19.1942 13.5755 19.5241L18.0906 22.178C18.4035 22.3387 18.7505 22.4226 19.1017 22.4226C19.453 22.4226 19.7985 22.3387 20.1128 22.178Z" fill="#4B44F4"/>
<path d="M39.2365 21.3518C39.7954 21.6817 39.7968 22.2136 39.2365 22.5436L19.1127 34.449C18.7998 34.6097 18.4528 34.6936 18.103 34.6936C17.7518 34.6936 17.4048 34.6097 17.0919 34.449L12.5754 31.7951C12.018 31.468 12.0151 30.9318 12.5754 30.6019L32.7006 18.7007C33.0135 18.5386 33.3605 18.4518 33.7117 18.4518C34.063 18.4518 34.41 18.5386 34.7228 18.7007L39.2365 21.3518Z" fill="white"/>
</g>
<mask id="mask2_4470_3588" style="mask-type:luminance" maskUnits="userSpaceOnUse" x="0" y="4" width="137" height="40">
<path d="M0 4.79999H136.519V43.2H0V4.79999Z" fill="white"/>
</mask>
<g mask="url(#mask2_4470_3588)">
<mask id="mask3_4470_3588" style="mask-type:luminance" maskUnits="userSpaceOnUse" x="0" y="4" width="137" height="40">
<path d="M136.519 4.79999H0V43.2H136.519V4.79999Z" fill="white"/>
<path d="M64.3488 5.42218H0.710938V42.8444H64.3488V5.42218Z" fill="black"/>
</mask>
<g mask="url(#mask3_4470_3588)">
<path d="M31.0716 9.54447C31.0744 9.57291 31.0744 9.60135 31.0716 9.6298C31.0673 9.65255 31.063 9.67389 31.0573 9.69664C31.0573 9.72366 31.0417 9.74927 31.0332 9.77629C31.0246 9.79762 31.0161 9.82038 31.0061 9.84171L30.9692 9.9242C30.9478 9.96118 30.9265 10.001 30.9023 10.038V10.0536C30.8753 10.0906 30.8469 10.1262 30.817 10.1631L30.7985 10.1816C30.7644 10.2186 30.7288 10.2556 30.689 10.2926L30.6094 10.3594L30.5369 10.4177C30.5084 10.439 30.4743 10.459 30.443 10.4817L30.3463 10.5457L29.924 10.7918V9.46055C29.9111 9.33255 29.8656 9.21024 29.7917 9.105C29.7177 8.99975 29.6182 8.91442 29.503 8.86038L24.9865 6.20935C24.9538 6.18802 24.9182 6.17095 24.8827 6.15389L24.8471 6.13824L24.7817 6.10838C24.7334 6.08847 24.6793 6.07282 24.6296 6.0586H24.5912L24.503 6.03442H24.4788H24.4433H24.3679H24.3366H24.3025H24.23H24.1987H23.8602C23.8289 6.03158 23.7962 6.03158 23.7635 6.03442H23.7137L23.5488 6.06144H23.5033L23.4236 6.07709L23.3682 6.09273L23.2957 6.11406H23.2786H23.2516C23.2132 6.12544 23.1762 6.14251 23.1406 6.15958L23.0994 6.17522C23.0539 6.19513 23.0098 6.21789 22.9672 6.24349L2.84193 18.1475H2.82345L2.78647 18.1731L2.7367 18.2086L2.69546 18.2399L2.65138 18.2769C2.64569 18.2812 2.64 18.2854 2.63715 18.2926C2.6144 18.3139 2.59307 18.3352 2.57458 18.3594C2.57316 18.3651 2.57316 18.3722 2.57458 18.3779C2.56179 18.3935 2.55041 18.4092 2.54045 18.4277L2.52623 18.449L2.5049 18.4945V18.5215V18.567V18.5955C2.50348 18.6111 2.50348 18.6282 2.5049 18.6438V18.6723V19.9992L2.10388 19.7532C1.59051 19.4531 1.33453 19.0549 1.33738 18.6595L1.32031 24.9827C1.32031 25.3795 1.57344 25.7749 2.08681 26.075L6.60048 28.7288C6.66305 28.763 6.72562 28.7971 6.79104 28.8298L6.8593 28.8597L6.97449 28.9123H6.99582L7.04275 28.9279L7.19917 28.9834L7.25464 28.999H7.29161L7.35702 29.0175L7.51914 29.0574L7.5618 29.0687H7.62722L7.76516 29.0943H7.82062H7.88035L8.01118 29.1086H8.07375H8.13206H8.26573H8.32972H8.63974H8.81607H8.88576H8.90851C9.00663 29.0958 9.10618 29.083 9.20572 29.0659H9.21994L9.30242 29.0502L9.44606 29.0175L9.54844 28.9862L9.68354 28.9521H9.71198L9.86983 28.8938H9.89116L10.0575 28.8213L10.1059 28.7985L10.2808 28.7046L30.4046 16.8021L30.4359 16.7807L30.5042 16.7381L30.598 16.6741L30.6705 16.6129L30.7502 16.5475H30.7644C30.7971 16.5176 30.8298 16.4849 30.8583 16.4494C30.8654 16.4437 30.8711 16.4366 30.8753 16.428C30.8924 16.4095 30.9123 16.3896 30.9265 16.3697L30.9621 16.3214C30.9649 16.3157 30.9692 16.3071 30.9749 16.3029C30.9934 16.2716 31.0133 16.2417 31.0303 16.2104C31.0317 16.2033 31.0317 16.1976 31.0303 16.1919C31.0445 16.1649 31.0573 16.1365 31.0687 16.1094C31.0773 16.0924 31.0844 16.0782 31.0901 16.0611C31.0915 16.0554 31.0915 16.0483 31.0901 16.0426C31.1 16.017 31.1071 15.9914 31.1128 15.9658C31.1185 15.9473 31.1242 15.9274 31.127 15.9103C31.1284 15.9046 31.1284 15.9004 31.127 15.8947V15.8122V15.7567V15.7354L31.1441 9.4122C31.0787 9.49042 31.0744 9.51744 31.0716 9.54447ZM9.36215 21.9576C9.32091 21.9818 9.27541 22.0046 9.2299 22.0259L9.18866 22.0444L9.07631 22.0899L9.03365 22.1041L8.96113 22.124L8.90567 22.1411L8.82603 22.1567H8.77199C8.71653 22.1567 8.66391 22.1752 8.60845 22.1809H8.55726H8.46056H8.25578H8.18325H8.11499H8.04531H7.97989H7.90452H7.8448L7.75521 22.1567L7.70686 22.1425C7.65566 22.1269 7.60304 22.1098 7.55469 22.0899L7.48217 22.0586L7.44662 22.043L7.33996 21.9889L7.16504 21.8851L22.9259 12.5624C22.97 12.5368 23.0141 12.5141 23.061 12.4927L23.1022 12.4771C23.1378 12.46 23.1748 12.4444 23.2132 12.4316L23.2544 12.4188L23.3298 12.3974L23.3852 12.3818L23.462 12.3633H23.5175L23.6796 12.3391H23.7308H23.8275H24.102H24.1674H24.2399H24.3025H24.3807H24.4376L24.5272 12.3605L24.5755 12.3761C24.6296 12.3918 24.6793 12.4088 24.7305 12.4287L24.8031 12.4586L24.84 12.4742C24.8756 12.4913 24.9097 12.5112 24.9438 12.5297L25.1173 12.6335L9.36215 21.9576Z" fill="#4B44F4"/>
<path d="M30.3091 8.37549C31.3273 8.97282 31.3316 9.94704 30.3219 10.5444L10.1952 22.4484C9.18557 23.0457 7.53738 23.0457 6.51491 22.4484L2.00124 19.7945C0.983037 19.1972 0.97877 18.223 1.98844 17.6256L22.1137 5.72162C22.6825 5.42722 23.3139 5.27362 23.9524 5.27362C24.5923 5.27362 25.2223 5.42722 25.7926 5.72162L30.3091 8.37549ZM9.35907 21.9591L29.4829 10.0551C30.0389 9.72802 30.0361 9.19184 29.4829 8.86189L24.9663 6.21086C24.6535 6.04873 24.3079 5.9634 23.9567 5.9634C23.6054 5.9634 23.2599 6.04873 22.947 6.21086L2.8232 18.1149C2.26717 18.442 2.26859 18.9782 2.8232 19.3053L7.33687 21.9591C7.64973 22.1198 7.99672 22.2038 8.34797 22.2038C8.69922 22.2038 9.04621 22.1198 9.35907 21.9591Z" fill="#4B44F4"/>
<path d="M22.9162 5.55939L20.6949 6.98161L6.47417 15.4709L1.71875 18.3594L1.80834 21.3375L9.67384 24.5375L30.7831 10.8927L30.338 8.98125L24.9171 5.69308L22.9162 5.55939Z" fill="#4B44F4"/>
<path d="M30.7121 16.4095C30.6922 15.8862 30.3552 15.3969 29.7679 15.0513L25.2528 12.3975C24.6285 12.0689 23.9359 11.8983 23.232 11.8983C22.5281 11.8983 21.8355 12.0689 21.2113 12.3975L12.548 17.5246C11.9535 17.8773 11.6222 18.3623 11.6122 18.8984V18.9198L11.5938 25.243C11.5938 25.7934 11.9294 26.2954 12.5437 26.6567L17.0574 29.3077C17.127 29.3489 17.1996 29.3873 17.2721 29.4243L17.3475 29.4542L17.3759 29.4698L17.4769 29.5153H17.5011L17.5551 29.5338C17.6106 29.5551 17.6689 29.5765 17.7385 29.5992L17.7968 29.6177H17.8253L17.9021 29.6362C17.9604 29.6547 18.0187 29.6703 18.0869 29.6846H18.1253H18.1979L18.3614 29.7144H18.4027H18.4738L18.633 29.7329H18.7439H18.9075H19.1962H19.2914H19.5076H19.5844C19.6911 29.7329 19.7991 29.7073 19.8916 29.6903H19.9229H19.9854H20.0124L20.1717 29.6547L20.2485 29.6319H20.2954L20.4277 29.5921H20.4618C20.5201 29.5722 20.5799 29.5537 20.6353 29.531H20.6595C20.7249 29.5068 20.7861 29.4812 20.8458 29.4513L20.9012 29.4243C20.9695 29.3916 21.0363 29.3546 21.1003 29.3191L29.7622 24.1948L29.7992 24.1735L29.8589 24.1336L29.8959 24.1095L29.9855 24.0483L30.0551 23.99L30.0864 23.9644C30.1106 23.9459 30.1348 23.9246 30.1561 23.9032L30.1874 23.8791C30.2286 23.8392 30.2656 23.8023 30.2997 23.7653L30.3324 23.7255L30.3865 23.6615C30.4007 23.6444 30.4121 23.6245 30.432 23.5975L30.4491 23.5761C30.4747 23.5377 30.4988 23.4965 30.5216 23.4567L30.5358 23.4282C30.5557 23.3912 30.5728 23.3528 30.5884 23.3159C30.6055 23.2789 30.6083 23.2732 30.6126 23.2575L30.6282 23.2163C30.6282 23.1893 30.6439 23.1566 30.6538 23.1167C30.6624 23.0926 30.6681 23.0698 30.6737 23.0456C30.6752 23.0343 30.6752 23.0243 30.6737 23.0115C30.6752 22.9759 30.6752 22.939 30.6737 22.902C30.6752 22.8792 30.6752 22.8551 30.6737 22.8309V22.7967L30.6922 16.4735C30.7008 16.4522 30.7079 16.4309 30.7121 16.4095Z" fill="#4B44F4"/>
<mask id="mask4_4470_3588" style="mask-type:luminance" maskUnits="userSpaceOnUse" x="-1" y="4" width="19" height="6">
<path d="M17.0415 4.7998H-0.0234375V9.5998H17.0415V4.7998Z" fill="white"/>
<path d="M3.67978 4.42212L2.06893 4.51101L-0.453125 6.38887L-0.197507 7.63332L0.491311 8.11101L1.10227 7.9999L1.74114 7.71652L3.87425 6.46656L4.42424 5.35545L3.67978 4.42212Z" fill="black"/>
</mask>
<g mask="url(#mask4_4470_3588)">
<path d="M40.7994 22.0344C40.8335 21.6135 40.5818 21.1868 40.0372 20.8668L35.5235 18.2129C34.5039 17.6156 32.8657 17.6156 31.8432 18.2129L30.3429 19.1018V16.8305L30.3841 16.8049L30.478 16.7409L30.5505 16.6826L30.6301 16.6158H30.6458C30.6785 16.5845 30.7098 16.5518 30.7396 16.5176C30.7468 16.5119 30.7524 16.5034 30.7567 16.4963C30.7738 16.4764 30.7923 16.4579 30.8079 16.438L30.8435 16.3882C30.8463 16.3811 30.8506 16.3754 30.8548 16.3711C30.8747 16.3384 30.8947 16.31 30.9103 16.2787C30.9117 16.2716 30.9117 16.2645 30.9103 16.2574C30.9259 16.2303 30.9373 16.2047 30.9501 16.1777C30.9586 16.1621 30.9658 16.1436 30.9714 16.1279C30.9714 16.1208 30.9714 16.1151 30.9714 16.1095C30.98 16.0839 30.9871 16.0597 30.9928 16.0327C30.9999 16.0156 31.0042 15.9971 31.007 15.9786C31.0084 15.9743 31.0084 15.9672 31.007 15.963V15.8805V15.825V15.8037L31.0241 9.48047V9.55301C31.061 9.13203 30.8093 8.70821 30.2661 8.38821L25.778 5.72154C25.2078 5.42714 24.5778 5.27496 23.9379 5.27496C23.2993 5.27496 22.6679 5.42714 22.0977 5.72154L1.97389 17.627C1.4719 17.9242 1.22019 18.3153 1.22019 18.7064L1.20312 25.0296C1.20312 25.425 1.45768 25.8204 1.96962 26.1205L6.48329 28.7758C6.54587 28.8099 6.60844 28.844 6.67385 28.8767L6.74211 28.9038L6.8573 28.9564H6.88005L6.92556 28.9749L7.08199 29.0289L7.13887 29.0446H7.17442L7.23984 29.0631L7.40196 29.1029L7.44462 29.1128H7.51003L7.64797 29.1399H7.70343H7.76458L7.89399 29.1527H7.95799H8.01487H8.14854H8.21396H8.52255H8.69889H8.76999H8.79132C8.88945 29.1399 8.98899 29.1299 9.08854 29.1128H9.10276L9.18524 29.0943L9.33029 29.0631L9.43126 29.0332L9.56635 28.9962H9.59622L9.75265 28.9407H9.77398L9.94178 28.8668L9.99013 28.8426L10.1636 28.7502L13.5012 26.7832L15.4338 27.9111L11.7265 30.1027C11.2245 30.3999 10.9728 30.7925 10.9728 31.1836L10.9557 37.5068C10.9557 37.9022 11.2103 38.299 11.7222 38.599L16.2359 41.2529C16.2985 41.2871 16.361 41.3212 16.4264 41.3539L16.4947 41.3823L16.6099 41.4335H16.6327L16.6782 41.452L16.836 41.5047L16.8915 41.5231L16.927 41.5345L16.9924 41.553L17.1574 41.59H17.1972H17.2626L17.4006 41.6156H17.456H17.5172L17.648 41.6298H17.7106H17.7675H17.9011H18.2751H18.4515H18.524H18.5439C18.6449 41.6298 18.7444 41.6071 18.8411 41.59H18.8554L18.9407 41.5687L19.0829 41.5388L19.1839 41.5103L19.319 41.4734H19.3488L19.5052 41.4179H19.5266L19.6944 41.3454L19.7427 41.324C19.8025 41.2942 19.8608 41.2614 19.9162 41.2287L40.04 29.3262L40.0713 29.3048L40.1396 29.2622L40.2334 29.1982L40.306 29.1399L40.3856 29.073L40.3998 29.0574C40.4339 29.0275 40.4652 28.9962 40.4951 28.9621L40.5136 28.9407L40.5619 28.8824L40.5989 28.8326C40.6017 28.827 40.606 28.8199 40.6103 28.8156C40.6302 28.7843 40.6487 28.7558 40.6657 28.7231C40.6672 28.7174 40.6672 28.7103 40.6657 28.7047C40.68 28.6776 40.6928 28.6478 40.7041 28.6193C40.7141 28.6037 40.7212 28.588 40.7269 28.5724V28.5567C40.7354 28.5311 40.7439 28.5041 40.7482 28.4771C40.7482 28.46 40.761 28.443 40.7653 28.4231V28.4074V28.3249C40.7667 28.3079 40.7667 28.2879 40.7653 28.2694V28.2481L40.7823 21.9249C40.8037 21.9847 40.8008 22.0088 40.7994 22.0344ZM31.0098 9.77345C31.0042 9.79336 30.997 9.81043 30.9885 9.82892L31.0098 9.77345ZM30.9444 9.92136L30.9131 9.97114C30.9231 9.95692 30.9345 9.94127 30.9444 9.92136ZM30.8676 10.0494L30.8164 10.1119C30.8335 10.092 30.8534 10.0693 30.8676 10.038V10.0494ZM30.7638 10.1816C30.7411 10.2072 30.7183 10.23 30.6941 10.2527C30.7155 10.2286 30.7425 10.2058 30.7638 10.1816ZM2.49153 18.4092C2.49153 18.4035 2.49153 18.3978 2.49153 18.3907V18.4092ZM2.63658 18.2371L2.62236 18.2499L2.63942 18.2371H2.63658ZM29.7172 17.4833L29.6176 17.5473L29.72 17.4805L29.7172 17.4833ZM29.8836 17.361L29.848 17.3909L29.8836 17.3567V17.361ZM29.9006 9.37523C29.9006 9.38945 29.9006 9.40367 29.9006 9.4179C29.8949 9.40225 29.8892 9.38661 29.8864 9.36954L29.9006 9.37523ZM30.0727 17.1832L30.0002 17.2558L30.0755 17.1832H30.0727ZM30.1765 17.0538L30.1239 17.1207C30.1424 17.0965 30.1623 17.0751 30.1793 17.051L30.1765 17.0538ZM30.2533 16.9258L30.222 16.9799L30.2561 16.9215L30.2533 16.9258ZM39.6418 21.8538V21.8993C39.6418 21.9135 39.6191 21.8766 39.6177 21.8623L39.6418 21.8538ZM40.3372 22.8437L40.2917 22.8807L40.3401 22.8408L40.3372 22.8437ZM40.6302 22.5379C40.616 22.5607 40.5961 22.5806 40.579 22.6019C40.5961 22.5806 40.6174 22.555 40.6316 22.5336L40.6302 22.5379ZM40.7098 22.4085C40.7098 22.4255 40.6885 22.4412 40.6785 22.4611L40.7098 22.4056V22.4085ZM40.7724 22.2591C40.7667 22.2776 40.7596 22.2975 40.7511 22.316L40.7752 22.2577L40.7724 22.2591ZM40.8136 22.1112L40.7994 22.1724L40.8136 22.1084V22.1112Z" fill="#4B44F4"/>
<path d="M18.0772 42.0777H17.915H17.7529H17.642L17.4827 42.0606L17.3675 42.0436L17.2054 42.0137H17.1329H17.0917L16.9096 41.9696L16.8357 41.9497H16.8044L16.7532 41.9355L16.5626 41.8686L16.5086 41.8487H16.4844L16.3835 41.8046L16.3564 41.7918L16.2825 41.7577C16.2071 41.7236 16.1346 41.6838 16.0649 41.6454L11.5413 38.9289C10.927 38.5705 10.5913 38.0685 10.5942 37.5152L10.6113 31.192V31.1892C10.6113 30.6502 10.9497 30.1609 11.5456 29.8096L14.7083 27.938L13.5009 27.234L10.3596 29.1014C10.2941 29.1412 10.2287 29.1753 10.159 29.2094L10.1036 29.2365C10.0453 29.2635 9.9827 29.2905 9.91728 29.3147H9.89311L9.71962 29.3787H9.68549L9.55181 29.4185L9.42382 29.0715L9.52337 29.4256L9.42951 29.4526L9.27024 29.4868H9.24322H9.18065H9.14936C9.05693 29.5053 8.95027 29.5195 8.84219 29.5323H8.76398L8.54925 29.5465H8.15818H8.01739H7.9022L7.7472 29.5294H7.67752H7.63343L7.46989 29.5024L7.39737 29.4868H7.35755L7.17268 29.4427L7.10157 29.4242H7.07313L7.01767 29.4057L6.82427 29.3403L6.77307 29.3204C6.71477 29.2976 6.68206 29.2806 6.64793 29.2663L6.54839 29.2222C6.47159 29.1853 6.39907 29.1454 6.32939 29.1056L1.8143 26.4517C1.20138 26.0933 0.865769 25.5885 0.867192 25.0381L0.884257 18.7149V18.7006C0.884257 18.1616 1.22271 17.6752 1.81998 17.3197L21.9438 5.41708C22.5681 5.08713 23.262 4.91504 23.9646 4.91504C24.6685 4.91504 25.361 5.08713 25.9867 5.41708L30.5004 8.06953C31.0906 8.41513 31.4276 8.90437 31.4475 9.43059V9.48179L31.4305 15.805C31.4319 15.8164 31.4319 15.8277 31.4305 15.8391V15.9131C31.4305 15.9387 31.4305 15.9842 31.4191 16.0169C31.4177 16.0297 31.4177 16.0411 31.4191 16.0539C31.4191 16.0781 31.4191 16.1008 31.3992 16.125C31.3793 16.1492 31.3793 16.1933 31.3707 16.2231C31.3608 16.253 31.3707 16.253 31.3579 16.2658L31.3323 16.3241C31.3153 16.3611 31.2982 16.3981 31.2783 16.435V16.4649C31.2541 16.5033 31.2299 16.5431 31.2029 16.5829L31.1887 16.6029C31.1759 16.6242 31.1603 16.6455 31.1432 16.6654C31.1261 16.6882 31.1091 16.7095 31.0906 16.7294L31.0607 16.7664C31.0223 16.8091 30.9839 16.8475 30.9427 16.8873L30.9128 16.9115L30.8417 16.9741L30.8118 16.9982L30.7564 17.0423V18.4745L31.7234 17.9085C32.3477 17.5785 33.0402 17.4078 33.7442 17.4078C34.4481 17.4078 35.1406 17.5785 35.7664 17.9085L40.2815 20.5623C40.8688 20.9065 41.2072 21.3958 41.2271 21.922C41.2286 21.939 41.2286 21.9561 41.2271 21.9732L41.2101 28.2964V28.3319V28.4059V28.5083V28.5453C41.2101 28.5581 41.1973 28.5922 41.1902 28.6164C41.183 28.642 41.1717 28.6861 41.1617 28.7145C41.1631 28.7287 41.1631 28.743 41.1617 28.7572L41.1347 28.8155C41.1176 28.8525 41.1034 28.8894 41.0849 28.9264C41.065 28.9634 41.0849 28.9435 41.0693 28.9563C41.0551 28.9691 41.0209 29.0345 40.9953 29.0743C40.9683 29.1142 40.9953 29.0914 40.9797 29.0942C40.9655 29.0971 40.9484 29.1383 40.9342 29.1582C40.9185 29.181 40.9001 29.2023 40.8816 29.2222L40.8517 29.2564C40.8133 29.3005 40.7749 29.3403 40.7337 29.3787L40.7052 29.4043L40.6327 29.4654L40.6028 29.4868L40.5303 29.5465L40.4464 29.6034L40.4251 29.6176L40.3454 29.6717L40.3085 29.6944L20.1875 41.5956C20.1221 41.6354 20.0538 41.6695 19.987 41.7037L19.9301 41.7307C19.8704 41.7577 19.8107 41.7847 19.7453 41.8089H19.7211C19.6656 41.8317 19.6073 41.8544 19.5462 41.8729H19.5135L19.3684 41.9156H19.3385L19.2546 41.9398L19.1096 41.9696H19.0712H19.0072H18.9788C18.8849 41.9867 18.7782 42.0009 18.6702 42.0137H18.5891L18.3801 42.0279H18.1554L18.0772 42.0777ZM11.345 31.2119L11.328 37.5181C11.328 37.7911 11.5413 38.0713 11.9139 38.2903L16.4275 40.9442C16.4802 40.9726 16.5356 41.0025 16.5939 41.0295L16.6807 41.0694L16.7532 41.1006L16.7916 41.1163L16.9537 41.1732L17.0021 41.1874H17.0262L17.0959 41.2045L17.2438 41.2414H17.2751H17.3405L17.4657 41.2642L17.5723 41.2784L17.6932 41.2926H17.8041C17.8439 41.2955 17.8852 41.2955 17.925 41.2926H18.2663H18.4327H18.4739H18.5194C18.6062 41.2926 18.6986 41.2713 18.7882 41.2557H18.8152L18.8778 41.2414L19.0058 41.2144L19.0996 41.1902L19.2205 41.1533H19.2475L19.3869 41.1035L19.5518 41.0324L19.5945 41.0096L19.7453 40.9314L39.869 29.0274L40.0809 29.3275L39.8961 29.0103L39.9757 28.9563C39.9942 28.9463 40.0113 28.9349 40.0283 28.9221L40.0667 28.8894L40.0881 28.8724L40.152 28.8212L40.1805 28.797L40.2359 28.7344L40.3056 28.6491C40.3127 28.6406 40.3184 28.6334 40.3227 28.6235C40.3355 28.6078 40.3469 28.5908 40.3568 28.5723V28.5509L40.3838 28.4969C40.3824 28.4855 40.3824 28.4756 40.3838 28.4642C40.3895 28.45 40.3924 28.4358 40.3952 28.4201V28.3732C40.3981 28.3589 40.3981 28.3433 40.3952 28.3291V28.275L40.4094 23.2006L40.3838 23.2162C40.3639 23.2347 40.344 23.2517 40.3227 23.2674L40.2985 23.2816C40.2701 23.3044 40.2388 23.3243 40.2075 23.3442L39.7866 23.5902C39.7027 23.6386 39.6045 23.6514 39.5121 23.6258C39.4183 23.6002 39.34 23.539 39.2917 23.4537C39.259 23.3982 39.2419 23.3342 39.2433 23.2702C39.2419 23.2048 39.259 23.1422 39.2903 23.0854C39.3216 23.0299 39.3671 22.983 39.4211 22.9502L39.842 22.7042L39.8975 22.6672L39.9245 22.6502H39.9359L39.9828 22.626L40.0184 22.5904L40.0383 22.5762L40.0625 22.5563L40.1122 22.525C40.125 22.5051 40.1407 22.488 40.1563 22.4724C40.1833 22.4453 40.1976 22.434 40.2089 22.4183H40.2246C40.2303 22.4069 40.2388 22.3956 40.2487 22.3842L40.2729 22.3572V22.343L40.2843 22.3273C40.2871 22.3188 40.2914 22.3102 40.2985 22.3031V22.2861C40.2985 22.2789 40.2985 22.2733 40.2985 22.2661L40.3127 22.2292L40.3298 22.1922C40.3298 22.1865 40.3298 22.1794 40.3298 22.1723V22.1381V22.0997V22.067C40.354 21.7797 40.1449 21.4839 39.751 21.2507L35.2345 18.5997C34.7809 18.3522 34.2774 18.2185 33.7655 18.2057C33.8181 18.2384 33.8622 18.2839 33.8935 18.3394C33.9234 18.3934 33.9404 18.4546 33.9418 18.5186C33.9418 18.6153 33.9049 18.7078 33.838 18.7774C33.7712 18.8457 33.6816 18.8855 33.5863 18.8869H33.5565C33.5223 18.8869 33.4882 18.8827 33.4555 18.8727C33.4242 18.8855 33.3901 18.8941 33.3559 18.8997H33.3204C33.2479 18.9083 33.1753 18.8955 33.1099 18.8628C33.0687 18.9211 33.0104 18.9652 32.9435 18.9879L32.9023 19.005C32.8582 19.0263 32.8099 19.0363 32.7601 19.0377C32.7117 19.0391 32.6634 19.0306 32.6179 19.0121C32.5724 18.9936 32.5311 18.9652 32.497 18.931C32.4615 18.8955 32.4344 18.8528 32.416 18.8073C32.3975 18.7604 32.3889 18.712 32.3904 18.6622C32.3904 18.6125 32.4017 18.5627 32.4216 18.5172C32.4415 18.4717 32.4714 18.4318 32.507 18.3977C32.5425 18.3636 32.5852 18.338 32.6321 18.3209L32.6975 18.2939C32.743 18.2768 32.7928 18.2697 32.8426 18.274C32.8923 18.2768 32.9407 18.2896 32.9848 18.311C33.0104 18.2768 33.0431 18.2455 33.0786 18.2199C32.6719 18.264 32.278 18.3892 31.9182 18.5897L30.4179 19.4772C30.3625 19.5099 30.2999 19.527 30.2359 19.527C30.1719 19.527 30.1093 19.5099 30.0539 19.4772C29.9998 19.4445 29.9543 19.3975 29.9216 19.3406C29.8903 19.2838 29.8747 19.2198 29.8747 19.1558V17.7705H29.8548H29.8434C29.8263 17.7876 29.8079 17.8032 29.788 17.8174L29.7638 17.8345L29.6713 17.8928L29.2504 18.1389C29.1679 18.1872 29.0684 18.2 28.9759 18.1758C28.8835 18.1502 28.8039 18.0891 28.7555 18.0037C28.7242 17.9483 28.7072 17.8843 28.7072 17.8203C28.7072 17.7549 28.7242 17.6909 28.7555 17.6354C28.7882 17.5785 28.8337 17.533 28.8892 17.5003L29.3087 17.2542L29.3628 17.2201L29.394 17.1973L29.4509 17.1675L29.495 17.1262H29.5092L29.5291 17.1106C29.5462 17.0978 29.5633 17.085 29.5818 17.075L29.6031 17.0523L29.66 16.9954L29.6785 16.9655L29.7126 16.9214V16.9101L29.7339 16.8702L29.7581 16.8304C29.7638 16.8205 29.7695 16.8105 29.7752 16.802C29.8121 16.7437 29.8662 16.6981 29.9273 16.6711C29.9458 16.6498 29.9671 16.6299 29.9899 16.6142L30.0581 16.5673L30.1165 16.5303L30.152 16.499L30.1748 16.482L30.2373 16.4279L30.2629 16.408L30.3212 16.344L30.3909 16.2573L30.408 16.2359L30.4421 16.1819C30.4421 16.1748 30.4421 16.1691 30.4421 16.162C30.4421 16.1421 30.4592 16.1221 30.4663 16.1051L30.4805 16.0738C30.4819 16.061 30.4819 16.0468 30.4805 16.034L30.4933 15.9899C30.4947 15.9742 30.4947 15.9586 30.4933 15.943V15.8889L30.5075 10.8144H30.4834C30.4706 10.8301 30.4563 10.8429 30.4407 10.8542L30.4137 10.8741L30.3938 10.8884L30.3027 10.9481C30.2188 10.9965 30.1193 11.0107 30.0269 10.9851C29.933 10.9609 29.8548 10.8983 29.805 10.8144C29.7567 10.7291 29.7439 10.6281 29.768 10.5328C29.7936 10.439 29.8534 10.3579 29.9373 10.3081C29.9558 10.2982 29.9742 10.2868 29.9899 10.274L30.0212 10.2541C30.0397 10.2413 30.0596 10.2299 30.0795 10.2228C30.0909 10.2085 30.1037 10.1957 30.1179 10.1858L30.1378 10.1687H30.152L30.1691 10.1559H30.1819L30.2075 10.1417C30.2174 10.1275 30.2288 10.1133 30.2416 10.1019L30.2942 10.0507H30.307L30.3212 10.0308L30.3596 9.98384V9.97104C30.3639 9.95966 30.3696 9.94971 30.3767 9.93975L30.3909 9.91415C30.3952 9.90562 30.4009 9.89851 30.4066 9.88997C30.4066 9.87859 30.4066 9.86722 30.4066 9.85584L30.4236 9.81602V9.79895V9.76197V9.72357V9.68802C30.4478 9.40357 30.2345 9.10633 29.8406 8.87451L25.3269 6.22064C24.9643 6.02011 24.5675 5.89495 24.1565 5.85228C24.2262 5.89637 24.2788 5.96464 24.3044 6.04428C24.3314 6.12393 24.33 6.20926 24.3016 6.28748C24.2731 6.36713 24.2205 6.43397 24.1494 6.47664C24.0797 6.52073 23.9973 6.53922 23.9162 6.52784H23.8863C23.8494 6.52357 23.8124 6.51362 23.7783 6.49797C23.7399 6.51077 23.7 6.51646 23.6588 6.51646H23.865C23.8508 6.49086 23.8295 6.47095 23.8039 6.45673C23.7783 6.44393 23.7484 6.43966 23.72 6.4425C23.6915 6.44535 23.6645 6.45815 23.6432 6.47664C23.6204 6.49513 23.6048 6.5193 23.5962 6.54775C23.5735 6.56055 23.5479 6.56908 23.5223 6.57477H23.4981C23.4682 6.57904 23.4398 6.57904 23.4099 6.57477C23.3843 6.59326 23.3559 6.60748 23.326 6.61886L23.2805 6.63593C23.1909 6.6729 23.0914 6.67148 23.0018 6.63166C22.9136 6.59326 22.844 6.52073 22.8084 6.42971C22.7729 6.33868 22.7743 6.2377 22.8127 6.14668C22.8511 6.05708 22.9222 5.98597 23.0118 5.95042L23.0772 5.92482C23.1198 5.91202 23.1639 5.9049 23.208 5.90348L23.2322 5.88926C22.9037 5.94473 22.5894 6.05708 22.2993 6.22064L2.1755 18.1246C1.80718 18.338 1.59956 18.6167 1.59956 18.8841V18.8997L1.5825 25.2059C1.5825 25.479 1.79581 25.7591 2.16839 25.9781L6.68206 28.632L6.8456 28.7174L6.93519 28.7572L7.00772 28.7885H7.03189H7.06318C7.11437 28.8084 7.15988 28.824 7.20823 28.8382L7.25658 28.8553H7.28076L7.34901 28.8695L7.49833 28.9094H7.53246H7.59219L7.72018 28.9321L7.82683 28.9463L7.94771 28.9606H8.05863H8.17951H8.25203H8.52792H8.68719H8.73127H8.77251C8.86068 28.9606 8.95312 28.9392 9.04271 28.9236H9.06973H9.1323L9.26171 28.8951L9.33281 28.8752H9.36694L9.47502 28.8454H9.50346L9.6414 28.797L9.80636 28.7245L9.84902 28.7031C9.89738 28.679 9.95141 28.6534 9.99976 28.6235L13.336 26.6565C13.3914 26.6238 13.454 26.6068 13.518 26.6068C13.582 26.6068 13.6445 26.6238 13.6986 26.6565L15.6326 27.7858C15.6866 27.8185 15.7322 27.8654 15.7649 27.9209C15.7961 27.9764 15.8132 28.0404 15.8132 28.1058C15.8132 28.1698 15.7961 28.2324 15.7649 28.2893C15.7322 28.3447 15.6866 28.3902 15.6326 28.4229L11.9281 30.6146C11.5626 30.8308 11.3522 31.1053 11.3522 31.3769L11.345 31.2119ZM33.683 18.1957V18.1246H33.6688L33.683 18.1957ZM23.5678 5.68162C23.6019 5.69584 23.6332 5.71575 23.6616 5.73851C23.6887 5.70295 23.7214 5.67166 23.7584 5.64748C23.6787 5.64748 23.5991 5.64748 23.5166 5.66739L23.5678 5.68162ZM17.541 34.9965C17.5126 35.0007 17.4827 35.0007 17.4543 34.9965C17.3718 34.978 17.2907 34.9552 17.2125 34.9254L17.1784 34.9125C17.086 34.877 16.9964 34.8343 16.9096 34.7845C16.8556 34.7518 16.8101 34.7063 16.7788 34.6494C16.7475 34.594 16.7319 34.53 16.7319 34.466C16.7305 34.4006 16.7475 34.3365 16.7802 34.2811C16.8272 34.2 16.9054 34.1403 16.995 34.1147C17.0845 34.0891 17.1812 34.1005 17.2637 34.146C17.3163 34.1758 17.3704 34.2014 17.4273 34.2213H17.4543L17.5069 34.2413C17.5425 34.2541 17.578 34.264 17.6136 34.2711C17.7103 34.2825 17.797 34.3337 17.8567 34.4105C17.9165 34.4887 17.9435 34.5869 17.9321 34.685C17.9207 34.7817 17.871 34.8713 17.7956 34.9325C17.7188 34.9936 17.6221 35.0206 17.5268 35.0093L17.541 34.9965ZM12.2509 31.2631C12.1827 31.2631 12.1144 31.2432 12.0561 31.2048C12.0163 31.1778 11.9807 31.1451 11.9537 31.1053C11.9267 31.0654 11.9068 31.0214 11.8968 30.9744C11.8869 30.9275 11.8869 30.8777 11.8954 30.8308C11.9039 30.7838 11.921 30.7383 11.9466 30.6971L11.9693 30.6686C11.9949 30.6317 12.0248 30.6004 12.0604 30.5748C12.0831 30.535 12.1115 30.4994 12.1457 30.4681L12.1627 30.4539C12.2367 30.3927 12.3305 30.3643 12.4258 30.3728C12.5211 30.3828 12.6079 30.4297 12.669 30.5037C12.7003 30.5392 12.7245 30.5805 12.7387 30.626C12.7529 30.6715 12.7586 30.7198 12.7557 30.7668C12.7529 30.8137 12.7401 30.8606 12.7188 30.9033C12.6974 30.946 12.669 30.9844 12.6334 31.0142L12.6036 31.037C12.5965 31.0512 12.5894 31.064 12.5808 31.0768C12.5467 31.1351 12.4984 31.1821 12.4415 31.2162C12.3832 31.2489 12.3177 31.2645 12.2509 31.2631ZM7.79981 22.5051C7.77137 22.5079 7.74293 22.5079 7.71307 22.5051L7.60499 22.471H7.57513L7.51966 22.4453C7.49122 22.4425 7.46278 22.434 7.43576 22.424C7.34333 22.3885 7.25374 22.3458 7.16699 22.296C7.11153 22.2633 7.06602 22.2164 7.03474 22.1609C7.00345 22.104 6.98639 22.0414 6.98639 21.976C6.98639 21.9106 7.00345 21.8466 7.03758 21.7911C7.08451 21.7101 7.1613 21.6503 7.25089 21.6247C7.34191 21.5991 7.43861 21.6105 7.51966 21.656C7.5737 21.6859 7.62916 21.7129 7.68747 21.7357L7.72302 21.7527H7.78417L7.81688 21.7641L7.87803 21.784C7.95624 21.8039 8.02592 21.8494 8.0757 21.9134C8.12689 21.9789 8.15391 22.0585 8.15391 22.141C8.15675 22.1709 8.15675 22.2007 8.15391 22.2292C8.13258 22.3088 8.08707 22.3785 8.02308 22.4283C7.95909 22.4781 7.88087 22.5051 7.79981 22.5051ZM39.6472 22.2733C39.5633 22.2733 39.4822 22.2448 39.4183 22.1908C39.3543 22.1381 39.3088 22.0642 39.2917 21.9817V21.9291C39.2888 21.9077 39.2888 21.885 39.2917 21.8637C39.2817 21.7655 39.3102 21.6674 39.3713 21.592C39.4325 21.5152 39.5206 21.4669 39.6173 21.4569C39.714 21.447 39.8093 21.4768 39.8847 21.5394C39.9586 21.602 40.007 21.6916 40.0155 21.7897C40.0155 21.7968 40.0155 21.8039 40.0155 21.811C40.0354 21.9077 40.0155 22.0073 39.9629 22.0884C39.9103 22.1694 39.8278 22.2263 39.734 22.2462L39.6472 22.2733ZM2.4329 18.914H2.37317C2.28785 18.8997 2.21105 18.8557 2.15559 18.7888C2.10013 18.722 2.06885 18.6381 2.06885 18.5499C2.06742 18.53 2.06742 18.5086 2.06885 18.4887C2.07311 18.4617 2.08022 18.4347 2.09018 18.4105C2.1044 18.3792 2.12146 18.3493 2.14137 18.3209C2.14991 18.2811 2.16697 18.2441 2.18972 18.2114C2.21532 18.1701 2.24803 18.136 2.28785 18.1104C2.30065 18.0862 2.31487 18.0635 2.32909 18.0407L2.37317 17.9966L2.3945 17.9767C2.46845 17.9156 2.56373 17.8871 2.65901 17.8971C2.75287 17.9056 2.84103 17.9525 2.90218 18.0265C2.96333 18.0934 2.99746 18.1815 2.99746 18.2725C2.99746 18.3636 2.96333 18.4517 2.90218 18.5186C2.89792 18.5186 2.89081 18.5186 2.89081 18.5186H2.87801L2.84388 18.5456C2.83961 18.557 2.8325 18.5684 2.82539 18.5798L2.79553 18.6196C2.77988 18.7021 2.7358 18.776 2.67038 18.8301C2.60639 18.8841 2.52675 18.914 2.44285 18.914H2.4329ZM29.906 9.79184C29.8235 9.79184 29.7424 9.76339 29.6785 9.70935C29.6145 9.65673 29.5704 9.58135 29.5533 9.49886L29.5405 9.44766C29.5391 9.42491 29.5391 9.40215 29.5405 9.37797C29.5405 9.30117 29.5661 9.22437 29.6102 9.16179C29.6557 9.09779 29.7197 9.05228 29.7936 9.0281C29.8662 9.00393 29.9444 9.00393 30.0169 9.02953C30.0909 9.05371 30.1534 9.10064 30.1989 9.16464C30.2288 9.20731 30.2487 9.25566 30.2587 9.30686V9.32251C30.2587 9.32962 30.2587 9.33673 30.2587 9.34384C30.2771 9.44055 30.2587 9.54011 30.2046 9.62117C30.152 9.70224 30.0695 9.75913 29.9757 9.77904C29.9529 9.78615 29.9302 9.79042 29.906 9.79184Z" fill="#4B44F4"/>
</g>
</g>
</g>
<path d="M128.462 11.2212C127.282 11.2113 126.115 11.463 125.04 11.9565C123.963 12.4529 123.006 13.1782 122.229 14.0842C122.194 14.1197 122.147 14.1453 122.097 14.1553C122.046 14.1695 121.992 14.1695 121.941 14.1553C121.891 14.1382 121.847 14.1055 121.816 14.0628C121.783 14.0202 121.763 13.9718 121.756 13.9192V12.0945C121.756 12.0561 121.749 12.0205 121.735 11.985C121.718 11.9508 121.696 11.9195 121.669 11.8925C121.642 11.8683 121.612 11.8484 121.578 11.8371C121.544 11.8228 121.507 11.8171 121.47 11.8186H117.441C117.404 11.8186 117.369 11.8257 117.336 11.8399C117.303 11.8541 117.275 11.8755 117.249 11.8996C117.224 11.9267 117.204 11.9551 117.19 11.9878C117.175 12.0205 117.17 12.0575 117.173 12.0945V33.5843C117.174 33.6568 117.202 33.7236 117.252 33.7748C117.302 33.826 117.37 33.8559 117.441 33.8602H121.47C121.507 33.8602 121.544 33.8531 121.578 33.8388C121.612 33.826 121.644 33.8047 121.669 33.7777C121.725 33.7251 121.757 33.6525 121.759 33.5757V21.2379C121.759 17.5914 123.987 15.0442 127.158 15.0442C130.212 15.0442 131.892 17.0168 131.892 20.5951V33.5729C131.897 33.6454 131.927 33.7137 131.976 33.7649C132.025 33.8147 132.092 33.8431 132.16 33.8459H136.197C136.267 33.8417 136.334 33.8147 136.385 33.7649C136.433 33.7137 136.462 33.6454 136.466 33.5729V20.2509C136.469 14.4468 133.625 11.2212 128.462 11.2212Z" fill="#252F3E"/>
<path d="M105.145 11.2226C103.83 11.1942 102.527 11.4815 101.342 12.0632C100.158 12.6448 99.1253 13.5039 98.3303 14.572C98.2934 14.6089 98.2464 14.6345 98.1952 14.6459C98.1426 14.6601 98.0886 14.6601 98.0374 14.6459C97.9876 14.6274 97.9435 14.5961 97.9094 14.5535C97.8753 14.5122 97.8525 14.4624 97.8454 14.4084V12.0959C97.844 12.0233 97.8155 11.9551 97.7658 11.9039C97.7146 11.8541 97.6477 11.8256 97.5781 11.8214H93.5451C93.4739 11.8242 93.4057 11.8555 93.3559 11.9067C93.3061 11.9565 93.2763 12.0248 93.2734 12.0959V41.826C93.2749 41.8857 93.2962 41.944 93.336 41.9881C93.3758 42.0322 93.4313 42.0593 93.4896 42.0635H97.5923C97.6236 42.0706 97.6577 42.0706 97.689 42.0635C97.7203 42.0521 97.7487 42.0351 97.7729 42.0137C97.7971 41.991 97.8155 41.9625 97.8283 41.9327C97.8426 41.9028 97.8483 41.8687 97.8454 41.836V31.3314C97.8468 31.2745 97.8639 31.2191 97.8952 31.1721C97.9279 31.1224 97.9748 31.0868 98.0303 31.0683C98.0857 31.0513 98.144 31.0513 98.1981 31.0683C98.2521 31.0868 98.2991 31.1238 98.3303 31.1721C99.6273 32.9457 101.873 34.4603 105.145 34.4603C111.071 34.4603 115.08 29.8096 115.08 22.8877C115.08 15.9657 111.085 11.2226 105.145 11.2226ZM104.225 30.6146C100.355 30.6146 97.7558 27.7232 97.7558 23.4409V22.2207C97.7558 17.964 100.36 15.0825 104.225 15.0825C108.09 15.0825 110.36 17.9213 110.36 22.8493C110.36 27.7759 108.126 30.636 104.225 30.636V30.6146Z" fill="#252F3E"/>
<path d="M90.0991 11.8996H85.9523C85.9111 11.8996 85.8713 11.9153 85.8414 11.9423C85.8116 11.9707 85.7945 12.0077 85.7902 12.0475L85.7504 14.8664C85.7461 14.8991 85.7333 14.929 85.7106 14.9531C85.6893 14.9802 85.6594 15.0001 85.6267 15.0072C85.594 15.0157 85.5613 15.0157 85.5286 15.0072C85.4973 14.993 85.4688 14.9716 85.4504 14.9403C83.997 12.6918 81.6164 11.2468 78.4196 11.2468C72.6787 11.2468 68.5703 15.9686 68.5703 22.7626C68.5703 29.6802 72.7526 34.4717 78.5803 34.4717C81.4629 34.4717 83.7823 33.2813 85.2043 31.3087C85.2257 31.2802 85.2527 31.2603 85.2868 31.2504C85.3181 31.2376 85.3537 31.2376 85.3849 31.2504C85.4176 31.2589 85.4475 31.2774 85.4674 31.3058C85.4888 31.3343 85.5015 31.3684 85.5015 31.404V33.6781C85.5015 33.7222 85.5172 33.7663 85.5485 33.7976C85.5783 33.8289 85.6196 33.8445 85.6637 33.8459H90.0991C90.1418 33.8445 90.183 33.8289 90.2129 33.7976C90.2442 33.7663 90.2598 33.7222 90.2612 33.6781V12.0561C90.2612 12.0347 90.257 12.0134 90.2484 11.9921C90.2399 11.9722 90.2285 11.9551 90.2129 11.9394C90.1987 11.9238 90.1802 11.911 90.1603 11.9025C90.1404 11.8939 90.1205 11.8882 90.0991 11.8882V11.8996ZM79.4762 30.3487C75.9381 30.3487 73.4964 27.2426 73.4964 22.8081C73.4964 18.3736 75.9779 15.3599 79.5615 15.3599C83.047 15.3599 85.4859 18.385 85.4859 22.7355C85.5001 27.1871 83.0101 30.333 79.4762 30.333V30.3487Z" fill="#252F3E"/>
<path d="M58.2487 11.2212C57.0684 11.2112 55.9008 11.4615 54.8258 11.9551C53.7507 12.4514 52.7936 13.1782 52.02 14.0841C51.9802 14.1197 51.9318 14.1439 51.8806 14.1552C51.828 14.1652 51.7754 14.1652 51.7242 14.1552C51.6744 14.1367 51.6304 14.104 51.5976 14.0628C51.5664 14.0215 51.5464 13.9703 51.5422 13.9177V5.26492C51.5422 5.17532 51.5081 5.08857 51.4483 5.02314C51.3886 4.9563 51.3061 4.91363 51.2179 4.90652H47.3172C47.2688 4.90226 47.2205 4.90795 47.175 4.92359C47.1295 4.93923 47.0882 4.96483 47.0527 4.99897C47.0171 5.03168 46.9887 5.07292 46.9688 5.11843C46.9475 5.16394 46.9375 5.2123 46.9375 5.26066V33.5728C46.9418 33.6468 46.9731 33.7151 47.0242 33.7677C47.0811 33.8175 47.1522 33.8445 47.2276 33.8459H51.2606C51.3331 33.8445 51.4042 33.8175 51.4583 33.7677C51.5109 33.7151 51.5436 33.6468 51.5493 33.5728V21.2294C51.5493 17.5828 53.7692 15.0356 56.9489 15.0356C60.0021 15.0356 61.6816 17.0082 61.6816 20.5879V33.5728C61.6859 33.6468 61.7186 33.7165 61.7726 33.7677C61.7982 33.7919 61.8295 33.8118 61.8622 33.8246C61.8963 33.8374 61.9319 33.8431 61.9674 33.8416H66.0047C66.0744 33.8402 66.1398 33.8118 66.1896 33.7606C66.2393 33.7108 66.2692 33.6439 66.272 33.5728V20.2608C66.255 14.4468 63.4108 11.2212 58.2487 11.2212Z" fill="#252F3E"/>
</g>
</svg>
