<svg width="97" height="48" viewBox="0 0 97 48" fill="none" xmlns="http://www.w3.org/2000/svg">
<path fill-rule="evenodd" clip-rule="evenodd" d="M0.078125 3.59998H21.4055V8.66686H13.7368V29.9214H7.81258V8.66686H0.078125V3.59998ZM53.5611 3.59998H58.6625H64.2906V21.696C64.2906 27.388 61.2626 30.086 56.6878 30.086C55.8979 30.086 54.2852 29.9543 53.6598 29.7898V24.723C54.1864 24.8546 54.7459 24.9204 55.3054 24.9204C57.4777 24.9204 58.6625 23.9004 58.6625 21.4986V8.66686H53.5611V3.59998ZM17.0918 14.7209C18.4412 12.1874 21.2717 10.674 24.4971 10.674C29.6315 10.674 33.0873 13.339 33.1202 18.6691V29.8886H27.7884V27.4868C26.7022 29.1319 24.5629 30.1847 22.4565 30.1847C18.8032 30.1847 16.2031 27.7171 16.2031 24.5585C16.2031 20.8077 18.9349 18.7678 24.3654 18.2085L27.7884 17.8795V17.7807C27.7884 15.9053 26.5377 14.7867 24.4971 14.7867C22.7198 14.7867 21.4033 15.8724 21.2058 17.7149H16.3677C16.3348 17.4188 16.3677 17.1227 16.4006 16.8266V16.7608C16.4993 16.0369 16.7297 15.346 17.0918 14.7209ZM27.7884 22.058V21.8935L27.7554 21.7619L24.2338 22.1896C22.3578 22.3541 21.4362 23.3083 21.4362 24.394C21.4362 25.4469 22.259 26.2694 23.8059 26.2694C26.2744 26.2694 27.7554 24.2624 27.7884 22.058ZM66.2961 14.7209C67.6455 12.1874 70.476 10.674 73.7014 10.674C78.8358 10.674 82.3245 13.339 82.3245 18.6691V29.8886H76.9927V27.4868C75.9065 29.1319 73.7672 30.1847 71.6608 30.1847C68.0075 30.1847 65.4074 27.7171 65.4074 24.5585C65.4074 20.8077 68.1392 18.7678 73.5698 18.2085L76.9927 17.8795V17.7807C76.9927 15.9053 75.742 14.7867 73.7014 14.7867C71.9241 14.7867 70.6076 15.8724 70.4101 17.7149H65.572C65.5391 17.4188 65.572 17.1227 65.6049 16.8266V16.7608C65.7037 16.0369 65.934 15.346 66.2961 14.7209ZM76.9927 22.058V21.8935L76.9598 21.7619L73.4381 22.1896C71.5621 22.3541 70.6405 23.3083 70.6405 24.394C70.6405 25.4469 71.4633 26.2694 73.0102 26.2694C75.4787 26.2694 76.9597 24.2624 76.9927 22.058ZM89.4336 14.2603C90.2894 12.2203 92.7249 10.674 94.9629 10.674C95.4237 10.674 95.8845 10.7069 96.4111 10.8385L96.2794 16.1357C95.6212 15.9382 94.9629 15.8395 94.2718 15.8395C91.8033 15.8395 89.4336 17.7149 89.4336 23.0779V29.9215H83.9372V11.003H89.4336V14.2603ZM43.3231 16.1357L46.8447 10.9701H52.7361L46.2852 20.4787L52.7361 29.9215H46.746L43.3231 24.8875L39.9002 29.9215H33.9101L40.361 20.4787L33.9101 10.9701H39.8014L43.3231 16.1357ZM39.4348 41.8648C39.4348 40.1868 38.612 38.8707 37.0651 38.8707C35.4853 38.8707 34.5637 40.1868 34.5637 41.8319C34.5637 43.806 35.6828 44.7931 37.2955 44.7931C38.0854 44.7931 38.6778 44.6285 39.1057 44.3653V43.0493C38.6449 43.2796 38.1512 43.4112 37.493 43.4112C36.8676 43.4112 36.2752 43.1809 36.2094 42.4241H39.4348V41.8648ZM36.2094 41.2397C36.2094 40.5158 36.6702 40.1868 37.0651 40.1868C37.4601 40.1868 37.8879 40.4829 37.8879 41.2397H36.2094ZM32.0295 38.8707C31.3712 38.8707 30.9763 39.1668 30.7459 39.3643L30.6471 38.9694H29.199V46.5698L30.8446 46.2078V44.3653C31.075 44.5298 31.437 44.7602 31.9966 44.7602C33.1814 44.7602 34.2346 43.806 34.2346 41.7661C34.2675 39.9236 33.1814 38.8707 32.0295 38.8707ZM31.6345 43.3783C31.2396 43.3783 31.0092 43.2467 30.8446 43.0822V40.6474C31.0092 40.45 31.2396 40.3184 31.6345 40.3184C32.227 40.3184 32.6548 40.9764 32.6548 41.8319C32.6548 42.7202 32.227 43.3783 31.6345 43.3783ZM26.9609 38.5088L28.6066 38.1469V36.8308L26.9609 37.1927V38.5088ZM26.9609 39.0023H28.6066V44.6943H26.9609V39.0023ZM25.1864 39.4631L25.0877 38.9695H23.6725V44.6944H25.3181V40.812C25.713 40.3185 26.3713 40.4172 26.5688 40.483V38.9695C26.3384 38.9037 25.5814 38.7721 25.1864 39.4631ZM21.8952 37.5876L20.2825 37.9167V43.1481C20.2778 43.3725 20.3191 43.5955 20.4039 43.8034C20.4887 44.0113 20.6151 44.1996 20.7754 44.3568C20.9358 44.514 21.1266 44.6367 21.3361 44.7174C21.5457 44.7981 21.7695 44.8351 21.9939 44.826C22.5205 44.826 22.9155 44.7273 23.1459 44.5957V43.2797C22.9484 43.3784 21.8952 43.6745 21.8952 42.6874V40.3843H23.1459V39.0024H21.8952V37.5876ZM17.452 40.6475C17.452 40.3843 17.6495 40.2856 18.0115 40.2856C18.5052 40.2856 19.1305 40.4501 19.6571 40.7133V39.1669C19.0976 38.9366 18.571 38.8708 18.0115 38.8708C16.6621 38.8708 15.7734 39.5618 15.7734 40.7133C15.7734 41.8031 16.6805 42.1292 17.4022 42.3886C17.879 42.56 18.2748 42.7023 18.2748 43.0164C18.2748 43.3126 18.0115 43.4113 17.6495 43.4113C17.0899 43.4113 16.3988 43.181 15.8393 42.8848V44.4312C16.4646 44.6944 17.057 44.7931 17.6495 44.7931C19.0318 44.7931 19.9533 44.1351 19.9533 42.9506C19.9533 41.7697 18.9954 41.4456 18.2651 41.1985C17.8154 41.0463 17.452 40.9234 17.452 40.6475ZM12.5162 44.7271V41.0421C12.5162 39.6932 11.5617 38.8706 10.1794 38.9364C8.96162 38.9364 8.00715 39.6603 7.84259 40.8118L8.73123 40.9763C8.79705 40.1867 9.35657 39.7261 10.1465 39.7261C11.0022 39.7261 11.5617 40.2196 11.5617 41.0092V41.1079L10.4427 41.2395C8.59958 41.404 7.71094 41.9963 7.71094 43.1149C7.71094 44.1349 8.50084 44.8258 9.65278 44.8258C10.4756 44.8258 11.2326 44.3981 11.5617 43.7401V44.7271H12.5162ZM10.4427 41.9963L11.5617 41.8647V42.1279C11.5617 43.2795 10.9364 44.0033 9.78443 44.0362C9.12618 44.0362 8.6654 43.6414 8.6654 43.1149C8.6654 42.5227 9.29074 42.1279 10.4427 41.9963ZM45.0338 38.8706C43.3224 38.8706 42.1704 40.0551 42.1704 41.8318C42.1704 43.6085 43.3224 44.7929 45.0338 44.8258C46.3503 44.8258 47.3048 44.1349 47.5681 42.9504L46.6136 42.753C46.482 43.5427 45.8895 43.9704 45.0667 43.9704C43.9477 43.9704 43.2236 43.1149 43.2236 41.8647C43.2236 40.5815 43.9477 39.759 45.0667 39.759C45.8895 39.759 46.482 40.2525 46.6136 40.9434L47.5681 40.746C47.3377 39.5944 46.3832 38.8706 45.0338 38.8706ZM51.353 38.8706C49.6416 38.8706 48.4238 40.1209 48.4238 41.8318C48.4053 42.2227 48.4682 42.6133 48.6084 42.9787C48.7487 43.3441 48.9632 43.6765 49.2385 43.9548C49.5138 44.2331 49.8439 44.4513 50.2079 44.5956C50.5718 44.7398 50.9618 44.807 51.353 44.7929C53.0645 44.7929 54.2822 43.5427 54.2822 41.8318C54.2822 40.1209 53.0645 38.8706 51.353 38.8706ZM51.3201 39.7261C52.4721 39.7261 53.262 40.6144 53.262 41.8318C53.262 43.082 52.505 43.9375 51.3201 43.9375C50.1682 43.9375 49.3783 43.0491 49.3783 41.8318C49.3783 40.5815 50.1682 39.7261 51.3201 39.7261ZM56.4545 39.0022H55.5V44.7271V44.76H56.4874V41.8647C56.4874 40.6473 57.014 39.759 58.0014 39.759C58.8242 39.759 59.252 40.2854 59.252 41.075V44.76H60.2065V41.8647C60.2065 40.6473 60.7331 39.759 61.7205 39.759C62.5433 39.759 62.9712 40.2854 62.9712 41.075V44.7271H63.9256V40.8776C63.9256 39.6932 63.1357 38.9035 61.918 38.9035C61.5244 38.8997 61.1386 39.0135 60.8102 39.2305C60.4818 39.4474 60.2257 39.7574 60.0749 40.1209C59.8774 39.3312 59.1204 38.9035 58.1988 38.9035C57.8208 38.894 57.4492 39.0032 57.1363 39.2156C56.8235 39.4281 56.585 39.7331 56.4545 40.088V39.0022ZM65.5054 38.9693V46.767H66.427V43.9046C66.6549 44.1817 66.9413 44.405 67.2656 44.5586C67.5899 44.7121 67.9442 44.7922 68.303 44.7929C70.0803 44.7929 71.0677 43.5098 71.0677 41.8318C71.0677 40.1538 70.1132 38.8706 68.3359 38.8706C67.5131 38.8706 66.7561 39.2654 66.4599 39.7919V38.9693H65.5054ZM68.2701 39.7261C69.3891 39.7261 70.1461 40.5815 70.1461 41.8318C70.1461 43.1149 69.3891 43.9375 68.2701 43.9375C67.184 43.9375 66.427 43.082 66.427 41.8318C66.427 40.5486 67.1511 39.7261 68.2701 39.7261ZM76.7945 44.7271V41.0421C76.7945 39.6932 75.84 38.8706 74.4577 38.9364C73.2399 38.9364 72.2854 39.6603 72.1209 40.8118L73.0095 40.9763C73.0753 40.1867 73.6348 39.7261 74.4248 39.7261C75.2805 39.7261 75.84 40.2196 75.84 41.0092V41.1079L74.721 41.2395C72.8779 41.404 71.9892 41.9963 71.9892 43.1149C71.9892 44.1349 72.7791 44.8258 73.9311 44.8258C74.7539 44.8258 75.5109 44.3981 75.84 43.7401V44.7271H76.7945ZM75.84 41.8647V42.1279C75.84 43.2795 75.2147 44.0033 74.0627 44.0362C73.4045 44.0362 72.9437 43.6414 72.9437 43.1149C72.9437 42.5227 73.569 42.1279 74.721 41.9963L75.84 41.8647ZM79.3287 39.0022H78.3743V44.7271V44.76H79.3616V42.2266C79.3616 40.7131 80.0199 39.7919 81.106 39.7919C81.8959 39.7919 82.3896 40.3512 82.3896 41.1408V44.76H83.3441V40.9434C83.3532 40.6731 83.3067 40.4037 83.2074 40.1521C83.1081 39.9004 82.9582 39.6719 82.7668 39.4806C82.5755 39.2893 82.3468 39.1394 82.0951 39.0401C81.8434 38.9408 81.5739 38.8943 81.3035 38.9035C80.8978 38.9035 80.4998 39.0137 80.152 39.2223C79.8042 39.431 79.5196 39.7302 79.3287 40.088V39.0022ZM89.5316 38.9693H88.5443L86.8657 43.4111L85.1872 39.0022H84.134L86.372 44.6613L85.5492 46.7999H86.5366L89.5316 38.9693Z" fill="#1A1A1A"/>
</svg>
