<svg width="129" height="108" viewBox="0 0 129 108" fill="none" xmlns="http://www.w3.org/2000/svg">
<path d="M125.822 86.4H110.775C109.02 86.4 107.499 85.059 107.499 83.2874V24.9C107.499 23.1284 106.177 21.6 104.422 21.6H89.375C87.6197 21.6 85.9992 20.0716 85.9992 18.3V3.11262C85.9992 1.34101 84.7769 0 83.0216 0H24.5769C22.8217 0 21.4998 1.52839 21.4998 3.3V18.4874C21.4998 20.259 19.9788 21.6 18.2236 21.6H3.17666C1.42143 21.6 0 23.0347 0 24.8063V83.1937C0 84.9653 1.42143 86.4 3.17666 86.4H18.2236C19.9788 86.4 21.4998 87.9284 21.4998 89.7V104.887C21.4998 106.659 22.8217 108 24.5769 108H83.0216C84.7769 108 85.9992 106.472 85.9992 104.7V89.5126C85.9992 87.741 87.6197 86.4 89.375 86.4H104.422C106.177 86.4 107.499 87.9284 107.499 89.7V104.887C107.499 106.659 109.02 108 110.775 108H125.822C127.577 108 128.999 106.565 128.999 104.794V89.6063C128.999 87.8347 127.577 86.4 125.822 86.4ZM83.0216 86.4H24.5769C22.8217 86.4 21.4998 85.059 21.4998 83.2874V24.9C21.4998 23.1284 22.8217 21.6 24.5769 21.6H83.0216C84.7769 21.6 85.9992 22.941 85.9992 24.7126V83.1C85.9992 84.8716 84.7769 86.4 83.0216 86.4Z" fill="#FDE967"/>
<path d="M55.4995 52.5001L41.2495 66.7501M57.0271 41.3078C58.8541 42.5201 60.6102 43.9494 62.2512 45.5903C63.9063 47.2455 65.3461 49.0177 66.565 50.8617M49.8819 47.8443L45.5696 46.4069C45.073 46.2413 44.526 46.3467 44.1263 46.6848L39.8406 50.3112C38.9632 51.0536 39.2125 52.4665 40.291 52.8638L44.3518 54.3599M53.521 63.5289L55.0171 67.5897C55.4144 68.6682 56.8273 68.9174 57.5697 68.04L61.1961 63.7543C61.5342 63.3547 61.6396 62.8077 61.474 62.3111L60.0366 57.9987M65.0223 39.4062L57.6626 40.6328C56.8679 40.7653 56.139 41.1559 55.5886 41.7442L45.669 52.3479C43.0978 55.0965 43.1693 59.3889 45.8307 62.0502C48.492 64.7116 52.7844 64.7831 55.533 62.2119L66.1367 52.2923C66.725 51.7419 67.1156 51.013 67.2481 50.2183L68.4747 42.8586C68.8131 40.8281 67.0528 39.0678 65.0223 39.4062Z" stroke="#1D252C" stroke-width="3.99998" stroke-linejoin="round"/>
</svg>
